<?xml version="1.0" encoding="UTF-8" standalone="no"?>
<!-- Created with Inkscape (http://www.inkscape.org/) -->
<svg
   xmlns:dc="http://purl.org/dc/elements/1.1/"
   xmlns:cc="http://web.resource.org/cc/"
   xmlns:rdf="http://www.w3.org/1999/02/22-rdf-syntax-ns#"
   xmlns:svg="http://www.w3.org/2000/svg"
   xmlns="http://www.w3.org/2000/svg"
   xmlns:xlink="http://www.w3.org/1999/xlink"
   xmlns:sodipodi="http://sodipodi.sourceforge.net/DTD/sodipodi-0.dtd"
   xmlns:inkscape="http://www.inkscape.org/namespaces/inkscape"
   width="16"
   height="16"
   id="svg2160"
   sodipodi:version="0.32"
   inkscape:version="0.45"
   sodipodi:docbase="/home/lse/public_html/Bambus/System/Icons/scalable/mimetypes"
   sodipodi:docname="extra-small-file.svg"
   inkscape:output_extension="org.inkscape.output.svg.inkscape"
   version="1.0"
   sodipodi:modified="true">
  <defs
     id="defs2162">
    <linearGradient
       inkscape:collect="always"
       id="linearGradient6356">
      <stop
         style="stop-color:#ffffff;stop-opacity:1;"
         offset="0"
         id="stop6358" />
      <stop
         style="stop-color:#ffffff;stop-opacity:0;"
         offset="1"
         id="stop6360" />
    </linearGradient>
    <linearGradient
       inkscape:collect="always"
       xlink:href="#linearGradient6356"
       id="linearGradient6362"
       x1="36.355797"
       y1="-0.064690024"
       x2="36.355797"
       y2="48.466801"
       gradientUnits="userSpaceOnUse"
       gradientTransform="matrix(0.353631,0,0,0.3514415,-5.5391955,-1.1934705)" />
    <linearGradient
       inkscape:collect="always"
       id="linearGradient3351">
      <stop
         style="stop-color:#ffffff;stop-opacity:1;"
         offset="0"
         id="stop3353" />
      <stop
         style="stop-color:#ffffff;stop-opacity:0;"
         offset="1"
         id="stop3355" />
    </linearGradient>
    <filter
       inkscape:collect="always"
       id="filter3335">
      <feGaussianBlur
         inkscape:collect="always"
         stdDeviation="0.058809523"
         id="feGaussianBlur3337" />
    </filter>
    <linearGradient
       inkscape:collect="always"
       xlink:href="#linearGradient3351"
       id="linearGradient3384"
       gradientUnits="userSpaceOnUse"
       x1="24.142857"
       y1="-0.71428573"
       x2="24.5"
       y2="32" />
  </defs>
  <sodipodi:namedview
     id="base"
     pagecolor="#ffffff"
     bordercolor="#666666"
     borderopacity="1.0"
     inkscape:pageopacity="0.0"
     inkscape:pageshadow="2"
     inkscape:zoom="19.79899"
     inkscape:cx="16.827917"
     inkscape:cy="8.6876354"
     inkscape:current-layer="layer1"
     showgrid="true"
     inkscape:grid-bbox="true"
     inkscape:document-units="px"
     showguides="true"
     inkscape:guide-bbox="true"
     inkscape:window-width="1272"
     inkscape:window-height="949"
     inkscape:window-x="0"
     inkscape:window-y="24"
     width="16px"
     height="16px" />
  <metadata
     id="metadata2165">
    <rdf:RDF>
      <cc:Work
         rdf:about="">
        <dc:format>image/svg+xml</dc:format>
        <dc:type
           rdf:resource="http://purl.org/dc/dcmitype/StillImage" />
      </cc:Work>
    </rdf:RDF>
  </metadata>
  <g
     id="layer1"
     inkscape:label="Layer 1"
     inkscape:groupmode="layer">
    <g
       id="g3377"
       transform="matrix(0.5765922,0,0,0.5345145,-7.8551186,0.2398318)">
      <path
         sodipodi:nodetypes="cccccc"
         id="rect3146"
         d="M 21.433266,0.5 L 33,0.5 C 36.142857,0.57142857 40.428571,5 40.5,8 L 40.5,28.549587 L 21.433266,28.549587 L 21.433266,0.5 z "
         style="color:#000000;fill:#d3d7cf;fill-opacity:1;fill-rule:nonzero;stroke:#babdb6;stroke-width:1.8012991;stroke-linecap:square;stroke-linejoin:miter;marker:none;marker-start:none;marker-mid:none;marker-end:none;stroke-miterlimit:4;stroke-dashoffset:0;stroke-opacity:1;visibility:visible;display:inline;overflow:visible;enable-background:accumulate" />
      <path
         sodipodi:nodetypes="cccccc"
         id="path3341"
         d="M 21.433266,0.5 L 33,0.5 C 36.142857,0.57142857 40.428571,5 40.5,8 L 40.5,28.549587 L 21.433266,28.549587 L 21.433266,0.5 z "
         style="opacity:0.52666662;color:#000000;fill:url(#linearGradient3384);fill-opacity:1;fill-rule:nonzero;stroke:#babdb6;stroke-width:1.8012991;stroke-linecap:square;stroke-linejoin:miter;marker:none;marker-start:none;marker-mid:none;marker-end:none;stroke-miterlimit:4;stroke-dashoffset:0;stroke-opacity:1;visibility:visible;display:inline;overflow:visible;enable-background:accumulate" />
      <path
         sodipodi:nodetypes="ccccccc"
         id="rect2168"
         d="M 21.433266,0.5 L 33,0.5 C 33,0.5 33.125,5.9107143 34.5,8.5 C 37.017857,6.375 40.5,8 40.5,8 L 40.5,28.549587 L 21.433266,28.549587 L 21.433266,0.5 z "
         style="color:#000000;fill:#eeeeec;fill-opacity:1;fill-rule:nonzero;stroke:#babdb6;stroke-width:1.8012991;stroke-linecap:square;stroke-linejoin:miter;marker:none;marker-start:none;marker-mid:none;marker-end:none;stroke-miterlimit:4;stroke-dashoffset:0;stroke-opacity:1;visibility:visible;display:inline;overflow:visible;enable-background:accumulate" />
      <path
         sodipodi:nodetypes="ccc"
         id="path3151"
         d="M 32,1.5 C 32,1.5 32.196429,6.7678572 34,9.7142857 C 37.517857,7.2321429 39.428571,8.6428571 39.428571,8.6428571"
         style="color:#000000;fill:none;fill-opacity:1;fill-rule:nonzero;stroke:#888a85;stroke-width:1.8012991;stroke-linecap:square;stroke-linejoin:miter;marker:none;marker-start:none;marker-mid:none;marker-end:none;stroke-miterlimit:4;stroke-dashoffset:0;stroke-opacity:1;visibility:visible;display:inline;overflow:visible;filter:url(#filter3335);enable-background:accumulate" />
      <path
         sodipodi:nodetypes="cccccc"
         id="path3149"
         d="M 23.216237,2.5885195 L 33.338514,2.5885195 C 36.338514,3.017091 38.312381,5.9755432 38.614813,8.0745092 L 38.805175,26.48105 L 23.262174,26.784511 L 23.216237,2.5885195 z "
         style="opacity:0.5;color:#000000;fill:none;fill-opacity:1;fill-rule:nonzero;stroke:#ffffff;stroke-width:1.8012991;stroke-linecap:square;stroke-linejoin:miter;marker:none;marker-start:none;marker-mid:none;marker-end:none;stroke-miterlimit:4;stroke-dashoffset:0;stroke-opacity:1;visibility:visible;display:inline;overflow:visible;enable-background:accumulate" />
    </g>
    <path
       style="color:#000000;fill:#c17d11;fill-opacity:1;fill-rule:nonzero;stroke:#8f5902;stroke-width:1;stroke-linecap:square;stroke-linejoin:miter;marker:none;marker-start:none;marker-mid:none;marker-end:none;stroke-miterlimit:4;stroke-dashoffset:0;stroke-opacity:1;visibility:visible;display:inline;overflow:visible;enable-background:accumulate"
       d="M 9.3815186,5.8060195 C 6.9759116,5.7877825 2.8666956,7.0080875 1.4432456,8.5432075 C -0.3086912,10.432586 0.5180058,14.07841 2.7853866,15.109201 C 5.0280876,16.128771 8.6832276,14.914521 9.3487846,14.180511 C 10.01434,13.446502 8.3934426,12.861861 9.1032706,11.410738 C 9.8439826,9.8964785 12.432612,6.8152005 10.723661,6.0178255 C 10.403232,5.8683175 9.9366596,5.8102285 9.3815186,5.8060195 z M 7.4828806,12.257963 C 7.9355616,12.257963 8.3012596,12.62199 8.3012596,13.072602 C 8.3012596,13.523214 7.9355616,13.887241 7.4828806,13.887241 C 7.0301996,13.887241 6.6645016,13.523214 6.6645016,13.072602 C 6.6645016,12.62199 7.0301996,12.257963 7.4828806,12.257963 z "
       id="path5360"
       sodipodi:nodetypes="csssssccsssc" />
    <path
       style="opacity:0.5;color:#000000;fill:#c17d11;fill-opacity:1;fill-rule:nonzero;stroke:#eeeeec;stroke-width:1.00000024;stroke-linecap:square;stroke-linejoin:miter;marker:none;marker-start:none;marker-mid:none;marker-end:none;stroke-miterlimit:4;stroke-dashoffset:0;stroke-opacity:1;visibility:visible;display:inline;overflow:visible;enable-background:accumulate"
       d="M 8.6759548,6.6830208 C 6.6240178,6.7020178 3.4160016,7.8623321 2.1278446,9.2515461 C 0.54242272,10.961347 1.5788057,13.490772 3.6306807,14.42359 C 5.6602227,15.346256 7.5420329,14.199651 8.1443309,13.535406 C 8.7466289,12.871162 7.1073317,12.859427 7.7496927,11.546228 C 8.4200037,10.175892 11.265187,7.502042 9.7186642,6.780455 C 9.4286912,6.645157 9.3390818,6.6690778 8.6759548,6.6830208 z M 7.4751526,12.180442 C 7.8848076,12.180442 8.6801366,12.361678 8.6801366,13.020124 C 8.6801366,13.836941 7.8848076,14.236598 7.4751526,14.236598 C 7.0654976,14.236598 6.5910774,13.980849 6.5910774,13.037875 C 6.5910774,12.238792 7.0654976,12.180442 7.4751526,12.180442 z "
       id="path6352"
       sodipodi:nodetypes="csssssccsssc" />
    <path
       style="color:#000000;fill:#204a87;fill-opacity:1;fill-rule:nonzero;stroke:none;stroke-width:1;stroke-linecap:square;stroke-linejoin:miter;marker:none;marker-start:none;marker-mid:none;marker-end:none;stroke-miterlimit:4;stroke-dashoffset:0;stroke-opacity:1;visibility:visible;display:inline;overflow:visible;enable-background:accumulate"
       d="M 9.7458976,7.5556035 C 9.7458976,8.0498235 9.5769696,9.2409225 9.1080626,9.2409225 C 8.6391576,9.2409225 7.5707916,8.2078225 7.5707916,7.7136025 C 7.5707916,7.2193825 8.4275256,6.6602785 8.8964306,6.6602785 C 9.3653366,6.6602785 9.7458976,7.0613835 9.7458976,7.5556035 z "
       id="path6337"
       sodipodi:nodetypes="csssc" />
    <path
       style="color:#000000;fill:#a40000;fill-opacity:1;fill-rule:nonzero;stroke:none;stroke-width:1;stroke-linecap:square;stroke-linejoin:miter;marker:none;marker-start:none;marker-mid:none;marker-end:none;stroke-miterlimit:4;stroke-dashoffset:0;stroke-opacity:1;visibility:visible;display:inline;overflow:visible;enable-background:accumulate"
       d="M 7.0470296,8.4865205 C 7.0470296,9.0763555 6.8280306,9.2407845 6.3651226,9.2407845 C 5.9022156,9.2407845 4.9519796,9.2649215 4.9519796,8.6750865 C 4.9519796,8.0852515 5.7455216,7.4179795 6.2084286,7.4179795 C 6.6713366,7.4179795 7.0470296,7.8966855 7.0470296,8.4865205 z "
       id="path6339"
       sodipodi:nodetypes="csssc" />
    <path
       style="color:#000000;fill:#edd400;fill-opacity:1;fill-rule:nonzero;stroke:none;stroke-width:1;stroke-linecap:square;stroke-linejoin:miter;marker:none;marker-start:none;marker-mid:none;marker-end:none;stroke-miterlimit:4;stroke-dashoffset:0;stroke-opacity:1;visibility:visible;display:inline;overflow:visible;enable-background:accumulate"
       d="M 3.9044546,9.6148795 C 3.9044546,10.109099 3.5238936,10.510205 3.0549876,10.510205 C 2.5860826,10.510205 2.2055216,10.109099 2.2055216,9.6148795 C 2.2055216,9.1206585 2.9564386,8.5088885 3.4253436,8.5088885 C 3.8942496,8.5088885 3.9044546,9.1206585 3.9044546,9.6148795 z "
       id="path6341"
       sodipodi:nodetypes="csssc" />
    <path
       style="color:#000000;fill:#4e9a06;fill-opacity:1;fill-rule:nonzero;stroke:none;stroke-width:1;stroke-linecap:square;stroke-linejoin:miter;marker:none;marker-start:none;marker-mid:none;marker-end:none;stroke-miterlimit:4;stroke-dashoffset:0;stroke-opacity:1;visibility:visible;display:inline;overflow:visible;enable-background:accumulate"
       d="M 4.4024576,12.41651 C 4.4024576,12.910731 3.4399086,13.153837 2.9710026,13.153837 C 2.5020966,13.153837 2.3331676,12.489401 2.3331676,11.99518 C 2.3331676,11.50096 2.7137286,11.099855 3.1826346,11.099855 C 3.6515406,11.099855 4.4024576,11.92229 4.4024576,12.41651 z "
       id="path6343"
       sodipodi:nodetypes="csssc" />
    <path
       style="color:#000000;fill:#5c3566;fill-opacity:1;fill-rule:nonzero;stroke:none;stroke-width:1;stroke-linecap:square;stroke-linejoin:miter;marker:none;marker-start:none;marker-mid:none;marker-end:none;stroke-miterlimit:4;stroke-dashoffset:0;stroke-opacity:1;visibility:visible;display:inline;overflow:visible;enable-background:accumulate"
       d="M 7.0470296,10.815616 C 7.0470296,11.309836 6.1902966,11.552943 5.7213896,11.552943 C 5.2524846,11.552943 4.8190146,10.783173 4.8190146,10.288953 C 4.8190146,9.7947335 5.2524846,9.7622915 5.7213896,9.7622915 C 6.1902966,9.7622915 7.0470296,10.321396 7.0470296,10.815616 z "
       id="path6345"
       sodipodi:nodetypes="csssc" />
    <path
       style="opacity:0.7;color:#000000;fill:url(#linearGradient6362);fill-opacity:1;fill-rule:nonzero;stroke:#8f5902;stroke-width:1;stroke-linecap:square;stroke-linejoin:miter;marker:none;marker-start:none;marker-mid:none;marker-end:none;stroke-miterlimit:4;stroke-dashoffset:0;stroke-opacity:1;visibility:visible;display:inline;overflow:visible;enable-background:accumulate"
       d="M 9.3815186,5.8060195 C 6.9759116,5.7877825 2.8666956,7.0080875 1.4432456,8.5432075 C -0.3086912,10.432586 0.5180058,14.07841 2.7853866,15.109201 C 5.0280876,16.128771 8.6832276,14.914521 9.3487846,14.180511 C 10.01434,13.446502 8.3934426,12.861861 9.1032706,11.410738 C 9.8439826,9.8964785 12.432612,6.8152005 10.723661,6.0178255 C 10.403232,5.8683175 9.9366596,5.8102285 9.3815186,5.8060195 z M 7.4828806,12.257963 C 7.9355616,12.257963 8.3012596,12.62199 8.3012596,13.072602 C 8.3012596,13.523214 7.9355616,13.887241 7.4828806,13.887241 C 7.0301996,13.887241 6.6645016,13.523214 6.6645016,13.072602 C 6.6645016,12.62199 7.0301996,12.257963 7.4828806,12.257963 z "
       id="path6354"
       sodipodi:nodetypes="csssssccsssc" />
  </g>
</svg>
