<?xml version="1.0" encoding="UTF-8" standalone="no"?>
<!-- Created with Inkscape (http://www.inkscape.org/) -->
<svg
   xmlns:dc="http://purl.org/dc/elements/1.1/"
   xmlns:cc="http://web.resource.org/cc/"
   xmlns:rdf="http://www.w3.org/1999/02/22-rdf-syntax-ns#"
   xmlns:svg="http://www.w3.org/2000/svg"
   xmlns="http://www.w3.org/2000/svg"
   xmlns:xlink="http://www.w3.org/1999/xlink"
   xmlns:sodipodi="http://sodipodi.sourceforge.net/DTD/sodipodi-0.dtd"
   xmlns:inkscape="http://www.inkscape.org/namespaces/inkscape"
   width="16"
   height="16"
   id="svg1944"
   sodipodi:version="0.32"
   inkscape:version="0.45"
   sodipodi:docbase="/home/lse/public_html/Bambus/System/Icons/scalable/mimetypes"
   sodipodi:docname="small-news-feed.svg"
   inkscape:export-filename="/home/lse/public_html/Bambus/System/Applications/RSSManager.bap/Icon64.png"
   inkscape:export-xdpi="90"
   inkscape:export-ydpi="90"
   inkscape:output_extension="org.inkscape.output.svg.inkscape"
   version="1.0"
   sodipodi:modified="true">
  <defs
     id="defs1946">
    <linearGradient
       inkscape:collect="always"
       xlink:href="#linearGradient2824"
       id="linearGradient3174"
       gradientUnits="userSpaceOnUse"
       gradientTransform="matrix(0.5124691,0,0,0.5124761,-2.2082698,-14.583656)"
       x1="19.818182"
       y1="27.90909"
       x2="19.818182"
       y2="60.672832" />
    <linearGradient
       inkscape:collect="always"
       id="linearGradient2824">
      <stop
         style="stop-color:white;stop-opacity:1;"
         offset="0"
         id="stop2826" />
      <stop
         style="stop-color:white;stop-opacity:0;"
         offset="1"
         id="stop2828" />
    </linearGradient>
    <linearGradient
       inkscape:collect="always"
       id="linearGradient2814">
      <stop
         style="stop-color:white;stop-opacity:1;"
         offset="0"
         id="stop2816" />
      <stop
         style="stop-color:white;stop-opacity:0;"
         offset="1"
         id="stop2818" />
    </linearGradient>
    <linearGradient
       inkscape:collect="always"
       id="linearGradient2804">
      <stop
         style="stop-color:white;stop-opacity:1;"
         offset="0"
         id="stop2806" />
      <stop
         style="stop-color:white;stop-opacity:0;"
         offset="1"
         id="stop2808" />
    </linearGradient>
    <linearGradient
       inkscape:collect="always"
       id="linearGradient2208">
      <stop
         style="stop-color:#ffffff;stop-opacity:1;"
         offset="0"
         id="stop2210" />
      <stop
         style="stop-color:#ffffff;stop-opacity:0;"
         offset="1"
         id="stop2212" />
    </linearGradient>
    <linearGradient
       inkscape:collect="always"
       xlink:href="#linearGradient2208"
       id="linearGradient2214"
       x1="3"
       y1="32.07803"
       x2="60"
       y2="32.07803"
       gradientUnits="userSpaceOnUse"
       gradientTransform="matrix(0.522724,0,0,0.522724,8.181922,3.45465)" />
    <linearGradient
       inkscape:collect="always"
       xlink:href="#linearGradient2804"
       id="linearGradient2810"
       x1="9.818182"
       y1="7.181818"
       x2="9.818182"
       y2="28.461536"
       gradientUnits="userSpaceOnUse" />
    <linearGradient
       inkscape:collect="always"
       xlink:href="#linearGradient2814"
       id="linearGradient2820"
       x1="38.090908"
       y1="-0.090909123"
       x2="38.090908"
       y2="43.529636"
       gradientUnits="userSpaceOnUse" />
    <linearGradient
       inkscape:collect="always"
       xlink:href="#linearGradient2824"
       id="linearGradient2830"
       x1="19.818182"
       y1="27.90909"
       x2="19.818182"
       y2="60.672832"
       gradientUnits="userSpaceOnUse" />
    <linearGradient
       inkscape:collect="always"
       xlink:href="#linearGradient2824"
       id="linearGradient3188"
       gradientUnits="userSpaceOnUse"
       gradientTransform="matrix(0.7154255,0,0,0.7174667,45.847702,1.0420031)"
       x1="19.818182"
       y1="27.90909"
       x2="19.818182"
       y2="60.672832" />
  </defs>
  <sodipodi:namedview
     id="base"
     pagecolor="#ffffff"
     bordercolor="#666666"
     borderopacity="1.0"
     inkscape:pageopacity="0.0"
     inkscape:pageshadow="2"
     inkscape:zoom="22"
     inkscape:cx="18.590909"
     inkscape:cy="7.1290904"
     inkscape:current-layer="layer1"
     showgrid="true"
     inkscape:document-units="px"
     inkscape:grid-bbox="true"
     inkscape:window-width="1272"
     inkscape:window-height="945"
     inkscape:window-x="0"
     inkscape:window-y="24"
     width="16px"
     height="16px" />
  <metadata
     id="metadata1949">
    <rdf:RDF>
      <cc:Work
         rdf:about="">
        <dc:format>image/svg+xml</dc:format>
        <dc:type
           rdf:resource="http://purl.org/dc/dcmitype/StillImage" />
      </cc:Work>
    </rdf:RDF>
  </metadata>
  <g
     id="layer1"
     inkscape:label="Layer 1"
     inkscape:groupmode="layer">
    <path
       style="fill:#fca200;fill-opacity:1;fill-rule:nonzero;stroke:#c77311;stroke-width:0.99999994;stroke-miterlimit:4;stroke-dasharray:none;stroke-opacity:1"
       d="M 2.442761,0.48374266 L 13.685641,0.48374266 C 14.957562,0.57465169 15.559454,1.2223792 15.559454,2.3587421 L 15.559454,13.608741 C 15.559454,15.017831 14.957562,15.483741 13.685641,15.483741 L 2.442761,15.483741 C 1.034562,15.483741 0.47809619,14.745105 0.56894771,13.608741 L 0.56894771,2.3587421 C 0.52352188,0.85874244 1.3071165,0.48374266 2.442761,0.48374266 z "
       id="path2859"
       sodipodi:nodetypes="ccccccccc" />
    <path
       style="opacity:0.7;fill:url(#linearGradient3174);fill-opacity:1;fill-rule:nonzero;stroke:#c77311;stroke-width:0.99999994;stroke-miterlimit:4;stroke-dasharray:none;stroke-opacity:1"
       d="M 2.442761,0.48374198 L 13.685641,0.48374198 C 14.957562,0.57465169 15.559454,1.2223786 15.559454,2.3587421 L 15.559454,13.608741 C 15.559454,15.017831 14.957562,15.483741 13.685641,15.483741 L 2.442761,15.483741 C 1.034562,15.483741 0.47809619,14.745105 0.56894771,13.608741 L 0.56894771,2.3587421 C 0.52352195,0.85874244 1.3071165,0.48374198 2.442761,0.48374198 z "
       id="path2822"
       sodipodi:nodetypes="ccccccccc" />
    <g
       id="g2180"
       transform="matrix(0.6123602,0,0,0.6088897,1.0233085,1.4375304)">
      <circle
         style="fill:#ffffff"
         sodipodi:ry="24"
         sodipodi:rx="24"
         sodipodi:cy="189"
         sodipodi:cx="68"
         id="circle2863"
         r="24"
         cy="189"
         cx="68"
         transform="matrix(9.4027658e-2,0,0,9.4295928e-2,-0.9092289,-1.0831106)" />
      <path
         style="fill:#ffffff"
         id="path2865"
         d="M 14.135236,19.001978 L 10.938288,19.001978 C 10.938288,14.731554 7.4862739,11.269692 3.2279995,11.269692 L 3.2279995,8.0636217 C 9.2518998,8.0636217 14.135236,12.96089 14.135236,19.001978 z " />
      <path
         style="fill:#ffffff"
         id="path2867"
         d="M 16.391905,19.001978 C 16.391905,11.711011 10.498224,5.8005143 3.2279995,5.8005143 L 3.2279995,2.5001489 C 12.31578,2.5001489 19.682881,9.888269 19.682881,19.001978 L 16.391905,19.001978 z " />
    </g>
    <path
       style="opacity:0.5;fill:none;fill-opacity:1;fill-rule:nonzero;stroke:#eeeeec;stroke-width:1.00000012;stroke-miterlimit:4;stroke-dasharray:none;stroke-opacity:1"
       d="M 2.91921,1.5313574 L 13.167706,1.5313574 C 14.327132,1.6142646 14.421244,1.7504281 14.421244,2.7867597 L 14.421244,13.046447 C 14.421244,14.331498 14.327132,14.529121 13.167706,14.529121 L 2.91921,14.529121 C 1.6355599,14.529121 1.4464931,14.173688 1.529309,13.137356 L 1.529309,2.8776688 C 1.487901,1.5097106 1.8840082,1.5313574 2.91921,1.5313574 z "
       id="path3169"
       sodipodi:nodetypes="ccccccccc" />
    <path
       style="fill:#fca200;fill-opacity:1;fill-rule:nonzero;stroke:#c77311;stroke-width:1;stroke-miterlimit:4;stroke-dasharray:none;stroke-opacity:1"
       d="M 52.34071,22.136364 L 68.03618,22.136364 C 69.811828,22.263637 70.652091,23.170455 70.652091,24.761363 L 70.652091,40.511363 C 70.652091,42.48409 69.811828,43.136364 68.03618,43.136364 L 52.34071,43.136364 C 50.374813,43.136364 49.597967,42.102272 49.724799,40.511363 L 49.724799,24.761363 C 49.661383,22.661364 50.755309,22.136364 52.34071,22.136364 z "
       id="path3174"
       sodipodi:nodetypes="ccccccccc" />
    <path
       style="opacity:0.7;fill:url(#linearGradient3188);fill-opacity:1;fill-rule:nonzero;stroke:#c77311;stroke-width:1;stroke-miterlimit:4;stroke-dasharray:none;stroke-opacity:1"
       d="M 52.34071,22.136363 L 68.03618,22.136363 C 69.811828,22.263637 70.652091,23.170454 70.652091,24.761363 L 70.652091,40.511363 C 70.652091,42.48409 69.811828,43.136364 68.03618,43.136364 L 52.34071,43.136364 C 50.374813,43.136364 49.597967,42.102272 49.724799,40.511363 L 49.724799,24.761363 C 49.661383,22.661364 50.755309,22.136363 52.34071,22.136363 z "
       id="path3176"
       sodipodi:nodetypes="ccccccccc" />
    <g
       id="g3178"
       transform="matrix(0.9723552,0,0,0.9695895,49.01334,22.212245)">
      <circle
         style="fill:#ffffff"
         sodipodi:ry="24"
         sodipodi:rx="24"
         sodipodi:cy="189"
         sodipodi:cx="68"
         id="circle3180"
         r="24"
         cy="189"
         cx="68"
         transform="matrix(9.4027658e-2,0,0,9.4295928e-2,-0.9092289,-1.0831106)" />
      <path
         style="fill:#ffffff"
         id="path3182"
         d="M 14.135236,19.001978 L 10.938288,19.001978 C 10.938288,14.731554 7.4862739,11.269692 3.2279995,11.269692 L 3.2279995,8.0636217 C 9.2518998,8.0636217 14.135236,12.96089 14.135236,19.001978 z " />
      <path
         style="fill:#ffffff"
         id="path3184"
         d="M 16.391905,19.001978 C 16.391905,11.711011 10.498224,5.8005143 3.2279995,5.8005143 L 3.2279995,2.5001489 C 12.31578,2.5001489 19.682881,9.888269 19.682881,19.001978 L 16.391905,19.001978 z " />
    </g>
    <path
       style="opacity:0.5;fill:none;fill-opacity:1;fill-rule:nonzero;stroke:#eeeeec;stroke-width:1.00000012;stroke-miterlimit:4;stroke-dasharray:none;stroke-opacity:1"
       d="M 53.005851,23.093934 L 67.313124,23.093934 C 68.931724,23.210004 69.697669,24.036997 69.697669,25.487861 L 69.697669,39.851424 C 69.697669,41.650496 68.931724,42.245351 67.313124,42.245351 L 53.005851,42.245351 C 51.213828,42.245351 50.505691,41.302289 50.621305,39.851424 L 50.621305,25.487861 C 50.563498,23.572719 51.560671,23.093934 53.005851,23.093934 z "
       id="path3186"
       sodipodi:nodetypes="ccccccccc" />
  </g>
</svg>
