<?xml version="1.0" encoding="UTF-8" standalone="no"?>
<!-- Created with Inkscape (http://www.inkscape.org/) -->
<svg
   xmlns:dc="http://purl.org/dc/elements/1.1/"
   xmlns:cc="http://web.resource.org/cc/"
   xmlns:rdf="http://www.w3.org/1999/02/22-rdf-syntax-ns#"
   xmlns:svg="http://www.w3.org/2000/svg"
   xmlns="http://www.w3.org/2000/svg"
   xmlns:xlink="http://www.w3.org/1999/xlink"
   xmlns:sodipodi="http://sodipodi.sourceforge.net/DTD/sodipodi-0.dtd"
   xmlns:inkscape="http://www.inkscape.org/namespaces/inkscape"
   width="16"
   height="16"
   id="svg2203"
   sodipodi:version="0.32"
   inkscape:version="0.45"
   sodipodi:docbase="/home/lse/public_html/Bambus/System/Icons/scalable/mimetypes"
   sodipodi:docname="extra-small-news-channel.svg"
   inkscape:output_extension="org.inkscape.output.svg.inkscape"
   version="1.0"
   inkscape:export-filename="/home/lse/public_html/Bambus/System/Icons/0.12/16x16/places/folder.png"
   inkscape:export-xdpi="90"
   inkscape:export-ydpi="90"
   sodipodi:modified="true">
  <defs
     id="defs2205">
    <linearGradient
       inkscape:collect="always"
       xlink:href="#linearGradient3222"
       id="linearGradient2481"
       gradientUnits="userSpaceOnUse"
       gradientTransform="matrix(0.4478733,0,0,0.4457021,26.267036,13.31241)"
       x1="35.142857"
       y1="35.285713"
       x2="34.857143"
       y2="18.571428" />
    <linearGradient
       id="linearGradient3165"
       inkscape:collect="always">
      <stop
         id="stop3167"
         offset="0"
         style="stop-color:#ffffff;stop-opacity:1;" />
      <stop
         id="stop3169"
         offset="1"
         style="stop-color:#ffffff;stop-opacity:0;" />
    </linearGradient>
    <linearGradient
       inkscape:collect="always"
       xlink:href="#linearGradient3165"
       id="linearGradient2479"
       gradientUnits="userSpaceOnUse"
       gradientTransform="matrix(0.4659271,0,0,0.4636684,25.801109,14.52242)"
       x1="20.714285"
       y1="1"
       x2="20.428572"
       y2="42.15625" />
    <linearGradient
       id="linearGradient3222"
       inkscape:collect="always">
      <stop
         id="stop3224"
         offset="0"
         style="stop-color:#000000;stop-opacity:1;" />
      <stop
         id="stop3226"
         offset="1"
         style="stop-color:#000000;stop-opacity:0;" />
    </linearGradient>
    <linearGradient
       inkscape:collect="always"
       xlink:href="#linearGradient3222"
       id="linearGradient2477"
       gradientUnits="userSpaceOnUse"
       gradientTransform="translate(26,12.41364)"
       x1="5.2022853"
       y1="16.848221"
       x2="8.6873121"
       y2="15.989593" />
    <linearGradient
       inkscape:collect="always"
       id="linearGradient3286">
      <stop
         style="stop-color:#ffffff;stop-opacity:1;"
         offset="0"
         id="stop3288" />
      <stop
         style="stop-color:#ffffff;stop-opacity:0;"
         offset="1"
         id="stop3290" />
    </linearGradient>
    <linearGradient
       inkscape:collect="always"
       id="linearGradient3273">
      <stop
         style="stop-color:#ffffff;stop-opacity:1;"
         offset="0"
         id="stop3275" />
      <stop
         style="stop-color:#ffffff;stop-opacity:0;"
         offset="1"
         id="stop3277" />
    </linearGradient>
    <linearGradient
       inkscape:collect="always"
       id="linearGradient3217">
      <stop
         style="stop-color:#ffffff;stop-opacity:1;"
         offset="0"
         id="stop3219" />
      <stop
         style="stop-color:#ffffff;stop-opacity:0;"
         offset="1"
         id="stop3221" />
    </linearGradient>
    <linearGradient
       inkscape:collect="always"
       id="linearGradient3195">
      <stop
         style="stop-color:#ffffff;stop-opacity:1;"
         offset="0"
         id="stop3197" />
      <stop
         style="stop-color:#ffffff;stop-opacity:0;"
         offset="1"
         id="stop3199" />
    </linearGradient>
    <linearGradient
       inkscape:collect="always"
       xlink:href="#linearGradient3195"
       id="linearGradient3233"
       gradientUnits="userSpaceOnUse"
       x1="18.283762"
       y1="-3.5177798"
       x2="18.283762"
       y2="35.277645"
       gradientTransform="matrix(1.4987659,0,0,1.5016588,-0.2705784,4.7661226)" />
    <linearGradient
       inkscape:collect="always"
       xlink:href="#linearGradient3217"
       id="linearGradient3235"
       gradientUnits="userSpaceOnUse"
       x1="19.697975"
       y1="-1.8005204"
       x2="19.697975"
       y2="34.872978"
       gradientTransform="matrix(1.4987659,0,0,1.5016588,-0.2705784,4.7661226)" />
    <linearGradient
       inkscape:collect="always"
       xlink:href="#linearGradient3217"
       id="linearGradient3256"
       gradientUnits="userSpaceOnUse"
       x1="19.697975"
       y1="-1.8005204"
       x2="19.697975"
       y2="34.872978"
       gradientTransform="matrix(0.4787233,0,0,0.4332566,0.2606405,1.8426511)" />
    <linearGradient
       inkscape:collect="always"
       xlink:href="#linearGradient3195"
       id="linearGradient3261"
       gradientUnits="userSpaceOnUse"
       x1="18.283762"
       y1="-3.5177798"
       x2="18.283762"
       y2="35.277645"
       gradientTransform="matrix(0.4993872,0,0,0.4737982,15.705642,1.3685189)" />
    <linearGradient
       inkscape:collect="always"
       xlink:href="#linearGradient3273"
       id="linearGradient3279"
       x1="6.8185296"
       y1="0.14060503"
       x2="6.8185296"
       y2="16.85985"
       gradientUnits="userSpaceOnUse"
       gradientTransform="translate(-9.2387199e-7,-1)" />
    <linearGradient
       inkscape:collect="always"
       xlink:href="#linearGradient3286"
       id="linearGradient3292"
       x1="10.051018"
       y1="-0.26345599"
       x2="10.051018"
       y2="17.092512"
       gradientUnits="userSpaceOnUse"
       gradientTransform="translate(-9.2387199e-7,-1)" />
    <linearGradient
       inkscape:collect="always"
       xlink:href="#linearGradient3222"
       id="linearGradient2518"
       gradientUnits="userSpaceOnUse"
       gradientTransform="translate(26,12.41364)"
       x1="5.2022853"
       y1="16.848221"
       x2="8.6873121"
       y2="15.989593" />
    <linearGradient
       inkscape:collect="always"
       xlink:href="#linearGradient3165"
       id="linearGradient2520"
       gradientUnits="userSpaceOnUse"
       gradientTransform="matrix(0.4659271,0,0,0.4636684,25.801109,14.52242)"
       x1="20.714285"
       y1="1"
       x2="20.428572"
       y2="42.15625" />
    <linearGradient
       inkscape:collect="always"
       xlink:href="#linearGradient3222"
       id="linearGradient2522"
       gradientUnits="userSpaceOnUse"
       gradientTransform="matrix(0.4478733,0,0,0.4457021,26.267036,13.31241)"
       x1="35.142857"
       y1="35.285713"
       x2="34.857143"
       y2="18.571428" />
  </defs>
  <sodipodi:namedview
     id="base"
     pagecolor="#ffffff"
     bordercolor="#666666"
     borderopacity="1.0"
     inkscape:pageopacity="0.0"
     inkscape:pageshadow="2"
     inkscape:zoom="19.79899"
     inkscape:cx="24"
     inkscape:cy="8.2837027"
     inkscape:current-layer="g2451"
     showgrid="true"
     inkscape:grid-bbox="true"
     inkscape:document-units="px"
     inkscape:window-width="1270"
     inkscape:window-height="945"
     inkscape:window-x="0"
     inkscape:window-y="24"
     width="16px"
     height="16px" />
  <metadata
     id="metadata2208">
    <rdf:RDF>
      <cc:Work
         rdf:about="">
        <dc:format>image/svg+xml</dc:format>
        <dc:type
           rdf:resource="http://purl.org/dc/dcmitype/StillImage" />
      </cc:Work>
    </rdf:RDF>
  </metadata>
  <g
     id="layer1"
     inkscape:label="Layer 1"
     inkscape:groupmode="layer">
    <g
       id="g2451"
       transform="matrix(0.7148998,0,0,0.7148998,-18.449198,-8.6548218)">
      <path
         sodipodi:nodetypes="czczczcc"
         id="path2171"
         d="M 26.599841,20.020202 C 26.599841,20.020202 34.34926,20.280551 36.800316,19.556534 C 39.251374,18.832517 46.568146,14.91985 46.568146,14.91985 C 46.568146,14.91985 47.5,18.778233 47.5,22.404782 C 47.5,26.031331 46.568146,29.889715 46.568146,29.889715 C 46.568146,29.889715 40.225489,26.544039 36.800316,25.716699 C 33.375144,24.88936 26.599841,25.253031 26.599841,25.253031 L 26.599841,20.020202 z "
         style="color:#000000;fill:#babdb6;fill-opacity:1;fill-rule:nonzero;stroke:#555753;stroke-width:1.39879727;stroke-linecap:butt;stroke-linejoin:bevel;marker:none;marker-start:none;marker-mid:none;marker-end:none;stroke-miterlimit:4;stroke-dashoffset:0;stroke-opacity:1;visibility:visible;display:inline;overflow:visible;enable-background:accumulate" />
      <path
         sodipodi:nodetypes="czczczcc"
         id="path3157"
         d="M 27.976618,20.228046 C 27.976618,20.228046 35.050582,20.465702 37.287999,19.804792 C 39.525417,19.143882 45.704444,15.64368 45.704444,15.64368 C 45.704444,15.64368 46.483647,19.165759 46.483647,22.47621 C 46.483647,25.786662 45.740158,29.165884 45.740158,29.165884 C 45.740158,29.165884 40.414626,26.183252 37.287999,25.428026 C 34.161371,24.672798 27.976618,25.004771 27.976618,25.004771 L 27.976618,20.228046 z "
         style="opacity:0.7;color:#000000;fill:none;fill-opacity:1;fill-rule:nonzero;stroke:#ffffff;stroke-width:1.39879727;stroke-linecap:butt;stroke-linejoin:bevel;marker:none;marker-start:none;marker-mid:none;marker-end:none;stroke-miterlimit:4;stroke-dashoffset:0;stroke-opacity:1;visibility:visible;display:inline;overflow:visible;enable-background:accumulate" />
      <path
         sodipodi:nodetypes="csccccccscsc"
         id="rect2168"
         d="M 46.563986,14.91364 C 46.563986,14.91364 39.245135,18.826307 36.794077,19.550324 C 34.34302,20.274341 26.601921,20.013992 26.601921,20.013992 L 26.601921,25.259241 C 26.601921,25.259241 27.946341,25.180217 29.717809,25.172303 L 32.684015,32.5 L 36.320577,32.272225 L 33.73643,25.28822 C 34.863669,25.370311 35.930484,25.514311 36.794077,25.722909 C 40.219249,26.550249 46.563987,29.895925 46.563986,29.895925 C 46.563986,29.895925 44.700279,26.031331 44.700278,22.404782 C 44.700278,18.778233 46.563987,14.91364 46.563986,14.91364 z "
         style="color:#000000;fill:url(#linearGradient2518);fill-opacity:1;fill-rule:nonzero;stroke:#888a85;stroke-width:1.39879727;stroke-linecap:butt;stroke-linejoin:miter;marker:none;marker-start:none;marker-mid:none;marker-end:none;stroke-miterlimit:0;stroke-dasharray:none;stroke-dashoffset:0;stroke-opacity:1;visibility:visible;display:inline;overflow:visible;enable-background:accumulate" />
      <path
         sodipodi:nodetypes="czczczcc"
         id="path3147"
         d="M 26.5,20.020202 C 26.5,20.020202 34.31598,20.280551 36.767036,19.556534 C 39.218094,18.832517 46.534866,14.91985 46.534866,14.91985 C 46.534866,14.91985 45.671157,18.778233 45.671157,22.404782 C 45.671157,26.031331 46.534866,29.889715 46.534866,29.889715 C 46.534866,29.889715 40.192209,26.544039 36.767036,25.716699 C 33.341864,24.88936 26.5,25.253031 26.5,25.253031 L 26.5,20.020202 z "
         style="color:#000000;fill:#eeeeec;fill-opacity:1;fill-rule:nonzero;stroke:#555753;stroke-width:1.39879727;stroke-linecap:butt;stroke-linejoin:miter;marker:none;marker-start:none;marker-mid:none;marker-end:none;stroke-miterlimit:0;stroke-dasharray:none;stroke-dashoffset:0;stroke-opacity:1;visibility:visible;display:inline;overflow:visible;enable-background:accumulate" />
      <path
         sodipodi:nodetypes="ccccc"
         id="path3151"
         d="M 35.364311,19.868188 C 35.780289,19.790781 36.154272,19.737538 36.767036,19.556534 C 36.767036,19.556534 36.767036,25.716699 36.767036,25.716699 C 36.33889,25.613282 35.701355,25.594712 35.379396,25.525477 C 35.379396,25.525477 35.364311,19.868188 35.364311,19.868188 z "
         style="color:#000000;fill:#3465a4;fill-opacity:1;fill-rule:nonzero;stroke:#204a87;stroke-width:1.39879727;stroke-linecap:butt;stroke-linejoin:miter;marker:none;marker-start:none;marker-mid:none;marker-end:none;stroke-miterlimit:4;stroke-dashoffset:0;stroke-opacity:1;visibility:visible;display:inline;overflow:visible;enable-background:accumulate" />
      <path
         sodipodi:nodetypes="ccccc"
         id="path3155"
         d="M 31.434204,26.179496 L 33.189699,31.21348 L 34.500656,30.960442 L 32.918013,26.238188 C 32.918013,26.238188 31.434204,26.179496 31.434204,26.179496 z "
         style="opacity:0.7;color:#000000;fill:none;fill-opacity:1;fill-rule:nonzero;stroke:#eeeeec;stroke-width:1.39879727;stroke-linecap:butt;stroke-linejoin:miter;marker:none;marker-start:none;marker-mid:none;marker-end:none;stroke-miterlimit:2.20000005;stroke-dasharray:none;stroke-dashoffset:0;stroke-opacity:1;visibility:visible;display:inline;overflow:visible;enable-background:accumulate" />
      <path
         id="path3177"
         d="M 27.917251,21.641063 C 33.441816,21.641063 33.574938,21.641063 33.574938,21.641063"
         style="fill:none;fill-rule:evenodd;stroke:#000000;stroke-width:1.39879727px;stroke-linecap:butt;stroke-linejoin:miter;stroke-opacity:1" />
      <path
         id="path3181"
         d="M 27.952966,23.528855 C 33.47753,23.528855 33.610652,23.528855 33.610652,23.528855"
         style="fill:none;fill-rule:evenodd;stroke:#000000;stroke-width:1.39879727px;stroke-linecap:butt;stroke-linejoin:miter;stroke-opacity:1"
         sodipodi:nodetypes="cc" />
      <path
         sodipodi:nodetypes="cssssssccsccccssssssssssscsc"
         id="path3159"
         d="M 46.563986,14.91364 C 46.563986,14.91364 46.109049,15.158569 45.384608,15.536694 C 44.300521,16.102539 42.614717,16.975801 40.972861,17.768098 C 39.871794,18.299432 38.7877,18.790806 37.915214,19.144614 C 37.480515,19.320892 37.100459,19.459822 36.794077,19.550324 C 36.334504,19.686077 35.690559,19.794351 34.944929,19.869096 C 33.702211,19.99367 32.18174,20.041577 30.780705,20.057461 C 28.539048,20.082876 26.601921,20.013992 26.601921,20.013992 L 26.601921,25.259241 C 26.601921,25.259241 27.019795,25.236939 27.708498,25.215772 C 28.249552,25.197048 28.918878,25.175872 29.717809,25.172303 L 32.684015,32.5 L 36.320577,32.272225 L 33.73643,25.28822 C 33.745959,25.288914 33.75603,25.287519 33.765551,25.28822 C 34.037292,25.308289 34.303809,25.33335 34.566363,25.360668 C 34.571156,25.361148 34.576134,25.360186 34.580923,25.360668 C 34.84787,25.388603 35.114009,25.426575 35.367175,25.462096 C 35.37177,25.462712 35.377146,25.461476 35.381736,25.462096 C 35.634271,25.49772 35.875252,25.53474 36.109746,25.578013 C 36.114305,25.578828 36.119756,25.577194 36.124307,25.578013 C 36.358092,25.621391 36.582573,25.671821 36.794077,25.722909 C 37.65037,25.929744 38.687879,26.292693 39.764363,26.722694 C 41.91733,27.582697 44.218975,28.70664 45.51565,29.359808 C 45.518962,29.361476 45.526912,29.358146 45.53021,29.359808 C 46.165935,29.68024 46.563986,29.895925 46.563986,29.895925 C 46.563986,29.895925 47.495841,26.031331 47.49584,22.404782 C 47.49584,18.778233 46.563987,14.91364 46.563986,14.91364 z "
         style="opacity:0.5;color:#000000;fill:url(#linearGradient2520);fill-opacity:1;fill-rule:nonzero;stroke:#888a85;stroke-width:1.39879727;stroke-linecap:butt;stroke-linejoin:miter;marker:none;marker-start:none;marker-mid:none;marker-end:none;stroke-miterlimit:0;stroke-dasharray:none;stroke-dashoffset:0;stroke-opacity:1;visibility:visible;display:inline;overflow:visible;enable-background:accumulate" />
      <path
         sodipodi:nodetypes="czczczcc"
         id="path3173"
         d="M 26.5,20.020202 C 26.5,20.020202 34.31598,20.280551 36.767036,19.556534 C 39.218094,18.832517 46.534866,14.91985 46.534866,14.91985 C 46.534866,14.91985 45.671157,18.778233 45.671157,22.404782 C 45.671157,26.031331 46.534866,29.889715 46.534866,29.889715 C 46.534866,29.889715 40.192209,26.544039 36.767036,25.716699 C 33.341864,24.88936 26.5,25.253031 26.5,25.253031 L 26.5,20.020202 z "
         style="opacity:0.46000001;color:#000000;fill:url(#linearGradient2522);fill-opacity:1;fill-rule:nonzero;stroke:#555753;stroke-width:1.39879727;stroke-linecap:butt;stroke-linejoin:miter;marker:none;marker-start:none;marker-mid:none;marker-end:none;stroke-miterlimit:0;stroke-dasharray:none;stroke-dashoffset:0;stroke-opacity:1;visibility:visible;display:inline;overflow:visible;enable-background:accumulate" />
      <path
         sodipodi:nodetypes="cccc"
         id="path3175"
         d="M 36.767036,25.716699 C 36.33889,25.613282 35.701355,25.594712 35.379396,25.525477 M 35.364311,19.868188 C 35.780289,19.790781 36.154272,19.737538 36.767036,19.556534"
         style="color:#000000;fill:none;fill-opacity:1;fill-rule:nonzero;stroke:#204a87;stroke-width:1.39879727;stroke-linecap:butt;stroke-linejoin:miter;marker:none;marker-start:none;marker-mid:none;marker-end:none;stroke-miterlimit:4;stroke-dashoffset:0;stroke-opacity:1;visibility:visible;display:inline;overflow:visible;enable-background:accumulate" />
      <path
         sodipodi:nodetypes="czczczcc"
         id="path3153"
         d="M 27.904885,21.308549 C 27.904885,21.308549 35.124904,21.473786 37.137663,20.939797 C 39.150423,20.405806 45.176283,17.567333 45.176283,17.567333 C 45.176283,17.567333 44.550514,19.93166 44.550514,22.60638 C 44.550514,25.281099 45.17866,27.542321 45.17866,27.542321 C 42.228279,26.356145 39.810801,25.278692 36.998117,24.668496 C 34.185433,24.058301 27.974659,24.133972 27.974659,24.133972 L 27.904885,21.308549 z "
         style="opacity:0.7;color:#000000;fill:none;fill-opacity:1;fill-rule:nonzero;stroke:#ffffff;stroke-width:1.39879727;stroke-linecap:butt;stroke-linejoin:miter;marker:none;marker-start:none;marker-mid:none;marker-end:none;stroke-miterlimit:3.70000005;stroke-dasharray:none;stroke-dashoffset:0;stroke-opacity:1;visibility:visible;display:inline;overflow:visible;enable-background:accumulate" />
    </g>
  </g>
</svg>
