<?xml version="1.0" encoding="UTF-8" standalone="no"?>
<!-- Created with Inkscape (http://www.inkscape.org/) -->
<svg
   xmlns:dc="http://purl.org/dc/elements/1.1/"
   xmlns:cc="http://web.resource.org/cc/"
   xmlns:rdf="http://www.w3.org/1999/02/22-rdf-syntax-ns#"
   xmlns:svg="http://www.w3.org/2000/svg"
   xmlns="http://www.w3.org/2000/svg"
   xmlns:xlink="http://www.w3.org/1999/xlink"
   xmlns:sodipodi="http://sodipodi.sourceforge.net/DTD/sodipodi-0.dtd"
   xmlns:inkscape="http://www.inkscape.org/namespaces/inkscape"
   width="16"
   height="16"
   id="svg2160"
   sodipodi:version="0.32"
   inkscape:version="0.45"
   sodipodi:docbase="/home/lse/public_html/Bambus/System/Icons/scalable/tmp"
   sodipodi:docname="extra-small-file.svg"
   inkscape:output_extension="org.inkscape.output.svg.inkscape"
   version="1.0"
   sodipodi:modified="true">
  <defs
     id="defs2162">
    <linearGradient
       inkscape:collect="always"
       id="linearGradient3257">
      <stop
         style="stop-color:#ffffff;stop-opacity:1;"
         offset="0"
         id="stop3259" />
      <stop
         style="stop-color:#ffffff;stop-opacity:0;"
         offset="1"
         id="stop3261" />
    </linearGradient>
    <linearGradient
       inkscape:collect="always"
       xlink:href="#linearGradient3257"
       id="linearGradient3263"
       x1="21.545454"
       y1="-4.090909"
       x2="21.545454"
       y2="52.184464"
       gradientUnits="userSpaceOnUse" />
    <linearGradient
       inkscape:collect="always"
       id="linearGradient3351">
      <stop
         style="stop-color:#ffffff;stop-opacity:1;"
         offset="0"
         id="stop3353" />
      <stop
         style="stop-color:#ffffff;stop-opacity:0;"
         offset="1"
         id="stop3355" />
    </linearGradient>
    <filter
       inkscape:collect="always"
       id="filter3335">
      <feGaussianBlur
         inkscape:collect="always"
         stdDeviation="0.058809523"
         id="feGaussianBlur3337" />
    </filter>
    <linearGradient
       inkscape:collect="always"
       xlink:href="#linearGradient3351"
       id="linearGradient3384"
       gradientUnits="userSpaceOnUse"
       x1="24.142857"
       y1="-0.71428573"
       x2="24.5"
       y2="32" />
  </defs>
  <sodipodi:namedview
     id="base"
     pagecolor="#ffffff"
     bordercolor="#666666"
     borderopacity="1.0"
     inkscape:pageopacity="0.0"
     inkscape:pageshadow="2"
     inkscape:zoom="19.79899"
     inkscape:cx="16.827917"
     inkscape:cy="-1.41389"
     inkscape:current-layer="layer1"
     showgrid="true"
     inkscape:grid-bbox="true"
     inkscape:document-units="px"
     showguides="true"
     inkscape:guide-bbox="true"
     inkscape:window-width="1272"
     inkscape:window-height="949"
     inkscape:window-x="0"
     inkscape:window-y="24"
     width="16px"
     height="16px" />
  <metadata
     id="metadata2165">
    <rdf:RDF>
      <cc:Work
         rdf:about="">
        <dc:format>image/svg+xml</dc:format>
        <dc:type
           rdf:resource="http://purl.org/dc/dcmitype/StillImage" />
      </cc:Work>
    </rdf:RDF>
  </metadata>
  <g
     id="layer1"
     inkscape:label="Layer 1"
     inkscape:groupmode="layer">
    <g
       id="g3377"
       transform="matrix(0.5729993,0,0,0.5345145,-9.7518582,0.2327427)">
      <path
         sodipodi:nodetypes="cccccc"
         id="rect3146"
         d="M 21.433266,0.5 L 33,0.5 C 36.142857,0.57142857 40.428571,5 40.5,8 L 40.5,28.549587 L 21.433266,28.549587 L 21.433266,0.5 z "
         style="color:#000000;fill:#d3d7cf;fill-opacity:1;fill-rule:nonzero;stroke:#babdb6;stroke-width:1.80693758;stroke-linecap:square;stroke-linejoin:miter;marker:none;marker-start:none;marker-mid:none;marker-end:none;stroke-miterlimit:4;stroke-dashoffset:0;stroke-opacity:1;visibility:visible;display:inline;overflow:visible;enable-background:accumulate" />
      <path
         sodipodi:nodetypes="cccccc"
         id="path3341"
         d="M 21.433266,0.5 L 33,0.5 C 36.142857,0.57142857 40.428571,5 40.5,8 L 40.5,28.549587 L 21.433266,28.549587 L 21.433266,0.5 z "
         style="opacity:0.52666662;color:#000000;fill:url(#linearGradient3384);fill-opacity:1;fill-rule:nonzero;stroke:#babdb6;stroke-width:1.80693758;stroke-linecap:square;stroke-linejoin:miter;marker:none;marker-start:none;marker-mid:none;marker-end:none;stroke-miterlimit:4;stroke-dashoffset:0;stroke-opacity:1;visibility:visible;display:inline;overflow:visible;enable-background:accumulate" />
      <path
         sodipodi:nodetypes="ccccccc"
         id="rect2168"
         d="M 21.433266,0.5 L 33,0.5 C 33,0.5 33.125,5.9107143 34.5,8.5 C 37.017857,6.375 40.5,8 40.5,8 L 40.5,28.549587 L 21.433266,28.549587 L 21.433266,0.5 z "
         style="color:#000000;fill:#eeeeec;fill-opacity:1;fill-rule:nonzero;stroke:#babdb6;stroke-width:1.80693758;stroke-linecap:square;stroke-linejoin:miter;marker:none;marker-start:none;marker-mid:none;marker-end:none;stroke-miterlimit:4;stroke-dashoffset:0;stroke-opacity:1;visibility:visible;display:inline;overflow:visible;enable-background:accumulate" />
      <path
         sodipodi:nodetypes="ccc"
         id="path3151"
         d="M 32,1.5 C 32,1.5 32.196429,6.7678572 34,9.7142857 C 37.517857,7.2321429 39.428571,8.6428571 39.428571,8.6428571"
         style="color:#000000;fill:none;fill-opacity:1;fill-rule:nonzero;stroke:#888a85;stroke-width:1.80693758;stroke-linecap:square;stroke-linejoin:miter;marker:none;marker-start:none;marker-mid:none;marker-end:none;stroke-miterlimit:4;stroke-dashoffset:0;stroke-opacity:1;visibility:visible;display:inline;overflow:visible;filter:url(#filter3335);enable-background:accumulate" />
      <path
         sodipodi:nodetypes="cccccc"
         id="path3149"
         d="M 23.216237,2.5885195 L 33.338514,2.5885195 C 36.338514,3.017091 38.312381,5.9755432 38.614813,8.0745092 L 38.805175,26.48105 L 23.262174,26.784511 L 23.216237,2.5885195 z "
         style="opacity:0.5;color:#000000;fill:none;fill-opacity:1;fill-rule:nonzero;stroke:#ffffff;stroke-width:1.80693758;stroke-linecap:square;stroke-linejoin:miter;marker:none;marker-start:none;marker-mid:none;marker-end:none;stroke-miterlimit:4;stroke-dashoffset:0;stroke-opacity:1;visibility:visible;display:inline;overflow:visible;enable-background:accumulate" />
    </g>
    <g
       id="g2455"
       transform="matrix(0.1879243,0,0,0.1879243,3.5224647,5.0539818)">
      <path
         transform="matrix(1.1661967,0,0,1.1658546,30.785145,14.461189)"
         d="M 11.636364 10.909091 A 17.454546 17.454546 0 1 1  -23.272728,10.909091 A 17.454546 17.454546 0 1 1  11.636364 10.909091 z"
         sodipodi:ry="17.454546"
         sodipodi:rx="17.454546"
         sodipodi:cy="10.909091"
         sodipodi:cx="-5.818182"
         id="path2187"
         style="color:#000000;fill:#8f5902;fill-opacity:1;fill-rule:nonzero;stroke:#000000;stroke-width:1.296718;stroke-linecap:square;stroke-linejoin:miter;marker:none;marker-start:none;marker-mid:none;marker-end:none;stroke-miterlimit:4;stroke-dasharray:none;stroke-dashoffset:0;stroke-opacity:1;visibility:visible;display:inline;overflow:visible;enable-background:accumulate"
         sodipodi:type="arc" />
      <path
         transform="matrix(1.1661967,0,0,1.1658546,28.240716,14.461189)"
         d="M -0.72727275 -9.090909 A 2.909091 2.909091 0 1 1  -6.5454547,-9.090909 A 2.909091 2.909091 0 1 1  -0.72727275 -9.090909 z"
         sodipodi:ry="2.909091"
         sodipodi:rx="2.909091"
         sodipodi:cy="-9.090909"
         sodipodi:cx="-3.6363637"
         id="path3162"
         style="color:#000000;fill:#8f5902;fill-opacity:1;fill-rule:nonzero;stroke:#000000;stroke-width:1.296718;stroke-linecap:square;stroke-linejoin:miter;marker:none;marker-start:none;marker-mid:none;marker-end:none;stroke-miterlimit:4;stroke-dasharray:none;stroke-dashoffset:0;stroke-opacity:1;visibility:visible;display:inline;overflow:visible;enable-background:accumulate"
         sodipodi:type="arc" />
      <path
         transform="matrix(1.1012699,0,0,1.1009468,30.407389,15.169275)"
         d="M 11.636364 10.909091 A 17.454546 17.454546 0 1 1  -23.272728,10.909091 A 17.454546 17.454546 0 1 1  11.636364 10.909091 z"
         sodipodi:ry="17.454546"
         sodipodi:rx="17.454546"
         sodipodi:cy="10.909091"
         sodipodi:cx="-5.818182"
         id="path3160"
         style="opacity:0.5;color:#000000;fill:none;fill-opacity:1;fill-rule:nonzero;stroke:#eeeeec;stroke-width:1.37316787;stroke-linecap:square;stroke-linejoin:miter;marker:none;marker-start:none;marker-mid:none;marker-end:none;stroke-miterlimit:4;stroke-dasharray:none;stroke-dashoffset:0;stroke-opacity:1;visibility:visible;display:inline;overflow:visible;enable-background:accumulate"
         sodipodi:type="arc" />
      <path
         transform="matrix(0.8283179,0,0,0.828075,27.012066,11.390466)"
         d="M -0.72727275 -9.090909 A 2.909091 2.909091 0 1 1  -6.5454547,-9.090909 A 2.909091 2.909091 0 1 1  -0.72727275 -9.090909 z"
         sodipodi:ry="2.909091"
         sodipodi:rx="2.909091"
         sodipodi:cy="-9.090909"
         sodipodi:cx="-3.6363637"
         id="path3164"
         style="opacity:0.5;color:#000000;fill:#8f5902;fill-opacity:1;fill-rule:nonzero;stroke:#eeeeec;stroke-width:1.8256613;stroke-linecap:square;stroke-linejoin:miter;marker:none;marker-start:none;marker-mid:none;marker-end:none;stroke-miterlimit:4;stroke-dasharray:none;stroke-dashoffset:0;stroke-opacity:1;visibility:visible;display:inline;overflow:visible;enable-background:accumulate"
         sodipodi:type="arc" />
      <path
         transform="matrix(1.0040543,0,0,1.0037598,29.841771,16.229496)"
         d="M 11.636364 10.909091 A 17.454546 17.454546 0 1 1  -23.272728,10.909091 A 17.454546 17.454546 0 1 1  11.636364 10.909091 z"
         sodipodi:ry="17.454546"
         sodipodi:rx="17.454546"
         sodipodi:cy="10.909091"
         sodipodi:cx="-5.818182"
         id="path3274"
         style="opacity:1;color:#000000;fill:#ffffff;fill-opacity:1;fill-rule:nonzero;stroke:#8f5902;stroke-width:1.50612199;stroke-linecap:square;stroke-linejoin:miter;marker:none;marker-start:none;marker-mid:none;marker-end:none;stroke-miterlimit:4;stroke-dasharray:none;stroke-dashoffset:0;stroke-opacity:1;visibility:visible;display:inline;overflow:visible;enable-background:accumulate"
         sodipodi:type="arc" />
      <path
         transform="matrix(1.0040543,0,0,1.0037598,29.841771,16.229496)"
         d="M 11.636364 10.909091 A 17.454546 17.454546 0 1 1  -23.272728,10.909091 A 17.454546 17.454546 0 1 1  11.636364 10.909091 z"
         sodipodi:ry="17.454546"
         sodipodi:rx="17.454546"
         sodipodi:cy="10.909091"
         sodipodi:cx="-5.818182"
         id="path3166"
         style="opacity:0.37583893;color:#000000;fill:#e9b96e;fill-opacity:1;fill-rule:nonzero;stroke:#8f5902;stroke-width:1.50612199;stroke-linecap:square;stroke-linejoin:miter;marker:none;marker-start:none;marker-mid:none;marker-end:none;stroke-miterlimit:4;stroke-dasharray:none;stroke-dashoffset:0;stroke-opacity:1;visibility:visible;display:inline;overflow:visible;enable-background:accumulate"
         sodipodi:type="arc" />
      <path
         id="path3252"
         d="M 24,0.46875 C 22.1273,0.46875 20.593751,2.0028494 20.59375,3.875 C 20.59375,5.1912924 21.371714,6.3129406 22.46875,6.875 C 11.940313,7.6518042 3.6562499,16.464834 3.65625,27.1875 C 3.65625,38.420403 12.763801,47.531251 24,47.53125 C 35.2362,47.53125 44.34375,38.420403 44.34375,27.1875 C 44.34375,16.464834 36.059687,7.6518044 25.53125,6.875 C 26.628286,6.3129405 27.40625,5.1912924 27.40625,3.875 C 27.40625,2.0028494 25.872701,0.46875001 24,0.46875 z "
         style="opacity:0.7;color:#000000;fill:url(#linearGradient3263);fill-opacity:1;fill-rule:nonzero;stroke:#8f5902;stroke-width:1.51200628;stroke-linecap:square;stroke-linejoin:miter;marker:none;marker-start:none;marker-mid:none;marker-end:none;stroke-miterlimit:4;stroke-dasharray:none;stroke-dashoffset:0;stroke-opacity:1;visibility:visible;display:inline;overflow:visible;enable-background:accumulate" />
      <path
         id="rect3168"
         d="M 22.84375,11.65625 L 22.84375,20.96875 L 25.15625,20.96875 L 25.15625,11.65625 L 22.84375,11.65625 z M 8.53125,26 L 8.53125,28.34375 L 17.84375,28.34375 L 17.84375,26 L 8.53125,26 z M 29.9375,26 L 29.9375,28.34375 L 39.28125,28.34375 L 39.28125,26 L 29.9375,26 z M 22.84375,33.0625 L 22.84375,42.375 L 25.15625,42.375 L 25.15625,33.0625 L 22.84375,33.0625 z "
         style="color:#000000;fill:#888a85;fill-opacity:1;fill-rule:nonzero;stroke:#2e3436;stroke-width:0;stroke-linecap:square;stroke-linejoin:miter;marker:none;marker-start:none;marker-mid:none;marker-end:none;stroke-miterlimit:4;stroke-dasharray:none;stroke-dashoffset:0;stroke-opacity:1;visibility:visible;display:inline;overflow:visible;enable-background:accumulate" />
      <path
         style="fill:#cc0000;fill-opacity:1;stroke:#000000;stroke-width:0.30240127;stroke-linejoin:round;stroke-miterlimit:4;stroke-dasharray:none;stroke-opacity:1"
         d="M 11.551736,39.514031 C 11.551736,39.514031 21.978242,24.974341 21.978242,24.974341 C 21.978242,24.974341 36.448264,14.60471 36.448264,14.60471 C 36.448264,14.60471 26.017476,29.148648 26.017476,29.148648 C 26.017476,29.148648 11.551736,39.514031 11.551736,39.514031 z "
         id="path3196"
         sodipodi:nodetypes="cscsc" />
      <path
         style="fill:#eeeeec;fill-opacity:1;stroke:#000000;stroke-width:0.30240127;stroke-linejoin:round;stroke-miterlimit:4;stroke-dasharray:none;stroke-opacity:1"
         d="M 26.017476,29.148648 C 26.017476,29.148648 11.551736,39.514031 11.551736,39.514031 C 11.551736,39.514031 21.978242,24.974341 21.978242,24.974341"
         id="path3200"
         sodipodi:nodetypes="ccc" />
      <path
         transform="matrix(0.4823639,0.4984598,-0.5188494,0.5150153,21.037236,33.553914)"
         d="M -0.72727275 -9.090909 A 2.909091 2.909091 0 1 1  -6.5454547,-9.090909 A 2.909091 2.909091 0 1 1  -0.72727275 -9.090909 z"
         sodipodi:ry="2.909091"
         sodipodi:rx="2.909091"
         sodipodi:cy="-9.090909"
         sodipodi:cx="-3.6363637"
         id="path3202"
         style="color:#000000;fill:#babdb6;fill-opacity:1;fill-rule:nonzero;stroke:#555753;stroke-width:2.12338185;stroke-linecap:square;stroke-linejoin:miter;marker:none;marker-start:none;marker-mid:none;marker-end:none;stroke-miterlimit:4;stroke-dasharray:none;stroke-dashoffset:0;stroke-opacity:1;visibility:visible;display:inline;overflow:visible;enable-background:accumulate"
         sodipodi:type="arc" />
      <path
         transform="matrix(0.1949328,0.2018871,-0.2096774,0.2085924,22.802689,29.689804)"
         d="M -0.72727275 -9.090909 A 2.909091 2.909091 0 1 1  -6.5454547,-9.090909 A 2.909091 2.909091 0 1 1  -0.72727275 -9.090909 z"
         sodipodi:ry="2.909091"
         sodipodi:rx="2.909091"
         sodipodi:cy="-9.090909"
         sodipodi:cx="-3.6363637"
         id="path3204"
         style="opacity:0.5;color:#000000;fill:#888a85;fill-opacity:1;fill-rule:nonzero;stroke:#eeeeec;stroke-width:5.24848366;stroke-linecap:square;stroke-linejoin:miter;marker:none;marker-start:none;marker-mid:none;marker-end:none;stroke-miterlimit:4;stroke-dasharray:none;stroke-dashoffset:0;stroke-opacity:1;visibility:visible;display:inline;overflow:visible;enable-background:accumulate"
         sodipodi:type="arc" />
    </g>
  </g>
</svg>
