<?xml version="1.0" encoding="UTF-8" standalone="no"?>
<!-- Created with Inkscape (http://www.inkscape.org/) -->
<svg
   xmlns:dc="http://purl.org/dc/elements/1.1/"
   xmlns:cc="http://web.resource.org/cc/"
   xmlns:rdf="http://www.w3.org/1999/02/22-rdf-syntax-ns#"
   xmlns:svg="http://www.w3.org/2000/svg"
   xmlns="http://www.w3.org/2000/svg"
   xmlns:xlink="http://www.w3.org/1999/xlink"
   xmlns:sodipodi="http://sodipodi.sourceforge.net/DTD/sodipodi-0.dtd"
   xmlns:inkscape="http://www.inkscape.org/namespaces/inkscape"
   width="48"
   height="48"
   id="svg1905"
   sodipodi:version="0.32"
   inkscape:version="0.44.1"
   sodipodi:docbase="/home/lse/public_html/Chimera/System/Icons/scalable/apps"
   sodipodi:docname="large-image-administration.svg"
   inkscape:export-filename="/home/lse/public_html/Bambus/System/Images/Mimetypes/22x22/image.png"
   inkscape:export-xdpi="30.9375"
   inkscape:export-ydpi="30.9375"
   version="1.0">
  <defs
     id="defs1907">
    <linearGradient
       inkscape:collect="always"
       id="linearGradient2945">
      <stop
         style="stop-color:#eeeeec;stop-opacity:1;"
         offset="0"
         id="stop2947" />
      <stop
         style="stop-color:#eeeeec;stop-opacity:0;"
         offset="1"
         id="stop2949" />
    </linearGradient>
    <linearGradient
       inkscape:collect="always"
       id="linearGradient2935">
      <stop
         style="stop-color:#eeeeec;stop-opacity:1;"
         offset="0"
         id="stop2937" />
      <stop
         style="stop-color:#eeeeec;stop-opacity:0;"
         offset="1"
         id="stop2939" />
    </linearGradient>
    <linearGradient
       inkscape:collect="always"
       id="linearGradient3237">
      <stop
         style="stop-color:#eeeeec;stop-opacity:1;"
         offset="0"
         id="stop3239" />
      <stop
         style="stop-color:#eeeeec;stop-opacity:0;"
         offset="1"
         id="stop3241" />
    </linearGradient>
    <linearGradient
       inkscape:collect="always"
       id="linearGradient2891">
      <stop
         style="stop-color:white;stop-opacity:1;"
         offset="0"
         id="stop2893" />
      <stop
         style="stop-color:white;stop-opacity:0;"
         offset="1"
         id="stop2895" />
    </linearGradient>
    <linearGradient
       inkscape:collect="always"
       id="linearGradient2850">
      <stop
         style="stop-color:white;stop-opacity:1;"
         offset="0"
         id="stop2852" />
      <stop
         style="stop-color:white;stop-opacity:0;"
         offset="1"
         id="stop2854" />
    </linearGradient>
    <linearGradient
       inkscape:collect="always"
       id="linearGradient2831">
      <stop
         style="stop-color:white;stop-opacity:1;"
         offset="0"
         id="stop2833" />
      <stop
         style="stop-color:white;stop-opacity:0;"
         offset="1"
         id="stop2835" />
    </linearGradient>
    <linearGradient
       inkscape:collect="always"
       xlink:href="#linearGradient2831"
       id="linearGradient2837"
       x1="28.363636"
       y1="5.0909095"
       x2="28.363636"
       y2="63.782219"
       gradientUnits="userSpaceOnUse" />
    <linearGradient
       inkscape:collect="always"
       xlink:href="#linearGradient2850"
       id="linearGradient2856"
       x1="11.636364"
       y1="9.454546"
       x2="11.636364"
       y2="30.909092"
       gradientUnits="userSpaceOnUse" />
    <linearGradient
       inkscape:collect="always"
       xlink:href="#linearGradient2850"
       id="linearGradient2243"
       gradientUnits="userSpaceOnUse"
       x1="11.636364"
       y1="9.454546"
       x2="11.636364"
       y2="30.909092" />
    <linearGradient
       inkscape:collect="always"
       xlink:href="#linearGradient2891"
       id="linearGradient3222"
       gradientUnits="userSpaceOnUse"
       gradientTransform="matrix(0.635132,0,0,0.635035,2.666564,6.621946)"
       x1="29.443182"
       y1="25.639603"
       x2="29.443182"
       y2="54.557911" />
    <linearGradient
       inkscape:collect="always"
       xlink:href="#linearGradient3237"
       id="linearGradient3243"
       x1="19.363636"
       y1="3.1818182"
       x2="19.363636"
       y2="48.035389"
       gradientUnits="userSpaceOnUse" />
    <linearGradient
       inkscape:collect="always"
       xlink:href="#linearGradient2935"
       id="linearGradient2941"
       x1="23.839357"
       y1="7.5823293"
       x2="23.839357"
       y2="42.304916"
       gradientUnits="userSpaceOnUse"
       gradientTransform="translate(6.297189,7.187487)" />
    <linearGradient
       inkscape:collect="always"
       xlink:href="#linearGradient2945"
       id="linearGradient2951"
       x1="23.967871"
       y1="5.7188754"
       x2="23.967871"
       y2="44.787148"
       gradientUnits="userSpaceOnUse" />
  </defs>
  <sodipodi:namedview
     id="base"
     pagecolor="#ffffff"
     bordercolor="#666666"
     borderopacity="1.0"
     inkscape:pageopacity="0.0"
     inkscape:pageshadow="2"
     inkscape:zoom="1"
     inkscape:cx="24"
     inkscape:cy="23.5"
     inkscape:current-layer="layer1"
     showgrid="true"
     inkscape:document-units="px"
     inkscape:grid-bbox="true"
     inkscape:window-width="1271"
     inkscape:window-height="945"
     inkscape:window-x="1194"
     inkscape:window-y="31"
     width="48px"
     height="48px" />
  <metadata
     id="metadata1910">
    <rdf:RDF>
      <cc:Work
         rdf:about="">
        <dc:format>image/svg+xml</dc:format>
        <dc:type
           rdf:resource="http://purl.org/dc/dcmitype/StillImage" />
      </cc:Work>
    </rdf:RDF>
  </metadata>
  <g
     id="layer1"
     inkscape:label="Layer 1"
     inkscape:groupmode="layer">
    <path
       style="opacity:0.5;fill:url(#linearGradient3222);fill-opacity:1;stroke:none;stroke-width:1;stroke-miterlimit:4;stroke-opacity:1"
       d="M 35.895883,24.000329 C 35.575172,23.973607 34.276016,25.579133 33.684883,26.774294 C 33.093749,27.969456 33.149508,28.937648 31.503946,31.426414 C 30.503342,30.690888 29.493584,30.314484 29.0047,30.415922 C 28.31867,30.558269 23.17576,33.466159 20.878979,35.895615 C 18.387402,37.377686 15.097994,34.238111 12.854083,35.138997 C 7.5484939,37.269087 3.8209169,32.423894 3.8209169,32.423894 L 3.6986538,38.611847 L 42.501259,38.611847 L 42.501259,34.563497 C 42.501259,34.563497 41.880562,32.017944 41.072211,29.463371 C 40.263861,26.908796 36.955543,23.996928 35.895883,24.000329 z "
       id="path2889"
       sodipodi:nodetypes="cscscsccccsc" />
    <rect
       style="fill:#c17d11;fill-opacity:1;stroke:#8f5902;stroke-width:1.00000012;stroke-miterlimit:4;stroke-dasharray:none;stroke-opacity:1"
       id="rect1940"
       width="46.999996"
       height="34"
       x="0.50000376"
       y="7.5" />
    <rect
       style="fill:#729fcf;fill-opacity:1;stroke:#555753;stroke-width:0.92788094;stroke-miterlimit:4;stroke-dasharray:none;stroke-opacity:1"
       id="rect2839"
       width="41.0797"
       height="28.078449"
       x="3.4601495"
       y="10.460775" />
    <path
       style="fill:#000000;fill-opacity:1;stroke:none;stroke-width:1;stroke-miterlimit:4;stroke-opacity:1"
       d="M 3.5996442,34.091559 C 3.5996442,34.091559 5.9223075,33.981554 5.9223075,33.981554 C 9.8512282,27.96766 11.068033,32.326057 11.85693,32.391789 C 12.585514,32.452494 14.582135,27.876338 17.746318,30.434017 C 19.93751,32.205206 44.400351,34.091559 44.400351,34.091559 L 44.400351,38.340984 L 3.5996442,38.340984 L 3.5996442,34.091559 z "
       id="path2886"
       sodipodi:nodetypes="cszscccc" />
    <rect
       style="fill:url(#linearGradient3243);fill-opacity:1.0;stroke:#555753;stroke-width:0.92788094;stroke-miterlimit:4;stroke-dasharray:none;stroke-opacity:1;opacity:0.7"
       id="rect3235"
       width="41.0797"
       height="28.078449"
       x="3.4601495"
       y="10.460775" />
    <path
       sodipodi:type="arc"
       style="fill:#edd400;fill-opacity:1;stroke:#fce94f;stroke-width:1.38942242;stroke-miterlimit:4;stroke-dasharray:none;stroke-opacity:1"
       id="path2846"
       sodipodi:cx="11.636364"
       sodipodi:cy="19.454546"
       sodipodi:rx="7.2727275"
       sodipodi:ry="7.2727275"
       d="M 18.909091 19.454546 A 7.2727275 7.2727275 0 1 1  4.3636365,19.454546 A 7.2727275 7.2727275 0 1 1  18.909091 19.454546 z"
       transform="matrix(0.667869,0,0,0.667767,2.901418,4.709818)" />
    <path
       sodipodi:type="arc"
       style="opacity:0.7;fill:url(#linearGradient2243);fill-opacity:1;stroke:none;stroke-width:1;stroke-miterlimit:4;stroke-dasharray:none;stroke-opacity:1"
       id="path2848"
       sodipodi:cx="11.636364"
       sodipodi:cy="19.454546"
       sodipodi:rx="7.2727275"
       sodipodi:ry="7.2727275"
       d="M 18.909091 19.454546 A 7.2727275 7.2727275 0 1 1  4.3636365,19.454546 A 7.2727275 7.2727275 0 1 1  18.909091 19.454546 z"
       transform="matrix(0.667869,0,0,0.667767,2.901418,4.709818)" />
    <rect
       style="opacity:1;fill:none;fill-opacity:1;stroke:#729fcf;stroke-width:0.92788094;stroke-miterlimit:4;stroke-dasharray:none;stroke-opacity:1"
       id="rect3263"
       width="41.0797"
       height="28.078449"
       x="3.4563591"
       y="10.463941" />
    <path
       style="fill:#2e3436;fill-opacity:1;stroke:black;stroke-width:0.92788118;stroke-miterlimit:4;stroke-opacity:1"
       d="M 37.66304,23.048241 C 37.236799,23.012515 36.656921,23.66461 35.421948,25.466939 C 34.690404,26.53456 34.24649,28.981833 32.950992,30.95277 C 31.892196,30.169856 30.759027,29.704131 30.241712,29.812105 C 29.515784,29.963623 23.81503,33.123932 21.384675,35.709911 C 19.197407,37.135627 16.140117,33.876845 13.734004,34.839476 C 7.3142067,37.407892 2.4014034,32.013702 2.4014034,32.013702 L 2.4639416,39.536073 L 45.523189,39.536073 L 45.523189,34.226898 C 45.523189,34.226898 43.866394,31.517342 43.011033,28.798183 C 42.155671,26.079023 38.396206,23.109691 37.66304,23.048241 z "
       id="rect2843"
       sodipodi:nodetypes="cscscsccccsc" />
    <path
       style="fill:url(#linearGradient2951);fill-opacity:1.0;stroke:black;stroke-width:0.92788118;stroke-miterlimit:4;stroke-opacity:1;opacity:0.7"
       d="M 37.66304,23.048241 C 37.236799,23.012515 36.656921,23.66461 35.421948,25.466939 C 34.690404,26.53456 34.24649,28.981833 32.950992,30.95277 C 31.892196,30.169856 30.759027,29.704131 30.241712,29.812105 C 29.515784,29.963623 23.81503,33.123932 21.384675,35.709911 C 19.197407,37.135627 16.140117,33.876845 13.734004,34.839476 C 7.3142067,37.407892 2.4014034,32.013702 2.4014034,32.013702 L 2.4639416,39.536073 L 45.523189,39.536073 L 45.523189,34.226898 C 45.523189,34.226898 43.866394,31.517342 43.011033,28.798183 C 42.155671,26.079023 38.396206,23.109691 37.66304,23.048241 z "
       id="path2943"
       sodipodi:nodetypes="cscscsccccsc" />
    <path
       style="opacity:1;fill:white;fill-opacity:1;stroke:none;stroke-width:1;stroke-miterlimit:4;stroke-opacity:1"
       d="M 37.67987,23.529262 C 37.419227,23.507545 35.767218,25.205323 35.137757,27.21995 C 35.137757,27.21995 34.631918,27.891095 36.11099,27.264607 C 38.523942,26.242557 38.360184,28.92976 39.2038,28.998001 C 40.047415,29.066241 40.009088,27.363092 40.601831,27.590246 C 41.383588,27.889834 41.927327,27.562654 41.927327,27.562654 C 40.254291,25.283327 38.33784,23.689072 37.67987,23.529262 z "
       id="path1896"
       sodipodi:nodetypes="ccssscc" />
    <rect
       style="opacity:1;fill:none;fill-opacity:1;stroke:#c17d11;stroke-width:1.00000036;stroke-miterlimit:4;stroke-dasharray:none;stroke-opacity:1"
       id="rect2953"
       width="43.000004"
       height="30.000004"
       x="2.5000002"
       y="9.500001" />
    <rect
       style="opacity:1;fill:none;fill-opacity:1;stroke:#e9b96e;stroke-width:1;stroke-miterlimit:4;stroke-dasharray:none;stroke-opacity:1"
       id="rect3219"
       width="45"
       height="32"
       x="1.5"
       y="8.5" />
  </g>
</svg>
