<?xml version="1.0" encoding="UTF-8" standalone="no"?>
<!-- Created with Inkscape (http://www.inkscape.org/) -->
<svg
   xmlns:dc="http://purl.org/dc/elements/1.1/"
   xmlns:cc="http://web.resource.org/cc/"
   xmlns:rdf="http://www.w3.org/1999/02/22-rdf-syntax-ns#"
   xmlns:svg="http://www.w3.org/2000/svg"
   xmlns="http://www.w3.org/2000/svg"
   xmlns:xlink="http://www.w3.org/1999/xlink"
   xmlns:sodipodi="http://sodipodi.sourceforge.net/DTD/sodipodi-0.dtd"
   xmlns:inkscape="http://www.inkscape.org/namespaces/inkscape"
   width="48px"
   height="48px"
   id="svg2160"
   sodipodi:version="0.32"
   inkscape:version="0.45"
   sodipodi:docname="large-palette.svg"
   sodipodi:docbase="/home/lse/public_html/Bambus/System/Icons/scalable/mimetypes"
   inkscape:output_extension="org.inkscape.output.svg.inkscape"
   sodipodi:modified="true">
  <defs
     id="defs2162">
    <linearGradient
       inkscape:collect="always"
       id="linearGradient6356">
      <stop
         style="stop-color:#ffffff;stop-opacity:1;"
         offset="0"
         id="stop6358" />
      <stop
         style="stop-color:#ffffff;stop-opacity:0;"
         offset="1"
         id="stop6360" />
    </linearGradient>
    <linearGradient
       inkscape:collect="always"
       id="linearGradient3351">
      <stop
         style="stop-color:#ffffff;stop-opacity:1;"
         offset="0"
         id="stop3353" />
      <stop
         style="stop-color:#ffffff;stop-opacity:0;"
         offset="1"
         id="stop3355" />
    </linearGradient>
    <filter
       inkscape:collect="always"
       id="filter3335">
      <feGaussianBlur
         inkscape:collect="always"
         stdDeviation="0.058809523"
         id="feGaussianBlur3337" />
    </filter>
    <linearGradient
       inkscape:collect="always"
       xlink:href="#linearGradient3351"
       id="linearGradient3357"
       x1="24.142857"
       y1="-0.71428573"
       x2="24.142857"
       y2="48.000473"
       gradientUnits="userSpaceOnUse" />
    <linearGradient
       inkscape:collect="always"
       xlink:href="#linearGradient6356"
       id="linearGradient6362"
       x1="36.355797"
       y1="-0.064690024"
       x2="36.355797"
       y2="48.466801"
       gradientUnits="userSpaceOnUse" />
    <linearGradient
       inkscape:collect="always"
       xlink:href="#linearGradient6356"
       id="linearGradient6703"
       gradientUnits="userSpaceOnUse"
       x1="36.355797"
       y1="-0.064690024"
       x2="36.355797"
       y2="48.466801" />
  </defs>
  <sodipodi:namedview
     id="base"
     pagecolor="#ffffff"
     bordercolor="#666666"
     borderopacity="1.0"
     inkscape:pageopacity="0.0"
     inkscape:pageshadow="2"
     inkscape:zoom="7.7291667"
     inkscape:cx="22.706199"
     inkscape:cy="23.601645"
     inkscape:current-layer="layer1"
     showgrid="true"
     inkscape:grid-bbox="true"
     inkscape:document-units="px"
     showguides="true"
     inkscape:guide-bbox="true"
     inkscape:window-width="1272"
     inkscape:window-height="949"
     inkscape:window-x="0"
     inkscape:window-y="24">
    <sodipodi:guide
       orientation="vertical"
       position="-36.971583"
       id="guide6332" />
  </sodipodi:namedview>
  <metadata
     id="metadata2165">
    <rdf:RDF>
      <cc:Work
         rdf:about="">
        <dc:format>image/svg+xml</dc:format>
        <dc:type
           rdf:resource="http://purl.org/dc/dcmitype/StillImage" />
      </cc:Work>
    </rdf:RDF>
  </metadata>
  <g
     id="layer1"
     inkscape:label="Layer 1"
     inkscape:groupmode="layer">
    <path
       style="color:#000000;fill:#d3d7cf;fill-opacity:1;fill-rule:nonzero;stroke:#babdb6;stroke-width:1.00000012;stroke-linecap:square;stroke-linejoin:miter;stroke-miterlimit:4;stroke-dashoffset:0;stroke-opacity:1;marker:none;marker-start:none;marker-mid:none;marker-end:none;visibility:visible;display:inline;overflow:visible;enable-background:accumulate"
       d="M 7.5,0.5 L 33,0.5 C 36.142857,0.57142857 40.428571,5 40.5,8 L 40.5,47.5 L 7.5,47.5 L 7.5,0.5 z "
       id="rect3146"
       sodipodi:nodetypes="cccccc" />
    <path
       style="color:#000000;fill:url(#linearGradient3357);fill-opacity:1.0;fill-rule:nonzero;stroke:#babdb6;stroke-width:1.00000012;stroke-linecap:square;stroke-linejoin:miter;stroke-miterlimit:4;stroke-dashoffset:0;stroke-opacity:1;marker:none;marker-start:none;marker-mid:none;marker-end:none;visibility:visible;display:inline;overflow:visible;enable-background:accumulate;opacity:0.52666667"
       d="M 7.5,0.5 L 33,0.5 C 36.142857,0.57142857 40.428571,5 40.5,8 L 40.5,47.5 L 7.5,47.5 L 7.5,0.5 z "
       id="path3341"
       sodipodi:nodetypes="cccccc" />
    <path
       style="color:#000000;fill:#eeeeec;fill-opacity:1;fill-rule:nonzero;stroke:#babdb6;stroke-width:1.00000012;stroke-linecap:square;stroke-linejoin:miter;stroke-miterlimit:4;stroke-dashoffset:0;stroke-opacity:1;marker:none;marker-start:none;marker-mid:none;marker-end:none;visibility:visible;display:inline;overflow:visible;enable-background:accumulate"
       d="M 7.5,0.5 L 33,0.5 C 33,0.5 33.125,5.9107143 34.5,8.5 C 37.017857,6.375 40.5,8 40.5,8 L 40.5,47.5 L 7.5,47.5 L 7.5,0.5 z "
       id="rect2168"
       sodipodi:nodetypes="ccccccc" />
    <path
       style="color:#000000;fill:none;fill-opacity:1;fill-rule:nonzero;stroke:#888a85;stroke-width:1.00000012;stroke-linecap:square;stroke-linejoin:miter;stroke-miterlimit:4;stroke-dashoffset:0;stroke-opacity:1;marker:none;marker-start:none;marker-mid:none;marker-end:none;visibility:visible;display:inline;overflow:visible;enable-background:accumulate;filter:url(#filter3335)"
       d="M 32,1.5 C 32,1.5 32.196429,6.7678572 34,9.7142857 C 37.517857,7.2321429 39.428571,8.6428571 39.428571,8.6428571"
       id="path3151"
       sodipodi:nodetypes="ccc" />
    <path
       style="color:#000000;fill:none;fill-opacity:1;fill-rule:nonzero;stroke:#ffffff;stroke-width:1.00000012;stroke-linecap:square;stroke-linejoin:miter;stroke-miterlimit:4;stroke-dashoffset:0;stroke-opacity:1;marker:none;marker-start:none;marker-mid:none;marker-end:none;visibility:visible;display:inline;overflow:visible;enable-background:accumulate;opacity:0.5"
       d="M 8.5,1.5 L 33,1.5 C 36,1.9285715 39.285714,5.4285714 39.5,8 L 39.5,46.5 L 8.5,46.5 L 8.5,1.5 z "
       id="path3149"
       sodipodi:nodetypes="cccccc" />
    <g
       id="g6693"
       transform="matrix(1.0861707,0,0,1.0861707,-18.006185,-4.136191)">
      <path
         sodipodi:nodetypes="csssssccsssc"
         id="path5360"
         d="M 42.192892,19.916517 C 35.390299,19.864626 23.770232,23.336909 19.744992,27.704977 C 14.790854,33.081062 17.128593,43.454974 23.540307,46.388011 C 29.882232,49.289122 40.21826,45.834066 42.100324,43.745497 C 43.982387,41.656929 39.398804,39.993377 41.406059,35.864317 C 43.500649,31.555605 50.820791,22.788064 45.988207,20.519195 C 45.082098,20.093782 43.762722,19.928492 42.192892,19.916517 z M 36.82391,38.275031 C 38.104003,38.275031 39.138127,39.310843 39.138127,40.593025 C 39.138127,41.875207 38.104003,42.911019 36.82391,42.911019 C 35.543816,42.911019 34.509693,41.875207 34.509693,40.593025 C 34.509694,39.310843 35.543816,38.275031 36.82391,38.275031 z "
         style="color:#000000;fill:#c17d11;fill-opacity:1;fill-rule:nonzero;stroke:#8f5902;stroke-width:0.92066562;stroke-linecap:square;stroke-linejoin:miter;marker:none;marker-start:none;marker-mid:none;marker-end:none;stroke-miterlimit:4;stroke-dashoffset:0;stroke-opacity:1;visibility:visible;display:inline;overflow:visible;enable-background:accumulate" />
      <path
         sodipodi:nodetypes="csssssccsssc"
         id="path6352"
         d="M 41.054649,20.9748 C 35.252168,21.028857 24.180958,24.474158 20.5383,28.427059 C 16.055033,33.292169 18.271594,42.932622 24.073901,45.586884 C 29.813052,48.212258 39.41922,45.237113 41.122402,43.347053 C 42.825583,41.456997 38.47562,39.699019 40.292094,35.96241 C 42.187602,32.063223 49.519101,23.017834 45.145834,20.964612 C 44.325847,20.579632 42.929842,20.935128 41.054649,20.9748 z M 36.802058,37.335874 C 37.960483,37.335874 40.209517,38.570144 40.209517,40.443704 C 40.209517,42.767892 37.960483,43.905088 36.802058,43.905088 C 35.643632,43.905088 33.445107,43.177373 33.445107,40.494212 C 33.445107,38.220483 35.643632,37.335874 36.802058,37.335874 z "
         style="opacity:0.5;color:#000000;fill:#c17d11;fill-opacity:1;fill-rule:nonzero;stroke:#eeeeec;stroke-width:0.92066574;stroke-linecap:square;stroke-linejoin:miter;marker:none;marker-start:none;marker-mid:none;marker-end:none;stroke-miterlimit:4;stroke-dashoffset:0;stroke-opacity:1;visibility:visible;display:inline;overflow:visible;enable-background:accumulate" />
      <path
         sodipodi:nodetypes="csssc"
         id="path6337"
         d="M 43.223285,24.894826 C 43.223285,26.301093 42.745587,29.690275 41.419611,29.690275 C 40.093637,29.690275 37.072506,26.750666 37.072506,25.3444 C 37.072506,23.938134 39.495182,22.347246 40.821155,22.347246 C 42.147132,22.347246 43.223285,23.488561 43.223285,24.894826 z "
         style="color:#000000;fill:#204a87;fill-opacity:1;fill-rule:nonzero;stroke:none;stroke-width:1;stroke-linecap:square;stroke-linejoin:miter;marker:none;marker-start:none;marker-mid:none;marker-end:none;stroke-miterlimit:4;stroke-dashoffset:0;stroke-opacity:1;visibility:visible;display:inline;overflow:visible;enable-background:accumulate" />
      <path
         sodipodi:nodetypes="csssc"
         id="path6339"
         d="M 35.591408,27.54368 C 35.591408,29.222012 34.97212,29.689882 33.663106,29.689882 C 32.354096,29.689882 29.667013,29.758561 29.667013,28.080231 C 29.667013,26.401899 31.910996,24.503228 33.220007,24.503228 C 34.529021,24.503228 35.591408,25.86535 35.591408,27.54368 z "
         style="color:#000000;fill:#a40000;fill-opacity:1;fill-rule:nonzero;stroke:none;stroke-width:1;stroke-linecap:square;stroke-linejoin:miter;marker:none;marker-start:none;marker-mid:none;marker-end:none;stroke-miterlimit:4;stroke-dashoffset:0;stroke-opacity:1;visibility:visible;display:inline;overflow:visible;enable-background:accumulate" />
      <path
         sodipodi:nodetypes="csssc"
         id="path6341"
         d="M 26.704816,30.75434 C 26.704816,32.160605 25.628663,33.301922 24.302686,33.301922 C 22.976713,33.301922 21.90056,32.160605 21.90056,30.75434 C 21.90056,29.348073 24.024008,27.607327 25.349981,27.607327 C 26.675958,27.607327 26.704816,29.348073 26.704816,30.75434 z "
         style="color:#000000;fill:#edd400;fill-opacity:1;fill-rule:nonzero;stroke:none;stroke-width:1;stroke-linecap:square;stroke-linejoin:miter;marker:none;marker-start:none;marker-mid:none;marker-end:none;stroke-miterlimit:4;stroke-dashoffset:0;stroke-opacity:1;visibility:visible;display:inline;overflow:visible;enable-background:accumulate" />
      <path
         sodipodi:nodetypes="csssc"
         id="path6343"
         d="M 28.113071,38.726169 C 28.113071,40.132436 25.391169,40.824178 24.065193,40.824178 C 22.739219,40.824178 22.26152,38.933574 22.26152,37.527307 C 22.26152,36.121042 23.337673,34.979727 24.663647,34.979727 C 25.989623,34.979727 28.113071,37.319904 28.113071,38.726169 z "
         style="color:#000000;fill:#4e9a06;fill-opacity:1;fill-rule:nonzero;stroke:none;stroke-width:1;stroke-linecap:square;stroke-linejoin:miter;marker:none;marker-start:none;marker-mid:none;marker-end:none;stroke-miterlimit:4;stroke-dashoffset:0;stroke-opacity:1;visibility:visible;display:inline;overflow:visible;enable-background:accumulate" />
      <path
         sodipodi:nodetypes="csssc"
         id="path6345"
         d="M 35.591408,34.170946 C 35.591408,35.577212 33.168732,36.268955 31.842756,36.268955 C 30.516783,36.268955 29.291014,34.078633 29.291014,32.672367 C 29.291014,31.266101 30.516783,31.173791 31.842756,31.173791 C 33.168732,31.173791 35.591408,32.76468 35.591408,34.170946 z "
         style="color:#000000;fill:#5c3566;fill-opacity:1;fill-rule:nonzero;stroke:none;stroke-width:1;stroke-linecap:square;stroke-linejoin:miter;marker:none;marker-start:none;marker-mid:none;marker-end:none;stroke-miterlimit:4;stroke-dashoffset:0;stroke-opacity:1;visibility:visible;display:inline;overflow:visible;enable-background:accumulate" />
      <path
         sodipodi:nodetypes="csssssccsssc"
         id="path6354"
         d="M 42.192892,19.916517 C 35.390299,19.864626 23.770232,23.336909 19.744992,27.704977 C 14.790854,33.081062 17.128593,43.454974 23.540307,46.388011 C 29.882232,49.289122 40.21826,45.834066 42.100324,43.745497 C 43.982387,41.656929 39.398804,39.993377 41.406059,35.864317 C 43.500649,31.555605 50.820791,22.788064 45.988207,20.519195 C 45.082098,20.093782 43.762722,19.928492 42.192892,19.916517 z M 36.82391,38.275031 C 38.104003,38.275031 39.138127,39.310843 39.138127,40.593025 C 39.138127,41.875207 38.104003,42.911019 36.82391,42.911019 C 35.543816,42.911019 34.509693,41.875207 34.509693,40.593025 C 34.509694,39.310843 35.543816,38.275031 36.82391,38.275031 z "
         style="opacity:0.7;color:#000000;fill:url(#linearGradient6703);fill-opacity:1;fill-rule:nonzero;stroke:#8f5902;stroke-width:0.92066562;stroke-linecap:square;stroke-linejoin:miter;marker:none;marker-start:none;marker-mid:none;marker-end:none;stroke-miterlimit:4;stroke-dashoffset:0;stroke-opacity:1;visibility:visible;display:inline;overflow:visible;enable-background:accumulate" />
    </g>
  </g>
</svg>
