<?xml version="1.0" encoding="UTF-8" standalone="no"?>
<!-- Created with Inkscape (http://www.inkscape.org/) -->
<svg
   xmlns:dc="http://purl.org/dc/elements/1.1/"
   xmlns:cc="http://web.resource.org/cc/"
   xmlns:rdf="http://www.w3.org/1999/02/22-rdf-syntax-ns#"
   xmlns:svg="http://www.w3.org/2000/svg"
   xmlns="http://www.w3.org/2000/svg"
   xmlns:xlink="http://www.w3.org/1999/xlink"
   xmlns:sodipodi="http://sodipodi.sourceforge.net/DTD/sodipodi-0.dtd"
   xmlns:inkscape="http://www.inkscape.org/namespaces/inkscape"
   width="48px"
   height="48px"
   id="svg2160"
   sodipodi:version="0.32"
   inkscape:version="0.45"
   sodipodi:docname="large-application-php.svg"
   sodipodi:docbase="/home/lse/public_html/Bambus/System/Icons/0.12/scalable/mimetypes"
   inkscape:output_extension="org.inkscape.output.svg.inkscape"
   sodipodi:modified="true">
  <defs
     id="defs2162">
    <linearGradient
       inkscape:collect="always"
       id="linearGradient3145">
      <stop
         style="stop-color:#ffffff;stop-opacity:1;"
         offset="0"
         id="stop3147" />
      <stop
         style="stop-color:#ffffff;stop-opacity:0;"
         offset="1"
         id="stop3149" />
    </linearGradient>
    <linearGradient
       inkscape:collect="always"
       xlink:href="#linearGradient3145"
       id="linearGradient3151"
       x1="22.857143"
       y1="-1.7857143"
       x2="22.857143"
       y2="49.583546"
       gradientUnits="userSpaceOnUse"
       gradientTransform="translate(-7,0)" />
    <linearGradient
       y2="53.142662"
       x2="23.913065"
       y1="-2.9116881"
       x1="23.913065"
       gradientUnits="userSpaceOnUse"
       id="linearGradient2799"
       xlink:href="#linearGradient3338"
       inkscape:collect="always" />
    <linearGradient
       y2="53.142662"
       x2="23.913065"
       y1="-2.9116881"
       x1="23.913065"
       gradientUnits="userSpaceOnUse"
       id="linearGradient3374"
       xlink:href="#linearGradient3338"
       inkscape:collect="always" />
    <linearGradient
       y2="70.173874"
       x2="31.369827"
       y1="-1.8252131"
       x1="31.369827"
       gradientUnits="userSpaceOnUse"
       id="linearGradient3371"
       xlink:href="#linearGradient3338"
       inkscape:collect="always" />
    <linearGradient
       y2="43.818436"
       x2="-37.81818"
       y1="-29.636364"
       x1="-37.81818"
       gradientUnits="userSpaceOnUse"
       id="linearGradient3369"
       xlink:href="#linearGradient3353"
       inkscape:collect="always" />
    <linearGradient
       gradientUnits="userSpaceOnUse"
       y2="43.818436"
       x2="-37.81818"
       y1="-29.636364"
       x1="-37.81818"
       id="linearGradient3359"
       xlink:href="#linearGradient3353"
       inkscape:collect="always" />
    <linearGradient
       gradientTransform="translate(-69.62876,-26)"
       y2="70.173874"
       x2="31.369827"
       y1="-1.8252131"
       x1="31.369827"
       gradientUnits="userSpaceOnUse"
       id="linearGradient3348"
       xlink:href="#linearGradient3338"
       inkscape:collect="always" />
    <linearGradient
       gradientUnits="userSpaceOnUse"
       y2="70.173874"
       x2="31.369827"
       y1="-1.8252131"
       x1="31.369827"
       id="linearGradient3344"
       xlink:href="#linearGradient3338"
       inkscape:collect="always" />
    <linearGradient
       gradientTransform="translate(-38.25985,-23.27024)"
       gradientUnits="userSpaceOnUse"
       y2="70.658356"
       x2="30.298485"
       y1="-0.73729056"
       x1="30.298485"
       id="linearGradient2776"
       xlink:href="#linearGradient2770"
       inkscape:collect="always" />
    <linearGradient
       gradientTransform="translate(-0.6,1.414214)"
       gradientUnits="userSpaceOnUse"
       y2="43.140842"
       x2="51.484303"
       y1="0.84300065"
       x1="0.59999996"
       id="linearGradient2878"
       xlink:href="#linearGradient2872"
       inkscape:collect="always" />
    <linearGradient
       id="linearGradient2872"
       inkscape:collect="always">
      <stop
         id="stop2874"
         offset="0"
         style="stop-color:white;stop-opacity:1;" />
      <stop
         id="stop2876"
         offset="1"
         style="stop-color:white;stop-opacity:0;" />
    </linearGradient>
    <linearGradient
       id="linearGradient2770"
       inkscape:collect="always">
      <stop
         id="stop2772"
         offset="0"
         style="stop-color:white;stop-opacity:1;" />
      <stop
         id="stop2774"
         offset="1"
         style="stop-color:white;stop-opacity:0;" />
    </linearGradient>
    <linearGradient
       id="linearGradient3338"
       inkscape:collect="always">
      <stop
         id="stop3340"
         offset="0"
         style="stop-color:white;stop-opacity:1;" />
      <stop
         id="stop3342"
         offset="1"
         style="stop-color:white;stop-opacity:0;" />
    </linearGradient>
    <linearGradient
       id="linearGradient3353"
       inkscape:collect="always">
      <stop
         id="stop3355"
         offset="0"
         style="stop-color:white;stop-opacity:1;" />
      <stop
         id="stop3357"
         offset="1"
         style="stop-color:white;stop-opacity:0;" />
    </linearGradient>
    <linearGradient
       gradientUnits="userSpaceOnUse"
       y2="24.317999"
       x2="9.3852358"
       y1="-2.1059129"
       x1="9.3852358"
       id="linearGradient3244"
       xlink:href="#linearGradient3238"
       inkscape:collect="always" />
    <linearGradient
       y2="53.142662"
       x2="23.913065"
       y1="-2.9116881"
       x1="23.913065"
       gradientUnits="userSpaceOnUse"
       id="linearGradient2396"
       xlink:href="#linearGradient3338"
       inkscape:collect="always" />
    <linearGradient
       y2="70.173874"
       x2="31.369827"
       y1="-1.8252131"
       x1="31.369827"
       gradientUnits="userSpaceOnUse"
       id="linearGradient2394"
       xlink:href="#linearGradient3338"
       inkscape:collect="always" />
    <linearGradient
       y2="43.818436"
       x2="-37.81818"
       y1="-29.636364"
       x1="-37.81818"
       gradientUnits="userSpaceOnUse"
       id="linearGradient2392"
       xlink:href="#linearGradient3353"
       inkscape:collect="always" />
    <linearGradient
       gradientUnits="userSpaceOnUse"
       y2="43.818436"
       x2="-37.81818"
       y1="-29.636364"
       x1="-37.81818"
       id="linearGradient2390"
       xlink:href="#linearGradient3353"
       inkscape:collect="always" />
    <linearGradient
       gradientTransform="translate(-69.62876,-26)"
       y2="70.173874"
       x2="31.369827"
       y1="-1.8252131"
       x1="31.369827"
       gradientUnits="userSpaceOnUse"
       id="linearGradient2388"
       xlink:href="#linearGradient3338"
       inkscape:collect="always" />
    <linearGradient
       gradientUnits="userSpaceOnUse"
       y2="70.173874"
       x2="31.369827"
       y1="-1.8252131"
       x1="31.369827"
       id="linearGradient2386"
       xlink:href="#linearGradient3338"
       inkscape:collect="always" />
    <linearGradient
       gradientTransform="translate(-38.25985,-23.27024)"
       gradientUnits="userSpaceOnUse"
       y2="70.658356"
       x2="30.298485"
       y1="-0.73729056"
       x1="30.298485"
       id="linearGradient2384"
       xlink:href="#linearGradient2770"
       inkscape:collect="always" />
    <linearGradient
       gradientTransform="translate(-0.6,1.414214)"
       gradientUnits="userSpaceOnUse"
       y2="43.140842"
       x2="51.484303"
       y1="0.84300065"
       x1="0.59999996"
       id="linearGradient2382"
       xlink:href="#linearGradient2872"
       inkscape:collect="always" />
    <linearGradient
       id="linearGradient3238"
       inkscape:collect="always">
      <stop
         id="stop3240"
         offset="0"
         style="stop-color:#ffffff;stop-opacity:1;" />
      <stop
         id="stop3242"
         offset="1"
         style="stop-color:#ffffff;stop-opacity:0;" />
    </linearGradient>
    <linearGradient
       y2="53.142662"
       x2="23.913065"
       y1="-2.9116881"
       x1="23.913065"
       gradientUnits="userSpaceOnUse"
       id="linearGradient2508"
       xlink:href="#linearGradient3338"
       inkscape:collect="always" />
    <linearGradient
       y2="53.142662"
       x2="23.913065"
       y1="-2.9116881"
       x1="23.913065"
       gradientUnits="userSpaceOnUse"
       id="linearGradient2506"
       xlink:href="#linearGradient3338"
       inkscape:collect="always" />
    <linearGradient
       y2="70.173874"
       x2="31.369827"
       y1="-1.8252131"
       x1="31.369827"
       gradientUnits="userSpaceOnUse"
       id="linearGradient2504"
       xlink:href="#linearGradient3338"
       inkscape:collect="always" />
    <linearGradient
       y2="43.818436"
       x2="-37.81818"
       y1="-29.636364"
       x1="-37.81818"
       gradientUnits="userSpaceOnUse"
       id="linearGradient2502"
       xlink:href="#linearGradient3353"
       inkscape:collect="always" />
    <linearGradient
       gradientUnits="userSpaceOnUse"
       y2="43.818436"
       x2="-37.81818"
       y1="-29.636364"
       x1="-37.81818"
       id="linearGradient2500"
       xlink:href="#linearGradient3353"
       inkscape:collect="always" />
    <linearGradient
       gradientTransform="translate(-69.62876,-26)"
       y2="70.173874"
       x2="31.369827"
       y1="-1.8252131"
       x1="31.369827"
       gradientUnits="userSpaceOnUse"
       id="linearGradient2498"
       xlink:href="#linearGradient3338"
       inkscape:collect="always" />
    <linearGradient
       gradientUnits="userSpaceOnUse"
       y2="70.173874"
       x2="31.369827"
       y1="-1.8252131"
       x1="31.369827"
       id="linearGradient2496"
       xlink:href="#linearGradient3338"
       inkscape:collect="always" />
    <linearGradient
       gradientTransform="translate(-38.25985,-23.27024)"
       gradientUnits="userSpaceOnUse"
       y2="70.658356"
       x2="30.298485"
       y1="-0.73729056"
       x1="30.298485"
       id="linearGradient2494"
       xlink:href="#linearGradient2770"
       inkscape:collect="always" />
    <linearGradient
       gradientTransform="translate(-0.6,1.414214)"
       gradientUnits="userSpaceOnUse"
       y2="43.140842"
       x2="51.484303"
       y1="0.84300065"
       x1="0.59999996"
       id="linearGradient2492"
       xlink:href="#linearGradient2872"
       inkscape:collect="always" />
    <linearGradient
       gradientUnits="userSpaceOnUse"
       y2="33.227089"
       x2="9.2943268"
       y1="-2.1059129"
       x1="9.3852358"
       id="linearGradient2466"
       xlink:href="#linearGradient3238"
       inkscape:collect="always" />
  </defs>
  <sodipodi:namedview
     id="base"
     pagecolor="#ffffff"
     bordercolor="#666666"
     borderopacity="1.0"
     inkscape:pageopacity="0.0"
     inkscape:pageshadow="2"
     inkscape:zoom="7"
     inkscape:cx="20.069343"
     inkscape:cy="23.857142"
     inkscape:current-layer="layer1"
     showgrid="true"
     inkscape:grid-bbox="true"
     inkscape:document-units="px"
     inkscape:window-width="1272"
     inkscape:window-height="945"
     inkscape:window-x="0"
     inkscape:window-y="25" />
  <metadata
     id="metadata2165">
    <rdf:RDF>
      <cc:Work
         rdf:about="">
        <dc:format>image/svg+xml</dc:format>
        <dc:type
           rdf:resource="http://purl.org/dc/dcmitype/StillImage" />
      </cc:Work>
    </rdf:RDF>
  </metadata>
  <g
     id="layer1"
     inkscape:label="Layer 1"
     inkscape:groupmode="layer">
    <rect
       style="opacity:1;color:#000000;fill:#eeeeec;fill-opacity:1;fill-rule:nonzero;stroke:#babdb6;stroke-width:1;stroke-linecap:square;stroke-linejoin:miter;marker:none;marker-start:none;marker-mid:none;marker-end:none;stroke-miterlimit:4;stroke-dasharray:none;stroke-dashoffset:0;stroke-opacity:1;visibility:visible;display:inline;overflow:visible;enable-background:accumulate"
       id="rect2168"
       width="33.064518"
       height="47"
       x="0.5"
       y="0.5" />
    <rect
       style="opacity:1;color:#000000;fill:none;fill-opacity:1;fill-rule:nonzero;stroke:#ffffff;stroke-width:1;stroke-linecap:square;stroke-linejoin:miter;marker:none;marker-start:none;marker-mid:none;marker-end:none;stroke-miterlimit:4;stroke-dasharray:none;stroke-dashoffset:0;stroke-opacity:1;visibility:visible;display:inline;overflow:visible;enable-background:accumulate"
       id="rect3141"
       width="31"
       height="45.090908"
       x="1.5"
       y="1.4090933" />
    <rect
       style="opacity:0.7;color:#000000;fill:url(#linearGradient3151);fill-opacity:1;fill-rule:nonzero;stroke:#babdb6;stroke-width:1;stroke-linecap:square;stroke-linejoin:miter;marker:none;marker-start:none;marker-mid:none;marker-end:none;stroke-miterlimit:4;stroke-dasharray:none;stroke-dashoffset:0;stroke-opacity:1;visibility:visible;display:inline;overflow:visible;enable-background:accumulate"
       id="rect3143"
       width="33.064518"
       height="47"
       x="0.5"
       y="0.5" />
    <rect
       style="opacity:0.7;color:#000000;fill:#888a85;fill-opacity:1;fill-rule:nonzero;stroke:none;stroke-width:1;stroke-linecap:square;stroke-linejoin:miter;marker:none;marker-start:none;marker-mid:none;marker-end:none;stroke-miterlimit:4;stroke-dasharray:none;stroke-dashoffset:0;stroke-opacity:1;visibility:visible;display:inline;overflow:visible;enable-background:accumulate"
       id="rect3153"
       width="22"
       height="1.9776541"
       x="8"
       y="4" />
    <rect
       style="opacity:0.7;color:#000000;fill:#888a85;fill-opacity:1;fill-rule:nonzero;stroke:none;stroke-width:1;stroke-linecap:square;stroke-linejoin:miter;marker:none;marker-start:none;marker-mid:none;marker-end:none;stroke-miterlimit:4;stroke-dasharray:none;stroke-dashoffset:0;stroke-opacity:1;visibility:visible;display:inline;overflow:visible;enable-background:accumulate"
       id="rect3155"
       width="22"
       height="1.9776541"
       x="8"
       y="10.022346" />
    <rect
       style="opacity:0.7;color:#000000;fill:#888a85;fill-opacity:1;fill-rule:nonzero;stroke:none;stroke-width:1;stroke-linecap:square;stroke-linejoin:miter;marker:none;marker-start:none;marker-mid:none;marker-end:none;stroke-miterlimit:4;stroke-dasharray:none;stroke-dashoffset:0;stroke-opacity:1;visibility:visible;display:inline;overflow:visible;enable-background:accumulate"
       id="rect3157"
       width="22"
       height="1.9776541"
       x="8"
       y="18.022346" />
    <rect
       style="opacity:0.7;color:#000000;fill:#888a85;fill-opacity:1;fill-rule:nonzero;stroke:none;stroke-width:1;stroke-linecap:square;stroke-linejoin:miter;marker:none;marker-start:none;marker-mid:none;marker-end:none;stroke-miterlimit:4;stroke-dasharray:none;stroke-dashoffset:0;stroke-opacity:1;visibility:visible;display:inline;overflow:visible;enable-background:accumulate"
       id="rect3159"
       width="22"
       height="1.9776541"
       x="8"
       y="24.022346" />
    <rect
       style="opacity:0.7;color:#000000;fill:#888a85;fill-opacity:1;fill-rule:nonzero;stroke:none;stroke-width:1;stroke-linecap:square;stroke-linejoin:miter;marker:none;marker-start:none;marker-mid:none;marker-end:none;stroke-miterlimit:4;stroke-dasharray:none;stroke-dashoffset:0;stroke-opacity:1;visibility:visible;display:inline;overflow:visible;enable-background:accumulate"
       id="rect3161"
       width="22"
       height="1.9776541"
       x="8"
       y="32.022346" />
    <rect
       style="opacity:0.7;color:#000000;fill:#888a85;fill-opacity:1;fill-rule:nonzero;stroke:none;stroke-width:1;stroke-linecap:square;stroke-linejoin:miter;marker:none;marker-start:none;marker-mid:none;marker-end:none;stroke-miterlimit:4;stroke-dasharray:none;stroke-dashoffset:0;stroke-opacity:1;visibility:visible;display:inline;overflow:visible;enable-background:accumulate"
       id="rect3163"
       width="22"
       height="1.9776541"
       x="8"
       y="38.022346" />
    <rect
       style="opacity:0.7;color:#000000;fill:#888a85;fill-opacity:1;fill-rule:nonzero;stroke:none;stroke-width:1;stroke-linecap:square;stroke-linejoin:miter;marker:none;marker-start:none;marker-mid:none;marker-end:none;stroke-miterlimit:4;stroke-dasharray:none;stroke-dashoffset:0;stroke-opacity:1;visibility:visible;display:inline;overflow:visible;enable-background:accumulate"
       id="rect3177"
       width="22"
       height="1.9776541"
       x="8"
       y="7" />
    <rect
       style="opacity:0.7;color:#000000;fill:#888a85;fill-opacity:1;fill-rule:nonzero;stroke:none;stroke-width:1;stroke-linecap:square;stroke-linejoin:miter;marker:none;marker-start:none;marker-mid:none;marker-end:none;stroke-miterlimit:4;stroke-dasharray:none;stroke-dashoffset:0;stroke-opacity:1;visibility:visible;display:inline;overflow:visible;enable-background:accumulate"
       id="rect3179"
       width="12.324116"
       height="1.9776541"
       x="8"
       y="13.022346" />
    <rect
       style="opacity:0.7;color:#000000;fill:#888a85;fill-opacity:1;fill-rule:nonzero;stroke:none;stroke-width:1;stroke-linecap:square;stroke-linejoin:miter;marker:none;marker-start:none;marker-mid:none;marker-end:none;stroke-miterlimit:4;stroke-dasharray:none;stroke-dashoffset:0;stroke-opacity:1;visibility:visible;display:inline;overflow:visible;enable-background:accumulate"
       id="rect3181"
       width="22"
       height="1.9776541"
       x="8"
       y="21.022346" />
    <rect
       style="opacity:0.7;color:#000000;fill:#888a85;fill-opacity:1;fill-rule:nonzero;stroke:none;stroke-width:1;stroke-linecap:square;stroke-linejoin:miter;marker:none;marker-start:none;marker-mid:none;marker-end:none;stroke-miterlimit:4;stroke-dasharray:none;stroke-dashoffset:0;stroke-opacity:1;visibility:visible;display:inline;overflow:visible;enable-background:accumulate"
       id="rect3183"
       width="12.324116"
       height="1.9776541"
       x="8"
       y="27.022346" />
    <rect
       style="opacity:0.7;color:#000000;fill:#888a85;fill-opacity:1;fill-rule:nonzero;stroke:none;stroke-width:1;stroke-linecap:square;stroke-linejoin:miter;marker:none;marker-start:none;marker-mid:none;marker-end:none;stroke-miterlimit:4;stroke-dasharray:none;stroke-dashoffset:0;stroke-opacity:1;visibility:visible;display:inline;overflow:visible;enable-background:accumulate"
       id="rect3185"
       width="22"
       height="1.9776541"
       x="8"
       y="35.022346" />
    <rect
       style="opacity:0.7;color:#000000;fill:#888a85;fill-opacity:1;fill-rule:nonzero;stroke:none;stroke-width:1;stroke-linecap:square;stroke-linejoin:miter;marker:none;marker-start:none;marker-mid:none;marker-end:none;stroke-miterlimit:4;stroke-dasharray:none;stroke-dashoffset:0;stroke-opacity:1;visibility:visible;display:inline;overflow:visible;enable-background:accumulate"
       id="rect3187"
       width="12.324116"
       height="1.9776541"
       x="8"
       y="41.022346" />
    <path
       style="color:#000000;fill:#3465a4;fill-opacity:1;fill-rule:nonzero;stroke:#204a87;stroke-width:0.99999994;stroke-linecap:butt;stroke-linejoin:miter;marker:none;stroke-miterlimit:4;stroke-dasharray:none;stroke-dashoffset:0;stroke-opacity:1;visibility:visible;display:inline;overflow:visible"
       d="M 29.012614,16.5 L 29.012614,16.531281 L 28.981333,21.755297 C 28.26558,21.968333 27.562256,22.248608 26.916751,22.599899 L 26.885471,22.599899 L 23.19425,18.939961 L 23.162967,18.908678 L 18.908679,23.162966 L 18.93996,23.194247 L 22.5999,26.88547 C 22.240167,27.541343 21.941695,28.221637 21.724017,28.950051 L 16.562564,28.981333 L 16.500001,28.981333 L 16.500001,34.987386 L 16.562564,34.987386 L 21.724017,35.018668 C 21.938538,35.743937 22.212846,36.46149 22.568618,37.114531 L 18.93996,40.805752 L 18.908679,40.837034 L 23.162967,45.091324 L 23.19425,45.060042 L 26.885471,41.431383 C 27.538511,41.787156 28.256065,42.061463 28.981333,42.275984 L 29.012614,47.437436 L 29.012614,47.5 L 35.018669,47.5 L 35.018669,47.437436 L 35.049951,42.275984 C 35.778365,42.058304 36.458659,41.759835 37.114532,41.400101 L 40.805752,45.060042 L 40.837034,45.091324 L 45.091324,40.837034 L 45.060042,40.805752 L 41.400103,37.114531 L 41.400103,37.083249 C 41.751394,36.437746 42.031668,35.73442 42.244704,35.018668 L 47.46872,34.987386 L 47.5,34.987386 L 47.5,28.981333 L 47.46872,28.981333 L 42.244704,28.950051 C 42.030007,28.235952 41.752058,27.561298 41.400103,26.916751 L 45.060042,23.194247 L 45.091324,23.162966 L 40.837034,18.908678 L 40.805752,18.939961 L 37.083252,22.599899 C 36.438703,22.247943 35.76405,21.969994 35.049951,21.755297 L 35.018669,16.531281 L 35.018669,16.5 L 29.012614,16.5 z M 32.015642,27.10444 C 34.71514,27.10444 36.895562,29.316142 36.895562,32.015641 C 36.895562,34.715137 34.71514,36.895559 32.015642,36.895559 C 29.316145,36.895559 27.104441,34.715137 27.104441,32.015641 C 27.104441,31.846923 27.118865,31.679624 27.135723,31.515137 C 27.388592,29.047834 29.484864,27.10444 32.015642,27.10444 z "
       id="path2512" />
    <path
       style="opacity:0.7;color:#000000;fill:#3465a4;fill-opacity:1;fill-rule:nonzero;stroke:#204a87;stroke-width:0.99999994;stroke-linecap:butt;stroke-linejoin:miter;marker:none;stroke-miterlimit:4;stroke-dasharray:none;stroke-dashoffset:0;stroke-opacity:1;visibility:visible;display:inline;overflow:visible"
       d="M 29.012614,16.5 L 29.012614,16.531281 L 28.981334,21.755297 C 28.26558,21.968333 27.562256,22.248608 26.916751,22.599899 L 26.885471,22.599899 L 23.19425,18.939961 L 23.162967,18.908678 L 18.908679,23.162966 L 18.93996,23.194247 L 22.5999,26.88547 C 22.240167,27.541343 21.941695,28.221637 21.724017,28.950051 L 16.562564,28.981333 L 16.500001,28.981333 L 16.500001,34.987386 L 16.562564,34.987386 L 21.724017,35.018668 C 21.938538,35.743937 22.212846,36.46149 22.568618,37.114531 L 18.93996,40.805752 L 18.908679,40.837034 L 23.162967,45.091324 L 23.19425,45.060042 L 26.885471,41.431383 C 27.538511,41.787156 28.256065,42.061463 28.981334,42.275984 L 29.012614,47.437436 L 29.012614,47.5 L 35.018669,47.5 L 35.018669,47.437436 L 35.049951,42.275984 C 35.778365,42.058304 36.458659,41.759835 37.114532,41.400101 L 40.805752,45.060042 L 40.837034,45.091324 L 45.091324,40.837034 L 45.060042,40.805752 L 41.400103,37.114531 L 41.400103,37.083249 C 41.751394,36.437746 42.031668,35.73442 42.244704,35.018668 L 47.46872,34.987386 L 47.5,34.987386 L 47.5,28.981333 L 47.46872,28.981333 L 42.244704,28.950051 C 42.030007,28.235952 41.752058,27.561298 41.400103,26.916751 L 45.060042,23.194247 L 45.091324,23.162966 L 40.837034,18.908678 L 40.805752,18.939961 L 37.083252,22.599899 C 36.438703,22.247943 35.76405,21.969994 35.049951,21.755297 L 35.018669,16.531281 L 35.018669,16.5 L 29.012614,16.5 z M 32.015642,27.10444 C 34.71514,27.10444 36.895562,29.316142 36.895562,32.015641 C 36.895562,34.715137 34.71514,36.895559 32.015642,36.895559 C 29.316145,36.895559 27.104441,34.715137 27.104441,32.015641 C 27.104441,31.846923 27.118865,31.679624 27.135723,31.515137 C 27.388592,29.047834 29.484865,27.10444 32.015642,27.10444 z "
       id="path2514" />
    <path
       style="opacity:0.5;color:#000000;fill:none;fill-opacity:1;fill-rule:nonzero;stroke:#eeeeec;stroke-width:0.99999994;stroke-linecap:butt;stroke-linejoin:miter;marker:none;stroke-miterlimit:4;stroke-dasharray:none;stroke-dashoffset:0;stroke-opacity:1;visibility:visible;display:inline;overflow:visible"
       d="M 26.059975,31.810844 C 26.111369,28.283147 29.333843,25.995345 32.106551,26.044333 C 34.924714,26.093321 37.917148,28.681727 37.955669,32.061096 C 37.993674,35.395221 35.270291,37.737333 32.106551,37.819302 C 28.943662,37.90125 26.008581,35.338541 26.059975,31.810844 z M 40.242039,37.329697 C 40.593329,36.684194 41.356424,34.716234 41.56946,34.000482 L 46.544977,34.018188 L 46.485348,30.04144 L 41.516936,29.968238 C 41.30224,29.254138 40.548538,27.274431 40.196584,26.629884 L 43.667634,23.190713 L 40.837034,20.391994 L 37.275676,23.852407 C 36.631127,23.500452 34.749397,22.739681 34.035297,22.524985 L 33.913106,17.605562 L 30.118175,17.560107 L 30.04144,22.434076 C 29.325688,22.647111 27.229936,23.452128 26.584432,23.803419 L 23.239704,20.423277 L 20.350075,23.11751 L 23.750896,26.640524 C 23.391163,27.296396 22.788154,29.190836 22.570476,29.91925 L 17.486308,30.086895 L 17.605563,34.018188 L 22.360876,34.011085 C 22.575395,34.736352 23.412831,36.737751 23.768603,37.390792 L 20.335902,40.805752 L 23.166503,43.646393 L 26.734969,40.311702 C 27.388009,40.667474 29.270719,41.246322 29.995986,41.460842 L 30.118175,46.513693 L 34.004015,46.439894 L 34.035297,41.639125 C 34.763711,41.421446 36.696534,40.598236 37.352408,40.238501 L 40.942116,43.667634 L 43.608007,40.791579 L 40.242039,37.329697 z "
       id="path2516"
       sodipodi:nodetypes="czzzzccccccccccccccccccccccccccccccccc" />
  </g>
</svg>
