<?xml version="1.0" encoding="UTF-8" standalone="no"?>
<!-- Created with Inkscape (http://www.inkscape.org/) -->
<svg
   xmlns:dc="http://purl.org/dc/elements/1.1/"
   xmlns:cc="http://web.resource.org/cc/"
   xmlns:rdf="http://www.w3.org/1999/02/22-rdf-syntax-ns#"
   xmlns:svg="http://www.w3.org/2000/svg"
   xmlns="http://www.w3.org/2000/svg"
   xmlns:xlink="http://www.w3.org/1999/xlink"
   xmlns:sodipodi="http://sodipodi.sourceforge.net/DTD/sodipodi-0.dtd"
   xmlns:inkscape="http://www.inkscape.org/namespaces/inkscape"
   width="48"
   height="48"
   id="svg2"
   sodipodi:version="0.32"
   inkscape:version="0.45"
   sodipodi:modified="true"
   version="1.0">
  <defs
     id="defs4">
    <linearGradient
       inkscape:collect="always"
       id="linearGradient3148">
      <stop
         style="stop-color:#ffffff;stop-opacity:1;"
         offset="0"
         id="stop3150" />
      <stop
         style="stop-color:#ffffff;stop-opacity:0;"
         offset="1"
         id="stop3152" />
    </linearGradient>
    <linearGradient
       inkscape:collect="always"
       xlink:href="#linearGradient3148"
       id="linearGradient3154"
       x1="20.830189"
       y1="-5.9514823"
       x2="20.830189"
       y2="49.682541"
       gradientUnits="userSpaceOnUse" />
    <linearGradient
       inkscape:collect="always"
       xlink:href="#linearGradient3148"
       id="linearGradient3161"
       gradientUnits="userSpaceOnUse"
       x1="20.830189"
       y1="-5.9514823"
       x2="20.830189"
       y2="49.682541" />
  </defs>
  <sodipodi:namedview
     id="base"
     pagecolor="#ffffff"
     bordercolor="#666666"
     borderopacity="1.0"
     inkscape:pageopacity="0.0"
     inkscape:pageshadow="2"
     inkscape:zoom="7.7291667"
     inkscape:cx="24"
     inkscape:cy="26.389839"
     inkscape:document-units="px"
     inkscape:current-layer="layer1"
     width="48px"
     height="48px"
     inkscape:window-width="1272"
     inkscape:window-height="949"
     inkscape:window-x="0"
     inkscape:window-y="24" />
  <metadata
     id="metadata7">
    <rdf:RDF>
      <cc:Work
         rdf:about="">
        <dc:format>image/svg+xml</dc:format>
        <dc:type
           rdf:resource="http://purl.org/dc/dcmitype/StillImage" />
      </cc:Work>
    </rdf:RDF>
  </metadata>
  <g
     inkscape:label="Ebene 1"
     inkscape:groupmode="layer"
     id="layer1">
    <g
       id="g3156">
      <path
         sodipodi:nodetypes="czcczcccczcczzzzz"
         id="path2160"
         d="M 12.765625,10.406251 C 11.369141,17.71875 12.251895,19.655071 12.765625,22.65625 C 13.283485,25.681558 16.890625,29.65625 16.890625,29.65625 L 16.890625,32.5 C 16.890625,32.5 12.742187,32.5 8.5937498,32.5 C 4.4453128,32.5 0.29687482,40.5 0.29687482,40.5 L 0.29687482,47.5 L 47.703125,47.5 L 47.703125,40.5 C 47.703125,40.5 43.523437,32.5 39.34375,32.5 C 35.164063,32.5 30.984375,32.5 30.984375,32.5 L 30.984375,29.65625 C 30.984375,29.65625 34.466265,26.045569 35.109375,22.65625 C 35.780952,19.116904 36.505859,17.71875 35.109375,10.406251 C 33.712891,3.0937506 31.361253,2.4180236 29.523437,1.4062506 C 27.63471,0.36644938 20.240937,0.3252356 18.351563,1.4062506 C 16.560484,2.4310257 14.162109,3.0937506 12.765625,10.406251 z "
         style="fill:#2e3436;fill-rule:evenodd;stroke:#000000;stroke-width:1px;stroke-linecap:butt;stroke-linejoin:miter;stroke-opacity:1" />
      <path
         sodipodi:nodetypes="czcczcccczcczzzzz"
         id="path3146"
         d="M 12.765625,10.406251 C 11.369141,17.71875 12.251895,19.655071 12.765625,22.65625 C 13.283485,25.681558 16.890625,29.65625 16.890625,29.65625 L 16.890625,32.5 C 16.890625,32.5 12.742187,32.5 8.5937498,32.5 C 4.4453128,32.5 0.29687482,40.5 0.29687482,40.5 L 0.29687482,47.5 L 47.703125,47.5 L 47.703125,40.5 C 47.703125,40.5 43.523437,32.5 39.34375,32.5 C 35.164063,32.5 30.984375,32.5 30.984375,32.5 L 30.984375,29.65625 C 30.984375,29.65625 34.466265,26.045569 35.109375,22.65625 C 35.780952,19.116904 36.505859,17.71875 35.109375,10.406251 C 33.712891,3.0937506 31.361253,2.4180236 29.523437,1.4062506 C 27.63471,0.36644938 20.240937,0.3252356 18.351563,1.4062506 C 16.560484,2.4310257 14.162109,3.0937506 12.765625,10.406251 z "
         style="opacity:0.7;fill:url(#linearGradient3161);fill-opacity:1;fill-rule:evenodd;stroke:#000000;stroke-width:1px;stroke-linecap:butt;stroke-linejoin:miter;stroke-opacity:1" />
      <path
         sodipodi:nodetypes="czcczcccczcczzzzz"
         id="path2173"
         d="M 13.765625,10.406251 C 12.931307,14.640431 12.734375,17.84375 13.765625,22.65625 C 14.796875,27.46875 17.890625,29.10908 17.890625,29.10908 L 17.890625,33.5 C 17.890625,33.5 12.742187,33.5 8.5937498,33.5 C 4.4453128,33.5 1.2968748,41.04717 1.2968748,41.04717 L 1.2968748,46.5 L 46.703125,46.5 L 46.703125,41.04717 C 46.703125,41.04717 43.523437,33.5 39.34375,33.5 C 35.164063,33.5 29.984375,33.5 29.984375,33.5 L 29.984375,29.10908 C 29.984375,29.10908 33.078125,27.46875 34.109375,22.65625 C 35.140625,17.84375 35.139026,14.533098 34.109375,10.406251 C 33.049308,6.1574978 31.361253,3.4180236 29.523437,2.4062506 C 27.63471,1.3664494 20.240937,1.3252356 18.351563,2.4062506 C 16.560484,3.4310257 14.580767,6.2693871 13.765625,10.406251 z "
         style="opacity:0.5;fill:none;fill-rule:evenodd;stroke:#eeeeec;stroke-width:1px;stroke-linecap:butt;stroke-linejoin:miter;stroke-opacity:1" />
    </g>
  </g>
</svg>
