<?xml version="1.0" encoding="UTF-8" standalone="no"?>
<!-- Created with Inkscape (http://www.inkscape.org/) -->
<svg
   xmlns:dc="http://purl.org/dc/elements/1.1/"
   xmlns:cc="http://web.resource.org/cc/"
   xmlns:rdf="http://www.w3.org/1999/02/22-rdf-syntax-ns#"
   xmlns:svg="http://www.w3.org/2000/svg"
   xmlns="http://www.w3.org/2000/svg"
   xmlns:xlink="http://www.w3.org/1999/xlink"
   xmlns:sodipodi="http://sodipodi.sourceforge.net/DTD/sodipodi-0.dtd"
   xmlns:inkscape="http://www.inkscape.org/namespaces/inkscape"
   width="32"
   height="32"
   id="svg2160"
   sodipodi:version="0.32"
   inkscape:version="0.45"
   sodipodi:docbase="/home/lse/public_html/Bambus/System/Icons/0.12/scalable/mimetypes"
   sodipodi:docname="medium-document.svg"
   inkscape:output_extension="org.inkscape.output.svg.inkscape"
   version="1.0"
   sodipodi:modified="true">
  <defs
     id="defs2162">
    <linearGradient
       inkscape:collect="always"
       id="linearGradient3361">
      <stop
         style="stop-color:#ffffff;stop-opacity:1;"
         offset="0"
         id="stop3363" />
      <stop
         style="stop-color:#ffffff;stop-opacity:0;"
         offset="1"
         id="stop3365" />
    </linearGradient>
    <linearGradient
       inkscape:collect="always"
       xlink:href="#linearGradient3361"
       id="linearGradient3416"
       gradientUnits="userSpaceOnUse"
       gradientTransform="matrix(2.0821099,0,0,2.1016029,9.6672114,23.60773)"
       x1="23.892857"
       y1="3.0357144"
       x2="23.892857"
       y2="22.194689" />
    <linearGradient
       inkscape:collect="always"
       id="linearGradient3145">
      <stop
         style="stop-color:#ffffff;stop-opacity:1;"
         offset="0"
         id="stop3147" />
      <stop
         style="stop-color:#ffffff;stop-opacity:0;"
         offset="1"
         id="stop3149" />
    </linearGradient>
    <linearGradient
       inkscape:collect="always"
       xlink:href="#linearGradient3145"
       id="linearGradient3151"
       x1="22.857143"
       y1="-1.7857143"
       x2="22.857143"
       y2="49.583546"
       gradientUnits="userSpaceOnUse"
       gradientTransform="matrix(0.6653658,0,0,0.6595745,-4.4902432,0.1702127)" />
    <linearGradient
       gradientTransform="matrix(0.2972547,0,0,0.2800989,0.8496468,0.9649748)"
       gradientUnits="userSpaceOnUse"
       y2="48.035389"
       x2="19.363636"
       y1="3.1818182"
       x1="19.363636"
       id="linearGradient3243"
       xlink:href="#linearGradient3237"
       inkscape:collect="always" />
    <linearGradient
       y2="54.557911"
       x2="29.443182"
       y1="25.639603"
       x1="29.443182"
       gradientTransform="matrix(0.1985271,0,0,0.1897971,1.594795,2.2604501)"
       gradientUnits="userSpaceOnUse"
       id="linearGradient3222"
       xlink:href="#linearGradient2891"
       inkscape:collect="always" />
    <linearGradient
       y2="30.909092"
       x2="11.636364"
       y1="9.454546"
       x1="11.636364"
       gradientUnits="userSpaceOnUse"
       id="linearGradient2243"
       xlink:href="#linearGradient2850"
       inkscape:collect="always" />
    <linearGradient
       gradientUnits="userSpaceOnUse"
       y2="30.909092"
       x2="11.636364"
       y1="9.454546"
       x1="11.636364"
       id="linearGradient2856"
       xlink:href="#linearGradient2850"
       inkscape:collect="always" />
    <linearGradient
       gradientUnits="userSpaceOnUse"
       y2="63.782219"
       x2="28.363636"
       y1="5.0909095"
       x1="28.363636"
       id="linearGradient2837"
       xlink:href="#linearGradient2831"
       inkscape:collect="always" />
    <linearGradient
       id="linearGradient2831"
       inkscape:collect="always">
      <stop
         id="stop2833"
         offset="0"
         style="stop-color:white;stop-opacity:1;" />
      <stop
         id="stop2835"
         offset="1"
         style="stop-color:white;stop-opacity:0;" />
    </linearGradient>
    <linearGradient
       id="linearGradient2850"
       inkscape:collect="always">
      <stop
         id="stop2852"
         offset="0"
         style="stop-color:white;stop-opacity:1;" />
      <stop
         id="stop2854"
         offset="1"
         style="stop-color:white;stop-opacity:0;" />
    </linearGradient>
    <linearGradient
       id="linearGradient2891"
       inkscape:collect="always">
      <stop
         id="stop2893"
         offset="0"
         style="stop-color:white;stop-opacity:1;" />
      <stop
         id="stop2895"
         offset="1"
         style="stop-color:white;stop-opacity:0;" />
    </linearGradient>
    <linearGradient
       id="linearGradient3237"
       inkscape:collect="always">
      <stop
         id="stop3239"
         offset="0"
         style="stop-color:#eeeeec;stop-opacity:1;" />
      <stop
         id="stop3241"
         offset="1"
         style="stop-color:#eeeeec;stop-opacity:0;" />
    </linearGradient>
  </defs>
  <sodipodi:namedview
     id="base"
     pagecolor="#ffffff"
     bordercolor="#666666"
     borderopacity="1.0"
     inkscape:pageopacity="0.0"
     inkscape:pageshadow="2"
     inkscape:zoom="19.79899"
     inkscape:cx="33.223885"
     inkscape:cy="2.5012199"
     inkscape:current-layer="layer1"
     showgrid="true"
     inkscape:grid-bbox="true"
     inkscape:document-units="px"
     inkscape:window-width="1272"
     inkscape:window-height="945"
     inkscape:window-x="0"
     inkscape:window-y="25"
     width="32px"
     height="32px" />
  <metadata
     id="metadata2165">
    <rdf:RDF>
      <cc:Work
         rdf:about="">
        <dc:format>image/svg+xml</dc:format>
        <dc:type
           rdf:resource="http://purl.org/dc/dcmitype/StillImage" />
      </cc:Work>
    </rdf:RDF>
  </metadata>
  <g
     id="layer1"
     inkscape:label="Layer 1"
     inkscape:groupmode="layer">
    <rect
       style="opacity:1;color:#000000;fill:#eeeeec;fill-opacity:1;fill-rule:nonzero;stroke:#babdb6;stroke-width:0.99999994;stroke-linecap:square;stroke-linejoin:miter;marker:none;marker-start:none;marker-mid:none;marker-end:none;stroke-miterlimit:4;stroke-dasharray:none;stroke-dashoffset:0;stroke-opacity:1;visibility:visible;display:inline;overflow:visible;enable-background:accumulate"
       id="rect2168"
       width="22"
       height="31.000002"
       x="0.5"
       y="0.49999997" />
    <rect
       style="opacity:0.7;color:#000000;fill:url(#linearGradient3151);fill-opacity:1;fill-rule:nonzero;stroke:#babdb6;stroke-width:0.99999994;stroke-linecap:square;stroke-linejoin:miter;marker:none;marker-start:none;marker-mid:none;marker-end:none;stroke-miterlimit:4;stroke-dasharray:none;stroke-dashoffset:0;stroke-opacity:1;visibility:visible;display:inline;overflow:visible;enable-background:accumulate"
       id="rect3143"
       width="22"
       height="31.000002"
       x="0.5"
       y="0.49999997" />
    <rect
       style="opacity:1;color:#000000;fill:none;fill-opacity:1;fill-rule:nonzero;stroke:#ffffff;stroke-width:0.99999994;stroke-linecap:square;stroke-linejoin:miter;marker:none;marker-start:none;marker-mid:none;marker-end:none;stroke-miterlimit:4;stroke-dasharray:none;stroke-dashoffset:0;stroke-opacity:1;visibility:visible;display:inline;overflow:visible;enable-background:accumulate"
       id="rect3141"
       width="20"
       height="29.000002"
       x="1.5"
       y="1.5" />
    <rect
       style="opacity:0.7;color:#000000;fill:#888a85;fill-opacity:1;fill-rule:nonzero;stroke:none;stroke-width:1;stroke-linecap:square;stroke-linejoin:miter;marker:none;marker-start:none;marker-mid:none;marker-end:none;stroke-miterlimit:4;stroke-dasharray:none;stroke-dashoffset:0;stroke-opacity:1;visibility:visible;display:inline;overflow:visible;enable-background:accumulate"
       id="rect3153"
       width="14.444878"
       height="1"
       x="6.068264"
       y="3" />
    <rect
       style="opacity:0.7;color:#000000;fill:#888a85;fill-opacity:1;fill-rule:nonzero;stroke:none;stroke-width:1;stroke-linecap:square;stroke-linejoin:miter;marker:none;marker-start:none;marker-mid:none;marker-end:none;stroke-miterlimit:4;stroke-dasharray:none;stroke-dashoffset:0;stroke-opacity:1;visibility:visible;display:inline;overflow:visible;enable-background:accumulate"
       id="rect3163"
       width="14.444878"
       height="1.0425529"
       x="6.0505075"
       y="24.957447" />
    <rect
       style="opacity:0.7;color:#000000;fill:#888a85;fill-opacity:1;fill-rule:nonzero;stroke:none;stroke-width:1;stroke-linecap:square;stroke-linejoin:miter;marker:none;marker-start:none;marker-mid:none;marker-end:none;stroke-miterlimit:4;stroke-dasharray:none;stroke-dashoffset:0;stroke-opacity:1;visibility:visible;display:inline;overflow:visible;enable-background:accumulate"
       id="rect3177"
       width="14.444878"
       height="1.0212765"
       x="6.068264"
       y="4.9787235" />
    <rect
       style="opacity:0.7;color:#000000;fill:#888a85;fill-opacity:1;fill-rule:nonzero;stroke:none;stroke-width:1;stroke-linecap:square;stroke-linejoin:miter;marker:none;marker-start:none;marker-mid:none;marker-end:none;stroke-miterlimit:4;stroke-dasharray:none;stroke-dashoffset:0;stroke-opacity:1;visibility:visible;display:inline;overflow:visible;enable-background:accumulate"
       id="rect3179"
       width="8.0918341"
       height="1.0490913"
       x="6.068264"
       y="6.9509087" />
    <rect
       style="opacity:0.7;color:#000000;fill:#888a85;fill-opacity:1;fill-rule:nonzero;stroke:none;stroke-width:1;stroke-linecap:square;stroke-linejoin:miter;marker:none;marker-start:none;marker-mid:none;marker-end:none;stroke-miterlimit:4;stroke-dasharray:none;stroke-dashoffset:0;stroke-opacity:1;visibility:visible;display:inline;overflow:visible;enable-background:accumulate"
       id="rect3185"
       width="14.444878"
       height="1.0212765"
       x="6.0505075"
       y="22.978724" />
    <rect
       style="opacity:0.7;color:#000000;fill:#888a85;fill-opacity:1;fill-rule:nonzero;stroke:none;stroke-width:1;stroke-linecap:square;stroke-linejoin:miter;marker:none;marker-start:none;marker-mid:none;marker-end:none;stroke-miterlimit:4;stroke-dasharray:none;stroke-dashoffset:0;stroke-opacity:1;visibility:visible;display:inline;overflow:visible;enable-background:accumulate"
       id="rect3187"
       width="8.0918341"
       height="1.0638294"
       x="6.0505075"
       y="26.936171" />
    <g
       inkscape:label="Layer 1"
       id="g2225"
       transform="matrix(0.9350763,0,0,0.9537013,6.038779,8.0925972)">
      <rect
         y="2.5"
         x="0.45852941"
         height="11"
         width="15.041471"
         id="rect1940"
         style="fill:#c17d11;fill-opacity:1;stroke:#8f5902;stroke-width:1.05893755;stroke-miterlimit:4;stroke-dasharray:none;stroke-opacity:1" />
      <rect
         y="3.8950253"
         x="1.8781923"
         height="7.8647413"
         width="12.211135"
         id="rect2839"
         style="fill:#888a85;fill-opacity:1;stroke:#555753;stroke-width:0.98256767;stroke-miterlimit:4;stroke-dasharray:none;stroke-opacity:1" />
      <path
         sodipodi:nodetypes="cszscccc"
         id="path2886"
         d="M 1.9196577,10.611524 C 1.9196577,10.611524 2.6100803,10.580259 2.6100803,10.580259 C 3.7779704,8.8709489 4.1396713,10.109722 4.3741748,10.128405 C 4.5907497,10.145659 5.8721521,8.8084509 6.1248233,9.5719529 C 6.3774936,10.335456 14.04786,10.611524 14.04786,10.611524 L 14.04786,11.819324 L 1.9196577,11.819324 L 1.9196577,10.611524 z "
         style="fill:#000000;fill-opacity:1;stroke:none;stroke-width:1;stroke-miterlimit:4;stroke-opacity:1" />
      <rect
         y="3.8950253"
         x="1.8781927"
         height="7.8647413"
         width="12.211135"
         id="rect3235"
         style="opacity:0.7;fill:url(#linearGradient3243);fill-opacity:1;stroke:#d3d7cf;stroke-width:0.98256767;stroke-miterlimit:4;stroke-dasharray:none;stroke-opacity:1" />
      <path
         sodipodi:nodetypes="ccscsccccsc"
         id="rect2843"
         d="M 12.17257,7.7467674 C 11.972076,7.7310367 11.656508,8.1975889 10.627779,9.6627259 C 10.315015,9.4462249 9.9802804,9.3174369 9.827467,9.3472949 C 9.6130305,9.3891939 8.1010211,9.9932149 7.3831019,10.708326 C 7.0820013,10.892657 5.7068412,10.725242 4.9511445,10.737533 C 2.9105789,10.770721 1.9174017,10.568134 1.9174017,10.568134 L 1.9174017,11.759767 L 14.046169,11.759767 L 14.046169,10.568134 C 14.046169,10.568134 13.852153,9.8188499 13.599483,9.0669099 C 13.346812,8.3149709 12.389144,7.7637611 12.17257,7.7467674 z "
         style="fill:#2e3436;fill-opacity:1;stroke:#000000;stroke-width:0.98256767;stroke-miterlimit:4;stroke-opacity:1" />
      <g
         transform="matrix(0.1985271,0,0,0.1897971,1.7121067,2.2604501)"
         id="g2858">
        <path
           sodipodi:type="arc"
           style="opacity:1;fill:#d3d7cf;fill-opacity:1;stroke:#babdb6;stroke-width:5.0618329;stroke-miterlimit:4;stroke-dasharray:none;stroke-opacity:1"
           id="path2846"
           sodipodi:cx="11.636364"
           sodipodi:cy="19.454546"
           sodipodi:rx="7.2727275"
           sodipodi:ry="7.2727275"
           d="M 18.909091 19.454546 A 7.2727275 7.2727275 0 1 1  4.3636365,19.454546 A 7.2727275 7.2727275 0 1 1  18.909091 19.454546 z" />
        <path
           sodipodi:type="arc"
           style="opacity:0.7;fill:url(#linearGradient2243);fill-opacity:1;stroke:none;stroke-width:1;stroke-miterlimit:4;stroke-dasharray:none;stroke-opacity:1"
           id="path2848"
           sodipodi:cx="11.636364"
           sodipodi:cy="19.454546"
           sodipodi:rx="7.2727275"
           sodipodi:ry="7.2727275"
           d="M 18.909091 19.454546 A 7.2727275 7.2727275 0 1 1  4.3636365,19.454546 A 7.2727275 7.2727275 0 1 1  18.909091 19.454546 z" />
      </g>
      <path
         sodipodi:nodetypes="ccscsccccsc"
         id="path2889"
         d="M 12.172568,7.7467735 C 11.972076,7.7308006 11.656507,8.2045279 10.62778,9.6921939 C 10.315014,9.4723629 9.9802798,9.3415939 9.8274657,9.3719119 C 9.6130299,9.4144549 8.1010199,10.027764 7.3831022,10.753872 C 7.0820004,10.941037 5.7068412,10.771048 4.9511443,10.783527 C 2.9105788,10.817226 1.9174017,10.611524 1.9174017,10.611524 L 1.9174017,11.821481 L 14.046169,11.821481 L 14.046169,10.611524 C 14.046169,10.611524 13.852153,9.8507179 13.599481,9.0872159 C 13.346811,8.3237139 12.389144,7.7640279 12.172568,7.7467735 z "
         style="opacity:0.5;fill:url(#linearGradient3222);fill-opacity:1;stroke:none;stroke-width:1;stroke-miterlimit:4;stroke-opacity:1" />
      <rect
         y="3.5"
         x="1.5"
         height="9.000001"
         width="13"
         id="rect3219"
         style="opacity:0.5;fill:none;fill-opacity:1;stroke:#eeeeec;stroke-width:1.05893755;stroke-miterlimit:4;stroke-dasharray:none;stroke-opacity:1" />
    </g>
    <g
       id="g3411"
       transform="matrix(0.6875,0,0,0.6875,-24.531251,-13.472592)">
      <path
         inkscape:export-ydpi="33"
         inkscape:export-xdpi="33"
         inkscape:export-filename="/home/lse/public_html/Bambus/System/Applications/ATPLEditor.bap/Icon.png"
         sodipodi:nodetypes="csszccczzzccssszsssczz"
         id="rect1315"
         d="M 76.761235,50.197093 C 78.844913,50.125432 81.500001,52.484364 81.500001,55.196605 C 81.500003,57.908845 79.449169,61.124901 76.518776,60.116506 C 75.219053,59.669249 75.796471,60.004458 73.004415,58.682177 C 70.233886,57.370091 70.452685,61.94474 70.452685,65.267748 L 50.5889,65.267748 L 50.500001,58.237717 C 50.500001,58.237717 52.954365,59.623375 54.976991,59.666437 C 56.999617,59.709499 58.933244,58.510874 58.995588,55.527496 C 59.057931,52.544117 58.118593,51.03842 55.117287,50.829125 C 52.204455,50.625999 50.5889,52.866347 50.5889,52.866347 L 50.5889,45.387651 C 50.5889,45.387651 53.742955,45.610387 55.554847,45.387651 C 57.352872,45.166616 57.558091,43.53425 56.654994,42.642375 C 55.751899,41.750501 55.188131,40.528348 55.188131,39.172225 C 55.188131,36.585795 57.338788,34.269581 59.978358,34.267748 C 62.60861,34.265922 65.150583,36.459984 65.150583,39.172225 C 65.150581,40.528348 64.090942,41.419291 63.683719,42.642375 C 63.276495,43.865459 64.253056,45.257916 65.486738,45.387651 C 66.70704,45.515977 70.452685,45.387651 70.452685,45.387651 C 70.177198,48.174475 70.355833,51.031821 71.655057,52.000441 C 72.924699,52.947007 74.652017,50.269634 76.761235,50.197093 z "
         style="color:#000000;fill:#edd400;fill-opacity:1;fill-rule:nonzero;stroke:#c4a000;stroke-width:1.4545455;stroke-linecap:round;stroke-linejoin:round;marker:none;marker-start:none;marker-mid:none;marker-end:none;stroke-miterlimit:4;stroke-dasharray:none;stroke-dashoffset:0;stroke-opacity:1;visibility:visible;display:inline;overflow:visible" />
      <path
         inkscape:export-ydpi="33"
         inkscape:export-xdpi="33"
         inkscape:export-filename="/home/lse/public_html/Bambus/System/Applications/ATPLEditor.bap/Icon.png"
         sodipodi:nodetypes="csszccczzzccssszsssczz"
         id="path3359"
         d="M 76.761235,50.197093 C 78.844913,50.125432 81.500001,52.484364 81.500001,55.196605 C 81.500003,57.908845 79.449169,61.124901 76.518776,60.116506 C 75.219053,59.669249 75.796471,60.004458 73.004415,58.682177 C 70.233886,57.370091 70.452685,61.94474 70.452685,65.267748 L 50.5889,65.267748 L 50.500001,58.237717 C 50.500001,58.237717 52.954365,59.623375 54.976991,59.666437 C 56.999617,59.709499 58.933244,58.510874 58.995588,55.527496 C 59.057931,52.544117 58.118593,51.03842 55.117287,50.829125 C 52.204455,50.625999 50.5889,52.866347 50.5889,52.866347 L 50.5889,45.387651 C 50.5889,45.387651 53.742955,45.610387 55.554847,45.387651 C 57.352872,45.166616 57.558091,43.53425 56.654994,42.642375 C 55.751899,41.750501 55.188131,40.528348 55.188131,39.172225 C 55.188131,36.585795 57.338788,34.269581 59.978358,34.267748 C 62.60861,34.265922 65.150583,36.459984 65.150583,39.172225 C 65.150581,40.528348 64.090942,41.419291 63.683719,42.642375 C 63.276495,43.865459 64.253056,45.257916 65.486738,45.387651 C 66.70704,45.515977 70.452685,45.387651 70.452685,45.387651 C 70.177198,48.174475 70.355833,51.031821 71.655057,52.000441 C 72.924699,52.947007 74.652017,50.269634 76.761235,50.197093 z "
         style="opacity:0.7;color:#000000;fill:url(#linearGradient3416);fill-opacity:1;fill-rule:nonzero;stroke:#c4a000;stroke-width:1.4545455;stroke-linecap:round;stroke-linejoin:round;marker:none;marker-start:none;marker-mid:none;marker-end:none;stroke-miterlimit:4;stroke-dasharray:none;stroke-dashoffset:0;stroke-opacity:1;visibility:visible;display:inline;overflow:visible" />
      <path
         inkscape:export-ydpi="33"
         inkscape:export-xdpi="33"
         inkscape:export-filename="/home/lse/public_html/Bambus/System/Applications/ATPLEditor.bap/Icon.png"
         sodipodi:nodetypes="csszccczzzccssszsssczz"
         id="path3357"
         d="M 75.786213,51.979758 C 77.086348,50.925777 80.003359,52.480357 80.003359,55.192597 C 80.003361,57.904838 78.839682,59.397558 75.909289,58.389164 C 74.609566,57.941907 73.052865,56.603824 71.115693,57.175143 C 69.240807,57.728091 69.061837,60.590669 69.061837,63.913678 L 51.975426,63.915118 L 51.887619,60.511504 C 51.887619,60.511504 55.329851,61.392084 56.879247,60.904411 C 58.480118,60.400537 60.432621,58.005826 60.432621,55.527496 C 60.432621,52.998659 59.79267,50.380245 56.843945,49.587142 C 53.881733,48.790412 52.026568,50.112648 52.026568,50.112648 L 51.971105,46.906389 C 51.971105,46.906389 55.539103,47.392557 57.083621,46.410768 C 58.934227,45.234411 58.788489,44.379733 58.516368,43.010198 C 58.26792,41.759808 56.625166,40.534109 56.625166,39.177986 C 56.625166,36.591556 58.995939,35.683463 60.028866,35.776223 C 61.16196,35.877978 63.713559,36.514813 63.71355,39.227054 C 63.713547,39.680926 62.653908,41.107603 62.246684,42.330687 C 61.839461,43.553771 62.833099,46.015816 63.969773,46.516914 C 65.449689,47.169327 68.86346,46.74187 68.861247,46.737401 C 68.585761,49.524225 69.302077,52.18526 70.815255,53.18872 C 72.242639,54.135285 74.518293,53.007622 75.786213,51.979758 z "
         style="opacity:0.5;color:#000000;fill:none;fill-opacity:1;fill-rule:nonzero;stroke:#eeeeec;stroke-width:1.4545455;stroke-linecap:round;stroke-linejoin:miter;marker:none;marker-start:none;marker-mid:none;marker-end:none;stroke-miterlimit:4;stroke-dasharray:none;stroke-dashoffset:0;stroke-opacity:1;visibility:visible;display:inline;overflow:visible" />
    </g>
  </g>
</svg>
