<?xml version="1.0" encoding="UTF-8" standalone="no"?>
<!-- Created with Inkscape (http://www.inkscape.org/) -->
<svg
   xmlns:dc="http://purl.org/dc/elements/1.1/"
   xmlns:cc="http://web.resource.org/cc/"
   xmlns:rdf="http://www.w3.org/1999/02/22-rdf-syntax-ns#"
   xmlns:svg="http://www.w3.org/2000/svg"
   xmlns="http://www.w3.org/2000/svg"
   xmlns:xlink="http://www.w3.org/1999/xlink"
   xmlns:sodipodi="http://sodipodi.sourceforge.net/DTD/sodipodi-0.dtd"
   xmlns:inkscape="http://www.inkscape.org/namespaces/inkscape"
   width="32"
   height="32"
   id="svg2160"
   sodipodi:version="0.32"
   inkscape:version="0.45"
   sodipodi:docbase="/home/lse/public_html/Bambus/System/Icons/scalable/mimetypes"
   sodipodi:docname="medium-system-template.svg"
   inkscape:output_extension="org.inkscape.output.svg.inkscape"
   version="1.0"
   sodipodi:modified="true">
  <defs
     id="defs2162">
    <linearGradient
       inkscape:collect="always"
       id="linearGradient3361">
      <stop
         style="stop-color:#ffffff;stop-opacity:1;"
         offset="0"
         id="stop3363" />
      <stop
         style="stop-color:#ffffff;stop-opacity:0;"
         offset="1"
         id="stop3365" />
    </linearGradient>
    <linearGradient
       inkscape:collect="always"
       xlink:href="#linearGradient3361"
       id="linearGradient3416"
       gradientUnits="userSpaceOnUse"
       gradientTransform="matrix(2.0821099,0,0,2.1016029,9.6672114,23.60773)"
       x1="23.892857"
       y1="3.0357144"
       x2="23.892857"
       y2="22.194689" />
    <linearGradient
       inkscape:collect="always"
       id="linearGradient3145">
      <stop
         style="stop-color:#ffffff;stop-opacity:1;"
         offset="0"
         id="stop3147" />
      <stop
         style="stop-color:#ffffff;stop-opacity:0;"
         offset="1"
         id="stop3149" />
    </linearGradient>
    <linearGradient
       inkscape:collect="always"
       xlink:href="#linearGradient3145"
       id="linearGradient3151"
       x1="22.857143"
       y1="-1.7857143"
       x2="22.857143"
       y2="49.583546"
       gradientUnits="userSpaceOnUse"
       gradientTransform="matrix(0.6653658,0,0,0.6595745,-4.4902432,0.1702127)" />
    <linearGradient
       gradientTransform="matrix(0.2972547,0,0,0.2800989,0.8496468,0.9649748)"
       gradientUnits="userSpaceOnUse"
       y2="48.035389"
       x2="19.363636"
       y1="3.1818182"
       x1="19.363636"
       id="linearGradient3243"
       xlink:href="#linearGradient3237"
       inkscape:collect="always" />
    <linearGradient
       y2="54.557911"
       x2="29.443182"
       y1="25.639603"
       x1="29.443182"
       gradientTransform="matrix(0.1985271,0,0,0.1897971,1.594795,2.2604501)"
       gradientUnits="userSpaceOnUse"
       id="linearGradient3222"
       xlink:href="#linearGradient2891"
       inkscape:collect="always" />
    <linearGradient
       y2="30.909092"
       x2="11.636364"
       y1="9.454546"
       x1="11.636364"
       gradientUnits="userSpaceOnUse"
       id="linearGradient2243"
       xlink:href="#linearGradient2850"
       inkscape:collect="always" />
    <linearGradient
       gradientUnits="userSpaceOnUse"
       y2="30.909092"
       x2="11.636364"
       y1="9.454546"
       x1="11.636364"
       id="linearGradient2856"
       xlink:href="#linearGradient2850"
       inkscape:collect="always" />
    <linearGradient
       gradientUnits="userSpaceOnUse"
       y2="63.782219"
       x2="28.363636"
       y1="5.0909095"
       x1="28.363636"
       id="linearGradient2837"
       xlink:href="#linearGradient2831"
       inkscape:collect="always" />
    <linearGradient
       id="linearGradient2831"
       inkscape:collect="always">
      <stop
         id="stop2833"
         offset="0"
         style="stop-color:white;stop-opacity:1;" />
      <stop
         id="stop2835"
         offset="1"
         style="stop-color:white;stop-opacity:0;" />
    </linearGradient>
    <linearGradient
       id="linearGradient2850"
       inkscape:collect="always">
      <stop
         id="stop2852"
         offset="0"
         style="stop-color:white;stop-opacity:1;" />
      <stop
         id="stop2854"
         offset="1"
         style="stop-color:white;stop-opacity:0;" />
    </linearGradient>
    <linearGradient
       id="linearGradient2891"
       inkscape:collect="always">
      <stop
         id="stop2893"
         offset="0"
         style="stop-color:white;stop-opacity:1;" />
      <stop
         id="stop2895"
         offset="1"
         style="stop-color:white;stop-opacity:0;" />
    </linearGradient>
    <linearGradient
       id="linearGradient3237"
       inkscape:collect="always">
      <stop
         id="stop3239"
         offset="0"
         style="stop-color:#eeeeec;stop-opacity:1;" />
      <stop
         id="stop3241"
         offset="1"
         style="stop-color:#eeeeec;stop-opacity:0;" />
    </linearGradient>
    <linearGradient
       inkscape:collect="always"
       xlink:href="#linearGradient3361"
       id="linearGradient2401"
       gradientUnits="userSpaceOnUse"
       gradientTransform="matrix(1.4314506,0,0,1.444852,-17.885043,2.7577224)"
       x1="23.892857"
       y1="3.0357144"
       x2="23.892857"
       y2="22.194689" />
  </defs>
  <sodipodi:namedview
     id="base"
     pagecolor="#ffffff"
     bordercolor="#666666"
     borderopacity="1.0"
     inkscape:pageopacity="0.0"
     inkscape:pageshadow="2"
     inkscape:zoom="19.79899"
     inkscape:cx="33.223885"
     inkscape:cy="2.5012199"
     inkscape:current-layer="layer1"
     showgrid="true"
     inkscape:grid-bbox="true"
     inkscape:document-units="px"
     inkscape:window-width="1272"
     inkscape:window-height="945"
     inkscape:window-x="0"
     inkscape:window-y="24"
     width="32px"
     height="32px" />
  <metadata
     id="metadata2165">
    <rdf:RDF>
      <cc:Work
         rdf:about="">
        <dc:format>image/svg+xml</dc:format>
        <dc:type
           rdf:resource="http://purl.org/dc/dcmitype/StillImage" />
      </cc:Work>
    </rdf:RDF>
  </metadata>
  <g
     id="layer1"
     inkscape:label="Layer 1"
     inkscape:groupmode="layer">
    <rect
       style="opacity:1;color:#000000;fill:#eeeeec;fill-opacity:1;fill-rule:nonzero;stroke:#babdb6;stroke-width:0.99999994;stroke-linecap:square;stroke-linejoin:miter;marker:none;marker-start:none;marker-mid:none;marker-end:none;stroke-miterlimit:4;stroke-dasharray:none;stroke-dashoffset:0;stroke-opacity:1;visibility:visible;display:inline;overflow:visible;enable-background:accumulate"
       id="rect2168"
       width="22"
       height="31.000002"
       x="0.5"
       y="0.49999997" />
    <rect
       style="opacity:0.7;color:#000000;fill:url(#linearGradient3151);fill-opacity:1;fill-rule:nonzero;stroke:#babdb6;stroke-width:0.99999994;stroke-linecap:square;stroke-linejoin:miter;marker:none;marker-start:none;marker-mid:none;marker-end:none;stroke-miterlimit:4;stroke-dasharray:none;stroke-dashoffset:0;stroke-opacity:1;visibility:visible;display:inline;overflow:visible;enable-background:accumulate"
       id="rect3143"
       width="22"
       height="31.000002"
       x="0.5"
       y="0.49999997" />
    <rect
       style="opacity:1;color:#000000;fill:none;fill-opacity:1;fill-rule:nonzero;stroke:#ffffff;stroke-width:0.99999994;stroke-linecap:square;stroke-linejoin:miter;marker:none;marker-start:none;marker-mid:none;marker-end:none;stroke-miterlimit:4;stroke-dasharray:none;stroke-dashoffset:0;stroke-opacity:1;visibility:visible;display:inline;overflow:visible;enable-background:accumulate"
       id="rect3141"
       width="20"
       height="29.000002"
       x="1.5"
       y="1.5" />
    <rect
       style="opacity:0.7;color:#000000;fill:#888a85;fill-opacity:1;fill-rule:nonzero;stroke:none;stroke-width:1;stroke-linecap:square;stroke-linejoin:miter;marker:none;marker-start:none;marker-mid:none;marker-end:none;stroke-miterlimit:4;stroke-dasharray:none;stroke-dashoffset:0;stroke-opacity:1;visibility:visible;display:inline;overflow:visible;enable-background:accumulate"
       id="rect3153"
       width="14.444878"
       height="1"
       x="6.068264"
       y="3" />
    <rect
       style="opacity:0.7;color:#000000;fill:#888a85;fill-opacity:1;fill-rule:nonzero;stroke:none;stroke-width:1;stroke-linecap:square;stroke-linejoin:miter;marker:none;marker-start:none;marker-mid:none;marker-end:none;stroke-miterlimit:4;stroke-dasharray:none;stroke-dashoffset:0;stroke-opacity:1;visibility:visible;display:inline;overflow:visible;enable-background:accumulate"
       id="rect3163"
       width="14.444878"
       height="1.0425529"
       x="6.0505075"
       y="24.957447" />
    <rect
       style="opacity:0.7;color:#000000;fill:#888a85;fill-opacity:1;fill-rule:nonzero;stroke:none;stroke-width:1;stroke-linecap:square;stroke-linejoin:miter;marker:none;marker-start:none;marker-mid:none;marker-end:none;stroke-miterlimit:4;stroke-dasharray:none;stroke-dashoffset:0;stroke-opacity:1;visibility:visible;display:inline;overflow:visible;enable-background:accumulate"
       id="rect3177"
       width="14.444878"
       height="1.0212765"
       x="6.068264"
       y="4.9787235" />
    <rect
       style="opacity:0.7;color:#000000;fill:#888a85;fill-opacity:1;fill-rule:nonzero;stroke:none;stroke-width:1;stroke-linecap:square;stroke-linejoin:miter;marker:none;marker-start:none;marker-mid:none;marker-end:none;stroke-miterlimit:4;stroke-dasharray:none;stroke-dashoffset:0;stroke-opacity:1;visibility:visible;display:inline;overflow:visible;enable-background:accumulate"
       id="rect3179"
       width="8.0918341"
       height="1.0490913"
       x="6.068264"
       y="6.9509087" />
    <rect
       style="opacity:0.7;color:#000000;fill:#888a85;fill-opacity:1;fill-rule:nonzero;stroke:none;stroke-width:1;stroke-linecap:square;stroke-linejoin:miter;marker:none;marker-start:none;marker-mid:none;marker-end:none;stroke-miterlimit:4;stroke-dasharray:none;stroke-dashoffset:0;stroke-opacity:1;visibility:visible;display:inline;overflow:visible;enable-background:accumulate"
       id="rect3185"
       width="14.444878"
       height="1.0212765"
       x="6.0505075"
       y="22.978724" />
    <rect
       style="opacity:0.7;color:#000000;fill:#888a85;fill-opacity:1;fill-rule:nonzero;stroke:none;stroke-width:1;stroke-linecap:square;stroke-linejoin:miter;marker:none;marker-start:none;marker-mid:none;marker-end:none;stroke-miterlimit:4;stroke-dasharray:none;stroke-dashoffset:0;stroke-opacity:1;visibility:visible;display:inline;overflow:visible;enable-background:accumulate"
       id="rect3187"
       width="8.0918341"
       height="1.0638294"
       x="6.0505075"
       y="26.936171" />
    <g
       inkscape:label="Layer 1"
       id="g2225"
       transform="matrix(0.9350763,0,0,0.9537013,6.038779,8.0925972)">
      <rect
         y="2.5"
         x="0.45852941"
         height="11"
         width="15.041471"
         id="rect1940"
         style="fill:#c17d11;fill-opacity:1;stroke:#8f5902;stroke-width:1.05893755;stroke-miterlimit:4;stroke-dasharray:none;stroke-opacity:1" />
      <rect
         y="3.8950253"
         x="1.8781923"
         height="7.8647413"
         width="12.211135"
         id="rect2839"
         style="fill:#888a85;fill-opacity:1;stroke:#555753;stroke-width:0.98256767;stroke-miterlimit:4;stroke-dasharray:none;stroke-opacity:1" />
      <path
         sodipodi:nodetypes="cszscccc"
         id="path2886"
         d="M 1.9196577,10.611524 C 1.9196577,10.611524 2.6100803,10.580259 2.6100803,10.580259 C 3.7779704,8.8709489 4.1396713,10.109722 4.3741748,10.128405 C 4.5907497,10.145659 5.8721521,8.8084509 6.1248233,9.5719529 C 6.3774936,10.335456 14.04786,10.611524 14.04786,10.611524 L 14.04786,11.819324 L 1.9196577,11.819324 L 1.9196577,10.611524 z "
         style="fill:#000000;fill-opacity:1;stroke:none;stroke-width:1;stroke-miterlimit:4;stroke-opacity:1" />
      <rect
         y="3.8950253"
         x="1.8781927"
         height="7.8647413"
         width="12.211135"
         id="rect3235"
         style="opacity:0.7;fill:url(#linearGradient3243);fill-opacity:1;stroke:#d3d7cf;stroke-width:0.98256767;stroke-miterlimit:4;stroke-dasharray:none;stroke-opacity:1" />
      <path
         sodipodi:nodetypes="ccscsccccsc"
         id="rect2843"
         d="M 12.17257,7.7467674 C 11.972076,7.7310367 11.656508,8.1975889 10.627779,9.6627259 C 10.315015,9.4462249 9.9802804,9.3174369 9.827467,9.3472949 C 9.6130305,9.3891939 8.1010211,9.9932149 7.3831019,10.708326 C 7.0820013,10.892657 5.7068412,10.725242 4.9511445,10.737533 C 2.9105789,10.770721 1.9174017,10.568134 1.9174017,10.568134 L 1.9174017,11.759767 L 14.046169,11.759767 L 14.046169,10.568134 C 14.046169,10.568134 13.852153,9.8188499 13.599483,9.0669099 C 13.346812,8.3149709 12.389144,7.7637611 12.17257,7.7467674 z "
         style="fill:#2e3436;fill-opacity:1;stroke:#000000;stroke-width:0.98256767;stroke-miterlimit:4;stroke-opacity:1" />
      <g
         transform="matrix(0.1985271,0,0,0.1897971,1.7121067,2.2604501)"
         id="g2858">
        <path
           sodipodi:type="arc"
           style="opacity:1;fill:#d3d7cf;fill-opacity:1;stroke:#babdb6;stroke-width:5.0618329;stroke-miterlimit:4;stroke-dasharray:none;stroke-opacity:1"
           id="path2846"
           sodipodi:cx="11.636364"
           sodipodi:cy="19.454546"
           sodipodi:rx="7.2727275"
           sodipodi:ry="7.2727275"
           d="M 18.909091 19.454546 A 7.2727275 7.2727275 0 1 1  4.3636365,19.454546 A 7.2727275 7.2727275 0 1 1  18.909091 19.454546 z" />
        <path
           sodipodi:type="arc"
           style="opacity:0.7;fill:url(#linearGradient2243);fill-opacity:1;stroke:none;stroke-width:1;stroke-miterlimit:4;stroke-dasharray:none;stroke-opacity:1"
           id="path2848"
           sodipodi:cx="11.636364"
           sodipodi:cy="19.454546"
           sodipodi:rx="7.2727275"
           sodipodi:ry="7.2727275"
           d="M 18.909091 19.454546 A 7.2727275 7.2727275 0 1 1  4.3636365,19.454546 A 7.2727275 7.2727275 0 1 1  18.909091 19.454546 z" />
      </g>
      <path
         sodipodi:nodetypes="ccscsccccsc"
         id="path2889"
         d="M 12.172568,7.7467735 C 11.972076,7.7308006 11.656507,8.2045279 10.62778,9.6921939 C 10.315014,9.4723629 9.9802798,9.3415939 9.8274657,9.3719119 C 9.6130299,9.4144549 8.1010199,10.027764 7.3831022,10.753872 C 7.0820004,10.941037 5.7068412,10.771048 4.9511443,10.783527 C 2.9105788,10.817226 1.9174017,10.611524 1.9174017,10.611524 L 1.9174017,11.821481 L 14.046169,11.821481 L 14.046169,10.611524 C 14.046169,10.611524 13.852153,9.8507179 13.599481,9.0872159 C 13.346811,8.3237139 12.389144,7.7640279 12.172568,7.7467735 z "
         style="opacity:0.5;fill:url(#linearGradient3222);fill-opacity:1;stroke:none;stroke-width:1;stroke-miterlimit:4;stroke-opacity:1" />
      <rect
         y="3.5"
         x="1.5"
         height="9.000001"
         width="13"
         id="rect3219"
         style="opacity:0.5;fill:none;fill-opacity:1;stroke:#eeeeec;stroke-width:1.05893755;stroke-miterlimit:4;stroke-dasharray:none;stroke-opacity:1" />
    </g>
    <path
       style="color:#000000;fill:#75507b;fill-opacity:1;fill-rule:nonzero;stroke:#5c3566;stroke-width:1;stroke-linecap:round;stroke-linejoin:round;marker:none;marker-start:none;marker-mid:none;marker-end:none;stroke-miterlimit:4;stroke-dasharray:none;stroke-dashoffset:0;stroke-opacity:1;visibility:visible;display:inline;overflow:visible"
       d="M 28.242098,21.037909 C 29.674627,20.988643 31.5,22.610408 31.5,24.475074 C 31.500001,26.339739 30.090053,28.550777 28.075408,27.857506 C 27.181848,27.550017 27.578823,27.780473 25.659284,26.871405 C 23.754546,25.969346 23.90497,29.114417 23.90497,31.398985 L 10.248618,31.398985 L 10.1875,26.565838 C 10.1875,26.565838 11.874875,27.518478 13.26543,27.548083 C 14.655986,27.577689 15.985354,26.753634 16.028216,24.702561 C 16.071077,22.651488 15.425282,21.616322 13.361884,21.472431 C 11.359312,21.332782 10.248618,22.873022 10.248618,22.873022 L 10.248618,17.731418 C 10.248618,17.731418 12.417031,17.884549 13.662706,17.731418 C 14.898848,17.579456 15.039937,16.457205 14.419057,15.844041 C 13.79818,15.230877 13.410589,14.390647 13.410589,13.458313 C 13.410589,11.680142 14.889166,10.087745 16.70387,10.086485 C 18.512168,10.085229 20.259775,11.593647 20.259775,13.458313 C 20.259773,14.390647 19.531272,15.003171 19.251306,15.844041 C 18.971339,16.684911 19.642725,17.642225 20.490881,17.731418 C 21.329839,17.819642 23.90497,17.731418 23.90497,17.731418 C 23.715573,19.64736 23.838384,21.611785 24.731601,22.277711 C 25.60448,22.928475 26.792011,21.087781 28.242098,21.037909 z "
       id="rect1315"
       sodipodi:nodetypes="csszccczzzccssszsssczz"
       inkscape:export-filename="/home/lse/public_html/Bambus/System/Applications/ATPLEditor.bap/Icon.png"
       inkscape:export-xdpi="33"
       inkscape:export-ydpi="33" />
    <path
       style="opacity:0.7;color:#000000;fill:url(#linearGradient2401);fill-opacity:1;fill-rule:nonzero;stroke:#5c3566;stroke-width:1;stroke-linecap:round;stroke-linejoin:round;marker:none;marker-start:none;marker-mid:none;marker-end:none;stroke-miterlimit:4;stroke-dasharray:none;stroke-dashoffset:0;stroke-opacity:1;visibility:visible;display:inline;overflow:visible"
       d="M 28.242098,21.037909 C 29.674627,20.988643 31.5,22.610408 31.5,24.475074 C 31.500001,26.339739 30.090053,28.550777 28.075408,27.857506 C 27.181848,27.550017 27.578823,27.780473 25.659284,26.871405 C 23.754546,25.969346 23.90497,29.114417 23.90497,31.398985 L 10.248618,31.398985 L 10.1875,26.565838 C 10.1875,26.565838 11.874875,27.518478 13.26543,27.548083 C 14.655986,27.577689 15.985354,26.753634 16.028216,24.702561 C 16.071077,22.651488 15.425282,21.616322 13.361884,21.472431 C 11.359312,21.332782 10.248618,22.873022 10.248618,22.873022 L 10.248618,17.731418 C 10.248618,17.731418 12.417031,17.884549 13.662706,17.731418 C 14.898848,17.579456 15.039937,16.457205 14.419057,15.844041 C 13.79818,15.230877 13.410589,14.390647 13.410589,13.458313 C 13.410589,11.680142 14.889166,10.087745 16.70387,10.086485 C 18.512168,10.085229 20.259775,11.593647 20.259775,13.458313 C 20.259773,14.390647 19.531272,15.003171 19.251306,15.844041 C 18.971339,16.684911 19.642725,17.642225 20.490881,17.731418 C 21.329839,17.819642 23.90497,17.731418 23.90497,17.731418 C 23.715573,19.64736 23.838384,21.611785 24.731601,22.277711 C 25.60448,22.928475 26.792011,21.087781 28.242098,21.037909 z "
       id="path3359"
       sodipodi:nodetypes="csszccczzzccssszsssczz"
       inkscape:export-filename="/home/lse/public_html/Bambus/System/Applications/ATPLEditor.bap/Icon.png"
       inkscape:export-xdpi="33"
       inkscape:export-ydpi="33" />
    <path
       style="opacity:0.5;color:#000000;fill:none;fill-opacity:1;fill-rule:nonzero;stroke:#eeeeec;stroke-width:1;stroke-linecap:round;stroke-linejoin:miter;marker:none;marker-start:none;marker-mid:none;marker-end:none;stroke-miterlimit:4;stroke-dasharray:none;stroke-dashoffset:0;stroke-opacity:1;visibility:visible;display:inline;overflow:visible"
       d="M 27.57177,22.263492 C 28.465613,21.53888 30.471058,22.607653 30.471058,24.472318 C 30.47106,26.336984 29.67103,27.363229 27.656385,26.669958 C 26.762826,26.362469 25.692594,25.442537 24.360788,25.835319 C 23.071804,26.215471 22.948762,28.183493 22.948762,30.468062 L 11.201854,30.469052 L 11.141487,28.129067 C 11.141487,28.129067 13.508022,28.734466 14.573231,28.399191 C 15.67383,28.052777 17.016176,26.406413 17.016176,24.702561 C 17.016176,22.963986 16.57621,21.163826 14.548961,20.618568 C 12.51244,20.070816 11.237014,20.979854 11.237014,20.979854 L 11.198884,18.77555 C 11.198884,18.77555 13.651882,19.109791 14.713738,18.434811 C 15.98603,17.626066 15.885835,17.038474 15.698752,16.096919 C 15.527944,15.237276 14.398551,14.394608 14.398551,13.462273 C 14.398551,11.684103 16.028457,11.059789 16.738594,11.123561 C 17.517596,11.193518 19.271821,11.631342 19.271815,13.496008 C 19.271813,13.808045 18.543311,14.788885 18.263344,15.629755 C 17.983378,16.470626 18.666505,18.163282 19.447968,18.507786 C 20.46541,18.95632 22.812378,18.662444 22.810856,18.659371 C 22.62146,20.575313 23.113927,22.404774 24.154237,23.094653 C 25.135563,23.745416 26.700075,22.970148 27.57177,22.263492 z "
       id="path3357"
       sodipodi:nodetypes="csszccczzzccssszsssczz"
       inkscape:export-filename="/home/lse/public_html/Bambus/System/Applications/ATPLEditor.bap/Icon.png"
       inkscape:export-xdpi="33"
       inkscape:export-ydpi="33" />
  </g>
</svg>
