<?xml version="1.0" encoding="UTF-8" standalone="no"?>
<!-- Created with Inkscape (http://www.inkscape.org/) -->
<svg
   xmlns:dc="http://purl.org/dc/elements/1.1/"
   xmlns:cc="http://web.resource.org/cc/"
   xmlns:rdf="http://www.w3.org/1999/02/22-rdf-syntax-ns#"
   xmlns:svg="http://www.w3.org/2000/svg"
   xmlns="http://www.w3.org/2000/svg"
   xmlns:xlink="http://www.w3.org/1999/xlink"
   xmlns:sodipodi="http://sodipodi.sourceforge.net/DTD/sodipodi-0.dtd"
   xmlns:inkscape="http://www.inkscape.org/namespaces/inkscape"
   width="32"
   height="32"
   id="svg2160"
   sodipodi:version="0.32"
   inkscape:version="0.45"
   sodipodi:docbase="/home/lse/public_html/Bambus/System/Icons/0.12/scalable/mimetypes"
   sodipodi:docname="medium-txt.svg"
   inkscape:output_extension="org.inkscape.output.svg.inkscape"
   version="1.0"
   sodipodi:modified="true">
  <defs
     id="defs2162">
    <linearGradient
       inkscape:collect="always"
       id="linearGradient3145">
      <stop
         style="stop-color:#ffffff;stop-opacity:1;"
         offset="0"
         id="stop3147" />
      <stop
         style="stop-color:#ffffff;stop-opacity:0;"
         offset="1"
         id="stop3149" />
    </linearGradient>
    <linearGradient
       inkscape:collect="always"
       xlink:href="#linearGradient3145"
       id="linearGradient3151"
       x1="22.857143"
       y1="-1.7857143"
       x2="22.857143"
       y2="49.583546"
       gradientUnits="userSpaceOnUse"
       gradientTransform="matrix(0.6653658,0,0,0.6595745,-4.4902432,0.1702127)" />
    <linearGradient
       gradientUnits="userSpaceOnUse"
       y2="24.317999"
       x2="9.3852358"
       y1="-2.1059129"
       x1="9.3852358"
       id="linearGradient3244"
       xlink:href="#linearGradient3238"
       inkscape:collect="always" />
    <linearGradient
       y2="53.142662"
       x2="23.913065"
       y1="-2.9116881"
       x1="23.913065"
       gradientUnits="userSpaceOnUse"
       id="linearGradient3374"
       xlink:href="#linearGradient3338"
       inkscape:collect="always" />
    <linearGradient
       y2="70.173874"
       x2="31.369827"
       y1="-1.8252131"
       x1="31.369827"
       gradientUnits="userSpaceOnUse"
       id="linearGradient3371"
       xlink:href="#linearGradient3338"
       inkscape:collect="always" />
    <linearGradient
       y2="43.818436"
       x2="-37.81818"
       y1="-29.636364"
       x1="-37.81818"
       gradientUnits="userSpaceOnUse"
       id="linearGradient3369"
       xlink:href="#linearGradient3353"
       inkscape:collect="always" />
    <linearGradient
       gradientUnits="userSpaceOnUse"
       y2="43.818436"
       x2="-37.81818"
       y1="-29.636364"
       x1="-37.81818"
       id="linearGradient3359"
       xlink:href="#linearGradient3353"
       inkscape:collect="always" />
    <linearGradient
       gradientTransform="translate(-69.62876,-26)"
       y2="70.173874"
       x2="31.369827"
       y1="-1.8252131"
       x1="31.369827"
       gradientUnits="userSpaceOnUse"
       id="linearGradient3348"
       xlink:href="#linearGradient3338"
       inkscape:collect="always" />
    <linearGradient
       gradientUnits="userSpaceOnUse"
       y2="70.173874"
       x2="31.369827"
       y1="-1.8252131"
       x1="31.369827"
       id="linearGradient3344"
       xlink:href="#linearGradient3338"
       inkscape:collect="always" />
    <linearGradient
       gradientTransform="translate(-38.25985,-23.27024)"
       gradientUnits="userSpaceOnUse"
       y2="70.658356"
       x2="30.298485"
       y1="-0.73729056"
       x1="30.298485"
       id="linearGradient2776"
       xlink:href="#linearGradient2770"
       inkscape:collect="always" />
    <linearGradient
       gradientTransform="translate(-0.6,1.414214)"
       gradientUnits="userSpaceOnUse"
       y2="43.140842"
       x2="51.484303"
       y1="0.84300065"
       x1="0.59999996"
       id="linearGradient2878"
       xlink:href="#linearGradient2872"
       inkscape:collect="always" />
    <linearGradient
       id="linearGradient2872"
       inkscape:collect="always">
      <stop
         id="stop2874"
         offset="0"
         style="stop-color:white;stop-opacity:1;" />
      <stop
         id="stop2876"
         offset="1"
         style="stop-color:white;stop-opacity:0;" />
    </linearGradient>
    <linearGradient
       id="linearGradient2770"
       inkscape:collect="always">
      <stop
         id="stop2772"
         offset="0"
         style="stop-color:white;stop-opacity:1;" />
      <stop
         id="stop2774"
         offset="1"
         style="stop-color:white;stop-opacity:0;" />
    </linearGradient>
    <linearGradient
       id="linearGradient3338"
       inkscape:collect="always">
      <stop
         id="stop3340"
         offset="0"
         style="stop-color:white;stop-opacity:1;" />
      <stop
         id="stop3342"
         offset="1"
         style="stop-color:white;stop-opacity:0;" />
    </linearGradient>
    <linearGradient
       id="linearGradient3353"
       inkscape:collect="always">
      <stop
         id="stop3355"
         offset="0"
         style="stop-color:white;stop-opacity:1;" />
      <stop
         id="stop3357"
         offset="1"
         style="stop-color:white;stop-opacity:0;" />
    </linearGradient>
    <linearGradient
       id="linearGradient3238"
       inkscape:collect="always">
      <stop
         id="stop3240"
         offset="0"
         style="stop-color:#ffffff;stop-opacity:1;" />
      <stop
         id="stop3242"
         offset="1"
         style="stop-color:#ffffff;stop-opacity:0;" />
    </linearGradient>
    <linearGradient
       gradientUnits="userSpaceOnUse"
       y2="24.317999"
       x2="9.3852358"
       y1="-2.1059129"
       x1="9.3852358"
       id="linearGradient2662"
       xlink:href="#linearGradient3238"
       inkscape:collect="always" />
    <linearGradient
       y2="53.142662"
       x2="23.913065"
       y1="-2.9116881"
       x1="23.913065"
       gradientUnits="userSpaceOnUse"
       id="linearGradient2660"
       xlink:href="#linearGradient3338"
       inkscape:collect="always" />
    <linearGradient
       y2="70.173874"
       x2="31.369827"
       y1="-1.8252131"
       x1="31.369827"
       gradientUnits="userSpaceOnUse"
       id="linearGradient2658"
       xlink:href="#linearGradient3338"
       inkscape:collect="always" />
    <linearGradient
       y2="43.818436"
       x2="-37.81818"
       y1="-29.636364"
       x1="-37.81818"
       gradientUnits="userSpaceOnUse"
       id="linearGradient2656"
       xlink:href="#linearGradient3353"
       inkscape:collect="always" />
    <linearGradient
       gradientUnits="userSpaceOnUse"
       y2="43.818436"
       x2="-37.81818"
       y1="-29.636364"
       x1="-37.81818"
       id="linearGradient2654"
       xlink:href="#linearGradient3353"
       inkscape:collect="always" />
    <linearGradient
       gradientTransform="translate(-69.62876,-26)"
       y2="70.173874"
       x2="31.369827"
       y1="-1.8252131"
       x1="31.369827"
       gradientUnits="userSpaceOnUse"
       id="linearGradient2652"
       xlink:href="#linearGradient3338"
       inkscape:collect="always" />
    <linearGradient
       gradientUnits="userSpaceOnUse"
       y2="70.173874"
       x2="31.369827"
       y1="-1.8252131"
       x1="31.369827"
       id="linearGradient2650"
       xlink:href="#linearGradient3338"
       inkscape:collect="always" />
    <linearGradient
       gradientTransform="translate(-38.25985,-23.27024)"
       gradientUnits="userSpaceOnUse"
       y2="70.658356"
       x2="30.298485"
       y1="-0.73729056"
       x1="30.298485"
       id="linearGradient2648"
       xlink:href="#linearGradient2770"
       inkscape:collect="always" />
    <linearGradient
       gradientTransform="translate(-0.6,1.414214)"
       gradientUnits="userSpaceOnUse"
       y2="43.140842"
       x2="51.484303"
       y1="0.84300065"
       x1="0.59999996"
       id="linearGradient2646"
       xlink:href="#linearGradient2872"
       inkscape:collect="always" />
    <linearGradient
       inkscape:collect="always"
       xlink:href="#linearGradient3238"
       id="linearGradient2669"
       gradientUnits="userSpaceOnUse"
       x1="9.3852358"
       y1="-2.1059129"
       x2="9.3852358"
       y2="24.317999" />
  </defs>
  <sodipodi:namedview
     id="base"
     pagecolor="#ffffff"
     bordercolor="#666666"
     borderopacity="1.0"
     inkscape:pageopacity="0.0"
     inkscape:pageshadow="2"
     inkscape:zoom="19.79899"
     inkscape:cx="5.6680603"
     inkscape:cy="17.588769"
     inkscape:current-layer="layer1"
     showgrid="true"
     inkscape:grid-bbox="true"
     inkscape:document-units="px"
     inkscape:window-width="1272"
     inkscape:window-height="945"
     inkscape:window-x="0"
     inkscape:window-y="25"
     width="32px"
     height="32px" />
  <metadata
     id="metadata2165">
    <rdf:RDF>
      <cc:Work
         rdf:about="">
        <dc:format>image/svg+xml</dc:format>
        <dc:type
           rdf:resource="http://purl.org/dc/dcmitype/StillImage" />
      </cc:Work>
    </rdf:RDF>
  </metadata>
  <g
     id="layer1"
     inkscape:label="Layer 1"
     inkscape:groupmode="layer">
    <rect
       style="opacity:1;color:#000000;fill:#eeeeec;fill-opacity:1;fill-rule:nonzero;stroke:#babdb6;stroke-width:0.99999994;stroke-linecap:square;stroke-linejoin:miter;marker:none;marker-start:none;marker-mid:none;marker-end:none;stroke-miterlimit:4;stroke-dasharray:none;stroke-dashoffset:0;stroke-opacity:1;visibility:visible;display:inline;overflow:visible;enable-background:accumulate"
       id="rect2168"
       width="22"
       height="31.000002"
       x="0.5"
       y="0.5" />
    <rect
       style="opacity:0.7;color:#000000;fill:url(#linearGradient3151);fill-opacity:1;fill-rule:nonzero;stroke:#babdb6;stroke-width:0.99999994;stroke-linecap:square;stroke-linejoin:miter;marker:none;marker-start:none;marker-mid:none;marker-end:none;stroke-miterlimit:4;stroke-dasharray:none;stroke-dashoffset:0;stroke-opacity:1;visibility:visible;display:inline;overflow:visible;enable-background:accumulate"
       id="rect3143"
       width="22"
       height="31.000002"
       x="0.5"
       y="0.5" />
    <rect
       style="opacity:1;color:#000000;fill:none;fill-opacity:1;fill-rule:nonzero;stroke:#ffffff;stroke-width:0.99999994;stroke-linecap:square;stroke-linejoin:miter;marker:none;marker-start:none;marker-mid:none;marker-end:none;stroke-miterlimit:4;stroke-dasharray:none;stroke-dashoffset:0;stroke-opacity:1;visibility:visible;display:inline;overflow:visible;enable-background:accumulate"
       id="rect3141"
       width="20"
       height="29.000002"
       x="1.5"
       y="1.5" />
    <rect
       style="opacity:0.7;color:#000000;fill:#888a85;fill-opacity:1;fill-rule:nonzero;stroke:none;stroke-width:1;stroke-linecap:square;stroke-linejoin:miter;marker:none;marker-start:none;marker-mid:none;marker-end:none;stroke-miterlimit:4;stroke-dasharray:none;stroke-dashoffset:0;stroke-opacity:1;visibility:visible;display:inline;overflow:visible;enable-background:accumulate"
       id="rect3153"
       width="14.444878"
       height="1"
       x="6.068264"
       y="3" />
    <rect
       style="opacity:0.7;color:#000000;fill:#888a85;fill-opacity:1;fill-rule:nonzero;stroke:none;stroke-width:1;stroke-linecap:square;stroke-linejoin:miter;marker:none;marker-start:none;marker-mid:none;marker-end:none;stroke-miterlimit:4;stroke-dasharray:none;stroke-dashoffset:0;stroke-opacity:1;visibility:visible;display:inline;overflow:visible;enable-background:accumulate"
       id="rect3155"
       width="14.444878"
       height="1.0278149"
       x="6.068264"
       y="6.9721851" />
    <rect
       style="opacity:0.7;color:#000000;fill:#888a85;fill-opacity:1;fill-rule:nonzero;stroke:none;stroke-width:1;stroke-linecap:square;stroke-linejoin:miter;marker:none;marker-start:none;marker-mid:none;marker-end:none;stroke-miterlimit:4;stroke-dasharray:none;stroke-dashoffset:0;stroke-opacity:1;visibility:visible;display:inline;overflow:visible;enable-background:accumulate"
       id="rect3157"
       width="14.444878"
       height="1"
       x="6.068264"
       y="12" />
    <rect
       style="opacity:0.7;color:#000000;fill:#888a85;fill-opacity:1;fill-rule:nonzero;stroke:none;stroke-width:1;stroke-linecap:square;stroke-linejoin:miter;marker:none;marker-start:none;marker-mid:none;marker-end:none;stroke-miterlimit:4;stroke-dasharray:none;stroke-dashoffset:0;stroke-opacity:1;visibility:visible;display:inline;overflow:visible;enable-background:accumulate"
       id="rect3159"
       width="14.444878"
       height="1.042551"
       x="6.068264"
       y="15.957449" />
    <rect
       style="opacity:0.7;color:#000000;fill:#888a85;fill-opacity:1;fill-rule:nonzero;stroke:none;stroke-width:1;stroke-linecap:square;stroke-linejoin:miter;marker:none;marker-start:none;marker-mid:none;marker-end:none;stroke-miterlimit:4;stroke-dasharray:none;stroke-dashoffset:0;stroke-opacity:1;visibility:visible;display:inline;overflow:visible;enable-background:accumulate"
       id="rect3161"
       width="14.444878"
       height="1"
       x="6.0505075"
       y="21" />
    <rect
       style="opacity:0.7;color:#000000;fill:#888a85;fill-opacity:1;fill-rule:nonzero;stroke:none;stroke-width:1;stroke-linecap:square;stroke-linejoin:miter;marker:none;marker-start:none;marker-mid:none;marker-end:none;stroke-miterlimit:4;stroke-dasharray:none;stroke-dashoffset:0;stroke-opacity:1;visibility:visible;display:inline;overflow:visible;enable-background:accumulate"
       id="rect3163"
       width="14.444878"
       height="1.0425529"
       x="6.0505075"
       y="24.957447" />
    <rect
       style="opacity:0.7;color:#000000;fill:#888a85;fill-opacity:1;fill-rule:nonzero;stroke:none;stroke-width:1;stroke-linecap:square;stroke-linejoin:miter;marker:none;marker-start:none;marker-mid:none;marker-end:none;stroke-miterlimit:4;stroke-dasharray:none;stroke-dashoffset:0;stroke-opacity:1;visibility:visible;display:inline;overflow:visible;enable-background:accumulate"
       id="rect3177"
       width="14.444878"
       height="1.0212765"
       x="6.068264"
       y="4.9787235" />
    <rect
       style="opacity:0.7;color:#000000;fill:#888a85;fill-opacity:1;fill-rule:nonzero;stroke:none;stroke-width:1;stroke-linecap:square;stroke-linejoin:miter;marker:none;marker-start:none;marker-mid:none;marker-end:none;stroke-miterlimit:4;stroke-dasharray:none;stroke-dashoffset:0;stroke-opacity:1;visibility:visible;display:inline;overflow:visible;enable-background:accumulate"
       id="rect3179"
       width="8.0918341"
       height="1.0490913"
       x="6.068264"
       y="8.9509087" />
    <rect
       style="opacity:0.7;color:#000000;fill:#888a85;fill-opacity:1;fill-rule:nonzero;stroke:none;stroke-width:1;stroke-linecap:square;stroke-linejoin:miter;marker:none;marker-start:none;marker-mid:none;marker-end:none;stroke-miterlimit:4;stroke-dasharray:none;stroke-dashoffset:0;stroke-opacity:1;visibility:visible;display:inline;overflow:visible;enable-background:accumulate"
       id="rect3181"
       width="14.444878"
       height="1.0212765"
       x="6.068264"
       y="13.978724" />
    <rect
       style="opacity:0.7;color:#000000;fill:#888a85;fill-opacity:1;fill-rule:nonzero;stroke:none;stroke-width:1;stroke-linecap:square;stroke-linejoin:miter;marker:none;marker-start:none;marker-mid:none;marker-end:none;stroke-miterlimit:4;stroke-dasharray:none;stroke-dashoffset:0;stroke-opacity:1;visibility:visible;display:inline;overflow:visible;enable-background:accumulate"
       id="rect3183"
       width="8.0918341"
       height="1.0638275"
       x="6.068264"
       y="17.936172" />
    <rect
       style="opacity:0.7;color:#000000;fill:#888a85;fill-opacity:1;fill-rule:nonzero;stroke:none;stroke-width:1;stroke-linecap:square;stroke-linejoin:miter;marker:none;marker-start:none;marker-mid:none;marker-end:none;stroke-miterlimit:4;stroke-dasharray:none;stroke-dashoffset:0;stroke-opacity:1;visibility:visible;display:inline;overflow:visible;enable-background:accumulate"
       id="rect3185"
       width="14.444878"
       height="1.0212765"
       x="6.0505075"
       y="22.978724" />
    <rect
       style="opacity:0.7;color:#000000;fill:#888a85;fill-opacity:1;fill-rule:nonzero;stroke:none;stroke-width:1;stroke-linecap:square;stroke-linejoin:miter;marker:none;marker-start:none;marker-mid:none;marker-end:none;stroke-miterlimit:4;stroke-dasharray:none;stroke-dashoffset:0;stroke-opacity:1;visibility:visible;display:inline;overflow:visible;enable-background:accumulate"
       id="rect3187"
       width="8.0918341"
       height="1.0638294"
       x="6.0505075"
       y="26.936171" />
    <path
       style="color:#000000;fill:#3465a4;fill-opacity:1;fill-rule:nonzero;stroke:#204a87;stroke-width:1;stroke-linecap:butt;stroke-linejoin:miter;marker:none;stroke-miterlimit:4;stroke-dasharray:none;stroke-dashoffset:0;stroke-opacity:1;visibility:visible;display:inline;overflow:visible"
       d="M 18.916682,10.5 L 18.916682,10.521291 L 18.895392,14.076983 C 18.408219,14.221985 17.929506,14.412752 17.490148,14.651855 L 17.468857,14.651855 L 14.956451,12.160743 L 14.935159,12.139451 L 12.039506,15.035103 L 12.060798,15.056395 L 14.551911,17.568801 C 14.307061,18.015217 14.103908,18.478255 13.955747,18.974045 L 10.442638,18.995337 L 10.400055,18.995337 L 10.400055,23.083317 L 10.442638,23.083317 L 13.955747,23.104609 C 14.101759,23.598258 14.288466,24.086656 14.530619,24.531144 L 12.060798,27.043549 L 12.039506,27.064841 L 14.935159,29.960495 L 14.956451,29.939203 L 17.468857,27.469381 C 17.913344,27.711535 18.401743,27.898241 18.895392,28.044253 L 18.916682,31.557361 L 18.916682,31.599945 L 23.004664,31.599945 L 23.004664,31.557361 L 23.025956,28.044253 C 23.521746,27.896091 23.984784,27.69294 24.4312,27.448089 L 26.943604,29.939203 L 26.964896,29.960495 L 29.86055,27.064841 L 29.839258,27.043549 L 27.348145,24.531144 L 27.348145,24.509852 C 27.587249,24.070495 27.778016,23.591781 27.923017,23.104609 L 31.478709,23.083317 L 31.5,23.083317 L 31.5,18.995337 L 31.478709,18.995337 L 27.923017,18.974045 C 27.776885,18.487998 27.587701,18.028799 27.348145,17.590092 L 29.839258,15.056395 L 29.86055,15.035103 L 26.964896,12.139451 L 26.943604,12.160743 L 24.409909,14.651855 C 23.971201,14.412299 23.512003,14.223115 23.025956,14.076983 L 23.004664,10.521291 L 23.004664,10.5 L 18.916682,10.5 z M 20.960674,17.717842 C 22.798069,17.717842 24.282159,19.223222 24.282159,21.060618 C 24.282159,22.898013 22.798069,24.382102 20.960674,24.382102 C 19.123279,24.382102 17.617897,22.898013 17.617897,21.060618 C 17.617897,20.945782 17.627715,20.831911 17.639189,20.719954 C 17.811303,19.040599 19.238117,17.717842 20.960674,17.717842 z "
       id="path3296" />
    <path
       style="opacity:0.7;color:#000000;fill:#3465a4;fill-opacity:1;fill-rule:nonzero;stroke:#204a87;stroke-width:1;stroke-linecap:butt;stroke-linejoin:miter;marker:none;stroke-miterlimit:4;stroke-dasharray:none;stroke-dashoffset:0;stroke-opacity:1;visibility:visible;display:inline;overflow:visible"
       d="M 18.916682,10.5 L 18.916682,10.521291 L 18.895392,14.076983 C 18.408219,14.221985 17.929506,14.412752 17.490148,14.651855 L 17.468857,14.651855 L 14.956451,12.160743 L 14.935159,12.139451 L 12.039506,15.035103 L 12.060798,15.056395 L 14.551911,17.568801 C 14.307061,18.015217 14.103908,18.478255 13.955747,18.974045 L 10.442638,18.995337 L 10.400055,18.995337 L 10.400055,23.083317 L 10.442638,23.083317 L 13.955747,23.104609 C 14.101759,23.598258 14.288466,24.086656 14.530619,24.531144 L 12.060798,27.043549 L 12.039506,27.064841 L 14.935159,29.960495 L 14.956451,29.939203 L 17.468857,27.469381 C 17.913344,27.711535 18.401743,27.898241 18.895392,28.044253 L 18.916682,31.557361 L 18.916682,31.599945 L 23.004664,31.599945 L 23.004664,31.557361 L 23.025956,28.044253 C 23.521746,27.896091 23.984784,27.69294 24.4312,27.448089 L 26.943604,29.939203 L 26.964896,29.960495 L 29.86055,27.064841 L 29.839258,27.043549 L 27.348145,24.531144 L 27.348145,24.509852 C 27.587249,24.070495 27.778016,23.591781 27.923017,23.104609 L 31.478709,23.083317 L 31.5,23.083317 L 31.5,18.995337 L 31.478709,18.995337 L 27.923017,18.974045 C 27.776885,18.487998 27.587701,18.028799 27.348145,17.590092 L 29.839258,15.056395 L 29.86055,15.035103 L 26.964896,12.139451 L 26.943604,12.160743 L 24.409909,14.651855 C 23.971201,14.412299 23.512003,14.223115 23.025956,14.076983 L 23.004664,10.521291 L 23.004664,10.5 L 18.916682,10.5 z M 20.960674,17.717842 C 22.798069,17.717842 24.282159,19.223222 24.282159,21.060618 C 24.282159,22.898013 22.798069,24.382102 20.960674,24.382102 C 19.123279,24.382102 17.617897,22.898013 17.617897,21.060618 C 17.617897,20.945782 17.627715,20.831911 17.639189,20.719954 C 17.811303,19.040599 19.238117,17.717842 20.960674,17.717842 z "
       id="path3236" />
    <path
       style="opacity:0.5;color:#000000;fill:none;fill-opacity:1;fill-rule:nonzero;stroke:#eeeeec;stroke-width:1;stroke-linecap:butt;stroke-linejoin:miter;marker:none;stroke-miterlimit:4;stroke-dasharray:none;stroke-dashoffset:0;stroke-opacity:1;visibility:visible;display:inline;overflow:visible"
       d="M 16.628543,20.890286 C 16.663524,18.489182 18.795003,16.65356 20.960674,16.717842 C 23.190627,16.782125 25.318168,18.296254 25.282159,21.060618 C 25.24615,23.824982 23.392498,25.233495 20.960674,25.382102 C 18.52885,25.530709 16.593562,23.29139 16.628543,20.890286 z M 26.126779,24.58478 C 26.365883,24.145423 27.070909,22.527499 27.21591,22.040327 L 30.478709,22.083317 L 30.5,22.083317 L 30.5,19.995337 L 30.478709,19.995337 L 27.087345,20.038327 C 26.941213,19.55228 26.366335,17.771669 26.126779,17.332962 L 28.489327,14.992113 L 28.510619,14.970821 L 26.964896,13.489382 L 26.943604,13.510674 L 24.602757,15.937504 C 24.164049,15.697948 22.512003,14.994504 22.025956,14.848373 L 22.004664,11.5 L 19.916682,11.5 L 19.916682,11.521291 L 19.895392,14.848373 C 19.408219,14.993374 17.672376,15.634118 17.233018,15.873222 L 14.956451,13.510674 L 14.935159,13.489382 L 13.45372,15.035103 L 13.475011,15.056395 L 15.644712,17.247389 C 15.399862,17.693804 14.618168,19.478255 14.470007,19.974045 L 11.442638,19.995337 L 11.400055,19.995337 L 11.400055,22.083317 L 11.442638,22.083317 L 14.791419,22.233174 C 14.937431,22.726823 15.445549,24.150938 15.687703,24.595426 L 13.475011,27.043549 L 13.45372,27.064841 L 14.999442,28.481999 L 15.020734,28.460707 L 17.211727,26.119449 C 17.656215,26.361603 19.401743,27.126852 19.895392,27.272864 L 19.916682,30.557361 L 19.916682,30.599945 L 22.004664,30.599945 L 22.004664,30.557361 L 22.025956,27.208581 C 22.521746,27.060419 24.177631,26.407291 24.624047,26.16244 L 26.943604,28.589272 L 26.964896,28.610564 L 28.510619,27.064841 L 28.489327,27.043549 L 26.126779,24.58478 z "
       id="path3234"
       sodipodi:nodetypes="czzzzcccccccccccccccccccccccccccccccccccccccccccccccc" />
  </g>
</svg>
