<?xml version="1.0" encoding="UTF-8" standalone="no"?>
<!-- Created with Inkscape (http://www.inkscape.org/) -->
<svg
   xmlns:dc="http://purl.org/dc/elements/1.1/"
   xmlns:cc="http://web.resource.org/cc/"
   xmlns:rdf="http://www.w3.org/1999/02/22-rdf-syntax-ns#"
   xmlns:svg="http://www.w3.org/2000/svg"
   xmlns="http://www.w3.org/2000/svg"
   xmlns:xlink="http://www.w3.org/1999/xlink"
   xmlns:sodipodi="http://sodipodi.sourceforge.net/DTD/sodipodi-0.dtd"
   xmlns:inkscape="http://www.inkscape.org/namespaces/inkscape"
   width="32"
   height="32"
   id="svg2"
   sodipodi:version="0.32"
   inkscape:version="0.45"
   version="1.0"
   sodipodi:docbase="/home/lse/public_html/Bambus/System/Icons/scalable/mimetypes"
   sodipodi:docname="medium-administrator.svg"
   inkscape:output_extension="org.inkscape.output.svg.inkscape"
   sodipodi:modified="true">
  <defs
     id="defs4">
    <linearGradient
       inkscape:collect="always"
       id="linearGradient3148">
      <stop
         style="stop-color:#ffffff;stop-opacity:1;"
         offset="0"
         id="stop3150" />
      <stop
         style="stop-color:#ffffff;stop-opacity:0;"
         offset="1"
         id="stop3152" />
    </linearGradient>
    <linearGradient
       inkscape:collect="always"
       xlink:href="#linearGradient3148"
       id="linearGradient3161"
       gradientUnits="userSpaceOnUse"
       x1="20.830189"
       y1="-5.9514823"
       x2="20.830189"
       y2="49.682541" />
  </defs>
  <sodipodi:namedview
     id="base"
     pagecolor="#ffffff"
     bordercolor="#666666"
     borderopacity="1.0"
     inkscape:pageopacity="0.0"
     inkscape:pageshadow="2"
     inkscape:zoom="15.458333"
     inkscape:cx="24"
     inkscape:cy="18.627036"
     inkscape:document-units="px"
     inkscape:current-layer="layer1"
     width="32px"
     height="32px"
     inkscape:window-width="1272"
     inkscape:window-height="949"
     inkscape:window-x="0"
     inkscape:window-y="24" />
  <metadata
     id="metadata7">
    <rdf:RDF>
      <cc:Work
         rdf:about="">
        <dc:format>image/svg+xml</dc:format>
        <dc:type
           rdf:resource="http://purl.org/dc/dcmitype/StillImage" />
      </cc:Work>
    </rdf:RDF>
  </metadata>
  <g
     inkscape:label="Ebene 1"
     inkscape:groupmode="layer"
     id="layer1">
    <g
       id="g3156"
       transform="matrix(0.6537097,0,0,0.6537097,0.3109673,0.4487893)">
      <path
         sodipodi:nodetypes="czcczcccczcczzzzz"
         id="path2160"
         d="M 12.765625,10.406251 C 11.369141,17.71875 12.251895,19.655071 12.765625,22.65625 C 13.283485,25.681558 16.890625,29.65625 16.890625,29.65625 L 16.890625,32.5 C 16.890625,32.5 12.742187,32.5 8.5937498,32.5 C 4.4453128,32.5 0.29687482,40.5 0.29687482,40.5 L 0.29687482,47.5 L 47.703125,47.5 L 47.703125,40.5 C 47.703125,40.5 43.523437,32.5 39.34375,32.5 C 35.164063,32.5 30.984375,32.5 30.984375,32.5 L 30.984375,29.65625 C 30.984375,29.65625 34.466265,26.045569 35.109375,22.65625 C 35.780952,19.116904 36.505859,17.71875 35.109375,10.406251 C 33.712891,3.0937506 31.361253,2.4180236 29.523437,1.4062506 C 27.63471,0.36644938 20.240937,0.3252356 18.351563,1.4062506 C 16.560484,2.4310257 14.162109,3.0937506 12.765625,10.406251 z "
         style="fill:#75507b;fill-rule:evenodd;stroke:#5c3566;stroke-width:1.52973092px;stroke-linecap:butt;stroke-linejoin:miter;stroke-opacity:1" />
      <path
         sodipodi:nodetypes="czcczcccczcczzzzz"
         id="path3146"
         d="M 12.765625,10.406251 C 11.369141,17.71875 12.251895,19.655071 12.765625,22.65625 C 13.283485,25.681558 16.890625,29.65625 16.890625,29.65625 L 16.890625,32.5 C 16.890625,32.5 12.742187,32.5 8.5937498,32.5 C 4.4453128,32.5 0.29687482,40.5 0.29687482,40.5 L 0.29687482,47.5 L 47.703125,47.5 L 47.703125,40.5 C 47.703125,40.5 43.523437,32.5 39.34375,32.5 C 35.164063,32.5 30.984375,32.5 30.984375,32.5 L 30.984375,29.65625 C 30.984375,29.65625 34.466265,26.045569 35.109375,22.65625 C 35.780952,19.116904 36.505859,17.71875 35.109375,10.406251 C 33.712891,3.0937506 31.361253,2.4180236 29.523437,1.4062506 C 27.63471,0.36644938 20.240937,0.3252356 18.351563,1.4062506 C 16.560484,2.4310257 14.162109,3.0937506 12.765625,10.406251 z "
         style="opacity:0.7;fill:url(#linearGradient3161);fill-opacity:1;fill-rule:evenodd;stroke:#5c3566;stroke-width:1.52973092px;stroke-linecap:butt;stroke-linejoin:miter;stroke-opacity:1" />
      <path
         sodipodi:nodetypes="czcczcccczcczzzzz"
         id="path2173"
         d="M 14.161458,10.406251 C 13.32714,14.640431 13.202476,19.236866 14.260417,22.854167 C 15.291667,26.380208 18.286458,28.614288 18.286458,28.614288 L 18.385417,33.994792 C 18.385417,33.994792 13.236979,33.994792 9.0885415,33.994792 C 4.9401045,33.994792 1.7916665,41.245087 1.7916665,41.245087 L 1.8906248,45.90625 L 46.109375,46.005208 L 46.208333,41.245087 C 46.208333,41.245087 43.32552,34.192708 39.145833,34.192708 C 34.966146,34.192708 29.489583,34.192708 29.489583,34.192708 L 29.489583,28.911163 C 29.489583,28.911163 32.088542,25.984375 33.416667,22.557292 C 34.778196,19.044013 34.545276,14.632056 33.515625,10.505209 C 32.455558,6.2564561 31.163336,3.9128153 29.32552,2.9010423 C 27.436793,1.8612411 20.63677,1.9189856 18.747396,3.0000006 C 16.956317,4.0247757 14.9766,6.2693871 14.161458,10.406251 z "
         style="opacity:0.5;fill:none;fill-rule:evenodd;stroke:#eeeeec;stroke-width:1.52973092px;stroke-linecap:butt;stroke-linejoin:miter;stroke-opacity:1" />
    </g>
  </g>
</svg>
