<?xml version="1.0" encoding="UTF-8" standalone="no"?>
<!-- Created with Inkscape (http://www.inkscape.org/) -->
<svg
   xmlns:dc="http://purl.org/dc/elements/1.1/"
   xmlns:cc="http://web.resource.org/cc/"
   xmlns:rdf="http://www.w3.org/1999/02/22-rdf-syntax-ns#"
   xmlns:svg="http://www.w3.org/2000/svg"
   xmlns="http://www.w3.org/2000/svg"
   xmlns:xlink="http://www.w3.org/1999/xlink"
   xmlns:sodipodi="http://sodipodi.sourceforge.net/DTD/sodipodi-0.dtd"
   xmlns:inkscape="http://www.inkscape.org/namespaces/inkscape"
   width="22"
   height="22"
   id="svg2160"
   sodipodi:version="0.32"
   inkscape:version="0.45"
   sodipodi:docbase="/home/lse/public_html/Bambus/System/Icons/0.12/scalable/mimetypes"
   sodipodi:docname="small-txt.svg"
   inkscape:output_extension="org.inkscape.output.svg.inkscape"
   version="1.0"
   sodipodi:modified="true">
  <defs
     id="defs2162">
    <linearGradient
       inkscape:collect="always"
       id="linearGradient3145">
      <stop
         style="stop-color:#ffffff;stop-opacity:1;"
         offset="0"
         id="stop3147" />
      <stop
         style="stop-color:#ffffff;stop-opacity:0;"
         offset="1"
         id="stop3149" />
    </linearGradient>
    <linearGradient
       inkscape:collect="always"
       xlink:href="#linearGradient3145"
       id="linearGradient3151"
       x1="22.857143"
       y1="-1.7857143"
       x2="22.857143"
       y2="49.583546"
       gradientUnits="userSpaceOnUse"
       gradientTransform="matrix(0.4536584,0,0,0.4468085,9.7561687e-2,0.2765958)" />
    <linearGradient
       y2="53.142662"
       x2="23.913065"
       y1="-2.9116881"
       x1="23.913065"
       gradientUnits="userSpaceOnUse"
       id="linearGradient3374"
       xlink:href="#linearGradient3338"
       inkscape:collect="always" />
    <linearGradient
       y2="70.173874"
       x2="31.369827"
       y1="-1.8252131"
       x1="31.369827"
       gradientUnits="userSpaceOnUse"
       id="linearGradient3371"
       xlink:href="#linearGradient3338"
       inkscape:collect="always" />
    <linearGradient
       y2="43.818436"
       x2="-37.81818"
       y1="-29.636364"
       x1="-37.81818"
       gradientUnits="userSpaceOnUse"
       id="linearGradient3369"
       xlink:href="#linearGradient3353"
       inkscape:collect="always" />
    <linearGradient
       gradientUnits="userSpaceOnUse"
       y2="43.818436"
       x2="-37.81818"
       y1="-29.636364"
       x1="-37.81818"
       id="linearGradient3359"
       xlink:href="#linearGradient3353"
       inkscape:collect="always" />
    <linearGradient
       gradientTransform="translate(-69.62876,-26)"
       y2="70.173874"
       x2="31.369827"
       y1="-1.8252131"
       x1="31.369827"
       gradientUnits="userSpaceOnUse"
       id="linearGradient3348"
       xlink:href="#linearGradient3338"
       inkscape:collect="always" />
    <linearGradient
       gradientUnits="userSpaceOnUse"
       y2="70.173874"
       x2="31.369827"
       y1="-1.8252131"
       x1="31.369827"
       id="linearGradient3344"
       xlink:href="#linearGradient3338"
       inkscape:collect="always" />
    <linearGradient
       gradientTransform="translate(-38.25985,-23.27024)"
       gradientUnits="userSpaceOnUse"
       y2="70.658356"
       x2="30.298485"
       y1="-0.73729056"
       x1="30.298485"
       id="linearGradient2776"
       xlink:href="#linearGradient2770"
       inkscape:collect="always" />
    <linearGradient
       gradientTransform="translate(-0.6,1.414214)"
       gradientUnits="userSpaceOnUse"
       y2="43.140842"
       x2="51.484303"
       y1="0.84300065"
       x1="0.59999996"
       id="linearGradient2878"
       xlink:href="#linearGradient2872"
       inkscape:collect="always" />
    <linearGradient
       id="linearGradient2872"
       inkscape:collect="always">
      <stop
         id="stop2874"
         offset="0"
         style="stop-color:white;stop-opacity:1;" />
      <stop
         id="stop2876"
         offset="1"
         style="stop-color:white;stop-opacity:0;" />
    </linearGradient>
    <linearGradient
       id="linearGradient2770"
       inkscape:collect="always">
      <stop
         id="stop2772"
         offset="0"
         style="stop-color:white;stop-opacity:1;" />
      <stop
         id="stop2774"
         offset="1"
         style="stop-color:white;stop-opacity:0;" />
    </linearGradient>
    <linearGradient
       id="linearGradient3338"
       inkscape:collect="always">
      <stop
         id="stop3340"
         offset="0"
         style="stop-color:white;stop-opacity:1;" />
      <stop
         id="stop3342"
         offset="1"
         style="stop-color:white;stop-opacity:0;" />
    </linearGradient>
    <linearGradient
       id="linearGradient3353"
       inkscape:collect="always">
      <stop
         id="stop3355"
         offset="0"
         style="stop-color:white;stop-opacity:1;" />
      <stop
         id="stop3357"
         offset="1"
         style="stop-color:white;stop-opacity:0;" />
    </linearGradient>
    <linearGradient
       gradientUnits="userSpaceOnUse"
       y2="17.889755"
       x2="9.5138006"
       y1="-2.1059129"
       x1="9.3852358"
       id="linearGradient3244"
       xlink:href="#linearGradient3238"
       inkscape:collect="always" />
    <linearGradient
       id="linearGradient3238"
       inkscape:collect="always">
      <stop
         id="stop3240"
         offset="0"
         style="stop-color:#ffffff;stop-opacity:1;" />
      <stop
         id="stop3242"
         offset="1"
         style="stop-color:#ffffff;stop-opacity:0;" />
    </linearGradient>
    <linearGradient
       inkscape:collect="always"
       xlink:href="#linearGradient3145"
       id="linearGradient2768"
       gradientUnits="userSpaceOnUse"
       gradientTransform="matrix(0.4536584,0,0,0.4468085,9.7561687e-2,0.2765958)"
       x1="22.857143"
       y1="-1.7857143"
       x2="22.857143"
       y2="49.583546" />
  </defs>
  <sodipodi:namedview
     id="base"
     pagecolor="#ffffff"
     bordercolor="#666666"
     borderopacity="1.0"
     inkscape:pageopacity="0.0"
     inkscape:pageshadow="2"
     inkscape:zoom="28"
     inkscape:cx="15.550378"
     inkscape:cy="10.394183"
     inkscape:current-layer="layer1"
     showgrid="true"
     inkscape:grid-bbox="true"
     inkscape:document-units="px"
     inkscape:window-width="1272"
     inkscape:window-height="945"
     inkscape:window-x="0"
     inkscape:window-y="25"
     width="22px"
     height="22px" />
  <metadata
     id="metadata2165">
    <rdf:RDF>
      <cc:Work
         rdf:about="">
        <dc:format>image/svg+xml</dc:format>
        <dc:type
           rdf:resource="http://purl.org/dc/dcmitype/StillImage" />
      </cc:Work>
    </rdf:RDF>
  </metadata>
  <g
     id="layer1"
     inkscape:label="Layer 1"
     inkscape:groupmode="layer">
    <g
       id="g2755"
       transform="translate(-3.0000002,0)">
      <rect
         y="0.5"
         x="3.5000002"
         height="21"
         width="15.000001"
         id="rect2168"
         style="opacity:1;color:#000000;fill:#eeeeec;fill-opacity:1;fill-rule:nonzero;stroke:#babdb6;stroke-width:1;stroke-linecap:square;stroke-linejoin:miter;marker:none;marker-start:none;marker-mid:none;marker-end:none;stroke-miterlimit:4;stroke-dasharray:none;stroke-dashoffset:0;stroke-opacity:1;visibility:visible;display:inline;overflow:visible;enable-background:accumulate" />
      <rect
         y="0.5"
         x="3.5000002"
         height="21"
         width="15.000001"
         id="rect3143"
         style="opacity:0.7;color:#000000;fill:url(#linearGradient2768);fill-opacity:1;fill-rule:nonzero;stroke:#babdb6;stroke-width:1;stroke-linecap:square;stroke-linejoin:miter;marker:none;marker-start:none;marker-mid:none;marker-end:none;stroke-miterlimit:4;stroke-dasharray:none;stroke-dashoffset:0;stroke-opacity:1;visibility:visible;display:inline;overflow:visible;enable-background:accumulate" />
      <rect
         y="1.5"
         x="4.4403415"
         height="19"
         width="13.059658"
         id="rect3141"
         style="opacity:1;color:#000000;fill:none;fill-opacity:1;fill-rule:nonzero;stroke:#ffffff;stroke-width:1;stroke-linecap:square;stroke-linejoin:miter;marker:none;marker-start:none;marker-mid:none;marker-end:none;stroke-miterlimit:4;stroke-dasharray:none;stroke-dashoffset:0;stroke-opacity:1;visibility:visible;display:inline;overflow:visible;enable-background:accumulate" />
      <rect
         y="3"
         x="6.9613719"
         height="1"
         width="9.0386286"
         id="rect3161"
         style="opacity:0.7;color:#000000;fill:#888a85;fill-opacity:1;fill-rule:nonzero;stroke:none;stroke-width:1;stroke-linecap:square;stroke-linejoin:miter;marker:none;marker-start:none;marker-mid:none;marker-end:none;stroke-miterlimit:4;stroke-dasharray:none;stroke-dashoffset:0;stroke-opacity:1;visibility:visible;display:inline;overflow:visible;enable-background:accumulate" />
      <rect
         y="6.9574471"
         x="6.9613719"
         height="1.0425529"
         width="9.0386286"
         id="rect3163"
         style="opacity:0.7;color:#000000;fill:#888a85;fill-opacity:1;fill-rule:nonzero;stroke:none;stroke-width:1;stroke-linecap:square;stroke-linejoin:miter;marker:none;marker-start:none;marker-mid:none;marker-end:none;stroke-miterlimit:4;stroke-dasharray:none;stroke-dashoffset:0;stroke-opacity:1;visibility:visible;display:inline;overflow:visible;enable-background:accumulate" />
      <rect
         y="4.9787235"
         x="6.9613719"
         height="1.0212765"
         width="9.0386286"
         id="rect3185"
         style="opacity:0.7;color:#000000;fill:#888a85;fill-opacity:1;fill-rule:nonzero;stroke:none;stroke-width:1;stroke-linecap:square;stroke-linejoin:miter;marker:none;marker-start:none;marker-mid:none;marker-end:none;stroke-miterlimit:4;stroke-dasharray:none;stroke-dashoffset:0;stroke-opacity:1;visibility:visible;display:inline;overflow:visible;enable-background:accumulate" />
      <rect
         y="8.9361706"
         x="6.9613719"
         height="1.0638294"
         width="5.063323"
         id="rect3187"
         style="opacity:0.7;color:#000000;fill:#888a85;fill-opacity:1;fill-rule:nonzero;stroke:none;stroke-width:1;stroke-linecap:square;stroke-linejoin:miter;marker:none;marker-start:none;marker-mid:none;marker-end:none;stroke-miterlimit:4;stroke-dasharray:none;stroke-dashoffset:0;stroke-opacity:1;visibility:visible;display:inline;overflow:visible;enable-background:accumulate" />
      <rect
         y="12"
         x="6.9613719"
         height="1"
         width="9.0386286"
         id="rect3207"
         style="opacity:0.7;color:#000000;fill:#888a85;fill-opacity:1;fill-rule:nonzero;stroke:none;stroke-width:1;stroke-linecap:square;stroke-linejoin:miter;marker:none;marker-start:none;marker-mid:none;marker-end:none;stroke-miterlimit:4;stroke-dasharray:none;stroke-dashoffset:0;stroke-opacity:1;visibility:visible;display:inline;overflow:visible;enable-background:accumulate" />
      <rect
         y="15.957447"
         x="6.9613719"
         height="1.0425529"
         width="9.0386286"
         id="rect3209"
         style="opacity:0.7;color:#000000;fill:#888a85;fill-opacity:1;fill-rule:nonzero;stroke:none;stroke-width:1;stroke-linecap:square;stroke-linejoin:miter;marker:none;marker-start:none;marker-mid:none;marker-end:none;stroke-miterlimit:4;stroke-dasharray:none;stroke-dashoffset:0;stroke-opacity:1;visibility:visible;display:inline;overflow:visible;enable-background:accumulate" />
      <rect
         y="13.978724"
         x="6.9613719"
         height="1.0212765"
         width="9.0386286"
         id="rect3211"
         style="opacity:0.7;color:#000000;fill:#888a85;fill-opacity:1;fill-rule:nonzero;stroke:none;stroke-width:1;stroke-linecap:square;stroke-linejoin:miter;marker:none;marker-start:none;marker-mid:none;marker-end:none;stroke-miterlimit:4;stroke-dasharray:none;stroke-dashoffset:0;stroke-opacity:1;visibility:visible;display:inline;overflow:visible;enable-background:accumulate" />
      <rect
         y="17.936171"
         x="6.9613719"
         height="1.0638294"
         width="5.063323"
         id="rect3213"
         style="opacity:0.7;color:#000000;fill:#888a85;fill-opacity:1;fill-rule:nonzero;stroke:none;stroke-width:1;stroke-linecap:square;stroke-linejoin:miter;marker:none;marker-start:none;marker-mid:none;marker-end:none;stroke-miterlimit:4;stroke-dasharray:none;stroke-dashoffset:0;stroke-opacity:1;visibility:visible;display:inline;overflow:visible;enable-background:accumulate" />
    </g>
    <g
       id="g2750"
       transform="translate(-9.678571,-1.6071433)">
      <path
         id="path3296"
         d="M 22.233062,8.1071433 L 22.233062,8.1222799 L 22.217926,10.650029 C 21.871594,10.753111 21.531276,10.888728 21.218935,11.058707 L 21.203799,11.058707 L 19.417724,9.2877694 L 19.402588,9.2726328 L 17.344061,11.331159 L 17.359198,11.346296 L 19.130136,13.132371 C 18.956071,13.449728 18.81165,13.778903 18.706322,14.131361 L 16.208844,14.146498 L 16.178572,14.146498 L 16.178572,17.052652 L 16.208844,17.052652 L 18.706322,17.067789 C 18.810122,17.418725 18.942852,17.765928 19.114999,18.081916 L 17.359198,19.86799 L 17.344061,19.883126 L 19.402588,21.941654 L 19.417724,21.926517 L 21.203799,20.170715 C 21.519786,20.342863 21.86699,20.475592 22.217926,20.579392 L 22.233062,23.076869 L 22.233062,23.107142 L 25.139217,23.107142 L 25.139217,23.076869 L 25.154354,20.579392 C 25.506812,20.474064 25.835987,20.329644 26.153345,20.155579 L 27.939419,21.926517 L 27.954555,21.941654 L 30.013082,19.883126 L 29.997946,19.86799 L 28.227007,18.081916 L 28.227007,18.066778 C 28.396987,17.754439 28.532604,17.41412 28.635686,17.067789 L 31.163435,17.052652 L 31.178571,17.052652 L 31.178571,14.146498 L 31.163435,14.146498 L 28.635686,14.131361 C 28.5318,13.785829 28.397309,13.459384 28.227007,13.147507 L 29.997946,11.346296 L 30.013082,11.331159 L 27.954555,9.2726328 L 27.939419,9.2877694 L 26.138209,11.058707 C 25.826331,10.888406 25.499886,10.753914 25.154354,10.650029 L 25.139217,8.1222799 L 25.139217,8.1071433 L 22.233062,8.1071433 z M 23.68614,13.238324 C 24.992348,13.238324 26.047391,14.308502 26.047391,15.614711 C 26.047391,16.920919 24.992348,17.975961 23.68614,17.975961 C 22.379932,17.975961 21.309752,16.920919 21.309752,15.614711 C 21.309752,15.533074 21.316732,15.452122 21.324889,15.372532 C 21.447245,14.178675 22.46157,13.238324 23.68614,13.238324 z "
         style="color:#000000;fill:#3465a4;fill-opacity:1;fill-rule:nonzero;stroke:#204a87;stroke-width:1;stroke-linecap:butt;stroke-linejoin:miter;marker:none;stroke-miterlimit:4;stroke-dasharray:none;stroke-dashoffset:0;stroke-opacity:1;visibility:visible;display:inline;overflow:visible" />
      <path
         id="path3236"
         d="M 22.233061,8.1071433 L 22.233061,8.1222799 L 22.217926,10.650029 C 21.871594,10.753111 21.531276,10.888728 21.218935,11.058707 L 21.203799,11.058707 L 19.417724,9.2877694 L 19.402588,9.2726328 L 17.344061,11.331159 L 17.359198,11.346296 L 19.130136,13.132371 C 18.956071,13.449728 18.81165,13.778903 18.706322,14.131361 L 16.208844,14.146498 L 16.178572,14.146498 L 16.178572,17.052652 L 16.208844,17.052652 L 18.706322,17.067789 C 18.810122,17.418725 18.942852,17.765928 19.114999,18.081916 L 17.359198,19.86799 L 17.344061,19.883126 L 19.402588,21.941654 L 19.417724,21.926517 L 21.203799,20.170715 C 21.519786,20.342863 21.86699,20.475592 22.217926,20.579392 L 22.233061,23.076869 L 22.233061,23.107142 L 25.139217,23.107142 L 25.139217,23.076869 L 25.154354,20.579392 C 25.506812,20.474064 25.835987,20.329644 26.153345,20.155579 L 27.939419,21.926517 L 27.954555,21.941654 L 30.013082,19.883126 L 29.997946,19.86799 L 28.227007,18.081916 L 28.227007,18.066778 C 28.396987,17.754439 28.532604,17.41412 28.635686,17.067789 L 31.163435,17.052652 L 31.178571,17.052652 L 31.178571,14.146498 L 31.163435,14.146498 L 28.635686,14.131361 C 28.5318,13.785829 28.397309,13.459384 28.227007,13.147507 L 29.997946,11.346296 L 30.013082,11.331159 L 27.954555,9.2726328 L 27.939419,9.2877694 L 26.138209,11.058707 C 25.826331,10.888406 25.499886,10.753914 25.154354,10.650029 L 25.139217,8.1222799 L 25.139217,8.1071433 L 22.233061,8.1071433 z M 23.68614,13.238324 C 24.992348,13.238324 26.047391,14.308502 26.047391,15.614711 C 26.047391,16.920919 24.992348,17.975961 23.68614,17.975961 C 22.379932,17.975961 21.309752,16.920919 21.309752,15.614711 C 21.309752,15.533074 21.316732,15.452122 21.324889,15.372532 C 21.447245,14.178675 22.46157,13.238324 23.68614,13.238324 z "
         style="opacity:0.7;color:#000000;fill:#3465a4;fill-opacity:1;fill-rule:nonzero;stroke:#204a87;stroke-width:1;stroke-linecap:butt;stroke-linejoin:miter;marker:none;stroke-miterlimit:4;stroke-dasharray:none;stroke-dashoffset:0;stroke-opacity:1;visibility:visible;display:inline;overflow:visible" />
      <path
         sodipodi:nodetypes="czzzzccccccccccccccccccccccccccccccccc"
         id="path3234"
         d="M 20.310964,15.561803 C 20.335832,13.854853 22.14656,12.140814 23.68614,12.186512 C 25.271419,12.232211 27.124801,13.694972 27.099203,15.660165 C 27.073604,17.625358 25.483111,18.876674 23.754322,18.982318 C 22.025532,19.087963 20.286096,17.268753 20.310964,15.561803 z M 27.040554,18.347318 C 27.210533,18.034978 27.734465,16.384792 27.837547,16.038461 L 30.157077,16.114477 L 30.217669,15.152855 L 27.859787,15.092507 C 27.755901,14.746975 27.119945,13.253862 26.949645,12.941984 L 28.674641,11.346051 L 27.9091,10.641393 L 26.388942,12.290859 C 26.077062,12.120558 24.425347,11.52957 24.079815,11.425684 L 24.178315,9.1135001 L 23.193964,9.0680456 L 23.224283,11.312048 C 22.877951,11.41513 21.348482,12.16609 21.036141,12.33607 L 19.417724,10.633802 L 18.735793,11.353886 L 20.407011,12.994787 C 20.232946,13.312144 19.518147,14.78526 19.412819,15.137718 L 17.124292,15.1074 L 17.139474,16.114477 L 19.32313,16.039193 C 19.42693,16.390129 20.288153,18.038899 20.4603,18.354886 L 18.682747,19.845263 L 19.380105,20.595132 L 20.952823,18.938318 C 21.26881,19.110466 22.896074,19.722665 23.24701,19.826465 L 23.148509,22.115967 L 24.178315,22.14624 L 24.102542,19.871675 C 24.455,19.766346 26.041264,19.029309 26.358622,18.855243 L 27.916692,20.557757 L 28.667049,19.883126 L 27.040554,18.347318 z "
         style="opacity:0.5;color:#000000;fill:none;fill-opacity:1;fill-rule:nonzero;stroke:#eeeeec;stroke-width:1;stroke-linecap:butt;stroke-linejoin:miter;marker:none;stroke-miterlimit:4;stroke-dasharray:none;stroke-dashoffset:0;stroke-opacity:1;visibility:visible;display:inline;overflow:visible" />
    </g>
  </g>
</svg>
