<?xml version="1.0" encoding="UTF-8" standalone="no"?>
<!-- Created with Inkscape (http://www.inkscape.org/) -->
<svg
   xmlns:dc="http://purl.org/dc/elements/1.1/"
   xmlns:cc="http://web.resource.org/cc/"
   xmlns:rdf="http://www.w3.org/1999/02/22-rdf-syntax-ns#"
   xmlns:svg="http://www.w3.org/2000/svg"
   xmlns="http://www.w3.org/2000/svg"
   xmlns:xlink="http://www.w3.org/1999/xlink"
   xmlns:sodipodi="http://sodipodi.sourceforge.net/DTD/sodipodi-0.dtd"
   xmlns:inkscape="http://www.inkscape.org/namespaces/inkscape"
   width="22"
   height="22"
   id="svg2160"
   sodipodi:version="0.32"
   inkscape:version="0.45"
   sodipodi:docbase="/home/lse/public_html/Bambus/System/Icons/0.12/scalable/mimetypes"
   sodipodi:docname="small-template.svg"
   inkscape:output_extension="org.inkscape.output.svg.inkscape"
   version="1.0"
   sodipodi:modified="true">
  <defs
     id="defs2162">
    <linearGradient
       inkscape:collect="always"
       id="linearGradient3361">
      <stop
         style="stop-color:#ffffff;stop-opacity:1;"
         offset="0"
         id="stop3363" />
      <stop
         style="stop-color:#ffffff;stop-opacity:0;"
         offset="1"
         id="stop3365" />
    </linearGradient>
    <linearGradient
       inkscape:collect="always"
       id="linearGradient3145">
      <stop
         style="stop-color:#ffffff;stop-opacity:1;"
         offset="0"
         id="stop3147" />
      <stop
         style="stop-color:#ffffff;stop-opacity:0;"
         offset="1"
         id="stop3149" />
    </linearGradient>
    <linearGradient
       inkscape:collect="always"
       xlink:href="#linearGradient3145"
       id="linearGradient3151"
       x1="22.857143"
       y1="-1.7857143"
       x2="22.857143"
       y2="49.583546"
       gradientUnits="userSpaceOnUse"
       gradientTransform="matrix(0.4536584,0,0,0.4468085,-2.9024383,0.2765958)" />
    <linearGradient
       gradientTransform="matrix(0.2972547,0,0,0.2800989,0.8496468,0.9649748)"
       gradientUnits="userSpaceOnUse"
       y2="48.035389"
       x2="19.363636"
       y1="3.1818182"
       x1="19.363636"
       id="linearGradient3243"
       xlink:href="#linearGradient3237"
       inkscape:collect="always" />
    <linearGradient
       y2="54.557911"
       x2="29.443182"
       y1="25.639603"
       x1="29.443182"
       gradientTransform="matrix(0.1985271,0,0,0.1897971,1.594795,2.2604501)"
       gradientUnits="userSpaceOnUse"
       id="linearGradient3222"
       xlink:href="#linearGradient2891"
       inkscape:collect="always" />
    <linearGradient
       y2="30.909092"
       x2="11.636364"
       y1="9.454546"
       x1="11.636364"
       gradientUnits="userSpaceOnUse"
       id="linearGradient2243"
       xlink:href="#linearGradient2850"
       inkscape:collect="always" />
    <linearGradient
       gradientUnits="userSpaceOnUse"
       y2="30.909092"
       x2="11.636364"
       y1="9.454546"
       x1="11.636364"
       id="linearGradient2856"
       xlink:href="#linearGradient2850"
       inkscape:collect="always" />
    <linearGradient
       gradientUnits="userSpaceOnUse"
       y2="63.782219"
       x2="28.363636"
       y1="5.0909095"
       x1="28.363636"
       id="linearGradient2837"
       xlink:href="#linearGradient2831"
       inkscape:collect="always" />
    <linearGradient
       id="linearGradient2831"
       inkscape:collect="always">
      <stop
         id="stop2833"
         offset="0"
         style="stop-color:white;stop-opacity:1;" />
      <stop
         id="stop2835"
         offset="1"
         style="stop-color:white;stop-opacity:0;" />
    </linearGradient>
    <linearGradient
       id="linearGradient2850"
       inkscape:collect="always">
      <stop
         id="stop2852"
         offset="0"
         style="stop-color:white;stop-opacity:1;" />
      <stop
         id="stop2854"
         offset="1"
         style="stop-color:white;stop-opacity:0;" />
    </linearGradient>
    <linearGradient
       id="linearGradient2891"
       inkscape:collect="always">
      <stop
         id="stop2893"
         offset="0"
         style="stop-color:white;stop-opacity:1;" />
      <stop
         id="stop2895"
         offset="1"
         style="stop-color:white;stop-opacity:0;" />
    </linearGradient>
    <linearGradient
       id="linearGradient3237"
       inkscape:collect="always">
      <stop
         id="stop3239"
         offset="0"
         style="stop-color:#eeeeec;stop-opacity:1;" />
      <stop
         id="stop3241"
         offset="1"
         style="stop-color:#eeeeec;stop-opacity:0;" />
    </linearGradient>
    <linearGradient
       gradientTransform="matrix(0.980532,0,0,0.980532,0.368257,0.354555)"
       gradientUnits="userSpaceOnUse"
       y2="65.456718"
       x2="20.248295"
       y1="-0.75929952"
       x1="20.248295"
       id="linearGradient2774"
       xlink:href="#linearGradient2768"
       inkscape:collect="always" />
    <linearGradient
       gradientTransform="translate(-1.192159e-8,-0.208674)"
       gradientUnits="userSpaceOnUse"
       y2="30.604337"
       x2="64"
       y1="30.604337"
       x1="-1.3755677"
       id="linearGradient2210"
       xlink:href="#linearGradient2204"
       inkscape:collect="always" />
    <linearGradient
       id="linearGradient2204"
       inkscape:collect="always">
      <stop
         id="stop2206"
         offset="0"
         style="stop-color:#feffff;stop-opacity:1;" />
      <stop
         id="stop2208"
         offset="1"
         style="stop-color:#feffff;stop-opacity:0;" />
    </linearGradient>
    <linearGradient
       id="linearGradient2768"
       inkscape:collect="always">
      <stop
         id="stop2770"
         offset="0"
         style="stop-color:white;stop-opacity:1;" />
      <stop
         id="stop2772"
         offset="1"
         style="stop-color:white;stop-opacity:0;" />
    </linearGradient>
    <linearGradient
       inkscape:collect="always"
       xlink:href="#linearGradient2768"
       id="linearGradient3343"
       gradientUnits="userSpaceOnUse"
       gradientTransform="matrix(0.2348361,0,0,0.2348361,16.66193,0.1861063)"
       x1="20.248295"
       y1="-0.75929952"
       x2="20.248295"
       y2="65.456718" />
    <linearGradient
       inkscape:collect="always"
       xlink:href="#linearGradient3361"
       id="linearGradient3367"
       x1="23.892857"
       y1="3.0357144"
       x2="23.892857"
       y2="22.194689"
       gradientUnits="userSpaceOnUse" />
    <linearGradient
       inkscape:collect="always"
       xlink:href="#linearGradient3361"
       id="linearGradient3374"
       gradientUnits="userSpaceOnUse"
       x1="23.892857"
       y1="3.0357144"
       x2="23.892857"
       y2="22.194689" />
    <linearGradient
       inkscape:collect="always"
       xlink:href="#linearGradient3361"
       id="linearGradient3401"
       gradientUnits="userSpaceOnUse"
       x1="23.892857"
       y1="3.0357144"
       x2="23.892857"
       y2="22.194689"
       gradientTransform="translate(-13.111256,1.677027)" />
  </defs>
  <sodipodi:namedview
     id="base"
     pagecolor="#ffffff"
     bordercolor="#666666"
     borderopacity="1.0"
     inkscape:pageopacity="0.0"
     inkscape:pageshadow="2"
     inkscape:zoom="19.79899"
     inkscape:cx="28.21699"
     inkscape:cy="8.1267238"
     inkscape:current-layer="layer1"
     showgrid="true"
     inkscape:grid-bbox="true"
     inkscape:document-units="px"
     inkscape:window-width="1272"
     inkscape:window-height="945"
     inkscape:window-x="0"
     inkscape:window-y="25"
     width="22px"
     height="22px" />
  <metadata
     id="metadata2165">
    <rdf:RDF>
      <cc:Work
         rdf:about="">
        <dc:format>image/svg+xml</dc:format>
        <dc:type
           rdf:resource="http://purl.org/dc/dcmitype/StillImage" />
      </cc:Work>
    </rdf:RDF>
  </metadata>
  <g
     id="layer1"
     inkscape:label="Layer 1"
     inkscape:groupmode="layer">
    <rect
       style="opacity:1;color:#000000;fill:#eeeeec;fill-opacity:1;fill-rule:nonzero;stroke:#babdb6;stroke-width:1;stroke-linecap:square;stroke-linejoin:miter;marker:none;marker-start:none;marker-mid:none;marker-end:none;stroke-miterlimit:4;stroke-dasharray:none;stroke-dashoffset:0;stroke-opacity:1;visibility:visible;display:inline;overflow:visible;enable-background:accumulate"
       id="rect2168"
       width="15.000001"
       height="21"
       x="0.50000024"
       y="0.5" />
    <rect
       style="opacity:0.7;color:#000000;fill:url(#linearGradient3151);fill-opacity:1;fill-rule:nonzero;stroke:#babdb6;stroke-width:1;stroke-linecap:square;stroke-linejoin:miter;marker:none;marker-start:none;marker-mid:none;marker-end:none;stroke-miterlimit:4;stroke-dasharray:none;stroke-dashoffset:0;stroke-opacity:1;visibility:visible;display:inline;overflow:visible;enable-background:accumulate"
       id="rect3143"
       width="15.000001"
       height="21"
       x="0.50000024"
       y="0.5" />
    <rect
       style="opacity:1;color:#000000;fill:none;fill-opacity:1;fill-rule:nonzero;stroke:#ffffff;stroke-width:1;stroke-linecap:square;stroke-linejoin:miter;marker:none;marker-start:none;marker-mid:none;marker-end:none;stroke-miterlimit:4;stroke-dasharray:none;stroke-dashoffset:0;stroke-opacity:1;visibility:visible;display:inline;overflow:visible;enable-background:accumulate"
       id="rect3141"
       width="13.059658"
       height="19"
       x="1.4403415"
       y="1.5" />
    <rect
       style="opacity:0.7;color:#000000;fill:#888a85;fill-opacity:1;fill-rule:nonzero;stroke:none;stroke-width:1;stroke-linecap:square;stroke-linejoin:miter;marker:none;marker-start:none;marker-mid:none;marker-end:none;stroke-miterlimit:4;stroke-dasharray:none;stroke-dashoffset:0;stroke-opacity:1;visibility:visible;display:inline;overflow:visible;enable-background:accumulate"
       id="rect3161"
       width="9.0386286"
       height="1"
       x="3.9613719"
       y="3" />
    <rect
       style="opacity:0.7;color:#000000;fill:#888a85;fill-opacity:1;fill-rule:nonzero;stroke:none;stroke-width:1;stroke-linecap:square;stroke-linejoin:miter;marker:none;marker-start:none;marker-mid:none;marker-end:none;stroke-miterlimit:4;stroke-dasharray:none;stroke-dashoffset:0;stroke-opacity:1;visibility:visible;display:inline;overflow:visible;enable-background:accumulate"
       id="rect3185"
       width="9.0386286"
       height="1.0212765"
       x="3.9613719"
       y="4.9787235" />
    <rect
       style="opacity:0.7;color:#000000;fill:#888a85;fill-opacity:1;fill-rule:nonzero;stroke:none;stroke-width:1;stroke-linecap:square;stroke-linejoin:miter;marker:none;marker-start:none;marker-mid:none;marker-end:none;stroke-miterlimit:4;stroke-dasharray:none;stroke-dashoffset:0;stroke-opacity:1;visibility:visible;display:inline;overflow:visible;enable-background:accumulate"
       id="rect3187"
       width="5.063323"
       height="1.0638294"
       x="3.9613719"
       y="6.9361706" />
    <rect
       style="opacity:0.7;color:#000000;fill:#888a85;fill-opacity:1;fill-rule:nonzero;stroke:none;stroke-width:1;stroke-linecap:square;stroke-linejoin:miter;marker:none;marker-start:none;marker-mid:none;marker-end:none;stroke-miterlimit:4;stroke-dasharray:none;stroke-dashoffset:0;stroke-opacity:1;visibility:visible;display:inline;overflow:visible;enable-background:accumulate"
       id="rect3209"
       width="9.0386286"
       height="1.0425529"
       x="3.9613719"
       y="15.957447" />
    <rect
       style="opacity:0.7;color:#000000;fill:#888a85;fill-opacity:1;fill-rule:nonzero;stroke:none;stroke-width:1;stroke-linecap:square;stroke-linejoin:miter;marker:none;marker-start:none;marker-mid:none;marker-end:none;stroke-miterlimit:4;stroke-dasharray:none;stroke-dashoffset:0;stroke-opacity:1;visibility:visible;display:inline;overflow:visible;enable-background:accumulate"
       id="rect3213"
       width="5.063323"
       height="1.0638294"
       x="3.9613719"
       y="17.936171" />
    <g
       inkscape:label="Layer 1"
       id="g2402"
       transform="matrix(0.463763,0,0,0.4571634,4.3438667,8.321815)">
      <rect
         y="2.5"
         x="0.45852941"
         height="11"
         width="15.041471"
         id="rect1940"
         style="fill:#c17d11;fill-opacity:1;stroke:#8f5902;stroke-width:2.17178273;stroke-miterlimit:4;stroke-dasharray:none;stroke-opacity:1" />
      <rect
         y="3.8950253"
         x="1.8781923"
         height="7.8647413"
         width="12.211135"
         id="rect2839"
         style="fill:#888a85;fill-opacity:1;stroke:#555753;stroke-width:2.01515508;stroke-miterlimit:4;stroke-dasharray:none;stroke-opacity:1" />
      <path
         sodipodi:nodetypes="cszscccc"
         id="path2886"
         d="M 1.9196577,10.611524 C 1.9196577,10.611524 2.6100803,10.580259 2.6100803,10.580259 C 3.7779704,8.8709489 4.1396713,10.109722 4.3741748,10.128405 C 4.5907497,10.145659 5.8721521,8.8084509 6.1248233,9.5719529 C 6.3774936,10.335456 14.04786,10.611524 14.04786,10.611524 L 14.04786,11.819324 L 1.9196577,11.819324 L 1.9196577,10.611524 z "
         style="fill:#000000;fill-opacity:1;stroke:none;stroke-width:1;stroke-miterlimit:4;stroke-opacity:1" />
      <rect
         y="3.8950253"
         x="1.8781927"
         height="7.8647413"
         width="12.211135"
         id="rect3235"
         style="opacity:0.7;fill:url(#linearGradient3243);fill-opacity:1;stroke:#d3d7cf;stroke-width:2.01515508;stroke-miterlimit:4;stroke-dasharray:none;stroke-opacity:1" />
      <path
         sodipodi:nodetypes="ccscsccccsc"
         id="rect2843"
         d="M 12.17257,7.7467674 C 11.972076,7.7310367 11.656508,8.1975889 10.627779,9.6627259 C 10.315015,9.4462249 9.9802804,9.3174369 9.827467,9.3472949 C 9.6130305,9.3891939 8.1010211,9.9932149 7.3831019,10.708326 C 7.0820013,10.892657 5.7068412,10.725242 4.9511445,10.737533 C 2.9105789,10.770721 1.9174017,10.568134 1.9174017,10.568134 L 1.9174017,11.759767 L 14.046169,11.759767 L 14.046169,10.568134 C 14.046169,10.568134 13.852153,9.8188499 13.599483,9.0669099 C 13.346812,8.3149709 12.389144,7.7637611 12.17257,7.7467674 z "
         style="fill:#2e3436;fill-opacity:1;stroke:#000000;stroke-width:2.01515508;stroke-miterlimit:4;stroke-opacity:1" />
      <g
         transform="matrix(0.1985271,0,0,0.1897971,1.7121067,2.2604501)"
         id="g2858">
        <path
           sodipodi:type="arc"
           style="opacity:1;fill:#d3d7cf;fill-opacity:1;stroke:#babdb6;stroke-width:10.38134956;stroke-miterlimit:4;stroke-dasharray:none;stroke-opacity:1"
           id="path2846"
           sodipodi:cx="11.636364"
           sodipodi:cy="19.454546"
           sodipodi:rx="7.2727275"
           sodipodi:ry="7.2727275"
           d="M 18.909091 19.454546 A 7.2727275 7.2727275 0 1 1  4.3636365,19.454546 A 7.2727275 7.2727275 0 1 1  18.909091 19.454546 z" />
        <path
           sodipodi:type="arc"
           style="opacity:0.7;fill:url(#linearGradient2243);fill-opacity:1;stroke:none;stroke-width:1;stroke-miterlimit:4;stroke-dasharray:none;stroke-opacity:1"
           id="path2848"
           sodipodi:cx="11.636364"
           sodipodi:cy="19.454546"
           sodipodi:rx="7.2727275"
           sodipodi:ry="7.2727275"
           d="M 18.909091 19.454546 A 7.2727275 7.2727275 0 1 1  4.3636365,19.454546 A 7.2727275 7.2727275 0 1 1  18.909091 19.454546 z" />
      </g>
      <path
         sodipodi:nodetypes="ccscsccccsc"
         id="path2889"
         d="M 12.172568,7.7467735 C 11.972076,7.7308006 11.656507,8.2045279 10.62778,9.6921939 C 10.315014,9.4723629 9.9802798,9.3415939 9.8274657,9.3719119 C 9.6130299,9.4144549 8.1010199,10.027764 7.3831022,10.753872 C 7.0820004,10.941037 5.7068412,10.771048 4.9511443,10.783527 C 2.9105788,10.817226 1.9174017,10.611524 1.9174017,10.611524 L 1.9174017,11.821481 L 14.046169,11.821481 L 14.046169,10.611524 C 14.046169,10.611524 13.852153,9.8507179 13.599481,9.0872159 C 13.346811,8.3237139 12.389144,7.7640279 12.172568,7.7467735 z "
         style="opacity:0.5;fill:url(#linearGradient3222);fill-opacity:1;stroke:none;stroke-width:1;stroke-miterlimit:4;stroke-opacity:1" />
      <rect
         y="3.5"
         x="1.5"
         height="9.000001"
         width="13"
         id="rect3219"
         style="opacity:0.5;fill:none;fill-opacity:1;stroke:#eeeeec;stroke-width:2.17178273;stroke-miterlimit:4;stroke-dasharray:none;stroke-opacity:1" />
    </g>
    <path
       style="color:#000000;fill:#edd400;fill-opacity:1;fill-rule:nonzero;stroke:#c4a000;stroke-width:1;stroke-linecap:round;stroke-linejoin:round;marker:none;marker-start:none;marker-mid:none;marker-end:none;stroke-miterlimit:4;stroke-dasharray:none;stroke-dashoffset:0;stroke-opacity:1;visibility:visible;display:inline;overflow:visible"
       d="M 19.1128,14.328971 C 20.113553,14.294873 21.388744,15.417317 21.388744,16.707875 C 21.388745,17.998433 20.403766,19.52872 18.996351,19.048898 C 18.372117,18.836081 18.649441,18.995583 17.308466,18.366405 C 15.977831,17.742079 16.082916,19.918822 16.082916,21.5 L 6.542697,21.5 L 6.5,18.154919 C 6.5,18.154919 7.678787,18.814253 8.650218,18.834743 C 9.621649,18.855233 10.550336,18.284895 10.580278,16.865322 C 10.61022,15.445749 10.159073,14.729297 8.7176,14.629709 C 7.318619,14.533056 6.542697,15.599075 6.542697,15.599075 L 6.542697,12.040507 C 6.542697,12.040507 8.057533,12.146491 8.927752,12.040507 C 9.791311,11.935333 9.889874,11.158608 9.456133,10.73423 C 9.022393,10.309852 8.751625,9.7283177 8.751625,9.0830377 C 8.751625,7.8523437 9.784547,6.7502254 11.052285,6.7493537 C 12.315548,6.7484851 13.536412,7.7924797 13.536412,9.0830377 C 13.536411,9.7283177 13.027485,10.152253 12.831903,10.73423 C 12.636321,11.316207 13.105346,11.978776 13.697861,12.040507 C 14.28395,12.101568 16.082916,12.040507 16.082916,12.040507 C 15.950605,13.366554 16.0364,14.726157 16.660394,15.187053 C 17.27018,15.637455 18.09978,14.363488 19.1128,14.328971 z "
       id="rect1315"
       sodipodi:nodetypes="csszccczzzccssszsssczz"
       inkscape:export-filename="/home/lse/public_html/Bambus/System/Applications/ATPLEditor.bap/Icon.png"
       inkscape:export-xdpi="33"
       inkscape:export-ydpi="33" />
    <path
       style="opacity:0.7;color:#000000;fill:url(#linearGradient3401);fill-opacity:1;fill-rule:nonzero;stroke:#c4a000;stroke-width:1;stroke-linecap:round;stroke-linejoin:round;marker:none;marker-start:none;marker-mid:none;marker-end:none;stroke-miterlimit:4;stroke-dasharray:none;stroke-dashoffset:0;stroke-opacity:1;visibility:visible;display:inline;overflow:visible"
       d="M 19.1128,14.328971 C 20.113553,14.294873 21.388744,15.417317 21.388744,16.707875 C 21.388745,17.998433 20.403766,19.52872 18.996351,19.048898 C 18.372117,18.836081 18.649441,18.995583 17.308466,18.366405 C 15.977831,17.742079 16.082916,19.918822 16.082916,21.5 L 6.542697,21.5 L 6.5,18.154919 C 6.5,18.154919 7.678787,18.814253 8.650218,18.834743 C 9.621649,18.855233 10.550336,18.284895 10.580278,16.865322 C 10.61022,15.445749 10.159073,14.729297 8.7176,14.629709 C 7.318619,14.533056 6.542697,15.599075 6.542697,15.599075 L 6.542697,12.040507 C 6.542697,12.040507 8.057533,12.146491 8.927752,12.040507 C 9.791311,11.935333 9.889874,11.158608 9.456133,10.73423 C 9.022393,10.309852 8.751625,9.7283177 8.751625,9.0830377 C 8.751625,7.8523437 9.784547,6.7502254 11.052285,6.7493537 C 12.315548,6.7484851 13.536412,7.7924797 13.536412,9.0830377 C 13.536411,9.7283177 13.027485,10.152253 12.831903,10.73423 C 12.636321,11.316207 13.105346,11.978776 13.697861,12.040507 C 14.28395,12.101568 16.082916,12.040507 16.082916,12.040507 C 15.950605,13.366554 16.0364,14.726157 16.660394,15.187053 C 17.27018,15.637455 18.09978,14.363488 19.1128,14.328971 z "
       id="path3359"
       sodipodi:nodetypes="csszccczzzccssszsssczz"
       inkscape:export-filename="/home/lse/public_html/Bambus/System/Applications/ATPLEditor.bap/Icon.png"
       inkscape:export-xdpi="33"
       inkscape:export-ydpi="33" />
    <path
       style="opacity:0.5;color:#000000;fill:none;fill-opacity:1;fill-rule:nonzero;stroke:#eeeeec;stroke-width:1;stroke-linecap:round;stroke-linejoin:miter;marker:none;marker-start:none;marker-mid:none;marker-end:none;stroke-miterlimit:4;stroke-dasharray:none;stroke-dashoffset:0;stroke-opacity:1;visibility:visible;display:inline;overflow:visible"
       d="M 18.64313,15.556255 C 19.267562,15.054742 20.312983,15.392063 20.312983,16.682621 C 20.312984,17.973179 20.009858,18.377197 18.602443,17.897375 C 17.978209,17.684558 17.238855,17.094556 16.308466,17.366405 C 15.407992,17.629513 15.082916,18.918822 15.082916,20.5 L 7.542697,20.5 L 7.601015,19.685249 C 7.601015,19.685249 9.158609,19.890014 9.902756,19.657966 C 10.671626,19.418209 11.550336,18.284895 11.580278,16.865322 C 11.61022,15.445749 11.058058,14.158612 9.641839,13.781232 C 8.219141,13.402126 7.567951,13.790953 7.567951,13.790953 L 7.542697,13.141522 C 7.542697,13.141522 9.160694,13.204624 9.902498,12.737462 C 10.791311,12.177719 10.763605,11.512161 10.63291,10.860499 C 10.513585,10.265529 9.751625,9.7283177 9.751625,9.0830377 C 9.751625,7.8523437 10.775202,7.722659 11.052285,7.7493537 C 11.305395,7.7737389 12.536417,7.7924797 12.536412,9.0830377 C 12.536411,9.2990029 12.027485,10.152253 11.831903,10.73423 C 11.636321,11.316207 12.30346,12.549533 12.849384,12.787969 C 13.560161,13.098405 15.083979,13.042634 15.082916,13.040507 C 14.950605,14.366554 15.388211,15.583311 16.114963,16.060784 C 16.80051,16.511186 18.034171,16.045341 18.64313,15.556255 z "
       id="path3357"
       sodipodi:nodetypes="csszccczzzccssszsssczz"
       inkscape:export-filename="/home/lse/public_html/Bambus/System/Applications/ATPLEditor.bap/Icon.png"
       inkscape:export-xdpi="33"
       inkscape:export-ydpi="33" />
  </g>
</svg>
