<?xml version="1.0" encoding="UTF-8" standalone="no"?>
<!-- Created with Inkscape (http://www.inkscape.org/) -->
<svg
   xmlns:dc="http://purl.org/dc/elements/1.1/"
   xmlns:cc="http://web.resource.org/cc/"
   xmlns:rdf="http://www.w3.org/1999/02/22-rdf-syntax-ns#"
   xmlns:svg="http://www.w3.org/2000/svg"
   xmlns="http://www.w3.org/2000/svg"
   xmlns:xlink="http://www.w3.org/1999/xlink"
   xmlns:sodipodi="http://sodipodi.sourceforge.net/DTD/sodipodi-0.dtd"
   xmlns:inkscape="http://www.inkscape.org/namespaces/inkscape"
   width="48"
   height="48"
   id="svg2160"
   sodipodi:version="0.32"
   inkscape:version="0.45"
   sodipodi:docbase="/home/lse/public_html/Bambus/System/Icons/0.12/scalable/status"
   sodipodi:docname="large-new.svg"
   inkscape:output_extension="org.inkscape.output.svg.inkscape"
   version="1.0"
   sodipodi:modified="true">
  <defs
     id="defs2162">
    <linearGradient
       inkscape:collect="always"
       id="linearGradient3433">
      <stop
         style="stop-color:#ffffff;stop-opacity:1;"
         offset="0"
         id="stop3435" />
      <stop
         style="stop-color:#ffffff;stop-opacity:0;"
         offset="1"
         id="stop3437" />
    </linearGradient>
    <marker
       inkscape:stockid="SquareS"
       orient="auto"
       refY="0"
       refX="0"
       id="SquareS"
       style="overflow:visible">
      <path
         id="path3258"
         d="M -5,-5 L -5,5 L 5,5 L 5,-5 L -5,-5 z "
         style="fill-rule:evenodd;stroke:#000000;stroke-width:1pt;marker-start:none"
         transform="scale(0.2,0.2)" />
    </marker>
    <marker
       inkscape:stockid="Legs"
       orient="auto"
       refY="0"
       refX="0"
       id="Legs"
       style="overflow:visible">
      <g
         id="g3188"
         transform="scale(-0.7,-0.7)">
        <g
           id="g3190"
           transform="matrix(0,-1,-1,0,20.70862,21.31391)">
          <path
             id="path3192"
             d="M 21.22125,20.67536 C 14.311099,25.396517 18.766725,27.282204 15.380179,34.118595"
             style="fill:none;fill-opacity:0.75;fill-rule:evenodd;stroke:#000000;stroke-width:1pt;marker-start:none;marker-end:none" />
          <path
             id="path3194"
             d="M 21.39811,20.54812 C 20.037601,28.895644 24.934182,29.31806 25.903151,34.373078"
             style="fill:none;fill-opacity:0.75;fill-rule:evenodd;stroke:#000000;stroke-width:1pt;marker-start:none;marker-end:none" />
        </g>
        <path
           id="path3196"
           d="M -14.09007,-6.7318716 L -15.012238,-2.6884886 L -11.049487,-3.9115586 L -14.09007,-6.7318716 z "
           style="fill:#030300;fill-rule:evenodd;stroke-width:1pt;marker-end:none" />
        <path
           id="path3198"
           d="M -15.215679,4.5567534 L -13.341552,8.2563664 L -11.074678,4.7835114 L -15.215679,4.5567534 z "
           style="fill:#030300;fill-rule:evenodd;stroke-width:1pt;marker-end:none" />
      </g>
    </marker>
    <marker
       inkscape:stockid="Club"
       orient="auto"
       refY="0"
       refX="0"
       id="Club"
       style="overflow:visible">
      <path
         id="path3168"
         d="M -1.5971367,-7.0977635 C -3.4863874,-7.0977635 -5.0235187,-5.5606321 -5.0235187,-3.6713813 C -5.0235187,-3.0147015 -4.7851656,-2.4444556 -4.4641095,-1.9232271 C -4.5028609,-1.8911157 -4.5437814,-1.8647646 -4.5806531,-1.8299921 C -5.2030765,-2.6849849 -6.1700514,-3.275133 -7.307773,-3.275133 C -9.1970245,-3.2751331 -10.734155,-1.7380016 -10.734155,0.15124914 C -10.734155,2.0404999 -9.1970245,3.5776313 -7.307773,3.5776313 C -6.3143268,3.5776313 -5.439154,3.1355702 -4.8137404,2.4588126 C -4.9384274,2.8137041 -5.0235187,3.1803 -5.0235187,3.5776313 C -5.0235187,5.4668819 -3.4863874,7.0040135 -1.5971367,7.0040135 C 0.29211394,7.0040135 1.8292454,5.4668819 1.8292454,3.5776313 C 1.8292454,2.7842354 1.5136868,2.0838028 1.0600576,1.503155 C 2.4152718,1.7663868 3.7718375,2.2973711 4.7661444,3.8340272 C 4.0279463,3.0958289 3.5540908,1.7534117 3.5540908,-0.058529361 L 2.9247554,-0.10514681 L 3.5074733,-0.12845553 C 3.5074733,-1.9403966 3.9580199,-3.2828138 4.6962183,-4.0210121 C 3.7371277,-2.5387813 2.4390549,-1.9946496 1.1299838,-1.7134486 C 1.5341802,-2.2753578 1.8292454,-2.9268556 1.8292454,-3.6713813 C 1.8292454,-5.5606319 0.29211394,-7.0977635 -1.5971367,-7.0977635 z "
         style="fill-rule:evenodd;stroke:#000000;stroke-width:0.74587913pt;marker-start:none"
         transform="scale(0.6,0.6)" />
    </marker>
    <marker
       style="overflow:visible"
       inkscape:stockid="InfiniteLineStart"
       id="InfiniteLineStart"
       refX="0"
       refY="0"
       orient="auto">
      <g
         id="g3147"
         transform="translate(-13,0)">
        <circle
           id="circle3149"
           r="0.80000001"
           cy="0"
           cx="3"
           sodipodi:cx="3"
           sodipodi:cy="0"
           sodipodi:rx="0.80000001"
           sodipodi:ry="0.80000001" />
        <circle
           id="circle3151"
           r="0.80000001"
           cy="0"
           cx="6.5"
           sodipodi:cx="6.5"
           sodipodi:cy="0"
           sodipodi:rx="0.80000001"
           sodipodi:ry="0.80000001" />
        <circle
           id="circle3153"
           r="0.80000001"
           cy="0"
           cx="10"
           sodipodi:cx="10"
           sodipodi:cy="0"
           sodipodi:rx="0.80000001"
           sodipodi:ry="0.80000001" />
      </g>
    </marker>
    <marker
       inkscape:stockid="TriangleOutL"
       orient="auto"
       refY="0"
       refX="0"
       id="TriangleOutL"
       style="overflow:visible">
      <path
         id="path3237"
         d="M 5.77,0 L -2.88,5 L -2.88,-5 L 5.77,0 z "
         style="fill-rule:evenodd;stroke:#000000;stroke-width:1pt;marker-start:none"
         transform="scale(0.8,0.8)" />
    </marker>
    <marker
       inkscape:stockid="Torso"
       orient="auto"
       refY="0"
       refX="0"
       id="Torso"
       style="overflow:visible">
      <g
         id="g3171"
         transform="scale(0.7,0.7)">
        <path
           id="path3173"
           d="M -4.7792281,-3.239542 C -2.4288541,-2.8736027 0.52103922,-1.3019943 0.25792722,0.38794346 C -0.0051877922,2.0778819 -2.2126741,2.6176539 -4.5630471,2.2517169 C -6.9134221,1.8857769 -8.521035,0.75201414 -8.257922,-0.93792336 C -7.994809,-2.6278615 -7.1296041,-3.6054813 -4.7792281,-3.239542 z "
           style="fill:none;fill-opacity:0.75;fill-rule:evenodd;stroke:#000000;stroke-width:1.25;marker-start:none;marker-mid:none;marker-end:none" />
        <path
           id="path3175"
           d="M 4.4598789,0.088665736 C -2.5564571,-4.378332 5.2248769,-3.9061806 -0.84829578,-8.7197331"
           style="fill:none;fill-opacity:0.75;fill-rule:evenodd;stroke:#000000;stroke-width:1pt;marker-end:none" />
        <path
           id="path3177"
           d="M 4.9298719,0.057520736 C -1.3872731,1.7494689 1.8027579,5.4782079 -4.9448731,7.5462725"
           style="fill:none;fill-opacity:0.75;fill-rule:evenodd;stroke:#000000;stroke-width:1pt;marker-start:none;marker-end:none" />
        <rect
           id="rect3179"
           transform="matrix(0.527536,-0.849533,0.887668,0.460484,0,0)"
           y="-1.7408575"
           x="-10.391706"
           height="2.7608147"
           width="2.6366582"
           style="fill-rule:evenodd;stroke-width:1pt;marker-end:none" />
        <rect
           id="rect3181"
           transform="matrix(0.671205,-0.741272,0.790802,0.612072,0,0)"
           y="-7.9629307"
           x="4.9587269"
           height="2.8614161"
           width="2.7327356"
           style="fill-rule:evenodd;stroke-width:1pt;marker-end:none" />
        <path
           id="path3183"
           transform="matrix(0,-1.109517,1.109517,0,25.96648,19.71619)"
           d="M 16.779951 -28.685045 A 0.60731727 0.60731727 0 1 1  15.565317,-28.685045 A 0.60731727 0.60731727 0 1 1  16.779951 -28.685045 z"
           sodipodi:ry="0.60731727"
           sodipodi:rx="0.60731727"
           sodipodi:cy="-28.685045"
           sodipodi:cx="16.172634"
           style="fill:#ff0000;fill-opacity:0.75;fill-rule:evenodd;stroke:#000000;stroke-width:1pt;marker-start:none;marker-end:none"
           sodipodi:type="arc" />
        <path
           id="path3185"
           transform="matrix(0,-1.109517,1.109517,0,26.8245,16.99126)"
           d="M 16.779951 -28.685045 A 0.60731727 0.60731727 0 1 1  15.565317,-28.685045 A 0.60731727 0.60731727 0 1 1  16.779951 -28.685045 z"
           sodipodi:ry="0.60731727"
           sodipodi:rx="0.60731727"
           sodipodi:cy="-28.685045"
           sodipodi:cx="16.172634"
           style="fill:#ff0000;fill-opacity:0.75;fill-rule:evenodd;stroke:#000000;stroke-width:1pt;marker-start:none;marker-end:none"
           sodipodi:type="arc" />
      </g>
    </marker>
    <linearGradient
       inkscape:collect="always"
       xlink:href="#linearGradient3433"
       id="linearGradient3446"
       gradientUnits="userSpaceOnUse"
       x1="22.728432"
       y1="-2.2045815"
       x2="22.728432"
       y2="49.220219" />
  </defs>
  <sodipodi:namedview
     id="base"
     pagecolor="#ffffff"
     bordercolor="#666666"
     borderopacity="1.0"
     inkscape:pageopacity="0.0"
     inkscape:pageshadow="2"
     inkscape:zoom="9.8994949"
     inkscape:cx="36.607143"
     inkscape:cy="20.173594"
     inkscape:current-layer="layer1"
     showgrid="true"
     inkscape:grid-bbox="true"
     inkscape:document-units="px"
     inkscape:window-width="1272"
     inkscape:window-height="949"
     inkscape:window-x="0"
     inkscape:window-y="24"
     width="48px"
     height="0px" />
  <metadata
     id="metadata2165">
    <rdf:RDF>
      <cc:Work
         rdf:about="">
        <dc:format>image/svg+xml</dc:format>
        <dc:type
           rdf:resource="http://purl.org/dc/dcmitype/StillImage" />
      </cc:Work>
    </rdf:RDF>
  </metadata>
  <g
     id="layer1"
     inkscape:label="Layer 1"
     inkscape:groupmode="layer">
    <path
       sodipodi:type="arc"
       style="opacity:1;color:#000000;fill:#f57900;fill-opacity:1;fill-rule:nonzero;stroke:#f57900;stroke-width:0.39471367;stroke-linecap:square;stroke-linejoin:miter;marker:none;marker-start:none;marker-mid:none;marker-end:none;stroke-miterlimit:4;stroke-dasharray:none;stroke-dashoffset:0;stroke-opacity:1;visibility:visible;display:inline;overflow:visible;enable-background:accumulate"
       id="path2192"
       sodipodi:cx="24.04163"
       sodipodi:cy="23.251263"
       sodipodi:rx="11.313708"
       sodipodi:ry="11.313708"
       d="M 35.355338 23.251263 A 11.313708 11.313708 0 1 1  12.727921,23.251263 A 11.313708 11.313708 0 1 1  35.355338 23.251263 z"
       transform="matrix(1.0133929,0,0,1.0133929,0.2741987,0.1025676)" />
    <g
       id="g3441"
       transform="matrix(0.9830918,0,0,0.9830918,0.4057968,0.4057968)">
      <path
         id="path3419"
         d="M 29.039949,0.0872239 C 29.039949,0.0872239 29.001091,0.2036267 29.00042,0.2057996 C 28.965924,0.3177478 28.102712,3.1928663 26.707737,6.2136371 C 25.996705,7.7533554 25.165273,9.293206 24.335996,10.403314 C 23.506719,11.513422 22.645872,12.05616 22.399075,12.1029 C 22.152277,12.14964 21.205161,11.923816 20.027334,11.193819 C 18.849507,10.463823 17.496967,9.362988 16.272077,8.1899001 C 13.874995,5.8941934 12.006084,3.5894102 11.923886,3.4863954 C 11.923512,3.4859274 11.924183,3.4472432 11.923886,3.4468701 C 11.922747,3.4454421 11.844827,3.3678196 11.844827,3.3678196 L 8.8010931,5.6207583 C 8.8010931,5.6207583 10.600345,8.2016375 12.121531,11.233344 C 12.882123,12.749198 13.549382,14.39879 13.900336,15.739223 C 14.251291,17.079656 14.175782,18.046761 14.058452,18.268839 C 13.941123,18.490915 13.189508,19.107543 11.884357,19.573172 C 10.579205,20.038801 8.8218251,20.414196 7.1408751,20.640354 C 3.8601143,21.081753 0.9240001,21.075068 0.776703,21.075132 C 0.77306,21.075133 0.6185869,21.075132 0.6185869,21.075132 L 0.4999999,24.869555 C 0.4999999,24.869555 0.6165731,24.869405 0.6185869,24.869555 C 0.7287862,24.877769 3.7233464,25.090172 6.9827591,25.778636 C 8.6422351,26.129156 10.301215,26.640159 11.568124,27.201545 C 12.835034,27.762932 13.562672,28.433793 13.663162,28.663979 C 13.763652,28.894166 13.796601,29.882969 13.34693,31.193595 C 12.897259,32.504222 12.083584,34.046746 11.212363,35.501848 C 9.5077301,38.348903 7.6585381,40.694305 7.5756941,40.798231 C 7.5738561,40.800536 7.4966361,40.916807 7.4966361,40.916807 L 10.382254,43.367373 C 10.382254,43.367373 10.460057,43.289675 10.461312,43.288322 C 10.533223,43.210758 12.55315,41.021537 15.125736,38.901019 C 16.434476,37.822257 17.849782,36.774648 19.078637,36.134252 C 20.307493,35.493855 21.286799,35.397362 21.529436,35.462322 C 21.772075,35.527283 22.56382,36.111789 23.308242,37.280484 C 24.052664,38.449179 24.769195,40.039937 25.363751,41.628261 C 26.552861,44.80491 27.261144,47.912776 27.261144,47.912776 L 30.976871,47.201322 C 30.976871,47.201322 30.977412,47.04681 30.976871,47.043221 C 30.976871,47.043221 30.976914,47.003885 30.976871,47.003695 C 30.949813,46.823579 30.516345,43.968947 30.462994,40.679656 C 30.435491,38.983941 30.513777,37.217523 30.779226,35.857575 C 31.044675,34.497627 31.565377,33.674767 31.767451,33.525585 C 31.969526,33.376404 32.919359,33.102196 34.297308,33.248908 C 35.675258,33.395621 37.388642,33.830109 39.001261,34.355615 C 42.2265,35.406628 45.08873,36.806181 45.08873,36.806181 L 46.828006,33.446535 C 46.828006,33.446535 46.712007,33.368978 46.709419,33.367484 C 46.593539,33.300604 44.039919,31.836471 41.412531,29.810212 C 40.069493,28.774453 38.752766,27.585046 37.85492,26.529616 C 36.957074,25.474186 36.620174,24.567189 36.62952,24.316202 C 36.638866,24.065215 37.039183,23.167586 38.013036,22.181839 C 38.986889,21.196091 40.391473,20.110948 41.807821,19.177919 C 44.587282,17.346932 47.277248,16.066062 47.381413,16.015899 C 47.383407,16.014938 47.5,15.976374 47.5,15.976374 L 45.958368,12.498152 C 45.958368,12.498152 45.84193,12.536834 45.839781,12.537678 C 45.729961,12.580813 42.983564,13.68164 39.752313,14.474415 C 38.105076,14.878558 36.354346,15.181546 34.969302,15.225394 C 33.584257,15.269243 32.669395,14.954411 32.478974,14.790617 C 32.288553,14.626823 31.812439,13.715972 31.648864,12.340051 C 31.48529,10.964131 31.534855,9.2464701 31.688393,7.5574961 C 31.989701,4.2430098 32.650904,1.3066025 32.676619,1.1939309 C 32.677111,1.1917744 32.716148,1.0753551 32.716148,1.0753551 L 29.039949,0.0872239 z M 27.893608,11.747173 C 27.915138,12.099997 27.852728,12.470494 27.893608,12.814354 C 28.108614,14.622898 28.526754,16.378964 29.988646,17.636435 C 31.450537,18.893906 33.26735,19.077453 35.087889,19.019818 C 35.423479,19.009194 35.774393,18.891626 36.115643,18.861718 C 35.866847,19.087373 35.556513,19.259845 35.325063,19.494121 C 34.045006,20.789812 32.906485,22.231237 32.834735,24.158101 C 32.762984,26.084965 33.78915,27.632422 34.969302,29.019707 C 35.193643,29.283424 35.515818,29.475535 35.759882,29.731161 C 35.404097,29.672109 35.043802,29.531403 34.692599,29.49401 C 32.881388,29.301167 31.06566,29.297327 29.514297,30.442616 C 27.962935,31.587904 27.412411,33.358571 27.063499,35.14612 C 26.996671,35.488493 27.032372,35.860413 26.98444,36.213302 C 26.808428,35.89762 26.700244,35.523697 26.510092,35.225171 C 25.531606,33.689009 24.380428,32.285187 22.517662,31.786474 C 20.654895,31.287762 18.9546,31.932852 17.339361,32.774605 C 17.021339,32.940337 16.744433,33.218801 16.430193,33.407009 C 16.567807,33.071481 16.789299,32.75477 16.904541,32.418878 C 17.4956,30.696158 17.913185,28.929193 17.141716,27.16202 C 16.370245,25.394848 14.775013,24.461222 13.109756,23.723323 C 12.790851,23.582011 12.415362,23.532357 12.082002,23.407121 C 12.428741,23.305838 12.81611,23.288834 13.149285,23.16997 C 14.864809,22.557935 16.517659,21.752392 17.418419,20.047475 C 18.319178,18.342558 18.037838,16.512991 17.576535,14.751092 C 17.488987,14.416709 17.290006,14.098608 17.181245,13.76296 C 17.471765,13.967066 17.715733,14.251668 18.011354,14.43489 C 19.559519,15.394416 21.215898,16.177095 23.110597,15.818273 C 25.005295,15.45945 26.289709,14.115407 27.379731,12.656253 C 27.583215,12.383859 27.701967,12.036409 27.893608,11.747173 z "
         style="opacity:1;color:#000000;fill:#fcaf3e;fill-opacity:1;fill-rule:nonzero;stroke:#f57900;stroke-width:1.01719904;stroke-linecap:square;stroke-linejoin:miter;marker:none;stroke-miterlimit:0;stroke-dasharray:none;stroke-dashoffset:0;stroke-opacity:1;visibility:visible;display:inline;overflow:visible;enable-background:accumulate" />
      <path
         sodipodi:nodetypes="cssssssssccssssssccsssssssccsssssscccssssssccsssssssccssssssscccssscssscssscssscssscssscsssc"
         id="path3429"
         d="M 29.730412,1.341579 C 29.730412,1.341579 29.69394,1.4508327 29.69331,1.4528721 C 29.660933,1.5579448 28.422165,4.827912 27.112865,7.6631572 C 26.445502,9.1083113 25.415134,10.55359 24.636789,11.595519 C 23.858442,12.637447 22.800467,13.039709 22.568826,13.083579 C 22.337186,13.127448 21.05538,12.951207 19.949891,12.266044 C 18.844403,11.580882 17.360647,10.6548 16.210985,9.553759 C 13.961124,7.3990468 11.849852,4.9501014 11.772703,4.8534134 C 11.77235,4.8529742 11.772982,4.8166659 11.772703,4.8163156 C 11.771633,4.8149754 11.698499,4.7421202 11.698499,4.7421202 L 10.198843,5.8924052 C 10.198843,5.8924052 12.066163,8.8504898 13.493922,11.695999 C 14.207801,13.118754 14.691223,14.845606 15.020622,16.103714 C 15.350023,17.361822 15.064865,18.626673 14.954741,18.835113 C 14.844618,19.043549 13.960593,19.872305 12.735601,20.309338 C 11.510606,20.746369 9.8254448,21.27728 8.2477331,21.489548 C 5.1684655,21.903838 1.8361727,22.062829 1.697922,22.062888 C 1.6945027,22.062889 1.5495169,22.062888 1.5495169,22.062888 L 1.4382131,23.957519 C 1.4382131,23.957519 1.5476267,23.957378 1.5495169,23.957519 C 1.6529481,23.965228 5.2717147,24.417125 8.3309452,25.063306 C 9.8885018,25.392298 11.445594,26.124455 12.634693,26.651362 C 13.823793,27.178272 14.632267,28.304341 14.726586,28.520389 C 14.820903,28.736439 14.851829,29.771656 14.429776,31.001788 C 14.007721,32.231921 13.386878,33.858279 12.569164,35.224014 C 10.969224,37.896212 9.0550314,40.561854 8.9772755,40.659396 C 8.9755504,40.66156 8.9030729,40.770691 8.9030729,40.770691 L 10.290037,41.999322 C 10.290037,41.999322 10.363062,41.926397 10.364241,41.925126 C 10.431735,41.852326 12.79189,39.440417 15.206476,37.450134 C 16.434838,36.437626 18.048936,35.525786 19.202318,34.924721 C 20.355703,34.323654 21.560577,34.447374 21.788312,34.508345 C 22.016049,34.569315 23.11631,35.153637 23.815012,36.250555 C 24.513714,37.347472 25.436239,38.947674 25.994278,40.438449 C 27.110357,43.419999 27.953712,46.729848 27.953712,46.729848 L 29.869804,46.347803 C 29.869804,46.347803 29.87031,46.20278 29.869804,46.199413 C 29.869804,46.199413 29.869844,46.162493 29.869804,46.162314 C 29.844407,45.993259 29.50899,42.813949 29.458915,39.726676 C 29.433102,38.135106 29.685151,36.191461 29.934297,34.915035 C 30.183443,33.638611 30.957878,32.866289 31.147543,32.726268 C 31.337207,32.58625 32.585847,32.078883 33.879167,32.216585 C 35.172488,32.354287 36.85207,32.583519 38.365648,33.07675 C 41.392803,34.063213 44.757817,35.519668 44.757817,35.519668 L 45.497416,33.794931 C 45.497416,33.794931 45.388541,33.722138 45.386112,33.720735 C 45.277349,33.657962 42.52342,31.890895 40.057397,29.989082 C 38.796844,29.016935 37.525272,27.686293 36.682567,26.695683 C 35.839864,25.705075 35.595084,24.568068 35.603857,24.332495 C 35.612629,24.096923 36.024074,22.790138 36.938116,21.864931 C 37.852159,20.939726 39.170478,19.814085 40.499839,18.93836 C 43.108594,17.219826 45.954781,15.517623 46.052547,15.470541 C 46.054419,15.469638 46.163851,15.433443 46.163851,15.433443 L 45.466901,13.811698 C 45.466901,13.811698 45.357615,13.848005 45.355598,13.848797 C 45.252522,13.889283 41.996227,14.958215 38.96343,15.7023 C 37.41736,16.081623 35.595583,16.151716 34.295603,16.19287 C 32.995623,16.234026 31.958379,15.724246 31.779652,15.570511 C 31.600926,15.416776 30.904054,14.41901 30.750524,13.127594 C 30.596997,11.836177 30.464945,10.116867 30.609054,8.5316238 C 30.891857,5.420702 31.476736,2.057496 31.500873,1.9517443 C 31.501335,1.9497203 31.537973,1.8404511 31.537973,1.8404511 L 29.730412,1.341579 z M 28.475904,9.749699 C 28.496111,10.080854 28.437534,10.428595 28.475904,10.751338 C 28.677705,12.448807 29.213021,15.632736 30.585128,16.812976 C 31.957235,17.993218 35.341037,18.344064 37.049764,18.289968 C 37.364743,18.279998 37.694106,18.169651 38.014398,18.141579 C 37.780881,18.353375 37.489607,18.515254 37.272372,18.735142 C 36.070932,19.951256 33.859478,22.375582 33.792134,24.184104 C 33.724791,25.992626 35.759362,28.802187 36.867032,30.104269 C 37.077595,30.351789 37.379984,30.532102 37.609058,30.772028 C 37.275124,30.716603 36.936957,30.584539 36.607324,30.549442 C 34.907352,30.368443 31.63171,30.079125 30.175627,31.154075 C 28.719544,32.229023 27.77426,35.498085 27.446777,37.175848 C 27.384054,37.497194 27.417562,37.846271 27.372574,38.177488 C 27.207372,37.881193 27.105833,37.530236 26.927359,37.250044 C 26.008969,35.808228 23.892776,33.204909 22.144414,32.736825 C 20.396054,32.268742 17.3359,33.588499 15.819863,34.378555 C 15.521373,34.534108 15.261473,34.795469 14.966532,34.972119 C 15.095695,34.657198 15.303584,34.359938 15.411748,34.044675 C 15.966507,32.427758 16.929873,29.197886 16.205785,27.539247 C 15.481694,25.880609 12.341579,24.432894 10.778597,23.740315 C 10.479278,23.607682 10.126851,23.561077 9.813964,23.443532 C 10.139408,23.348471 10.502986,23.332511 10.815698,23.220946 C 12.42586,22.646501 15.655769,21.283288 16.501208,19.683082 C 17.346645,18.082874 17.011156,14.687103 16.578185,13.033413 C 16.496013,12.719568 16.309254,12.421003 16.207172,12.105969 C 16.47985,12.29754 16.708833,12.564663 16.986299,12.736632 C 18.439379,13.637227 21.101173,15.22898 22.879506,14.892194 C 24.657839,14.555409 26.970511,11.972484 27.993587,10.602946 C 28.184574,10.347282 28.296032,10.021171 28.475904,9.749699 z "
         style="opacity:0.5;color:#000000;fill:none;fill-opacity:1;fill-rule:nonzero;stroke:#eeeeec;stroke-width:1.01719904;stroke-linecap:square;stroke-linejoin:miter;marker:none;stroke-miterlimit:0;stroke-dasharray:none;stroke-dashoffset:0;stroke-opacity:1;visibility:visible;display:inline;overflow:visible;enable-background:accumulate" />
      <path
         id="path3431"
         d="M 29.039949,0.0872239 C 29.039949,0.0872239 29.001091,0.2036267 29.00042,0.2057996 C 28.965924,0.3177478 28.102712,3.1928663 26.707737,6.2136371 C 25.996705,7.7533554 25.165273,9.293206 24.335996,10.403314 C 23.506719,11.513422 22.645872,12.05616 22.399075,12.1029 C 22.152277,12.14964 21.205161,11.923816 20.027334,11.193819 C 18.849507,10.463823 17.496967,9.362988 16.272077,8.1899001 C 13.874995,5.8941934 12.006084,3.5894102 11.923886,3.4863954 C 11.923512,3.4859274 11.924183,3.4472432 11.923886,3.4468701 C 11.922747,3.4454421 11.844827,3.3678196 11.844827,3.3678196 L 8.8010931,5.6207583 C 8.8010931,5.6207583 10.600345,8.2016375 12.121531,11.233344 C 12.882123,12.749198 13.549382,14.39879 13.900336,15.739223 C 14.251291,17.079656 14.175782,18.046761 14.058452,18.268839 C 13.941123,18.490915 13.189508,19.107543 11.884357,19.573172 C 10.579205,20.038801 8.8218251,20.414196 7.1408751,20.640354 C 3.8601143,21.081753 0.9240001,21.075068 0.776703,21.075132 C 0.77306,21.075133 0.6185869,21.075132 0.6185869,21.075132 L 0.4999999,24.869555 C 0.4999999,24.869555 0.6165731,24.869405 0.6185869,24.869555 C 0.7287862,24.877769 3.7233464,25.090172 6.9827591,25.778636 C 8.6422351,26.129156 10.301215,26.640159 11.568124,27.201545 C 12.835034,27.762932 13.562672,28.433793 13.663162,28.663979 C 13.763652,28.894166 13.796601,29.882969 13.34693,31.193595 C 12.897259,32.504222 12.083584,34.046746 11.212363,35.501848 C 9.5077301,38.348903 7.6585381,40.694305 7.5756941,40.798231 C 7.5738561,40.800536 7.4966361,40.916807 7.4966361,40.916807 L 10.382254,43.367373 C 10.382254,43.367373 10.460057,43.289675 10.461312,43.288322 C 10.533223,43.210758 12.55315,41.021537 15.125736,38.901019 C 16.434476,37.822257 17.849782,36.774648 19.078637,36.134252 C 20.307493,35.493855 21.286799,35.397362 21.529436,35.462322 C 21.772075,35.527283 22.56382,36.111789 23.308242,37.280484 C 24.052664,38.449179 24.769195,40.039937 25.363751,41.628261 C 26.552861,44.80491 27.261144,47.912776 27.261144,47.912776 L 30.976871,47.201322 C 30.976871,47.201322 30.977412,47.04681 30.976871,47.043221 C 30.976871,47.043221 30.976914,47.003885 30.976871,47.003695 C 30.949813,46.823579 30.516345,43.968947 30.462994,40.679656 C 30.435491,38.983941 30.513777,37.217523 30.779226,35.857575 C 31.044675,34.497627 31.565377,33.674767 31.767451,33.525585 C 31.969526,33.376404 32.919359,33.102196 34.297308,33.248908 C 35.675258,33.395621 37.388642,33.830109 39.001261,34.355615 C 42.2265,35.406628 45.08873,36.806181 45.08873,36.806181 L 46.828006,33.446535 C 46.828006,33.446535 46.712007,33.368978 46.709419,33.367484 C 46.593539,33.300604 44.039919,31.836471 41.412531,29.810212 C 40.069493,28.774453 38.752766,27.585046 37.85492,26.529616 C 36.957074,25.474186 36.620174,24.567189 36.62952,24.316202 C 36.638866,24.065215 37.039183,23.167586 38.013036,22.181839 C 38.986889,21.196091 40.391473,20.110948 41.807821,19.177919 C 44.587282,17.346932 47.277248,16.066062 47.381413,16.015899 C 47.383407,16.014938 47.5,15.976374 47.5,15.976374 L 45.958368,12.498152 C 45.958368,12.498152 45.84193,12.536834 45.839781,12.537678 C 45.729961,12.580813 42.983564,13.68164 39.752313,14.474415 C 38.105076,14.878558 36.354346,15.181546 34.969302,15.225394 C 33.584257,15.269243 32.669395,14.954411 32.478974,14.790617 C 32.288553,14.626823 31.812439,13.715972 31.648864,12.340051 C 31.48529,10.964131 31.534855,9.2464701 31.688393,7.5574961 C 31.989701,4.2430098 32.650904,1.3066025 32.676619,1.1939309 C 32.677111,1.1917744 32.716148,1.0753551 32.716148,1.0753551 L 29.039949,0.0872239 z M 27.893608,11.747173 C 27.915138,12.099997 27.852728,12.470494 27.893608,12.814354 C 28.108614,14.622898 28.526754,16.378964 29.988646,17.636435 C 31.450537,18.893906 33.26735,19.077453 35.087889,19.019818 C 35.423479,19.009194 35.774393,18.891626 36.115643,18.861718 C 35.866847,19.087373 35.556513,19.259845 35.325063,19.494121 C 34.045006,20.789812 32.906485,22.231237 32.834735,24.158101 C 32.762984,26.084965 33.78915,27.632422 34.969302,29.019707 C 35.193643,29.283424 35.515818,29.475535 35.759882,29.731161 C 35.404097,29.672109 35.043802,29.531403 34.692599,29.49401 C 32.881388,29.301167 31.06566,29.297327 29.514297,30.442616 C 27.962935,31.587904 27.412411,33.358571 27.063499,35.14612 C 26.996671,35.488493 27.032372,35.860413 26.98444,36.213302 C 26.808428,35.89762 26.700244,35.523697 26.510092,35.225171 C 25.531606,33.689009 24.380428,32.285187 22.517662,31.786474 C 20.654895,31.287762 18.9546,31.932852 17.339361,32.774605 C 17.021339,32.940337 16.744433,33.218801 16.430193,33.407009 C 16.567807,33.071481 16.789299,32.75477 16.904541,32.418878 C 17.4956,30.696158 17.913185,28.929193 17.141716,27.16202 C 16.370245,25.394848 14.775013,24.461222 13.109756,23.723323 C 12.790851,23.582011 12.415362,23.532357 12.082002,23.407121 C 12.428741,23.305838 12.81611,23.288834 13.149285,23.16997 C 14.864809,22.557935 16.517659,21.752392 17.418419,20.047475 C 18.319178,18.342558 18.037838,16.512991 17.576535,14.751092 C 17.488987,14.416709 17.290006,14.098608 17.181245,13.76296 C 17.471765,13.967066 17.715733,14.251668 18.011354,14.43489 C 19.559519,15.394416 21.215898,16.177095 23.110597,15.818273 C 25.005295,15.45945 26.289709,14.115407 27.379731,12.656253 C 27.583215,12.383859 27.701967,12.036409 27.893608,11.747173 z "
         style="opacity:0.7;color:#000000;fill:url(#linearGradient3446);fill-opacity:1;fill-rule:nonzero;stroke:#f57900;stroke-width:1.01719904;stroke-linecap:square;stroke-linejoin:miter;marker:none;stroke-miterlimit:0;stroke-dasharray:none;stroke-dashoffset:0;stroke-opacity:1;visibility:visible;display:inline;overflow:visible;enable-background:accumulate" />
    </g>
  </g>
</svg>
