<?xml version="1.0" encoding="UTF-8" standalone="no"?>
<!-- Created with Inkscape (http://www.inkscape.org/) -->
<svg
   xmlns:dc="http://purl.org/dc/elements/1.1/"
   xmlns:cc="http://web.resource.org/cc/"
   xmlns:rdf="http://www.w3.org/1999/02/22-rdf-syntax-ns#"
   xmlns:svg="http://www.w3.org/2000/svg"
   xmlns="http://www.w3.org/2000/svg"
   xmlns:xlink="http://www.w3.org/1999/xlink"
   xmlns:sodipodi="http://sodipodi.sourceforge.net/DTD/sodipodi-0.dtd"
   xmlns:inkscape="http://www.inkscape.org/namespaces/inkscape"
   width="22"
   height="22"
   id="svg2160"
   sodipodi:version="0.32"
   inkscape:version="0.45"
   sodipodi:docbase="/home/lse/public_html/Bambus/System/Icons/0.12/scalable/status"
   sodipodi:docname="small-new.svg"
   inkscape:output_extension="org.inkscape.output.svg.inkscape"
   version="1.0"
   sodipodi:modified="true">
  <defs
     id="defs2162">
    <linearGradient
       inkscape:collect="always"
       id="linearGradient3433">
      <stop
         style="stop-color:#ffffff;stop-opacity:1;"
         offset="0"
         id="stop3435" />
      <stop
         style="stop-color:#ffffff;stop-opacity:0;"
         offset="1"
         id="stop3437" />
    </linearGradient>
    <marker
       inkscape:stockid="SquareS"
       orient="auto"
       refY="0"
       refX="0"
       id="SquareS"
       style="overflow:visible">
      <path
         id="path3258"
         d="M -5,-5 L -5,5 L 5,5 L 5,-5 L -5,-5 z "
         style="fill-rule:evenodd;stroke:#000000;stroke-width:1pt;marker-start:none"
         transform="scale(0.2,0.2)" />
    </marker>
    <marker
       inkscape:stockid="Legs"
       orient="auto"
       refY="0"
       refX="0"
       id="Legs"
       style="overflow:visible">
      <g
         id="g3188"
         transform="scale(-0.7,-0.7)">
        <g
           id="g3190"
           transform="matrix(0,-1,-1,0,20.70862,21.31391)">
          <path
             id="path3192"
             d="M 21.22125,20.67536 C 14.311099,25.396517 18.766725,27.282204 15.380179,34.118595"
             style="fill:none;fill-opacity:0.75;fill-rule:evenodd;stroke:#000000;stroke-width:1pt;marker-start:none;marker-end:none" />
          <path
             id="path3194"
             d="M 21.39811,20.54812 C 20.037601,28.895644 24.934182,29.31806 25.903151,34.373078"
             style="fill:none;fill-opacity:0.75;fill-rule:evenodd;stroke:#000000;stroke-width:1pt;marker-start:none;marker-end:none" />
        </g>
        <path
           id="path3196"
           d="M -14.09007,-6.7318716 L -15.012238,-2.6884886 L -11.049487,-3.9115586 L -14.09007,-6.7318716 z "
           style="fill:#030300;fill-rule:evenodd;stroke-width:1pt;marker-end:none" />
        <path
           id="path3198"
           d="M -15.215679,4.5567534 L -13.341552,8.2563664 L -11.074678,4.7835114 L -15.215679,4.5567534 z "
           style="fill:#030300;fill-rule:evenodd;stroke-width:1pt;marker-end:none" />
      </g>
    </marker>
    <marker
       inkscape:stockid="Club"
       orient="auto"
       refY="0"
       refX="0"
       id="Club"
       style="overflow:visible">
      <path
         id="path3168"
         d="M -1.5971367,-7.0977635 C -3.4863874,-7.0977635 -5.0235187,-5.5606321 -5.0235187,-3.6713813 C -5.0235187,-3.0147015 -4.7851656,-2.4444556 -4.4641095,-1.9232271 C -4.5028609,-1.8911157 -4.5437814,-1.8647646 -4.5806531,-1.8299921 C -5.2030765,-2.6849849 -6.1700514,-3.275133 -7.307773,-3.275133 C -9.1970245,-3.2751331 -10.734155,-1.7380016 -10.734155,0.15124914 C -10.734155,2.0404999 -9.1970245,3.5776313 -7.307773,3.5776313 C -6.3143268,3.5776313 -5.439154,3.1355702 -4.8137404,2.4588126 C -4.9384274,2.8137041 -5.0235187,3.1803 -5.0235187,3.5776313 C -5.0235187,5.4668819 -3.4863874,7.0040135 -1.5971367,7.0040135 C 0.29211394,7.0040135 1.8292454,5.4668819 1.8292454,3.5776313 C 1.8292454,2.7842354 1.5136868,2.0838028 1.0600576,1.503155 C 2.4152718,1.7663868 3.7718375,2.2973711 4.7661444,3.8340272 C 4.0279463,3.0958289 3.5540908,1.7534117 3.5540908,-0.058529361 L 2.9247554,-0.10514681 L 3.5074733,-0.12845553 C 3.5074733,-1.9403966 3.9580199,-3.2828138 4.6962183,-4.0210121 C 3.7371277,-2.5387813 2.4390549,-1.9946496 1.1299838,-1.7134486 C 1.5341802,-2.2753578 1.8292454,-2.9268556 1.8292454,-3.6713813 C 1.8292454,-5.5606319 0.29211394,-7.0977635 -1.5971367,-7.0977635 z "
         style="fill-rule:evenodd;stroke:#000000;stroke-width:0.74587913pt;marker-start:none"
         transform="scale(0.6,0.6)" />
    </marker>
    <marker
       style="overflow:visible"
       inkscape:stockid="InfiniteLineStart"
       id="InfiniteLineStart"
       refX="0"
       refY="0"
       orient="auto">
      <g
         id="g3147"
         transform="translate(-13,0)">
        <circle
           id="circle3149"
           r="0.80000001"
           cy="0"
           cx="3"
           sodipodi:cx="3"
           sodipodi:cy="0"
           sodipodi:rx="0.80000001"
           sodipodi:ry="0.80000001" />
        <circle
           id="circle3151"
           r="0.80000001"
           cy="0"
           cx="6.5"
           sodipodi:cx="6.5"
           sodipodi:cy="0"
           sodipodi:rx="0.80000001"
           sodipodi:ry="0.80000001" />
        <circle
           id="circle3153"
           r="0.80000001"
           cy="0"
           cx="10"
           sodipodi:cx="10"
           sodipodi:cy="0"
           sodipodi:rx="0.80000001"
           sodipodi:ry="0.80000001" />
      </g>
    </marker>
    <marker
       inkscape:stockid="TriangleOutL"
       orient="auto"
       refY="0"
       refX="0"
       id="TriangleOutL"
       style="overflow:visible">
      <path
         id="path3237"
         d="M 5.77,0 L -2.88,5 L -2.88,-5 L 5.77,0 z "
         style="fill-rule:evenodd;stroke:#000000;stroke-width:1pt;marker-start:none"
         transform="scale(0.8,0.8)" />
    </marker>
    <marker
       inkscape:stockid="Torso"
       orient="auto"
       refY="0"
       refX="0"
       id="Torso"
       style="overflow:visible">
      <g
         id="g3171"
         transform="scale(0.7,0.7)">
        <path
           id="path3173"
           d="M -4.7792281,-3.239542 C -2.4288541,-2.8736027 0.52103922,-1.3019943 0.25792722,0.38794346 C -0.0051877922,2.0778819 -2.2126741,2.6176539 -4.5630471,2.2517169 C -6.9134221,1.8857769 -8.521035,0.75201414 -8.257922,-0.93792336 C -7.994809,-2.6278615 -7.1296041,-3.6054813 -4.7792281,-3.239542 z "
           style="fill:none;fill-opacity:0.75;fill-rule:evenodd;stroke:#000000;stroke-width:1.25;marker-start:none;marker-mid:none;marker-end:none" />
        <path
           id="path3175"
           d="M 4.4598789,0.088665736 C -2.5564571,-4.378332 5.2248769,-3.9061806 -0.84829578,-8.7197331"
           style="fill:none;fill-opacity:0.75;fill-rule:evenodd;stroke:#000000;stroke-width:1pt;marker-end:none" />
        <path
           id="path3177"
           d="M 4.9298719,0.057520736 C -1.3872731,1.7494689 1.8027579,5.4782079 -4.9448731,7.5462725"
           style="fill:none;fill-opacity:0.75;fill-rule:evenodd;stroke:#000000;stroke-width:1pt;marker-start:none;marker-end:none" />
        <rect
           id="rect3179"
           transform="matrix(0.527536,-0.849533,0.887668,0.460484,0,0)"
           y="-1.7408575"
           x="-10.391706"
           height="2.7608147"
           width="2.6366582"
           style="fill-rule:evenodd;stroke-width:1pt;marker-end:none" />
        <rect
           id="rect3181"
           transform="matrix(0.671205,-0.741272,0.790802,0.612072,0,0)"
           y="-7.9629307"
           x="4.9587269"
           height="2.8614161"
           width="2.7327356"
           style="fill-rule:evenodd;stroke-width:1pt;marker-end:none" />
        <path
           id="path3183"
           transform="matrix(0,-1.109517,1.109517,0,25.96648,19.71619)"
           d="M 16.779951 -28.685045 A 0.60731727 0.60731727 0 1 1  15.565317,-28.685045 A 0.60731727 0.60731727 0 1 1  16.779951 -28.685045 z"
           sodipodi:ry="0.60731727"
           sodipodi:rx="0.60731727"
           sodipodi:cy="-28.685045"
           sodipodi:cx="16.172634"
           style="fill:#ff0000;fill-opacity:0.75;fill-rule:evenodd;stroke:#000000;stroke-width:1pt;marker-start:none;marker-end:none"
           sodipodi:type="arc" />
        <path
           id="path3185"
           transform="matrix(0,-1.109517,1.109517,0,26.8245,16.99126)"
           d="M 16.779951 -28.685045 A 0.60731727 0.60731727 0 1 1  15.565317,-28.685045 A 0.60731727 0.60731727 0 1 1  16.779951 -28.685045 z"
           sodipodi:ry="0.60731727"
           sodipodi:rx="0.60731727"
           sodipodi:cy="-28.685045"
           sodipodi:cx="16.172634"
           style="fill:#ff0000;fill-opacity:0.75;fill-rule:evenodd;stroke:#000000;stroke-width:1pt;marker-start:none;marker-end:none"
           sodipodi:type="arc" />
      </g>
    </marker>
    <linearGradient
       inkscape:collect="always"
       xlink:href="#linearGradient3433"
       id="linearGradient3446"
       gradientUnits="userSpaceOnUse"
       x1="22.728432"
       y1="-2.2045815"
       x2="22.728432"
       y2="49.220219" />
    <linearGradient
       inkscape:collect="always"
       xlink:href="#linearGradient3433"
       id="linearGradient3467"
       gradientUnits="userSpaceOnUse"
       x1="22.728432"
       y1="-2.2045815"
       x2="22.728432"
       y2="49.220219"
       gradientTransform="matrix(0.4457783,0,0,0.4457783,0.3013208,0.3013208)" />
  </defs>
  <sodipodi:namedview
     id="base"
     pagecolor="#ffffff"
     bordercolor="#666666"
     borderopacity="1.0"
     inkscape:pageopacity="0.0"
     inkscape:pageshadow="2"
     inkscape:zoom="19.79899"
     inkscape:cx="29.43506"
     inkscape:cy="6.0567127"
     inkscape:current-layer="layer1"
     showgrid="true"
     inkscape:grid-bbox="true"
     inkscape:document-units="px"
     inkscape:window-width="1272"
     inkscape:window-height="949"
     inkscape:window-x="0"
     inkscape:window-y="24"
     width="22px"
     height="22px" />
  <metadata
     id="metadata2165">
    <rdf:RDF>
      <cc:Work
         rdf:about="">
        <dc:format>image/svg+xml</dc:format>
        <dc:type
           rdf:resource="http://purl.org/dc/dcmitype/StillImage" />
      </cc:Work>
    </rdf:RDF>
  </metadata>
  <g
     id="layer1"
     inkscape:label="Layer 1"
     inkscape:groupmode="layer">
    <path
       sodipodi:type="arc"
       style="opacity:1;color:#000000;fill:#f57900;fill-opacity:1;fill-rule:nonzero;stroke:#f57900;stroke-width:0.40000001;stroke-linecap:square;stroke-linejoin:miter;marker:none;marker-start:none;marker-mid:none;marker-end:none;stroke-miterlimit:4;stroke-dasharray:none;stroke-dashoffset:0;stroke-opacity:1;visibility:visible;display:inline;overflow:visible;enable-background:accumulate"
       id="path2192"
       sodipodi:cx="10.556094"
       sodipodi:cy="10.484262"
       sodipodi:rx="5.0002551"
       sodipodi:ry="5.0002551"
       d="M 15.556349 10.484262 A 5.0002551 5.0002551 0 1 1  5.5558391,10.484262 A 5.0002551 5.0002551 0 1 1  15.556349 10.484262 z"
       transform="translate(0.6441609,0.3154824)" />
    <path
       style="color:#000000;fill:#fcaf3e;fill-opacity:1;fill-rule:nonzero;stroke:#f57900;stroke-width:1.00000024;stroke-linecap:square;stroke-linejoin:miter;marker:none;stroke-miterlimit:0;stroke-dasharray:none;stroke-dashoffset:0;stroke-opacity:1;visibility:visible;display:inline;overflow:visible;enable-background:accumulate"
       d="M 13.2467,0.34020332 C 13.2467,0.34020332 13.229378,0.39209316 13.229079,0.3930618 C 13.213701,0.44296587 12.8289,1.7246313 12.20705,3.0712254 C 11.890088,3.7575984 11.519453,4.4440304 11.14978,4.9388924 C 10.780106,5.4337545 10.396359,5.6756953 10.286342,5.696531 C 10.176325,5.7173667 9.7541214,5.6166992 9.2290717,5.2912824 C 8.704022,4.965866 8.101089,4.4751377 7.5550596,3.9522005 C 6.4864925,2.9288243 5.6533725,1.901402 5.6167304,1.8554802 C 5.6165637,1.8552716 5.6168628,1.838027 5.6167304,1.8378607 C 5.6162227,1.8372241 5.5814876,1.8026217 5.5814876,1.8026217 L 4.2246571,2.8069329 C 4.2246571,2.8069329 5.0267246,3.9574328 5.7048363,5.3089018 C 6.0438917,5.9846366 6.3413413,6.7199889 6.497789,7.3175249 C 6.6542371,7.9150608 6.6205768,8.3461752 6.5682736,8.4451728 C 6.5159709,8.5441695 6.1809173,8.8190488 5.5991093,9.0266161 C 5.0173008,9.2341834 4.233899,9.4015264 3.484568,9.5023427 C 2.022076,9.6991088 0.71321999,9.6961288 0.64755814,9.6961573 C 0.64593417,9.6961578 0.57707342,9.6961573 0.57707342,9.6961573 L 0.52420991,11.387629 C 0.52420991,11.387629 0.57617571,11.387562 0.57707342,11.387629 C 0.62619787,11.39129 1.9611078,11.485975 3.4140833,11.792877 C 4.1538417,11.949132 4.8933789,12.176926 5.4581395,12.427179 C 6.0229004,12.677433 6.3472657,12.976489 6.3920619,13.079101 C 6.4368582,13.181713 6.4515461,13.6225 6.2510926,14.206749 C 6.050639,14.790998 5.6879203,15.478621 5.2995489,16.127274 C 4.5396606,17.39643 3.7153309,18.441959 3.6784008,18.488287 C 3.6775815,18.489314 3.6431585,18.541145 3.6431585,18.541145 L 4.9295043,19.633555 C 4.9295043,19.633555 4.9641872,19.598919 4.9647467,19.598315 C 4.996803,19.563739 5.8972427,18.587832 7.0440457,17.642551 C 7.6274536,17.161662 8.2583663,16.694661 8.8061632,16.409186 C 9.3539605,16.123711 9.7905139,16.080697 9.8986762,16.109654 C 10.006839,16.138613 10.359782,16.399173 10.691629,16.920152 C 11.023476,17.44113 11.34289,18.150256 11.607931,18.858296 C 12.13801,20.274377 12.453747,21.659797 12.453747,21.659797 L 14.110138,21.342646 C 14.110138,21.342646 14.110379,21.273768 14.110138,21.272168 C 14.110138,21.272168 14.110157,21.254633 14.110138,21.254548 C 14.098076,21.174256 13.904845,19.901723 13.881062,18.435429 C 13.868802,17.679516 13.9037,16.892085 14.022032,16.28585 C 14.140363,15.679614 14.372481,15.312801 14.462561,15.246299 C 14.552642,15.179797 14.976057,15.057561 15.590316,15.122962 C 16.204577,15.188364 16.968366,15.382049 17.687237,15.616308 C 19.124978,16.084827 20.400898,16.708718 20.400898,16.708718 L 21.17623,15.21106 C 21.17623,15.21106 21.12452,15.176487 21.123366,15.175821 C 21.071709,15.146007 19.933361,14.493329 18.762128,13.590066 C 18.163431,13.128348 17.576463,12.598136 17.176223,12.127648 C 16.775982,11.65716 16.6258,11.252841 16.629966,11.140956 C 16.634132,11.029071 16.812585,10.628928 17.246707,10.189503 C 17.68083,9.7500782 18.306963,9.266345 18.93834,8.8504209 C 20.177364,8.0342067 21.376492,7.4632226 21.422927,7.440861 C 21.423815,7.4404326 21.47579,7.4232416 21.47579,7.4232416 L 20.788564,5.8727258 C 20.788564,5.8727258 20.736658,5.8899693 20.7357,5.8903456 C 20.686745,5.9095742 19.462461,6.400299 18.022039,6.7537009 C 17.287737,6.9338591 16.507299,7.0689246 15.889877,7.0884711 C 15.272454,7.108018 14.864628,6.9676727 14.779743,6.8946569 C 14.694857,6.8216411 14.482616,6.4156035 14.409698,5.8022478 C 14.33678,5.1888925 14.358875,4.4231965 14.427319,3.6702886 C 14.561635,2.1927625 14.856385,0.88377584 14.867848,0.83354929 C 14.868068,0.83258797 14.88547,0.78069077 14.88547,0.78069077 L 13.2467,0.34020332 z M 12.735686,5.5379556 C 12.745284,5.6952369 12.717463,5.8603964 12.735686,6.0136817 C 12.831531,6.8198914 13.017929,7.6027075 13.669608,8.1632608 C 14.321288,8.7238141 15.131184,8.8056354 15.94274,8.7799429 C 16.092339,8.775207 16.248769,8.7227977 16.400891,8.7094654 C 16.289983,8.8100575 16.151643,8.8869418 16.048467,8.9913769 C 15.477846,9.5689679 14.970318,10.211524 14.938333,11.070478 C 14.906348,11.929432 15.363791,12.619255 15.889877,13.237676 C 15.989883,13.355236 16.133502,13.440875 16.2423,13.554827 C 16.083699,13.528503 15.923087,13.465779 15.766529,13.44911 C 14.95913,13.363145 14.149718,13.361433 13.458154,13.871978 C 12.76659,14.382523 12.521179,15.171848 12.365641,15.968698 C 12.335851,16.121321 12.351766,16.287115 12.330399,16.444425 C 12.251936,16.303701 12.20371,16.137014 12.118945,16.003938 C 11.682757,15.31915 11.169587,14.693357 10.339206,14.471041 C 9.5088248,14.248726 8.7508702,14.536293 8.0308317,14.911529 C 7.8890644,14.985408 7.7656257,15.109541 7.6255443,15.19344 C 7.6868896,15.043869 7.785626,14.902686 7.8369983,14.752953 C 8.1004796,13.985002 8.28663,13.197327 7.9427258,12.40956 C 7.5988208,11.621793 6.887701,11.205603 6.1453655,10.876663 C 6.0032046,10.81367 5.8358198,10.791535 5.6872151,10.735707 C 5.8417838,10.690558 6.0144645,10.682978 6.1629867,10.629991 C 6.9277301,10.357159 7.6645347,9.9980651 8.066074,9.2380501 C 8.4676128,8.4780351 8.3421976,7.6624539 8.1365587,6.8770375 C 8.0975317,6.7279768 8.0088303,6.5861743 7.960347,6.4365497 C 8.0898545,6.5275357 8.1986101,6.6544051 8.3303916,6.7360815 C 9.0205299,7.1638174 9.7589077,7.5127187 10.603523,7.3527636 C 11.448139,7.1928081 12.020703,6.5936629 12.506611,5.9432037 C 12.597319,5.8217764 12.650257,5.6668907 12.735686,5.5379556 z "
       id="path3419" />
    <path
       style="color:#000000;fill:#eeeeec;fill-opacity:1;fill-rule:nonzero;stroke:#f57900;stroke-width:1.00000024;stroke-linecap:square;stroke-linejoin:miter;marker:none;stroke-miterlimit:0;stroke-dasharray:none;stroke-dashoffset:0;stroke-opacity:1;visibility:visible;display:inline;overflow:visible;enable-background:accumulate;opacity:0.5"
       d="M 13.2467,0.34020332 C 13.2467,0.34020332 13.229378,0.39209316 13.229079,0.3930618 C 13.213701,0.44296587 12.8289,1.7246313 12.20705,3.0712254 C 11.890088,3.7575984 11.519453,4.4440304 11.14978,4.9388924 C 10.780106,5.4337545 10.396359,5.6756953 10.286342,5.696531 C 10.176325,5.7173667 9.7541214,5.6166992 9.2290717,5.2912824 C 8.704022,4.965866 8.101089,4.4751377 7.5550596,3.9522005 C 6.4864925,2.9288243 5.6533725,1.901402 5.6167304,1.8554802 C 5.6165637,1.8552716 5.6168628,1.838027 5.6167304,1.8378607 C 5.6162227,1.8372241 5.5814876,1.8026217 5.5814876,1.8026217 L 4.2246571,2.8069329 C 4.2246571,2.8069329 5.0267246,3.9574328 5.7048363,5.3089018 C 6.0438917,5.9846366 6.3413413,6.7199889 6.497789,7.3175249 C 6.6542371,7.9150608 6.6205768,8.3461752 6.5682736,8.4451728 C 6.5159709,8.5441695 6.1809173,8.8190488 5.5991093,9.0266161 C 5.0173008,9.2341834 4.233899,9.4015264 3.484568,9.5023427 C 2.022076,9.6991088 0.71321999,9.6961288 0.64755814,9.6961573 C 0.64593417,9.6961578 0.57707342,9.6961573 0.57707342,9.6961573 L 0.52420991,11.387629 C 0.52420991,11.387629 0.57617571,11.387562 0.57707342,11.387629 C 0.62619787,11.39129 1.9611078,11.485975 3.4140833,11.792877 C 4.1538417,11.949132 4.8933789,12.176926 5.4581395,12.427179 C 6.0229004,12.677433 6.3472657,12.976489 6.3920619,13.079101 C 6.4368582,13.181713 6.4515461,13.6225 6.2510926,14.206749 C 6.050639,14.790998 5.6879203,15.478621 5.2995489,16.127274 C 4.5396606,17.39643 3.7153309,18.441959 3.6784008,18.488287 C 3.6775815,18.489314 3.6431585,18.541145 3.6431585,18.541145 L 4.9295043,19.633555 C 4.9295043,19.633555 4.9641872,19.598919 4.9647467,19.598315 C 4.996803,19.563739 5.8972427,18.587832 7.0440457,17.642551 C 7.6274536,17.161662 8.2583663,16.694661 8.8061632,16.409186 C 9.3539605,16.123711 9.7905139,16.080697 9.8986762,16.109654 C 10.006839,16.138613 10.359782,16.399173 10.691629,16.920152 C 11.023476,17.44113 11.34289,18.150256 11.607931,18.858296 C 12.13801,20.274377 12.453747,21.659797 12.453747,21.659797 L 14.110138,21.342646 C 14.110138,21.342646 14.110379,21.273768 14.110138,21.272168 C 14.110138,21.272168 14.110157,21.254633 14.110138,21.254548 C 14.098076,21.174256 13.904845,19.901723 13.881062,18.435429 C 13.868802,17.679516 13.9037,16.892085 14.022032,16.28585 C 14.140363,15.679614 14.372481,15.312801 14.462561,15.246299 C 14.552642,15.179797 14.976057,15.057561 15.590316,15.122962 C 16.204577,15.188364 16.968366,15.382049 17.687237,15.616308 C 19.124978,16.084827 20.400898,16.708718 20.400898,16.708718 L 21.17623,15.21106 C 21.17623,15.21106 21.12452,15.176487 21.123366,15.175821 C 21.071709,15.146007 19.933361,14.493329 18.762128,13.590066 C 18.163431,13.128348 17.576463,12.598136 17.176223,12.127648 C 16.775982,11.65716 16.6258,11.252841 16.629966,11.140956 C 16.634132,11.029071 16.812585,10.628928 17.246707,10.189503 C 17.68083,9.7500782 18.306963,9.266345 18.93834,8.8504209 C 20.177364,8.0342067 21.376492,7.4632226 21.422927,7.440861 C 21.423815,7.4404326 21.47579,7.4232416 21.47579,7.4232416 L 20.788564,5.8727258 C 20.788564,5.8727258 20.736658,5.8899693 20.7357,5.8903456 C 20.686745,5.9095742 19.462461,6.400299 18.022039,6.7537009 C 17.287737,6.9338591 16.507299,7.0689246 15.889877,7.0884711 C 15.272454,7.108018 14.864628,6.9676727 14.779743,6.8946569 C 14.694857,6.8216411 14.482616,6.4156035 14.409698,5.8022478 C 14.33678,5.1888925 14.358875,4.4231965 14.427319,3.6702886 C 14.561635,2.1927625 14.856385,0.88377584 14.867848,0.83354929 C 14.868068,0.83258797 14.88547,0.78069077 14.88547,0.78069077 L 13.2467,0.34020332 z M 12.735686,5.5379556 C 12.745284,5.6952369 12.717463,5.8603964 12.735686,6.0136817 C 12.831531,6.8198914 13.017929,7.6027075 13.669608,8.1632608 C 14.321288,8.7238141 15.131184,8.8056354 15.94274,8.7799429 C 16.092339,8.775207 16.248769,8.7227977 16.400891,8.7094654 C 16.289983,8.8100575 16.151643,8.8869418 16.048467,8.9913769 C 15.477846,9.5689679 14.970318,10.211524 14.938333,11.070478 C 14.906348,11.929432 15.363791,12.619255 15.889877,13.237676 C 15.989883,13.355236 16.133502,13.440875 16.2423,13.554827 C 16.083699,13.528503 15.923087,13.465779 15.766529,13.44911 C 14.95913,13.363145 14.149718,13.361433 13.458154,13.871978 C 12.76659,14.382523 12.521179,15.171848 12.365641,15.968698 C 12.335851,16.121321 12.351766,16.287115 12.330399,16.444425 C 12.251936,16.303701 12.20371,16.137014 12.118945,16.003938 C 11.682757,15.31915 11.169587,14.693357 10.339206,14.471041 C 9.5088248,14.248726 8.7508702,14.536293 8.0308317,14.911529 C 7.8890644,14.985408 7.7656257,15.109541 7.6255443,15.19344 C 7.6868896,15.043869 7.785626,14.902686 7.8369983,14.752953 C 8.1004796,13.985002 8.28663,13.197327 7.9427258,12.40956 C 7.5988208,11.621793 6.887701,11.205603 6.1453655,10.876663 C 6.0032046,10.81367 5.8358198,10.791535 5.6872151,10.735707 C 5.8417838,10.690558 6.0144645,10.682978 6.1629867,10.629991 C 6.9277301,10.357159 7.6645347,9.9980651 8.066074,9.2380501 C 8.4676128,8.4780351 8.3421976,7.6624539 8.1365587,6.8770375 C 8.0975317,6.7279768 8.0088303,6.5861743 7.960347,6.4365497 C 8.0898545,6.5275357 8.1986101,6.6544051 8.3303916,6.7360815 C 9.0205299,7.1638174 9.7589077,7.5127187 10.603523,7.3527636 C 11.448139,7.1928081 12.020703,6.5936629 12.506611,5.9432037 C 12.597319,5.8217764 12.650257,5.6668907 12.735686,5.5379556 z "
       id="path3474" />
    <path
       style="opacity:0.7;color:#000000;fill:url(#linearGradient3467);fill-opacity:1;fill-rule:nonzero;stroke:#f57900;stroke-width:1.00000024;stroke-linecap:square;stroke-linejoin:miter;marker:none;stroke-miterlimit:0;stroke-dasharray:none;stroke-dashoffset:0;stroke-opacity:1;visibility:visible;display:inline;overflow:visible;enable-background:accumulate"
       d="M 13.2467,0.34020332 C 13.2467,0.34020332 13.229378,0.39209316 13.229079,0.3930618 C 13.213701,0.44296587 12.8289,1.7246313 12.20705,3.0712254 C 11.890088,3.7575984 11.519453,4.4440304 11.14978,4.9388924 C 10.780106,5.4337545 10.396359,5.6756953 10.286342,5.696531 C 10.176325,5.7173667 9.7541214,5.6166992 9.2290717,5.2912824 C 8.704022,4.965866 8.101089,4.4751377 7.5550596,3.9522005 C 6.4864925,2.9288243 5.6533725,1.901402 5.6167304,1.8554802 C 5.6165637,1.8552716 5.6168628,1.838027 5.6167304,1.8378607 C 5.6162227,1.8372241 5.5814876,1.8026217 5.5814876,1.8026217 L 4.2246571,2.8069329 C 4.2246571,2.8069329 5.0267246,3.9574328 5.7048363,5.3089018 C 6.0438917,5.9846366 6.3413413,6.7199889 6.497789,7.3175249 C 6.6542371,7.9150608 6.6205768,8.3461752 6.5682736,8.4451728 C 6.5159709,8.5441695 6.1809173,8.8190488 5.5991093,9.0266161 C 5.0173008,9.2341834 4.233899,9.4015264 3.484568,9.5023427 C 2.022076,9.6991088 0.71321999,9.6961288 0.64755814,9.6961573 C 0.64593417,9.6961578 0.57707342,9.6961573 0.57707342,9.6961573 L 0.52420991,11.387629 C 0.52420991,11.387629 0.57617571,11.387562 0.57707342,11.387629 C 0.62619787,11.39129 1.9611078,11.485975 3.4140833,11.792877 C 4.1538417,11.949132 4.8933789,12.176926 5.4581395,12.427179 C 6.0229004,12.677433 6.3472657,12.976489 6.3920619,13.079101 C 6.4368582,13.181713 6.4515461,13.6225 6.2510926,14.206749 C 6.050639,14.790998 5.6879203,15.478621 5.2995489,16.127274 C 4.5396606,17.39643 3.7153309,18.441959 3.6784008,18.488287 C 3.6775815,18.489314 3.6431585,18.541145 3.6431585,18.541145 L 4.9295043,19.633555 C 4.9295043,19.633555 4.9641872,19.598919 4.9647467,19.598315 C 4.996803,19.563739 5.8972427,18.587832 7.0440457,17.642551 C 7.6274536,17.161662 8.2583663,16.694661 8.8061632,16.409186 C 9.3539605,16.123711 9.7905139,16.080697 9.8986762,16.109654 C 10.006839,16.138613 10.359782,16.399173 10.691629,16.920152 C 11.023476,17.44113 11.34289,18.150256 11.607931,18.858296 C 12.13801,20.274377 12.453747,21.659797 12.453747,21.659797 L 14.110138,21.342646 C 14.110138,21.342646 14.110379,21.273768 14.110138,21.272168 C 14.110138,21.272168 14.110157,21.254633 14.110138,21.254548 C 14.098076,21.174256 13.904845,19.901723 13.881062,18.435429 C 13.868802,17.679516 13.9037,16.892085 14.022032,16.28585 C 14.140363,15.679614 14.372481,15.312801 14.462561,15.246299 C 14.552642,15.179797 14.976057,15.057561 15.590316,15.122962 C 16.204577,15.188364 16.968366,15.382049 17.687237,15.616308 C 19.124978,16.084827 20.400898,16.708718 20.400898,16.708718 L 21.17623,15.21106 C 21.17623,15.21106 21.12452,15.176487 21.123366,15.175821 C 21.071709,15.146007 19.933361,14.493329 18.762128,13.590066 C 18.163431,13.128348 17.576463,12.598136 17.176223,12.127648 C 16.775982,11.65716 16.6258,11.252841 16.629966,11.140956 C 16.634132,11.029071 16.812585,10.628928 17.246707,10.189503 C 17.68083,9.7500782 18.306963,9.266345 18.93834,8.8504209 C 20.177364,8.0342067 21.376492,7.4632226 21.422927,7.440861 C 21.423815,7.4404326 21.47579,7.4232416 21.47579,7.4232416 L 20.788564,5.8727258 C 20.788564,5.8727258 20.736658,5.8899693 20.7357,5.8903456 C 20.686745,5.9095742 19.462461,6.400299 18.022039,6.7537009 C 17.287737,6.9338591 16.507299,7.0689246 15.889877,7.0884711 C 15.272454,7.108018 14.864628,6.9676727 14.779743,6.8946569 C 14.694857,6.8216411 14.482616,6.4156035 14.409698,5.8022478 C 14.33678,5.1888925 14.358875,4.4231965 14.427319,3.6702886 C 14.561635,2.1927625 14.856385,0.88377584 14.867848,0.83354929 C 14.868068,0.83258797 14.88547,0.78069077 14.88547,0.78069077 L 13.2467,0.34020332 z M 12.735686,5.5379556 C 12.745284,5.6952369 12.717463,5.8603964 12.735686,6.0136817 C 12.831531,6.8198914 13.017929,7.6027075 13.669608,8.1632608 C 14.321288,8.7238141 15.131184,8.8056354 15.94274,8.7799429 C 16.092339,8.775207 16.248769,8.7227977 16.400891,8.7094654 C 16.289983,8.8100575 16.151643,8.8869418 16.048467,8.9913769 C 15.477846,9.5689679 14.970318,10.211524 14.938333,11.070478 C 14.906348,11.929432 15.363791,12.619255 15.889877,13.237676 C 15.989883,13.355236 16.133502,13.440875 16.2423,13.554827 C 16.083699,13.528503 15.923087,13.465779 15.766529,13.44911 C 14.95913,13.363145 14.149718,13.361433 13.458154,13.871978 C 12.76659,14.382523 12.521179,15.171848 12.365641,15.968698 C 12.335851,16.121321 12.351766,16.287115 12.330399,16.444425 C 12.251936,16.303701 12.20371,16.137014 12.118945,16.003938 C 11.682757,15.31915 11.169587,14.693357 10.339206,14.471041 C 9.5088248,14.248726 8.7508702,14.536293 8.0308317,14.911529 C 7.8890644,14.985408 7.7656257,15.109541 7.6255443,15.19344 C 7.6868896,15.043869 7.785626,14.902686 7.8369983,14.752953 C 8.1004796,13.985002 8.28663,13.197327 7.9427258,12.40956 C 7.5988208,11.621793 6.887701,11.205603 6.1453655,10.876663 C 6.0032046,10.81367 5.8358198,10.791535 5.6872151,10.735707 C 5.8417838,10.690558 6.0144645,10.682978 6.1629867,10.629991 C 6.9277301,10.357159 7.6645347,9.9980651 8.066074,9.2380501 C 8.4676128,8.4780351 8.3421976,7.6624539 8.1365587,6.8770375 C 8.0975317,6.7279768 8.0088303,6.5861743 7.960347,6.4365497 C 8.0898545,6.5275357 8.1986101,6.6544051 8.3303916,6.7360815 C 9.0205299,7.1638174 9.7589077,7.5127187 10.603523,7.3527636 C 11.448139,7.1928081 12.020703,6.5936629 12.506611,5.9432037 C 12.597319,5.8217764 12.650257,5.6668907 12.735686,5.5379556 z "
       id="path3431" />
  </g>
</svg>
