<?xml version="1.0" encoding="UTF-8" standalone="no"?>
<!-- Created with Inkscape (http://www.inkscape.org/) -->
<svg
   xmlns:dc="http://purl.org/dc/elements/1.1/"
   xmlns:cc="http://creativecommons.org/ns#"
   xmlns:rdf="http://www.w3.org/1999/02/22-rdf-syntax-ns#"
   xmlns:svg="http://www.w3.org/2000/svg"
   xmlns="http://www.w3.org/2000/svg"
   xmlns:xlink="http://www.w3.org/1999/xlink"
   xmlns:sodipodi="http://sodipodi.sourceforge.net/DTD/sodipodi-0.dtd"
   xmlns:inkscape="http://www.inkscape.org/namespaces/inkscape"
   width="22"
   height="22"
   id="svg5214"
   sodipodi:version="0.32"
   inkscape:version="0.46"
   version="1.0"
   inkscape:export-filename="/Users/lse/Sites/BambusONE/System/ClientData/Icons/tango/small/actions/link.png"
   inkscape:export-xdpi="90"
   inkscape:export-ydpi="90"
   sodipodi:docname="action-link-content-small.svg"
   inkscape:output_extension="org.inkscape.output.svg.inkscape">
  <defs
     id="defs5216">
    <linearGradient
       inkscape:collect="always"
       id="linearGradient14316">
      <stop
         style="stop-color:#eeeeec;stop-opacity:1"
         offset="0"
         id="stop14318" />
      <stop
         style="stop-color:#ffffff;stop-opacity:1"
         offset="1"
         id="stop14320" />
    </linearGradient>
    <linearGradient
       inkscape:collect="always"
       id="linearGradient3446">
      <stop
         style="stop-color:#ffffff;stop-opacity:1"
         offset="0"
         id="stop3448" />
      <stop
         style="stop-color:#ffffff;stop-opacity:0"
         offset="1"
         id="stop3450" />
    </linearGradient>
    <linearGradient
       inkscape:collect="always"
       id="linearGradient3436">
      <stop
         style="stop-color:#3465a4;stop-opacity:1"
         offset="0"
         id="stop3438" />
      <stop
         style="stop-color:#729fcf;stop-opacity:1"
         offset="1"
         id="stop3440" />
    </linearGradient>
    <linearGradient
       inkscape:collect="always"
       id="linearGradient3347">
      <stop
         style="stop-color:#fce94f;stop-opacity:1;"
         offset="0"
         id="stop3349" />
      <stop
         style="stop-color:#fce94f;stop-opacity:0;"
         offset="1"
         id="stop3351" />
    </linearGradient>
    <linearGradient
       inkscape:collect="always"
       id="linearGradient3335">
      <stop
         style="stop-color:#8ae234;stop-opacity:1;"
         offset="0"
         id="stop3337" />
      <stop
         style="stop-color:#d3e2d1;stop-opacity:1"
         offset="1"
         id="stop3339" />
    </linearGradient>
    <linearGradient
       inkscape:collect="always"
       id="linearGradient3325">
      <stop
         style="stop-color:#8ae234;stop-opacity:1;"
         offset="0"
         id="stop3327" />
      <stop
         style="stop-color:#d5eed7;stop-opacity:1"
         offset="1"
         id="stop3329" />
    </linearGradient>
    <linearGradient
       inkscape:collect="always"
       id="linearGradient2537">
      <stop
         style="stop-color:#8ae234;stop-opacity:1;"
         offset="0"
         id="stop2539" />
      <stop
         style="stop-color:#edd400;stop-opacity:1"
         offset="1"
         id="stop2541" />
    </linearGradient>
    <inkscape:perspective
       sodipodi:type="inkscape:persp3d"
       inkscape:vp_x="0 : 24 : 1"
       inkscape:vp_y="0 : 1000 : 0"
       inkscape:vp_z="48 : 24 : 1"
       inkscape:persp3d-origin="24 : 16 : 1"
       id="perspective2445" />
    <linearGradient
       inkscape:collect="always"
       id="linearGradient5772">
      <stop
         style="stop-color:#ffffff;stop-opacity:1;"
         offset="0"
         id="stop5774" />
      <stop
         style="stop-color:#ffffff;stop-opacity:0;"
         offset="1"
         id="stop5776" />
    </linearGradient>
    <linearGradient
       inkscape:collect="always"
       xlink:href="#linearGradient5772"
       id="linearGradient5778"
       x1="17.023659"
       y1="7.6149831"
       x2="17.023659"
       y2="24.223293"
       gradientUnits="userSpaceOnUse" />
    <inkscape:perspective
       id="perspective2511"
       inkscape:persp3d-origin="372.04724 : 350.78739 : 1"
       inkscape:vp_z="744.09448 : 526.18109 : 1"
       inkscape:vp_y="0 : 1000 : 0"
       inkscape:vp_x="0 : 526.18109 : 1"
       sodipodi:type="inkscape:persp3d" />
    <linearGradient
       inkscape:collect="always"
       xlink:href="#linearGradient2537"
       id="linearGradient3315"
       x1="-1.1351522"
       y1="75.311684"
       x2="-2.6757815"
       y2="121.04288"
       gradientUnits="userSpaceOnUse" />
    <linearGradient
       inkscape:collect="always"
       xlink:href="#linearGradient3325"
       id="linearGradient3333"
       x1="33.792107"
       y1="37.197617"
       x2="32.885265"
       y2="-82.211632"
       gradientUnits="userSpaceOnUse" />
    <linearGradient
       inkscape:collect="always"
       xlink:href="#linearGradient3335"
       id="linearGradient3343"
       x1="-113.55769"
       y1="-24.512772"
       x2="-70.002266"
       y2="-55.635395"
       gradientUnits="userSpaceOnUse" />
    <radialGradient
       inkscape:collect="always"
       xlink:href="#linearGradient3347"
       id="radialGradient3353"
       cx="118.00543"
       cy="61.140594"
       fx="118.00543"
       fy="61.140594"
       r="87.515625"
       gradientTransform="matrix(-0.2177287,-0.950803,1.1446271,-0.2621121,42.091141,194.64512)"
       gradientUnits="userSpaceOnUse" />
    <linearGradient
       inkscape:collect="always"
       xlink:href="#linearGradient3335"
       id="linearGradient3356"
       gradientUnits="userSpaceOnUse"
       x1="-113.55769"
       y1="-24.512772"
       x2="-70.002266"
       y2="-55.635395" />
    <radialGradient
       inkscape:collect="always"
       xlink:href="#linearGradient3347"
       id="radialGradient3359"
       gradientUnits="userSpaceOnUse"
       gradientTransform="matrix(-0.2177287,-0.950803,1.1446271,-0.2621121,42.091141,194.64512)"
       cx="118.00543"
       cy="61.140594"
       fx="118.00543"
       fy="61.140594"
       r="87.515625" />
    <linearGradient
       inkscape:collect="always"
       xlink:href="#linearGradient2537"
       id="linearGradient3362"
       gradientUnits="userSpaceOnUse"
       x1="-1.1351522"
       y1="75.311684"
       x2="-2.6757815"
       y2="121.04288" />
    <linearGradient
       inkscape:collect="always"
       xlink:href="#linearGradient2537"
       id="linearGradient3376"
       gradientUnits="userSpaceOnUse"
       x1="-1.1351522"
       y1="75.311684"
       x2="-2.6757815"
       y2="121.04288" />
    <linearGradient
       inkscape:collect="always"
       xlink:href="#linearGradient3325"
       id="linearGradient3378"
       gradientUnits="userSpaceOnUse"
       x1="33.792107"
       y1="37.197617"
       x2="32.885265"
       y2="-82.211632" />
    <linearGradient
       inkscape:collect="always"
       xlink:href="#linearGradient3335"
       id="linearGradient3380"
       gradientUnits="userSpaceOnUse"
       x1="-113.55769"
       y1="-24.512772"
       x2="-70.002266"
       y2="-55.635395" />
    <radialGradient
       inkscape:collect="always"
       xlink:href="#linearGradient3347"
       id="radialGradient3382"
       gradientUnits="userSpaceOnUse"
       gradientTransform="matrix(-0.2177287,-0.950803,1.1446271,-0.2621121,42.091141,194.64512)"
       cx="118.00543"
       cy="61.140594"
       fx="118.00543"
       fy="61.140594"
       r="87.515625" />
    <radialGradient
       inkscape:collect="always"
       xlink:href="#linearGradient3347"
       id="radialGradient3385"
       gradientUnits="userSpaceOnUse"
       gradientTransform="matrix(-4.2581014e-2,-0.1859477,0.2238537,-5.1261037e-2,32.119861,56.369099)"
       cx="118.00543"
       cy="61.140594"
       fx="118.00543"
       fy="61.140594"
       r="87.515625" />
    <linearGradient
       inkscape:collect="always"
       xlink:href="#linearGradient3335"
       id="linearGradient3390"
       gradientUnits="userSpaceOnUse"
       x1="-113.55769"
       y1="-24.512772"
       x2="-70.002266"
       y2="-55.635395"
       gradientTransform="matrix(0.1906898,0,0,0.1906898,23.42547,17.80502)" />
    <linearGradient
       inkscape:collect="always"
       xlink:href="#linearGradient3325"
       id="linearGradient3394"
       gradientUnits="userSpaceOnUse"
       x1="33.792107"
       y1="37.197617"
       x2="32.885265"
       y2="-82.211632"
       gradientTransform="matrix(0.1955691,0,0,0.1955691,23.888133,18.302521)" />
    <linearGradient
       inkscape:collect="always"
       xlink:href="#linearGradient2537"
       id="linearGradient3397"
       gradientUnits="userSpaceOnUse"
       x1="-1.1351522"
       y1="75.311684"
       x2="-2.6757815"
       y2="121.04288"
       gradientTransform="matrix(0.1959073,0,0,0.1959073,23.842834,17.940802)" />
    <linearGradient
       inkscape:collect="always"
       xlink:href="#linearGradient2537"
       id="linearGradient3410"
       gradientUnits="userSpaceOnUse"
       gradientTransform="matrix(0.1959073,0,0,0.1959073,23.842834,17.940802)"
       x1="-1.1351522"
       y1="75.311684"
       x2="-2.6757815"
       y2="121.04288" />
    <linearGradient
       inkscape:collect="always"
       xlink:href="#linearGradient3325"
       id="linearGradient3412"
       gradientUnits="userSpaceOnUse"
       gradientTransform="matrix(0.1955691,0,0,0.1955691,23.888133,18.302521)"
       x1="33.792107"
       y1="37.197617"
       x2="32.885265"
       y2="-82.211632" />
    <linearGradient
       inkscape:collect="always"
       xlink:href="#linearGradient3335"
       id="linearGradient3414"
       gradientUnits="userSpaceOnUse"
       gradientTransform="matrix(0.1906898,0,0,0.1906898,23.42547,17.80502)"
       x1="-113.55769"
       y1="-24.512772"
       x2="-70.002266"
       y2="-55.635395" />
    <radialGradient
       inkscape:collect="always"
       xlink:href="#linearGradient3347"
       id="radialGradient3416"
       gradientUnits="userSpaceOnUse"
       gradientTransform="matrix(-4.2581014e-2,-0.1859477,0.2238537,-5.1261037e-2,32.119861,56.369099)"
       cx="118.00543"
       cy="61.140594"
       fx="118.00543"
       fy="61.140594"
       r="87.515625" />
    <linearGradient
       inkscape:collect="always"
       xlink:href="#linearGradient3436"
       id="linearGradient8127"
       gradientUnits="userSpaceOnUse"
       x1="-17.615215"
       y1="91.0308"
       x2="-11.118235"
       y2="-62.649628" />
    <linearGradient
       inkscape:collect="always"
       xlink:href="#linearGradient2537"
       id="linearGradient8129"
       gradientUnits="userSpaceOnUse"
       gradientTransform="matrix(6.3608889e-2,0,0,6.3609043e-2,13.147932,6.7957935)"
       x1="-1.1351522"
       y1="75.311684"
       x2="-2.6757815"
       y2="121.04288" />
    <linearGradient
       inkscape:collect="always"
       xlink:href="#linearGradient3325"
       id="linearGradient8131"
       gradientUnits="userSpaceOnUse"
       gradientTransform="matrix(6.3499087e-2,0,0,6.3499241e-2,13.16264,6.9132402)"
       x1="33.792107"
       y1="37.197617"
       x2="32.885265"
       y2="-82.211632" />
    <linearGradient
       inkscape:collect="always"
       xlink:href="#linearGradient3335"
       id="linearGradient8133"
       gradientUnits="userSpaceOnUse"
       gradientTransform="matrix(6.1914827e-2,0,0,6.191498e-2,13.012419,6.7517064)"
       x1="-113.55769"
       y1="-24.512772"
       x2="-70.002266"
       y2="-55.635395" />
    <radialGradient
       inkscape:collect="always"
       xlink:href="#linearGradient3347"
       id="radialGradient8135"
       gradientUnits="userSpaceOnUse"
       gradientTransform="matrix(-1.3825573e-2,-6.037527e-2,7.2682776e-2,-1.664392e-2,15.835389,19.273058)"
       cx="118.00543"
       cy="61.140594"
       fx="118.00543"
       fy="61.140594"
       r="87.515625" />
    <linearGradient
       inkscape:collect="always"
       xlink:href="#linearGradient3446"
       id="linearGradient8137"
       gradientUnits="userSpaceOnUse"
       x1="8.5061026"
       y1="-117.06905"
       x2="8.0374002"
       y2="29.645702" />
    <linearGradient
       inkscape:collect="always"
       xlink:href="#linearGradient14316"
       id="linearGradient8146"
       gradientUnits="userSpaceOnUse"
       gradientTransform="matrix(0.4388431,0,0,0.4444999,3.6396514,0.3737508)"
       x1="25.353041"
       y1="47.755836"
       x2="25.353041"
       y2="0.42802829" />
  </defs>
  <sodipodi:namedview
     id="base"
     pagecolor="#ffffff"
     bordercolor="#666666"
     borderopacity="1.0"
     gridtolerance="10000"
     guidetolerance="10"
     objecttolerance="10"
     inkscape:pageopacity="0.0"
     inkscape:pageshadow="2"
     inkscape:zoom="22.627417"
     inkscape:cx="12.9981"
     inkscape:cy="4.8206772"
     inkscape:document-units="px"
     inkscape:current-layer="layer1"
     showgrid="true"
     inkscape:snap-bbox="true"
     inkscape:snap-nodes="false"
     inkscape:window-width="1374"
     inkscape:window-height="1019"
     inkscape:window-x="136"
     inkscape:window-y="22">
    <inkscape:grid
       type="xygrid"
       id="grid5224"
       visible="true"
       enabled="true" />
  </sodipodi:namedview>
  <metadata
     id="metadata5219">
    <rdf:RDF>
      <cc:Work
         rdf:about="">
        <dc:format>image/svg+xml</dc:format>
        <dc:type
           rdf:resource="http://purl.org/dc/dcmitype/StillImage" />
      </cc:Work>
    </rdf:RDF>
  </metadata>
  <g
     inkscape:label="Layer 1"
     inkscape:groupmode="layer"
     id="layer1">
    <g
       id="g8116"
       transform="translate(-39.972443,-3.9934706)">
      <path
         transform="matrix(6.2065308e-2,0,0,6.2065461e-2,13.476033,7.7638463)"
         d="M 128.93658,11.796133 A 128.93658,128.93658 0 1 1 -128.93658,11.796133 A 128.93658,128.93658 0 1 1 128.93658,11.796133 z"
         sodipodi:ry="128.93658"
         sodipodi:rx="128.93658"
         sodipodi:cy="11.796133"
         sodipodi:cx="0"
         id="path2517"
         style="fill:url(#linearGradient8127);fill-opacity:1;stroke:#204a87;stroke-width:16.11202812;stroke-linejoin:miter;stroke-miterlimit:18.60000038;stroke-dasharray:none;stroke-dashoffset:0;stroke-opacity:1"
         sodipodi:type="arc" />
      <path
         id="path2519"
         d="M 14.15797,16.555699 C 13.902094,16.394093 13.646218,16.232486 13.390342,16.07088 C 13.565714,15.509854 12.854544,15.729121 12.534649,15.629934 C 11.924804,15.542794 11.306974,15.475711 10.702661,15.371538 C 10.400351,15.177993 10.06538,15.025351 9.7843335,14.805178 C 9.5740357,14.570648 9.3342664,14.352254 9.1422137,14.107736 C 9.0823187,13.838266 8.9926753,13.569299 8.9513267,13.299515 C 9.0021651,13.114875 9.0127858,12.908306 9.0882878,12.737113 C 9.3465068,12.442535 9.6385238,12.191437 10.045141,12.162652 C 10.281116,12.178805 10.30925,11.939051 10.404043,11.781476 C 10.465199,11.627529 10.548515,11.492354 10.700886,11.415676 C 10.825042,11.357971 10.936602,11.148061 11.076263,11.277691 C 11.255811,11.345661 11.418219,11.51925 11.621536,11.440741 C 12.151388,11.345428 12.689712,11.337538 13.225973,11.33868 C 13.488327,11.31732 13.90807,11.065541 13.828445,11.512439 C 13.766414,11.82545 13.946098,11.927621 14.213659,11.932578 C 14.370573,11.966468 14.549603,11.958427 14.643348,12.112078 C 14.749365,12.247081 14.939435,12.246084 15.087206,12.313528 C 15.244561,12.247047 15.281498,12.107362 15.289214,11.949913 C 15.443533,11.864393 15.562421,11.657194 15.75959,11.718823 C 16.207576,11.757688 16.660947,11.76965 17.107283,11.707503 C 17.29001,11.839688 17.47957,11.96526 17.585673,12.171597 C 17.821665,12.51639 18.131257,12.802836 18.400131,13.12156 C 18.653863,13.287116 18.961728,13.294899 19.248564,13.36397 C 19.498087,13.199959 19.73802,13.02452 19.935391,12.798347 C 19.356301,13.592913 18.777213,14.387478 18.198125,15.182043 C 17.517388,15.521283 16.844939,15.878576 16.133956,16.151927 C 15.875379,16.260789 15.622859,16.391914 15.33591,16.396519 C 14.943264,16.449579 14.550617,16.502639 14.15797,16.555699 z"
         style="fill:url(#linearGradient8129);fill-opacity:1;fill-rule:evenodd;stroke:none;stroke-width:0.99999994px;stroke-linecap:butt;stroke-linejoin:miter;stroke-opacity:1" />
      <path
         id="path2521"
         d="M 13.928598,0.32122491 L 13.928598,0.52362877 C 13.928598,0.52362877 14.654224,0.5633158 14.694556,0.5633158 C 14.734887,0.56331599 15.099362,0.80540665 15.099362,0.80540665 L 15.420826,1.0474975 L 14.978317,0.88676505 C 14.978317,0.88676516 15.138404,1.088524 15.178736,1.1288559 C 15.219068,1.1691878 15.581558,1.20823 15.581558,1.20823 L 15.944694,1.20823 C 15.944694,1.20823 15.945389,1.5727058 16.026052,1.6130377 C 16.106715,1.6533697 15.986365,1.7340831 15.986365,1.7340831 C 15.986365,1.7340829 15.623229,1.7334382 15.623229,1.7737701 C 15.623229,1.8141018 15.420826,1.9345026 15.420826,1.9345026 L 15.099362,2.015861 C 15.099362,2.0158611 15.219762,2.2976389 15.260094,2.2976389 C 15.300426,2.2976389 15.744275,2.1369064 15.744275,2.1369064 L 16.147098,2.4603557 L 16.428875,2.863179 L 16.389187,3.0635985 L 16.186784,2.9842244 C 16.186784,2.9842243 16.348856,3.4684061 16.389187,3.4684061 C 16.429519,3.468406 16.631278,3.5894516 16.631278,3.5894516 L 16.510233,3.7501841 L 16.186784,3.7898709 L 15.905007,3.5080932 L 15.702604,3.1449569 L 15.581558,2.8215076 L 15.502185,2.9842244 L 15.462497,3.2660023 C 15.462497,3.2660024 15.582898,3.6284938 15.623229,3.6688256 C 15.663562,3.7091575 15.86532,3.7912105 15.86532,3.8315423 C 15.86532,3.8718745 16.10741,3.8712295 16.10741,3.8712295 L 16.30783,3.9109164 L 16.470546,4.0319619 L 16.268142,4.1946787 L 16.065739,4.1946787 C 16.065739,4.1946787 15.944694,4.2337209 15.944694,4.2740528 C 15.944694,4.3143849 15.905007,4.4347854 15.905007,4.4347854 L 15.86532,4.5975019 L 16.026052,4.7185477 L 15.783961,4.6371888 L 15.341453,4.5558309 L 15.018004,4.5558309 C 15.018004,4.5558309 14.776559,4.3950982 14.736227,4.3950982 C 14.695895,4.3950982 14.412778,4.5161436 14.412778,4.5161436 C 14.412778,4.5161436 14.291038,4.6782155 14.210375,4.7185477 C 14.129712,4.7588795 14.009957,4.9606386 14.009957,4.9606386 L 13.728179,5.2821033 L 13.686508,5.4845071 L 13.486088,5.7662846 L 13.202327,6.0897342 L 13.001908,6.3715121 L 12.960237,6.6532901 L 12.960237,7.0164265 L 13.202327,7.1791435 L 13.444417,6.9370524 L 13.646821,6.9370524 C 13.646821,6.9370524 13.728179,7.1388109 13.728179,7.1791435 C 13.728179,7.2194751 13.887621,7.4205888 13.968285,7.4609214 C 14.048948,7.501253 14.252046,7.5006082 14.252046,7.5006082 L 14.412778,7.3398756 L 14.412778,7.0977845 L 14.533824,6.8160071 L 14.412778,6.5739159 L 14.33142,6.0083762 L 14.452465,5.8476436 L 14.694556,5.4448198 C 14.694556,5.4448198 14.775269,5.4448198 14.815601,5.4448198 C 14.855932,5.4448198 14.615182,6.0897342 14.615182,6.0897342 L 14.775914,6.4528706 L 14.936646,6.6136033 L 14.896959,6.8953807 C 14.896959,6.8953807 14.896959,7.2598567 14.896959,7.3001888 C 14.896959,7.3405204 14.855932,7.5019473 14.815601,7.5422794 C 14.775269,7.5826115 14.57351,7.7030115 14.57351,7.7030115 L 14.33142,7.7030115 L 14.009957,7.8240574 L 13.767866,7.8240574 C 13.767866,7.8240574 13.928598,7.7016724 13.928598,7.6613409 C 13.928598,7.6210083 13.767866,7.3795624 13.767866,7.3795624 L 13.565462,7.0580977 L 13.323372,7.4609214 L 13.444417,7.7823862 L 13.041595,7.98479 L 12.759818,8.1871933 L 12.557415,8.3876132 C 12.557415,8.3876132 12.637433,8.0661485 12.597101,8.0661485 C 12.55677,8.066148 12.356995,7.8240574 12.356995,7.8240574 L 12.194279,7.4212341 L 12.315324,7.0977845 C 12.315324,7.0977845 12.276282,6.9767397 12.23595,6.9767397 C 12.195619,6.9767397 12.275637,6.6532901 12.275637,6.6532901 L 11.912502,6.8556939 L 11.75177,7.2188303 L 11.630725,7.4212341 L 11.388635,7.5422794 C 11.388635,7.5422794 11.146544,7.4212837 11.146544,7.5422794 C 11.146544,7.6632752 11.145205,7.8240574 11.104873,7.8240574 C 11.064541,7.8240574 10.944141,7.9047706 10.944141,7.9451027 C 10.944141,7.9854348 11.225918,8.0661485 11.225918,8.0661485 C 11.225918,8.066148 11.468008,8.1064801 11.468008,8.0661485 C 11.468008,8.0258164 11.589053,7.8643894 11.589053,7.8240574 C 11.589053,7.7837253 11.75177,7.6216535 11.75177,7.6216535 C 11.75177,7.6216535 11.912502,7.7023673 11.912502,7.7426994 C 11.912502,7.7830309 11.710098,7.98479 11.710098,7.98479 C 11.710098,7.98479 11.710098,8.0655032 11.710098,8.1058353 C 11.710098,8.1461669 11.791457,8.2268806 11.791457,8.2268806 L 11.589053,8.3479259 L 11.428321,8.590017 L 11.872815,8.5086585 L 12.315324,8.5086585 L 12.476057,8.5086585 L 12.23595,8.7110623 L 12.033547,8.6297044 C 12.033547,8.6297044 12.073879,8.7520888 12.033547,8.7924209 C 11.993215,8.8327524 11.670412,8.8321082 11.670412,8.8321082 L 11.670412,8.9531535 L 11.872815,9.1138856 L 12.073234,9.5583805 L 11.872815,9.9612038 L 10.944141,9.7191132 L 10.783409,9.8798453 C 10.783409,9.8798453 10.783409,10.123275 10.783409,10.163607 C 10.783409,10.20394 10.702695,10.444741 10.662363,10.485072 C 10.622032,10.525404 10.581005,10.76685 10.581005,10.76685 L 10.622677,10.969255 L 11.146544,11.33239 L 11.589053,11.251032 L 11.952189,11.129987 L 12.154592,10.848209 L 12.194279,10.566431 L 12.638772,10.32434 C 12.638772,10.32434 12.598441,10.121936 12.638772,10.121936 C 12.679105,10.121936 12.92055,10.121936 12.92055,10.121936 L 13.404731,9.921517 L 13.686508,10.121936 L 14.131001,10.606118 L 14.452465,10.727163 L 14.533824,10.887896 L 14.373092,11.050613 C 14.373092,11.050613 14.171333,11.010281 14.131001,11.050613 C 14.09067,11.090945 13.969624,11.292704 14.009957,11.292704 C 14.050288,11.292704 14.33142,11.453436 14.33142,11.453436 C 14.33142,11.453436 14.533824,11.412409 14.533824,11.372077 C 14.533824,11.331746 14.736227,11.090299 14.736227,11.090299 L 14.857272,10.76685 L 14.654868,10.647789 L 15.018004,10.76685 L 14.896959,10.485072 L 14.412778,10.284653 L 14.210375,10.042562 L 13.968285,9.6377546 L 14.494137,9.9612038 L 14.896959,10.163607 L 15.220408,10.445386 L 15.260094,10.808522 L 15.462497,11.129987 L 15.623229,11.292704 L 16.186784,11.493123 L 16.349501,11.33239 L 15.944694,11.171658 L 15.944694,10.969255 L 16.026052,10.887896 L 15.702604,10.606118 L 16.065739,10.364027 L 16.186784,10.727163 L 16.428875,11.050613 L 16.79201,11.050613 L 16.913055,10.848209 L 17.0341,10.929567 L 17.236503,11.050613 L 17.436922,10.929567 L 17.599639,10.687476 L 17.599639,11.292704 L 17.478593,11.574482 L 17.115458,11.695527 L 17.720684,12.300754 L 17.84173,12.179708 L 18.607687,12.945668 L 19.010509,13.308804 L 19.333958,13.227446 C 19.333958,13.227446 20.019897,12.261067 20.060229,12.261067 C 20.10056,12.261067 20.260647,11.816572 20.260647,11.816572 L 20.502738,11.372077 L 20.584096,10.887896 L 20.623783,10.526744 L 20.463051,10.606118 L 20.302318,10.485072 L 20.060229,11.171658 L 19.818139,11.090299 L 19.534377,10.887896 L 19.534377,10.687476 L 19.97887,10.727163 L 20.342006,10.445386 L 20.66347,10.203294 L 21.026605,9.7588005 L 21.631831,9.7191132 L 21.631831,8.9134662 L 21.631831,7.9451027 L 21.592144,6.8953807 L 21.068276,5.6452398 L 20.584096,4.4764568 L 19.897512,3.5080932 L 18.647374,2.1369064 L 17.194832,1.2499013 L 16.065739,0.76571959 L 15.139049,0.48394175 L 13.928598,0.32122491 z M 18.689045,8.1058353 L 19.010509,8.3479259 L 19.252599,8.590017 C 19.252599,8.590017 19.373645,8.9525082 19.373645,8.9928408 C 19.373645,9.0331724 19.576048,9.2746182 19.576048,9.2746182 L 19.171241,9.4373352 L 18.970823,8.9531535 L 18.647374,8.7507491 L 18.405283,8.5086585 C 18.405283,8.5086585 18.486642,8.2678569 18.486642,8.1871933 C 18.486642,8.1065301 18.689045,8.1058353 18.689045,8.1058353 z M 16.51817,8.9888715 C 16.569126,8.982225 16.712636,9.1952436 16.712636,9.1952441 C 16.712636,9.1952441 16.954081,9.2746182 16.994413,9.2746182 C 17.034745,9.2746182 17.235214,9.0741988 17.315878,9.0741988 C 17.396541,9.0741988 17.599639,9.1555573 17.599639,9.1555573 C 17.599639,9.1555573 17.962129,9.2759578 18.002461,9.3162899 C 18.042793,9.3566215 17.962774,9.5167088 17.962774,9.5167088 L 17.599639,9.6794253 L 17.115458,9.6794253 L 16.873368,10.000891 L 16.349501,10.08225 C 16.268837,10.041917 16.389187,9.5570409 16.389187,9.5167088 C 16.389187,9.4763772 16.469901,9.0331724 16.510233,8.9928408 C 16.512753,8.9903195 16.514773,8.9893149 16.51817,8.9888715 z"
         style="fill:url(#linearGradient8131);fill-opacity:1;fill-rule:evenodd;stroke:none;stroke-width:0.99999994px;stroke-linecap:butt;stroke-linejoin:miter;stroke-opacity:1" />
      <path
         id="path2527"
         d="M 10.7024,5.0407124 C 10.764765,5.2172988 10.835363,5.3908423 10.904059,5.5650268 C 11.01677,5.5607978 11.132543,5.573448 11.243361,5.558784 C 11.345363,5.5205333 11.447366,5.4822822 11.549368,5.444031 C 11.576211,5.3711707 11.607945,5.2975234 11.564493,5.2222057 C 11.527982,5.0468663 11.292761,5.1159392 11.163065,5.053316 C 11.027794,5.0272584 10.88758,5.0467302 10.750133,5.0407124 C 10.734222,5.0407124 10.718311,5.0407124 10.7024,5.0407124 z"
         style="fill:#8ae234;fill-rule:evenodd;stroke:none;stroke-width:0.99999994px;stroke-linecap:butt;stroke-linejoin:miter;stroke-opacity:1" />
      <path
         id="path2529"
         d="M 13.523651,0.32479744 C 13.384236,0.39525418 13.259058,0.5193256 13.091046,0.48209985 C 12.91099,0.470019 12.736657,0.48612863 12.575488,0.57542155 C 12.296578,0.72361913 11.96124,0.55067128 11.687035,0.71937868 C 11.523628,0.81805142 11.04119,0.90234784 11.095913,1.0676832 C 11.400525,1.122566 11.8424,1.2498626 11.574448,1.5929749 C 11.689089,1.6779004 11.957307,1.7248326 11.714676,1.8584974 C 11.933905,1.9141441 12.247132,1.8550138 12.180438,2.1915364 C 12.241185,2.3774754 12.560357,2.2711941 12.663987,2.4728557 C 12.969075,2.6193204 12.586664,2.7320143 12.501187,2.9202896 C 12.330372,3.2349585 12.106985,3.537326 11.88012,3.7936721 C 11.461249,3.6497033 11.754255,4.3673117 11.327258,4.2429215 C 10.923469,4.340112 10.499447,4.3268288 10.102329,4.4539897 C 9.8482206,4.2677409 9.6483601,4.7025864 9.3944691,4.768595 C 9.2831537,5.0141225 8.8339741,4.9098606 8.8978721,4.651511 C 8.895824,4.3949464 9.0793473,4.1952964 9.1449973,3.9556599 C 9.2950326,3.6109542 9.7375607,3.6136876 9.9892678,3.3627031 C 10.305659,3.1965305 10.295202,2.7079034 10.692212,2.6450102 C 10.735683,2.451982 10.834847,2.2972138 10.967491,2.1731025 C 10.578433,2.0695331 10.341014,2.4088321 10.103049,2.6569922 C 9.8172259,2.8706948 9.6463269,3.2119565 9.3460034,3.386744 C 9.0796056,3.4754748 8.5279336,3.778593 8.7259348,3.2250633 C 8.8190455,2.9888902 9.0998833,2.8075395 9.2685044,2.6929384 C 9.1681658,2.3024651 8.8921535,2.7725236 8.7932953,2.8196714 C 8.7686036,2.6561382 8.8889034,2.0811385 8.607958,2.4090563 C 8.4764962,2.6897431 8.3485369,2.9706555 8.0168459,3.0364232 C 7.8047744,3.1370548 7.4172112,3.4400086 7.8681462,3.5077165 C 8.1276187,3.3705223 8.3347088,3.0425945 8.686609,2.998941 C 8.6004483,3.3128863 8.3201984,3.5671611 8.3720047,3.9114187 C 8.2361101,4.1686871 8.0311265,4.4001916 7.9374268,4.6870247 C 7.8654907,5.0260019 7.6956616,5.3371776 7.4183604,5.5551074 C 7.29314,5.7544747 7.3135876,6.2060772 7.0742619,6.2629689 C 7.013602,6.0355191 6.9990184,5.7958212 6.7529134,5.7148803 C 6.6157615,5.6380043 6.5487047,5.5044631 6.4880226,5.3657673 C 6.4565959,5.2163251 6.2796848,5.3022809 6.1697742,5.2798281 C 6.051798,5.3584794 5.9338212,5.4371311 5.8158444,5.515782 C 6.1120387,4.9097833 6.3960866,4.2958644 6.6939105,3.6919625 C 7.0655652,3.2777666 7.4032897,2.8308868 7.8261908,2.4660555 C 7.995049,2.2911926 8.1832474,2.1414627 8.3969041,2.0248164 C 8.7480961,1.8152818 9.08319,1.5755659 9.4448698,1.3856933 C 9.9363288,1.1765095 10.408969,0.9182538 10.926199,0.77626944 C 11.414614,0.60612062 11.91417,0.4750112 12.41708,0.35565586 C 12.674434,0.29118935 12.945729,0.33997589 13.20915,0.32479744 C 13.313983,0.32479744 13.418817,0.32479744 13.523651,0.32479744 z"
         style="fill:url(#linearGradient8133);fill-opacity:1;fill-rule:evenodd;stroke:none;stroke-width:0.99999994px;stroke-linecap:butt;stroke-linejoin:miter;stroke-opacity:1" />
      <path
         id="path2531"
         d="M 14.04994,3.4677682 L 14.04994,3.4677682 z"
         style="fill:none;fill-rule:evenodd;stroke:none;stroke-width:0.99999994px;stroke-linecap:butt;stroke-linejoin:miter;stroke-opacity:1" />
      <path
         id="path2533"
         d="M 14.090272,3.1451131 C 13.958513,3.0648352 13.804612,2.908034 13.659574,3.0565891 C 13.531982,3.1263388 13.395197,3.1955423 13.344527,3.3429914 C 13.231318,3.5419949 13.538032,3.5539046 13.656912,3.6061433 C 13.731162,3.6797311 13.859804,3.6403412 13.953457,3.6185904 C 14.039394,3.5817604 14.12533,3.5449303 14.211267,3.5081002 C 14.170935,3.3871045 14.130603,3.2661088 14.090272,3.1451131 z"
         style="fill:#8ae234;fill-rule:evenodd;stroke:none;stroke-width:0.99999994px;stroke-linecap:butt;stroke-linejoin:miter;stroke-opacity:1" />
      <path
         id="path3345"
         d="M 13.928598,0.32122491 C 13.941591,0.80605189 14.8426,0.34052741 15.099362,0.80540665 C 15.26779,0.93280185 15.56827,1.1318141 15.195254,0.9655629 C 14.688255,0.77528674 15.452397,1.3802746 15.718696,1.20823 C 16.091709,1.0858586 16.174233,1.9793095 15.67997,1.7505539 C 15.531272,2.0151822 14.817008,1.8989043 15.260094,2.2976389 C 15.582689,2.1152031 15.856252,2.1298361 16.091806,2.4159592 C 16.221761,2.5511961 16.36155,2.729254 16.422214,2.8968106 C 16.449744,3.226689 16.005256,2.7930466 16.272862,3.2263153 C 16.363941,3.4857306 16.852715,3.7085813 16.340085,3.7710611 C 16.123454,3.8472568 15.996976,3.583275 15.871623,3.4481992 C 15.749909,3.2508795 15.652994,3.0420868 15.581558,2.8215076 C 15.377181,3.139093 15.460745,3.6493665 15.833165,3.7947745 C 15.937059,3.9089656 16.576576,3.8573807 16.390384,4.0964059 C 16.197749,4.2621415 15.840344,4.141404 15.880635,4.5347098 C 16.049264,4.8000291 15.963934,4.6617233 15.682804,4.6185903 C 15.463932,4.5677412 15.242756,4.5421774 15.018004,4.5558309 C 14.574749,4.142003 14.161127,4.7739293 13.896961,5.0895488 C 13.705463,5.211424 13.737632,5.4391976 13.607021,5.5962608 C 13.426377,5.9043077 13.075955,6.121597 12.986861,6.4732597 C 12.977358,6.6567669 12.894014,6.91864 13.017146,7.0546766 C 13.216446,7.3271753 13.317538,6.9633843 13.512986,6.9370524 C 13.757552,6.9983254 13.971539,7.8302748 14.37326,7.3793936 C 14.437876,7.2098231 14.405834,6.9859224 14.533824,6.8160071 C 14.370432,6.576813 14.380874,6.2832227 14.33142,6.0083762 C 14.474197,5.8351792 14.576432,5.6346426 14.694556,5.4448198 C 14.959515,5.5841082 14.42683,6.1404678 14.775914,6.4528706 C 15.059793,6.6026494 14.834341,6.9101418 14.896959,7.1543809 C 14.990127,7.6283171 14.532141,7.6963212 14.203079,7.751338 C 14.047793,7.8422447 13.560552,7.9025121 13.928598,7.6613409 C 13.81171,7.5711517 13.646399,6.9569753 13.512481,7.1462555 C 13.380043,7.327483 13.267517,7.5105163 13.420024,7.7176044 C 13.446166,7.8886446 13.095523,7.8949844 12.985904,8.0247937 C 12.844552,8.0745646 12.597331,8.3919532 12.569287,8.3373845 C 12.70419,7.9811407 12.231446,7.8053063 12.202905,7.4425875 C 12.364745,7.1659017 12.202755,6.9413851 12.275637,6.6532901 C 12.105085,6.7636163 11.866101,6.8115195 11.829243,7.0437996 C 11.746811,7.2636386 11.63194,7.4789265 11.388635,7.5422794 C 10.99811,7.3057347 11.261217,7.8993109 10.944141,7.9451027 C 11.333375,8.2779518 11.563441,7.9462084 11.75177,7.6216535 C 12.138445,7.7436761 11.502429,8.0463438 11.762033,8.2444774 C 11.631641,8.2707432 11.283291,8.6641581 11.563219,8.5653257 C 11.861839,8.4840854 12.170454,8.5129665 12.476057,8.5086585 C 12.378318,8.7984179 12.002676,8.5558709 12.050562,8.7499815 C 11.765681,8.7920745 11.497577,8.906178 11.872815,9.1138856 C 11.922753,9.3133732 12.165856,9.5165379 11.996874,9.711857 C 11.948755,9.9942906 11.759959,9.9675859 11.541056,9.8747196 C 11.336867,9.8414712 11.109238,9.7219261 10.919898,9.7433559 C 10.71461,10.04187 10.6773,10.503216 10.601747,10.867591 C 10.633229,11.076029 10.909773,11.122557 11.045331,11.262232 C 11.204676,11.40302 11.433214,11.251515 11.621578,11.240191 C 11.830097,11.190269 12.022775,11.11884 12.112202,10.907223 C 12.206747,10.734791 12.140828,10.490951 12.405039,10.451642 C 12.714252,10.299892 12.609428,10.038843 13.047262,10.069486 C 13.240552,9.9876389 13.440864,9.8438516 13.600299,10.060618 C 13.885409,10.251079 14.021594,10.640678 14.387684,10.70277 C 14.696168,10.834419 14.361075,11.15643 14.131001,11.050613 C 13.748395,11.522949 14.772173,11.550617 14.76026,11.02608 C 15.024682,10.839421 14.587725,10.594802 14.752603,10.679834 C 15.049272,10.859439 15.037744,10.663889 14.865281,10.47196 C 14.633104,10.370292 14.365843,10.316397 14.236852,10.07423 C 14.184688,9.9736129 13.874976,9.5716508 14.055892,9.6916414 C 14.344767,9.9011888 14.68568,10.028719 14.974512,10.231169 C 15.169894,10.351395 15.274622,10.518992 15.253931,10.752121 C 15.358263,11.032585 15.560281,11.331582 15.881651,11.384607 C 16.01994,11.522402 16.406208,11.471674 16.285771,11.307086 C 16.09387,11.255974 15.803328,11.144783 15.99318,10.920768 C 16.073796,10.786064 15.516266,10.639291 15.81671,10.530047 C 16.034206,10.296487 16.129607,10.41878 16.174156,10.68928 C 16.284521,10.838634 16.370964,11.110755 16.600297,11.050613 C 16.857527,11.170584 16.854211,10.697856 17.063524,10.947164 C 17.239916,11.146205 17.460872,10.938344 17.551673,10.75884 C 17.656771,10.625586 17.57265,11.113055 17.599639,11.236031 C 17.581403,11.457618 17.453851,11.643286 17.218392,11.661216 C 16.987574,11.718863 17.42182,11.933511 17.479101,12.059171 C 17.6323,12.354082 17.785501,12.162301 17.938701,12.27668 C 18.289991,12.627019 18.633897,12.985134 19.010509,13.308804 C 19.477243,13.298048 19.591652,12.772416 19.87391,12.485203 C 20.183039,12.174741 20.264597,11.731871 20.502738,11.372077 C 20.55176,11.091504 20.59954,10.810758 20.623783,10.526744 C 20.428299,10.708051 20.250917,10.331705 20.222513,10.711407 C 20.121267,10.842431 20.162059,11.264666 19.930234,11.127972 C 19.773777,11.05262 19.49324,10.963968 19.534377,10.750757 C 19.587468,10.579058 19.936798,10.838404 20.06013,10.664109 C 20.386407,10.410417 20.737331,10.184431 20.967142,9.8315849 C 21.107571,9.6752769 21.378251,9.7718461 21.573983,9.7229059 C 21.705841,9.6327973 21.595577,9.3159224 21.631831,9.1362735 C 21.630502,8.3792689 21.645,7.6155295 21.578893,6.8637605 C 21.226992,6.0529011 20.913411,5.2212364 20.544436,4.4205204 C 20.186986,3.9083707 19.835886,3.3911083 19.389339,2.9507147 C 19.106846,2.6687412 18.872845,2.3279977 18.559592,2.0833023 C 17.902308,1.7005095 17.285548,1.2392384 16.564639,0.97965988 C 16.065816,0.75161574 15.537732,0.58127661 15.003133,0.46567111 C 14.644955,0.41752216 14.286776,0.36937386 13.928598,0.32122491 z M 18.689045,8.1058353 C 18.967886,8.3209012 19.318136,8.5245605 19.354731,8.9128839 C 19.60921,9.2269598 19.568539,9.339256 19.194317,9.4280591 C 19.06388,9.329682 19.073385,9.0244429 18.912696,8.9167798 C 18.716762,8.8144051 18.552235,8.6725727 18.405283,8.5086585 C 18.491964,8.3553328 18.416635,8.0573638 18.689045,8.1058353 z M 16.51817,8.9888715 C 16.883807,9.5998091 17.376995,8.8102422 17.857282,9.2477092 C 18.251016,9.397922 17.745639,9.678811 17.53107,9.6794253 C 17.332786,9.6971155 17.076353,9.5982181 16.991709,9.8437483 C 16.881396,10.09646 16.571026,10.015196 16.349501,10.08225 C 16.298767,9.7400825 16.414183,9.3186419 16.51817,8.9888715 z"
         style="fill:url(#radialGradient8135);fill-opacity:1;fill-rule:evenodd;stroke:none;stroke-width:0.99999994px;stroke-linecap:butt;stroke-linejoin:miter;stroke-opacity:1" />
      <path
         transform="matrix(6.2065308e-2,0,0,6.2065461e-2,13.474931,7.7653593)"
         d="M 128.93658,11.796133 A 128.93658,128.93658 0 1 1 -128.93658,11.796133 A 128.93658,128.93658 0 1 1 128.93658,11.796133 z"
         sodipodi:ry="128.93658"
         sodipodi:rx="128.93658"
         sodipodi:cy="11.796133"
         sodipodi:cx="0"
         id="path3434"
         style="opacity:0.57213931;fill:url(#linearGradient8137);fill-opacity:1;stroke:#204a87;stroke-width:16.11202812;stroke-linejoin:miter;stroke-miterlimit:18.60000038;stroke-dasharray:none;stroke-dashoffset:0;stroke-opacity:1"
         sodipodi:type="arc" />
    </g>
    <rect
       style="fill:url(#linearGradient8146);fill-opacity:1;fill-rule:evenodd;stroke:#eeeeec;stroke-width:1.0055114;stroke-linecap:square;stroke-linejoin:miter;marker:none;marker-start:none;marker-mid:none;marker-end:none;stroke-miterlimit:18.60000038;stroke-dasharray:none;stroke-dashoffset:0;stroke-opacity:1;visibility:visible;display:inline;overflow:visible;enable-background:accumulate"
       id="rect3776"
       width="14.931348"
       height="20.931364"
       x="6.5027552"
       y="0.56588054" />
    <rect
       style="fill:none;fill-opacity:1;fill-rule:evenodd;stroke:#ffffff;stroke-width:0.98499984;stroke-linecap:square;stroke-linejoin:miter;marker:none;marker-start:none;marker-mid:none;marker-end:none;stroke-miterlimit:18.60000038;stroke-dasharray:none;stroke-dashoffset:0;stroke-opacity:1;visibility:visible;display:inline;overflow:visible;enable-background:accumulate"
       id="rect4345"
       width="13.014999"
       height="19.015001"
       x="7.4925003"
       y="1.4925001" />
    <path
       style="fill:#8ae234;fill-opacity:1;fill-rule:evenodd;stroke:#4e9a06;stroke-width:0.99999994;stroke-linecap:butt;stroke-linejoin:miter;marker:none;marker-start:none;marker-mid:none;marker-end:none;stroke-miterlimit:4;stroke-dashoffset:0;stroke-opacity:1;visibility:visible;display:inline;overflow:visible;enable-background:accumulate"
       d="M 0.49999999,9.4804305 L 9.5152748,9.5002468 L 9.5138148,6.9700001 L 13.074524,11.051108 L 9.5186663,15.37 L 9.5170159,12.511952 L 0.50174963,12.512625 L 0.49999999,9.4804305 z"
       id="path5575"
       sodipodi:nodetypes="cccccccc" />
  </g>
</svg>
