<?xml version="1.0" encoding="UTF-8" standalone="no"?>
<!-- Created with Inkscape (http://www.inkscape.org/) -->
<svg
   xmlns:dc="http://purl.org/dc/elements/1.1/"
   xmlns:cc="http://creativecommons.org/ns#"
   xmlns:rdf="http://www.w3.org/1999/02/22-rdf-syntax-ns#"
   xmlns:svg="http://www.w3.org/2000/svg"
   xmlns="http://www.w3.org/2000/svg"
   xmlns:xlink="http://www.w3.org/1999/xlink"
   xmlns:sodipodi="http://sodipodi.sourceforge.net/DTD/sodipodi-0.dtd"
   xmlns:inkscape="http://www.inkscape.org/namespaces/inkscape"
   width="22"
   height="22"
   id="svg5214"
   sodipodi:version="0.32"
   inkscape:version="0.46"
   version="1.0"
   inkscape:export-filename="/Users/lse/Sites/BambusONE/System/ClientData/Icons/tango/small/actions/locate.png"
   inkscape:export-xdpi="90"
   inkscape:export-ydpi="90"
   sodipodi:docname="action-locate-small.svg"
   inkscape:output_extension="org.inkscape.output.svg.inkscape">
  <defs
     id="defs5216">
    <linearGradient
       inkscape:collect="always"
       id="linearGradient3302">
      <stop
         style="stop-color:#eeeeec;stop-opacity:1;"
         offset="0"
         id="stop3304" />
      <stop
         style="stop-color:#eeeeec;stop-opacity:0;"
         offset="1"
         id="stop3306" />
    </linearGradient>
    <linearGradient
       inkscape:collect="always"
       id="linearGradient3280">
      <stop
         style="stop-color:#eeeeec;stop-opacity:1;"
         offset="0"
         id="stop3282" />
      <stop
         style="stop-color:#eeeeec;stop-opacity:0;"
         offset="1"
         id="stop3284" />
    </linearGradient>
    <inkscape:perspective
       sodipodi:type="inkscape:persp3d"
       inkscape:vp_x="0 : 16 : 1"
       inkscape:vp_y="0 : 1000 : 0"
       inkscape:vp_z="32 : 16 : 1"
       inkscape:persp3d-origin="16 : 10.666667 : 1"
       id="perspective2437" />
    <linearGradient
       inkscape:collect="always"
       xlink:href="#linearGradient3280"
       id="linearGradient3286"
       x1="10.273683"
       y1="2.6964912"
       x2="10.435088"
       y2="18.247368"
       gradientUnits="userSpaceOnUse"
       gradientTransform="matrix(1,0,0,0.9375,1.9e-6,2.15625)" />
    <radialGradient
       inkscape:collect="always"
       xlink:href="#linearGradient3302"
       id="radialGradient3377"
       gradientUnits="userSpaceOnUse"
       gradientTransform="matrix(1.8469389,0,0,1.6402164,-8.0686442,-2.879323)"
       cx="10.470176"
       cy="2.5754385"
       fx="10.470176"
       fy="2.5754385"
       r="1.2070175" />
  </defs>
  <sodipodi:namedview
     id="base"
     pagecolor="#ffffff"
     bordercolor="#666666"
     borderopacity="1.0"
     gridtolerance="10000"
     guidetolerance="10"
     objecttolerance="10"
     inkscape:pageopacity="0.0"
     inkscape:pageshadow="2"
     inkscape:zoom="25.190679"
     inkscape:cx="7.2342751"
     inkscape:cy="17.257718"
     inkscape:document-units="px"
     inkscape:current-layer="layer1"
     showgrid="true"
     inkscape:snap-bbox="true"
     inkscape:snap-nodes="false"
     inkscape:window-width="1374"
     inkscape:window-height="1019"
     inkscape:window-x="114"
     inkscape:window-y="0">
    <inkscape:grid
       type="xygrid"
       id="grid5224"
       visible="true"
       enabled="true" />
  </sodipodi:namedview>
  <metadata
     id="metadata5219">
    <rdf:RDF>
      <cc:Work
         rdf:about="">
        <dc:format>image/svg+xml</dc:format>
        <dc:type
           rdf:resource="http://purl.org/dc/dcmitype/StillImage" />
      </cc:Work>
    </rdf:RDF>
  </metadata>
  <g
     inkscape:label="Layer 1"
     inkscape:groupmode="layer"
     id="layer1">
    <rect
       style="opacity:1;fill:#adcaf1;fill-opacity:1;stroke:#3090c9;stroke-width:1;stroke-linejoin:miter;stroke-miterlimit:18.60000038;stroke-dasharray:none;stroke-dashoffset:0;stroke-opacity:1"
       id="rect2437"
       width="21.000002"
       height="15"
       x="0.49999812"
       y="4.5" />
    <rect
       style="opacity:0.61994605;fill:url(#linearGradient3286);fill-opacity:1;stroke:#3465a4;stroke-width:1;stroke-linejoin:miter;stroke-miterlimit:18.60000038;stroke-dasharray:none;stroke-dashoffset:0;stroke-opacity:1"
       id="rect3278"
       width="21.000002"
       height="15"
       x="0.5"
       y="4.5" />
    <path
       style="fill:#4e8006;fill-opacity:1;fill-rule:evenodd;stroke:none;stroke-width:1px;stroke-linecap:butt;stroke-linejoin:miter;stroke-opacity:1"
       d="M 5.8326811,6.7731657 C 5.6254863,6.7852054 7.5259131,6.5533417 7.5372383,6.4056218 C 7.5789361,5.8617374 4.3824487,6.0281798 4.171312,6.0281798 C 3.8822274,6.0281796 1.5312941,5.9158991 1.0176479,6.4773026 C 1.002439,7.2072357 1.0573522,7.4066945 1,8.15625 C 1,8.4109812 1.5285406,9.1441423 1.6531308,9.28125 C 1.7720762,9.4121459 1.8375218,9.8116661 1.8803067,10 C 1.9891014,10.478901 2.2366187,10.636526 2.3914525,11.0625 C 2.4688676,11.275482 2.8388194,11.631351 3.0445833,11.8125 C 3.2914387,12.029826 3.5006999,12.314442 3.6977141,12.53125 C 3.7953313,12.638675 4.308998,12.730675 4.3792418,12.75 C 4.495844,12.78208 4.5672126,12.932742 4.7200057,13 C 4.6925731,12.7761 4.5629609,12.292258 4.3224478,12.09375 C 4.142234,11.945011 3.8659204,12.052923 3.811302,11.8125 C 3.716523,11.395294 3.9326469,11.25 4.2656539,11.25 C 4.9135061,11.25 4.7767997,11.214191 4.7767997,11.75 C 4.7767997,11.993275 5.1586721,11.972247 5.3731365,12.03125 C 5.5717897,12.085903 5.0252419,11.749862 4.9755786,11.53125 C 4.9073396,11.23087 4.9365924,10.992056 5.0323726,10.78125 C 5.1363056,10.5525 5.2704916,10.300458 5.4299305,10.125 C 5.546737,9.9964579 5.9305458,9.9120443 6.0546643,9.84375 C 6.3831972,9.6629797 6.651001,9.8090483 6.651001,9.28125 C 6.6510011,8.9057591 6.3109255,8.8986269 6.1114582,8.84375 C 5.8298981,8.7662882 6.0022277,8.4375 5.5435184,8.4375 C 5.2272472,8.4374998 5.391886,7.9376501 4.9755786,8.28125 C 4.7840174,8.4393553 5.10353,8.9216935 4.9187847,9.125 C 4.7121157,9.3524328 4.304398,8.900599 4.2656539,8.84375 C 4.024807,8.4903578 3.7068079,8.698735 3.896493,8.28125 C 3.9678919,8.1241053 4.6962135,8.09375 4.8335936,8.09375 C 5.0057963,8.0937502 5.2975172,8.03125 5.5435184,8.03125 C 5.8076501,8.0312502 5.9433895,8.4273174 6.0546643,7.9375 C 6.1393165,7.5648715 6.0091247,7.53125 5.6287094,7.53125 C 5.5001243,7.53125 5.1432914,7.3586407 4.9755786,7.3125 C 4.8924762,7.2896371 5.901746,6.7691525 5.8326811,6.7731657 z M 5.2311515,12.84375 C 4.8592487,12.946067 4.8966494,12.941187 4.8051967,13.34375 C 4.7552477,13.563619 4.6671719,14.102465 4.8051967,14.40625 C 4.9317896,14.684873 5.220431,14.783005 5.3447395,15.125 C 5.4534209,15.424001 5.5151213,15.618756 5.5151214,16.0625 C 5.5151214,16.474757 5.4890152,16.802416 5.4015334,17.1875 C 5.313287,17.575949 5.1175635,17.51878 5.1175635,17.96875 C 5.1175635,18.342621 5.1756217,18.298518 5.5151214,18.3125 C 5.7609945,18.322625 5.3606868,18.367301 5.4583274,17.9375 C 5.5480047,17.542752 5.65743,17.936788 5.8274883,17.5625 C 6.0160156,17.147564 6.4647586,17.257317 6.5658101,16.8125 C 6.6920579,16.256773 6.7168411,16.427546 7.0769559,16.03125 C 7.289211,15.79767 7.6819994,15.524175 7.7584836,15.1875 C 7.8102153,14.959784 7.9416749,14.295347 7.7584836,14.09375 C 7.6104331,13.930825 7.1361546,13.877647 6.9633679,13.6875 C 6.7640257,13.46813 6.6355583,13.304003 6.3670311,13.15625 C 6.0749948,12.995562 5.8590399,13.200429 5.6855033,12.875 C 6.146745,12.828696 5.3442013,12.812648 5.2311515,12.84375 z"
       id="path2490"
       sodipodi:nodetypes="cssccsssssscsssssssssssssssssssssccssssssssssssssscc" />
    <path
       style="opacity:1;fill:#4e8006;fill-opacity:1;fill-rule:evenodd;stroke:none;stroke-width:1px;stroke-linecap:butt;stroke-linejoin:miter;stroke-opacity:1"
       d="M 15.823229,7.15625 C 15.601012,7.1772758 15.380132,7.2281821 15.226892,7.3125 C 14.958712,7.4600614 14.642587,7.5670025 14.318189,7.65625 C 13.900105,7.7712718 13.585463,7.8125 13.153911,7.8125 C 12.813442,7.8125 12.609366,7.7486236 12.273605,7.65625 C 12.014095,7.5848545 11.694191,7.573469 11.393298,7.65625 C 11.159858,7.7204733 10.787357,8.0836378 10.683373,8.3125 C 10.510137,8.6937807 10.166513,8.5249611 10.598183,9 C 10.648714,9.0556089 10.129604,9.1041251 9.9734489,8.875 C 9.7469258,8.542625 9.9357152,8.3957624 9.575891,8.59375 C 9.4148248,8.6823744 9.5623792,9.3467726 9.575891,9.40625 C 9.5964855,9.4969031 10.585633,9.2690773 9.9734489,9.4375 C 9.7702429,9.4934053 10.546559,9.87926 9.8882579,10 C 9.527146,10.066232 9.519097,10.021083 9.519097,10.46875 C 9.519097,10.835214 10.000988,10.438443 9.519097,10.96875 C 9.2978261,11.212251 9.0460732,11.338101 8.9856435,11.670606 C 8.9339515,11.955032 9.1467016,12.350869 9.0647451,12.53125 C 8.9122191,12.86695 9.2767336,13.170786 9.3771121,13.28125 C 9.5211233,13.43973 9.9873109,13.352188 10.08733,13.324671 C 10.535657,13.201328 10.599126,13.348745 10.694966,13.770618 C 10.763798,14.073602 10.892672,14.128722 10.95054,14.383447 C 11.024821,14.710421 11.092524,15.299853 11.092524,15.62163 C 11.092524,16.014424 11.087754,15.285097 11.160842,15.606823 C 11.208507,15.816638 11.42339,15.883467 11.506887,16.113183 C 11.841843,16.297487 12.163872,15.926424 12.284665,15.594104 C 12.391252,15.300865 12.42667,15.807546 12.529178,15.581933 C 12.629658,15.360783 12.731965,14.857355 12.78475,14.625 C 12.832637,14.414211 12.898339,14.129575 12.898339,13.78125 C 12.898339,13.614257 13.262707,13.362013 13.35269,13.3125 C 13.716272,13.112445 13.511367,12.824904 13.239103,12.75 C 13.001176,12.684543 13.690419,12.503341 13.863836,12.3125 C 14.10593,12.046083 14.241797,12.019369 14.11941,11.75 C 13.94256,11.360765 14.535301,11.707675 14.573761,11.75 C 14.76377,11.959097 14.852844,12.176745 14.971319,12.4375 C 15.084775,12.687209 15.26205,12.94494 15.397274,13.09375 C 15.691916,13.417994 15.567367,12.654976 15.539259,12.53125 C 15.453065,12.151836 15.890692,11.994129 16.050405,11.90625 C 16.429061,11.697901 16.44547,11.986293 16.504756,12.3125 C 16.582851,12.74221 16.521154,12.849471 16.817124,13.09375 C 17.136359,13.357232 16.783686,13.619453 16.56155,13.375 C 16.31435,13.102964 16.703535,13.578256 16.703535,13.875 C 16.703536,14.131238 17.144544,14.324454 17.32827,14.375 C 17.637519,14.46008 17.711869,14.582098 17.9814,14.65625 C 18.40575,14.772996 18.46235,14.533231 18.492546,14.5 C 18.516109,14.474071 17.798435,14.339399 18.236973,14.21875 C 18.462221,14.15678 18.085634,13.744761 18.407355,13.65625 C 18.451704,13.644049 18.042946,13.256505 17.839415,13.3125 C 17.564493,13.388136 17.61719,13.8125 17.214681,13.8125 C 17.001609,13.8125 17.081376,13.384552 16.930711,13.21875 C 16.609912,12.86572 17.351095,12.930774 17.41346,12.65625 C 17.50846,12.238079 17.297686,12.223562 17.41346,11.96875 C 17.512325,11.751158 17.881878,11.859521 18.038194,11.6875 C 18.216949,11.490787 18.232455,12.198861 18.293767,12.46875 C 18.389212,12.888885 18.402055,12.931667 18.606134,13.15625 C 18.616356,13.167499 18.627918,13.15126 18.63453,13.15625 C 18.61077,13.034794 18.441375,12.624691 18.407355,12.4375 C 18.363316,12.195186 18.348414,11.834304 18.293767,11.59375 C 18.194235,11.155617 18.554072,11.163195 18.293767,10.78125 C 17.98686,10.330926 18.422553,10.492738 18.54934,10.5625 C 18.661147,10.62402 18.715133,10.99798 19.003691,11.125 C 19.251492,11.234079 19.43892,10.833545 19.514837,10.75 C 19.72979,10.513454 19.702414,10.299312 19.77041,10 C 19.845938,9.6675352 19.724054,9.6257614 19.514837,9.65625 C 19.444339,9.7292112 19.391756,9.819868 19.316059,9.875 C 19.30169,10.081005 19.352746,10.386064 19.20247,10.46875 C 18.868691,10.652407 19.045481,10.889738 18.804912,10.625 C 18.461692,10.247295 18.89689,10.090016 19.060486,10 C 19.156513,9.9471625 19.243372,9.9279386 19.316059,9.875 C 19.322865,9.7774187 19.351608,9.7046759 19.429647,9.6875 C 19.463697,9.6800055 19.484023,9.6607406 19.514837,9.65625 C 19.530494,9.6400458 19.555612,9.6426286 19.571631,9.625 C 19.798035,9.3758506 19.60857,9.107025 19.429647,9.15625 C 19.268057,9.200706 19.240318,8.8354201 19.77041,8.71875 C 20.078057,8.6510386 20.168111,8.6873432 20.33835,8.5 C 20.615768,8.1947114 20.834367,8.7021012 20.90629,8.78125 C 21.099054,8.9933814 20.934687,8.1749994 20.934687,7.875 C 20.934688,7.5494302 20.454011,7.53125 20.224762,7.53125 C 20.097514,7.53125 19.631248,7.4119761 19.429647,7.375 C 18.969475,7.2905995 18.515525,7.15625 18.038194,7.15625 C 17.783119,7.15625 17.52655,7.15625 17.271475,7.15625 C 17.0164,7.15625 16.75983,7.15625 16.504756,7.15625 C 16.271488,7.15625 16.045445,7.1352242 15.823229,7.15625 z M 10.938947,9.84375 C 11.146519,9.8437499 11.161331,10.244728 11.308108,10.40625 C 11.401194,10.508689 11.855625,10.28125 11.904444,10.28125 C 12.021428,10.28125 12.387193,10.580662 12.387193,10.75 C 12.387193,11.036557 11.939404,10.90625 11.705666,10.90625 C 11.45053,10.90625 11.352867,11.129761 11.194519,10.78125 C 11.115952,10.608327 10.823976,10.46875 10.654976,10.46875 C 10.630929,10.46875 10.615188,10.512537 10.598183,10.53125 C 10.517521,10.620016 10.387846,10.39989 10.285816,10.34375 C 10.445633,10.075914 10.533958,9.84375 10.938947,9.84375 z"
       id="path2494"
       sodipodi:nodetypes="csssssssssssssssssssssscssssssssssssssssssssssssssssssssssssssccsssssssssssssssssccssssssscc" />
    <path
       style="fill:#4e8006;fill-opacity:1;fill-rule:evenodd;stroke:none;stroke-width:1px;stroke-linecap:butt;stroke-linejoin:miter;stroke-opacity:1"
       d="M 19.680257,14.233867 C 19.474943,14.16173 19.018228,13.434773 18.975047,13.387256 C 18.923312,13.330321 19.64619,13.439061 20.064917,13.669459 C 20.439739,13.8757 20.591166,13.754725 20.834235,14.022214 C 21.245959,14.475303 20.585191,14.518106 20.321355,14.44552 C 19.872001,14.321894 20.114289,15.082372 20.257245,15.292131 C 20.556829,15.731707 20.509232,15.992739 20.834235,16.350395 C 21.178549,16.729303 20.422878,17.259695 20.321355,17.40866 C 20.150403,17.659496 20.291552,17.897559 20.129025,18.255271 C 20.059681,18.407894 19.317461,17.150516 19.295597,17.126456 C 19.134752,16.949452 18.563701,17.055905 18.333948,17.055905 C 17.814312,17.055905 17.740198,16.896357 17.500518,16.632599 C 17.25146,16.358518 17.240081,16.002039 17.500518,15.715436 C 17.868624,15.310349 18.054901,15.55354 18.269837,15.080478 C 18.367092,14.866427 18.914575,14.709085 19.103268,14.657172 C 19.373532,14.582818 19.541492,15.039401 19.744365,15.151029 C 19.947549,15.262827 19.972751,14.647252 20.193135,14.586621 C 20.38872,14.532813 19.871513,14.304024 19.680257,14.233867 z"
       id="path3272" />
    <path
       style="fill:#4e8006;fill-opacity:1;fill-rule:evenodd;stroke:none;stroke-width:1px;stroke-linecap:butt;stroke-linejoin:miter;stroke-opacity:1"
       d="M 5.54033,6.922807 C 5.7261419,6.871687 6.0581944,7.0954731 6.2545391,7.2035088 C 6.6055265,7.396634 6.6178051,7.2867707 6.7136737,7.7087719 C 6.764492,7.9324678 7.0107987,8.091889 7.1217932,8.2140351 C 7.351435,8.4667486 7.4360796,8.4025158 7.5299128,7.9894737 C 7.5309453,7.9849285 8.304646,7.9685447 8.3971669,7.7649123 C 8.5316532,7.468916 8.8862166,7.3622286 9.0093462,7.0912281 C 9.2667435,6.5247125 8.989063,6.3052632 8.3461519,6.3052632 C 8.067463,6.3052632 7.6870245,6.4736842 7.325853,6.4736842 C 6.9881103,6.4736842 6.7477866,6.5064044 6.458599,6.5859649 C 6.04934,6.6985591 5.9271969,6.6035059 5.54033,6.922807 z"
       id="path3274" />
    <path
       style="fill:#4e8006;fill-opacity:1;fill-rule:evenodd;stroke:none;stroke-width:1px;stroke-linecap:butt;stroke-linejoin:miter;stroke-opacity:1"
       d="M 9.060361,7.9894737 C 9.0169015,8.0014302 8.2598191,8.0639677 8.8052864,8.2140351 C 8.9109204,8.2430968 8.9753362,8.0643275 9.060361,7.9894737 z"
       id="path3276" />
    <g
       id="g3373"
       transform="matrix(1.3147426,0,0,1.3147426,-3.2061923,-0.3132358)">
      <path
         transform="matrix(1.7632325,0,0,1.7632325,-8.0363537,-2.2089875)"
         d="M 11.677193,2.5754385 A 1.2070175,1.122807 0 1 1 9.2631582,2.5754385 A 1.2070175,1.122807 0 1 1 11.677193,2.5754385 z"
         sodipodi:ry="1.122807"
         sodipodi:rx="1.2070175"
         sodipodi:cy="2.5754385"
         sodipodi:cx="10.470176"
         id="path3288"
         style="fill:#a40000;fill-opacity:1;stroke:#ffffff;stroke-width:0.12941092;stroke-linejoin:miter;stroke-miterlimit:18.60000038;stroke-dasharray:none;stroke-dashoffset:0;stroke-opacity:1"
         sodipodi:type="arc" />
      <path
         id="path3292"
         d="M 10.433148,0.35233951 C 9.9687858,0.35233951 9.5291594,0.48879851 9.1791738,0.72388745 C 9.1027262,0.92371082 9.0398434,1.1049694 9.0398434,1.3276528 C 9.0398434,2.4204857 10.038564,3.3247231 11.269131,3.3247231 C 11.669065,3.3247231 12.059143,3.2564921 12.383775,3.0925055 C 12.389678,3.0795285 12.378162,3.0591784 12.383775,3.0460621 C 12.480595,2.8198041 12.569549,2.6076477 12.569549,2.3494097 C 12.569549,1.2565768 11.607944,0.35233951 10.433148,0.35233951 z"
         style="opacity:0.63739379;fill:url(#radialGradient3377);fill-opacity:1;stroke:none;stroke-width:1;stroke-linejoin:miter;stroke-miterlimit:18.60000038;stroke-dasharray:none;stroke-dashoffset:0;stroke-opacity:1" />
    </g>
    <rect
       style="opacity:1;fill:#000304;fill-opacity:1;stroke:none;stroke-width:0.30000001;stroke-linejoin:miter;stroke-miterlimit:18.60000038;stroke-dasharray:none;stroke-dashoffset:0;stroke-opacity:1"
       id="rect3290"
       width="1"
       height="4.2210526"
       x="10"
       y="5.0999475" />
  </g>
</svg>
