<?xml version="1.0" encoding="UTF-8" standalone="no"?>
<!-- Created with Inkscape (http://www.inkscape.org/) -->
<svg
   xmlns:dc="http://purl.org/dc/elements/1.1/"
   xmlns:cc="http://creativecommons.org/ns#"
   xmlns:rdf="http://www.w3.org/1999/02/22-rdf-syntax-ns#"
   xmlns:svg="http://www.w3.org/2000/svg"
   xmlns="http://www.w3.org/2000/svg"
   xmlns:xlink="http://www.w3.org/1999/xlink"
   xmlns:sodipodi="http://sodipodi.sourceforge.net/DTD/sodipodi-0.dtd"
   xmlns:inkscape="http://www.inkscape.org/namespaces/inkscape"
   width="32"
   height="32"
   id="svg5214"
   sodipodi:version="0.32"
   inkscape:version="0.46"
   version="1.0"
   inkscape:export-filename="/Users/lse/Sites/BambusONE/System/ClientData/Icons/tango/large/apps/utilities-linker.png"
   inkscape:export-xdpi="90"
   inkscape:export-ydpi="90"
   sodipodi:docname="app-utilities-linker-medium.svg"
   inkscape:output_extension="org.inkscape.output.svg.inkscape">
  <defs
     id="defs5216">
    <linearGradient
       inkscape:collect="always"
       id="linearGradient3446">
      <stop
         style="stop-color:#ffffff;stop-opacity:1"
         offset="0"
         id="stop3448" />
      <stop
         style="stop-color:#ffffff;stop-opacity:0"
         offset="1"
         id="stop3450" />
    </linearGradient>
    <linearGradient
       inkscape:collect="always"
       id="linearGradient3436">
      <stop
         style="stop-color:#3465a4;stop-opacity:1"
         offset="0"
         id="stop3438" />
      <stop
         style="stop-color:#729fcf;stop-opacity:1"
         offset="1"
         id="stop3440" />
    </linearGradient>
    <linearGradient
       inkscape:collect="always"
       id="linearGradient3347">
      <stop
         style="stop-color:#fce94f;stop-opacity:1;"
         offset="0"
         id="stop3349" />
      <stop
         style="stop-color:#fce94f;stop-opacity:0;"
         offset="1"
         id="stop3351" />
    </linearGradient>
    <linearGradient
       inkscape:collect="always"
       id="linearGradient3335">
      <stop
         style="stop-color:#8ae234;stop-opacity:1;"
         offset="0"
         id="stop3337" />
      <stop
         style="stop-color:#d3e2d1;stop-opacity:1"
         offset="1"
         id="stop3339" />
    </linearGradient>
    <linearGradient
       inkscape:collect="always"
       id="linearGradient3325">
      <stop
         style="stop-color:#8ae234;stop-opacity:1;"
         offset="0"
         id="stop3327" />
      <stop
         style="stop-color:#d5eed7;stop-opacity:1"
         offset="1"
         id="stop3329" />
    </linearGradient>
    <linearGradient
       inkscape:collect="always"
       id="linearGradient2537">
      <stop
         style="stop-color:#8ae234;stop-opacity:1;"
         offset="0"
         id="stop2539" />
      <stop
         style="stop-color:#edd400;stop-opacity:1"
         offset="1"
         id="stop2541" />
    </linearGradient>
    <inkscape:perspective
       sodipodi:type="inkscape:persp3d"
       inkscape:vp_x="0 : 24 : 1"
       inkscape:vp_y="0 : 1000 : 0"
       inkscape:vp_z="48 : 24 : 1"
       inkscape:persp3d-origin="24 : 16 : 1"
       id="perspective2445" />
    <linearGradient
       inkscape:collect="always"
       id="linearGradient5772">
      <stop
         style="stop-color:#ffffff;stop-opacity:1;"
         offset="0"
         id="stop5774" />
      <stop
         style="stop-color:#ffffff;stop-opacity:0;"
         offset="1"
         id="stop5776" />
    </linearGradient>
    <linearGradient
       inkscape:collect="always"
       xlink:href="#linearGradient5772"
       id="linearGradient5778"
       x1="17.023659"
       y1="7.6149831"
       x2="17.023659"
       y2="24.223293"
       gradientUnits="userSpaceOnUse" />
    <inkscape:perspective
       id="perspective2511"
       inkscape:persp3d-origin="372.04724 : 350.78739 : 1"
       inkscape:vp_z="744.09448 : 526.18109 : 1"
       inkscape:vp_y="0 : 1000 : 0"
       inkscape:vp_x="0 : 526.18109 : 1"
       sodipodi:type="inkscape:persp3d" />
    <linearGradient
       inkscape:collect="always"
       xlink:href="#linearGradient2537"
       id="linearGradient3315"
       x1="-1.1351522"
       y1="75.311684"
       x2="-2.6757815"
       y2="121.04288"
       gradientUnits="userSpaceOnUse" />
    <linearGradient
       inkscape:collect="always"
       xlink:href="#linearGradient3325"
       id="linearGradient3333"
       x1="33.792107"
       y1="37.197617"
       x2="32.885265"
       y2="-82.211632"
       gradientUnits="userSpaceOnUse" />
    <linearGradient
       inkscape:collect="always"
       xlink:href="#linearGradient3335"
       id="linearGradient3343"
       x1="-113.55769"
       y1="-24.512772"
       x2="-70.002266"
       y2="-55.635395"
       gradientUnits="userSpaceOnUse" />
    <radialGradient
       inkscape:collect="always"
       xlink:href="#linearGradient3347"
       id="radialGradient3353"
       cx="118.00543"
       cy="61.140594"
       fx="118.00543"
       fy="61.140594"
       r="87.515625"
       gradientTransform="matrix(-0.2177287,-0.950803,1.1446271,-0.2621121,42.091141,194.64512)"
       gradientUnits="userSpaceOnUse" />
    <linearGradient
       inkscape:collect="always"
       xlink:href="#linearGradient3335"
       id="linearGradient3356"
       gradientUnits="userSpaceOnUse"
       x1="-113.55769"
       y1="-24.512772"
       x2="-70.002266"
       y2="-55.635395" />
    <radialGradient
       inkscape:collect="always"
       xlink:href="#linearGradient3347"
       id="radialGradient3359"
       gradientUnits="userSpaceOnUse"
       gradientTransform="matrix(-0.2177287,-0.950803,1.1446271,-0.2621121,42.091141,194.64512)"
       cx="118.00543"
       cy="61.140594"
       fx="118.00543"
       fy="61.140594"
       r="87.515625" />
    <linearGradient
       inkscape:collect="always"
       xlink:href="#linearGradient2537"
       id="linearGradient3362"
       gradientUnits="userSpaceOnUse"
       x1="-1.1351522"
       y1="75.311684"
       x2="-2.6757815"
       y2="121.04288" />
    <linearGradient
       inkscape:collect="always"
       xlink:href="#linearGradient2537"
       id="linearGradient3376"
       gradientUnits="userSpaceOnUse"
       x1="-1.1351522"
       y1="75.311684"
       x2="-2.6757815"
       y2="121.04288" />
    <linearGradient
       inkscape:collect="always"
       xlink:href="#linearGradient3325"
       id="linearGradient3378"
       gradientUnits="userSpaceOnUse"
       x1="33.792107"
       y1="37.197617"
       x2="32.885265"
       y2="-82.211632" />
    <linearGradient
       inkscape:collect="always"
       xlink:href="#linearGradient3335"
       id="linearGradient3380"
       gradientUnits="userSpaceOnUse"
       x1="-113.55769"
       y1="-24.512772"
       x2="-70.002266"
       y2="-55.635395" />
    <radialGradient
       inkscape:collect="always"
       xlink:href="#linearGradient3347"
       id="radialGradient3382"
       gradientUnits="userSpaceOnUse"
       gradientTransform="matrix(-0.2177287,-0.950803,1.1446271,-0.2621121,42.091141,194.64512)"
       cx="118.00543"
       cy="61.140594"
       fx="118.00543"
       fy="61.140594"
       r="87.515625" />
    <radialGradient
       inkscape:collect="always"
       xlink:href="#linearGradient3347"
       id="radialGradient3385"
       gradientUnits="userSpaceOnUse"
       gradientTransform="matrix(-4.2581014e-2,-0.1859477,0.2238537,-5.1261037e-2,32.119861,56.369099)"
       cx="118.00543"
       cy="61.140594"
       fx="118.00543"
       fy="61.140594"
       r="87.515625" />
    <linearGradient
       inkscape:collect="always"
       xlink:href="#linearGradient3335"
       id="linearGradient3390"
       gradientUnits="userSpaceOnUse"
       x1="-113.55769"
       y1="-24.512772"
       x2="-70.002266"
       y2="-55.635395"
       gradientTransform="matrix(0.1906898,0,0,0.1906898,23.42547,17.80502)" />
    <linearGradient
       inkscape:collect="always"
       xlink:href="#linearGradient3325"
       id="linearGradient3394"
       gradientUnits="userSpaceOnUse"
       x1="33.792107"
       y1="37.197617"
       x2="32.885265"
       y2="-82.211632"
       gradientTransform="matrix(0.1955691,0,0,0.1955691,23.888133,18.302521)" />
    <linearGradient
       inkscape:collect="always"
       xlink:href="#linearGradient2537"
       id="linearGradient3397"
       gradientUnits="userSpaceOnUse"
       x1="-1.1351522"
       y1="75.311684"
       x2="-2.6757815"
       y2="121.04288"
       gradientTransform="matrix(0.1959073,0,0,0.1959073,23.842834,17.940802)" />
    <linearGradient
       inkscape:collect="always"
       xlink:href="#linearGradient2537"
       id="linearGradient3410"
       gradientUnits="userSpaceOnUse"
       gradientTransform="matrix(0.1959073,0,0,0.1959073,23.842834,17.940802)"
       x1="-1.1351522"
       y1="75.311684"
       x2="-2.6757815"
       y2="121.04288" />
    <linearGradient
       inkscape:collect="always"
       xlink:href="#linearGradient3325"
       id="linearGradient3412"
       gradientUnits="userSpaceOnUse"
       gradientTransform="matrix(0.1955691,0,0,0.1955691,23.888133,18.302521)"
       x1="33.792107"
       y1="37.197617"
       x2="32.885265"
       y2="-82.211632" />
    <linearGradient
       inkscape:collect="always"
       xlink:href="#linearGradient3335"
       id="linearGradient3414"
       gradientUnits="userSpaceOnUse"
       gradientTransform="matrix(0.1906898,0,0,0.1906898,23.42547,17.80502)"
       x1="-113.55769"
       y1="-24.512772"
       x2="-70.002266"
       y2="-55.635395" />
    <radialGradient
       inkscape:collect="always"
       xlink:href="#linearGradient3347"
       id="radialGradient3416"
       gradientUnits="userSpaceOnUse"
       gradientTransform="matrix(-4.2581014e-2,-0.1859477,0.2238537,-5.1261037e-2,32.119861,56.369099)"
       cx="118.00543"
       cy="61.140594"
       fx="118.00543"
       fy="61.140594"
       r="87.515625" />
    <radialGradient
       inkscape:collect="always"
       xlink:href="#linearGradient3347"
       id="radialGradient3419"
       gradientUnits="userSpaceOnUse"
       gradientTransform="matrix(-2.6781783e-2,-0.116954,0.1407952,-3.2241231e-2,20.546706,36.871741)"
       cx="118.00543"
       cy="61.140594"
       fx="118.00543"
       fy="61.140594"
       r="87.515625" />
    <linearGradient
       inkscape:collect="always"
       xlink:href="#linearGradient3335"
       id="linearGradient3424"
       gradientUnits="userSpaceOnUse"
       gradientTransform="matrix(0.1199364,0,0,0.1199366,15.078275,12.61641)"
       x1="-113.55769"
       y1="-24.512772"
       x2="-70.002266"
       y2="-55.635395" />
    <linearGradient
       inkscape:collect="always"
       xlink:href="#linearGradient3325"
       id="linearGradient3428"
       gradientUnits="userSpaceOnUse"
       gradientTransform="matrix(0.1230053,0,0,0.1230055,15.369272,12.92932)"
       x1="33.792107"
       y1="37.197617"
       x2="32.885265"
       y2="-82.211632" />
    <linearGradient
       inkscape:collect="always"
       xlink:href="#linearGradient2537"
       id="linearGradient3431"
       gradientUnits="userSpaceOnUse"
       gradientTransform="matrix(0.123218,0,0,0.1232182,15.340781,12.701812)"
       x1="-1.1351522"
       y1="75.311684"
       x2="-2.6757815"
       y2="121.04288" />
    <linearGradient
       inkscape:collect="always"
       xlink:href="#linearGradient3436"
       id="linearGradient3444"
       x1="-17.615215"
       y1="91.0308"
       x2="-11.118235"
       y2="-62.649628"
       gradientUnits="userSpaceOnUse" />
    <linearGradient
       inkscape:collect="always"
       xlink:href="#linearGradient3446"
       id="linearGradient3452"
       x1="8.5061026"
       y1="-117.06905"
       x2="8.0374002"
       y2="29.645702"
       gradientUnits="userSpaceOnUse" />
  </defs>
  <sodipodi:namedview
     id="base"
     pagecolor="#ffffff"
     bordercolor="#666666"
     borderopacity="1.0"
     gridtolerance="10000"
     guidetolerance="10"
     objecttolerance="10"
     inkscape:pageopacity="0.0"
     inkscape:pageshadow="2"
     inkscape:zoom="4.453125"
     inkscape:cx="12.9981"
     inkscape:cy="0.05701043"
     inkscape:document-units="px"
     inkscape:current-layer="layer1"
     showgrid="true"
     inkscape:snap-bbox="true"
     inkscape:snap-nodes="false"
     inkscape:window-width="1374"
     inkscape:window-height="1019"
     inkscape:window-x="136"
     inkscape:window-y="22">
    <inkscape:grid
       type="xygrid"
       id="grid5224"
       visible="true"
       enabled="true" />
  </sodipodi:namedview>
  <metadata
     id="metadata5219">
    <rdf:RDF>
      <cc:Work
         rdf:about="">
        <dc:format>image/svg+xml</dc:format>
        <dc:type
           rdf:resource="http://purl.org/dc/dcmitype/StillImage" />
      </cc:Work>
    </rdf:RDF>
  </metadata>
  <g
     inkscape:label="Layer 1"
     inkscape:groupmode="layer"
     id="layer1">
    <path
       sodipodi:type="arc"
       style="fill:url(#linearGradient3444);fill-opacity:1;stroke:#204a87;stroke-width:8.31752396;stroke-linejoin:miter;stroke-miterlimit:18.60000038;stroke-dasharray:none;stroke-dashoffset:0;stroke-opacity:1"
       id="path2517"
       sodipodi:cx="0"
       sodipodi:cy="11.796133"
       sodipodi:rx="128.93658"
       sodipodi:ry="128.93658"
       d="M 128.93658,11.796133 A 128.93658,128.93658 0 1 1 -128.93658,11.796133 A 128.93658,128.93658 0 1 1 128.93658,11.796133 z"
       transform="matrix(0.1202279,0,0,0.1202281,15.976352,14.577044)" />
    <path
       style="fill:url(#linearGradient3431);fill-opacity:1;fill-rule:evenodd;stroke:none;stroke-width:0.99999994px;stroke-linecap:butt;stroke-linejoin:miter;stroke-opacity:1"
       d="M 17.297345,31.607897 C 16.801682,31.294847 16.30602,30.981796 15.810357,30.668745 C 16.150075,29.581972 14.772454,30.006719 14.152779,29.814581 C 12.971436,29.645781 11.774625,29.515833 10.604,29.314037 C 10.018389,28.939118 9.3695093,28.643433 8.8250896,28.216931 C 8.4177176,27.76262 7.953256,27.339564 7.581227,26.865904 C 7.4652033,26.343909 7.2915533,25.822889 7.2114561,25.300285 C 7.3099362,24.942616 7.3305098,24.542467 7.4767661,24.210847 C 7.976967,23.640214 8.5426388,23.153809 9.3303049,23.098049 C 9.787417,23.129338 9.8419144,22.664906 10.02554,22.359666 C 10.144007,22.061452 10.305401,21.799602 10.60056,21.651067 C 10.841066,21.539286 11.057171,21.132666 11.327711,21.383774 C 11.675516,21.51544 11.99012,21.851702 12.383969,21.699621 C 13.410357,21.51499 14.453154,21.499705 15.491956,21.501918 C 16.000166,21.46054 16.813259,20.972815 16.659016,21.838509 C 16.538854,22.444849 16.886924,22.642766 17.405221,22.652368 C 17.709182,22.718016 18.055985,22.70244 18.237579,23.00008 C 18.442947,23.261598 18.811135,23.259665 19.097385,23.390312 C 19.402201,23.261532 19.473752,22.990945 19.488699,22.685947 C 19.787634,22.520286 20.017933,22.118916 20.399874,22.2383 C 21.267675,22.313586 22.14591,22.336758 23.010515,22.216371 C 23.36448,22.472428 23.73168,22.715676 23.937214,23.115375 C 24.394358,23.78328 24.994075,24.338159 25.514917,24.955566 C 26.006426,25.276268 26.602797,25.291343 27.158433,25.425142 C 27.641787,25.107434 28.106567,24.767588 28.488897,24.329465 C 27.367132,25.868632 26.245369,27.407798 25.123606,28.946964 C 23.804938,29.604112 22.502324,30.296231 21.125065,30.825744 C 20.62417,31.036622 20.13501,31.290626 19.579154,31.299546 C 18.818552,31.40233 18.057949,31.505114 17.297345,31.607897 z"
       id="path2519" />
    <path
       style="fill:url(#linearGradient3428);fill-opacity:1;fill-rule:evenodd;stroke:none;stroke-width:0.99999994px;stroke-linecap:butt;stroke-linejoin:miter;stroke-opacity:1"
       d="M 16.853024,0.15981091 L 16.853024,0.551891 C 16.853024,0.551891 18.258648,0.62876944 18.336775,0.62876944 C 18.414902,0.62876981 19.120934,1.0977279 19.120934,1.0977279 L 19.743648,1.5666864 L 18.886454,1.2553287 C 18.886454,1.2553289 19.196563,1.6461595 19.274691,1.7242872 C 19.352818,1.8024147 20.055005,1.8780441 20.055005,1.8780441 L 20.758442,1.8780441 C 20.758442,1.8780442 20.759788,2.5840766 20.916043,2.6622042 C 21.072297,2.740332 20.839164,2.8966834 20.839164,2.8966834 C 20.839164,2.896683 20.135727,2.8954341 20.135727,2.9735618 C 20.135727,3.0516891 19.743648,3.2849196 19.743648,3.2849196 L 19.120934,3.4425203 C 19.120934,3.4425206 19.354163,3.9883573 19.432291,3.9883573 C 19.510419,3.9883574 20.370206,3.6769996 20.370206,3.6769996 L 21.150522,4.3035589 L 21.696358,5.083875 L 21.619478,5.4721111 L 21.2274,5.3183542 C 21.2274,5.3183541 21.541352,6.2562712 21.619478,6.2562712 C 21.697606,6.256271 22.088437,6.4907505 22.088437,6.4907505 L 21.853958,6.8021082 L 21.2274,6.8789863 L 20.681563,6.3331497 L 20.289484,5.6297119 L 20.055005,5.0031526 L 19.901249,5.3183542 L 19.82437,5.8641912 C 19.82437,5.8641913 20.0576,6.5663798 20.135727,6.6445073 C 20.213855,6.7226349 20.604686,6.8815812 20.604686,6.9597086 C 20.604685,7.0378368 21.073642,7.0365874 21.073642,7.0365874 L 21.461879,7.1134656 L 21.77708,7.3479449 L 21.385,7.6631465 L 20.99292,7.6631465 C 20.99292,7.6631465 20.758442,7.738776 20.758442,7.8169035 C 20.758442,7.8950316 20.681563,8.1282615 20.681563,8.1282615 L 20.604686,8.4434625 L 20.916043,8.6779424 L 20.447084,8.5203406 L 19.589892,8.3627408 L 18.963334,8.3627408 C 18.963334,8.3627408 18.495625,8.0513827 18.417497,8.0513827 C 18.33937,8.0513827 17.790939,8.285862 17.790939,8.285862 C 17.790939,8.285862 17.555114,8.5998143 17.39886,8.6779424 C 17.242605,8.7560699 17.010625,9.146901 17.010625,9.146901 L 16.464789,9.7696159 L 16.384066,10.161696 L 15.99583,10.707532 L 15.446151,11.334092 L 15.057915,11.879929 L 14.977193,12.425766 L 14.977193,13.129204 L 15.446151,13.444406 L 15.915108,12.975447 L 16.307188,12.975447 C 16.307188,12.975447 16.464789,13.366277 16.464789,13.444406 C 16.464789,13.522533 16.773646,13.912114 16.929902,13.990243 C 17.086157,14.06837 17.479582,14.067121 17.479582,14.067121 L 17.790939,13.755763 L 17.790939,13.286804 L 18.025418,12.740968 L 17.790939,12.272009 L 17.633338,11.176492 L 17.867817,10.865134 L 18.336775,10.084817 C 18.336775,10.084817 18.493126,10.084817 18.571254,10.084817 C 18.649381,10.084817 18.183018,11.334092 18.183018,11.334092 L 18.494376,12.03753 L 18.805732,12.348888 L 18.728854,12.894724 C 18.728854,12.894724 18.728854,13.600757 18.728854,13.678885 C 18.728854,13.757012 18.649381,14.069715 18.571254,14.147843 C 18.493126,14.225971 18.102296,14.4592 18.102296,14.4592 L 17.633338,14.4592 L 17.010625,14.69368 L 16.541666,14.69368 C 16.541666,14.69368 16.853024,14.456606 16.853024,14.378479 C 16.853024,14.30035 16.541666,13.832641 16.541666,13.832641 L 16.149587,13.209926 L 15.68063,13.990243 L 15.915108,14.612958 L 15.134794,15.005038 L 14.588958,15.397117 L 14.196878,15.785354 C 14.196878,15.785354 14.351884,15.162639 14.273756,15.162639 C 14.195629,15.162638 13.808642,14.69368 13.808642,14.69368 L 13.493442,13.913364 L 13.72792,13.286804 C 13.72792,13.286804 13.652291,13.052326 13.574164,13.052326 C 13.496036,13.052326 13.651042,12.425766 13.651042,12.425766 L 12.947606,12.817846 L 12.636248,13.521284 L 12.40177,13.913364 L 11.932812,14.147843 C 11.932812,14.147843 11.463854,13.91346 11.463854,14.147843 C 11.463854,14.382226 11.461259,14.69368 11.383132,14.69368 C 11.305004,14.69368 11.071775,14.850031 11.071775,14.928159 C 11.071775,15.006287 11.617611,15.162639 11.617611,15.162639 C 11.617611,15.162638 12.086568,15.240766 12.086568,15.162639 C 12.086568,15.084511 12.321047,14.771808 12.321047,14.69368 C 12.321047,14.615552 12.636248,14.3016 12.636248,14.3016 C 12.636248,14.3016 12.947606,14.457952 12.947606,14.53608 C 12.947605,14.614207 12.555526,15.005038 12.555526,15.005038 C 12.555526,15.005038 12.555526,15.161389 12.555526,15.239517 C 12.555526,15.317644 12.713126,15.473996 12.713126,15.473996 L 12.321047,15.708475 L 12.00969,16.177434 L 12.870727,16.019833 L 13.72792,16.019833 L 14.039278,16.019833 L 13.574164,16.411913 L 13.182084,16.254313 C 13.182084,16.254313 13.260212,16.491386 13.182084,16.569514 C 13.103956,16.647641 12.478648,16.646393 12.478648,16.646393 L 12.478648,16.880872 L 12.870727,17.192229 L 13.258963,18.053268 L 12.870727,18.833584 L 11.071775,18.364626 L 10.760418,18.675983 C 10.760418,18.675983 10.760418,19.147536 10.760418,19.225663 C 10.760418,19.303792 10.604066,19.770252 10.525938,19.848379 C 10.447812,19.926507 10.368338,20.394216 10.368338,20.394216 L 10.44906,20.786297 L 11.463854,21.489734 L 12.321047,21.332133 L 13.024484,21.097654 L 13.416562,20.551817 L 13.493442,20.005981 L 14.354478,19.537022 C 14.354478,19.537022 14.276351,19.144942 14.354478,19.144942 C 14.432607,19.144942 14.900314,19.144942 14.900314,19.144942 L 15.83823,18.756706 L 16.384066,19.144942 L 17.245103,20.082859 L 17.867817,20.317338 L 18.025418,20.628696 L 17.714061,20.943897 C 17.714061,20.943897 17.323231,20.86577 17.245103,20.943897 C 17.166976,21.022025 16.932496,21.412856 17.010625,21.412856 C 17.088752,21.412856 17.633338,21.724214 17.633338,21.724214 C 17.633338,21.724214 18.025418,21.64474 18.025418,21.566612 C 18.025418,21.488485 18.417497,21.020775 18.417497,21.020775 L 18.651976,20.394216 L 18.259896,20.163581 L 18.963334,20.394216 L 18.728854,19.848379 L 17.790939,19.460144 L 17.39886,18.991185 L 16.929902,18.207025 L 17.94854,18.833584 L 18.728854,19.225663 L 19.355413,19.771501 L 19.432291,20.474939 L 19.82437,21.097654 L 20.135727,21.412856 L 21.2274,21.801091 L 21.542601,21.489734 L 20.758442,21.178376 L 20.758442,20.786297 L 20.916043,20.628696 L 20.289484,20.082859 L 20.99292,19.6139 L 21.2274,20.317338 L 21.696358,20.943897 L 22.399794,20.943897 L 22.634272,20.551817 L 22.868751,20.709418 L 23.26083,20.943897 L 23.649066,20.709418 L 23.964268,20.240459 L 23.964268,21.412856 L 23.729788,21.958693 L 23.026352,22.193172 L 24.198746,23.365568 L 24.433226,23.131088 L 25.916976,24.614843 L 26.697291,25.31828 L 27.32385,25.160679 C 27.32385,25.160679 28.652596,23.28869 28.730723,23.28869 C 28.80885,23.28869 29.118958,22.427651 29.118958,22.427651 L 29.587916,21.566612 L 29.745517,20.628696 L 29.822395,19.929101 L 29.511038,20.082859 L 29.19968,19.848379 L 28.730723,21.178376 L 28.261766,21.020775 L 27.712085,20.628696 L 27.712085,20.240459 L 28.573122,20.317338 L 29.276559,19.771501 L 29.899273,19.302542 L 30.602709,18.441505 L 31.775104,18.364626 L 31.775104,16.803993 L 31.775104,14.928159 L 31.698226,12.894724 L 30.683431,10.473054 L 29.745517,8.2089839 L 28.415522,6.3331497 L 25.993855,3.6769996 L 23.180108,1.9587664 L 20.99292,1.0208494 L 19.197812,0.47501257 L 16.853024,0.15981091 z M 26.074577,15.239517 L 26.697291,15.708475 L 27.166249,16.177434 C 27.166249,16.177434 27.400728,16.879622 27.400728,16.957751 C 27.400728,17.035878 27.792807,17.503587 27.792807,17.503587 L 27.008648,17.818789 L 26.620414,16.880872 L 25.993855,16.488791 L 25.524897,16.019833 C 25.524897,16.019833 25.682499,15.553372 25.682498,15.397117 C 25.682498,15.240863 26.074577,15.239517 26.074577,15.239517 z M 21.869333,16.950062 C 21.968042,16.937187 22.246037,17.349829 22.246037,17.34983 C 22.246037,17.34983 22.713745,17.503587 22.791873,17.503587 C 22.870001,17.503587 23.258333,17.115351 23.414588,17.115351 C 23.570842,17.115351 23.964268,17.272952 23.964268,17.272952 C 23.964268,17.272952 24.666455,17.506182 24.744582,17.58431 C 24.82271,17.662437 24.667704,17.972545 24.667704,17.972545 L 23.964268,18.287746 L 23.026352,18.287746 L 22.557394,18.910462 L 21.542601,19.068064 C 21.386346,18.989935 21.619478,18.050673 21.619478,17.972545 C 21.619478,17.894418 21.77583,17.035878 21.853958,16.957751 C 21.858841,16.952867 21.862753,16.950921 21.869333,16.950062 z"
       id="path2521" />
    <path
       style="fill:#8ae234;fill-rule:evenodd;stroke:none;stroke-width:0.99999994px;stroke-linecap:butt;stroke-linejoin:miter;stroke-opacity:1"
       d="M 10.603494,9.3020134 C 10.724303,9.644082 10.86106,9.9802562 10.994132,10.317672 C 11.212467,10.30948 11.436731,10.333985 11.651399,10.305579 C 11.84899,10.231483 12.046581,10.157386 12.244172,10.083289 C 12.296169,9.94215 12.357643,9.7994865 12.27347,9.6535873 C 12.202745,9.3139342 11.747093,9.4477366 11.495857,9.326428 C 11.233821,9.2759514 10.96221,9.3136705 10.695958,9.3020134 C 10.665137,9.3020134 10.634316,9.3020134 10.603494,9.3020134 z"
       id="path2527" />
    <path
       style="fill:url(#linearGradient3424);fill-opacity:1;fill-rule:evenodd;stroke:none;stroke-width:0.99999994px;stroke-linecap:butt;stroke-linejoin:miter;stroke-opacity:1"
       d="M 16.068593,0.16673132 C 15.798529,0.30321431 15.556045,0.54355525 15.230585,0.47144459 C 14.881796,0.44804256 14.544092,0.47924882 14.231889,0.6522197 C 13.691607,0.93929585 13.042016,0.60427553 12.510849,0.93108161 C 12.194311,1.1222223 11.259771,1.2855144 11.365775,1.6057885 C 11.955845,1.7121029 12.811809,1.9586914 12.292755,2.6233403 C 12.514828,2.787851 13.034399,2.8787642 12.564393,3.1376885 C 12.989066,3.2454827 13.595824,3.1309404 13.466629,3.7828243 C 13.584304,4.14301 14.202578,3.9371307 14.403322,4.3277728 C 14.994313,4.6114922 14.253538,4.8297936 14.087958,5.194505 C 13.757069,5.8040556 13.324343,6.389777 12.884877,6.8863496 C 12.073475,6.6074651 12.641063,7.9975571 11.813918,7.7565986 C 11.031731,7.944868 10.21035,7.9191369 9.4410842,8.1654625 C 8.9488465,7.8046767 8.5616928,8.6470236 8.0698757,8.7748899 C 7.8542445,9.2505057 6.9841302,9.0485381 7.1079082,8.5480845 C 7.1039408,8.0510887 7.4594473,7.6643431 7.5866192,7.2001391 C 7.8772554,6.5324035 8.7344851,6.5376985 9.2220717,6.0515119 C 9.8349592,5.7296161 9.814702,4.783088 10.583758,4.6612564 C 10.667967,4.2873381 10.86006,3.9875339 11.117006,3.7471157 C 10.363355,3.5464896 9.9034461,4.2037516 9.4424792,4.6844669 C 8.8888061,5.098434 8.5577544,5.7594981 7.975992,6.0980821 C 7.4599476,6.269964 6.3912932,6.8571396 6.7748451,5.7848874 C 6.9552116,5.3273924 7.4992279,4.9760948 7.8258672,4.754099 C 7.6314992,3.9977062 7.0968306,4.9082648 6.9053304,4.9995956 C 6.8574996,4.6828127 7.0905347,3.5689705 6.54631,4.204186 C 6.2916529,4.7479092 6.0437805,5.2920696 5.4012554,5.4194694 C 4.9904477,5.6144046 4.2396916,6.2012619 5.1132064,6.3324199 C 5.6158355,6.0666586 6.0169937,5.4314239 6.6986663,5.3468619 C 6.5317628,5.9550109 5.9888853,6.4475711 6.0892404,7.1144387 C 5.8259963,7.6127978 5.4289186,8.0612493 5.2474111,8.6168787 C 5.1080624,9.2735174 4.7790831,9.8763014 4.2419176,10.298457 C 3.9993509,10.684655 4.0389602,11.559462 3.5753578,11.669668 C 3.4578525,11.229071 3.4296023,10.764748 2.9528675,10.607956 C 2.687188,10.459038 2.5572909,10.200353 2.4397425,9.9316829 C 2.3788652,9.6421959 2.0361674,9.8087023 1.8232574,9.7652087 C 1.5947235,9.9175654 1.3661883,10.069923 1.1376531,10.222279 C 1.7114168,9.0483884 2.2616514,7.8591551 2.8385718,6.6893261 C 3.5585113,5.88698 4.212724,5.0213212 5.0319338,4.3146 C 5.3590322,3.97587 5.7235949,3.6858257 6.1374734,3.459868 C 6.8177743,3.0539749 7.466891,2.589617 8.167508,2.2218114 C 9.1195226,1.8165977 10.035083,1.3163261 11.03702,1.0412857 C 11.983138,0.71168741 12.950837,0.45771304 13.925034,0.22650771 C 14.423558,0.10162849 14.949089,0.19613377 15.459367,0.16673132 C 15.662442,0.16673132 15.865517,0.16673132 16.068593,0.16673132 z"
       id="path2529" />
    <path
       style="fill:none;fill-rule:evenodd;stroke:none;stroke-width:0.99999994px;stroke-linecap:butt;stroke-linejoin:miter;stroke-opacity:1"
       d="M 17.088077,6.2550355 L 17.088077,6.2550355 z"
       id="path2531" />
    <path
       style="fill:#8ae234;fill-rule:evenodd;stroke:none;stroke-width:0.99999994px;stroke-linecap:butt;stroke-linejoin:miter;stroke-opacity:1"
       d="M 17.166205,5.6300145 C 16.910972,5.4745068 16.612849,5.1707644 16.331892,5.4585332 C 16.084731,5.5936465 15.819762,5.7277019 15.721608,6.0133281 C 15.50231,6.3988212 16.096451,6.4218917 16.326735,6.5230843 C 16.470566,6.6656324 16.719761,6.5893296 16.901178,6.5471958 C 17.067649,6.4758517 17.234118,6.4045075 17.400587,6.3331632 C 17.322459,6.0987803 17.244332,5.8643974 17.166205,5.6300145 z"
       id="path2533" />
    <path
       style="fill:url(#radialGradient3419);fill-opacity:1;fill-rule:evenodd;stroke:none;stroke-width:0.99999994px;stroke-linecap:butt;stroke-linejoin:miter;stroke-opacity:1"
       d="M 16.853024,0.15981091 C 16.878192,1.0989778 18.623554,0.19720212 19.120934,1.0977279 C 19.447199,1.3445074 20.029263,1.7300176 19.306687,1.4079694 C 18.324571,1.0393821 19.804804,2.2113147 20.320658,1.8780441 C 21.043228,1.6409963 21.203086,3.3717159 20.24564,2.9285894 C 19.957594,3.4412054 18.57398,3.2159614 19.432291,3.9883573 C 20.057195,3.6349578 20.58712,3.6633036 21.043416,4.2175576 C 21.295153,4.4795274 21.565941,4.8244466 21.683456,5.1490234 C 21.736785,5.7880367 20.875757,4.9480203 21.394142,5.7873127 C 21.570574,6.2898307 22.517387,6.7215187 21.524362,6.8425494 C 21.104721,6.9901495 20.859718,6.4787857 20.616895,6.2171279 C 20.38112,5.8348965 20.193385,5.4304404 20.055005,5.0031526 C 19.659102,5.6183528 19.820975,6.6068127 20.542397,6.888485 C 20.743652,7.1096867 21.982472,7.0097607 21.621797,7.4727806 C 21.24864,7.7938299 20.556304,7.5599472 20.634353,8.3218269 C 20.961007,8.8357816 20.795713,8.567867 20.251129,8.4843132 C 19.827149,8.3858125 19.398704,8.3362925 18.963334,8.3627408 C 18.104695,7.5611075 17.303461,8.7852232 16.791739,9.3966152 C 16.420784,9.6327018 16.4831,10.073926 16.230091,10.378176 C 15.880162,10.974899 15.201353,11.395814 15.028767,12.077026 C 15.010358,12.432501 14.848912,12.93978 15.087433,13.203299 C 15.4735,13.731161 15.669327,13.026455 16.047934,12.975447 C 16.521687,13.09414 16.936206,14.705724 17.714388,13.832314 C 17.839556,13.503836 17.777487,13.070114 18.025418,12.740968 C 17.708908,12.277621 17.729136,11.708902 17.633338,11.176492 C 17.909914,10.840989 18.107956,10.452526 18.336775,10.084817 C 18.850033,10.354635 17.818159,11.432369 18.494376,12.03753 C 19.044284,12.327669 18.607557,12.923318 18.728854,13.396438 C 18.909331,14.314508 18.022158,14.44624 17.384726,14.552814 C 17.083919,14.728911 16.140074,14.845656 16.853024,14.378479 C 16.626598,14.203772 16.30637,13.01404 16.046955,13.380698 C 15.790408,13.731757 15.572432,14.086314 15.867856,14.487468 C 15.918495,14.818793 15.239259,14.831074 15.026913,15.08253 C 14.753098,15.178942 14.274201,15.793761 14.219877,15.688055 C 14.4812,14.997969 13.565438,14.657357 13.510151,13.954728 C 13.823655,13.418755 13.509861,12.98384 13.651042,12.425766 C 13.320661,12.639481 12.857721,12.732275 12.786322,13.182229 C 12.626643,13.608083 12.404124,14.025121 11.932812,14.147843 C 11.176319,13.689628 11.685989,14.839455 11.071775,14.928159 C 11.825768,15.572927 12.271432,14.930301 12.636248,14.3016 C 13.385284,14.537972 12.153246,15.124275 12.656129,15.508083 C 12.403544,15.558963 11.728749,16.321054 12.271003,16.129604 C 12.849465,15.972232 13.447289,16.028178 14.039278,16.019833 C 13.849946,16.581131 13.122283,16.111289 13.215044,16.487304 C 12.663196,16.568843 12.143847,16.789875 12.870727,17.192229 C 12.967462,17.57866 13.438382,17.972214 13.111044,18.35057 C 13.017833,18.897677 12.652112,18.845947 12.228071,18.666054 C 11.832531,18.601648 11.391588,18.370075 11.024813,18.411587 C 10.627146,18.989844 10.554873,19.883526 10.408516,20.589363 C 10.469501,20.993132 11.005199,21.083261 11.267793,21.353828 C 11.576463,21.626552 12.019167,21.333068 12.384052,21.311132 C 12.787977,21.214427 13.161217,21.076061 13.334448,20.666134 C 13.517594,20.332114 13.3899,19.859766 13.901708,19.78362 C 14.500691,19.489663 14.297634,18.983981 15.145771,19.043339 C 15.520196,18.884792 15.908225,18.606259 16.217069,19.026162 C 16.769362,19.395107 17.033169,20.149805 17.742328,20.270085 C 18.339899,20.525105 17.690784,21.148878 17.245103,20.943897 C 16.503949,21.858869 18.487129,21.912464 18.464052,20.896374 C 18.97627,20.534795 18.129832,20.060938 18.44922,20.225655 C 19.023903,20.573571 19.001572,20.194768 18.667491,19.822979 C 18.217737,19.626036 17.70002,19.521636 17.450148,19.052529 C 17.3491,18.857622 16.749151,18.078974 17.099608,18.31141 C 17.659193,18.717328 18.319581,18.964369 18.879083,19.356538 C 19.257562,19.589431 19.460432,19.914085 19.420351,20.365683 C 19.622455,20.908976 20.013789,21.488168 20.636321,21.590884 C 20.904203,21.857809 21.652449,21.759543 21.419149,21.440716 C 21.047413,21.341706 20.4846,21.126316 20.852365,20.692373 C 21.008529,20.431435 19.928526,20.147119 20.510521,19.935501 C 20.931837,19.483067 21.11664,19.719963 21.202938,20.243953 C 21.416728,20.533269 21.584177,21.0604 22.028424,20.943897 C 22.526708,21.176295 22.520285,20.260566 22.92575,20.743505 C 23.267442,21.129071 23.69546,20.726419 23.871352,20.378699 C 24.074939,20.120571 23.911986,21.064856 23.964268,21.303074 C 23.928942,21.732314 23.68186,22.091976 23.225746,22.126707 C 22.778625,22.238377 23.619811,22.654176 23.730771,22.897593 C 24.027537,23.46887 24.324304,23.097368 24.621071,23.318934 C 25.301561,23.997581 25.967749,24.691292 26.697291,25.31828 C 27.60141,25.297444 27.823035,24.279233 28.369801,23.722867 C 28.968621,23.121466 29.126609,22.263575 29.587916,21.566612 C 29.682878,21.023109 29.775434,20.479271 29.822395,19.929101 C 29.44372,20.280314 29.10011,19.551289 29.045087,20.286816 C 28.848961,20.540624 28.927981,21.358544 28.478909,21.093751 C 28.175832,20.947786 27.632399,20.776057 27.712085,20.363042 C 27.81493,20.03044 28.491623,20.532825 28.730532,20.195194 C 29.36257,19.703763 30.042351,19.266001 30.487523,18.582497 C 30.75955,18.27971 31.283889,18.466776 31.663045,18.371973 C 31.91847,18.197422 31.704876,17.583598 31.775104,17.235597 C 31.772529,15.76919 31.800615,14.289737 31.672558,12.833472 C 30.990883,11.262742 30.38344,9.6517097 29.668691,8.1006285 C 28.976268,7.1085343 28.296144,6.1065361 27.43113,5.2534419 C 26.883907,4.7072261 26.43062,4.0471659 25.823812,3.5731621 C 24.550574,2.8316475 23.355837,1.938111 21.95935,1.4352769 C 20.993069,0.99352859 19.970109,0.66356165 18.934527,0.4396202 C 18.240693,0.34635002 17.546858,0.2530811 16.853024,0.15981091 z M 26.074577,15.239517 C 26.614725,15.656125 27.293202,16.050637 27.364091,16.802865 C 27.857047,17.411267 27.778261,17.628798 27.05335,17.80082 C 26.800677,17.610252 26.819089,17.018968 26.507815,16.810412 C 26.128268,16.6121 25.809559,16.337354 25.524897,16.019833 C 25.692808,15.722823 25.546887,15.145622 26.074577,15.239517 z M 21.869333,16.950062 C 22.577616,18.13352 23.53298,16.604036 24.463353,17.451461 C 25.226062,17.742441 24.247088,18.286556 23.831441,18.287746 C 23.447342,18.322014 22.950601,18.130438 22.786635,18.606059 C 22.572946,19.095591 21.971722,18.938173 21.542601,19.068064 C 21.444324,18.405246 21.667898,17.588866 21.869333,16.950062 z"
       id="path3345" />
    <path
       sodipodi:type="arc"
       style="opacity:0.57213931;fill:url(#linearGradient3452);fill-opacity:1;stroke:#204a87;stroke-width:8.31752396;stroke-linejoin:miter;stroke-miterlimit:18.60000038;stroke-dasharray:none;stroke-dashoffset:0;stroke-opacity:1"
       id="path3434"
       sodipodi:cx="0"
       sodipodi:cy="11.796133"
       sodipodi:rx="128.93658"
       sodipodi:ry="128.93658"
       d="M 128.93658,11.796133 A 128.93658,128.93658 0 1 1 -128.93658,11.796133 A 128.93658,128.93658 0 1 1 128.93658,11.796133 z"
       transform="matrix(0.1202279,0,0,0.1202281,15.974217,14.579975)" />
  </g>
</svg>
