<?xml version="1.0" encoding="UTF-8" standalone="no"?>
<!-- Created with Inkscape (http://www.inkscape.org/) -->
<svg
   xmlns:dc="http://purl.org/dc/elements/1.1/"
   xmlns:cc="http://creativecommons.org/ns#"
   xmlns:rdf="http://www.w3.org/1999/02/22-rdf-syntax-ns#"
   xmlns:svg="http://www.w3.org/2000/svg"
   xmlns="http://www.w3.org/2000/svg"
   xmlns:xlink="http://www.w3.org/1999/xlink"
   xmlns:sodipodi="http://sodipodi.sourceforge.net/DTD/sodipodi-0.dtd"
   xmlns:inkscape="http://www.inkscape.org/namespaces/inkscape"
   width="32"
   height="32"
   id="svg5214"
   sodipodi:version="0.32"
   inkscape:version="0.46"
   version="1.0"
   inkscape:export-filename="/Users/lse/Sites/BambusONE/System/Icons/tango/medium/apps/preferences-enviornment.png"
   inkscape:export-xdpi="90"
   inkscape:export-ydpi="90"
   sodipodi:docname="app-preferences-enviornment-medium.svg"
   inkscape:output_extension="org.inkscape.output.svg.inkscape">
  <defs
     id="defs5216">
    <linearGradient
       inkscape:collect="always"
       id="linearGradient6059">
      <stop
         style="stop-color:#555753;stop-opacity:1;"
         offset="0"
         id="stop6061" />
      <stop
         style="stop-color:#555753;stop-opacity:0;"
         offset="1"
         id="stop6063" />
    </linearGradient>
    <linearGradient
       inkscape:collect="always"
       id="linearGradient6041">
      <stop
         style="stop-color:#ffffff;stop-opacity:1;"
         offset="0"
         id="stop6043" />
      <stop
         style="stop-color:#ffffff;stop-opacity:0;"
         offset="1"
         id="stop6045" />
    </linearGradient>
    <linearGradient
       inkscape:collect="always"
       xlink:href="#linearGradient6041"
       id="linearGradient6047"
       x1="11.667262"
       y1="0.44535983"
       x2="11.667262"
       y2="32.098385"
       gradientUnits="userSpaceOnUse" />
    <linearGradient
       inkscape:collect="always"
       xlink:href="#linearGradient6041"
       id="linearGradient6049"
       x1="11.667262"
       y1="0.44535983"
       x2="11.667262"
       y2="32.098385"
       gradientUnits="userSpaceOnUse" />
    <linearGradient
       inkscape:collect="always"
       xlink:href="#linearGradient6059"
       id="linearGradient6065"
       x1="8"
       y1="28.000544"
       x2="8"
       y2="13.62931"
       gradientUnits="userSpaceOnUse" />
  </defs>
  <sodipodi:namedview
     id="base"
     pagecolor="#ffffff"
     bordercolor="#666666"
     borderopacity="1.0"
     gridtolerance="10000"
     guidetolerance="10"
     objecttolerance="10"
     inkscape:pageopacity="0.0"
     inkscape:pageshadow="2"
     inkscape:zoom="8"
     inkscape:cx="24"
     inkscape:cy="17.322833"
     inkscape:document-units="px"
     inkscape:current-layer="layer1"
     showgrid="true"
     inkscape:snap-bbox="true"
     inkscape:snap-nodes="false"
     inkscape:window-width="1374"
     inkscape:window-height="1019"
     inkscape:window-x="477"
     inkscape:window-y="69">
    <inkscape:grid
       type="xygrid"
       id="grid5224"
       visible="true"
       enabled="true" />
  </sodipodi:namedview>
  <metadata
     id="metadata5219">
    <rdf:RDF>
      <cc:Work
         rdf:about="">
        <dc:format>image/svg+xml</dc:format>
        <dc:type
           rdf:resource="http://purl.org/dc/dcmitype/StillImage" />
      </cc:Work>
    </rdf:RDF>
  </metadata>
  <g
     inkscape:label="Layer 1"
     inkscape:groupmode="layer"
     id="layer1">
    <path
       style="fill:url(#linearGradient6065);fill-opacity:1;stroke:#2e3436;stroke-width:1;stroke-linejoin:miter;stroke-miterlimit:12.19999980999999956;stroke-dashoffset:0;stroke-opacity:1"
       d="M 13.212668,13.652707 C 12.585425,14.241982 11.961804,14.820032 11.33456,15.409308 C 10.741972,15.376185 10.136727,15.339923 9.5441383,15.306802 C 8.9862058,14.651283 8.4297742,14.008519 7.8718407,13.352999 C 7.5423308,13.452348 7.2163336,13.552434 6.8868227,13.651782 C 6.7857348,14.505996 6.690172,15.348936 6.5890842,16.20315 C 6.1139529,16.558188 5.6552813,16.914048 5.1801492,17.269089 C 4.3309754,17.124954 3.4787546,16.985924 2.6295808,16.841789 C 2.4411777,17.129451 2.2410785,17.411799 2.0526756,17.69946 C 2.5250439,18.418918 3.0075033,19.130452 3.4798716,19.84991 C 3.3445174,20.426985 3.2005325,21.015601 3.0651782,21.592676 C 2.3221012,22.027368 1.5899193,22.470438 0.84684281,22.905131 C 0.88770357,23.246507 0.90651867,23.562793 0.94737953,23.904169 C 1.7721776,24.152227 2.6176847,24.426037 3.4424837,24.674093 C 3.7102398,25.203185 3.9729359,25.712338 4.2406925,26.241428 C 3.9514067,27.05155 3.6461114,27.864734 3.3568256,28.674856 C 3.6078304,28.910212 3.8635682,29.152976 4.114574,29.388332 C 4.9058694,29.048921 5.6922034,28.713456 6.4834998,28.374046 C 7.0290806,28.607583 7.5799632,28.821335 8.1255445,29.05487 C 8.4254085,29.861357 8.7252235,30.685194 9.0250895,31.491682 C 9.3687897,31.510891 9.7022532,31.539742 10.045956,31.558953 C 10.433492,30.790888 10.838855,30.002119 11.226392,29.234055 C 11.794513,29.062766 12.345756,28.897497 12.913879,28.726205 C 13.662585,29.151694 14.428395,29.595098 15.177102,30.020583 C 15.452676,29.81466 15.713326,29.591307 15.988901,29.385385 C 15.791348,28.548052 15.599898,27.704002 15.402343,26.866669 C 15.727176,26.370701 16.069725,25.897808 16.394556,25.40184 C 17.241774,25.247236 18.073063,25.069008 18.920282,24.914405 C 18.998789,24.579702 19.099485,24.244657 19.17799,23.909956 C 18.487781,23.395151 17.766572,22.87987 17.076365,22.365066 C 17.005913,21.776487 16.951952,21.184251 16.881502,20.595673 C 17.430812,19.933319 17.975407,19.27895 18.524716,18.616599 C 18.369417,18.309728 18.205616,17.99072 18.050316,17.683848 C 17.190412,17.732454 16.340838,17.787061 15.480932,17.835667 C 15.048163,17.429882 14.60266,17.029167 14.169891,16.62338 C 14.164261,15.763202 14.15326,14.914974 14.147633,14.054794 C 13.831195,13.919343 13.529106,13.788158 13.212668,13.652707 z M 10.88045,19.834602 C 12.263207,20.189369 13.090758,21.588113 12.735989,22.970869 C 12.381221,24.353626 10.974669,25.211615 9.5919125,24.856846 C 8.2091559,24.502078 7.3589765,23.065088 7.713745,21.682332 C 8.0685134,20.299575 9.4976935,19.479833 10.88045,19.834602 z"
       id="path5964" />
    <path
       style="opacity:1;fill:url(#linearGradient6047);fill-opacity:1;stroke:#eeeeec;stroke-width:1;stroke-linejoin:miter;stroke-miterlimit:12.19999980999999956;stroke-dashoffset:0;stroke-opacity:1"
       d="M 13.047579,15.248644 L 12.327093,15.907269 L 11.637045,16.573704 L 9.0161931,16.420345 L 8.3958147,15.677231 L 7.7980649,14.972364 L 7.6855367,15.916737 L 7.5730085,16.861109 L 5.4521971,18.425675 L 4.5156338,18.282709 L 3.5790705,18.139743 L 4.0925167,18.920305 L 4.6364007,19.708676 L 4.0412937,22.281074 L 3.2076654,22.748464 L 2.3966657,23.254101 L 3.3019917,23.518818 L 4.2073177,23.783535 L 5.4198498,26.138441 L 5.0942567,27.028149 L 4.7686636,27.917856 L 5.6397396,27.557399 L 6.5186249,27.166503 L 8.9434448,28.210369 L 9.2656552,29.104073 L 9.6183034,30.005587 L 10.03521,29.139308 L 10.452117,28.273028 L 12.979442,27.526472 L 13.799665,27.996445 L 14.619888,28.466418 L 14.40461,27.535266 L 14.189332,26.604113 L 15.697987,24.498509 L 17.505213,24.048504 L 16.738856,23.495027 L 15.980308,22.911112 L 15.668491,20.333118 L 16.252406,19.57457 L 16.858949,18.85427 L 15.905968,18.90174 L 14.952986,18.94921 L 13.043397,17.161616 L 13.026364,16.216444 L 13.047579,15.248644 z M 11.096604,18.933037 C 13.07482,19.44058 14.260293,21.26974 13.75275,23.247956 C 13.276444,25.104421 11.370789,26.335151 9.3160788,25.872865 C 7.6918022,25.505945 6.2741408,23.567399 6.8129213,21.467431 C 7.2892273,19.610967 9.0731301,18.348999 11.096604,18.933037 z"
       id="path5973"
       sodipodi:nodetypes="ccccccccccccccccccccccccccccccccccccccccccccccsssc" />
    <path
       style="fill:#555753;fill-opacity:1;stroke:#2e3436;stroke-width:1;stroke-linejoin:miter;stroke-miterlimit:12.19999981;stroke-dashoffset:0;stroke-opacity:1"
       d="M 25.296573,0.8806191 C 24.669329,1.4698938 24.045708,2.0479446 23.418464,2.6372203 C 22.825876,2.6040975 22.220632,2.5678356 21.628043,2.5347147 C 21.07011,1.8791957 20.513679,1.236431 19.955745,0.58091172 C 19.626235,0.68026019 19.300238,0.78034591 18.970727,0.87969414 C 18.869639,1.7339079 18.774076,2.5768482 18.672989,3.431062 C 18.197857,3.7861006 17.739186,4.1419603 17.264054,4.497001 C 16.41488,4.3528667 15.56266,4.213836 14.713486,4.0697017 C 14.525082,4.3573639 14.324983,4.6397112 14.13658,4.9273724 C 14.608949,5.6468299 15.091408,6.3583646 15.563776,7.0778222 C 15.428422,7.6548971 15.284437,8.2435138 15.149083,8.8205886 C 14.406006,9.2552807 13.673825,9.69835 12.930748,10.133043 C 12.971608,10.474419 12.990424,10.790705 13.031284,11.132081 C 13.856082,11.380139 14.701589,11.653949 15.526388,11.902006 C 15.794144,12.431097 16.05684,12.94025 16.324597,13.46934 C 16.035311,14.279463 15.730016,15.092646 15.44073,15.902769 C 15.691735,16.138125 15.947473,16.380888 16.198478,16.616245 C 16.989774,16.276834 17.776108,15.941368 18.567404,15.601958 C 19.112985,15.835496 19.663868,16.049247 20.209449,16.282782 C 20.509313,17.089269 20.809128,17.913107 21.108994,18.719594 C 21.452694,18.738804 21.786158,18.767655 22.129861,18.786865 C 22.517397,18.0188 22.922759,17.230031 23.310297,16.461967 C 23.878418,16.290678 24.429661,16.125409 24.997784,15.954117 C 25.74649,16.379607 26.5123,16.82301 27.261006,17.248495 C 27.53658,17.042572 27.79723,16.819219 28.072805,16.613298 C 27.875252,15.775965 27.683802,14.931914 27.486247,14.094581 C 27.81108,13.598613 28.153629,13.12572 28.47846,12.629752 C 29.325679,12.475149 30.156968,12.296921 31.004187,12.142317 C 31.082694,11.807614 31.183389,11.47257 31.261894,11.137869 C 30.571685,10.623063 29.850477,10.107782 29.160269,9.5929778 C 29.089817,9.0043988 29.035857,8.4121633 28.965406,7.8235857 C 29.514717,7.1612315 30.059312,6.5068621 30.608621,5.8445115 C 30.453321,5.5376401 30.28952,5.2186318 30.134221,4.9117604 C 29.274316,4.9603667 28.424743,5.0149738 27.564836,5.0635796 C 27.132067,4.6577947 26.686565,4.257079 26.253796,3.8512919 C 26.248165,2.9911143 26.237165,2.1428865 26.231537,1.2827065 C 25.915099,1.1472554 25.61301,1.0160702 25.296573,0.8806191 z M 22.964355,7.0625141 C 24.347111,7.4172816 25.174662,8.8160248 24.819894,10.198781 C 24.465125,11.581538 23.058574,12.439527 21.675817,12.084758 C 20.29306,11.72999 19.442881,10.293001 19.797649,8.9102438 C 20.152418,7.5274872 21.581598,6.7077456 22.964355,7.0625141 z"
       id="path5980" />
    <path
       style="opacity:1;fill:url(#linearGradient6049);fill-opacity:1;stroke:#eeeeec;stroke-width:1;stroke-linejoin:miter;stroke-miterlimit:12.19999980999999956;stroke-dashoffset:0;stroke-opacity:1"
       d="M 25.131483,2.476556 L 24.410998,3.1351815 L 23.72095,3.8016164 L 21.100098,3.6482577 L 20.479719,2.9051436 L 19.881969,2.2002766 L 19.769441,3.1446492 L 19.656913,4.0890217 L 17.536102,5.6535877 L 16.599538,5.5106217 L 15.662975,5.3676556 L 16.176421,6.1482175 L 16.720305,6.9365887 L 16.125198,9.5089862 L 15.29157,9.9763759 L 14.48057,10.482013 L 15.385896,10.74673 L 16.291222,11.011448 L 17.503754,13.366354 L 17.178161,14.256061 L 16.852568,15.145768 L 17.723644,14.785311 L 18.602529,14.394415 L 21.027349,15.438281 L 21.34956,16.331985 L 21.702208,17.233499 L 22.119114,16.36722 L 22.536021,15.50094 L 25.063347,14.754384 L 25.883569,15.224357 L 26.703792,15.69433 L 26.488514,14.763178 L 26.273236,13.832026 L 28.047057,11.549644 L 29.589118,11.276416 L 28.822761,10.722939 L 28.064213,10.139024 L 27.752395,7.5610303 L 28.33631,6.8024825 L 28.942854,6.0821819 L 27.989872,6.1296522 L 27.036891,6.1771226 L 25.127301,4.3895286 L 25.110269,3.4443565 L 25.131483,2.476556 z M 23.180508,6.160949 C 25.158724,6.6684922 26.344197,8.4976521 25.836654,10.475868 C 25.360348,12.332333 23.454694,13.563064 21.399983,13.100777 C 19.775707,12.733858 18.358045,10.795311 18.896826,8.6953438 C 19.373132,6.8388788 21.157035,5.5769114 23.180508,6.160949 z"
       id="path5982"
       sodipodi:nodetypes="ccccccccccccccccccccccccccccccccccccccccccccccsssc" />
    <path
       style="opacity:1;fill:none;fill-opacity:1;stroke:#888a85;stroke-width:1;stroke-linejoin:miter;stroke-miterlimit:12.19999981;stroke-dashoffset:0;stroke-opacity:1"
       d="M 13.052978,15.235809 L 12.332492,15.894434 L 11.642444,16.560869 L 9.0215926,16.40751 L 8.4012136,15.664396 L 7.8034636,14.959529 L 7.6909356,15.903902 L 7.5784076,16.848274 L 5.4575966,18.41284 L 4.5210326,18.269874 L 3.5844696,18.126908 L 4.0979156,18.90747 L 4.6417996,19.695841 L 4.0466926,22.268239 L 3.2130646,22.735629 L 2.4020646,23.241266 L 3.3073906,23.505983 L 4.2127166,23.7707 L 5.4252486,26.125606 L 5.0996556,27.015314 L 4.7740626,27.905021 L 5.6451386,27.544564 L 6.5240236,27.153668 L 8.9488436,28.197534 L 9.2710546,29.091238 L 9.6237026,29.992752 L 10.040609,29.126473 L 10.457516,28.260193 L 12.984841,27.513637 L 13.805064,27.98361 L 14.625287,28.453583 L 14.410009,27.522431 L 14.194731,26.591278 L 15.703386,24.485674 L 17.510612,24.035669 L 16.744255,23.482192 L 15.985707,22.898277 L 15.67389,20.320283 L 16.257805,19.561735 L 16.864348,18.841435 L 15.911367,18.888905 L 14.958385,18.936375 L 13.048796,17.148781 L 13.031763,16.203609 L 13.052978,15.235809 z M 11.102003,18.920202 C 13.080219,19.427745 14.265692,21.256905 13.758149,23.235121 C 13.281843,25.091586 11.376188,26.322316 9.3214776,25.86003 C 7.6972016,25.49311 6.2795396,23.554564 6.8183206,21.454596 C 7.2946266,19.598132 9.0785296,18.336164 11.102003,18.920202 z"
       id="path6051"
       sodipodi:nodetypes="ccccccccccccccccccccccccccccccccccccccccccccccsssc" />
    <path
       style="opacity:1;fill:none;fill-opacity:1;stroke:#888a85;stroke-width:1;stroke-linejoin:miter;stroke-miterlimit:12.19999981;stroke-dashoffset:0;stroke-opacity:1"
       d="M 25.136882,2.4637217 L 24.416397,3.1223467 L 23.726349,3.7887817 L 21.105497,3.6354237 L 20.485118,2.8923087 L 19.887368,2.1874417 L 19.77484,3.1318147 L 19.662312,4.0761877 L 17.541501,5.6407537 L 16.604937,5.4977877 L 15.668374,5.3548207 L 16.18182,6.1353827 L 16.725704,6.9237547 L 16.130597,9.4961517 L 15.296969,9.9635417 L 14.485969,10.469178 L 15.391295,10.733895 L 16.296621,10.998613 L 17.509153,13.353519 L 17.18356,14.243226 L 16.857967,15.132933 L 17.729043,14.772476 L 18.607928,14.38158 L 21.032748,15.425446 L 21.354959,16.31915 L 21.707607,17.220664 L 22.124513,16.354385 L 22.54142,15.488105 L 25.068746,14.741549 L 25.888968,15.211522 L 26.709191,15.681495 L 26.493913,14.750343 L 26.278635,13.819191 L 28.052456,11.536809 L 29.594517,11.263581 L 28.82816,10.710104 L 28.069612,10.126189 L 27.757794,7.5481957 L 28.341709,6.7896477 L 28.948253,6.0693477 L 27.995271,6.1168177 L 27.04229,6.1642877 L 25.1327,4.3766937 L 25.115668,3.4315217 L 25.136882,2.4637217 z M 23.185907,6.1481147 C 25.164123,6.6556577 26.349596,8.4848177 25.842053,10.463033 C 25.365747,12.319498 23.460093,13.550229 21.405382,13.087942 C 19.781106,12.721023 18.363444,10.782476 18.902225,8.6825097 C 19.378531,6.8260447 21.162434,5.5640767 23.185907,6.1481147 z"
       id="path6053"
       sodipodi:nodetypes="ccccccccccccccccccccccccccccccccccccccccccccccsssc" />
  </g>
</svg>
