<?xml version="1.0" encoding="UTF-8" standalone="no"?>
<!-- Created with Inkscape (http://www.inkscape.org/) -->
<svg
   xmlns:dc="http://purl.org/dc/elements/1.1/"
   xmlns:cc="http://creativecommons.org/ns#"
   xmlns:rdf="http://www.w3.org/1999/02/22-rdf-syntax-ns#"
   xmlns:svg="http://www.w3.org/2000/svg"
   xmlns="http://www.w3.org/2000/svg"
   xmlns:xlink="http://www.w3.org/1999/xlink"
   xmlns:sodipodi="http://sodipodi.sourceforge.net/DTD/sodipodi-0.dtd"
   xmlns:inkscape="http://www.inkscape.org/namespaces/inkscape"
   width="16"
   height="16"
   id="svg2"
   sodipodi:version="0.32"
   inkscape:version="0.46"
   version="1.0"
   sodipodi:docname="mimetype-user-extra-small.svg"
   inkscape:output_extension="org.inkscape.output.svg.inkscape"
   inkscape:export-filename="/Users/lse/Sites/BambusONE/System/Icons/tango/large/mimetypes/SUser.png"
   inkscape:export-xdpi="90"
   inkscape:export-ydpi="90">
  <defs
     id="defs4">
    <linearGradient
       inkscape:collect="always"
       id="linearGradient3312">
      <stop
         style="stop-color:#ad7fa8;stop-opacity:1;"
         offset="0"
         id="stop3314" />
      <stop
         style="stop-color:#75507b;stop-opacity:1"
         offset="1"
         id="stop3316" />
    </linearGradient>
    <inkscape:perspective
       sodipodi:type="inkscape:persp3d"
       inkscape:vp_x="0 : 526.18109 : 1"
       inkscape:vp_y="0 : 1000 : 0"
       inkscape:vp_z="744.09448 : 526.18109 : 1"
       inkscape:persp3d-origin="372.04724 : 350.78739 : 1"
       id="perspective10" />
    <linearGradient
       inkscape:collect="always"
       xlink:href="#linearGradient3312"
       id="linearGradient3318"
       x1="7.6301756"
       y1="32.344986"
       x2="11.094451"
       y2="42.737812"
       gradientUnits="userSpaceOnUse"
       gradientTransform="matrix(0.318875,0,0,0.3187648,0.327516,0.4564837)" />
  </defs>
  <sodipodi:namedview
     id="base"
     pagecolor="#ffffff"
     bordercolor="#666666"
     borderopacity="1.0"
     inkscape:pageopacity="0.0"
     inkscape:pageshadow="2"
     inkscape:zoom="16.083333"
     inkscape:cx="24"
     inkscape:cy="-5.1670012"
     inkscape:document-units="px"
     inkscape:current-layer="layer1"
     showgrid="true"
     inkscape:window-width="1374"
     inkscape:window-height="1067"
     inkscape:window-x="316"
     inkscape:window-y="22">
    <inkscape:grid
       type="xygrid"
       id="grid2383"
       visible="true"
       enabled="true" />
  </sodipodi:namedview>
  <metadata
     id="metadata7">
    <rdf:RDF>
      <cc:Work
         rdf:about="">
        <dc:format>image/svg+xml</dc:format>
        <dc:type
           rdf:resource="http://purl.org/dc/dcmitype/StillImage" />
      </cc:Work>
    </rdf:RDF>
  </metadata>
  <g
     inkscape:label="Ebene 1"
     inkscape:groupmode="layer"
     id="layer1">
    <path
       style="fill:#e9b96e;fill-rule:evenodd;stroke:#c17d11;stroke-width:1.00000024px;stroke-linecap:butt;stroke-linejoin:miter;stroke-opacity:1"
       d="M 4.4342716,3.7726773 C 3.9914931,6.1120047 4.2713848,6.7314494 4.4342716,7.6915511 C 4.5984676,8.6593711 6.0610463,9.9309073 6.0610463,9.9309073 L 5.7421719,14.028295 C 5.7421719,14.028295 10.21083,14.028295 10.21083,14.028295 L 9.8919561,9.9309073 C 9.8919561,9.9309073 11.314822,8.7758219 11.518731,7.6915511 C 11.731667,6.5592855 11.961511,6.1120047 11.518731,3.7726773 C 11.075953,1.4333494 10.330326,1.2171789 9.7476158,0.89350451 C 9.1487634,0.56086378 6.804444,0.54767916 6.2053861,0.89350451 C 5.6374953,1.2213383 4.87705,1.4333494 4.4342716,3.7726773 z"
       id="path3323"
       sodipodi:nodetypes="czcccczzzzz" />
    <path
       style="opacity:0.37918216;fill:#e9b96e;fill-rule:evenodd;stroke:#eeeeec;stroke-width:1.00000048px;stroke-linecap:butt;stroke-linejoin:miter;stroke-opacity:1"
       d="M 5.4612406,4.6656641 C 5.1403946,6.3607845 5.3590501,6.8647404 5.4770803,7.5604483 C 5.5960596,8.2617489 7.05562,9.6023043 7.05562,9.6023043 C 6.9873437,10.584638 7.1578796,11.468762 6.5399101,12.176249 C 6.5399101,12.176249 9,12.255424 9,12.255424 L 8.8854136,9.4265007 C 8.8854136,9.4265007 10.338938,8.377068 10.486695,7.5913852 C 10.640991,6.7709246 10.807906,6.3449501 10.48706,4.6498296 C 10.166213,2.9547078 10.044849,2.1090034 9.5275674,1.8111249 C 9.0221318,1.5200689 6.8711229,1.4902965 6.3671681,1.8111249 C 5.8447837,2.143686 5.782087,2.9705423 5.4612406,4.6656641 z"
       id="path3320"
       sodipodi:nodetypes="czcccczzzzz" />
    <rect
       style="opacity:1;fill:#ffffff;fill-opacity:1;fill-rule:evenodd;stroke:#eeeeec;stroke-width:1.00000024;stroke-linecap:square;stroke-linejoin:miter;marker:none;marker-start:none;marker-mid:none;marker-end:none;stroke-miterlimit:29.89999962;stroke-dasharray:none;stroke-dashoffset:0;stroke-opacity:1;visibility:visible;display:inline;overflow:visible;enable-background:accumulate"
       id="rect2538"
       width="3.6188598"
       height="1.9570681"
       x="6.151794"
       y="11.944814" />
    <path
       style="fill:url(#linearGradient3318);fill-opacity:1;fill-rule:evenodd;stroke:#5c3566;stroke-width:1.00000024px;stroke-linecap:butt;stroke-linejoin:miter;stroke-opacity:1"
       d="M 5.7351581,11.082483 C 5.7351581,11.082483 4.4198265,11.082483 3.104495,11.082483 C 1.7891636,11.082483 0.48084559,13.399911 0.48084559,13.399911 L 0.48084559,15.518718 L 15.51179,15.518718 L 15.51179,13.399911 C 15.51179,13.399911 14.179537,11.082483 12.854297,11.082483 C 11.529057,11.082483 10.203817,11.082483 10.203817,11.082483 C 10.203817,11.082483 7.9607392,13.268501 7.9607392,13.268501 L 5.7351581,11.082483 z"
       id="path2536"
       sodipodi:nodetypes="czcccczccc" />
    <path
       style="opacity:0.5613383;fill:none;fill-rule:evenodd;stroke:#eeeeec;stroke-width:1.00000012px;stroke-linecap:butt;stroke-linejoin:miter;stroke-opacity:1"
       d="M 5.4071134,12.138766 C 5.4071134,12.138766 4.2718002,12.093867 3.3104185,12.093867 C 2.3752826,12.093867 1.5484351,13.559586 1.5484351,13.559586 L 1.4413678,14.468232 L 14.448738,14.485509 L 14.474348,13.803182 C 14.474348,13.803182 13.44482,12.06763 12.600585,12.06763 C 11.788051,12.06763 10.461665,12.093227 10.461665,12.093227 C 10.461665,12.093227 7.9051186,14.494242 7.9051186,14.494242 L 5.4071134,12.138766 z"
       id="path3310"
       sodipodi:nodetypes="czcccczccc" />
  </g>
</svg>
