<?xml version="1.0" encoding="UTF-8" standalone="no"?>
<!-- Created with Inkscape (http://www.inkscape.org/) -->
<svg
   xmlns:dc="http://purl.org/dc/elements/1.1/"
   xmlns:cc="http://creativecommons.org/ns#"
   xmlns:rdf="http://www.w3.org/1999/02/22-rdf-syntax-ns#"
   xmlns:svg="http://www.w3.org/2000/svg"
   xmlns="http://www.w3.org/2000/svg"
   xmlns:xlink="http://www.w3.org/1999/xlink"
   xmlns:sodipodi="http://sodipodi.sourceforge.net/DTD/sodipodi-0.dtd"
   xmlns:inkscape="http://www.inkscape.org/namespaces/inkscape"
   width="16"
   height="16"
   id="svg5214"
   sodipodi:version="0.32"
   inkscape:version="0.46"
   version="1.0"
   inkscape:export-filename="/Users/lse/Sites/BambusONE/System/ClientData/Icons/tango/extra-small/mimetypes/CLink.png"
   inkscape:export-xdpi="90"
   inkscape:export-ydpi="90"
   sodipodi:docname="mimetype-clink.svg"
   inkscape:output_extension="org.inkscape.output.svg.inkscape">
  <defs
     id="defs5216">
    <linearGradient
       inkscape:collect="always"
       id="linearGradient3347">
      <stop
         style="stop-color:#fce94f;stop-opacity:1;"
         offset="0"
         id="stop3349" />
      <stop
         style="stop-color:#fce94f;stop-opacity:0;"
         offset="1"
         id="stop3351" />
    </linearGradient>
    <linearGradient
       inkscape:collect="always"
       id="linearGradient3335">
      <stop
         style="stop-color:#8ae234;stop-opacity:1;"
         offset="0"
         id="stop3337" />
      <stop
         style="stop-color:#d3e2d1;stop-opacity:1"
         offset="1"
         id="stop3339" />
    </linearGradient>
    <linearGradient
       inkscape:collect="always"
       id="linearGradient3325">
      <stop
         style="stop-color:#8ae234;stop-opacity:1;"
         offset="0"
         id="stop3327" />
      <stop
         style="stop-color:#d5eed7;stop-opacity:1"
         offset="1"
         id="stop3329" />
    </linearGradient>
    <linearGradient
       inkscape:collect="always"
       id="linearGradient2537">
      <stop
         style="stop-color:#8ae234;stop-opacity:1;"
         offset="0"
         id="stop2539" />
      <stop
         style="stop-color:#edd400;stop-opacity:1"
         offset="1"
         id="stop2541" />
    </linearGradient>
    <inkscape:perspective
       sodipodi:type="inkscape:persp3d"
       inkscape:vp_x="0 : 24 : 1"
       inkscape:vp_y="0 : 1000 : 0"
       inkscape:vp_z="48 : 24 : 1"
       inkscape:persp3d-origin="24 : 16 : 1"
       id="perspective2445" />
    <linearGradient
       inkscape:collect="always"
       id="linearGradient5772">
      <stop
         style="stop-color:#ffffff;stop-opacity:1;"
         offset="0"
         id="stop5774" />
      <stop
         style="stop-color:#ffffff;stop-opacity:0;"
         offset="1"
         id="stop5776" />
    </linearGradient>
    <linearGradient
       inkscape:collect="always"
       xlink:href="#linearGradient5772"
       id="linearGradient5778"
       x1="17.023659"
       y1="7.6149831"
       x2="17.023659"
       y2="24.223293"
       gradientUnits="userSpaceOnUse" />
    <inkscape:perspective
       id="perspective2511"
       inkscape:persp3d-origin="372.04724 : 350.78739 : 1"
       inkscape:vp_z="744.09448 : 526.18109 : 1"
       inkscape:vp_y="0 : 1000 : 0"
       inkscape:vp_x="0 : 526.18109 : 1"
       sodipodi:type="inkscape:persp3d" />
    <linearGradient
       inkscape:collect="always"
       xlink:href="#linearGradient2537"
       id="linearGradient3315"
       x1="-1.1351522"
       y1="75.311684"
       x2="-2.6757815"
       y2="121.04288"
       gradientUnits="userSpaceOnUse" />
    <linearGradient
       inkscape:collect="always"
       xlink:href="#linearGradient3325"
       id="linearGradient3333"
       x1="33.792107"
       y1="37.197617"
       x2="32.885265"
       y2="-82.211632"
       gradientUnits="userSpaceOnUse" />
    <linearGradient
       inkscape:collect="always"
       xlink:href="#linearGradient3335"
       id="linearGradient3343"
       x1="-113.55769"
       y1="-24.512772"
       x2="-70.002266"
       y2="-55.635395"
       gradientUnits="userSpaceOnUse" />
    <radialGradient
       inkscape:collect="always"
       xlink:href="#linearGradient3347"
       id="radialGradient3353"
       cx="118.00543"
       cy="61.140594"
       fx="118.00543"
       fy="61.140594"
       r="87.515625"
       gradientTransform="matrix(-0.2177287,-0.950803,1.1446271,-0.2621121,42.091141,194.64512)"
       gradientUnits="userSpaceOnUse" />
    <linearGradient
       inkscape:collect="always"
       xlink:href="#linearGradient3335"
       id="linearGradient3356"
       gradientUnits="userSpaceOnUse"
       x1="-113.55769"
       y1="-24.512772"
       x2="-70.002266"
       y2="-55.635395" />
    <radialGradient
       inkscape:collect="always"
       xlink:href="#linearGradient3347"
       id="radialGradient3359"
       gradientUnits="userSpaceOnUse"
       gradientTransform="matrix(-0.2177287,-0.950803,1.1446271,-0.2621121,42.091141,194.64512)"
       cx="118.00543"
       cy="61.140594"
       fx="118.00543"
       fy="61.140594"
       r="87.515625" />
    <linearGradient
       inkscape:collect="always"
       xlink:href="#linearGradient2537"
       id="linearGradient3362"
       gradientUnits="userSpaceOnUse"
       x1="-1.1351522"
       y1="75.311684"
       x2="-2.6757815"
       y2="121.04288" />
    <linearGradient
       inkscape:collect="always"
       xlink:href="#linearGradient2537"
       id="linearGradient3376"
       gradientUnits="userSpaceOnUse"
       x1="-1.1351522"
       y1="75.311684"
       x2="-2.6757815"
       y2="121.04288" />
    <linearGradient
       inkscape:collect="always"
       xlink:href="#linearGradient3325"
       id="linearGradient3378"
       gradientUnits="userSpaceOnUse"
       x1="33.792107"
       y1="37.197617"
       x2="32.885265"
       y2="-82.211632" />
    <linearGradient
       inkscape:collect="always"
       xlink:href="#linearGradient3335"
       id="linearGradient3380"
       gradientUnits="userSpaceOnUse"
       x1="-113.55769"
       y1="-24.512772"
       x2="-70.002266"
       y2="-55.635395" />
    <radialGradient
       inkscape:collect="always"
       xlink:href="#linearGradient3347"
       id="radialGradient3382"
       gradientUnits="userSpaceOnUse"
       gradientTransform="matrix(-0.2177287,-0.950803,1.1446271,-0.2621121,42.091141,194.64512)"
       cx="118.00543"
       cy="61.140594"
       fx="118.00543"
       fy="61.140594"
       r="87.515625" />
    <radialGradient
       inkscape:collect="always"
       xlink:href="#linearGradient3347"
       id="radialGradient3385"
       gradientUnits="userSpaceOnUse"
       gradientTransform="matrix(-4.2581014e-2,-0.1859477,0.2238537,-5.1261037e-2,32.119861,56.369099)"
       cx="118.00543"
       cy="61.140594"
       fx="118.00543"
       fy="61.140594"
       r="87.515625" />
    <linearGradient
       inkscape:collect="always"
       xlink:href="#linearGradient3335"
       id="linearGradient3390"
       gradientUnits="userSpaceOnUse"
       x1="-113.55769"
       y1="-24.512772"
       x2="-70.002266"
       y2="-55.635395"
       gradientTransform="matrix(0.1906898,0,0,0.1906898,23.42547,17.80502)" />
    <linearGradient
       inkscape:collect="always"
       xlink:href="#linearGradient3325"
       id="linearGradient3394"
       gradientUnits="userSpaceOnUse"
       x1="33.792107"
       y1="37.197617"
       x2="32.885265"
       y2="-82.211632"
       gradientTransform="matrix(0.1955691,0,0,0.1955691,23.888133,18.302521)" />
    <linearGradient
       inkscape:collect="always"
       xlink:href="#linearGradient2537"
       id="linearGradient3397"
       gradientUnits="userSpaceOnUse"
       x1="-1.1351522"
       y1="75.311684"
       x2="-2.6757815"
       y2="121.04288"
       gradientTransform="matrix(0.1959073,0,0,0.1959073,23.842834,17.940802)" />
    <linearGradient
       inkscape:collect="always"
       xlink:href="#linearGradient2537"
       id="linearGradient3410"
       gradientUnits="userSpaceOnUse"
       gradientTransform="matrix(0.1959073,0,0,0.1959073,23.842834,17.940802)"
       x1="-1.1351522"
       y1="75.311684"
       x2="-2.6757815"
       y2="121.04288" />
    <linearGradient
       inkscape:collect="always"
       xlink:href="#linearGradient3325"
       id="linearGradient3412"
       gradientUnits="userSpaceOnUse"
       gradientTransform="matrix(0.1955691,0,0,0.1955691,23.888133,18.302521)"
       x1="33.792107"
       y1="37.197617"
       x2="32.885265"
       y2="-82.211632" />
    <linearGradient
       inkscape:collect="always"
       xlink:href="#linearGradient3335"
       id="linearGradient3414"
       gradientUnits="userSpaceOnUse"
       gradientTransform="matrix(0.1906898,0,0,0.1906898,23.42547,17.80502)"
       x1="-113.55769"
       y1="-24.512772"
       x2="-70.002266"
       y2="-55.635395" />
    <radialGradient
       inkscape:collect="always"
       xlink:href="#linearGradient3347"
       id="radialGradient3416"
       gradientUnits="userSpaceOnUse"
       gradientTransform="matrix(-4.2581014e-2,-0.1859477,0.2238537,-5.1261037e-2,32.119861,56.369099)"
       cx="118.00543"
       cy="61.140594"
       fx="118.00543"
       fy="61.140594"
       r="87.515625" />
    <radialGradient
       inkscape:collect="always"
       xlink:href="#linearGradient3347"
       id="radialGradient3419"
       gradientUnits="userSpaceOnUse"
       gradientTransform="matrix(-1.2961826e-2,-5.6603355e-2,6.8141948e-2,-1.5604099e-2,10.187968,18.099813)"
       cx="118.00543"
       cy="61.140594"
       fx="118.00543"
       fy="61.140594"
       r="87.515625" />
    <linearGradient
       inkscape:collect="always"
       xlink:href="#linearGradient3335"
       id="linearGradient3424"
       gradientUnits="userSpaceOnUse"
       gradientTransform="matrix(5.8046723e-2,0,0,5.8046873e-2,7.5413615,6.3607262)"
       x1="-113.55769"
       y1="-24.512772"
       x2="-70.002266"
       y2="-55.635395" />
    <linearGradient
       inkscape:collect="always"
       xlink:href="#linearGradient3325"
       id="linearGradient3428"
       gradientUnits="userSpaceOnUse"
       gradientTransform="matrix(5.9532007e-2,0,0,5.9532158e-2,7.682198,6.5121683)"
       x1="33.792107"
       y1="37.197617"
       x2="32.885265"
       y2="-82.211632" />
    <linearGradient
       inkscape:collect="always"
       xlink:href="#linearGradient2537"
       id="linearGradient3431"
       gradientUnits="userSpaceOnUse"
       gradientTransform="matrix(5.9634949e-2,0,0,5.96351e-2,7.6684089,6.402059)"
       x1="-1.1351522"
       y1="75.311684"
       x2="-2.6757815"
       y2="121.04288" />
  </defs>
  <sodipodi:namedview
     id="base"
     pagecolor="#ffffff"
     bordercolor="#666666"
     borderopacity="1.0"
     gridtolerance="10000"
     guidetolerance="10"
     objecttolerance="10"
     inkscape:pageopacity="0.0"
     inkscape:pageshadow="2"
     inkscape:zoom="4.453125"
     inkscape:cx="12.9981"
     inkscape:cy="0.05701043"
     inkscape:document-units="px"
     inkscape:current-layer="layer1"
     showgrid="true"
     inkscape:snap-bbox="true"
     inkscape:snap-nodes="false"
     inkscape:window-width="1374"
     inkscape:window-height="1019"
     inkscape:window-x="136"
     inkscape:window-y="22">
    <inkscape:grid
       type="xygrid"
       id="grid5224"
       visible="true"
       enabled="true" />
  </sodipodi:namedview>
  <metadata
     id="metadata5219">
    <rdf:RDF>
      <cc:Work
         rdf:about="">
        <dc:format>image/svg+xml</dc:format>
        <dc:type
           rdf:resource="http://purl.org/dc/dcmitype/StillImage" />
      </cc:Work>
    </rdf:RDF>
  </metadata>
  <g
     inkscape:label="Layer 1"
     inkscape:groupmode="layer"
     id="layer1">
    <path
       sodipodi:type="arc"
       style="fill:#3465a4;fill-opacity:1;stroke:#204a87;stroke-width:17.18569756000000126;stroke-linejoin:miter;stroke-miterlimit:18.60000038000000089;stroke-dasharray:none;stroke-dashoffset:0;stroke-opacity:1"
       id="path2517"
       sodipodi:cx="0"
       sodipodi:cy="11.796133"
       sodipodi:rx="128.93658"
       sodipodi:ry="128.93658"
       d="M 128.93658,11.796133 A 128.93658,128.93658 0 1 1 -128.93658,11.796133 A 128.93658,128.93658 0 1 1 128.93658,11.796133 z"
       transform="matrix(5.8187803e-2,0,0,5.8187953e-2,7.9760121,7.3096331)" />
    <path
       style="fill:url(#linearGradient3431);fill-opacity:1;fill-rule:evenodd;stroke:none;stroke-width:0.99999994px;stroke-linecap:butt;stroke-linejoin:miter;stroke-opacity:1"
       d="M 8.6153452,15.552219 C 8.3754546,15.400709 8.1355645,15.249199 7.8956739,15.097689 C 8.0600904,14.571713 7.3933505,14.777282 7.0934407,14.684291 C 6.5216952,14.602595 5.9424636,14.539703 5.3759054,14.442038 C 5.0924819,14.260585 4.7784376,14.117479 4.5149498,13.911061 C 4.3177902,13.691183 4.0930005,13.486433 3.9129462,13.257191 C 3.8567931,13.004556 3.7727501,12.752393 3.7339848,12.499463 C 3.7816471,12.326359 3.7916043,12.132695 3.8623893,11.972198 C 4.1044761,11.696023 4.3782495,11.460613 4.7594635,11.433626 C 4.9806963,11.448769 5.0070719,11.223994 5.0959428,11.076264 C 5.1532784,10.931934 5.2313897,10.805204 5.3742406,10.733316 C 5.4906405,10.679217 5.5952308,10.482421 5.7261665,10.603952 C 5.8944969,10.667676 6.0467587,10.830419 6.2373734,10.756815 C 6.7341239,10.667458 7.2388159,10.66006 7.7415745,10.661131 C 7.9875375,10.641105 8.3810576,10.405056 8.3064072,10.824034 C 8.2482513,11.117491 8.41671,11.213278 8.6675549,11.217926 C 8.8146657,11.249698 8.9825112,11.242159 9.0703989,11.386211 C 9.1697927,11.51278 9.3479881,11.511845 9.4865271,11.575075 C 9.6340517,11.512749 9.6686809,11.38179 9.675915,11.234177 C 9.8205933,11.154001 9.9320532,10.959746 10.116905,11.017525 C 10.536902,11.053962 10.96195,11.065177 11.380401,11.006912 C 11.551712,11.130838 11.72943,11.248565 11.828904,11.442011 C 12.050152,11.765264 12.340402,12.033814 12.592479,12.332626 C 12.830359,12.48784 13.11899,12.495136 13.387907,12.559892 C 13.62184,12.406127 13.846784,12.241649 14.031824,12.029606 C 13.488913,12.774532 12.946003,13.519457 12.403093,14.264382 C 11.764885,14.582428 11.134447,14.9174 10.467882,15.173673 C 10.225459,15.275734 9.988716,15.398667 9.7196933,15.402984 C 9.3515777,15.452729 8.9834617,15.502474 8.6153452,15.552219 z"
       id="path2519" />
    <path
       style="fill:url(#linearGradient3428);fill-opacity:1;fill-rule:evenodd;stroke:none;stroke-width:0.99999994px;stroke-linecap:butt;stroke-linejoin:miter;stroke-opacity:1"
       d="M 8.4003031,0.33198584 L 8.4003031,0.52174462 C 8.4003031,0.52174462 9.0805959,0.55895222 9.1184077,0.55895222 C 9.1562195,0.5589524 9.4979243,0.78591857 9.4979243,0.78591857 L 9.799305,1.0128849 L 9.3844409,0.86219415 C 9.3844409,0.86219424 9.5345272,1.0513483 9.5723395,1.0891605 C 9.6101514,1.1269726 9.9499953,1.1635757 9.9499953,1.1635757 L 10.290444,1.1635757 C 10.290444,1.1635758 10.291096,1.5052811 10.36672,1.5430932 C 10.442343,1.5809055 10.329512,1.6565764 10.329512,1.6565764 C 10.329512,1.6565762 9.989063,1.6559718 9.989063,1.693784 C 9.989063,1.731596 9.799305,1.8444748 9.799305,1.8444748 L 9.4979243,1.9207504 C 9.4979243,1.9207505 9.6108023,2.1849243 9.6486147,2.1849243 C 9.686427,2.1849244 10.102546,2.0342336 10.102546,2.0342336 L 10.480203,2.3374755 L 10.744376,2.7151326 L 10.707168,2.903031 L 10.51741,2.8286158 C 10.51741,2.8286157 10.669356,3.2825485 10.707168,3.2825485 C 10.74498,3.2825484 10.934134,3.3960317 10.934134,3.3960317 L 10.820651,3.5467225 L 10.51741,3.5839299 L 10.253236,3.3197561 L 10.063478,2.9793066 L 9.9499953,2.6760646 L 9.8755806,2.8286158 L 9.8383727,3.0927898 C 9.8383727,3.0927898 9.9512512,3.4326347 9.989063,3.4704469 C 10.026875,3.508259 10.216029,3.5851858 10.216029,3.6229979 C 10.216029,3.6608103 10.442994,3.6602057 10.442994,3.6602057 L 10.630893,3.6974131 L 10.783444,3.8108963 L 10.593685,3.9634475 L 10.403927,3.9634475 C 10.403927,3.9634475 10.290444,4.0000506 10.290444,4.0378628 C 10.290444,4.0756752 10.253236,4.1885537 10.253236,4.1885537 L 10.216029,4.3411046 L 10.36672,4.4545881 L 10.139753,4.378312 L 9.7248903,4.3020369 L 9.4216492,4.3020369 C 9.4216492,4.3020369 9.1952878,4.1513459 9.1574755,4.1513459 C 9.1196636,4.1513459 8.8542344,4.2648291 8.8542344,4.2648291 C 8.8542344,4.2648291 8.7401,4.4167756 8.6644763,4.4545881 C 8.5888522,4.4924002 8.4765787,4.6815545 8.4765787,4.6815545 L 8.2124054,4.9829358 L 8.1733372,5.1726946 L 7.985439,5.4368681 L 7.7194058,5.7401104 L 7.5315077,6.0042844 L 7.4924399,6.2684584 L 7.4924399,6.608908 L 7.7194058,6.7614594 L 7.9463712,6.5344928 L 8.1361298,6.5344928 C 8.1361298,6.5344928 8.2124054,6.7236465 8.2124054,6.7614594 C 8.2124054,6.7992713 8.3618858,6.9878205 8.4375104,7.0256334 C 8.5131346,7.0634453 8.7035441,7.0628408 8.7035441,7.0628408 L 8.8542344,6.9121498 L 8.8542344,6.6851832 L 8.9677174,6.4210097 L 8.8542344,6.1940431 L 8.7779588,5.6638352 L 8.8914418,5.5131443 L 9.1184077,5.1354867 C 9.1184077,5.1354867 9.1940783,5.1354867 9.2318907,5.1354867 C 9.2697025,5.1354867 9.0439925,5.7401104 9.0439925,5.7401104 L 9.1946833,6.0805601 L 9.3453731,6.231251 L 9.3081658,6.4954245 C 9.3081658,6.4954245 9.3081658,6.8371301 9.3081658,6.8749425 C 9.3081658,6.9127543 9.2697025,7.0640962 9.2318907,7.1019086 C 9.1940783,7.1397209 9.0049247,7.252599 9.0049247,7.252599 L 8.7779588,7.252599 L 8.4765787,7.3660826 L 8.2496123,7.3660826 C 8.2496123,7.3660826 8.4003031,7.2513436 8.4003031,7.2135317 C 8.4003031,7.1757189 8.2496123,6.9493572 8.2496123,6.9493572 L 8.0598542,6.6479758 L 7.8328888,7.0256334 L 7.9463712,7.3270148 L 7.5687155,7.5167735 L 7.3045422,7.7065318 L 7.1147837,7.8944306 C 7.1147837,7.8944306 7.1898033,7.5930492 7.151991,7.5930492 C 7.1141792,7.5930487 6.9268855,7.3660826 6.9268855,7.3660826 L 6.7743353,6.9884255 L 6.8878177,6.6851832 C 6.8878177,6.6851832 6.8512149,6.5717007 6.813403,6.5717007 C 6.7755907,6.5717007 6.8506104,6.2684584 6.8506104,6.2684584 L 6.510162,6.4582171 L 6.3594712,6.7986668 L 6.2459887,6.9884255 L 6.0190228,7.1019086 C 6.0190228,7.1019086 5.7920569,6.988472 5.7920569,7.1019086 C 5.7920569,7.2153452 5.790801,7.3660826 5.7529891,7.3660826 C 5.7151768,7.3660826 5.6022988,7.4417533 5.6022988,7.4795656 C 5.6022988,7.517378 5.8664721,7.5930492 5.8664721,7.5930492 C 5.8664721,7.5930487 6.0934375,7.6308611 6.0934375,7.5930492 C 6.0934375,7.5552368 6.2069205,7.4038949 6.2069205,7.3660826 C 6.2069205,7.3282702 6.3594712,7.1763238 6.3594712,7.1763238 C 6.3594712,7.1763238 6.510162,7.251995 6.510162,7.2898074 C 6.5101615,7.3276193 6.3204034,7.5167735 6.3204034,7.5167735 C 6.3204034,7.5167735 6.3204034,7.5924442 6.3204034,7.6302566 C 6.3204034,7.6680684 6.3966786,7.7437396 6.3966786,7.7437396 L 6.2069205,7.8572227 L 6.0562302,8.0841893 L 6.4729542,8.0079136 L 6.8878177,8.0079136 L 7.0385085,8.0079136 L 6.813403,8.1976724 L 6.6236445,8.1213972 C 6.6236445,8.1213972 6.6614568,8.2361357 6.6236445,8.273948 C 6.5858321,8.3117599 6.2831961,8.3111559 6.2831961,8.3111559 L 6.2831961,8.424639 L 6.4729542,8.5753294 L 6.6608523,8.9920548 L 6.4729542,9.3697118 L 5.6022988,9.1427457 L 5.4516085,9.2934361 C 5.4516085,9.2934361 5.4516085,9.5216582 5.4516085,9.5594701 C 5.4516085,9.5972829 5.3759374,9.8230401 5.3381251,9.8608519 C 5.3003137,9.8986643 5.2618499,10.125026 5.2618499,10.125026 L 5.3009177,10.314785 L 5.7920569,10.655234 L 6.2069205,10.578959 L 6.5473694,10.465476 L 6.7371269,10.201302 L 6.7743353,9.9371281 L 7.1910588,9.7101615 C 7.1910588,9.7101615 7.1532469,9.5204028 7.1910588,9.5204028 C 7.2288716,9.5204028 7.4552321,9.5204028 7.4552321,9.5204028 L 7.9091639,9.3325044 L 8.1733372,9.5204028 L 8.5900612,9.9743355 L 8.8914418,10.087819 L 8.9677174,10.238509 L 8.8170271,10.39106 C 8.8170271,10.39106 8.6278735,10.353248 8.5900612,10.39106 C 8.5522493,10.428873 8.4387659,10.618027 8.4765787,10.618027 C 8.5143905,10.618027 8.7779588,10.768718 8.7779588,10.768718 C 8.7779588,10.768718 8.9677174,10.730254 8.9677174,10.692442 C 8.9677174,10.65463 9.1574755,10.428268 9.1574755,10.428268 L 9.2709584,10.125026 L 9.0811999,10.013403 L 9.4216492,10.125026 L 9.3081658,9.8608519 L 8.8542344,9.6729541 L 8.6644763,9.4459875 L 8.4375104,9.06647 L 8.93051,9.3697118 L 9.3081658,9.5594701 L 9.6114073,9.8236446 L 9.6486147,10.164094 L 9.8383727,10.465476 L 9.989063,10.618027 L 10.51741,10.805925 L 10.669961,10.655234 L 10.290444,10.504543 L 10.290444,10.314785 L 10.36672,10.238509 L 10.063478,9.9743355 L 10.403927,9.7473689 L 10.51741,10.087819 L 10.744376,10.39106 L 11.084824,10.39106 L 11.198307,10.201302 L 11.31179,10.277577 L 11.501548,10.39106 L 11.689446,10.277577 L 11.841997,10.050611 L 11.841997,10.618027 L 11.728514,10.882201 L 11.388065,10.995684 L 11.95548,11.5631 L 12.068963,11.449616 L 12.787067,12.167723 L 13.164724,12.508173 L 13.467965,12.431897 C 13.467965,12.431897 14.11105,11.525892 14.148862,11.525892 C 14.186674,11.525892 14.33676,11.109167 14.33676,11.109167 L 14.563726,10.692442 L 14.640002,10.238509 L 14.677209,9.8999197 L 14.526519,9.9743355 L 14.375828,9.8608519 L 14.148862,10.504543 L 13.921897,10.428268 L 13.655863,10.238509 L 13.655863,10.050611 L 14.072587,10.087819 L 14.413036,9.8236446 L 14.714416,9.5966779 L 15.054865,9.1799536 L 15.622279,9.1427457 L 15.622279,8.3874311 L 15.622279,7.4795656 L 15.585072,6.4954245 L 15.093932,5.3233855 L 14.640002,4.2276217 L 13.996312,3.3197561 L 12.824275,2.0342336 L 11.46248,1.2026437 L 10.403927,0.74871094 L 9.5351317,0.48453703 L 8.4003031,0.33198584 z M 12.863343,7.6302566 L 13.164724,7.8572227 L 13.391689,8.0841893 C 13.391689,8.0841893 13.505172,8.424034 13.505172,8.4618468 C 13.505172,8.4996587 13.69493,8.7260204 13.69493,8.7260204 L 13.315414,8.8785717 L 13.127517,8.424639 L 12.824275,8.2348798 L 12.597309,8.0079136 C 12.597309,8.0079136 12.673585,7.782156 12.673585,7.7065318 C 12.673585,7.630908 12.863343,7.6302566 12.863343,7.6302566 z M 10.828092,8.4581255 C 10.875865,8.4518943 11.010409,8.6516046 11.010409,8.6516051 C 11.010409,8.6516051 11.23677,8.7260204 11.274582,8.7260204 C 11.312395,8.7260204 11.500339,8.538122 11.575964,8.538122 C 11.651587,8.538122 11.841997,8.6143977 11.841997,8.6143977 C 11.841997,8.6143977 12.181841,8.7272763 12.219653,8.7650886 C 12.257465,8.8029005 12.182446,8.9529865 12.182446,8.9529865 L 11.841997,9.1055373 L 11.388065,9.1055373 L 11.1611,9.4069192 L 10.669961,9.4831954 C 10.594337,9.4453825 10.707168,8.9907988 10.707168,8.9529865 C 10.707168,8.9151746 10.782839,8.4996587 10.820651,8.4618468 C 10.823014,8.4594831 10.824908,8.4585413 10.828092,8.4581255 z"
       id="path2521" />
    <path
       style="fill:#8ae234;fill-rule:evenodd;stroke:none;stroke-width:0.99999994px;stroke-linecap:butt;stroke-linejoin:miter;stroke-opacity:1"
       d="M 5.3756605,4.7566257 C 5.4341296,4.92218 5.5003171,5.0848814 5.5647212,5.2481838 C 5.6703908,5.244219 5.7789299,5.256079 5.8828248,5.242331 C 5.9784547,5.2064701 6.0740846,5.1706086 6.1697146,5.1347472 C 6.19488,5.0664388 6.2246322,4.9973926 6.1838942,4.9267803 C 6.1496648,4.7623951 5.9291387,4.8271528 5.8075457,4.7684419 C 5.6807257,4.7440122 5.5492716,4.7622675 5.4204112,4.7566257 C 5.4054945,4.7566257 5.3905778,4.7566257 5.3756605,4.7566257 z"
       id="path2527" />
    <path
       style="fill:url(#linearGradient3424);fill-opacity:1;fill-rule:evenodd;stroke:none;stroke-width:0.99999994px;stroke-linecap:butt;stroke-linejoin:miter;stroke-opacity:1"
       d="M 8.0206548,0.33533518 C 7.8899494,0.40139017 7.7725922,0.51771029 7.6150763,0.4828102 C 7.4462697,0.47148409 7.282828,0.48658729 7.1317283,0.57030167 C 6.870243,0.70924068 6.5558545,0.54709767 6.2987807,0.70526516 C 6.1455829,0.79777336 5.693285,0.87680341 5.7445887,1.0318096 C 6.0301703,1.0832636 6.4444391,1.2026074 6.1932277,1.5242839 C 6.3007064,1.6039037 6.552168,1.6479039 6.3246949,1.773218 C 6.5302278,1.8253882 6.823886,1.769952 6.7613583,2.0854506 C 6.8183106,2.2597731 7.1175423,2.1601317 7.2146983,2.3491945 C 7.5007256,2.486509 7.1422059,2.5921624 7.0620686,2.7686753 C 6.9019253,3.0636854 6.6924949,3.3471626 6.4798025,3.5874936 C 6.0871008,3.4525192 6.3618016,4.1252954 5.9614806,4.0086764 C 5.5829183,4.099795 5.185387,4.0873416 4.8130784,4.2065582 C 4.5748456,4.0319452 4.3874712,4.439624 4.149442,4.5015087 C 4.045081,4.731697 3.6239638,4.6339488 3.6838697,4.3917395 C 3.6819496,4.1512036 3.8540073,3.9640266 3.9155559,3.7393613 C 4.0562178,3.4161909 4.4710991,3.4187536 4.7070809,3.1834492 C 5.0037057,3.0276582 4.9939016,2.5695578 5.3661087,2.5105938 C 5.4068641,2.329625 5.4998332,2.1845258 5.6241897,2.0681683 C 5.2594383,1.9710694 5.0368519,2.2891708 4.8137535,2.5218272 C 4.5457873,2.7221789 4.3855651,3.0421204 4.1040042,3.2059882 C 3.8542495,3.2891755 3.337043,3.5733566 3.5226741,3.0544083 C 3.6099678,2.8329901 3.8732603,2.6629692 4.031347,2.5555277 C 3.9372769,2.189449 3.6785084,2.6301408 3.5858263,2.6743431 C 3.5626772,2.5210266 3.6754613,1.9819497 3.4120679,2.289381 C 3.2888191,2.552532 3.1688541,2.8158946 2.8578853,2.8775535 C 2.6590629,2.9718981 2.2957126,3.2559251 2.7184756,3.3194029 C 2.9617376,3.1907799 3.1558898,2.8833392 3.4858052,2.8424129 C 3.4050273,3.1367446 3.1422859,3.3751338 3.1908557,3.6978841 C 3.063451,3.9390798 2.8712737,4.1561212 2.7834278,4.4250345 C 2.715986,4.7428342 2.5567668,5.0345694 2.2967899,5.2388841 C 2.1793927,5.4257961 2.1985627,5.8491849 1.9741888,5.9025223 C 1.9173187,5.6892824 1.9036462,5.4645595 1.6729165,5.3886753 C 1.5443331,5.3166021 1.4814656,5.1914038 1.4245746,5.0613729 C 1.3951113,4.9212671 1.2292527,5.0018528 1.1262087,4.9808028 C 1.015603,5.0545403 0.90499673,5.1282783 0.79439045,5.2020155 C 1.0720801,4.6338764 1.3383822,4.0583117 1.6175997,3.4921383 C 1.9660355,3.1038191 2.2826608,2.6848578 2.6791413,2.3428192 C 2.8374501,2.1788807 3.0138909,2.0385052 3.2141995,1.9291463 C 3.543451,1.7327023 3.8576099,1.5079625 4.196694,1.3299521 C 4.6574493,1.1338369 5.1005614,0.89171565 5.5854781,0.75860169 C 6.0433795,0.59908283 6.5117257,0.47616441 6.9832168,0.36426573 C 7.2244921,0.30382673 7.4788381,0.34956537 7.7258021,0.33533518 C 7.8240862,0.33533518 7.9223702,0.33533518 8.0206548,0.33533518 z"
       id="path2529" />
    <path
       style="fill:none;fill-rule:evenodd;stroke:none;stroke-width:0.99999994px;stroke-linecap:butt;stroke-linejoin:miter;stroke-opacity:1"
       d="M 8.5140638,3.2819504 L 8.5140638,3.2819504 z"
       id="path2531" />
    <path
       style="fill:#8ae234;fill-rule:evenodd;stroke:none;stroke-width:0.99999994px;stroke-linecap:butt;stroke-linejoin:miter;stroke-opacity:1"
       d="M 8.5518762,2.979453 C 8.4283487,2.9041904 8.2840634,2.7571853 8.148086,2.8964595 C 8.0284652,2.9618516 7.9002258,3.0267317 7.8527213,3.164969 C 7.7465856,3.3515398 8.0341375,3.3627054 8.1455901,3.4116806 C 8.2152014,3.480671 8.3358066,3.443742 8.4236086,3.4233501 C 8.5041771,3.388821 8.5847446,3.3542919 8.6653122,3.3197627 C 8.6274999,3.2063261 8.589688,3.0928896 8.5518762,2.979453 z"
       id="path2533" />
    <path
       style="fill:url(#radialGradient3419);fill-opacity:1;fill-rule:evenodd;stroke:none;stroke-width:0.99999994px;stroke-linecap:butt;stroke-linejoin:miter;stroke-opacity:1"
       d="M 8.4003031,0.33198584 C 8.4124839,0.78652349 9.2572028,0.35008243 9.4979243,0.78591857 C 9.6558298,0.90535482 9.9375367,1.0919339 9.5878249,0.93606914 C 9.1125012,0.75768039 9.8289032,1.3248719 10.078566,1.1635757 C 10.428275,1.0488494 10.505643,1.8864825 10.042259,1.6720183 C 9.9028504,1.920114 9.23321,1.8111005 9.6486147,2.1849243 C 9.9510552,2.0138862 10.207528,2.027605 10.428366,2.2958526 C 10.550201,2.4226407 10.681257,2.5895745 10.738132,2.7466631 C 10.763942,3.0559325 10.347222,2.6493817 10.59811,3.0555821 C 10.683499,3.2987906 11.141737,3.5077188 10.661134,3.5662952 C 10.458036,3.6377307 10.33946,3.390241 10.221938,3.2636039 C 10.107828,3.0786117 10.016968,2.8828632 9.9499953,2.6760646 C 9.7583865,2.973809 9.8367296,3.4522034 10.185883,3.5885271 C 10.283286,3.6955842 10.882849,3.6472221 10.70829,3.8713143 C 10.52769,4.0266956 10.192614,3.9135011 10.230388,4.2822354 C 10.388481,4.530979 10.308483,4.4013138 10.044915,4.3608755 C 9.8397177,4.3132031 9.6323592,4.2892365 9.4216492,4.3020369 C 9.0060858,3.9140627 8.6183052,4.5065098 8.3706424,4.8024111 C 8.1911079,4.9166722 8.2212676,5.1302157 8.0988165,5.2774665 C 7.9294581,5.5662683 7.6009287,5.7699826 7.5174006,6.0996753 C 7.5084911,6.271718 7.4303546,6.5172307 7.5457938,6.6447685 C 7.7326422,6.900243 7.8274183,6.5591796 8.0106563,6.5344928 C 8.2399429,6.5919378 8.4405614,7.3719116 8.8171853,6.949199 C 8.877764,6.7902223 8.8477239,6.5803097 8.9677174,6.4210097 C 8.8145331,6.1967592 8.8243231,5.9215108 8.7779588,5.6638352 C 8.9118159,5.5014586 9.0076641,5.3134504 9.1184077,5.1354867 C 9.3668139,5.2660731 8.8674083,5.7876745 9.1946833,6.0805601 C 9.4608273,6.2209814 9.2494606,6.5092634 9.3081658,6.7382439 C 9.3955129,7.182571 8.9661396,7.2463267 8.6576358,7.2979063 C 8.5120515,7.3831337 8.0552501,7.4396359 8.4003031,7.2135317 C 8.2907176,7.1289771 8.1357339,6.553171 8.0101824,6.730626 C 7.886019,6.9005314 7.7805232,7.0721298 7.9235023,7.2662802 C 7.9480105,7.4266347 7.6192744,7.4325785 7.5165033,7.5542781 C 7.3839826,7.6009395 7.1522064,7.8984994 7.1259147,7.8473398 C 7.2523896,7.5133523 6.8091798,7.348503 6.7824221,7.0084449 C 6.9341515,6.7490448 6.7822817,6.5385548 6.8506104,6.2684584 C 6.6907129,6.3718921 6.4666595,6.4168025 6.4321039,6.6345711 C 6.3548226,6.8406757 6.247128,7.0425136 6.0190228,7.1019086 C 5.6528959,6.8801418 5.8995656,7.4366347 5.6022988,7.4795656 C 5.9672157,7.7916202 6.1829078,7.4806023 6.3594712,7.1763238 C 6.721989,7.2907231 6.1257083,7.5744818 6.3690932,7.760237 C 6.2468473,7.7848619 5.9202606,8.1536985 6.1827002,8.0610406 C 6.4626638,7.9848757 6.7519982,8.0119524 7.0385085,8.0079136 C 6.9468758,8.2795704 6.594702,8.0521765 6.6395964,8.2341601 C 6.3725135,8.2736233 6.1211594,8.3805983 6.4729542,8.5753294 C 6.5197719,8.7623542 6.7476874,8.9528263 6.5892626,9.1359429 C 6.5441504,9.4007315 6.367149,9.3756953 6.161922,9.2886307 C 5.9704889,9.2574595 5.7570817,9.1453829 5.5795702,9.1654739 C 5.3871076,9.4453385 5.352129,9.8778624 5.2812953,10.219473 C 5.3108107,10.414889 5.5700774,10.45851 5.6971674,10.589459 C 5.8465573,10.721451 6.0608168,10.579411 6.2374136,10.568795 C 6.4329049,10.521991 6.6135453,10.455025 6.6973855,10.256629 C 6.7860243,10.09497 6.7242231,9.866363 6.9719275,9.8295099 C 7.2618228,9.6872407 7.1635475,9.4425009 7.5740281,9.471229 C 7.755242,9.3944955 7.94304,9.2596912 8.0925141,9.4629157 C 8.3598124,9.6414775 8.4874895,10.006736 8.8307077,10.064949 C 9.1199196,10.188374 8.8057615,10.490267 8.5900612,10.39106 C 8.231358,10.833888 9.1911759,10.859827 9.1800071,10.36806 C 9.42791,10.193063 9.0182516,9.9637262 9.1728287,10.043446 C 9.4509634,10.21183 9.4401556,10.028497 9.2784674,9.8485589 C 9.0607958,9.7532425 8.8102315,9.702715 8.6892987,9.4756767 C 8.6403935,9.3813457 8.3500307,9.0044959 8.5196446,9.1169902 C 8.7904721,9.3134463 9.1100862,9.4330091 9.3808735,9.6228109 C 9.5640495,9.7355264 9.6622343,9.8926523 9.6428359,10.111217 C 9.7406501,10.374159 9.9300476,10.654476 10.23134,10.704189 C 10.360989,10.833375 10.723125,10.785816 10.610213,10.631511 C 10.4303,10.583592 10.15791,10.479347 10.335901,10.269328 C 10.411481,10.143039 9.8887821,10.005436 10.170456,9.9030172 C 10.374364,9.6840484 10.463805,9.7987012 10.505571,10.052302 C 10.609041,10.192325 10.690083,10.447445 10.905089,10.39106 C 11.146248,10.503536 11.14314,10.060342 11.339376,10.294075 C 11.504748,10.480681 11.7119,10.285805 11.797028,10.117516 C 11.89556,9.9925873 11.816694,10.449602 11.841997,10.564895 C 11.8249,10.772638 11.705318,10.946707 11.484568,10.963516 C 11.268171,11.017562 11.675287,11.218801 11.72899,11.336609 C 11.872618,11.613096 12.016247,11.433296 12.159876,11.54053 C 12.489219,11.868981 12.81164,12.204723 13.164724,12.508173 C 13.602298,12.498088 13.70956,12.005295 13.974184,11.736025 C 14.264,11.444959 14.340463,11.029758 14.563726,10.692442 C 14.609686,10.429397 14.654481,10.166191 14.677209,9.8999197 C 14.493938,10.0699 14.327638,9.7170664 14.301008,10.073047 C 14.206087,10.195884 14.244331,10.591741 14.02699,10.463587 C 13.880307,10.392943 13.617296,10.309829 13.655863,10.109938 C 13.705638,9.9489658 14.033143,10.19211 14.14877,10.028703 C 14.454663,9.7908607 14.783663,9.5789928 14.999117,9.2481908 C 15.130772,9.1016481 15.384542,9.1921842 15.568045,9.1463015 C 15.691666,9.0618224 15.588291,8.764744 15.622279,8.5963187 C 15.621033,7.8866075 15.634626,7.1705824 15.572649,6.4657798 C 15.242733,5.7055784 14.948743,4.9258716 14.602819,4.1751799 C 14.267701,3.6950265 13.938535,3.2100798 13.519886,2.7971995 C 13.255042,2.5328422 13.03566,2.2133865 12.741978,1.9839783 C 12.125757,1.6251004 11.547529,1.1926469 10.871659,0.94928541 C 10.403999,0.73548822 9.9089074,0.57579094 9.4077072,0.46740784 C 9.071906,0.42226697 8.7361043,0.37712671 8.4003031,0.33198584 z M 12.863343,7.6302566 C 13.124763,7.8318864 13.453132,8.0228221 13.487441,8.3868852 C 13.726021,8.6813394 13.687891,8.7866199 13.337049,8.8698751 C 13.21476,8.777644 13.223671,8.4914746 13.073021,8.3905378 C 12.889328,8.2945588 12.73508,8.1615873 12.597309,8.0079136 C 12.678575,7.8641668 12.607952,7.5848133 12.863343,7.6302566 z M 10.828092,8.4581255 C 11.170887,9.0308951 11.633263,8.290656 12.083544,8.7007924 C 12.452679,8.8416208 11.978876,9.1049614 11.777712,9.1055373 C 11.591816,9.1221224 11.351404,9.0294035 11.272047,9.2595944 C 11.168626,9.4965179 10.877646,9.4203308 10.669961,9.4831954 C 10.622397,9.162405 10.730602,8.7672937 10.828092,8.4581255 z"
       id="path3345" />
    <path
       sodipodi:type="arc"
       style="opacity:0.57213930999999996;fill:none;fill-opacity:1;stroke:#204a87;stroke-width:17.18569756000000126;stroke-linejoin:miter;stroke-miterlimit:18.60000038000000089;stroke-dasharray:none;stroke-dashoffset:0;stroke-opacity:1"
       id="path3434"
       sodipodi:cx="0"
       sodipodi:cy="11.796133"
       sodipodi:rx="128.93658"
       sodipodi:ry="128.93658"
       d="M 128.93658,11.796133 A 128.93658,128.93658 0 1 1 -128.93658,11.796133 A 128.93658,128.93658 0 1 1 128.93658,11.796133 z"
       transform="matrix(5.8187803e-2,0,0,5.8187953e-2,7.9749788,7.3110517)" />
  </g>
</svg>
