<?xml version="1.0" encoding="UTF-8" standalone="no"?>
<!-- Created with Inkscape (http://www.inkscape.org/) -->
<svg
   xmlns:dc="http://purl.org/dc/elements/1.1/"
   xmlns:cc="http://creativecommons.org/ns#"
   xmlns:rdf="http://www.w3.org/1999/02/22-rdf-syntax-ns#"
   xmlns:svg="http://www.w3.org/2000/svg"
   xmlns="http://www.w3.org/2000/svg"
   xmlns:xlink="http://www.w3.org/1999/xlink"
   xmlns:sodipodi="http://sodipodi.sourceforge.net/DTD/sodipodi-0.dtd"
   xmlns:inkscape="http://www.inkscape.org/namespaces/inkscape"
   width="22"
   height="22"
   id="svg5214"
   sodipodi:version="0.32"
   inkscape:version="0.46"
   version="1.0"
   inkscape:export-filename="/Users/lse/Sites/BambusONE/System/Icons/tango/large/apps/preferences-tree-navigation.png"
   inkscape:export-xdpi="90"
   inkscape:export-ydpi="90"
   sodipodi:docname="mimetype-ics-small.svg"
   inkscape:output_extension="org.inkscape.output.svg.inkscape">
  <defs
     id="defs5216">
    <linearGradient
       inkscape:collect="always"
       id="linearGradient4779">
      <stop
         style="stop-color:#fffffa;stop-opacity:1"
         offset="0"
         id="stop4781" />
      <stop
         style="stop-color:#eeeedb;stop-opacity:1"
         offset="1"
         id="stop4783" />
    </linearGradient>
    <inkscape:perspective
       sodipodi:type="inkscape:persp3d"
       inkscape:vp_x="0 : 16 : 1"
       inkscape:vp_y="0 : 1000 : 0"
       inkscape:vp_z="32 : 16 : 1"
       inkscape:persp3d-origin="16 : 10.666667 : 1"
       id="perspective2437" />
    <linearGradient
       inkscape:collect="always"
       xlink:href="#linearGradient4779"
       id="linearGradient4785"
       x1="15.993088"
       y1="8.82265"
       x2="16.251078"
       y2="17.042765"
       gradientUnits="userSpaceOnUse" />
  </defs>
  <sodipodi:namedview
     id="base"
     pagecolor="#ffffff"
     bordercolor="#666666"
     borderopacity="1.0"
     gridtolerance="10000"
     guidetolerance="10"
     objecttolerance="10"
     inkscape:pageopacity="0.0"
     inkscape:pageshadow="2"
     inkscape:zoom="11.313708"
     inkscape:cx="6.5800438"
     inkscape:cy="3.3403777"
     inkscape:document-units="px"
     inkscape:current-layer="layer1"
     showgrid="true"
     inkscape:snap-bbox="true"
     inkscape:snap-nodes="false"
     inkscape:window-width="1619"
     inkscape:window-height="1022"
     inkscape:window-x="114"
     inkscape:window-y="0">
    <inkscape:grid
       type="xygrid"
       id="grid5224"
       visible="true"
       enabled="true" />
  </sodipodi:namedview>
  <metadata
     id="metadata5219">
    <rdf:RDF>
      <cc:Work
         rdf:about="">
        <dc:format>image/svg+xml</dc:format>
        <dc:type
           rdf:resource="http://purl.org/dc/dcmitype/StillImage" />
      </cc:Work>
    </rdf:RDF>
  </metadata>
  <g
     inkscape:label="Layer 1"
     inkscape:groupmode="layer"
     id="layer1">
    <rect
       style="opacity:0.99460916;fill:#e9b96e;fill-opacity:1;stroke:#8f5902;stroke-width:0.99999988;stroke-linejoin:miter;stroke-miterlimit:18.60000038;stroke-dasharray:none;stroke-dashoffset:0;stroke-opacity:1"
       id="rect3968"
       width="19"
       height="20.994736"
       x="1.5"
       y="0.49999994" />
    <rect
       style="opacity:0.99460916;fill:#555753;fill-opacity:1;stroke:#888a85;stroke-width:0.99999994;stroke-linejoin:miter;stroke-miterlimit:18.60000038;stroke-dasharray:none;stroke-dashoffset:0;stroke-opacity:1"
       id="rect3972"
       width="15.000001"
       height="16.984211"
       x="3.4999998"
       y="2.5" />
    <path
       style="opacity:0.99460916000000021;fill:url(#linearGradient4785);fill-opacity:1;stroke:#d3d7cf;stroke-width:0.99999994000000003;stroke-linejoin:miter;stroke-miterlimit:18.60000038000000089;stroke-dashoffset:0;stroke-opacity:1"
       d="M 3.5,2.5 L 18.5,2.5 L 18.5,10.5 C 18.5,10.5 18.050697,16.092611 19.375,17.1875 C 18.178095,18.645907 11,18.5 11,18.5 L 3.5,18.5 L 3.5,2.5 z"
       id="rect3974"
       sodipodi:nodetypes="ccccccc" />
    <text
       xml:space="preserve"
       style="font-size:12.31795311px;font-style:normal;font-weight:normal;fill:#000000;fill-opacity:1;stroke:none;stroke-width:1px;stroke-linecap:butt;stroke-linejoin:miter;stroke-opacity:1;font-family:Bitstream Vera Sans"
       x="7.0316138"
       y="15.090113"
       id="text3976"
       transform="scale(1.0183795,0.9819522)"><tspan
         sodipodi:role="line"
         id="tspan3978"
         x="7.0316138"
         y="15.090113"
         style="font-weight:bold">7</tspan></text>
    <path
       style="fill:#babdb6;fill-rule:evenodd;stroke:none;stroke-width:1px;stroke-linecap:butt;stroke-linejoin:miter;stroke-opacity:1"
       d="M 3.6282892,3.375 L 4.2434207,5.25 L 4.9703945,3.5 C 4.9703945,3.5 5.1381577,4.125 5.1381577,4.1875 C 5.1381577,4.25 5.5855261,3.5625 5.5855261,3.5625 C 5.5855261,3.5625 7.0953945,5.0625 7.0953945,5.1875 C 7.0953945,5.3125 7.2631577,4.375 7.2631577,4.375 L 7.2072366,3.4375 L 8.605263,4.4375 C 8.605263,4.4375 9.2203946,3.4375 9.2763156,3.5 C 9.3322367,3.5625 9.6118416,4.8125 9.6118416,4.8125 L 10.786184,3.625 L 10.953947,5.0625 C 10.953947,5.0625 11.289473,6 11.345395,6 C 11.401315,6 12.072369,4.875 12.072369,4.875 L 12.072369,3.6875 C 12.072369,3.6875 12.911184,4 12.911184,4.0625 C 12.911184,4.125 13.023027,5 13.023027,5 L 13.638158,5.3125 L 13.805921,4.625 L 14.141447,3.6875 L 14.309211,5.125 C 14.309211,5.125 14.476973,3.125 14.532895,3.125 C 14.588816,3.125 15.427631,4.75 15.427631,4.75 L 15.986842,3.875 L 16.825658,4.875 L 17.273027,3.9375 L 18,3.625 L 18,1.5625 L 3.5723681,1.875 L 3.6282892,3.375 z"
       id="path3982"
       sodipodi:nodetypes="cccscscccscccsccscccccscccccccc" />
    <rect
       style="opacity:0.99460916000000021;fill:#888a85;fill-opacity:1;stroke:#555753;stroke-width:0.99999987999999995;stroke-linejoin:miter;stroke-miterlimit:18.60000038000000089;stroke-dasharray:none;stroke-dashoffset:0;stroke-opacity:1"
       id="rect3970"
       width="19"
       height="3"
       x="1.5000001"
       y="0.49999994" />
  </g>
</svg>
