<?xml version="1.0" encoding="UTF-8" standalone="no"?>
<!-- Created with Inkscape (http://www.inkscape.org/) -->
<svg
   xmlns:dc="http://purl.org/dc/elements/1.1/"
   xmlns:cc="http://creativecommons.org/ns#"
   xmlns:rdf="http://www.w3.org/1999/02/22-rdf-syntax-ns#"
   xmlns:svg="http://www.w3.org/2000/svg"
   xmlns="http://www.w3.org/2000/svg"
   xmlns:xlink="http://www.w3.org/1999/xlink"
   xmlns:sodipodi="http://sodipodi.sourceforge.net/DTD/sodipodi-0.dtd"
   xmlns:inkscape="http://www.inkscape.org/namespaces/inkscape"
   width="48"
   height="48"
   id="svg2"
   sodipodi:version="0.32"
   inkscape:version="0.46"
   version="1.0"
   sodipodi:docname="preferences-account-group.svg"
   inkscape:output_extension="org.inkscape.output.svg.inkscape"
   inkscape:export-filename="/home/lse/public_html/Chimera/System/Icons/tango/large/apps/preferences-account-group.png"
   inkscape:export-xdpi="90"
   inkscape:export-ydpi="90">
  <defs
     id="defs4">
    <linearGradient
       id="linearGradient3386"
       inkscape:collect="always">
      <stop
         id="stop3388"
         offset="0"
         style="stop-color:#e3a544;stop-opacity:1" />
      <stop
         id="stop3390"
         offset="1"
         style="stop-color:#7a630a;stop-opacity:1" />
    </linearGradient>
    <linearGradient
       id="linearGradient3380"
       inkscape:collect="always">
      <stop
         id="stop3382"
         offset="0"
         style="stop-color:#8ae234;stop-opacity:1" />
      <stop
         id="stop3384"
         offset="1"
         style="stop-color:#73d216;stop-opacity:1" />
    </linearGradient>
    <linearGradient
       inkscape:collect="always"
       id="linearGradient3345">
      <stop
         style="stop-color:#e9b96e;stop-opacity:1;"
         offset="0"
         id="stop3347" />
      <stop
         style="stop-color:#c17d11;stop-opacity:1"
         offset="1"
         id="stop3349" />
    </linearGradient>
    <linearGradient
       inkscape:collect="always"
       id="linearGradient3312">
      <stop
         style="stop-color:#ad7fa8;stop-opacity:1;"
         offset="0"
         id="stop3314" />
      <stop
         style="stop-color:#75507b;stop-opacity:1"
         offset="1"
         id="stop3316" />
    </linearGradient>
    <inkscape:perspective
       sodipodi:type="inkscape:persp3d"
       inkscape:vp_x="0 : 526.18109 : 1"
       inkscape:vp_y="0 : 1000 : 0"
       inkscape:vp_z="744.09448 : 526.18109 : 1"
       inkscape:persp3d-origin="372.04724 : 350.78739 : 1"
       id="perspective10" />
    <linearGradient
       inkscape:collect="always"
       xlink:href="#linearGradient3345"
       id="linearGradient3360"
       gradientUnits="userSpaceOnUse"
       x1="18.113657"
       y1="10.014077"
       x2="39.216949"
       y2="45.889671" />
    <linearGradient
       inkscape:collect="always"
       xlink:href="#linearGradient3312"
       id="linearGradient3362"
       gradientUnits="userSpaceOnUse"
       x1="7.6301756"
       y1="32.344986"
       x2="11.094451"
       y2="42.737812" />
    <linearGradient
       inkscape:collect="always"
       xlink:href="#linearGradient3386"
       id="linearGradient3376"
       gradientUnits="userSpaceOnUse"
       x1="18.113657"
       y1="10.014077"
       x2="39.216949"
       y2="45.889671" />
    <linearGradient
       inkscape:collect="always"
       xlink:href="#linearGradient3380"
       id="linearGradient3378"
       gradientUnits="userSpaceOnUse"
       x1="7.6301756"
       y1="32.344986"
       x2="11.094451"
       y2="42.737812" />
  </defs>
  <sodipodi:namedview
     id="base"
     pagecolor="#ffffff"
     bordercolor="#666666"
     borderopacity="1.0"
     inkscape:pageopacity="0.0"
     inkscape:pageshadow="2"
     inkscape:zoom="22.745268"
     inkscape:cx="24"
     inkscape:cy="22.087514"
     inkscape:document-units="px"
     inkscape:current-layer="layer1"
     showgrid="true"
     inkscape:window-width="1280"
     inkscape:window-height="955"
     inkscape:window-x="0"
     inkscape:window-y="25">
    <inkscape:grid
       type="xygrid"
       id="grid2383"
       visible="true"
       enabled="true" />
  </sodipodi:namedview>
  <metadata
     id="metadata7">
    <rdf:RDF>
      <cc:Work
         rdf:about="">
        <dc:format>image/svg+xml</dc:format>
        <dc:type
           rdf:resource="http://purl.org/dc/dcmitype/StillImage" />
      </cc:Work>
    </rdf:RDF>
  </metadata>
  <g
     inkscape:label="Ebene 1"
     inkscape:groupmode="layer"
     id="layer1">
    <g
       id="g3353"
       transform="matrix(0.6778522,0,0,0.6778522,0.2042877,0.187949)">
      <path
         sodipodi:nodetypes="czcccczzzzz"
         id="path3323"
         d="M 12.878891,10.403259 C 11.490326,17.741983 12.368074,19.685248 12.878891,22.697191 C 13.393814,25.733349 17.980499,29.722295 17.980499,29.722295 L 16.980499,42.576243 C 16.980499,42.576243 30.994329,42.576243 30.994329,42.576243 L 29.994329,29.722295 C 29.994329,29.722295 34.456475,26.098665 35.095938,22.697191 C 35.763707,19.145152 36.484503,17.741983 35.095938,10.403259 C 33.707373,3.0645338 31.36907,2.3863834 29.541676,1.3709819 C 27.663659,0.32745172 20.311813,0.28609011 18.433153,1.3709819 C 16.652231,2.3994322 14.267456,3.0645338 12.878891,10.403259 z"
         style="fill:url(#linearGradient3360);fill-opacity:1;fill-rule:evenodd;stroke:#c17d11;stroke-width:1.47524786px;stroke-linecap:butt;stroke-linejoin:miter;stroke-opacity:1" />
      <path
         sodipodi:nodetypes="czcccczzzzz"
         id="path3320"
         d="M 14.176391,11.131426 C 12.916978,17.787566 13.92294,19.666388 14.386244,22.398187 C 14.853273,25.151949 19.557656,28.953724 19.557656,28.953724 L 18.453406,40.687706 C 18.453406,40.687706 29.460888,41.063446 29.460888,41.063446 L 28.42418,29.080759 C 28.42418,29.080759 33.160601,25.418427 33.740586,22.333328 C 34.346246,19.111669 35.062176,17.855109 33.802762,11.198969 C 32.543349,4.5428258 31.109157,3.9384845 29.078674,2.7688219 C 27.094693,1.6259469 20.87865,1.5090419 18.900481,2.7688219 C 16.849971,4.074672 15.435805,4.4752829 14.176391,11.131426 z"
         style="opacity:0.37918216;fill:#e9b96e;fill-rule:evenodd;stroke:#eeeeec;stroke-width:1.47524774px;stroke-linecap:butt;stroke-linejoin:miter;stroke-opacity:1" />
      <rect
         y="35.47287"
         x="18.170542"
         height="6.139535"
         width="11.348837"
         id="rect2538"
         style="opacity:1;fill:#ffffff;fill-opacity:1;fill-rule:evenodd;stroke:#eeeeec;stroke-width:1.47524786;stroke-linecap:square;stroke-linejoin:miter;marker:none;marker-start:none;marker-mid:none;marker-end:none;stroke-miterlimit:29.89999962;stroke-dasharray:none;stroke-dashoffset:0;stroke-opacity:1;visibility:visible;display:inline;overflow:visible;enable-background:accumulate" />
      <path
         sodipodi:nodetypes="czcccczccc"
         id="path2536"
         d="M 16.980499,32.576243 C 16.980499,32.576243 12.855586,32.576243 8.7306722,32.576243 C 4.6057594,32.576243 0.48084552,40.604934 0.48084552,40.604934 L 0.48084552,47.630038 L 47.618274,47.630038 L 47.618274,40.604934 C 47.618274,40.604934 43.462287,32.576243 39.306302,32.576243 C 35.150316,32.576243 30.994329,32.576243 30.994329,32.576243 C 30.994329,32.576243 23.937984,40.192687 23.937984,40.192687 L 16.980499,32.576243 z"
         style="fill:url(#linearGradient3362);fill-opacity:1;fill-rule:evenodd;stroke:#5c3566;stroke-width:1.47524786px;stroke-linecap:butt;stroke-linejoin:miter;stroke-opacity:1" />
      <path
         sodipodi:nodetypes="czcccczccc"
         id="path3310"
         d="M 16.343573,34.157067 C 16.343573,34.157067 13.252406,34.157067 9.1274918,34.157067 C 5.002579,34.157067 1.8776651,41.078715 1.8776651,41.078715 L 1.8776651,45.968672 L 46.155318,46.034809 L 46.221454,41.122567 C 46.221454,41.122567 42.867058,34.090931 38.711073,34.090931 C 34.555087,34.090931 31.631255,34.090931 31.631255,34.090931 C 31.631255,34.090931 24.004121,42.247999 24.004121,42.247999 L 16.343573,34.157067 z"
         style="opacity:0.5613383;fill:none;fill-rule:evenodd;stroke:#eeeeec;stroke-width:1.47524786px;stroke-linecap:butt;stroke-linejoin:miter;stroke-opacity:1" />
    </g>
    <g
       id="g3364"
       transform="matrix(0.6814698,0,0,0.6814698,15.177956,15.088683)">
      <path
         sodipodi:nodetypes="czcccczzzzz"
         id="path3366"
         d="M 12.878891,10.403259 C 11.490326,17.741983 12.368074,19.685248 12.878891,22.697191 C 13.393814,25.733349 17.980499,29.722295 17.980499,29.722295 L 16.980499,42.576243 C 16.980499,42.576243 30.994329,42.576243 30.994329,42.576243 L 29.994329,29.722295 C 29.994329,29.722295 34.456475,26.098665 35.095938,22.697191 C 35.763707,19.145152 36.484503,17.741983 35.095938,10.403259 C 33.707373,3.0645338 31.36907,2.3863834 29.541676,1.3709819 C 27.663659,0.32745172 20.311813,0.28609011 18.433153,1.3709819 C 16.652231,2.3994322 14.267456,3.0645338 12.878891,10.403259 z"
         style="fill:url(#linearGradient3376);fill-opacity:1;fill-rule:evenodd;stroke:#c17d11;stroke-width:1.46741652px;stroke-linecap:butt;stroke-linejoin:miter;stroke-opacity:1" />
      <path
         sodipodi:nodetypes="czcccczzzzz"
         id="path3368"
         d="M 14.176391,11.131426 C 12.916978,17.787566 13.92294,19.666388 14.386244,22.398187 C 14.853273,25.151949 19.557656,28.953724 19.557656,28.953724 L 18.453406,40.687706 C 18.453406,40.687706 29.460888,41.063446 29.460888,41.063446 L 28.42418,29.080759 C 28.42418,29.080759 33.160601,25.418427 33.740586,22.333328 C 34.346246,19.111669 35.062176,17.855109 33.802762,11.198969 C 32.543349,4.5428258 31.109157,3.9384845 29.078674,2.7688219 C 27.094693,1.6259469 20.87865,1.5090419 18.900481,2.7688219 C 16.849971,4.074672 15.435805,4.4752829 14.176391,11.131426 z"
         style="opacity:0.37918216;fill:#e9b96e;fill-rule:evenodd;stroke:#eeeeec;stroke-width:1.46741641px;stroke-linecap:butt;stroke-linejoin:miter;stroke-opacity:1" />
      <rect
         y="35.47287"
         x="18.170542"
         height="6.139535"
         width="11.348837"
         id="rect3370"
         style="opacity:1;fill:#ffffff;fill-opacity:1;fill-rule:evenodd;stroke:#eeeeec;stroke-width:1.46741652000000000;stroke-linecap:square;stroke-linejoin:miter;marker:none;marker-start:none;marker-mid:none;marker-end:none;stroke-miterlimit:29.89999961999999911;stroke-dasharray:none;stroke-dashoffset:0;stroke-opacity:1;visibility:visible;display:inline;overflow:visible;enable-background:accumulate" />
      <path
         sodipodi:nodetypes="czcccczccc"
         id="path3372"
         d="M 16.980499,32.576243 C 16.980499,32.576243 12.855586,32.576243 8.7306722,32.576243 C 4.6057594,32.576243 0.48084552,40.604934 0.48084552,40.604934 L 0.48084552,47.630038 L 47.618274,47.630038 L 47.618274,40.604934 C 47.618274,40.604934 43.462287,32.576243 39.306302,32.576243 C 35.150316,32.576243 30.994329,32.576243 30.994329,32.576243 C 30.994329,32.576243 23.937984,40.192687 23.937984,40.192687 L 16.980499,32.576243 z"
         style="fill:url(#linearGradient3378);fill-opacity:1;fill-rule:evenodd;stroke:#4e9a06;stroke-width:1.46741652000000000px;stroke-linecap:butt;stroke-linejoin:miter;stroke-opacity:1" />
      <path
         sodipodi:nodetypes="czcccczccc"
         id="path3374"
         d="M 16.343573,34.157067 C 16.343573,34.157067 13.252406,34.157067 9.1274918,34.157067 C 5.002579,34.157067 1.8776651,41.078715 1.8776651,41.078715 L 1.8776651,45.968672 L 46.155318,46.034809 L 46.221454,41.122567 C 46.221454,41.122567 42.867058,34.090931 38.711073,34.090931 C 34.555087,34.090931 31.631255,34.090931 31.631255,34.090931 C 31.631255,34.090931 24.004121,42.247999 24.004121,42.247999 L 16.343573,34.157067 z"
         style="opacity:0.5613383;fill:none;fill-rule:evenodd;stroke:#eeeeec;stroke-width:1.46741652px;stroke-linecap:butt;stroke-linejoin:miter;stroke-opacity:1" />
    </g>
  </g>
</svg>
