<?xml version="1.0" encoding="UTF-8" standalone="no"?>
<!-- Created with Inkscape (http://www.inkscape.org/) -->
<svg
   xmlns:dc="http://purl.org/dc/elements/1.1/"
   xmlns:cc="http://creativecommons.org/ns#"
   xmlns:rdf="http://www.w3.org/1999/02/22-rdf-syntax-ns#"
   xmlns:svg="http://www.w3.org/2000/svg"
   xmlns="http://www.w3.org/2000/svg"
   xmlns:xlink="http://www.w3.org/1999/xlink"
   xmlns:sodipodi="http://sodipodi.sourceforge.net/DTD/sodipodi-0.dtd"
   xmlns:inkscape="http://www.inkscape.org/namespaces/inkscape"
   width="48"
   height="48"
   id="svg2"
   sodipodi:version="0.32"
   inkscape:version="0.46"
   version="1.0"
   sodipodi:docname="preferences-enviornment.svg"
   inkscape:output_extension="org.inkscape.output.svg.inkscape"
   inkscape:export-filename="/home/lse/public_html/Chimera/System/Icons/tango/large/apps/preferences-enviornment.png"
   inkscape:export-xdpi="90"
   inkscape:export-ydpi="90">
  <defs
     id="defs4">
    <linearGradient
       inkscape:collect="always"
       id="linearGradient3366">
      <stop
         style="stop-color:#3465a4;stop-opacity:1;"
         offset="0"
         id="stop3368" />
      <stop
         style="stop-color:#3465a4;stop-opacity:1"
         offset="1"
         id="stop3370" />
    </linearGradient>
    <linearGradient
       inkscape:collect="always"
       id="linearGradient3334">
      <stop
         style="stop-color:#ffffff;stop-opacity:1;"
         offset="0"
         id="stop3336" />
      <stop
         style="stop-color:#ffffff;stop-opacity:0;"
         offset="1"
         id="stop3338" />
    </linearGradient>
    <linearGradient
       inkscape:collect="always"
       id="linearGradient2528">
      <stop
         style="stop-color:#ad7fa8;stop-opacity:1;"
         offset="0"
         id="stop2530" />
      <stop
         style="stop-color:#75507b;stop-opacity:1"
         offset="1"
         id="stop2532" />
    </linearGradient>
    <inkscape:perspective
       sodipodi:type="inkscape:persp3d"
       inkscape:vp_x="0 : 526.18109 : 1"
       inkscape:vp_y="0 : 1000 : 0"
       inkscape:vp_z="744.09448 : 526.18109 : 1"
       inkscape:persp3d-origin="372.04724 : 350.78739 : 1"
       id="perspective10" />
    <linearGradient
       inkscape:collect="always"
       xlink:href="#linearGradient2528"
       id="linearGradient2538"
       gradientUnits="userSpaceOnUse"
       gradientTransform="matrix(0.8335733,0,0,0.8335733,4.0222393,4.1945916)"
       x1="-0.062015504"
       y1="0.18604651"
       x2="3.7829456"
       y2="47.937984" />
    <linearGradient
       inkscape:collect="always"
       xlink:href="#linearGradient3334"
       id="linearGradient3340"
       x1="10.48062"
       y1="3"
       x2="28.961241"
       y2="28.83721"
       gradientUnits="userSpaceOnUse"
       gradientTransform="matrix(1.0851654,0,0,1.0851654,-2.0463567,-2.4481266)" />
    <linearGradient
       inkscape:collect="always"
       xlink:href="#linearGradient3366"
       id="linearGradient3372"
       x1="1.1162791"
       y1="0.24806204"
       x2="5.2093024"
       y2="47.881638"
       gradientUnits="userSpaceOnUse" />
  </defs>
  <sodipodi:namedview
     id="base"
     pagecolor="#ffffff"
     bordercolor="#666666"
     borderopacity="1.0"
     inkscape:pageopacity="0.0"
     inkscape:pageshadow="2"
     inkscape:zoom="8.0625"
     inkscape:cx="11.59524"
     inkscape:cy="24.2386"
     inkscape:document-units="px"
     inkscape:current-layer="layer1"
     showgrid="true"
     inkscape:window-width="1280"
     inkscape:window-height="955"
     inkscape:window-x="0"
     inkscape:window-y="25">
    <inkscape:grid
       type="xygrid"
       id="grid2383"
       visible="true"
       enabled="true" />
  </sodipodi:namedview>
  <metadata
     id="metadata7">
    <rdf:RDF>
      <cc:Work
         rdf:about="">
        <dc:format>image/svg+xml</dc:format>
        <dc:type
           rdf:resource="http://purl.org/dc/dcmitype/StillImage" />
      </cc:Work>
    </rdf:RDF>
  </metadata>
  <g
     inkscape:label="Ebene 1"
     inkscape:groupmode="layer"
     id="layer1">
    <path
       style="fill:url(#linearGradient3372);fill-opacity:1;fill-rule:nonzero;stroke:#204a87;stroke-width:0.99999994000000003;stroke-linecap:butt;stroke-linejoin:miter;marker:none;stroke-miterlimit:4;stroke-dasharray:none;stroke-dashoffset:0;stroke-opacity:1;visibility:visible;display:inline;overflow:visible"
       d="M 19.522432,0.62717501 L 19.522432,0.67435049 L 19.475256,8.5532708 C 18.39575,8.8745709 17.334991,9.2972677 16.361436,9.8271018 L 16.314259,9.8271018 L 10.747128,4.3071364 L 10.699947,4.2599609 L 4.2835938,10.67633 L 4.3307717,10.723505 L 9.8507248,16.290621 C 9.308172,17.279825 8.8580139,18.305855 8.5297101,19.404454 L 0.74516233,19.451629 L 0.65080465,19.451629 L 0.65080465,28.510006 L 0.74516233,28.510006 L 8.5297101,28.557182 C 8.8532522,29.651039 9.2669662,30.733263 9.8035448,31.718188 L 4.3307717,37.285308 L 4.2835938,37.332483 L 10.699947,43.748849 L 10.747128,43.701675 L 16.314259,38.228885 C 17.299179,38.765477 18.3814,39.179178 19.475256,39.502737 L 19.522432,47.287263 L 19.522432,47.381636 L 28.580817,47.381636 L 28.580817,47.287263 L 28.627995,39.502737 C 29.726595,39.174414 30.752622,38.724262 31.741815,38.18171 L 37.308944,43.701675 L 37.356123,43.748849 L 43.77248,37.332483 L 43.725301,37.285308 L 38.205348,31.718188 L 38.205348,31.670992 C 38.735169,30.697455 39.157882,29.63668 39.479183,28.557182 L 47.358089,28.510006 L 47.405267,28.510006 L 47.405267,19.451629 L 47.358089,19.451629 L 39.479183,19.404454 C 39.155376,18.327436 38.736171,17.309915 38.205348,16.337798 L 43.725301,10.723505 L 43.77248,10.67633 L 37.356123,4.2599609 L 37.308944,4.3071364 L 31.694639,9.8271018 C 30.722523,9.2962704 29.705007,8.8770744 28.627995,8.5532708 L 28.580817,0.67435049 L 28.580817,0.62717501 L 19.522432,0.62717501 z M 24.051625,16.620872 C 28.123031,16.620872 31.411563,19.956578 31.411563,24.027992 C 31.411563,28.099407 28.123031,31.387915 24.051625,31.387915 C 19.980221,31.387915 16.644509,28.099407 16.644509,24.027992 C 16.644509,23.773524 16.666266,23.521204 16.69169,23.27314 C 17.073072,19.551918 20.234687,16.620872 24.051625,16.620872 z"
       id="path3296" />
    <path
       style="opacity:0.63940519;fill:url(#linearGradient3340);fill-opacity:1;fill-rule:nonzero;stroke:none;stroke-width:0.99999994;stroke-linecap:butt;stroke-linejoin:miter;marker:none;stroke-miterlimit:4;stroke-dasharray:none;stroke-dashoffset:0;stroke-opacity:1;visibility:visible;display:inline;overflow:visible"
       d="M 20.126979,1.1428034 L 20.02577,9.0102528 C 18.946265,9.3315529 17.139206,10.044024 16.165651,10.573858 L 10.603653,5.0405133 L 4.9680492,10.74289 L 10.462225,16.102996 C 9.9196726,17.092199 9.400686,18.763307 9.0723823,19.861906 L 1.1381621,19.997026 L 1.1376363,27.907323 L 9.0050857,27.936504 C 9.2948032,28.916002 9.7702522,30.390979 10.224845,31.294785 C 12.981205,30.717235 14.85726,29.610956 17.185097,28.069521 C 16.214478,26.735249 16.413748,24.831879 16.168281,23.256728 C 16.549662,19.535506 20.180673,15.93712 23.997612,15.93712 C 26.016352,15.93712 28.2281,17.048678 29.556456,18.371907 C 33.08587,14.011129 37.329148,11.583063 43.16177,10.809661 L 37.358711,5.0066019 L 31.762801,10.573858 C 30.790684,10.043026 29.182111,9.4013526 28.1051,9.0775493 L 27.902683,1.1428034 L 20.126979,1.1428034 z"
       id="path2541"
       sodipodi:nodetypes="cccccccccccccsccccccc" />
    <path
       style="opacity:0.55390332;fill:none;fill-opacity:1;fill-rule:nonzero;stroke:#ffffff;stroke-width:0.99999982;stroke-linecap:butt;stroke-linejoin:miter;marker:none;stroke-miterlimit:4;stroke-dasharray:none;stroke-dashoffset:0;stroke-opacity:1;visibility:visible;display:inline;overflow:visible"
       d="M 20.67129,1.7805742 L 20.628392,9.3487784 C 19.64678,9.6409417 16.932491,10.765574 16.047223,11.247361 L 10.672858,5.7568927 L 5.8049249,10.740931 L 11.069092,15.999684 C 10.575742,16.899183 9.6953264,19.428301 9.3967942,20.427273 L 1.7798104,20.470171 L 1.6940095,27.428446 L 9.3294965,27.336749 C 9.623699,28.331409 10.672868,30.99792 11.160786,31.893527 L 5.9151215,37.426873 L 10.76455,42.16022 L 16.004324,36.804347 C 16.899927,37.292277 19.566434,38.274137 20.561094,38.568353 L 20.67129,46.185318 L 27.562274,46.069242 L 27.537878,38.568353 C 28.536851,38.269803 31.017667,37.322097 31.917155,36.828746 L 37.248619,42.319214 L 42.116553,37.267881 L 37.121573,32.028121 C 37.121573,32.028121 38.492183,28.625519 38.683674,27.404045 L 46.251864,27.428446 L 46.227467,20.537467 L 38.683674,20.49457 C 38.38923,19.51522 37.33507,16.974842 36.852384,16.090883 L 42.208246,10.716533 L 37.291519,5.8485895 L 31.874256,11.180065 C 30.990297,10.697371 28.449923,9.6432169 27.470579,9.3487784 L 27.494978,1.7132771 L 20.67129,1.7805742 z M 24.049485,15.540722 C 28.491944,15.608019 32.117394,18.71742 32.424416,23.756664 C 32.65623,27.561514 29.811617,32.432791 24.18408,32.535364 C 18.665786,32.635944 15.631654,28.401023 15.631654,23.891258 C 15.734215,18.299549 20.279507,15.750135 24.049485,15.540722 z"
       id="path3342"
       sodipodi:nodetypes="ccccccccccccccccccccccccccccccccccsscc" />
  </g>
</svg>
