<?xml version="1.0" encoding="UTF-8" standalone="no"?>
<!-- Created with Inkscape (http://www.inkscape.org/) -->
<svg
   xmlns:dc="http://purl.org/dc/elements/1.1/"
   xmlns:cc="http://web.resource.org/cc/"
   xmlns:rdf="http://www.w3.org/1999/02/22-rdf-syntax-ns#"
   xmlns:svg="http://www.w3.org/2000/svg"
   xmlns="http://www.w3.org/2000/svg"
   xmlns:xlink="http://www.w3.org/1999/xlink"
   xmlns:sodipodi="http://sodipodi.sourceforge.net/DTD/sodipodi-0.dtd"
   xmlns:inkscape="http://www.inkscape.org/namespaces/inkscape"
   width="16"
   height="16"
   id="svg1927"
   sodipodi:version="0.32"
   inkscape:version="0.44.1"
   version="1.0"
   sodipodi:docbase="/home/lse/public_html/Chimera/System/Icons/scalable/apps"
   sodipodi:docname="extra-small-template-editor.svg">
  <defs
     id="defs1929">
    <linearGradient
       inkscape:collect="always"
       id="linearGradient3361">
      <stop
         style="stop-color:#ffffff;stop-opacity:1;"
         offset="0"
         id="stop3363" />
      <stop
         style="stop-color:#ffffff;stop-opacity:0;"
         offset="1"
         id="stop3365" />
    </linearGradient>
    <linearGradient
       inkscape:collect="always"
       xlink:href="#linearGradient3361"
       id="linearGradient3401"
       gradientUnits="userSpaceOnUse"
       x1="23.892857"
       y1="3.0357144"
       x2="23.892857"
       y2="22.194689"
       gradientTransform="matrix(1.007472,0,0,1.016905,-19.2578,-4.658074)" />
  </defs>
  <sodipodi:namedview
     id="base"
     pagecolor="#ffffff"
     bordercolor="#666666"
     borderopacity="1.0"
     inkscape:pageopacity="0.0"
     inkscape:pageshadow="2"
     inkscape:zoom="23.6875"
     inkscape:cx="8"
     inkscape:cy="8.1385963"
     inkscape:document-units="px"
     inkscape:current-layer="layer1"
     width="16px"
     height="16px"
     showgrid="true"
     inkscape:window-width="927"
     inkscape:window-height="578"
     inkscape:window-x="8"
     inkscape:window-y="67" />
  <metadata
     id="metadata1932">
    <rdf:RDF>
      <cc:Work
         rdf:about="">
        <dc:format>image/svg+xml</dc:format>
        <dc:type
           rdf:resource="http://purl.org/dc/dcmitype/StillImage" />
      </cc:Work>
    </rdf:RDF>
  </metadata>
  <g
     inkscape:label="Ebene 1"
     inkscape:groupmode="layer"
     id="layer1">
    <path
       style="color:black;fill:#edd400;fill-opacity:1;fill-rule:nonzero;stroke:#c4a000;stroke-width:0.99999994;stroke-linecap:round;stroke-linejoin:round;marker:none;marker-start:none;marker-mid:none;marker-end:none;stroke-miterlimit:4;stroke-dasharray:none;stroke-dashoffset:0;stroke-opacity:1;visibility:visible;display:inline;overflow:visible"
       d="M 13.207043,8.2077515 C 14.215273,8.173077 15.499992,9.3144959 15.499992,10.626871 C 15.499993,11.939246 14.507655,13.495402 13.089723,13.007469 C 12.460825,12.791054 12.740221,12.953252 11.389227,12.313438 C 10.048649,11.678558 10.154519,13.892099 10.154519,15.500006 L 0.54301578,15.500006 L 0.49999975,12.098377 C 0.49999975,12.098377 1.6875947,12.768857 2.6662842,12.789693 C 3.6449737,12.81053 4.5805998,12.23055 4.6107655,10.786979 C 4.6409312,9.3434086 4.1864132,8.614845 2.7341697,8.5135734 C 1.3247355,8.4152865 0.54301578,9.4993266 0.54301578,9.4993266 L 0.54301578,5.8806014 C 0.54301578,5.8806014 2.0691706,5.988377 2.9458919,5.8806014 C 3.8159034,5.7736494 3.9152029,4.9837939 3.478221,4.5522418 C 3.0412401,4.1206897 2.7684489,3.5293245 2.7684489,2.8731361 C 2.7684489,1.6216372 3.8090889,0.50088756 5.0862993,0.50000112 C 6.3590014,0.49911784 7.5889877,1.5607612 7.5889877,2.8731361 C 7.5889867,3.5293245 7.076258,3.9604264 6.8792146,4.5522418 C 6.6821712,5.1440571 7.1547008,5.8178268 7.7516431,5.8806014 C 8.3421113,5.9426946 10.154519,5.8806014 10.154519,5.8806014 C 10.02122,7.2290652 10.107656,8.6116519 10.736312,9.0803393 C 11.350655,9.5383554 12.186453,8.242852 13.207043,8.2077515 z "
       id="rect1315"
       sodipodi:nodetypes="csszccczzzccssszsssczz"
       inkscape:export-filename="/home/lse/public_html/Bambus/System/Applications/ATPLEditor.bap/Icon.png"
       inkscape:export-xdpi="33"
       inkscape:export-ydpi="33" />
    <path
       style="opacity:0.7;color:black;fill:url(#linearGradient3401);fill-opacity:1;fill-rule:nonzero;stroke:#c4a000;stroke-width:0.99999994;stroke-linecap:round;stroke-linejoin:round;marker:none;marker-start:none;marker-mid:none;marker-end:none;stroke-miterlimit:4;stroke-dasharray:none;stroke-dashoffset:0;stroke-opacity:1;visibility:visible;display:inline;overflow:visible"
       d="M 13.207043,8.2077515 C 14.215273,8.173077 15.499992,9.3144959 15.499992,10.626871 C 15.499993,11.939246 14.507655,13.495402 13.089723,13.007469 C 12.460825,12.791054 12.740221,12.953252 11.389227,12.313438 C 10.048649,11.678558 10.154519,13.892099 10.154519,15.500006 L 0.54301578,15.500006 L 0.49999975,12.098377 C 0.49999975,12.098377 1.6875947,12.768857 2.6662842,12.789693 C 3.6449737,12.81053 4.5805998,12.23055 4.6107655,10.786979 C 4.6409312,9.3434086 4.1864132,8.614845 2.7341697,8.5135734 C 1.3247355,8.4152865 0.54301578,9.4993266 0.54301578,9.4993266 L 0.54301578,5.8806014 C 0.54301578,5.8806014 2.0691706,5.988377 2.9458919,5.8806014 C 3.8159034,5.7736494 3.9152029,4.9837939 3.478221,4.5522418 C 3.0412401,4.1206897 2.7684489,3.5293245 2.7684489,2.8731361 C 2.7684489,1.6216372 3.8090889,0.50088756 5.0862993,0.50000112 C 6.3590014,0.49911784 7.5889877,1.5607612 7.5889877,2.8731361 C 7.5889867,3.5293245 7.076258,3.9604264 6.8792146,4.5522418 C 6.6821712,5.1440571 7.1547008,5.8178268 7.7516431,5.8806014 C 8.3421113,5.9426946 10.154519,5.8806014 10.154519,5.8806014 C 10.02122,7.2290652 10.107656,8.6116519 10.736312,9.0803393 C 11.350655,9.5383554 12.186453,8.242852 13.207043,8.2077515 z "
       id="path3359"
       sodipodi:nodetypes="csszccczzzccssszsssczz"
       inkscape:export-filename="/home/lse/public_html/Bambus/System/Applications/ATPLEditor.bap/Icon.png"
       inkscape:export-xdpi="33"
       inkscape:export-ydpi="33" />
    <path
       style="opacity:0.5;color:black;fill:none;fill-opacity:1;fill-rule:nonzero;stroke:#eeeeec;stroke-width:0.99999994;stroke-linecap:round;stroke-linejoin:miter;marker:none;marker-start:none;marker-mid:none;marker-end:none;stroke-miterlimit:4;stroke-dasharray:none;stroke-dashoffset:0;stroke-opacity:1;visibility:visible;display:inline;overflow:visible"
       d="M 12.733863,9.4557827 C 13.362961,8.9457916 14.416193,9.288815 14.416193,10.60119 C 14.416194,11.913565 14.110803,12.324413 12.692872,11.836479 C 12.063974,11.620064 11.319095,11.020088 10.381755,11.296533 C 9.4745522,11.564089 9.1470472,12.875194 9.1470472,14.483101 L 1.5504878,14.483101 L 1.6092415,13.654577 C 1.6092415,13.654577 3.1784739,13.862804 3.9281811,13.626833 C 4.702796,13.383023 5.5880718,12.23055 5.6182375,10.786979 C 5.6484032,9.3434086 5.0921155,8.0345125 3.6653146,7.6507529 C 2.2319862,7.2652386 1.5759305,7.6606383 1.5759305,7.6606383 L 1.5504878,7.000229 C 1.5504878,7.000229 3.1805745,7.0643978 3.9279212,6.5893384 C 4.8233753,6.0201329 4.7954623,5.3433237 4.6637908,4.6806453 C 4.5435742,4.0756174 3.7759209,3.5293245 3.7759209,2.8731361 C 3.7759209,1.6216372 4.807146,1.4897602 5.0862993,1.5169061 C 5.3413006,1.5417036 6.5815208,1.5607612 6.5815157,2.8731361 C 6.5815147,3.0927522 6.068786,3.9604264 5.8717426,4.5522418 C 5.6746992,5.1440571 6.3468231,6.3982325 6.8968263,6.6406992 C 7.6129142,6.9563831 9.1481181,6.8996693 9.1470472,6.8975064 C 9.0137476,8.2459698 9.4546234,9.4832961 10.186806,9.9688406 C 10.877475,10.426857 12.120354,9.9531365 12.733863,9.4557827 z "
       id="path3357"
       sodipodi:nodetypes="csszccczzzccssszsssczz"
       inkscape:export-filename="/home/lse/public_html/Bambus/System/Applications/ATPLEditor.bap/Icon.png"
       inkscape:export-xdpi="33"
       inkscape:export-ydpi="33" />
  </g>
</svg>
