<?xml version="1.0" encoding="UTF-8" standalone="no"?>
<!-- Created with Inkscape (http://www.inkscape.org/) -->
<svg
   xmlns:dc="http://purl.org/dc/elements/1.1/"
   xmlns:cc="http://web.resource.org/cc/"
   xmlns:rdf="http://www.w3.org/1999/02/22-rdf-syntax-ns#"
   xmlns:svg="http://www.w3.org/2000/svg"
   xmlns="http://www.w3.org/2000/svg"
   xmlns:xlink="http://www.w3.org/1999/xlink"
   xmlns:sodipodi="http://sodipodi.sourceforge.net/DTD/sodipodi-0.dtd"
   xmlns:inkscape="http://www.inkscape.org/namespaces/inkscape"
   width="16"
   height="16"
   id="svg2"
   sodipodi:version="0.32"
   inkscape:version="0.45"
   version="1.0"
   sodipodi:docbase="/home/lse/public_html/Bambus/System/Icons/scalable/mimetypes"
   sodipodi:docname="extra-small-administrator.svg"
   inkscape:output_extension="org.inkscape.output.svg.inkscape"
   sodipodi:modified="true">
  <defs
     id="defs4">
    <linearGradient
       inkscape:collect="always"
       id="linearGradient3148">
      <stop
         style="stop-color:#ffffff;stop-opacity:1;"
         offset="0"
         id="stop3150" />
      <stop
         style="stop-color:#ffffff;stop-opacity:0;"
         offset="1"
         id="stop3152" />
    </linearGradient>
    <linearGradient
       inkscape:collect="always"
       xlink:href="#linearGradient3148"
       id="linearGradient3161"
       gradientUnits="userSpaceOnUse"
       x1="20.830189"
       y1="-5.9514823"
       x2="20.830189"
       y2="49.682541" />
  </defs>
  <sodipodi:namedview
     id="base"
     pagecolor="#ffffff"
     bordercolor="#666666"
     borderopacity="1.0"
     inkscape:pageopacity="0.0"
     inkscape:pageshadow="2"
     inkscape:zoom="33.727273"
     inkscape:cx="8.0053908"
     inkscape:cy="5.4851752"
     inkscape:document-units="px"
     inkscape:current-layer="layer1"
     width="16px"
     height="16px"
     inkscape:window-width="1272"
     inkscape:window-height="949"
     inkscape:window-x="0"
     inkscape:window-y="24" />
  <metadata
     id="metadata7">
    <rdf:RDF>
      <cc:Work
         rdf:about="">
        <dc:format>image/svg+xml</dc:format>
        <dc:type
           rdf:resource="http://purl.org/dc/dcmitype/StillImage" />
      </cc:Work>
    </rdf:RDF>
  </metadata>
  <g
     inkscape:label="Ebene 1"
     inkscape:groupmode="layer"
     id="layer1">
    <g
       id="g3156"
       transform="matrix(0.3167681,0,0,0.3167681,0.3975656,0.4535152)">
      <path
         sodipodi:nodetypes="czcczcccczcczzzzz"
         id="path2160"
         d="M 12.765625,10.406251 C 11.369141,17.71875 12.251895,19.655071 12.765625,22.65625 C 13.283485,25.681558 16.890625,29.65625 16.890625,29.65625 L 16.890625,32.5 C 16.890625,32.5 12.742187,32.5 8.5937498,32.5 C 4.4453128,32.5 0.29687482,40.5 0.29687482,40.5 L 0.29687482,47.5 L 47.703125,47.5 L 47.703125,40.5 C 47.703125,40.5 43.523437,32.5 39.34375,32.5 C 35.164063,32.5 30.984375,32.5 30.984375,32.5 L 30.984375,29.65625 C 30.984375,29.65625 34.466265,26.045569 35.109375,22.65625 C 35.780952,19.116904 36.505859,17.71875 35.109375,10.406251 C 33.712891,3.0937506 31.361253,2.4180236 29.523437,1.4062506 C 27.63471,0.36644938 20.240937,0.3252356 18.351563,1.4062506 C 16.560484,2.4310257 14.162109,3.0937506 12.765625,10.406251 z "
         style="fill:#75507b;fill-rule:evenodd;stroke:#5c3566;stroke-width:3.15688372px;stroke-linecap:butt;stroke-linejoin:miter;stroke-opacity:1" />
      <path
         sodipodi:nodetypes="czcczcccczcczzzzz"
         id="path3146"
         d="M 12.765625,10.406251 C 11.369141,17.71875 12.251895,19.655071 12.765625,22.65625 C 13.283485,25.681558 16.890625,29.65625 16.890625,29.65625 L 16.890625,32.5 C 16.890625,32.5 12.742187,32.5 8.5937498,32.5 C 4.4453128,32.5 0.29687482,40.5 0.29687482,40.5 L 0.29687482,47.5 L 47.703125,47.5 L 47.703125,40.5 C 47.703125,40.5 43.523437,32.5 39.34375,32.5 C 35.164063,32.5 30.984375,32.5 30.984375,32.5 L 30.984375,29.65625 C 30.984375,29.65625 34.466265,26.045569 35.109375,22.65625 C 35.780952,19.116904 36.505859,17.71875 35.109375,10.406251 C 33.712891,3.0937506 31.361253,2.4180236 29.523437,1.4062506 C 27.63471,0.36644938 20.240937,0.3252356 18.351563,1.4062506 C 16.560484,2.4310257 14.162109,3.0937506 12.765625,10.406251 z "
         style="opacity:0.7;fill:url(#linearGradient3161);fill-opacity:1;fill-rule:evenodd;stroke:#5c3566;stroke-width:3.15688372px;stroke-linecap:butt;stroke-linejoin:miter;stroke-opacity:1" />
      <path
         sodipodi:nodetypes="czcczcccczcczzzzz"
         id="path2173"
         d="M 15.8734,11.02149 C 15.039082,15.25567 14.75393,18.153625 15.811871,21.770926 C 16.843121,25.296967 19.944975,28.226636 19.944975,28.226636 L 20.030471,35.559708 C 20.030471,35.559708 13.223305,35.613134 9.6099685,35.613134 C 6.0635201,35.613134 3.5036084,41.218374 3.5036084,41.218374 L 3.4955042,44.461859 L 44.35747,44.306728 L 44.376078,41.378651 C 44.376078,41.378651 42.081368,35.663812 38.904995,35.797587 C 35.661735,35.931363 27.938129,35.797587 27.938129,35.797587 L 27.49684,28.657075 C 27.49684,28.657075 30.510375,25.583261 31.8385,22.156178 C 33.200029,18.642899 33.194485,15.30072 32.164834,11.173873 C 31.104767,6.9251206 30.521384,5.490982 28.683568,4.479209 C 26.794841,3.4394078 21.225296,3.3900898 19.335922,4.4711048 C 17.544843,5.4958799 16.688542,6.8846262 15.8734,11.02149 z "
         style="opacity:0.5;fill:none;fill-rule:evenodd;stroke:#eeeeec;stroke-width:3.15688372px;stroke-linecap:butt;stroke-linejoin:miter;stroke-opacity:1" />
    </g>
  </g>
</svg>
