<?xml version="1.0" encoding="UTF-8" standalone="no"?>
<!-- Created with Inkscape (http://www.inkscape.org/) -->
<svg
   xmlns:dc="http://purl.org/dc/elements/1.1/"
   xmlns:cc="http://web.resource.org/cc/"
   xmlns:rdf="http://www.w3.org/1999/02/22-rdf-syntax-ns#"
   xmlns:svg="http://www.w3.org/2000/svg"
   xmlns="http://www.w3.org/2000/svg"
   xmlns:xlink="http://www.w3.org/1999/xlink"
   xmlns:sodipodi="http://sodipodi.sourceforge.net/DTD/sodipodi-0.dtd"
   xmlns:inkscape="http://www.inkscape.org/namespaces/inkscape"
   width="16"
   height="16"
   id="svg3267"
   sodipodi:version="0.32"
   inkscape:version="0.44.1"
   inkscape:export-filename="/home/lse/public_html/Bambus/System/Applications/Backup.bap/Icon.png"
   inkscape:export-xdpi="33.75"
   inkscape:export-ydpi="33.75"
   sodipodi:docbase="/home/lse/public_html/Chimera/System/Icons/scalable/apps"
   sodipodi:docname="extra-small-file-exchange-administration.svg"
   version="1.0">
  <defs
     id="defs3269">
    <linearGradient
       inkscape:collect="always"
       id="linearGradient2451">
      <stop
         style="stop-color:#eeeeec;stop-opacity:1;"
         offset="0"
         id="stop2453" />
      <stop
         style="stop-color:#eeeeec;stop-opacity:0;"
         offset="1"
         id="stop2455" />
    </linearGradient>
    <linearGradient
       inkscape:collect="always"
       id="linearGradient2304">
      <stop
         style="stop-color:#729fcf;stop-opacity:1"
         offset="0"
         id="stop2306" />
      <stop
         style="stop-color:#edd400;stop-opacity:0;"
         offset="1"
         id="stop2308" />
    </linearGradient>
    <linearGradient
       y2="127.76817"
       x2="36.512424"
       y1="3.8316412"
       x1="35.483906"
       gradientTransform="matrix(0.51156,0,0,0.51156,-1.450031e-6,3.831829)"
       gradientUnits="userSpaceOnUse"
       id="linearGradient2941"
       xlink:href="#linearGradient2891"
       inkscape:collect="always" />
    <linearGradient
       y2="124.19548"
       x2="32.398346"
       y1="2.2888627"
       x1="32.398346"
       gradientTransform="matrix(0.51156,0,0,0.51156,-5.596973e-6,3.831829)"
       gradientUnits="userSpaceOnUse"
       id="linearGradient2938"
       xlink:href="#linearGradient2901"
       inkscape:collect="always" />
    <linearGradient
       y2="124.19548"
       x2="32.398346"
       y1="2.2888627"
       x1="32.398346"
       gradientTransform="matrix(0.507186,0,0,0.507186,0,4.197216)"
       gradientUnits="userSpaceOnUse"
       id="linearGradient2935"
       xlink:href="#linearGradient2901"
       inkscape:collect="always" />
    <linearGradient
       y2="127.76817"
       x2="36.512424"
       y1="3.8316412"
       x1="35.483906"
       gradientTransform="matrix(0.507186,0,0,0.507186,4.11148e-6,4.197216)"
       gradientUnits="userSpaceOnUse"
       id="linearGradient2933"
       xlink:href="#linearGradient2891"
       inkscape:collect="always" />
    <linearGradient
       y2="127.76817"
       x2="36.512424"
       y1="3.8316412"
       x1="35.483906"
       gradientTransform="matrix(0.507186,0,0,0.507186,4.11148e-6,4.197216)"
       gradientUnits="userSpaceOnUse"
       id="linearGradient2923"
       xlink:href="#linearGradient2891"
       inkscape:collect="always" />
    <linearGradient
       y2="124.19548"
       x2="32.398346"
       y1="2.2888627"
       x1="32.398346"
       gradientTransform="matrix(0.507186,0,0,0.507186,0,4.197216)"
       gradientUnits="userSpaceOnUse"
       id="linearGradient2920"
       xlink:href="#linearGradient2901"
       inkscape:collect="always" />
    <linearGradient
       gradientTransform="translate(-12.08682,9.398878)"
       y2="124.19548"
       x2="32.398346"
       y1="2.2888627"
       x1="32.398346"
       gradientUnits="userSpaceOnUse"
       id="linearGradient2917"
       xlink:href="#linearGradient2901"
       inkscape:collect="always" />
    <linearGradient
       gradientTransform="translate(-12.08682,9.398878)"
       y2="127.76817"
       x2="36.512424"
       y1="3.8316412"
       x1="35.483906"
       gradientUnits="userSpaceOnUse"
       id="linearGradient2915"
       xlink:href="#linearGradient2891"
       inkscape:collect="always" />
    <linearGradient
       gradientUnits="userSpaceOnUse"
       y2="124.19548"
       x2="32.398346"
       y1="2.2888627"
       x1="32.398346"
       id="linearGradient2907"
       xlink:href="#linearGradient2901"
       inkscape:collect="always" />
    <linearGradient
       gradientUnits="userSpaceOnUse"
       y2="127.76817"
       x2="36.512424"
       y1="3.8316412"
       x1="35.483906"
       id="linearGradient2897"
       xlink:href="#linearGradient2891"
       inkscape:collect="always" />
    <linearGradient
       y2="64.245941"
       x2="29.09091"
       y1="-0.18181819"
       x1="29.09091"
       gradientTransform="translate(8.30816e-6,2.622272e-6)"
       gradientUnits="userSpaceOnUse"
       id="linearGradient2826"
       xlink:href="#linearGradient2774"
       inkscape:collect="always" />
    <linearGradient
       gradientTransform="matrix(1.01645,0,0,1.01645,32.88876,-4.909208)"
       y2="64.245941"
       x2="29.09091"
       y1="-0.18181819"
       x1="29.09091"
       gradientUnits="userSpaceOnUse"
       id="linearGradient2808"
       xlink:href="#linearGradient2774"
       inkscape:collect="always" />
    <linearGradient
       id="linearGradient2774"
       inkscape:collect="always">
      <stop
         id="stop2776"
         offset="0"
         style="stop-color:white;stop-opacity:1;" />
      <stop
         id="stop2778"
         offset="1"
         style="stop-color:white;stop-opacity:0;" />
    </linearGradient>
    <linearGradient
       id="linearGradient2891"
       inkscape:collect="always">
      <stop
         id="stop2893"
         offset="0"
         style="stop-color:#fce94f;stop-opacity:1;" />
      <stop
         id="stop2895"
         offset="1"
         style="stop-color:#fce94f;stop-opacity:0;" />
    </linearGradient>
    <linearGradient
       id="linearGradient2901"
       inkscape:collect="always">
      <stop
         id="stop2903"
         offset="0"
         style="stop-color:#edd400;stop-opacity:1;" />
      <stop
         id="stop2905"
         offset="1"
         style="stop-color:#edd400;stop-opacity:0;" />
    </linearGradient>
    <linearGradient
       inkscape:collect="always"
       xlink:href="#linearGradient2891"
       id="linearGradient3342"
       gradientUnits="userSpaceOnUse"
       gradientTransform="matrix(0.51156,0,0,0.51156,-1.450031e-6,3.831829)"
       x1="35.483906"
       y1="3.8316412"
       x2="36.512424"
       y2="127.76817" />
    <linearGradient
       inkscape:collect="always"
       xlink:href="#linearGradient2901"
       id="linearGradient3344"
       gradientUnits="userSpaceOnUse"
       gradientTransform="matrix(0.51156,0,0,0.51156,-5.596973e-6,3.831829)"
       x1="32.398346"
       y1="2.2888627"
       x2="32.398346"
       y2="124.19548" />
    <linearGradient
       inkscape:collect="always"
       xlink:href="#linearGradient2891"
       id="linearGradient3356"
       gradientUnits="userSpaceOnUse"
       gradientTransform="matrix(0.51156,0,0,0.51156,-1.450031e-6,3.831829)"
       x1="35.483906"
       y1="3.8316412"
       x2="36.512424"
       y2="127.76817" />
    <linearGradient
       inkscape:collect="always"
       xlink:href="#linearGradient2901"
       id="linearGradient3358"
       gradientUnits="userSpaceOnUse"
       gradientTransform="matrix(0.51156,0,0,0.51156,-5.596973e-6,3.831829)"
       x1="32.398346"
       y1="2.2888627"
       x2="32.398346"
       y2="124.19548" />
    <linearGradient
       inkscape:collect="always"
       xlink:href="#linearGradient2891"
       id="linearGradient3384"
       gradientUnits="userSpaceOnUse"
       gradientTransform="matrix(0.51156,0,0,0.51156,3.581465,7.413295)"
       x1="35.483906"
       y1="3.8316412"
       x2="36.512424"
       y2="127.76817" />
    <linearGradient
       inkscape:collect="always"
       xlink:href="#linearGradient2901"
       id="linearGradient3386"
       gradientUnits="userSpaceOnUse"
       gradientTransform="matrix(0.51156,0,0,0.51156,3.581461,7.413295)"
       x1="32.398346"
       y1="2.2888627"
       x2="32.398346"
       y2="124.19548" />
    <linearGradient
       inkscape:collect="always"
       xlink:href="#linearGradient2891"
       id="linearGradient3388"
       gradientUnits="userSpaceOnUse"
       gradientTransform="matrix(0.51156,0,0,0.51156,-3.581468,7.413295)"
       x1="35.483906"
       y1="3.8316412"
       x2="36.512424"
       y2="127.76817" />
    <linearGradient
       inkscape:collect="always"
       xlink:href="#linearGradient2901"
       id="linearGradient3390"
       gradientUnits="userSpaceOnUse"
       gradientTransform="matrix(0.51156,0,0,0.51156,-3.581472,7.413295)"
       x1="32.398346"
       y1="2.2888627"
       x2="32.398346"
       y2="124.19548" />
    <linearGradient
       inkscape:collect="always"
       xlink:href="#linearGradient2304"
       id="linearGradient2445"
       gradientUnits="userSpaceOnUse"
       gradientTransform="matrix(0.481977,0,0,0.494915,-5.976531,0.301946)"
       x1="32.398346"
       y1="2.2888627"
       x2="32.398346"
       y2="124.19548" />
    <linearGradient
       inkscape:collect="always"
       xlink:href="#linearGradient2304"
       id="linearGradient2447"
       gradientUnits="userSpaceOnUse"
       gradientTransform="matrix(0.481977,0,0,0.494915,-5.976531,0.301946)"
       x1="32.398346"
       y1="2.2888627"
       x2="32.398346"
       y2="124.19548" />
    <linearGradient
       inkscape:collect="always"
       xlink:href="#linearGradient2304"
       id="linearGradient2449"
       gradientUnits="userSpaceOnUse"
       gradientTransform="matrix(0.481977,0,0,0.494915,-5.976531,0.301946)"
       x1="32.398346"
       y1="2.2888627"
       x2="32.398346"
       y2="124.19548" />
    <linearGradient
       inkscape:collect="always"
       xlink:href="#linearGradient2451"
       id="linearGradient2457"
       x1="26.291515"
       y1="-0.46895632"
       x2="25.712975"
       y2="48.192848"
       gradientUnits="userSpaceOnUse" />
    <linearGradient
       inkscape:collect="always"
       xlink:href="#linearGradient2304"
       id="linearGradient3638"
       gradientUnits="userSpaceOnUse"
       gradientTransform="matrix(0.481977,0,0,0.494915,-5.976531,0.301946)"
       x1="32.398346"
       y1="2.2888627"
       x2="32.398346"
       y2="124.19548" />
    <linearGradient
       inkscape:collect="always"
       xlink:href="#linearGradient2304"
       id="linearGradient3640"
       gradientUnits="userSpaceOnUse"
       gradientTransform="matrix(0.481977,0,0,0.494915,-5.976531,0.301946)"
       x1="32.398346"
       y1="2.2888627"
       x2="32.398346"
       y2="124.19548" />
    <linearGradient
       inkscape:collect="always"
       xlink:href="#linearGradient2304"
       id="linearGradient3642"
       gradientUnits="userSpaceOnUse"
       gradientTransform="matrix(0.481977,0,0,0.494915,-5.976531,0.301946)"
       x1="32.398346"
       y1="2.2888627"
       x2="32.398346"
       y2="124.19548" />
    <linearGradient
       inkscape:collect="always"
       xlink:href="#linearGradient2451"
       id="linearGradient3644"
       gradientUnits="userSpaceOnUse"
       x1="26.291515"
       y1="-0.46895632"
       x2="25.712975"
       y2="48.192848" />
  </defs>
  <sodipodi:namedview
     id="base"
     pagecolor="#ffffff"
     bordercolor="#666666"
     borderopacity="1.0"
     inkscape:pageopacity="0.0"
     inkscape:pageshadow="2"
     inkscape:zoom="15.556349"
     inkscape:cx="17.917887"
     inkscape:cy="1.5033036"
     inkscape:current-layer="layer1"
     showgrid="true"
     inkscape:document-units="px"
     inkscape:grid-bbox="true"
     inkscape:window-width="1272"
     inkscape:window-height="945"
     inkscape:window-x="0"
     inkscape:window-y="25"
     width="16px"
     height="16px" />
  <metadata
     id="metadata3272">
    <rdf:RDF>
      <cc:Work
         rdf:about="">
        <dc:format>image/svg+xml</dc:format>
        <dc:type
           rdf:resource="http://purl.org/dc/dcmitype/StillImage" />
      </cc:Work>
    </rdf:RDF>
  </metadata>
  <g
     id="layer1"
     inkscape:label="Layer 1"
     inkscape:groupmode="layer">
    <g
       id="g3613"
       transform="matrix(0.326425,0,0,0.326425,0.208815,0.265968)">
      <g
         transform="translate(-0.159997,0.126633)"
         id="g2422">
        <g
           id="g2226"
           transform="matrix(0.605056,-0.622814,0.622814,0.605056,5.475361,20.05477)">
          <path
             id="path2865"
             d="M 27.186217,0.506654 C 25.756571,0.551545 22.575069,0.866676 19.956553,2.733774 C 16.465199,5.223237 13.404669,11.688651 13.404669,11.688651 L 9.2325512,9.229541 L 12.320221,19.6073 L 22.577306,17.132722 L 18.405187,14.673611 C 18.405187,14.673611 25.320919,1.017271 27.939306,0.506654 C 27.939306,0.506654 27.662765,0.49169 27.186217,0.506654 z "
             style="fill:#204a87;fill-opacity:1;stroke:#204a87;stroke-width:3.52804518;stroke-linejoin:round;stroke-miterlimit:4;stroke-dasharray:none;stroke-opacity:1"
             sodipodi:nodetypes="csccccccc" />
          <path
             id="path2867"
             d="M 29.008695,0.738646 C 26.708373,0.651825 23.496076,6.940556 23.496076,6.940556 C 23.496076,6.940555 31.599324,19.560902 31.599324,19.560902 L 33.933904,13.792043 L 39.913438,14.611746 C 39.91344,14.611746 31.416334,0.829516 29.008695,0.738646 z "
             style="fill:#204a87;fill-opacity:1;stroke:#204a87;stroke-width:3.52804518;stroke-linejoin:round;stroke-miterlimit:4;stroke-dasharray:none;stroke-opacity:1"
             sodipodi:nodetypes="cccccc" />
          <path
             id="path2889"
             d="M 29.008695,0.738646 C 26.708373,0.651825 23.496076,6.940556 23.496076,6.940556 C 23.496076,6.940555 31.599324,19.560902 31.599324,19.560902 L 33.933904,13.792043 L 39.913438,14.611746 C 39.91344,14.611746 31.416334,0.829516 29.008695,0.738646 z "
             style="fill:#3465a4;fill-opacity:1;stroke:#204a87;stroke-width:3.52804518;stroke-linejoin:round;stroke-miterlimit:4;stroke-dasharray:none;stroke-opacity:1"
             sodipodi:nodetypes="cccccc" />
          <path
             id="path2899"
             d="M 27.186217,0.506654 C 25.756571,0.551545 22.575069,0.866676 19.956553,2.733774 C 16.465199,5.223237 13.404669,11.688651 13.404669,11.688651 L 9.2325512,9.229541 L 12.320221,19.6073 L 22.577306,17.132722 L 18.405187,14.673611 C 18.405187,14.673611 25.320919,1.017271 27.939306,0.506654 C 27.939306,0.506654 27.662765,0.49169 27.186217,0.506654 z "
             style="fill:url(#linearGradient3638);fill-opacity:1;stroke:#204a87;stroke-width:3.52804518;stroke-linejoin:round;stroke-miterlimit:4;stroke-dasharray:none;stroke-opacity:1"
             sodipodi:nodetypes="csccccccc" />
          <path
             id="path3236"
             d="M 19.956553,3.9551403 C 16.97649,5.919313 13.790364,13.231429 13.790364,13.231429 L 10.903895,11.415144 L 13.027328,18.385934 L 19.877444,16.682745 L 17.119538,15.123588 C 17.119538,15.123588 22.900658,3.7650793 24.918031,1.8565851 C 21.214268,2.9693653 22.936616,1.9909676 19.956553,3.9551403 z "
             style="opacity:0.5;fill:#204a87;fill-opacity:1;stroke:#eeeeec;stroke-width:3.52804518;stroke-linejoin:miter;stroke-miterlimit:4;stroke-dasharray:none;stroke-opacity:1"
             sodipodi:nodetypes="cccccccz" />
          <path
             id="path3246"
             d="M 24.65349,6.9363926 C 24.65349,6.9363915 31.391735,17.52027 31.391735,17.52027 L 33.17345,12.637037 L 37.857223,13.235327 C 37.857223,13.235327 31.06169,2.0479784 29.137709,1.990547 C 27.29949,1.9356735 24.65349,6.9363926 24.65349,6.9363926 z "
             style="opacity:0.5;fill:none;fill-opacity:1;stroke:#eeeeec;stroke-width:3.52804518;stroke-linejoin:miter;stroke-miterlimit:4;stroke-dasharray:none;stroke-opacity:1"
             sodipodi:nodetypes="ccccsc" />
        </g>
        <g
           id="g2310"
           transform="matrix(-0.865864,-6.53455e-2,6.53455e-2,-0.865864,34.42479,43.50195)">
          <path
             id="path2312"
             d="M 27.186217,0.506654 C 25.756571,0.551545 22.575069,0.866676 19.956553,2.733774 C 16.465199,5.223237 13.404669,11.688651 13.404669,11.688651 L 9.2325512,9.229541 L 12.320221,19.6073 L 22.577306,17.132722 L 18.405187,14.673611 C 18.405187,14.673611 25.320919,1.017271 27.939306,0.506654 C 27.939306,0.506654 27.662765,0.49169 27.186217,0.506654 z "
             style="fill:#204a87;fill-opacity:1;stroke:#204a87;stroke-width:3.52804518;stroke-linejoin:round;stroke-miterlimit:4;stroke-dasharray:none;stroke-opacity:1"
             sodipodi:nodetypes="csccccccc" />
          <path
             id="path2314"
             d="M 29.008695,0.738646 C 26.708373,0.651825 23.496076,6.940556 23.496076,6.940556 C 23.496076,6.940555 31.599324,19.560902 31.599324,19.560902 L 33.933904,13.792043 L 39.913438,14.611746 C 39.91344,14.611746 31.416334,0.829516 29.008695,0.738646 z "
             style="fill:#204a87;fill-opacity:1;stroke:#204a87;stroke-width:3.52804518;stroke-linejoin:round;stroke-miterlimit:4;stroke-dasharray:none;stroke-opacity:1"
             sodipodi:nodetypes="cccccc" />
          <path
             id="path2316"
             d="M 29.008695,0.738646 C 26.708373,0.651825 23.496076,6.940556 23.496076,6.940556 C 23.496076,6.940555 31.599324,19.560902 31.599324,19.560902 L 33.933904,13.792043 L 39.913438,14.611746 C 39.91344,14.611746 31.416334,0.829516 29.008695,0.738646 z "
             style="fill:#3465a4;fill-opacity:1;stroke:#204a87;stroke-width:3.52804518;stroke-linejoin:round;stroke-miterlimit:4;stroke-dasharray:none;stroke-opacity:1"
             sodipodi:nodetypes="cccccc" />
          <path
             id="path2318"
             d="M 27.186217,0.506654 C 25.756571,0.551545 22.575069,0.866676 19.956553,2.733774 C 16.465199,5.223237 13.404669,11.688651 13.404669,11.688651 L 9.2325512,9.229541 L 12.320221,19.6073 L 22.577306,17.132722 L 18.405187,14.673611 C 18.405187,14.673611 25.320919,1.017271 27.939306,0.506654 C 27.939306,0.506654 27.662765,0.49169 27.186217,0.506654 z "
             style="fill:url(#linearGradient3640);fill-opacity:1;stroke:#204a87;stroke-width:3.52804518;stroke-linejoin:round;stroke-miterlimit:4;stroke-dasharray:none;stroke-opacity:1"
             sodipodi:nodetypes="csccccccc" />
          <path
             id="path2320"
             d="M 19.956553,3.9551403 C 16.97649,5.919313 13.790364,13.231429 13.790364,13.231429 L 10.903895,11.415144 L 13.027328,18.385934 L 19.877444,16.682745 L 17.119538,15.123588 C 17.119538,15.123588 22.900658,3.7650793 24.918031,1.8565851 C 21.214268,2.9693653 22.936616,1.9909676 19.956553,3.9551403 z "
             style="opacity:0.5;fill:#204a87;fill-opacity:1;stroke:#eeeeec;stroke-width:3.52804518;stroke-linejoin:miter;stroke-miterlimit:4;stroke-dasharray:none;stroke-opacity:1"
             sodipodi:nodetypes="cccccccz" />
          <path
             id="path2322"
             d="M 24.65349,6.9363926 C 24.65349,6.9363915 31.391735,17.52027 31.391735,17.52027 L 33.17345,12.637037 L 37.857223,13.235327 C 37.857223,13.235327 31.06169,2.0479784 29.137709,1.990547 C 27.29949,1.9356735 24.65349,6.9363926 24.65349,6.9363926 z "
             style="opacity:0.5;fill:none;fill-opacity:1;stroke:#eeeeec;stroke-width:3.52804518;stroke-linejoin:miter;stroke-miterlimit:4;stroke-dasharray:none;stroke-opacity:1"
             sodipodi:nodetypes="ccccsc" />
        </g>
        <g
           id="g2333"
           transform="matrix(0.357703,0.791226,-0.791226,0.357703,37.65226,8.893526)">
          <path
             id="path2335"
             d="M 27.186217,0.506654 C 25.756571,0.551545 22.575069,0.866676 19.956553,2.733774 C 16.465199,5.223237 13.404669,11.688651 13.404669,11.688651 L 9.2325512,9.229541 L 12.320221,19.6073 L 22.577306,17.132722 L 18.405187,14.673611 C 18.405187,14.673611 25.320919,1.017271 27.939306,0.506654 C 27.939306,0.506654 27.662765,0.49169 27.186217,0.506654 z "
             style="fill:#204a87;fill-opacity:1;stroke:#204a87;stroke-width:3.52804518;stroke-linejoin:round;stroke-miterlimit:4;stroke-dasharray:none;stroke-opacity:1"
             sodipodi:nodetypes="csccccccc" />
          <path
             id="path2337"
             d="M 29.008695,0.738646 C 26.708373,0.651825 23.496076,6.940556 23.496076,6.940556 C 23.496076,6.940555 31.599324,19.560902 31.599324,19.560902 L 33.933904,13.792043 L 39.913438,14.611746 C 39.91344,14.611746 31.416334,0.829516 29.008695,0.738646 z "
             style="fill:#204a87;fill-opacity:1;stroke:#204a87;stroke-width:3.52804518;stroke-linejoin:round;stroke-miterlimit:4;stroke-dasharray:none;stroke-opacity:1"
             sodipodi:nodetypes="cccccc" />
          <path
             id="path2339"
             d="M 29.008695,0.738646 C 26.708373,0.651825 23.496076,6.940556 23.496076,6.940556 C 23.496076,6.940555 31.599324,19.560902 31.599324,19.560902 L 33.933904,13.792043 L 39.913438,14.611746 C 39.91344,14.611746 31.416334,0.829516 29.008695,0.738646 z "
             style="fill:#3465a4;fill-opacity:1;stroke:#204a87;stroke-width:3.52804518;stroke-linejoin:round;stroke-miterlimit:4;stroke-dasharray:none;stroke-opacity:1"
             sodipodi:nodetypes="cccccc" />
          <path
             id="path2341"
             d="M 27.186217,0.506654 C 25.756571,0.551545 22.575069,0.866676 19.956553,2.733774 C 16.465199,5.223237 13.404669,11.688651 13.404669,11.688651 L 9.2325512,9.229541 L 12.320221,19.6073 L 22.577306,17.132722 L 18.405187,14.673611 C 18.405187,14.673611 25.320919,1.017271 27.939306,0.506654 C 27.939306,0.506654 27.662765,0.49169 27.186217,0.506654 z "
             style="fill:url(#linearGradient3642);fill-opacity:1;stroke:#204a87;stroke-width:3.52804518;stroke-linejoin:round;stroke-miterlimit:4;stroke-dasharray:none;stroke-opacity:1"
             sodipodi:nodetypes="csccccccc" />
          <path
             id="path2343"
             d="M 19.956553,3.9551403 C 16.97649,5.919313 13.790364,13.231429 13.790364,13.231429 L 10.903895,11.415144 L 13.027328,18.385934 L 19.877444,16.682745 L 17.119538,15.123588 C 17.119538,15.123588 22.900658,3.7650793 24.918031,1.8565851 C 21.214268,2.9693653 22.936616,1.9909676 19.956553,3.9551403 z "
             style="opacity:0.5;fill:#204a87;fill-opacity:1;stroke:#eeeeec;stroke-width:3.52804518;stroke-linejoin:miter;stroke-miterlimit:4;stroke-dasharray:none;stroke-opacity:1"
             sodipodi:nodetypes="cccccccz" />
          <path
             id="path2345"
             d="M 24.65349,6.9363926 C 24.65349,6.9363915 31.391735,17.52027 31.391735,17.52027 L 33.17345,12.637037 L 37.857223,13.235327 C 37.857223,13.235327 31.06169,2.0479784 29.137709,1.990547 C 27.29949,1.9356735 24.65349,6.9363926 24.65349,6.9363926 z "
             style="opacity:0.5;fill:none;fill-opacity:1;stroke:#eeeeec;stroke-width:3.52804518;stroke-linejoin:miter;stroke-miterlimit:4;stroke-dasharray:none;stroke-opacity:1"
             sodipodi:nodetypes="ccccsc" />
        </g>
      </g>
      <path
         id="path2351"
         d="M 25.284621,2.1719528 C 24.313205,2.1766891 23.599624,2.2761035 23.315871,2.5469528 C 23.044765,2.8057293 22.913372,3.2319466 22.847121,3.7344528 C 22.825037,3.9019549 22.789209,4.0811111 22.784621,4.2657028 C 22.729564,6.4808029 23.847121,9.7344525 23.847121,9.7344525 C 23.84712,9.7344515 36.628371,12.328203 36.628371,12.328203 L 34.440871,7.3907028 L 38.565871,4.1719528 C 38.565871,4.1719519 29.494088,2.1514287 25.284621,2.1719528 z M 22.534621,3.0782028 C 22.534621,3.0782026 22.344889,3.241098 22.065871,3.5469528 C 21.228813,4.4645179 19.518615,6.6614045 19.097121,9.4219525 C 18.535128,13.102682 20.690871,18.890703 20.690871,18.890703 L 16.659621,20.015703 L 24.972121,24.359453 L 29.659621,16.484453 L 25.597121,17.609453 C 25.597121,17.609452 21.268369,5.0179229 22.534621,3.0782028 z M 33.503371,19.640703 L 26.378371,25.796953 L 32.003371,33.015703 L 32.472121,28.828203 C 32.472121,28.828203 45.756502,29.407866 47.097121,31.296953 C 47.097122,31.296952 46.998173,31.074908 46.815871,30.703203 C 46.268962,29.588086 44.88607,27.200924 42.472121,25.796953 C 42.270959,25.679955 42.03816,25.55683 41.815871,25.453203 C 38.481537,23.898794 33.034621,23.796953 33.034621,23.796953 L 33.503371,19.640703 z M 8.1908703,24.640703 L 5.7846199,29.484453 L 0.65961987,28.359453 C 0.65961787,28.359452 7.1121203,40.873444 9.1908703,41.109453 C 11.176963,41.334944 14.378371,36.078203 14.378371,36.078203 C 14.378371,36.078202 8.1908703,24.640703 8.1908703,24.640703 z M 24.878371,25.859453 L 15.847121,27.328203 L 19.284621,29.734453 C 19.28462,29.734454 12.397654,41.088428 10.097121,41.359453 C 10.097121,41.359455 10.339768,41.403769 10.753371,41.421953 C 11.994185,41.476503 14.770336,41.398747 17.159621,39.953203 C 20.345334,38.025812 23.409621,32.640703 23.409621,32.640703 L 26.878371,35.046953 L 24.878371,25.859453 z M 40.409621,30.109453 C 40.409621,30.109453 33.315871,41.015703 33.315871,41.015703 L 38.722121,40.796953 L 40.222121,45.828203 C 40.222122,45.828205 48.073943,34.171944 47.284621,32.234453 C 46.530483,30.383322 40.409621,30.109453 40.409621,30.109453 z "
         style="opacity:0.69666664;fill:url(#linearGradient3644);fill-opacity:1;stroke:#204a87;stroke-width:3.06349397;stroke-linejoin:round;stroke-miterlimit:4;stroke-dasharray:none;stroke-opacity:1" />
    </g>
  </g>
</svg>
