<?xml version="1.0" encoding="UTF-8" standalone="no"?>
<!-- Created with Inkscape (http://www.inkscape.org/) -->
<svg
   xmlns:dc="http://purl.org/dc/elements/1.1/"
   xmlns:cc="http://creativecommons.org/ns#"
   xmlns:rdf="http://www.w3.org/1999/02/22-rdf-syntax-ns#"
   xmlns:svg="http://www.w3.org/2000/svg"
   xmlns="http://www.w3.org/2000/svg"
   xmlns:xlink="http://www.w3.org/1999/xlink"
   xmlns:sodipodi="http://sodipodi.sourceforge.net/DTD/sodipodi-0.dtd"
   xmlns:inkscape="http://www.inkscape.org/namespaces/inkscape"
   width="48px"
   height="48px"
   id="svg2160"
   sodipodi:version="0.32"
   inkscape:version="0.46"
   sodipodi:docname="large-template-editor.svg"
   sodipodi:docbase="/home/lse/public_html/Bambus/System/Icons/scalable/apps"
   inkscape:output_extension="org.inkscape.output.svg.inkscape"
   sodipodi:modified="true">
  <defs
     id="defs2162">
    <inkscape:perspective
       sodipodi:type="inkscape:persp3d"
       inkscape:vp_x="0 : 24 : 1"
       inkscape:vp_y="0 : 1000 : 0"
       inkscape:vp_z="48 : 24 : 1"
       inkscape:persp3d-origin="24 : 16 : 1"
       id="perspective6104" />
    <linearGradient
       inkscape:collect="always"
       id="linearGradient3361">
      <stop
         style="stop-color:#ffffff;stop-opacity:1;"
         offset="0"
         id="stop3363" />
      <stop
         style="stop-color:#ffffff;stop-opacity:0;"
         offset="1"
         id="stop3365" />
    </linearGradient>
    <linearGradient
       inkscape:collect="always"
       xlink:href="#linearGradient3361"
       id="linearGradient3401"
       gradientUnits="userSpaceOnUse"
       x1="23.892857"
       y1="3.0357144"
       x2="23.892857"
       y2="22.194689"
       gradientTransform="matrix(2.0821099,0,0,2.1016029,9.6672114,23.60773)" />
    <linearGradient
       inkscape:collect="always"
       id="linearGradient3145">
      <stop
         style="stop-color:#ffffff;stop-opacity:1;"
         offset="0"
         id="stop3147" />
      <stop
         style="stop-color:#ffffff;stop-opacity:0;"
         offset="1"
         id="stop3149" />
    </linearGradient>
    <linearGradient
       inkscape:collect="always"
       xlink:href="#linearGradient3145"
       id="linearGradient3151"
       x1="22.857143"
       y1="-1.7857143"
       x2="22.857143"
       y2="49.583546"
       gradientUnits="userSpaceOnUse" />
    <linearGradient
       gradientTransform="matrix(0.6598419,0,0,0.6477302,0.1542406,-0.4269615)"
       gradientUnits="userSpaceOnUse"
       y2="48.035389"
       x2="19.363636"
       y1="3.1818182"
       x1="19.363636"
       id="linearGradient3243"
       xlink:href="#linearGradient3237"
       inkscape:collect="always" />
    <linearGradient
       y2="54.557911"
       x2="29.443182"
       y1="25.639603"
       x1="29.443182"
       gradientTransform="matrix(0.4406877,0,0,0.4389069,1.808311,2.5688331)"
       gradientUnits="userSpaceOnUse"
       id="linearGradient3222"
       xlink:href="#linearGradient2891"
       inkscape:collect="always" />
    <linearGradient
       y2="30.909092"
       x2="11.636364"
       y1="9.454546"
       x1="11.636364"
       gradientUnits="userSpaceOnUse"
       id="linearGradient2243"
       xlink:href="#linearGradient2850"
       inkscape:collect="always" />
    <linearGradient
       gradientUnits="userSpaceOnUse"
       y2="30.909092"
       x2="11.636364"
       y1="9.454546"
       x1="11.636364"
       id="linearGradient2856"
       xlink:href="#linearGradient2850"
       inkscape:collect="always" />
    <linearGradient
       gradientUnits="userSpaceOnUse"
       y2="63.782219"
       x2="28.363636"
       y1="5.0909095"
       x1="28.363636"
       id="linearGradient2837"
       xlink:href="#linearGradient2831"
       inkscape:collect="always" />
    <linearGradient
       id="linearGradient2831"
       inkscape:collect="always">
      <stop
         id="stop2833"
         offset="0"
         style="stop-color:white;stop-opacity:1;" />
      <stop
         id="stop2835"
         offset="1"
         style="stop-color:white;stop-opacity:0;" />
    </linearGradient>
    <linearGradient
       id="linearGradient2850"
       inkscape:collect="always">
      <stop
         id="stop2852"
         offset="0"
         style="stop-color:white;stop-opacity:1;" />
      <stop
         id="stop2854"
         offset="1"
         style="stop-color:white;stop-opacity:0;" />
    </linearGradient>
    <linearGradient
       id="linearGradient2891"
       inkscape:collect="always">
      <stop
         id="stop2893"
         offset="0"
         style="stop-color:white;stop-opacity:1;" />
      <stop
         id="stop2895"
         offset="1"
         style="stop-color:white;stop-opacity:0;" />
    </linearGradient>
    <linearGradient
       id="linearGradient3237"
       inkscape:collect="always">
      <stop
         id="stop3239"
         offset="0"
         style="stop-color:#eeeeec;stop-opacity:1;" />
      <stop
         id="stop3241"
         offset="1"
         style="stop-color:#eeeeec;stop-opacity:0;" />
    </linearGradient>
    <linearGradient
       gradientTransform="matrix(0.4155853,0,0,0.394328,1.0259535,1.3389648)"
       gradientUnits="userSpaceOnUse"
       y2="48.035389"
       x2="19.363636"
       y1="3.1818182"
       x1="19.363636"
       id="linearGradient2339"
       xlink:href="#linearGradient3237"
       inkscape:collect="always" />
    <linearGradient
       y2="54.557911"
       x2="29.443182"
       y1="25.639603"
       x1="29.443182"
       gradientTransform="matrix(0.2775564,0,0,0.2671996,2.0677289,3.1627572)"
       gradientUnits="userSpaceOnUse"
       id="linearGradient2337"
       xlink:href="#linearGradient2891"
       inkscape:collect="always" />
    <linearGradient
       y2="30.909092"
       x2="11.636364"
       y1="9.454546"
       x1="11.636364"
       gradientUnits="userSpaceOnUse"
       id="linearGradient2335"
       xlink:href="#linearGradient2850"
       inkscape:collect="always" />
    <linearGradient
       gradientUnits="userSpaceOnUse"
       y2="30.909092"
       x2="11.636364"
       y1="9.454546"
       x1="11.636364"
       id="linearGradient2333"
       xlink:href="#linearGradient2850"
       inkscape:collect="always" />
    <linearGradient
       gradientUnits="userSpaceOnUse"
       y2="63.782219"
       x2="28.363636"
       y1="5.0909095"
       x1="28.363636"
       id="linearGradient2331"
       xlink:href="#linearGradient2831"
       inkscape:collect="always" />
    <linearGradient
       inkscape:collect="always"
       xlink:href="#linearGradient3237"
       id="linearGradient2353"
       gradientUnits="userSpaceOnUse"
       gradientTransform="matrix(0.6598419,0,0,0.6477302,0.1542406,-0.4269615)"
       x1="19.363636"
       y1="3.1818182"
       x2="19.363636"
       y2="48.035389" />
    <linearGradient
       inkscape:collect="always"
       xlink:href="#linearGradient2850"
       id="linearGradient2355"
       gradientUnits="userSpaceOnUse"
       x1="11.636364"
       y1="9.454546"
       x2="11.636364"
       y2="30.909092" />
    <linearGradient
       inkscape:collect="always"
       xlink:href="#linearGradient2891"
       id="linearGradient2357"
       gradientUnits="userSpaceOnUse"
       gradientTransform="matrix(0.4406877,0,0,0.4389069,1.808311,2.5688331)"
       x1="29.443182"
       y1="25.639603"
       x2="29.443182"
       y2="54.557911" />
    <linearGradient
       inkscape:collect="always"
       xlink:href="#linearGradient3145"
       id="linearGradient3440"
       gradientUnits="userSpaceOnUse"
       x1="22.857143"
       y1="-1.7857143"
       x2="22.857143"
       y2="49.583546" />
    <linearGradient
       inkscape:collect="always"
       xlink:href="#linearGradient3237"
       id="linearGradient3442"
       gradientUnits="userSpaceOnUse"
       gradientTransform="matrix(0.6598419,0,0,0.6477302,0.1542406,-0.4269615)"
       x1="19.363636"
       y1="3.1818182"
       x2="19.363636"
       y2="48.035389" />
    <linearGradient
       inkscape:collect="always"
       xlink:href="#linearGradient2850"
       id="linearGradient3444"
       gradientUnits="userSpaceOnUse"
       x1="11.636364"
       y1="9.454546"
       x2="11.636364"
       y2="30.909092" />
    <linearGradient
       inkscape:collect="always"
       xlink:href="#linearGradient2891"
       id="linearGradient3446"
       gradientUnits="userSpaceOnUse"
       gradientTransform="matrix(0.4406877,0,0,0.4389069,1.808311,2.5688331)"
       x1="29.443182"
       y1="25.639603"
       x2="29.443182"
       y2="54.557911" />
    <linearGradient
       inkscape:collect="always"
       xlink:href="#linearGradient3361"
       id="linearGradient2222"
       gradientUnits="userSpaceOnUse"
       gradientTransform="matrix(3.1560403,0,0,3.1855874,-61.388648,-15.653078)"
       x1="23.892857"
       y1="3.0357144"
       x2="23.892857"
       y2="22.194689" />
  </defs>
  <sodipodi:namedview
     id="base"
     pagecolor="#ffffff"
     bordercolor="#666666"
     borderopacity="1.0"
     inkscape:pageopacity="0.0"
     inkscape:pageshadow="2"
     inkscape:zoom="4.9497475"
     inkscape:cx="26.977193"
     inkscape:cy="21.131621"
     inkscape:current-layer="layer1"
     showgrid="true"
     inkscape:grid-bbox="true"
     inkscape:document-units="px"
     inkscape:window-width="1272"
     inkscape:window-height="945"
     inkscape:window-x="1280"
     inkscape:window-y="0" />
  <metadata
     id="metadata2165">
    <rdf:RDF>
      <cc:Work
         rdf:about="">
        <dc:format>image/svg+xml</dc:format>
        <dc:type
           rdf:resource="http://purl.org/dc/dcmitype/StillImage" />
      </cc:Work>
    </rdf:RDF>
  </metadata>
  <g
     id="layer1"
     inkscape:label="Layer 1"
     inkscape:groupmode="layer">
    <path
       style="color:#000000;fill:#edd400;fill-opacity:1;fill-rule:nonzero;stroke:#c4a000;stroke-width:0.99999994;stroke-linecap:round;stroke-linejoin:round;marker:none;marker-start:none;marker-mid:none;marker-end:none;stroke-miterlimit:4;stroke-dasharray:none;stroke-dashoffset:0;stroke-opacity:1;visibility:visible;display:inline;overflow:visible"
       d="M 40.311768,24.650796 C 43.470185,24.542173 47.49474,28.117818 47.49474,32.229004 C 47.494743,36.340188 44.38611,41.215052 39.944251,39.686538 C 37.974145,39.00859 38.849389,39.516696 34.61722,37.512397 C 30.417681,35.523551 30.749334,42.457755 30.749334,47.494736 L 0.64001744,47.494736 L 0.50526527,36.838689 C 0.50526527,36.838689 4.2255644,38.939055 7.2914397,39.004328 C 10.357315,39.069601 13.288286,37.252738 13.382787,32.730565 C 13.477286,28.208391 12.053447,25.926071 7.5040989,25.608824 C 3.0888587,25.300928 0.64001744,28.696823 0.64001744,28.696823 L 0.64001744,17.360695 C 0.64001744,17.360695 5.4209009,17.698316 8.1673478,17.360695 C 10.892775,17.025653 11.203844,14.55133 9.834939,13.199435 C 8.4660371,11.847542 7.6114835,9.9950153 7.6114835,7.9394184 C 7.6114835,4.0189353 10.871427,0.50804262 14.872459,0.50526418 C 18.859368,0.50249635 22.712464,3.8282323 22.712464,7.9394184 C 22.712461,9.9950153 21.106271,11.345497 20.489007,13.199435 C 19.871741,15.053373 21.352002,17.164044 23.222004,17.360695 C 25.071725,17.55521 30.749334,17.360695 30.749334,17.360695 C 30.331754,21.584934 30.602527,25.916068 32.571877,27.384292 C 34.496387,28.819087 37.114638,24.760753 40.311768,24.650796 z "
       id="rect1315"
       sodipodi:nodetypes="csszccczzzccssszsssczz"
       inkscape:export-filename="/home/lse/public_html/Bambus/System/Applications/ATPLEditor.bap/Icon.png"
       inkscape:export-xdpi="33"
       inkscape:export-ydpi="33" />
    <path
       style="opacity:0.7;color:#000000;fill:url(#linearGradient2222);fill-opacity:1;fill-rule:nonzero;stroke:#c4a000;stroke-width:0.99999994;stroke-linecap:round;stroke-linejoin:round;marker:none;marker-start:none;marker-mid:none;marker-end:none;stroke-miterlimit:4;stroke-dasharray:none;stroke-dashoffset:0;stroke-opacity:1;visibility:visible;display:inline;overflow:visible"
       d="M 40.311768,24.650796 C 43.470185,24.542173 47.49474,28.117818 47.49474,32.229004 C 47.494743,36.340188 44.38611,41.215052 39.944251,39.686538 C 37.974145,39.00859 38.849389,39.516696 34.61722,37.512397 C 30.417681,35.523551 30.749334,42.457755 30.749334,47.494736 L 0.64001744,47.494736 L 0.50526527,36.838689 C 0.50526527,36.838689 4.2255644,38.939055 7.2914397,39.004328 C 10.357315,39.069601 13.288286,37.252738 13.382787,32.730565 C 13.477286,28.208391 12.053447,25.926071 7.5040989,25.608824 C 3.0888587,25.300928 0.64001744,28.696823 0.64001744,28.696823 L 0.64001744,17.360695 C 0.64001744,17.360695 5.4209009,17.698316 8.1673478,17.360695 C 10.892775,17.025653 11.203844,14.55133 9.834939,13.199435 C 8.4660371,11.847542 7.6114835,9.9950153 7.6114835,7.9394184 C 7.6114835,4.0189353 10.871427,0.50804262 14.872459,0.50526418 C 18.859368,0.50249635 22.712464,3.8282323 22.712464,7.9394184 C 22.712461,9.9950153 21.106271,11.345497 20.489007,13.199435 C 19.871741,15.053373 21.352002,17.164044 23.222004,17.360695 C 25.071725,17.55521 30.749334,17.360695 30.749334,17.360695 C 30.331754,21.584934 30.602527,25.916068 32.571877,27.384292 C 34.496387,28.819087 37.114638,24.760753 40.311768,24.650796 z "
       id="path3359"
       sodipodi:nodetypes="csszccczzzccssszsssczz"
       inkscape:export-filename="/home/lse/public_html/Bambus/System/Applications/ATPLEditor.bap/Icon.png"
       inkscape:export-xdpi="33"
       inkscape:export-ydpi="33" />
    <path
       style="opacity:0.7;color:#000000;fill:none;fill-opacity:1;fill-rule:nonzero;stroke:#ffffff;stroke-width:0.99999994;stroke-linecap:round;stroke-linejoin:miter;marker:none;marker-start:none;marker-mid:none;marker-end:none;stroke-miterlimit:4;stroke-dasharray:none;stroke-dashoffset:0;stroke-opacity:1;visibility:visible;display:inline;overflow:visible"
       d="M 38.37331,26.268435 C 41.657239,24.367776 46.518646,28.139978 46.518646,32.251163 C 46.518649,36.362349 43.595894,40.59637 38.749974,38.310243 C 36.865648,37.421287 34.304484,35.699096 32.226768,36.312557 C 30.102551,36.939748 29.759806,41.411033 29.759806,46.448015 L 1.5561773,46.472471 L 1.5137458,38.481734 C 1.5137458,38.481734 6.939437,40.608319 9.2879952,39.86911 C 11.714579,39.105343 14.324997,36.537699 14.324997,32.781072 C 14.324997,28.947888 14.152738,26.069393 9.6830918,24.867216 C 5.1930019,23.659541 1.5609172,26.370879 1.5609172,26.370879 L 1.6343314,18.550041 C 1.6343314,18.550041 8.1915792,18.939005 9.6928368,18.051322 C 11.604402,16.921027 11.820914,15.905684 11.408436,13.829758 C 11.031841,11.93443 8.6042044,11.759591 8.654712,7.7341972 C 8.7045239,3.8140308 13.282304,1.4879414 14.848004,1.628546 C 16.565536,1.7827851 21.719759,3.6751148 21.719746,7.786301 C 21.719741,8.4742753 20.063044,11.29499 19.445778,13.148927 C 18.828514,15.002865 19.912714,17.099105 21.635673,17.858664 C 23.878914,18.847585 29.629549,18.435064 29.629549,18.435064 C 29.21197,22.659302 29.752519,26.636402 32.046178,28.157436 C 34.209792,29.592229 35.149072,28.134546 38.37331,26.268435 z "
       id="path3357"
       sodipodi:nodetypes="csszccczzzccssszsssczz"
       inkscape:export-filename="/home/lse/public_html/Bambus/System/Applications/ATPLEditor.bap/Icon.png"
       inkscape:export-xdpi="33"
       inkscape:export-ydpi="33" />
  </g>
</svg>
