<?xml version="1.0" encoding="UTF-8" standalone="no"?>
<!-- Created with Inkscape (http://www.inkscape.org/) -->
<svg
   xmlns:dc="http://purl.org/dc/elements/1.1/"
   xmlns:cc="http://creativecommons.org/ns#"
   xmlns:rdf="http://www.w3.org/1999/02/22-rdf-syntax-ns#"
   xmlns:svg="http://www.w3.org/2000/svg"
   xmlns="http://www.w3.org/2000/svg"
   xmlns:xlink="http://www.w3.org/1999/xlink"
   xmlns:sodipodi="http://sodipodi.sourceforge.net/DTD/sodipodi-0.dtd"
   xmlns:inkscape="http://www.inkscape.org/namespaces/inkscape"
   width="48"
   height="48"
   id="svg1872"
   sodipodi:version="0.32"
   inkscape:version="0.46"
   inkscape:export-filename="/home/lse/public_html/Bambus/System/Applications/NavigationManager.bap/Icon64.png"
   inkscape:export-xdpi="90"
   inkscape:export-ydpi="90"
   sodipodi:docbase="/home/lse/public_html/Bambus/System/Icons/scalable/apps"
   sodipodi:docname="large-navigation-editor.svg"
   inkscape:output_extension="org.inkscape.output.svg.inkscape"
   version="1.0"
   sodipodi:modified="true">
  <defs
     id="defs1874">
    <inkscape:perspective
       sodipodi:type="inkscape:persp3d"
       inkscape:vp_x="0 : 24 : 1"
       inkscape:vp_y="0 : 1000 : 0"
       inkscape:vp_z="48 : 24 : 1"
       inkscape:persp3d-origin="24 : 16 : 1"
       id="perspective5112" />
    <linearGradient
       inkscape:collect="always"
       id="linearGradient3257">
      <stop
         style="stop-color:#ffffff;stop-opacity:1;"
         offset="0"
         id="stop3259" />
      <stop
         style="stop-color:#ffffff;stop-opacity:0;"
         offset="1"
         id="stop3261" />
    </linearGradient>
    <linearGradient
       inkscape:collect="always"
       id="linearGradient2787">
      <stop
         style="stop-color:white;stop-opacity:1;"
         offset="0"
         id="stop2789" />
      <stop
         style="stop-color:white;stop-opacity:0;"
         offset="1"
         id="stop2791" />
    </linearGradient>
    <linearGradient
       inkscape:collect="always"
       id="linearGradient2894">
      <stop
         style="stop-color:#7a612d;stop-opacity:1"
         offset="0"
         id="stop2896" />
      <stop
         style="stop-color:black;stop-opacity:1"
         offset="1"
         id="stop2898" />
    </linearGradient>
    <linearGradient
       inkscape:collect="always"
       id="linearGradient2868">
      <stop
         style="stop-color:white;stop-opacity:1;"
         offset="0"
         id="stop2870" />
      <stop
         style="stop-color:white;stop-opacity:0;"
         offset="1"
         id="stop2872" />
    </linearGradient>
    <linearGradient
       inkscape:collect="always"
       id="linearGradient2806">
      <stop
         style="stop-color:#efefef;stop-opacity:1;"
         offset="0"
         id="stop2808" />
      <stop
         style="stop-color:#757575;stop-opacity:1"
         offset="1"
         id="stop2810" />
    </linearGradient>
    <linearGradient
       inkscape:collect="always"
       xlink:href="#linearGradient2806"
       id="linearGradient2812"
       x1="-23.966209"
       y1="30.272728"
       x2="38.693481"
       y2="30.272728"
       gradientUnits="userSpaceOnUse" />
    <linearGradient
       inkscape:collect="always"
       xlink:href="#linearGradient2868"
       id="linearGradient2882"
       gradientUnits="userSpaceOnUse"
       gradientTransform="matrix(0.982821,0,0,0.980402,-0.349542,2.105448)"
       x1="3.7840903"
       y1="0.51825333"
       x2="56.59943"
       y2="58.154617" />
    <linearGradient
       inkscape:collect="always"
       xlink:href="#linearGradient2894"
       id="linearGradient2900"
       x1="-20.546377"
       y1="6.1376576"
       x2="-9.9814005"
       y2="6.1376576"
       gradientUnits="userSpaceOnUse" />
    <linearGradient
       inkscape:collect="always"
       xlink:href="#linearGradient2787"
       id="linearGradient2793"
       x1="8.4904871"
       y1="0.40969458"
       x2="9.8333654"
       y2="63.607662"
       gradientUnits="userSpaceOnUse" />
    <linearGradient
       inkscape:collect="always"
       xlink:href="#linearGradient3257"
       id="linearGradient3263"
       x1="21.545454"
       y1="-4.090909"
       x2="21.545454"
       y2="52.184464"
       gradientUnits="userSpaceOnUse" />
  </defs>
  <sodipodi:namedview
     id="base"
     pagecolor="#ffffff"
     bordercolor="#666666"
     borderopacity="1.0"
     inkscape:pageopacity="0.0"
     inkscape:pageshadow="2"
     inkscape:zoom="11"
     inkscape:cx="30.09134"
     inkscape:cy="29.758298"
     inkscape:current-layer="layer1"
     showgrid="true"
     inkscape:document-units="px"
     inkscape:grid-bbox="true"
     showguides="true"
     inkscape:guide-bbox="true"
     inkscape:window-width="1272"
     inkscape:window-height="949"
     inkscape:window-x="0"
     inkscape:window-y="24"
     width="48px"
     height="48px" />
  <metadata
     id="metadata1877">
    <rdf:RDF>
      <cc:Work
         rdf:about="">
        <dc:format>image/svg+xml</dc:format>
        <dc:type
           rdf:resource="http://purl.org/dc/dcmitype/StillImage" />
      </cc:Work>
    </rdf:RDF>
  </metadata>
  <g
     id="layer1"
     inkscape:label="Layer 1"
     inkscape:groupmode="layer">
    <path
       style="color:#000000;fill:#c17d11;fill-opacity:1;fill-rule:nonzero;stroke:#8f5902;stroke-width:0.99999994;stroke-linecap:square;stroke-linejoin:miter;marker:none;marker-start:none;marker-mid:none;marker-end:none;stroke-miterlimit:4;stroke-dasharray:none;stroke-dashoffset:0;stroke-opacity:1;visibility:visible;display:inline;overflow:visible;enable-background:accumulate"
       d="M 24 0.46875 C 22.1273 0.46875 20.593751 2.0028494 20.59375 3.875 C 20.59375 5.1912924 21.371714 6.3129406 22.46875 6.875 C 11.940313 7.6518042 3.6562499 16.464834 3.65625 27.1875 C 3.65625 38.420403 12.763801 47.531251 24 47.53125 C 35.2362 47.53125 44.34375 38.420403 44.34375 27.1875 C 44.34375 16.464834 36.059687 7.6518044 25.53125 6.875 C 26.628286 6.3129405 27.40625 5.1912924 27.40625 3.875 C 27.40625 2.0028494 25.872701 0.46875001 24 0.46875 z "
       id="path2187" />
    <path
       sodipodi:type="arc"
       style="opacity:0.5;color:#000000;fill:none;fill-opacity:1;fill-rule:nonzero;stroke:#eeeeec;stroke-width:0.90817595;stroke-linecap:square;stroke-linejoin:miter;marker:none;marker-start:none;marker-mid:none;marker-end:none;stroke-miterlimit:4;stroke-dasharray:none;stroke-dashoffset:0;stroke-opacity:1;visibility:visible;display:inline;overflow:visible;enable-background:accumulate"
       id="path3160"
       sodipodi:cx="-5.818182"
       sodipodi:cy="10.909091"
       sodipodi:rx="17.454546"
       sodipodi:ry="17.454546"
       d="M 11.636364 10.909091 A 17.454546 17.454546 0 1 1  -23.272728,10.909091 A 17.454546 17.454546 0 1 1  11.636364 10.909091 z"
       transform="matrix(1.1012699,0,0,1.1009468,30.407389,15.169275)" />
    <path
       sodipodi:type="arc"
       style="opacity:0.5;color:#000000;fill:#8f5902;fill-opacity:1;fill-rule:nonzero;stroke:#eeeeec;stroke-width:1.20744288;stroke-linecap:square;stroke-linejoin:miter;marker:none;marker-start:none;marker-mid:none;marker-end:none;stroke-miterlimit:4;stroke-dasharray:none;stroke-dashoffset:0;stroke-opacity:1;visibility:visible;display:inline;overflow:visible;enable-background:accumulate"
       id="path3164"
       sodipodi:cx="-3.6363637"
       sodipodi:cy="-9.090909"
       sodipodi:rx="2.909091"
       sodipodi:ry="2.909091"
       d="M -0.72727275 -9.090909 A 2.909091 2.909091 0 1 1  -6.5454547,-9.090909 A 2.909091 2.909091 0 1 1  -0.72727275 -9.090909 z"
       transform="matrix(0.8283179,0,0,0.828075,27.012066,11.390466)" />
    <path
       sodipodi:type="arc"
       style="color:#000000;fill:#ffffff;fill-opacity:1;fill-rule:nonzero;stroke:#c17d11;stroke-width:0.99610811;stroke-linecap:square;stroke-linejoin:miter;marker:none;marker-start:none;marker-mid:none;marker-end:none;stroke-miterlimit:4;stroke-dasharray:none;stroke-dashoffset:0;stroke-opacity:1;visibility:visible;display:inline;overflow:visible;enable-background:accumulate;opacity:1"
       id="path3274"
       sodipodi:cx="-5.818182"
       sodipodi:cy="10.909091"
       sodipodi:rx="17.454546"
       sodipodi:ry="17.454546"
       d="M 11.636364 10.909091 A 17.454546 17.454546 0 1 1  -23.272728,10.909091 A 17.454546 17.454546 0 1 1  11.636364 10.909091 z"
       transform="matrix(1.0040543,0,0,1.0037598,29.841771,16.229496)" />
    <path
       sodipodi:type="arc"
       style="color:#000000;fill:#e9b96e;fill-opacity:1;fill-rule:nonzero;stroke:#c17d11;stroke-width:0.99610811;stroke-linecap:square;stroke-linejoin:miter;marker:none;marker-start:none;marker-mid:none;marker-end:none;stroke-miterlimit:4;stroke-dasharray:none;stroke-dashoffset:0;stroke-opacity:1;visibility:visible;display:inline;overflow:visible;enable-background:accumulate;opacity:0.37583893"
       id="path3166"
       sodipodi:cx="-5.818182"
       sodipodi:cy="10.909091"
       sodipodi:rx="17.454546"
       sodipodi:ry="17.454546"
       d="M 11.636364 10.909091 A 17.454546 17.454546 0 1 1  -23.272728,10.909091 A 17.454546 17.454546 0 1 1  11.636364 10.909091 z"
       transform="matrix(1.0040543,0,0,1.0037598,29.841771,16.229496)" />
    <path
       style="opacity:0.7;color:#000000;fill:url(#linearGradient3263);fill-opacity:1;fill-rule:nonzero;stroke:#8f5902;stroke-width:0.99999994;stroke-linecap:square;stroke-linejoin:miter;marker:none;marker-start:none;marker-mid:none;marker-end:none;stroke-miterlimit:4;stroke-dasharray:none;stroke-dashoffset:0;stroke-opacity:1;visibility:visible;display:inline;overflow:visible;enable-background:accumulate"
       d="M 24,0.46874999 C 22.1273,0.46874999 20.593751,2.002849 20.59375,3.875 C 20.59375,5.191292 21.371714,6.312941 22.46875,6.875 C 11.940313,7.651804 3.65625,16.464834 3.65625,27.1875 C 3.65625,38.420403 12.763801,47.531251 24,47.53125 C 35.2362,47.53125 44.34375,38.420403 44.34375,27.1875 C 44.34375,16.464834 36.059687,7.651804 25.53125,6.875 C 26.628286,6.312941 27.40625,5.191292 27.40625,3.875 C 27.40625,2.002849 25.872701,0.46874999 24,0.46874999 z "
       id="path3252" />
    <path
       style="color:#000000;fill:#888a85;fill-opacity:1;fill-rule:nonzero;stroke:#2e3436;stroke-width:0;stroke-linecap:square;stroke-linejoin:miter;marker:none;marker-start:none;marker-mid:none;marker-end:none;stroke-miterlimit:4;stroke-dasharray:none;stroke-dashoffset:0;stroke-opacity:1;visibility:visible;display:inline;overflow:visible;enable-background:accumulate"
       d="M 22.84375 11.65625 L 22.84375 20.96875 L 25.15625 20.96875 L 25.15625 11.65625 L 22.84375 11.65625 z M 8.53125 26 L 8.53125 28.34375 L 17.84375 28.34375 L 17.84375 26 L 8.53125 26 z M 29.9375 26 L 29.9375 28.34375 L 39.28125 28.34375 L 39.28125 26 L 29.9375 26 z M 22.84375 33.0625 L 22.84375 42.375 L 25.15625 42.375 L 25.15625 33.0625 L 22.84375 33.0625 z "
       id="rect3168" />
    <path
       sodipodi:nodetypes="cscsc"
       id="path3196"
       d="M 11.551736,39.514031 C 11.551736,39.514031 21.978242,24.974341 21.978242,24.974341 C 21.978242,24.974341 36.448264,14.60471 36.448264,14.60471 C 36.448264,14.60471 26.017476,29.148648 26.017476,29.148648 C 26.017476,29.148648 11.551736,39.514031 11.551736,39.514031 z "
       style="fill:#cc0000;fill-opacity:1;stroke:#000000;stroke-width:0.2;stroke-linejoin:round;stroke-miterlimit:4;stroke-dasharray:none;stroke-opacity:1" />
    <path
       sodipodi:nodetypes="ccc"
       id="path3200"
       d="M 26.017476,29.148648 C 26.017476,29.148648 11.551736,39.514031 11.551736,39.514031 C 11.551736,39.514031 21.978242,24.974341 21.978242,24.974341"
       style="fill:#eeeeec;fill-opacity:1;stroke:#000000;stroke-width:0.2;stroke-linejoin:round;stroke-miterlimit:4;stroke-dasharray:none;stroke-opacity:1" />
    <path
       sodipodi:type="arc"
       style="color:#000000;fill:#babdb6;fill-opacity:1;fill-rule:nonzero;stroke:#555753;stroke-width:1.40434706;stroke-linecap:square;stroke-linejoin:miter;marker:none;marker-start:none;marker-mid:none;marker-end:none;stroke-miterlimit:4;stroke-dasharray:none;stroke-dashoffset:0;stroke-opacity:1;visibility:visible;display:inline;overflow:visible;enable-background:accumulate"
       id="path3202"
       sodipodi:cx="-3.6363637"
       sodipodi:cy="-9.090909"
       sodipodi:rx="2.909091"
       sodipodi:ry="2.909091"
       d="M -0.72727275 -9.090909 A 2.909091 2.909091 0 1 1  -6.5454547,-9.090909 A 2.909091 2.909091 0 1 1  -0.72727275 -9.090909 z"
       transform="matrix(0.4823639,0.4984598,-0.5188494,0.5150153,21.037236,33.553914)" />
    <path
       sodipodi:type="arc"
       style="opacity:0.5;color:#000000;fill:#888a85;fill-opacity:1;fill-rule:nonzero;stroke:#eeeeec;stroke-width:3.47120452;stroke-linecap:square;stroke-linejoin:miter;marker:none;marker-start:none;marker-mid:none;marker-end:none;stroke-miterlimit:4;stroke-dasharray:none;stroke-dashoffset:0;stroke-opacity:1;visibility:visible;display:inline;overflow:visible;enable-background:accumulate"
       id="path3204"
       sodipodi:cx="-3.6363637"
       sodipodi:cy="-9.090909"
       sodipodi:rx="2.909091"
       sodipodi:ry="2.909091"
       d="M -0.72727275 -9.090909 A 2.909091 2.909091 0 1 1  -6.5454547,-9.090909 A 2.909091 2.909091 0 1 1  -0.72727275 -9.090909 z"
       transform="matrix(0.1949328,0.2018871,-0.2096774,0.2085924,22.802689,29.689804)" />
  </g>
</svg>
