<?xml version="1.0" encoding="UTF-8" standalone="no"?>
<!-- Created with Inkscape (http://www.inkscape.org/) -->
<svg
   xmlns:dc="http://purl.org/dc/elements/1.1/"
   xmlns:cc="http://creativecommons.org/ns#"
   xmlns:rdf="http://www.w3.org/1999/02/22-rdf-syntax-ns#"
   xmlns:svg="http://www.w3.org/2000/svg"
   xmlns="http://www.w3.org/2000/svg"
   xmlns:xlink="http://www.w3.org/1999/xlink"
   xmlns:sodipodi="http://sodipodi.sourceforge.net/DTD/sodipodi-0.dtd"
   xmlns:inkscape="http://www.inkscape.org/namespaces/inkscape"
   width="48"
   height="48"
   id="svg1306"
   sodipodi:version="0.32"
   inkscape:version="0.46"
   inkscape:export-filename="/home/lse/public_html/Bambus/System/Icons/actions/48x48/action-inform.png"
   inkscape:export-xdpi="67.5"
   inkscape:export-ydpi="67.5"
   sodipodi:docbase="/home/lse/public_html/Chimera/System/Icons/scalable/actions"
   sodipodi:docname="large-information.svg"
   version="1.0"
   inkscape:output_extension="org.inkscape.output.svg.inkscape">
  <defs
     id="defs1308">
    <inkscape:perspective
       sodipodi:type="inkscape:persp3d"
       inkscape:vp_x="0 : 24 : 1"
       inkscape:vp_y="0 : 1000 : 0"
       inkscape:vp_z="48 : 24 : 1"
       inkscape:persp3d-origin="24 : 16 : 1"
       id="perspective23" />
    <linearGradient
       inkscape:collect="always"
       id="linearGradient2772">
      <stop
         style="stop-color:white;stop-opacity:1;"
         offset="0"
         id="stop2774" />
      <stop
         style="stop-color:white;stop-opacity:0;"
         offset="1"
         id="stop2776" />
    </linearGradient>
    <linearGradient
       inkscape:collect="always"
       id="linearGradient2444">
      <stop
         style="stop-color:#000000;stop-opacity:1;"
         offset="0"
         id="stop2446" />
      <stop
         style="stop-color:#000000;stop-opacity:0;"
         offset="1"
         id="stop2448" />
    </linearGradient>
    <linearGradient
       inkscape:collect="always"
       id="linearGradient2371">
      <stop
         style="stop-color:#ffffff;stop-opacity:1;"
         offset="0"
         id="stop2373" />
      <stop
         style="stop-color:#ffffff;stop-opacity:0;"
         offset="1"
         id="stop2375" />
    </linearGradient>
    <linearGradient
       inkscape:collect="always"
       xlink:href="#linearGradient2371"
       id="linearGradient2377"
       x1="6"
       y1="33"
       x2="58.032207"
       y2="33"
       gradientUnits="userSpaceOnUse"
       gradientTransform="matrix(1.090951,0,0,1.08149,-3.169872,-3.189182)" />
    <linearGradient
       inkscape:collect="always"
       xlink:href="#linearGradient2444"
       id="linearGradient2450"
       x1="68.4198"
       y1="22.24333"
       x2="37.929852"
       y2="42.29945"
       gradientUnits="userSpaceOnUse" />
    <linearGradient
       inkscape:collect="always"
       xlink:href="#linearGradient2772"
       id="linearGradient2778"
       x1="36.402077"
       y1="0.2407169"
       x2="36.402077"
       y2="70.115738"
       gradientUnits="userSpaceOnUse" />
  </defs>
  <sodipodi:namedview
     id="base"
     pagecolor="#ffffff"
     bordercolor="#666666"
     borderopacity="1.0"
     inkscape:pageopacity="0.0"
     inkscape:pageshadow="2"
     inkscape:zoom="11"
     inkscape:cx="27.163432"
     inkscape:cy="19.921377"
     inkscape:current-layer="layer1"
     showgrid="true"
     inkscape:document-units="px"
     inkscape:grid-bbox="true"
     inkscape:window-width="1272"
     inkscape:window-height="945"
     inkscape:window-x="0"
     inkscape:window-y="25"
     showguides="true"
     inkscape:guide-bbox="true"
     width="48px"
     height="48px">
    <inkscape:grid
       type="xygrid"
       id="grid2396"
       visible="true"
       enabled="true" />
  </sodipodi:namedview>
  <metadata
     id="metadata1311">
    <rdf:RDF>
      <cc:Work
         rdf:about="">
        <dc:format>image/svg+xml</dc:format>
        <dc:type
           rdf:resource="http://purl.org/dc/dcmitype/StillImage" />
      </cc:Work>
    </rdf:RDF>
  </metadata>
  <g
     id="layer1"
     inkscape:label="Layer 1"
     inkscape:groupmode="layer">
    <path
       sodipodi:type="arc"
       style="fill:#3465a4;fill-opacity:1;fill-rule:nonzero;stroke:#204a87;stroke-width:1.28167713;stroke-linecap:square;stroke-linejoin:miter;stroke-miterlimit:4;stroke-dasharray:none;stroke-opacity:1"
       id="path2231"
       sodipodi:cx="36.833836"
       sodipodi:cy="33.85154"
       sodipodi:rx="28.862814"
       sodipodi:ry="28.862814"
       d="M 38.133268,5.0179914 A 28.862814,28.862814 0 1 1 38.082591,5.0157521"
       sodipodi:start="4.7574252"
       sodipodi:end="11.038853"
       sodipodi:open="true"
       transform="matrix(0.7802275,0,0,0.7802278,-4.7387704,-2.4119236)" />
    <path
       style="opacity:0.7;fill:url(#linearGradient2778);fill-opacity:1;fill-rule:nonzero;stroke:none;stroke-width:2.50985146;stroke-linecap:square;stroke-linejoin:miter;stroke-miterlimit:4;stroke-opacity:1"
       d="M 38.133268,5.0179914 C 54.049387,5.7352782 66.384671,19.234854 65.667384,35.150972 C 64.950097,51.067091 51.450522,63.402375 35.534403,62.685088 C 19.618284,61.967801 7.2830005,48.468226 8.0002874,32.552107 C 8.7167716,16.653796 22.183046,4.3272104 38.082591,5.0157521"
       id="path2770"
       transform="matrix(0.7636553,0,0,0.7636563,-4.1283684,-1.8509436)" />
    <path
       style="font-size:25.91051865px;font-style:normal;font-weight:normal;line-height:125%;fill:#ffffff;fill-opacity:1;stroke:none;stroke-width:1px;stroke-linecap:butt;stroke-linejoin:miter;stroke-opacity:1;font-family:Bitstream Vera Sans"
       d="M 14.927343,22.687429 L 15.635717,23.864215 L 16.834507,23.140039 C 17.869824,22.506386 20.103932,21.601166 20.594345,21.601166 C 20.921288,21.601166 21.13925,21.78221 21.13925,22.099037 C 21.13925,22.325342 21.030268,22.823214 20.703326,23.909476 L 17.488392,34.81737 C 17.324921,35.451024 17.16145,36.492028 17.16145,37.170942 C 17.16145,38.347725 17.869826,39.117163 18.905143,39.117163 C 20.975777,39.117163 23.536833,38.076158 27.950552,35.451024 C 28.658926,34.998415 28.876889,34.907892 29.476283,34.545805 L 28.822397,33.278498 L 27.351156,34.047934 C 25.498485,34.998414 24.517655,35.405763 24.027242,35.405763 C 23.7003,35.405763 23.373356,35.134197 23.373356,34.862632 C 23.373356,34.319501 23.75479,32.825886 24.463165,30.698622 L 27.405647,21.827471 C 27.678099,21.012774 27.896061,19.654943 27.896061,18.794986 C 27.896061,17.799245 27.296665,17.120329 26.479311,17.120329 C 24.95358,17.120329 21.684151,18.478161 18.360239,20.560164 L 14.927343,22.687429 M 27.514628,6.891349 C 25.443995,6.891349 23.80928,8.3849631 23.80928,10.240661 C 23.80928,11.824794 24.95358,12.820536 26.751762,12.820536 C 28.931376,12.820536 30.511601,11.417445 30.511601,9.5617466 C 30.511601,8.022875 29.258319,6.891349 27.514628,6.891349"
       id="text2249" />
    <path
       sodipodi:type="arc"
       style="opacity:0.5;fill:none;fill-opacity:1;fill-rule:nonzero;stroke:#eeeeec;stroke-width:1.33733892;stroke-linecap:square;stroke-linejoin:miter;stroke-miterlimit:4;stroke-dasharray:none;stroke-opacity:1"
       id="path3223"
       sodipodi:cx="36.833836"
       sodipodi:cy="33.85154"
       sodipodi:rx="28.862814"
       sodipodi:ry="28.862814"
       d="M 38.133268,5.0179914 A 28.862814,28.862814 0 1 1 38.082591,5.0157521"
       sodipodi:start="4.7574252"
       sodipodi:end="11.038853"
       sodipodi:open="true"
       transform="matrix(0.7477534,0,0,0.7477538,-3.476387,-1.312625)" />
  </g>
</svg>
