<?xml version="1.0" encoding="UTF-8" standalone="no"?>
<!-- Created with Inkscape (http://www.inkscape.org/) -->
<svg
   xmlns:dc="http://purl.org/dc/elements/1.1/"
   xmlns:cc="http://web.resource.org/cc/"
   xmlns:rdf="http://www.w3.org/1999/02/22-rdf-syntax-ns#"
   xmlns:svg="http://www.w3.org/2000/svg"
   xmlns="http://www.w3.org/2000/svg"
   xmlns:xlink="http://www.w3.org/1999/xlink"
   xmlns:sodipodi="http://sodipodi.sourceforge.net/DTD/sodipodi-0.dtd"
   xmlns:inkscape="http://www.inkscape.org/namespaces/inkscape"
   width="48px"
   height="48px"
   id="svg2160"
   sodipodi:version="0.32"
   inkscape:version="0.45"
   sodipodi:docbase="/home/lse/public_html/Bambus/System/Icons/scalable/apps"
   sodipodi:docname="large-news.svg"
   inkscape:output_extension="org.inkscape.output.svg.inkscape"
   sodipodi:modified="true">
  <defs
     id="defs2162">
    <linearGradient
       inkscape:collect="always"
       id="linearGradient3222">
      <stop
         style="stop-color:#000000;stop-opacity:1;"
         offset="0"
         id="stop3224" />
      <stop
         style="stop-color:#000000;stop-opacity:0;"
         offset="1"
         id="stop3226" />
    </linearGradient>
    <linearGradient
       inkscape:collect="always"
       id="linearGradient3165">
      <stop
         style="stop-color:#ffffff;stop-opacity:1;"
         offset="0"
         id="stop3167" />
      <stop
         style="stop-color:#ffffff;stop-opacity:0;"
         offset="1"
         id="stop3169" />
    </linearGradient>
    <linearGradient
       inkscape:collect="always"
       xlink:href="#linearGradient3165"
       id="linearGradient3209"
       gradientUnits="userSpaceOnUse"
       x1="20.714285"
       y1="1"
       x2="20.428572"
       y2="42.15625"
       gradientTransform="matrix(1.0403101,0,0,1.0403101,-1.0403108,2.7148394)" />
    <linearGradient
       inkscape:collect="always"
       xlink:href="#linearGradient3222"
       id="linearGradient3228"
       x1="35.142857"
       y1="35.285713"
       x2="35.142857"
       y2="17.426285"
       gradientUnits="userSpaceOnUse" />
    <linearGradient
       inkscape:collect="always"
       xlink:href="#linearGradient3222"
       id="linearGradient3401"
       x1="13.785714"
       y1="23.065905"
       x2="13.928572"
       y2="33.857143"
       gradientUnits="userSpaceOnUse" />
    <filter
       inkscape:collect="always"
       x="-0.12"
       width="1.24"
       y="-0.12"
       height="1.24"
       id="filter4428">
      <feGaussianBlur
         inkscape:collect="always"
         stdDeviation="0.19285714"
         id="feGaussianBlur4430" />
    </filter>
    <filter
       inkscape:collect="always"
       x="-0.24"
       width="1.48"
       y="-0.24"
       height="1.48"
       id="filter4488">
      <feGaussianBlur
         inkscape:collect="always"
         stdDeviation="0.38571427"
         id="feGaussianBlur4490" />
    </filter>
  </defs>
  <sodipodi:namedview
     id="base"
     pagecolor="#ffffff"
     bordercolor="#666666"
     borderopacity="1.0"
     inkscape:pageopacity="0.0"
     inkscape:pageshadow="2"
     inkscape:zoom="14"
     inkscape:cx="33.4505"
     inkscape:cy="19.275923"
     inkscape:current-layer="layer1"
     showgrid="true"
     inkscape:grid-bbox="true"
     inkscape:document-units="px"
     inkscape:window-width="1280"
     inkscape:window-height="955"
     inkscape:window-x="0"
     inkscape:window-y="24" />
  <metadata
     id="metadata2165">
    <rdf:RDF>
      <cc:Work
         rdf:about="">
        <dc:format>image/svg+xml</dc:format>
        <dc:type
           rdf:resource="http://purl.org/dc/dcmitype/StillImage" />
      </cc:Work>
    </rdf:RDF>
  </metadata>
  <g
     id="layer1"
     inkscape:label="Layer 1"
     inkscape:groupmode="layer">
    <path
       style="color:#000000;fill:#babdb6;fill-opacity:1.0;fill-rule:nonzero;stroke:#888a85;stroke-width:1;stroke-linecap:butt;stroke-linejoin:miter;marker:none;marker-start:none;marker-mid:none;marker-end:none;stroke-miterlimit:0;stroke-dasharray:none;stroke-dashoffset:0;stroke-opacity:1;visibility:visible;display:inline;overflow:visible;enable-background:accumulate"
       d="M 45.318508,3.592601 C 45.318508,3.592601 28.977164,12.37126 23.504506,13.995702 C 18.031849,15.620143 0.74772218,15.036012 0.74772218,15.036012 L 0.74772218,26.80452 C 0.74772218,26.80452 3.6780794,25.984362 7.6333674,25.966605 L 14.256235,42.4074 L 22.447287,42.53921 L 16.677471,26.86954 C 19.19434,27.053723 21.576298,27.376809 23.504506,27.84483 C 31.152142,29.701091 45.31851,37.207621 45.318508,37.207621 C 45.318508,37.207621 41.15727,28.536822 41.157268,20.400111 C 41.157268,12.2634 45.31851,3.5926011 45.318508,3.592601 z "
       id="path3403"
       sodipodi:nodetypes="csccccccscsc" />
    <path
       style="color:#000000;fill:#babdb6;fill-opacity:1;fill-rule:nonzero;stroke:#555753;stroke-width:1;stroke-linecap:butt;stroke-linejoin:bevel;marker:none;marker-start:none;marker-mid:none;marker-end:none;stroke-miterlimit:4;stroke-dashoffset:0;stroke-opacity:1;visibility:visible;display:inline;overflow:visible;enable-background:accumulate"
       d="M 0.74307814,15.049945 C 0.74307814,15.049945 18.045781,15.634076 23.518437,14.009635 C 28.991095,12.385194 45.327796,3.6065336 45.327796,3.6065336 C 45.327796,3.6065336 46.408416,12.2634 46.408416,20.400111 C 46.408416,28.536822 45.327796,37.193688 45.327796,37.193688 C 45.327796,37.193688 31.166074,29.687158 23.518437,27.830897 C 15.870801,25.974637 0.74307814,26.790587 0.74307814,26.790587 L 0.74307814,15.049945 z "
       id="path2171"
       sodipodi:nodetypes="czczczcc" />
    <path
       style="opacity:0.7;color:#000000;fill:none;fill-opacity:1;fill-rule:nonzero;stroke:#ffffff;stroke-width:1;stroke-linecap:butt;stroke-linejoin:bevel;marker:none;marker-start:none;marker-mid:none;marker-end:none;stroke-miterlimit:4;stroke-dashoffset:0;stroke-opacity:1;visibility:visible;display:inline;overflow:visible;enable-background:accumulate"
       d="M 3.8171089,15.516275 C 3.8171089,15.516275 19.611674,16.049492 24.607322,14.56664 C 29.602972,13.083788 44.515732,5.0702944 44.515732,5.0702944 C 44.515732,5.0702944 45.415001,12.972611 45.415001,20.400109 C 45.415001,27.827608 44.515732,35.729925 44.515732,35.729925 C 44.515732,35.729925 31.588374,28.877679 24.607322,27.183215 C 17.626268,25.488747 3.8171089,26.233579 3.8171089,26.233579 L 3.8171089,15.516275 z "
       id="path3157"
       sodipodi:nodetypes="czczczcc" />
    <path
       style="color:#000000;fill:url(#linearGradient3401);fill-opacity:1.0;fill-rule:nonzero;stroke:#888a85;stroke-width:1;stroke-linecap:butt;stroke-linejoin:miter;marker:none;marker-start:none;marker-mid:none;marker-end:none;stroke-miterlimit:0;stroke-dasharray:none;stroke-dashoffset:0;stroke-opacity:1;visibility:visible;display:inline;overflow:visible;enable-background:accumulate"
       d="M 45.318508,3.592601 C 45.318508,3.592601 28.977164,12.37126 23.504506,13.995702 C 18.031849,15.620143 0.74772218,15.036012 0.74772218,15.036012 L 0.74772218,26.80452 C 0.74772218,26.80452 3.749508,26.627219 7.704796,26.609462 L 14.184807,42.4074 L 22.447287,42.53921 L 16.677471,26.86954 C 19.19434,27.053723 21.576298,27.376809 23.504506,27.84483 C 31.152142,29.701091 45.31851,37.207621 45.318508,37.207621 C 45.318508,37.207621 41.15727,28.536822 41.157268,20.400111 C 41.157268,12.2634 45.31851,3.5926011 45.318508,3.592601 z "
       id="rect2168"
       sodipodi:nodetypes="csccccccscsc" />
    <path
       style="opacity:0.54666664;color:#000000;fill:#000000;fill-opacity:1;fill-rule:nonzero;stroke:#2e3436;stroke-width:1;stroke-linecap:butt;stroke-linejoin:miter;marker:none;marker-start:none;marker-mid:none;marker-end:none;stroke-miterlimit:2.20000005;stroke-dasharray:none;stroke-dashoffset:0;stroke-opacity:1;visibility:visible;display:inline;overflow:visible;enable-background:accumulate"
       d="M 16.977679,28.705357 C 16.169393,28.705357 15.508929,29.36582 15.508929,30.174107 C 15.508929,30.982393 16.169393,31.642857 16.977679,31.642857 C 17.450089,31.642857 17.842478,31.397979 18.102679,31.049107 L 17.258929,28.736607 C 17.164369,28.716969 17.078715,28.705357 16.977679,28.705357 z M 18.540179,32.705357 C 17.731893,32.705357 17.071429,33.365822 17.071429,34.174107 C 17.071429,34.982393 17.731894,35.642857 18.540179,35.642857 C 18.968095,35.642857 19.333692,35.437016 19.602679,35.142857 L 18.727679,32.736607 C 18.662291,32.727624 18.607947,32.705357 18.540179,32.705357 z M 20.071429,36.642857 C 19.263143,36.642857 18.602678,37.30332 18.602679,38.111607 C 18.602679,38.919893 19.263143,39.580359 20.071429,39.580357 C 20.467251,39.580357 20.806709,39.399428 21.071429,39.142857 L 20.165179,36.642857 C 20.132448,36.640655 20.104697,36.642857 20.071429,36.642857 z "
       id="path4492" />
    <path
       style="color:#000000;fill:#eeeeec;fill-opacity:1;fill-rule:nonzero;stroke:#888a85;stroke-width:1;stroke-linecap:butt;stroke-linejoin:miter;marker:none;marker-start:none;marker-mid:none;marker-end:none;stroke-miterlimit:0;stroke-dasharray:none;stroke-dashoffset:0;stroke-opacity:1;visibility:visible;display:inline;overflow:visible;enable-background:accumulate"
       d="M 0.52015508,15.049945 C 0.52015508,15.049945 17.971474,15.634076 23.44413,14.009635 C 28.916788,12.385194 45.253489,3.6065336 45.253489,3.6065336 C 45.253489,3.6065336 43.092248,12.2634 43.092248,20.400111 C 43.092248,28.536822 45.253489,37.193688 45.253489,37.193688 C 45.253489,37.193688 31.091767,29.687158 23.44413,27.830897 C 15.796493,25.974637 0.52015508,26.790587 0.52015508,26.790587 L 0.52015508,15.049945 z "
       id="path3147"
       sodipodi:nodetypes="czczczcc" />
    <path
       style="color:#000000;fill:#3465a4;fill-opacity:1;fill-rule:nonzero;stroke:#204a87;stroke-width:1;stroke-linecap:butt;stroke-linejoin:miter;marker:none;marker-start:none;marker-mid:none;marker-end:none;stroke-miterlimit:4;stroke-dashoffset:0;stroke-opacity:1;visibility:visible;display:inline;overflow:visible;enable-background:accumulate"
       d="M 20.312161,14.708878 C 21.240946,14.535204 22.075966,14.415745 23.44413,14.009635 C 23.44413,14.009635 22.44413,17.464951 22.44413,20.920266 C 22.44413,24.375582 23.44413,27.830897 23.44413,27.830897 C 22.488176,27.598865 21.064704,27.557201 20.345842,27.401862 C 20.345842,27.401862 19.837422,24.228616 19.829002,21.05537 C 19.820581,17.882124 20.312161,14.708878 20.312161,14.708878 z "
       id="path3151"
       sodipodi:nodetypes="ccsccsc" />
    <path
       style="opacity:0.7;color:#000000;fill:none;fill-opacity:1;fill-rule:nonzero;stroke:#eeeeec;stroke-width:1;stroke-linecap:butt;stroke-linejoin:miter;marker:none;marker-start:none;marker-mid:none;marker-end:none;stroke-miterlimit:2.20000005;stroke-dasharray:none;stroke-dashoffset:0;stroke-opacity:1;visibility:visible;display:inline;overflow:visible;enable-background:accumulate"
       d="M 9.1767572,27.667294 L 14.851671,41.515418 L 20.933441,41.425257 L 16.019102,27.888349 C 16.019102,27.888349 9.1767572,27.667294 9.1767572,27.667294 z "
       id="path3155"
       sodipodi:nodetypes="ccccc" />
    <g
       id="g3183"
       transform="matrix(1.0403101,0,0,1.0403101,-1.0403108,2.7148394)">
      <path
         id="path3177"
         d="M 3.9285715,14.428572 C 15.785715,14.428572 16.071429,14.428572 16.071429,14.428572"
         style="fill:none;fill-rule:evenodd;stroke:#000000;stroke-width:0.96125185px;stroke-linecap:butt;stroke-linejoin:miter;stroke-opacity:1" />
      <path
         id="path3179"
         d="M 3.9285715,16.464286 C 15.785715,16.464286 16.071429,16.464286 16.071429,16.464286"
         style="fill:none;fill-rule:evenodd;stroke:#000000;stroke-width:0.96125185px;stroke-linecap:butt;stroke-linejoin:miter;stroke-opacity:1" />
      <path
         id="path3181"
         d="M 3.9285715,18.5 C 15.785714,18.5 16.071428,18.5 16.071428,18.5"
         style="fill:none;fill-rule:evenodd;stroke:#000000;stroke-width:0.96125185px;stroke-linecap:butt;stroke-linejoin:miter;stroke-opacity:1" />
    </g>
    <path
       style="opacity:0.5;color:#000000;fill:url(#linearGradient3209);fill-opacity:1;fill-rule:nonzero;stroke:#888a85;stroke-width:1;stroke-linecap:butt;stroke-linejoin:miter;marker:none;marker-start:none;marker-mid:none;marker-end:none;stroke-miterlimit:0;stroke-dasharray:none;stroke-dashoffset:0;stroke-opacity:1;visibility:visible;display:inline;overflow:visible;enable-background:accumulate"
       d="M 45.318508,3.592601 C 45.318508,3.592601 44.302735,4.1421365 42.685223,4.9905177 C 40.264702,6.2600758 36.50068,8.2193701 32.834787,9.9970101 C 30.376354,11.189137 27.955816,12.291609 26.007752,13.085431 C 25.037167,13.480937 24.188588,13.792647 23.504506,13.995702 C 22.478382,14.300285 21.0406,14.543214 19.375775,14.710915 C 16.601067,14.990417 13.206199,15.097902 10.078003,15.133541 C 5.0728896,15.190564 0.74772218,15.036012 0.74772218,15.036012 L 0.74772218,26.80452 C 0.74772218,26.80452 1.6807403,26.754482 3.2184587,26.706991 C 4.4265092,26.66498 5.9209641,26.61747 7.704796,26.609462 L 14.256235,42.4074 L 22.447287,42.53921 L 16.677471,26.86954 C 16.698745,26.871096 16.721232,26.867967 16.74249,26.86954 C 17.349226,26.914566 17.9443,26.970796 18.530523,27.032088 C 18.541225,27.033165 18.552339,27.031006 18.563033,27.032088 C 19.159064,27.094764 19.753292,27.179959 20.318556,27.259656 C 20.328815,27.261039 20.340818,27.258266 20.351066,27.259656 C 20.914921,27.339585 21.452977,27.422645 21.97655,27.519733 C 21.986728,27.521563 21.9989,27.517896 22.00906,27.519733 C 22.531049,27.617059 23.032266,27.730207 23.504506,27.84483 C 25.416415,28.308896 27.732937,29.123225 30.136483,30.087999 C 34.943574,32.017546 40.082628,34.53928 42.97781,36.004763 C 42.985204,36.008505 43.002956,36.001034 43.01032,36.004763 C 44.429749,36.7237 45.318508,37.207621 45.318508,37.207621 C 45.318508,37.207621 46.39913,28.536822 46.399128,20.400111 C 46.399128,12.2634 45.31851,3.5926011 45.318508,3.592601 z "
       id="path3159"
       sodipodi:nodetypes="cssssssccsccccssssssssssscsc" />
    <path
       style="color:#000000;fill:url(#linearGradient3228);fill-opacity:1.0;fill-rule:nonzero;stroke:#2e3436;stroke-width:1;stroke-linecap:butt;stroke-linejoin:miter;marker:none;marker-start:none;marker-mid:none;marker-end:none;stroke-miterlimit:0;stroke-dasharray:none;stroke-dashoffset:0;stroke-opacity:1;visibility:visible;display:inline;overflow:visible;enable-background:accumulate;opacity:0.46"
       d="M 0.52015508,15.049945 C 0.52015508,15.049945 17.971474,15.634076 23.44413,14.009635 C 28.916788,12.385194 45.253489,3.6065336 45.253489,3.6065336 C 45.253489,3.6065336 43.092248,12.2634 43.092248,20.400111 C 43.092248,28.536822 45.253489,37.193688 45.253489,37.193688 C 45.253489,37.193688 31.091767,29.687158 23.44413,27.830897 C 15.796493,25.974637 0.52015508,26.790587 0.52015508,26.790587 L 0.52015508,15.049945 z "
       id="path3173"
       sodipodi:nodetypes="czczczcc" />
    <path
       style="color:#000000;fill:none;fill-opacity:1;fill-rule:nonzero;stroke:#204a87;stroke-width:1;stroke-linecap:butt;stroke-linejoin:miter;marker:none;marker-start:none;marker-mid:none;marker-end:none;stroke-miterlimit:4;stroke-dashoffset:0;stroke-opacity:1;visibility:visible;display:inline;overflow:visible;enable-background:accumulate"
       d="M 23.44413,27.830897 C 22.488176,27.598865 21.064704,27.557201 20.345842,27.401862 M 20.312161,14.708878 C 21.240946,14.535204 22.075966,14.415745 23.44413,14.009635"
       id="path3175"
       sodipodi:nodetypes="cccc" />
    <path
       style="opacity:0.7;color:#000000;fill:none;fill-opacity:1;fill-rule:nonzero;stroke:#ffffff;stroke-width:1;stroke-linecap:butt;stroke-linejoin:miter;marker:none;marker-start:none;marker-mid:none;marker-end:none;stroke-miterlimit:3.70000005;stroke-dasharray:none;stroke-dashoffset:0;stroke-opacity:1;visibility:visible;display:inline;overflow:visible;enable-background:accumulate"
       d="M 1.5456076,16.051023 C 1.5456076,16.051023 18.766494,16.393466 23.367173,15.027853 C 27.967852,13.662239 43.764917,5.4764438 43.764917,5.4764438 C 43.764917,5.4764438 41.912438,13.411236 41.912438,20.251497 C 41.912438,27.091756 43.762038,35.32378 43.762038,35.32378 C 43.762038,35.32378 29.796286,28.207423 23.367173,26.646926 C 16.938061,25.086429 1.5456076,25.920988 1.5456076,25.920988 L 1.5456076,16.051023 z "
       id="path3153"
       sodipodi:nodetypes="czczczcc" />
  </g>
</svg>
