<?xml version="1.0" encoding="UTF-8" standalone="no"?>
<!-- Created with Inkscape (http://www.inkscape.org/) -->
<svg
   xmlns:dc="http://purl.org/dc/elements/1.1/"
   xmlns:cc="http://web.resource.org/cc/"
   xmlns:rdf="http://www.w3.org/1999/02/22-rdf-syntax-ns#"
   xmlns:svg="http://www.w3.org/2000/svg"
   xmlns="http://www.w3.org/2000/svg"
   xmlns:xlink="http://www.w3.org/1999/xlink"
   xmlns:sodipodi="http://sodipodi.sourceforge.net/DTD/sodipodi-0.dtd"
   xmlns:inkscape="http://www.inkscape.org/namespaces/inkscape"
   width="48px"
   height="48px"
   id="svg2160"
   sodipodi:version="0.32"
   inkscape:version="0.45"
   sodipodi:docbase="/home/lse/public_html/Bambus/System/Icons/scalable/apps"
   sodipodi:docname="large-designer.svg"
   inkscape:output_extension="org.inkscape.output.svg.inkscape"
   sodipodi:modified="true">
  <defs
     id="defs2162">
    <linearGradient
       inkscape:collect="always"
       id="linearGradient3341">
      <stop
         style="stop-color:#fff7f7;stop-opacity:1;"
         offset="0"
         id="stop3343" />
      <stop
         style="stop-color:#fff7f7;stop-opacity:0;"
         offset="1"
         id="stop3345" />
    </linearGradient>
    <linearGradient
       inkscape:collect="always"
       id="linearGradient3282">
      <stop
         style="stop-color:#ffffff;stop-opacity:1;"
         offset="0"
         id="stop3284" />
      <stop
         style="stop-color:#ffffff;stop-opacity:0;"
         offset="1"
         id="stop3286" />
    </linearGradient>
    <linearGradient
       inkscape:collect="always"
       id="linearGradient3148">
      <stop
         style="stop-color:#eeeeec;stop-opacity:1"
         offset="0"
         id="stop3150" />
      <stop
         style="stop-color:#d3d7cf;stop-opacity:0;"
         offset="1"
         id="stop3152" />
    </linearGradient>
    <radialGradient
       inkscape:collect="always"
       xlink:href="#linearGradient3148"
       id="radialGradient3213"
       gradientUnits="userSpaceOnUse"
       gradientTransform="matrix(1.6593425,0,0,-3.4202667,-15.82486,129.07893)"
       cx="24.000969"
       cy="33.5"
       fx="24.000969"
       fy="33.5"
       r="9.0009689" />
    <radialGradient
       inkscape:collect="always"
       xlink:href="#linearGradient3148"
       id="radialGradient3259"
       gradientUnits="userSpaceOnUse"
       gradientTransform="matrix(1.6593425,0,0,-3.4202667,-15.82486,129.07893)"
       cx="24.000969"
       cy="33.5"
       fx="24.000969"
       fy="33.5"
       r="9.0009689" />
    <linearGradient
       inkscape:collect="always"
       xlink:href="#linearGradient3282"
       id="linearGradient3288"
       x1="29.294424"
       y1="-1.2954441"
       x2="29.294424"
       y2="50.640003"
       gradientUnits="userSpaceOnUse"
       gradientTransform="matrix(1.0213674,0,0,1,-0.5915806,0)" />
    <linearGradient
       inkscape:collect="always"
       xlink:href="#linearGradient3282"
       id="linearGradient3290"
       x1="29.294424"
       y1="-1.2954441"
       x2="29.294424"
       y2="50.640003"
       gradientUnits="userSpaceOnUse"
       gradientTransform="translate(0,0.199975)" />
    <radialGradient
       inkscape:collect="always"
       xlink:href="#linearGradient3148"
       id="radialGradient3293"
       gradientUnits="userSpaceOnUse"
       gradientTransform="matrix(2.342334,0,0,-4.7270562,-31.718287,165.77151)"
       cx="24.000969"
       cy="33.5"
       fx="24.000969"
       fy="33.5"
       r="9.0009689" />
    <linearGradient
       inkscape:collect="always"
       xlink:href="#linearGradient3341"
       id="linearGradient3347"
       x1="29.071428"
       y1="-0.92857116"
       x2="28.571428"
       y2="48.5"
       gradientUnits="userSpaceOnUse"
       gradientTransform="matrix(1.0213674,0,0,1,-0.5915806,0)" />
  </defs>
  <sodipodi:namedview
     id="base"
     pagecolor="#ffffff"
     bordercolor="#666666"
     borderopacity="1.0"
     inkscape:pageopacity="0.0"
     inkscape:pageshadow="2"
     inkscape:zoom="19.79899"
     inkscape:cx="24"
     inkscape:cy="23.325176"
     inkscape:current-layer="layer1"
     showgrid="true"
     inkscape:grid-bbox="true"
     inkscape:document-units="px"
     inkscape:window-width="1272"
     inkscape:window-height="949"
     inkscape:window-x="0"
     inkscape:window-y="24" />
  <metadata
     id="metadata2165">
    <rdf:RDF>
      <cc:Work
         rdf:about="">
        <dc:format>image/svg+xml</dc:format>
        <dc:type
           rdf:resource="http://purl.org/dc/dcmitype/StillImage" />
      </cc:Work>
    </rdf:RDF>
  </metadata>
  <g
     id="layer1"
     inkscape:label="Layer 1"
     inkscape:groupmode="layer">
    <path
       sodipodi:type="arc"
       style="color:#000000;fill:#2e3436;fill-opacity:1;fill-rule:nonzero;stroke:#555753;stroke-width:0.72193396;stroke-linecap:square;stroke-linejoin:miter;marker:none;marker-start:none;marker-mid:none;marker-end:none;stroke-miterlimit:4;stroke-dasharray:none;stroke-dashoffset:0;stroke-opacity:1;visibility:visible;display:inline;overflow:visible;enable-background:accumulate"
       id="path2168"
       sodipodi:cx="23.928572"
       sodipodi:cy="21.5"
       sodipodi:rx="8.6428576"
       sodipodi:ry="1.5"
       d="M 32.571429 21.5 A 8.6428576 1.5 0 1 1  15.285714,21.5 A 8.6428576 1.5 0 1 1  32.571429 21.5 z"
       transform="matrix(1.3882712,0,0,1.3820724,-8.7207166,-10.551809)" />
    <g
       id="g3193"
       transform="matrix(-1.7220448,0.1797747,-0.1390542,-1.3319876,26.931808,57.371113)">
      <path
         sodipodi:nodetypes="cszccc"
         id="path3195"
         d="M 0.52120371,17.348216 C 0.52120371,19.472431 0.13284138,18.988004 -0.3456765,18.988004 C -0.8241944,18.988004 -1.313572,19.345439 -1.313572,17.752277 C -1.313572,16.159116 -2.2266339,14.414916 -2.0697286,13.718389 C -2.0697286,13.718389 0.87329934,14.021435 0.87329934,14.021435 C 1.0302047,14.717962 0.52120371,16.286108 0.52120371,17.348216 z "
         style="color:#000000;fill:#edd400;fill-opacity:1;fill-rule:nonzero;stroke:#c4a000;stroke-width:0.65671039;stroke-linecap:square;stroke-linejoin:miter;marker:none;marker-start:none;marker-mid:none;marker-end:none;stroke-miterlimit:4;stroke-dashoffset:0;stroke-opacity:1;visibility:visible;display:inline;overflow:visible;enable-background:accumulate" />
      <path
         sodipodi:nodetypes="cccc"
         id="path3197"
         d="M -0.34567655,42.646192 L -1.2043062,19.020305 L 0.51295315,19.020305 L -0.34567655,42.646192 z "
         style="color:#000000;fill:#c17d11;fill-opacity:1;fill-rule:nonzero;stroke:#8f5902;stroke-width:0.65671045;stroke-linecap:square;stroke-linejoin:miter;marker:none;marker-start:none;marker-mid:none;marker-end:none;stroke-miterlimit:4;stroke-dashoffset:0;stroke-opacity:1;visibility:visible;display:inline;overflow:visible;enable-background:accumulate" />
    </g>
    <g
       id="g3166"
       transform="matrix(1.212389,-0.6635035,0.6635035,1.212389,-1.1768537,-13.294132)">
      <path
         sodipodi:nodetypes="csssc"
         id="path3163"
         d="M 0.52120371,17.348216 C 0.52120371,19.472431 0.13284138,18.988004 -0.3456765,18.988004 C -0.8241944,18.988004 -1.2125567,19.472431 -1.2125567,17.348216 C -1.2125567,15.224 -0.8241944,13.499999 -0.3456765,13.499999 C 0.13284138,13.499999 0.52120371,15.224 0.52120371,17.348216 z "
         style="color:#000000;fill:#edd400;fill-opacity:1;fill-rule:nonzero;stroke:#c4a000;stroke-width:0.72355109;stroke-linecap:square;stroke-linejoin:miter;marker:none;marker-start:none;marker-mid:none;marker-end:none;stroke-miterlimit:4;stroke-dashoffset:0;stroke-opacity:1;visibility:visible;display:inline;overflow:visible;enable-background:accumulate" />
      <path
         sodipodi:nodetypes="cccc"
         id="rect3160"
         d="M -0.34567655,42.646192 L -1.2043062,19.020305 L 0.51295315,19.020305 L -0.34567655,42.646192 z "
         style="color:#000000;fill:#c17d11;fill-opacity:1;fill-rule:nonzero;stroke:#8f5902;stroke-width:0.72355115;stroke-linecap:square;stroke-linejoin:miter;marker:none;marker-start:none;marker-mid:none;marker-end:none;stroke-miterlimit:4;stroke-dashoffset:0;stroke-opacity:1;visibility:visible;display:inline;overflow:visible;enable-background:accumulate" />
    </g>
    <g
       id="g3172"
       transform="matrix(1.6826188,0.4081066,-0.3156671,1.3014919,42.032696,-14.498511)">
      <path
         sodipodi:nodetypes="cszccc"
         id="path3174"
         d="M 0.52120371,17.348216 C 0.52120371,19.472431 0.13284138,18.988004 -0.3456765,18.988004 C -0.8241944,18.988004 -1.313572,19.345439 -1.313572,17.752277 C -1.313572,16.159116 -2.2266339,14.414916 -2.0697286,13.718389 C -2.0697286,13.718389 0.87329934,14.021435 0.87329934,14.021435 C 1.0302047,14.717962 0.52120371,16.286108 0.52120371,17.348216 z "
         style="color:#000000;fill:#edd400;fill-opacity:1;fill-rule:nonzero;stroke:#c4a000;stroke-width:0.65671039;stroke-linecap:square;stroke-linejoin:miter;marker:none;marker-start:none;marker-mid:none;marker-end:none;stroke-miterlimit:4;stroke-dashoffset:0;stroke-opacity:1;visibility:visible;display:inline;overflow:visible;enable-background:accumulate" />
      <path
         sodipodi:nodetypes="cccc"
         id="path3176"
         d="M -0.34567655,42.646192 L -1.2043062,19.020305 L 0.51295315,19.020305 L -0.34567655,42.646192 z "
         style="color:#000000;fill:#c17d11;fill-opacity:1;fill-rule:nonzero;stroke:#8f5902;stroke-width:0.65671045;stroke-linecap:square;stroke-linejoin:miter;marker:none;marker-start:none;marker-mid:none;marker-end:none;stroke-miterlimit:4;stroke-dashoffset:0;stroke-opacity:1;visibility:visible;display:inline;overflow:visible;enable-background:accumulate" />
    </g>
    <path
       style="opacity:0.7;color:#000000;fill:url(#linearGradient3290);fill-opacity:1;fill-rule:nonzero;stroke:#8f5902;stroke-width:1;stroke-linecap:square;stroke-linejoin:miter;marker:none;marker-start:none;marker-mid:none;marker-end:none;stroke-miterlimit:4;stroke-dashoffset:0;stroke-opacity:1;visibility:visible;display:inline;overflow:visible;enable-background:accumulate"
       d="M 21.592502,0.51824958 L 23.405002,32.14325 L 26.373752,31.83075 L 21.592502,0.51824958 z M 11.998752,9.4557496 L 9.9362516,10.58075 L 26.623752,38.64325 L 11.998752,9.4557496 z M 33.998752,9.7682496 L 27.998752,40.862 L 36.905002,10.487 L 33.998752,9.7682496 z "
       id="path3241" />
    <path
       style="color:#000000;fill:#888a85;fill-opacity:1;fill-rule:nonzero;stroke:#555753;stroke-width:0.99999994;stroke-linecap:square;stroke-linejoin:miter;marker:none;marker-start:none;marker-mid:none;marker-end:none;stroke-miterlimit:4;stroke-dasharray:none;stroke-dashoffset:0;stroke-opacity:1;visibility:visible;display:inline;overflow:visible;enable-background:accumulate"
       d="M 12.500001,19.853783 L 12.500001,45.422123 L 12.500001,45.508502 C 12.749893,46.614831 18.034599,47.495231 24.498632,47.495231 C 30.962663,47.495231 36.247371,46.614831 36.497263,45.508502 C 36.503417,45.481253 36.497263,45.449632 36.497263,45.422123 L 36.497263,19.853783 L 35.79146,19.853783 C 34.160154,20.664109 29.742034,21.235856 24.498632,21.235856 C 19.25523,21.235856 14.837109,20.664109 13.205803,19.853783 L 12.500001,19.853783 z "
       id="path3156" />
    <path
       style="color:#000000;fill:url(#radialGradient3293);fill-opacity:1;fill-rule:nonzero;stroke:#555753;stroke-width:0.99999994;stroke-linecap:square;stroke-linejoin:miter;marker:none;marker-start:none;marker-mid:none;marker-end:none;stroke-miterlimit:4;stroke-dasharray:none;stroke-dashoffset:0;stroke-opacity:1;visibility:visible;display:inline;overflow:visible;enable-background:accumulate"
       d="M 12.500001,19.853783 L 12.500001,45.422123 L 12.500001,45.508502 C 12.749893,46.614831 18.034599,47.495231 24.498632,47.495231 C 30.962663,47.495231 36.247371,46.614831 36.497263,45.508502 C 36.503417,45.481253 36.497263,45.449632 36.497263,45.422123 L 36.497263,19.853783 L 35.79146,19.853783 C 34.160154,20.664109 29.742034,21.235856 24.498632,21.235856 C 19.25523,21.235856 14.837109,20.664109 13.205803,19.853783 L 12.500001,19.853783 z "
       id="rect3141" />
    <path
       style="opacity:0.7;color:#000000;fill:url(#linearGradient3288);fill-opacity:1;fill-rule:nonzero;stroke:#555753;stroke-width:0.99999994;stroke-linecap:square;stroke-linejoin:miter;marker:none;marker-start:none;marker-mid:none;marker-end:none;stroke-miterlimit:4;stroke-dasharray:none;stroke-dashoffset:0;stroke-opacity:1;visibility:visible;display:inline;overflow:visible;enable-background:accumulate"
       d="M 12.5,19.853783 L 12.5,45.422123 L 12.5,45.508502 C 12.749892,46.614831 18.034599,47.495231 24.498632,47.495231 C 30.962663,47.495231 36.247371,46.614831 36.497263,45.508502 C 36.503417,45.481253 36.497263,45.449632 36.497263,45.422123 L 36.497263,19.853783 L 35.79146,19.853783 C 34.160153,20.664109 29.742034,21.235856 24.498632,21.235856 C 19.25523,21.235856 14.837109,20.664109 13.205802,19.853783 L 12.5,19.853783 z "
       id="path3257" />
    <path
       style="opacity:0.7;color:#000000;fill:none;fill-opacity:1;fill-rule:nonzero;stroke:#ffffff;stroke-width:0.99999988;stroke-linecap:square;stroke-linejoin:miter;marker:none;marker-start:none;marker-mid:none;marker-end:none;stroke-miterlimit:4;stroke-dasharray:none;stroke-dashoffset:0;stroke-opacity:1;visibility:visible;display:inline;overflow:visible;enable-background:accumulate"
       d="M 13.548949,21.021749 L 13.523156,44.73148 L 13.523156,44.808823 C 13.746906,45.799421 18.91728,46.436203 24.705124,46.436203 C 30.492963,46.436203 35.431196,45.849929 35.654947,44.859331 C 35.660458,44.834933 35.654947,44.806619 35.654947,44.781988 L 35.4486,21.047003 L 34.816632,21.249033 C 33.355972,21.974593 29.219468,22.385516 24.524569,22.385516 C 19.829668,22.385516 16.234827,21.696801 14.387265,21.299541 L 13.548949,21.021749 z "
       id="path3306"
       sodipodi:nodetypes="cccsscccscc" />
    <path
       style="color:#000000;fill:#ef2929;fill-opacity:1;fill-rule:nonzero;stroke:#cc0000;stroke-width:0.99999994;stroke-linecap:square;stroke-linejoin:miter;marker:none;marker-start:none;marker-mid:none;marker-end:none;stroke-miterlimit:4;stroke-dashoffset:0;stroke-opacity:1;visibility:visible;display:inline;overflow:visible;enable-background:accumulate"
       d="M 28.07966,28.999999 C 26.620564,36.212571 24.741831,28.428571 23.848281,27.428571 C 23.211892,26.716368 23.483507,25.784 23.483507,24.285714 C 23.483507,23.536571 17.497165,21.946912 18.379005,20.938143 C 18.379005,20.938143 22.927577,21.12685 23.410553,21.142857 C 29.73019,21.357143 33.304976,20.161143 33.621892,20.652429 C 33.938808,21.143714 31.143762,24.750856 28.07966,28.999999 z "
       id="path2365"
       sodipodi:nodetypes="csssssc" />
    <path
       style="opacity:0.5;color:#000000;fill:#ef2929;fill-opacity:1;fill-rule:nonzero;stroke:#eeeeec;stroke-width:0.99999994;stroke-linecap:square;stroke-linejoin:miter;marker:none;marker-start:none;marker-mid:none;marker-end:none;stroke-miterlimit:4;stroke-dasharray:none;stroke-dashoffset:0;stroke-opacity:1;visibility:visible;display:inline;overflow:visible;enable-background:accumulate"
       d="M 27.157132,28.520905 C 26.317494,33.845386 26.588165,29.117802 24.677928,26.774584 C 24.224392,26.218247 24.571929,24.426842 24.489766,23.79358 C 24.410825,23.185163 19.25199,21.320133 19.25199,21.320133 C 19.25199,21.320133 21.007409,22.250295 25.440832,22.19782 C 30.07195,21.992397 32.030667,21.690382 32.030667,21.690382 C 32.030667,21.690382 29.797349,25.097299 27.157132,28.520905 z "
       id="path3337"
       sodipodi:nodetypes="cszccsc" />
    <path
       style="opacity:0.7;color:#000000;fill:url(#linearGradient3347);fill-opacity:1;fill-rule:nonzero;stroke:#cc0000;stroke-width:0.99999994;stroke-linecap:square;stroke-linejoin:miter;marker:none;marker-start:none;marker-mid:none;marker-end:none;stroke-miterlimit:4;stroke-dashoffset:0;stroke-opacity:1;visibility:visible;display:inline;overflow:visible;enable-background:accumulate"
       d="M 28.07966,28.999999 C 26.620564,36.212571 24.741831,28.428571 23.848281,27.428571 C 23.211892,26.716368 23.483507,25.784 23.483507,24.285714 C 23.483507,23.536571 17.497165,21.946912 18.379005,20.938143 C 18.379005,20.938143 22.927577,21.12685 23.410553,21.142857 C 29.73019,21.357143 33.304976,20.161143 33.621892,20.652429 C 33.938808,21.143714 31.143762,24.750856 28.07966,28.999999 z "
       id="path3339"
       sodipodi:nodetypes="csssssc" />
  </g>
</svg>
