<?xml version="1.0" encoding="UTF-8" standalone="no"?>
<!-- Created with Inkscape (http://www.inkscape.org/) -->
<svg
   xmlns:dc="http://purl.org/dc/elements/1.1/"
   xmlns:cc="http://web.resource.org/cc/"
   xmlns:rdf="http://www.w3.org/1999/02/22-rdf-syntax-ns#"
   xmlns:svg="http://www.w3.org/2000/svg"
   xmlns="http://www.w3.org/2000/svg"
   xmlns:xlink="http://www.w3.org/1999/xlink"
   xmlns:sodipodi="http://sodipodi.sourceforge.net/DTD/sodipodi-0.dtd"
   xmlns:inkscape="http://www.inkscape.org/namespaces/inkscape"
   width="48"
   height="48"
   id="svg2081"
   sodipodi:version="0.32"
   inkscape:version="0.45"
   sodipodi:docbase="/home/lse/public_html/Bambus/System/Icons/scalable/apps"
   sodipodi:docname="large-configuration.svg"
   inkscape:export-filename="/home/lse/public_html/Bambus/System/Icons/48x48/action-configure.png"
   inkscape:export-xdpi="67.5"
   inkscape:export-ydpi="67.5"
   version="1.0"
   inkscape:output_extension="org.inkscape.output.svg.inkscape"
   sodipodi:modified="true">
  <defs
     id="defs2083">
    <linearGradient
       inkscape:collect="always"
       id="linearGradient3167">
      <stop
         style="stop-color:#ffffff;stop-opacity:1;"
         offset="0"
         id="stop3169" />
      <stop
         style="stop-color:#ffffff;stop-opacity:0;"
         offset="1"
         id="stop3171" />
    </linearGradient>
    <linearGradient
       inkscape:collect="always"
       id="linearGradient3353">
      <stop
         style="stop-color:white;stop-opacity:1;"
         offset="0"
         id="stop3355" />
      <stop
         style="stop-color:white;stop-opacity:0;"
         offset="1"
         id="stop3357" />
    </linearGradient>
    <linearGradient
       inkscape:collect="always"
       id="linearGradient3338">
      <stop
         style="stop-color:white;stop-opacity:1;"
         offset="0"
         id="stop3340" />
      <stop
         style="stop-color:white;stop-opacity:0;"
         offset="1"
         id="stop3342" />
    </linearGradient>
    <linearGradient
       inkscape:collect="always"
       id="linearGradient2770">
      <stop
         style="stop-color:white;stop-opacity:1;"
         offset="0"
         id="stop2772" />
      <stop
         style="stop-color:white;stop-opacity:0;"
         offset="1"
         id="stop2774" />
    </linearGradient>
    <linearGradient
       inkscape:collect="always"
       id="linearGradient2872">
      <stop
         style="stop-color:white;stop-opacity:1;"
         offset="0"
         id="stop2874" />
      <stop
         style="stop-color:white;stop-opacity:0;"
         offset="1"
         id="stop2876" />
    </linearGradient>
    <linearGradient
       inkscape:collect="always"
       xlink:href="#linearGradient2872"
       id="linearGradient2878"
       x1="0.59999996"
       y1="0.84300065"
       x2="51.484303"
       y2="43.140842"
       gradientUnits="userSpaceOnUse"
       gradientTransform="translate(-0.6,1.414214)" />
    <linearGradient
       inkscape:collect="always"
       xlink:href="#linearGradient2770"
       id="linearGradient2776"
       x1="30.298485"
       y1="-0.73729056"
       x2="30.298485"
       y2="70.658356"
       gradientUnits="userSpaceOnUse"
       gradientTransform="translate(-38.25985,-23.27024)" />
    <linearGradient
       inkscape:collect="always"
       xlink:href="#linearGradient3338"
       id="linearGradient3344"
       x1="31.369827"
       y1="-1.8252131"
       x2="31.369827"
       y2="70.173874"
       gradientUnits="userSpaceOnUse" />
    <linearGradient
       inkscape:collect="always"
       xlink:href="#linearGradient3338"
       id="linearGradient3348"
       gradientUnits="userSpaceOnUse"
       x1="31.369827"
       y1="-1.8252131"
       x2="31.369827"
       y2="70.173874"
       gradientTransform="translate(-69.62876,-26)" />
    <linearGradient
       inkscape:collect="always"
       xlink:href="#linearGradient3353"
       id="linearGradient3359"
       x1="-37.81818"
       y1="-29.636364"
       x2="-37.81818"
       y2="43.818436"
       gradientUnits="userSpaceOnUse" />
    <linearGradient
       inkscape:collect="always"
       xlink:href="#linearGradient3353"
       id="linearGradient3369"
       gradientUnits="userSpaceOnUse"
       x1="-37.81818"
       y1="-29.636364"
       x2="-37.81818"
       y2="43.818436" />
    <linearGradient
       inkscape:collect="always"
       xlink:href="#linearGradient3338"
       id="linearGradient3371"
       gradientUnits="userSpaceOnUse"
       x1="31.369827"
       y1="-1.8252131"
       x2="31.369827"
       y2="70.173874" />
    <linearGradient
       inkscape:collect="always"
       xlink:href="#linearGradient3338"
       id="linearGradient3374"
       gradientUnits="userSpaceOnUse"
       x1="23.913065"
       y1="-2.9116881"
       x2="23.913065"
       y2="53.142662" />
    <linearGradient
       inkscape:collect="always"
       xlink:href="#linearGradient3167"
       id="linearGradient3173"
       x1="25.272728"
       y1="-0.81818181"
       x2="25.272728"
       y2="48.925377"
       gradientUnits="userSpaceOnUse" />
  </defs>
  <sodipodi:namedview
     id="base"
     pagecolor="#ffffff"
     bordercolor="#666666"
     borderopacity="1.0"
     inkscape:pageopacity="0.0"
     inkscape:pageshadow="2"
     inkscape:zoom="11"
     inkscape:cx="24.70051"
     inkscape:cy="22.928795"
     inkscape:current-layer="layer1"
     showgrid="true"
     inkscape:document-units="px"
     inkscape:grid-bbox="true"
     inkscape:window-width="1272"
     inkscape:window-height="945"
     inkscape:window-x="0"
     inkscape:window-y="24"
     showguides="true"
     inkscape:guide-bbox="true"
     width="48px"
     height="48px" />
  <metadata
     id="metadata2086">
    <rdf:RDF>
      <cc:Work
         rdf:about="">
        <dc:format>image/svg+xml</dc:format>
        <dc:type
           rdf:resource="http://purl.org/dc/dcmitype/StillImage" />
      </cc:Work>
    </rdf:RDF>
  </metadata>
  <g
     id="layer1"
     inkscape:label="Layer 1"
     inkscape:groupmode="layer">
    <path
       style="color:#000000;fill:#75507b;fill-opacity:1;fill-rule:nonzero;stroke:#5c3566;stroke-width:1;stroke-linecap:butt;stroke-linejoin:miter;marker:none;stroke-miterlimit:4;stroke-dasharray:none;stroke-dashoffset:0;stroke-opacity:1;visibility:visible;display:inline;overflow:visible"
       d="M 19.470734,0.49999913 L 19.470734,0.54742247 L 19.423311,8.4677208 C 18.338136,8.7907073 17.271806,9.2156239 16.293138,9.7482399 L 16.245713,9.7482399 L 10.649345,4.1992865 L 10.601917,4.1518632 L 4.1518675,10.601927 L 4.1992931,10.64935 L 9.7482348,16.245704 C 9.2028329,17.240102 8.7503108,18.271521 8.420283,19.37589 L 0.59485343,19.423313 L 0.50000005,19.423313 L 0.50000005,28.529261 L 0.59485343,28.529261 L 8.420283,28.576685 C 8.7455239,29.676287 9.1614104,30.764195 9.700807,31.754293 L 4.1992931,37.350648 L 4.1518675,37.398071 L 10.601917,43.848134 L 10.649345,43.800711 L 16.245713,38.299181 C 17.235805,38.838591 18.323711,39.254464 19.423311,39.579722 L 19.470734,47.40513 L 19.470734,47.499999 L 28.57669,47.499999 L 28.57669,47.40513 L 28.624118,39.579722 C 29.728487,39.249675 30.759902,38.79716 31.754291,38.251758 L 37.350656,43.800711 L 37.398083,43.848134 L 43.848136,37.398071 L 43.800708,37.350648 L 38.251768,31.754293 L 38.251768,31.706848 C 38.784371,30.728198 39.209303,29.661853 39.532292,28.576685 L 47.452575,28.529261 L 47.500001,28.529261 L 47.500001,19.423313 L 47.452575,19.423313 L 39.532292,19.37589 C 39.206784,18.293216 38.785378,17.270351 38.251768,16.293128 L 43.800708,10.64935 L 43.848136,10.601927 L 37.398083,4.1518632 L 37.350656,4.1992865 L 31.706865,9.7482399 C 30.729645,9.2146216 29.706785,8.7932244 28.624118,8.4677208 L 28.57669,0.54742247 L 28.57669,0.49999913 L 19.470734,0.49999913 z M 24.023714,16.57769 C 28.116501,16.57769 31.422303,19.930914 31.422303,24.02371 C 31.422303,28.116507 28.116501,31.422285 24.023714,31.422285 C 19.930928,31.422285 16.577698,28.116507 16.577698,24.02371 C 16.577698,23.767905 16.599568,23.51426 16.625126,23.264893 C 17.008511,19.524129 20.186729,16.57769 24.023714,16.57769 z "
       id="path3296" />
    <path
       style="opacity:0.7;color:#000000;fill:url(#linearGradient3173);fill-opacity:1.0;fill-rule:nonzero;stroke:#5c3566;stroke-width:1;stroke-linecap:butt;stroke-linejoin:miter;marker:none;stroke-miterlimit:4;stroke-dasharray:none;stroke-dashoffset:0;stroke-opacity:1;visibility:visible;display:inline;overflow:visible"
       d="M 19.470734,0.49999913 L 19.470734,0.54742247 L 19.423311,8.4677208 C 18.338136,8.7907073 17.271806,9.2156239 16.293138,9.7482399 L 16.245713,9.7482399 L 10.649345,4.1992865 L 10.601917,4.1518632 L 4.1518675,10.601927 L 4.1992931,10.64935 L 9.7482348,16.245704 C 9.2028329,17.240102 8.7503108,18.271521 8.420283,19.37589 L 0.59485343,19.423313 L 0.50000005,19.423313 L 0.50000005,28.529261 L 0.59485343,28.529261 L 8.420283,28.576685 C 8.7455239,29.676287 9.1614104,30.764195 9.700807,31.754293 L 4.1992931,37.350648 L 4.1518675,37.398071 L 10.601917,43.848134 L 10.649345,43.800711 L 16.245713,38.299181 C 17.235805,38.838591 18.323711,39.254464 19.423311,39.579722 L 19.470734,47.40513 L 19.470734,47.499999 L 28.57669,47.499999 L 28.57669,47.40513 L 28.624118,39.579722 C 29.728487,39.249675 30.759902,38.79716 31.754291,38.251758 L 37.350656,43.800711 L 37.398083,43.848134 L 43.848136,37.398071 L 43.800708,37.350648 L 38.251768,31.754293 L 38.251768,31.706848 C 38.784371,30.728198 39.209303,29.661853 39.532292,28.576685 L 47.452575,28.529261 L 47.500001,28.529261 L 47.500001,19.423313 L 47.452575,19.423313 L 39.532292,19.37589 C 39.206784,18.293216 38.785378,17.270351 38.251768,16.293128 L 43.800708,10.64935 L 43.848136,10.601927 L 37.398083,4.1518632 L 37.350656,4.1992865 L 31.706865,9.7482399 C 30.729645,9.2146216 29.706785,8.7932244 28.624118,8.4677208 L 28.57669,0.54742247 L 28.57669,0.49999913 L 19.470734,0.49999913 z M 24.023714,16.57769 C 28.116501,16.57769 31.422303,19.930914 31.422303,24.02371 C 31.422303,28.116507 28.116501,31.422285 24.023714,31.422285 C 19.930928,31.422285 16.577698,28.116507 16.577698,24.02371 C 16.577698,23.767905 16.599568,23.51426 16.625126,23.264893 C 17.008511,19.524129 20.186729,16.57769 24.023714,16.57769 z "
       id="path3236" />
    <path
       style="opacity:0.7;color:#000000;fill:none;fill-opacity:1;fill-rule:nonzero;stroke:#ffffff;stroke-width:0.99999994;stroke-linecap:butt;stroke-linejoin:miter;marker:none;stroke-miterlimit:4;stroke-dasharray:none;stroke-dashoffset:0;stroke-opacity:1;visibility:visible;display:inline;overflow:visible"
       d="M 15.454823,23.896507 C 15.51748,18.783464 19.620314,15.726804 23.93417,15.611558 C 28.249497,15.496273 32.382381,18.512711 32.479345,23.843263 C 32.576325,29.174693 28.709069,32.220135 24.025079,32.388423 C 19.431998,32.556711 15.391076,29.098503 15.454823,23.896507 z M 37.014748,31.964462 C 37.578083,30.929341 38.420963,28.48109 38.762589,27.333305 L 46.449833,27.43459 L 46.499996,27.43459 L 46.540742,20.515253 L 38.641504,20.434721 C 38.297213,19.289574 37.579148,17.0035 37.014748,15.969887 L 42.399158,10.545715 L 37.443919,5.5506731 L 31.878655,11.045806 C 30.845046,10.481396 28.952781,9.6422538 27.807641,9.2979682 L 27.666567,1.4090947 L 20.474496,1.5000038 L 20.424337,9.297945 C 19.276544,9.6395916 17.186852,10.42192 16.151711,10.985246 L 10.424421,5.6008565 L 5.5704719,10.606251 L 10.955074,16.131918 C 10.378201,17.183695 9.0819608,19.296999 8.7328894,20.465094 L 1.6003267,20.515253 L 1.5,27.43459 L 9.0356013,27.605846 C 9.3796077,28.768899 10.30402,30.760504 10.874542,31.807734 L 5.5704719,37.393753 L 10.616616,42.419143 L 16.010639,37.03473 C 17.057865,37.605266 19.352195,38.499101 20.515246,38.843127 L 20.565405,46.399656 L 20.565405,46.5 L 27.666567,46.409091 L 27.716732,38.782568 C 28.884826,38.433499 30.786137,37.712889 31.837906,37.136016 L 37.534828,42.449331 L 42.358414,37.534822 L 37.014748,31.964462 z "
       id="path3234"
       sodipodi:nodetypes="czzzzccccccccccccccccccccccccccccccccccc" />
  </g>
</svg>
