<?xml version="1.0" encoding="UTF-8" standalone="no"?>
<!-- Created with Inkscape (http://www.inkscape.org/) -->
<svg
   xmlns:dc="http://purl.org/dc/elements/1.1/"
   xmlns:cc="http://web.resource.org/cc/"
   xmlns:rdf="http://www.w3.org/1999/02/22-rdf-syntax-ns#"
   xmlns:svg="http://www.w3.org/2000/svg"
   xmlns="http://www.w3.org/2000/svg"
   xmlns:xlink="http://www.w3.org/1999/xlink"
   xmlns:sodipodi="http://sodipodi.sourceforge.net/DTD/sodipodi-0.dtd"
   xmlns:inkscape="http://www.inkscape.org/namespaces/inkscape"
   width="22"
   height="22"
   id="svg1872"
   sodipodi:version="0.32"
   inkscape:version="0.44.1"
   version="1.0"
   sodipodi:docbase="/home/lse/public_html/Chimera/System/Icons/scalable/apps"
   sodipodi:docname="small-spore.svg">
  <defs
     id="defs1874">
    <linearGradient
       inkscape:collect="always"
       id="linearGradient2772">
      <stop
         style="stop-color:white;stop-opacity:1;"
         offset="0"
         id="stop2774" />
      <stop
         style="stop-color:white;stop-opacity:0;"
         offset="1"
         id="stop2776" />
    </linearGradient>
    <linearGradient
       inkscape:collect="always"
       xlink:href="#linearGradient2772"
       id="linearGradient2778"
       x1="12.940552"
       y1="3.4758604"
       x2="12.940552"
       y2="23.444246"
       gradientUnits="userSpaceOnUse" />
  </defs>
  <sodipodi:namedview
     id="base"
     pagecolor="#ffffff"
     bordercolor="#666666"
     borderopacity="1.0"
     inkscape:pageopacity="0.0"
     inkscape:pageshadow="2"
     inkscape:zoom="11.197802"
     inkscape:cx="16"
     inkscape:cy="8.6230659"
     inkscape:current-layer="layer1"
     showgrid="true"
     inkscape:grid-bbox="true"
     inkscape:document-units="px"
     inkscape:window-width="927"
     inkscape:window-height="578"
     inkscape:window-x="301"
     inkscape:window-y="164"
     width="22px"
     height="22px" />
  <metadata
     id="metadata1877">
    <rdf:RDF>
      <cc:Work
         rdf:about="">
        <dc:format>image/svg+xml</dc:format>
        <dc:type
           rdf:resource="http://purl.org/dc/dcmitype/StillImage" />
      </cc:Work>
    </rdf:RDF>
  </metadata>
  <g
     id="layer1"
     inkscape:label="Layer 1"
     inkscape:groupmode="layer">
    <path
       sodipodi:type="star"
       style="opacity:1;color:black;fill:#8ae234;fill-opacity:1;fill-rule:evenodd;stroke:#2e3436;stroke-width:0.93546349;stroke-linecap:butt;stroke-linejoin:miter;marker:none;marker-start:none;marker-mid:none;marker-end:none;stroke-miterlimit:4;stroke-dasharray:none;stroke-dashoffset:0;stroke-opacity:1;visibility:visible;display:inline;overflow:visible"
       id="path1880"
       sodipodi:sides="11"
       sodipodi:cx="13.21688"
       sodipodi:cy="13.692836"
       sodipodi:r1="8.9677525"
       sodipodi:r2="4.4838767"
       sodipodi:arg1="0.79948174"
       sodipodi:arg2="1.0850811"
       inkscape:flatsided="false"
       inkscape:rounded="0"
       inkscape:randomized="0"
       d="M 19.468106,20.122669 L 15.310137,17.658113 L 14.999516,22.481624 L 12.834049,18.16034 L 9.9649514,22.050201 L 10.479507,17.244165 L 5.962851,18.965373 L 8.9940618,15.200469 L 4.2638536,14.206552 L 8.8493312,12.67811 L 5.4073787,9.2846303 L 10.091266,10.477919 L 9.0303652,5.7622823 L 12.325562,9.2984414 L 13.982541,4.7578289 L 14.842844,9.514153 L 18.691624,6.5901772 L 16.843895,11.056567 L 21.662515,10.677569 L 17.693393,13.435978 L 21.951976,15.722287 L 17.121631,15.896939 L 19.468106,20.122669 z "
       transform="matrix(1.068992,0,0,1.068985,-2.540452,-3.032565)" />
    <path
       sodipodi:type="star"
       style="opacity:0.5;color:black;fill:none;fill-opacity:1;fill-rule:evenodd;stroke:white;stroke-width:1.49256444;stroke-linecap:butt;stroke-linejoin:miter;marker:none;marker-start:none;marker-mid:none;marker-end:none;stroke-miterlimit:4;stroke-dasharray:none;stroke-dashoffset:0;stroke-opacity:1;visibility:visible;display:inline;overflow:visible"
       id="path2768"
       sodipodi:sides="11"
       sodipodi:cx="13.21688"
       sodipodi:cy="13.692836"
       sodipodi:r1="8.9677525"
       sodipodi:r2="4.4838767"
       sodipodi:arg1="0.79948174"
       sodipodi:arg2="1.0850811"
       inkscape:flatsided="false"
       inkscape:rounded="0"
       inkscape:randomized="0"
       d="M 19.468106,20.122669 L 15.310137,17.658113 L 14.999516,22.481624 L 12.834049,18.16034 L 9.9649514,22.050201 L 10.479507,17.244165 L 5.962851,18.965373 L 8.9940618,15.200469 L 4.2638536,14.206552 L 8.8493312,12.67811 L 5.4073787,9.2846303 L 10.091266,10.477919 L 9.0303652,5.7622823 L 12.325562,9.2984414 L 13.982541,4.7578289 L 14.842844,9.514153 L 18.691624,6.5901772 L 16.843895,11.056567 L 21.662515,10.677569 L 17.693393,13.435978 L 21.951976,15.722287 L 17.121631,15.896939 L 19.468106,20.122669 z "
       transform="matrix(0.66999,0,0,0.669985,2.689634,2.401702)" />
    <path
       sodipodi:type="star"
       style="opacity:0.7;color:black;fill:url(#linearGradient2778);fill-opacity:1;fill-rule:evenodd;stroke:#2e3436;stroke-width:0.93546349;stroke-linecap:butt;stroke-linejoin:miter;marker:none;marker-start:none;marker-mid:none;marker-end:none;stroke-miterlimit:4;stroke-dasharray:none;stroke-dashoffset:0;stroke-opacity:1;visibility:visible;display:inline;overflow:visible"
       id="path2770"
       sodipodi:sides="11"
       sodipodi:cx="13.21688"
       sodipodi:cy="13.692836"
       sodipodi:r1="8.9677525"
       sodipodi:r2="4.4838767"
       sodipodi:arg1="0.79948174"
       sodipodi:arg2="1.0850811"
       inkscape:flatsided="false"
       inkscape:rounded="0"
       inkscape:randomized="0"
       d="M 19.468106,20.122669 L 15.310137,17.658113 L 14.999516,22.481624 L 12.834049,18.16034 L 9.9649514,22.050201 L 10.479507,17.244165 L 5.962851,18.965373 L 8.9940618,15.200469 L 4.2638536,14.206552 L 8.8493312,12.67811 L 5.4073787,9.2846303 L 10.091266,10.477919 L 9.0303652,5.7622823 L 12.325562,9.2984414 L 13.982541,4.7578289 L 14.842844,9.514153 L 18.691624,6.5901772 L 16.843895,11.056567 L 21.662515,10.677569 L 17.693393,13.435978 L 21.951976,15.722287 L 17.121631,15.896939 L 19.468106,20.122669 z "
       transform="matrix(1.068992,0,0,1.068985,-2.540452,-3.032565)" />
  </g>
</svg>
