<?xml version="1.0" encoding="UTF-8" standalone="no"?>
<!-- Created with Inkscape (http://www.inkscape.org/) -->
<svg
   xmlns:dc="http://purl.org/dc/elements/1.1/"
   xmlns:cc="http://web.resource.org/cc/"
   xmlns:rdf="http://www.w3.org/1999/02/22-rdf-syntax-ns#"
   xmlns:svg="http://www.w3.org/2000/svg"
   xmlns="http://www.w3.org/2000/svg"
   xmlns:xlink="http://www.w3.org/1999/xlink"
   xmlns:sodipodi="http://sodipodi.sourceforge.net/DTD/sodipodi-0.dtd"
   xmlns:inkscape="http://www.inkscape.org/namespaces/inkscape"
   width="22"
   height="22"
   id="svg2"
   sodipodi:version="0.32"
   inkscape:version="0.44.1"
   version="1.0"
   sodipodi:docbase="/home/lse/public_html/Chimera/System/Icons/scalable/apps"
   sodipodi:docname="small-user-administration.svg">
  <defs
     id="defs4">
    <linearGradient
       inkscape:collect="always"
       id="linearGradient3148">
      <stop
         style="stop-color:#ffffff;stop-opacity:1;"
         offset="0"
         id="stop3150" />
      <stop
         style="stop-color:#ffffff;stop-opacity:0;"
         offset="1"
         id="stop3152" />
    </linearGradient>
    <linearGradient
       inkscape:collect="always"
       xlink:href="#linearGradient3148"
       id="linearGradient3161"
       gradientUnits="userSpaceOnUse"
       x1="20.830189"
       y1="-5.9514823"
       x2="20.830189"
       y2="49.682541" />
  </defs>
  <sodipodi:namedview
     id="base"
     pagecolor="#ffffff"
     bordercolor="#666666"
     borderopacity="1.0"
     inkscape:pageopacity="0.0"
     inkscape:pageshadow="2"
     inkscape:zoom="33.727273"
     inkscape:cx="11"
     inkscape:cy="9.7991915"
     inkscape:document-units="px"
     inkscape:current-layer="layer1"
     width="22px"
     height="22px"
     inkscape:window-width="1272"
     inkscape:window-height="949"
     inkscape:window-x="0"
     inkscape:window-y="25" />
  <metadata
     id="metadata7">
    <rdf:RDF>
      <cc:Work
         rdf:about="">
        <dc:format>image/svg+xml</dc:format>
        <dc:type
           rdf:resource="http://purl.org/dc/dcmitype/StillImage" />
      </cc:Work>
    </rdf:RDF>
  </metadata>
  <g
     inkscape:label="Ebene 1"
     inkscape:groupmode="layer"
     id="layer1">
    <g
       id="g3156"
       transform="matrix(0.4432748,0,0,0.4432748,0.3614048,0.444447)">
      <path
         sodipodi:nodetypes="czcczcccczcczzzzz"
         id="path2160"
         d="M 12.765625,10.406251 C 11.369141,17.71875 12.251895,19.655071 12.765625,22.65625 C 13.283485,25.681558 16.890625,29.65625 16.890625,29.65625 L 16.890625,32.5 C 16.890625,32.5 12.742187,32.5 8.5937498,32.5 C 4.4453128,32.5 0.29687482,40.5 0.29687482,40.5 L 0.29687482,47.5 L 47.703125,47.5 L 47.703125,40.5 C 47.703125,40.5 43.523437,32.5 39.34375,32.5 C 35.164063,32.5 30.984375,32.5 30.984375,32.5 L 30.984375,29.65625 C 30.984375,29.65625 34.466265,26.045569 35.109375,22.65625 C 35.780952,19.116904 36.505859,17.71875 35.109375,10.406251 C 33.712891,3.0937506 31.361253,2.4180236 29.523437,1.4062506 C 27.63471,0.36644938 20.240937,0.3252356 18.351563,1.4062506 C 16.560484,2.4310257 14.162109,3.0937506 12.765625,10.406251 z "
         style="fill:#75507b;fill-rule:evenodd;stroke:#5c3566;stroke-width:2.2559371px;stroke-linecap:butt;stroke-linejoin:miter;stroke-opacity:1" />
      <path
         sodipodi:nodetypes="czcczcccczcczzzzz"
         id="path3146"
         d="M 12.765625,10.406251 C 11.369141,17.71875 12.251895,19.655071 12.765625,22.65625 C 13.283485,25.681558 16.890625,29.65625 16.890625,29.65625 L 16.890625,32.5 C 16.890625,32.5 12.742187,32.5 8.5937498,32.5 C 4.4453128,32.5 0.29687482,40.5 0.29687482,40.5 L 0.29687482,47.5 L 47.703125,47.5 L 47.703125,40.5 C 47.703125,40.5 43.523437,32.5 39.34375,32.5 C 35.164063,32.5 30.984375,32.5 30.984375,32.5 L 30.984375,29.65625 C 30.984375,29.65625 34.466265,26.045569 35.109375,22.65625 C 35.780952,19.116904 36.505859,17.71875 35.109375,10.406251 C 33.712891,3.0937506 31.361253,2.4180236 29.523437,1.4062506 C 27.63471,0.36644938 20.240937,0.3252356 18.351563,1.4062506 C 16.560484,2.4310257 14.162109,3.0937506 12.765625,10.406251 z "
         style="opacity:0.7;fill:url(#linearGradient3161);fill-opacity:1;fill-rule:evenodd;stroke:#5c3566;stroke-width:2.2559371px;stroke-linecap:butt;stroke-linejoin:miter;stroke-opacity:1" />
      <path
         sodipodi:nodetypes="czcczcccczcczzzzz"
         id="path2173"
         d="M 15.030997,10.740689 C 14.196679,14.974869 14.005127,18.902428 15.063068,22.519729 C 16.094318,26.04577 19.289772,28.881838 19.289772,28.881838 L 19.188068,34.998106 C 19.188068,34.998106 12.568102,34.864331 8.9547663,34.864331 C 5.4083178,34.864331 2.6612055,41.311975 2.6612055,41.311975 L 2.559501,45.304261 L 45.574274,45.336332 L 45.405682,40.910649 C 45.405682,40.910649 41.987768,34.727809 38.811395,34.861584 C 35.568135,34.995359 28.686932,34.861584 28.686932,34.861584 L 28.620044,28.844275 C 28.620044,28.844275 31.352778,26.051263 32.680903,22.62418 C 34.042432,19.110901 33.943287,14.832719 32.913636,10.705872 C 31.853569,6.457119 30.895786,4.6485791 29.05797,3.6368061 C 27.169243,2.5970049 21.038096,2.4540865 19.148722,3.5351015 C 17.357643,4.5598766 15.846139,6.6038252 15.030997,10.740689 z "
         style="opacity:0.5;fill:none;fill-rule:evenodd;stroke:#eeeeec;stroke-width:2.2559371px;stroke-linecap:butt;stroke-linejoin:miter;stroke-opacity:1" />
    </g>
  </g>
</svg>
