<?xml version="1.0" encoding="UTF-8" standalone="no"?>
<!-- Created with Inkscape (http://www.inkscape.org/) -->
<svg
   xmlns:dc="http://purl.org/dc/elements/1.1/"
   xmlns:cc="http://web.resource.org/cc/"
   xmlns:rdf="http://www.w3.org/1999/02/22-rdf-syntax-ns#"
   xmlns:svg="http://www.w3.org/2000/svg"
   xmlns="http://www.w3.org/2000/svg"
   xmlns:xlink="http://www.w3.org/1999/xlink"
   xmlns:sodipodi="http://sodipodi.sourceforge.net/DTD/sodipodi-0.dtd"
   xmlns:inkscape="http://www.inkscape.org/namespaces/inkscape"
   width="22"
   height="22"
   id="svg2160"
   sodipodi:version="0.32"
   inkscape:version="0.44.1"
   sodipodi:docbase="/home/lse/public_html/Chimera/System/Icons/scalable/apps"
   sodipodi:docname="small-news.svg"
   version="1.0">
  <defs
     id="defs2162">
    <linearGradient
       id="linearGradient1890"
       inkscape:collect="always">
      <stop
         id="stop1892"
         offset="0"
         style="stop-color:#204a87;stop-opacity:1" />
      <stop
         id="stop1894"
         offset="1"
         style="stop-color:#000000;stop-opacity:0;" />
    </linearGradient>
    <linearGradient
       inkscape:collect="always"
       id="linearGradient3222">
      <stop
         style="stop-color:#000000;stop-opacity:1;"
         offset="0"
         id="stop3224" />
      <stop
         style="stop-color:#000000;stop-opacity:0;"
         offset="1"
         id="stop3226" />
    </linearGradient>
    <linearGradient
       inkscape:collect="always"
       id="linearGradient3165">
      <stop
         style="stop-color:#ffffff;stop-opacity:1;"
         offset="0"
         id="stop3167" />
      <stop
         style="stop-color:#ffffff;stop-opacity:0;"
         offset="1"
         id="stop3169" />
    </linearGradient>
    <linearGradient
       inkscape:collect="always"
       xlink:href="#linearGradient3165"
       id="linearGradient3209"
       gradientUnits="userSpaceOnUse"
       x1="20.714285"
       y1="1"
       x2="20.428572"
       y2="42.15625"
       gradientTransform="matrix(0.4659271,0,0,0.4636684,-0.1988909,2.10878)" />
    <linearGradient
       inkscape:collect="always"
       xlink:href="#linearGradient1890"
       id="linearGradient3228"
       x1="35.142857"
       y1="35.285713"
       x2="34.857143"
       y2="18.571428"
       gradientUnits="userSpaceOnUse"
       gradientTransform="matrix(0.4478733,0,0,0.4457021,0.2670365,0.89877)" />
    <linearGradient
       inkscape:collect="always"
       xlink:href="#linearGradient3222"
       id="linearGradient3250"
       x1="5.2022853"
       y1="16.848221"
       x2="8.6873121"
       y2="15.989593"
       gradientUnits="userSpaceOnUse" />
  </defs>
  <sodipodi:namedview
     id="base"
     pagecolor="#ffffff"
     bordercolor="#666666"
     borderopacity="1.0"
     inkscape:pageopacity="0.0"
     inkscape:pageshadow="2"
     inkscape:zoom="19.79899"
     inkscape:cx="17.4505"
     inkscape:cy="7.8220973"
     inkscape:current-layer="layer1"
     showgrid="true"
     inkscape:grid-bbox="true"
     inkscape:document-units="px"
     inkscape:window-width="1272"
     inkscape:window-height="951"
     inkscape:window-x="0"
     inkscape:window-y="25"
     width="22px"
     height="22px" />
  <metadata
     id="metadata2165">
    <rdf:RDF>
      <cc:Work
         rdf:about="">
        <dc:format>image/svg+xml</dc:format>
        <dc:type
           rdf:resource="http://purl.org/dc/dcmitype/StillImage" />
      </cc:Work>
    </rdf:RDF>
  </metadata>
  <g
     id="layer1"
     inkscape:label="Layer 1"
     inkscape:groupmode="layer">
    <path
       style="color:#000000;fill:#babdb6;fill-opacity:1;fill-rule:nonzero;stroke:#555753;stroke-width:1;stroke-linecap:butt;stroke-linejoin:bevel;marker:none;marker-start:none;marker-mid:none;marker-end:none;stroke-miterlimit:4;stroke-dashoffset:0;stroke-opacity:1;visibility:visible;display:inline;overflow:visible;enable-background:accumulate"
       d="M 0.59984136,7.606562 C 0.59984136,7.606562 8.34926,7.866911 10.800316,7.142894 C 13.251374,6.418877 20.568146,2.50621 20.568146,2.50621 C 20.568146,2.50621 21.5,6.364593 21.5,9.991142 C 21.5,13.617691 20.568146,17.476075 20.568146,17.476075 C 20.568146,17.476075 14.225489,14.130399 10.800316,13.303059 C 7.3751445,12.47572 0.59984136,12.839391 0.59984136,12.839391 L 0.59984136,7.606562 z "
       id="path2171"
       sodipodi:nodetypes="czczczcc" />
    <path
       style="opacity:0.7;color:#000000;fill:none;fill-opacity:1;fill-rule:nonzero;stroke:#ffffff;stroke-width:1;stroke-linecap:butt;stroke-linejoin:bevel;marker:none;marker-start:none;marker-mid:none;marker-end:none;stroke-miterlimit:4;stroke-dashoffset:0;stroke-opacity:1;visibility:visible;display:inline;overflow:visible;enable-background:accumulate"
       d="M 1.9766177,7.814406 C 1.9766177,7.814406 9.0505817,8.052062 11.287999,7.391152 C 13.525417,6.730242 19.704444,3.2300396 19.704444,3.2300396 C 19.704444,3.2300396 20.483647,6.7521186 20.483647,10.06257 C 20.483647,13.373022 19.740158,16.752244 19.740158,16.752244 C 19.740158,16.752244 14.414626,13.769612 11.287999,13.014386 C 8.1613713,12.259158 1.9766177,12.591131 1.9766177,12.591131 L 1.9766177,7.814406 z "
       id="path3157"
       sodipodi:nodetypes="czczczcc" />
    <path
       style="color:#000000;fill:url(#linearGradient3250);fill-opacity:1.0;fill-rule:nonzero;stroke:#888a85;stroke-width:1;stroke-linecap:butt;stroke-linejoin:miter;marker:none;marker-start:none;marker-mid:none;marker-end:none;stroke-miterlimit:0;stroke-dasharray:none;stroke-dashoffset:0;stroke-opacity:1;visibility:visible;display:inline;overflow:visible;enable-background:accumulate"
       d="M 20.563986,2.5 C 20.563986,2.5 13.245135,6.412667 10.794077,7.136684 C 8.3430202,7.860701 0.6019213,7.600352 0.6019213,7.600352 L 0.6019213,12.845601 C 0.6019213,12.845601 1.946341,12.766577 3.7178089,12.758663 L 6.6840147,20.08636 L 10.320577,19.858585 L 7.7364305,12.87458 C 8.8636689,12.956671 9.9304843,13.100671 10.794077,13.309269 C 14.219249,14.136609 20.563987,17.482285 20.563986,17.482285 C 20.563986,17.482285 18.700279,13.617691 18.700278,9.991142 C 18.700278,6.364593 20.563987,2.5 20.563986,2.5 z "
       id="rect2168"
       sodipodi:nodetypes="csccccccscsc" />
    <path
       style="color:#000000;fill:#eeeeec;fill-opacity:1;fill-rule:nonzero;stroke:#555753;stroke-width:1;stroke-linecap:butt;stroke-linejoin:miter;marker:none;marker-start:none;marker-mid:none;marker-end:none;stroke-miterlimit:0;stroke-dasharray:none;stroke-dashoffset:0;stroke-opacity:1;visibility:visible;display:inline;overflow:visible;enable-background:accumulate"
       d="M 0.50000007,7.606562 C 0.50000007,7.606562 8.3159799,7.866911 10.767036,7.142894 C 13.218094,6.418877 20.534866,2.50621 20.534866,2.50621 C 20.534866,2.50621 19.671157,6.364593 19.671157,9.991142 C 19.671157,13.617691 20.534866,17.476075 20.534866,17.476075 C 20.534866,17.476075 14.192209,14.130399 10.767036,13.303059 C 7.3418639,12.47572 0.50000007,12.839391 0.50000007,12.839391 L 0.50000007,7.606562 z "
       id="path3147"
       sodipodi:nodetypes="czczczcc" />
    <path
       style="opacity:0.7;color:#000000;fill:none;fill-opacity:1;fill-rule:nonzero;stroke:#eeeeec;stroke-width:1;stroke-linecap:butt;stroke-linejoin:miter;marker:none;marker-start:none;marker-mid:none;marker-end:none;stroke-miterlimit:2.20000005;stroke-dasharray:none;stroke-dashoffset:0;stroke-opacity:1;visibility:visible;display:inline;overflow:visible;enable-background:accumulate"
       d="M 5.1516053,13.765855 L 7.3115605,19.153088 L 8.9245569,18.882294 L 6.9772789,13.828666 C 6.9772789,13.828666 5.1516053,13.765855 5.1516053,13.765855 z "
       id="path3155"
       sodipodi:nodetypes="ccccc" />
    <path
       style="fill:none;fill-rule:evenodd;stroke:#000000;stroke-width:1px;stroke-linecap:butt;stroke-linejoin:miter;stroke-opacity:1"
       d="M 1.9172513,9.2274233 C 7.4418158,9.2274233 7.5749377,9.2274233 7.5749377,9.2274233"
       id="path3177" />
    <path
       sodipodi:nodetypes="cc"
       style="fill:none;fill-rule:evenodd;stroke:#000000;stroke-width:1px;stroke-linecap:butt;stroke-linejoin:miter;stroke-opacity:1"
       d="M 1.9529656,11.115215 C 7.4775297,11.115215 7.6106516,11.115215 7.6106516,11.115215"
       id="path3181" />
    <path
       style="opacity:0.5;color:#000000;fill:url(#linearGradient3209);fill-opacity:1;fill-rule:nonzero;stroke:#888a85;stroke-width:1;stroke-linecap:butt;stroke-linejoin:miter;marker:none;marker-start:none;marker-mid:none;marker-end:none;stroke-miterlimit:0;stroke-dasharray:none;stroke-dashoffset:0;stroke-opacity:1;visibility:visible;display:inline;overflow:visible;enable-background:accumulate"
       d="M 20.563986,2.5 C 20.563986,2.5 20.109049,2.744929 19.384608,3.123054 C 18.300521,3.688899 16.614717,4.562161 14.972861,5.354458 C 13.871794,5.885792 12.7877,6.377166 11.915214,6.730974 C 11.480515,6.907252 11.100459,7.046182 10.794077,7.136684 C 10.334504,7.272437 9.6905595,7.380711 8.9449288,7.455456 C 7.7022112,7.58003 6.1817404,7.627937 4.780705,7.643821 C 2.5390483,7.669236 0.6019213,7.600352 0.6019213,7.600352 L 0.6019213,12.845601 C 0.6019213,12.845601 1.0197952,12.823299 1.7084982,12.802132 C 2.2495518,12.783408 2.9188782,12.762232 3.7178089,12.758663 L 6.6840147,20.08636 L 10.320577,19.858585 L 7.7364305,12.87458 C 7.7459585,12.875274 7.7560299,12.873879 7.7655507,12.87458 C 8.0372916,12.894649 8.3038094,12.91971 8.566363,12.947028 C 8.5711561,12.947508 8.5761338,12.946546 8.5809233,12.947028 C 8.8478697,12.974963 9.1140086,13.012935 9.3671752,13.048456 C 9.37177,13.049072 9.3771458,13.047836 9.3817356,13.048456 C 9.6342712,13.08408 9.8752521,13.1211 10.109746,13.164373 C 10.114305,13.165188 10.119756,13.163554 10.124307,13.164373 C 10.358092,13.207751 10.582573,13.258181 10.794077,13.309269 C 11.65037,13.516104 12.687879,13.879053 13.764363,14.309054 C 15.91733,15.169057 18.218975,16.293 19.51565,16.946168 C 19.518962,16.947836 19.526912,16.944506 19.53021,16.946168 C 20.165935,17.2666 20.563986,17.482285 20.563986,17.482285 C 20.563986,17.482285 21.495841,13.617691 21.49584,9.991142 C 21.49584,6.364593 20.563987,2.5 20.563986,2.5 z "
       id="path3159"
       sodipodi:nodetypes="cssssssccsccccssssssssssscsc" />
    <path
       style="opacity:0.46000001;color:#000000;fill:url(#linearGradient3228);fill-opacity:1;fill-rule:nonzero;stroke:#555753;stroke-width:1;stroke-linecap:butt;stroke-linejoin:miter;marker:none;marker-start:none;marker-mid:none;marker-end:none;stroke-miterlimit:0;stroke-dasharray:none;stroke-dashoffset:0;stroke-opacity:1;visibility:visible;display:inline;overflow:visible;enable-background:accumulate"
       d="M 0.50000007,7.606562 C 0.50000007,7.606562 8.3159799,7.866911 10.767036,7.142894 C 13.218094,6.418877 20.534866,2.50621 20.534866,2.50621 C 20.534866,2.50621 19.671157,6.364593 19.671157,9.991142 C 19.671157,13.617691 20.534866,17.476075 20.534866,17.476075 C 20.534866,17.476075 14.192209,14.130399 10.767036,13.303059 C 7.3418639,12.47572 0.50000007,12.839391 0.50000007,12.839391 L 0.50000007,7.606562 z "
       id="path3173"
       sodipodi:nodetypes="czczczcc" />
    <path
       style="color:#000000;fill:none;fill-opacity:1;fill-rule:nonzero;stroke:#204a87;stroke-width:1;stroke-linecap:butt;stroke-linejoin:miter;marker:none;marker-start:none;marker-mid:none;marker-end:none;stroke-miterlimit:4;stroke-dashoffset:0;stroke-opacity:1;visibility:visible;display:inline;overflow:visible;enable-background:accumulate"
       d="M 10.767036,13.303059 C 10.33889,13.199642 9.701355,13.181072 9.3793959,13.111837 M 9.3643111,7.454548 C 9.7802891,7.377141 10.154272,7.323898 10.767036,7.142894"
       id="path3175"
       sodipodi:nodetypes="cccc" />
    <path
       style="color:black;fill:#3465a4;fill-opacity:1;fill-rule:nonzero;stroke:#204a87;stroke-width:1.00000012;stroke-linecap:butt;stroke-linejoin:miter;marker:none;marker-start:none;marker-mid:none;marker-end:none;stroke-miterlimit:4;stroke-dashoffset:0;stroke-opacity:1;visibility:visible;display:inline;overflow:visible"
       d="M 9.3643142,7.454548 C 9.9976528,7.377141 10.617561,6.9703446 11.550512,6.7893406 C 11.550512,6.7893406 11.601019,13.606105 11.601019,13.606105 C 10.949154,13.502688 9.8774733,13.181072 9.3872813,13.111837 C 9.3872813,13.111837 9.3643142,7.454548 9.3643142,7.454548 z "
       id="path3151"
       sodipodi:nodetypes="ccccc" />
    <path
       style="opacity:0.7;color:#000000;fill:none;fill-opacity:1;fill-rule:nonzero;stroke:#ffffff;stroke-width:1;stroke-linecap:butt;stroke-linejoin:miter;marker:none;marker-start:none;marker-mid:none;marker-end:none;stroke-miterlimit:3.70000005;stroke-dasharray:none;stroke-dashoffset:0;stroke-opacity:1;visibility:visible;display:inline;overflow:visible;enable-background:accumulate"
       d="M 1.4949872,8.5884593 C 1.4949872,8.5884593 8.8863338,8.7768006 10.946855,8.1681446 C 13.007377,7.5594876 19.176229,4.3241189 19.176229,4.3241189 C 19.176229,4.3241189 18.53561,7.0190432 18.53561,10.067762 C 18.53561,13.11648 19.178662,15.693881 19.178662,15.693881 C 16.15827,14.341846 13.683426,13.113735 10.803998,12.418218 C 7.92457,11.722701 1.5664157,11.808952 1.5664157,11.808952 L 1.4949872,8.5884593 z "
       id="path3153"
       sodipodi:nodetypes="czczczcc" />
  </g>
</svg>
