<?xml version="1.0" encoding="UTF-8" standalone="no"?>
<!-- Created with Inkscape (http://www.inkscape.org/) -->
<svg
   xmlns:dc="http://purl.org/dc/elements/1.1/"
   xmlns:cc="http://web.resource.org/cc/"
   xmlns:rdf="http://www.w3.org/1999/02/22-rdf-syntax-ns#"
   xmlns:svg="http://www.w3.org/2000/svg"
   xmlns="http://www.w3.org/2000/svg"
   xmlns:xlink="http://www.w3.org/1999/xlink"
   xmlns:sodipodi="http://sodipodi.sourceforge.net/DTD/sodipodi-0.dtd"
   xmlns:inkscape="http://www.inkscape.org/namespaces/inkscape"
   width="22"
   height="22"
   id="svg1905"
   sodipodi:version="0.32"
   inkscape:version="0.44.1"
   sodipodi:docbase="/home/lse/public_html/Chimera/System/Icons/scalable/apps"
   sodipodi:docname="small-image-administration.svg"
   inkscape:export-filename="/home/lse/public_html/Bambus/System/Images/Mimetypes/22x22/image.png"
   inkscape:export-xdpi="30.9375"
   inkscape:export-ydpi="30.9375"
   version="1.0">
  <defs
     id="defs1907">
    <linearGradient
       inkscape:collect="always"
       id="linearGradient2891">
      <stop
         style="stop-color:white;stop-opacity:1;"
         offset="0"
         id="stop2893" />
      <stop
         style="stop-color:white;stop-opacity:0;"
         offset="1"
         id="stop2895" />
    </linearGradient>
    <linearGradient
       inkscape:collect="always"
       id="linearGradient2850">
      <stop
         style="stop-color:white;stop-opacity:1;"
         offset="0"
         id="stop2852" />
      <stop
         style="stop-color:white;stop-opacity:0;"
         offset="1"
         id="stop2854" />
    </linearGradient>
    <linearGradient
       inkscape:collect="always"
       id="linearGradient2831">
      <stop
         style="stop-color:white;stop-opacity:1;"
         offset="0"
         id="stop2833" />
      <stop
         style="stop-color:white;stop-opacity:0;"
         offset="1"
         id="stop2835" />
    </linearGradient>
    <linearGradient
       inkscape:collect="always"
       xlink:href="#linearGradient2831"
       id="linearGradient2837"
       x1="28.363636"
       y1="5.0909095"
       x2="28.363636"
       y2="63.782219"
       gradientUnits="userSpaceOnUse" />
    <linearGradient
       inkscape:collect="always"
       xlink:href="#linearGradient2850"
       id="linearGradient2856"
       x1="11.636364"
       y1="9.454546"
       x2="11.636364"
       y2="30.909092"
       gradientUnits="userSpaceOnUse" />
    <linearGradient
       inkscape:collect="always"
       xlink:href="#linearGradient2850"
       id="linearGradient2243"
       gradientUnits="userSpaceOnUse"
       x1="11.636364"
       y1="9.454546"
       x2="11.636364"
       y2="30.909092" />
    <linearGradient
       inkscape:collect="always"
       xlink:href="#linearGradient2891"
       id="linearGradient3222"
       gradientUnits="userSpaceOnUse"
       gradientTransform="matrix(0.277556,0,0,0.2672,-22.98709,-9.314102)"
       x1="29.443182"
       y1="25.639603"
       x2="29.443182"
       y2="54.557911" />
  </defs>
  <sodipodi:namedview
     id="base"
     pagecolor="#ffffff"
     bordercolor="#666666"
     borderopacity="1.0"
     inkscape:pageopacity="0.0"
     inkscape:pageshadow="2"
     inkscape:zoom="22"
     inkscape:cx="8.1818182"
     inkscape:cy="8.25"
     inkscape:current-layer="layer1"
     showgrid="true"
     inkscape:document-units="px"
     inkscape:grid-bbox="true"
     inkscape:window-width="1272"
     inkscape:window-height="945"
     inkscape:window-x="0"
     inkscape:window-y="25"
     width="22px"
     height="22px" />
  <metadata
     id="metadata1910">
    <rdf:RDF>
      <cc:Work
         rdf:about="">
        <dc:format>image/svg+xml</dc:format>
        <dc:type
           rdf:resource="http://purl.org/dc/dcmitype/StillImage" />
      </cc:Work>
    </rdf:RDF>
  </metadata>
  <g
     id="layer1"
     inkscape:label="Layer 1"
     inkscape:groupmode="layer">
    <rect
       style="fill:#c17d11;fill-opacity:1;stroke:#8f5902;stroke-width:1.00000012;stroke-miterlimit:4;stroke-dasharray:none;stroke-opacity:1"
       id="rect1940"
       width="21.02915"
       height="15.006959"
       x="0.47914091"
       y="3.5" />
    <rect
       style="fill:#729fcf;fill-opacity:1;stroke:none;stroke-width:0.92788082;stroke-miterlimit:4;stroke-dasharray:none;stroke-opacity:1"
       id="rect2839"
       width="18"
       height="11.954545"
       x="2"
       y="5" />
    <path
       style="fill:#555753;fill-opacity:1;stroke:none;stroke-width:1;stroke-miterlimit:4;stroke-opacity:1"
       d="M 0.46767088,15.50517 C 0.46767088,15.50517 1.610265,15.45269 1.610265,15.45269 C 3.5430299,12.583629 4.1416161,14.6629 4.5297002,14.694259 C 4.8881146,14.723218 6.4632786,12.569636 7.4268835,13.760259 C 8.2749352,14.808105 20.538874,15.50517 20.538874,15.50517 L 20.538874,17.532451 L 0.46767088,17.532451 L 0.46767088,15.50517 z "
       id="path2918"
       sodipodi:nodetypes="cszscccc" />
    <path
       style="fill:#2e3436;fill-opacity:1;stroke:black;stroke-width:0.92788017;stroke-miterlimit:4;stroke-opacity:1"
       d="M 17.182425,10.236696 C 16.974053,10.219859 16.690576,10.527189 16.086849,11.376621 C 15.72923,11.879785 15.512219,13.033178 14.878903,13.962073 C 14.361303,13.59309 13.807345,13.373595 13.554451,13.424482 C 13.199577,13.495892 10.412722,14.985336 9.2246259,16.2041 C 8.1553616,16.876036 6.6607841,15.34018 5.4845372,15.793866 C 2.3461711,17.004352 0.59043063,14.431803 0.59043063,14.431803 L 0.46394007,17.53606 L 20.536059,17.53606 L 20.536059,15.505161 C 20.536059,15.505161 20.21498,14.228155 19.796831,12.946625 C 19.37868,11.665093 17.540837,10.265658 17.182425,10.236696 z "
       id="path2920"
       sodipodi:nodetypes="cscscsccccsc" />
    <path
       style="fill:black;fill-opacity:1;stroke:none;stroke-width:1;stroke-miterlimit:4;stroke-opacity:1"
       d="M -22.532905,2.3286329 C -22.532905,2.3286329 -21.567641,2.2846169 -21.567641,2.2846169 C -19.934839,-0.12177809 -19.429153,1.6221869 -19.101299,1.6484889 C -18.79851,1.6727799 -17.00701,-0.20976409 -16.653756,0.86510691 C -16.300503,1.9399789 -5.5767327,2.3286329 -5.5767327,2.3286329 L -5.5767327,4.0289939 L -22.532905,4.0289939 L -22.532905,2.3286329 z "
       id="path2886"
       sodipodi:nodetypes="cszscccc" />
    <path
       style="fill:#2e3436;fill-opacity:1;stroke:black;stroke-width:0.92788082;stroke-miterlimit:4;stroke-opacity:1"
       d="M -8.1985357,-1.7044201 C -8.4788417,-1.7265661 -8.9200307,-1.0697451 -10.358273,0.99289991 C -10.795542,0.68810491 -11.263527,0.50679491 -11.477172,0.54882991 C -11.776971,0.60781691 -13.890878,1.4581679 -14.894585,2.4649129 C -15.315547,2.7244179 -17.238128,2.4887279 -18.294651,2.5060309 C -21.14752,2.5527539 -22.53606,2.2675479 -22.53606,2.2675479 L -22.53606,3.9451499 L -5.5790977,3.9451499 L -5.5790977,2.2675479 C -5.5790977,2.2675479 -5.8503467,1.2126939 -6.2035997,0.15409991 C -6.5568527,-0.90449309 -7.8957477,-1.6804961 -8.1985357,-1.7044201 z "
       id="rect2843"
       sodipodi:nodetypes="ccscsccccsc" />
    <path
       sodipodi:type="arc"
       style="fill:#edd400;fill-opacity:1;stroke:#fce94f;stroke-width:3.40720844;stroke-miterlimit:4;stroke-dasharray:none;stroke-opacity:1"
       id="path2846"
       sodipodi:cx="11.636364"
       sodipodi:cy="19.454546"
       sodipodi:rx="7.2727275"
       sodipodi:ry="7.2727275"
       d="M 18.909091 19.454546 A 7.2727275 7.2727275 0 1 1  4.3636365,19.454546 A 7.2727275 7.2727275 0 1 1  18.909091 19.454546 z"
       transform="matrix(0.277556,0,0,0.2672,2.23174,3.162757)" />
    <path
       style="opacity:0.5;fill:#555753;fill-opacity:1;stroke:none;stroke-width:1;stroke-miterlimit:4;stroke-opacity:1"
       d="M 17.11919,10.206034 C 16.95329,10.19263 16.281252,10.99806 15.975466,11.597626 C 15.669678,12.197191 15.698523,12.682897 14.847292,13.931416 C 14.329692,13.56243 13.807354,13.373603 13.554461,13.424491 C 13.199585,13.495901 10.539219,14.954677 9.3511199,16.173442 C 8.0622559,16.916939 6.3606839,15.341937 5.1999349,15.793876 C 2.455415,16.86246 0.52718268,14.431813 0.52718268,14.431813 L 0.4639374,17.536073 L 20.536076,17.536073 L 20.536076,15.50517 C 20.536076,15.50517 20.214995,14.228163 19.796845,12.946632 C 19.378694,11.665099 17.667341,10.204329 17.11919,10.206034 z "
       id="path2922"
       sodipodi:nodetypes="cscscsccccsc" />
    <path
       sodipodi:type="arc"
       style="opacity:0.7;fill:url(#linearGradient2243);fill-opacity:1;stroke:none;stroke-width:1;stroke-miterlimit:4;stroke-dasharray:none;stroke-opacity:1"
       id="path2848"
       sodipodi:cx="11.636364"
       sodipodi:cy="19.454546"
       sodipodi:rx="7.2727275"
       sodipodi:ry="7.2727275"
       d="M 18.909091 19.454546 A 7.2727275 7.2727275 0 1 1  4.3636365,19.454546 A 7.2727275 7.2727275 0 1 1  18.909091 19.454546 z"
       transform="matrix(0.277556,0,0,0.2672,2.23174,3.162757)" />
    <path
       style="opacity:1;fill:white;fill-opacity:1;stroke:none;stroke-width:1;stroke-miterlimit:4;stroke-opacity:1"
       d="M 25.11919,10.206034 C 24.95329,10.19263 23.90178,11.366067 23.501127,12.609646 C 23.501127,12.609646 23.230897,13.049018 24.172331,12.6623 C 25.708186,12.031416 25.603953,13.690162 26.140918,13.732286 C 26.677883,13.774408 26.653487,12.723093 27.030771,12.863311 C 27.528361,13.04824 27.796845,12.946632 27.796845,12.946632 C 27.378694,11.665099 25.667341,10.204329 25.11919,10.206034 z "
       id="path1896"
       sodipodi:nodetypes="ccssscc" />
    <path
       style="opacity:0.5;fill:url(#linearGradient3222);fill-opacity:1;stroke:none;stroke-width:1;stroke-miterlimit:4;stroke-opacity:1"
       d="M -8.1985367,-1.5903621 C -8.4788407,-1.6128491 -8.9200307,-0.94592809 -10.358272,1.1484339 C -10.795542,0.83895191 -11.263527,0.65485391 -11.477173,0.69753591 C -11.776971,0.75742891 -13.890879,1.6208559 -14.894584,2.6430829 C -15.315547,2.9065769 -17.238127,2.6672629 -18.294651,2.6848319 C -21.14752,2.7322729 -22.536059,2.4426829 -22.536059,2.4426829 L -22.536059,4.1460809 L -5.5790967,4.1460809 L -5.5790967,2.4426829 C -5.5790967,2.4426829 -5.8503457,1.3716069 -6.2036007,0.29673591 C -6.5568537,-0.77813609 -7.8957467,-1.5660711 -8.1985367,-1.5903621 z "
       id="path2889"
       sodipodi:nodetypes="ccscsccccsc" />
    <rect
       style="opacity:0.5;fill:none;fill-opacity:1;stroke:#eeeeec;stroke-width:1.00000012;stroke-miterlimit:4;stroke-dasharray:none;stroke-opacity:1"
       id="rect3219"
       width="19"
       height="13.000001"
       x="1.5"
       y="4.5" />
    <rect
       style="opacity:1;fill:none;fill-opacity:1;stroke:#e9b96e;stroke-width:1.00000012;stroke-miterlimit:4;stroke-dasharray:none;stroke-opacity:1"
       id="rect2927"
       width="19"
       height="13.000001"
       x="1.5"
       y="4.5" />
    <rect
       style="fill:none;fill-opacity:1;stroke:#8f5902;stroke-width:1;stroke-miterlimit:4;stroke-dasharray:none;stroke-opacity:1"
       id="rect2929"
       width="21.008289"
       height="15.006959"
       x="0.5"
       y="3.5" />
  </g>
</svg>
