<?xml version="1.0" encoding="UTF-8" standalone="no"?>
<!-- Created with Inkscape (http://www.inkscape.org/) -->
<svg
   xmlns:dc="http://purl.org/dc/elements/1.1/"
   xmlns:cc="http://web.resource.org/cc/"
   xmlns:rdf="http://www.w3.org/1999/02/22-rdf-syntax-ns#"
   xmlns:svg="http://www.w3.org/2000/svg"
   xmlns="http://www.w3.org/2000/svg"
   xmlns:xlink="http://www.w3.org/1999/xlink"
   xmlns:sodipodi="http://sodipodi.sourceforge.net/DTD/sodipodi-0.dtd"
   xmlns:inkscape="http://www.inkscape.org/namespaces/inkscape"
   width="22"
   height="22"
   id="svg2160"
   sodipodi:version="0.32"
   inkscape:version="0.45"
   sodipodi:docbase="/home/lse/public_html/Bambus/System/Icons/scalable/apps"
   sodipodi:docname="small-template-editor.svg"
   inkscape:output_extension="org.inkscape.output.svg.inkscape"
   version="1.0"
   sodipodi:modified="true">
  <defs
     id="defs2162">
    <linearGradient
       inkscape:collect="always"
       id="linearGradient3361">
      <stop
         style="stop-color:#ffffff;stop-opacity:1;"
         offset="0"
         id="stop3363" />
      <stop
         style="stop-color:#ffffff;stop-opacity:0;"
         offset="1"
         id="stop3365" />
    </linearGradient>
    <linearGradient
       inkscape:collect="always"
       id="linearGradient3145">
      <stop
         style="stop-color:#ffffff;stop-opacity:1;"
         offset="0"
         id="stop3147" />
      <stop
         style="stop-color:#ffffff;stop-opacity:0;"
         offset="1"
         id="stop3149" />
    </linearGradient>
    <linearGradient
       inkscape:collect="always"
       xlink:href="#linearGradient3145"
       id="linearGradient3151"
       x1="22.857143"
       y1="-1.7857143"
       x2="22.857143"
       y2="49.583546"
       gradientUnits="userSpaceOnUse"
       gradientTransform="matrix(0.4536584,0,0,0.4468085,-20.902438,0.2765958)" />
    <linearGradient
       gradientTransform="matrix(0.2972547,0,0,0.2800989,0.8496468,0.9649748)"
       gradientUnits="userSpaceOnUse"
       y2="48.035389"
       x2="19.363636"
       y1="3.1818182"
       x1="19.363636"
       id="linearGradient3243"
       xlink:href="#linearGradient3237"
       inkscape:collect="always" />
    <linearGradient
       y2="54.557911"
       x2="29.443182"
       y1="25.639603"
       x1="29.443182"
       gradientTransform="matrix(0.1985271,0,0,0.1897971,1.594795,2.2604501)"
       gradientUnits="userSpaceOnUse"
       id="linearGradient3222"
       xlink:href="#linearGradient2891"
       inkscape:collect="always" />
    <linearGradient
       y2="30.909092"
       x2="11.636364"
       y1="9.454546"
       x1="11.636364"
       gradientUnits="userSpaceOnUse"
       id="linearGradient2243"
       xlink:href="#linearGradient2850"
       inkscape:collect="always" />
    <linearGradient
       gradientUnits="userSpaceOnUse"
       y2="30.909092"
       x2="11.636364"
       y1="9.454546"
       x1="11.636364"
       id="linearGradient2856"
       xlink:href="#linearGradient2850"
       inkscape:collect="always" />
    <linearGradient
       gradientUnits="userSpaceOnUse"
       y2="63.782219"
       x2="28.363636"
       y1="5.0909095"
       x1="28.363636"
       id="linearGradient2837"
       xlink:href="#linearGradient2831"
       inkscape:collect="always" />
    <linearGradient
       id="linearGradient2831"
       inkscape:collect="always">
      <stop
         id="stop2833"
         offset="0"
         style="stop-color:white;stop-opacity:1;" />
      <stop
         id="stop2835"
         offset="1"
         style="stop-color:white;stop-opacity:0;" />
    </linearGradient>
    <linearGradient
       id="linearGradient2850"
       inkscape:collect="always">
      <stop
         id="stop2852"
         offset="0"
         style="stop-color:white;stop-opacity:1;" />
      <stop
         id="stop2854"
         offset="1"
         style="stop-color:white;stop-opacity:0;" />
    </linearGradient>
    <linearGradient
       id="linearGradient2891"
       inkscape:collect="always">
      <stop
         id="stop2893"
         offset="0"
         style="stop-color:white;stop-opacity:1;" />
      <stop
         id="stop2895"
         offset="1"
         style="stop-color:white;stop-opacity:0;" />
    </linearGradient>
    <linearGradient
       id="linearGradient3237"
       inkscape:collect="always">
      <stop
         id="stop3239"
         offset="0"
         style="stop-color:#eeeeec;stop-opacity:1;" />
      <stop
         id="stop3241"
         offset="1"
         style="stop-color:#eeeeec;stop-opacity:0;" />
    </linearGradient>
    <linearGradient
       gradientTransform="matrix(0.980532,0,0,0.980532,0.368257,0.354555)"
       gradientUnits="userSpaceOnUse"
       y2="65.456718"
       x2="20.248295"
       y1="-0.75929952"
       x1="20.248295"
       id="linearGradient2774"
       xlink:href="#linearGradient2768"
       inkscape:collect="always" />
    <linearGradient
       gradientTransform="translate(-1.192159e-8,-0.208674)"
       gradientUnits="userSpaceOnUse"
       y2="30.604337"
       x2="64"
       y1="30.604337"
       x1="-1.3755677"
       id="linearGradient2210"
       xlink:href="#linearGradient2204"
       inkscape:collect="always" />
    <linearGradient
       id="linearGradient2204"
       inkscape:collect="always">
      <stop
         id="stop2206"
         offset="0"
         style="stop-color:#feffff;stop-opacity:1;" />
      <stop
         id="stop2208"
         offset="1"
         style="stop-color:#feffff;stop-opacity:0;" />
    </linearGradient>
    <linearGradient
       id="linearGradient2768"
       inkscape:collect="always">
      <stop
         id="stop2770"
         offset="0"
         style="stop-color:white;stop-opacity:1;" />
      <stop
         id="stop2772"
         offset="1"
         style="stop-color:white;stop-opacity:0;" />
    </linearGradient>
    <linearGradient
       inkscape:collect="always"
       xlink:href="#linearGradient2768"
       id="linearGradient3343"
       gradientUnits="userSpaceOnUse"
       gradientTransform="matrix(0.2348361,0,0,0.2348361,16.66193,0.1861063)"
       x1="20.248295"
       y1="-0.75929952"
       x2="20.248295"
       y2="65.456718" />
    <linearGradient
       inkscape:collect="always"
       xlink:href="#linearGradient3361"
       id="linearGradient3367"
       x1="23.892857"
       y1="3.0357144"
       x2="23.892857"
       y2="22.194689"
       gradientUnits="userSpaceOnUse" />
    <linearGradient
       inkscape:collect="always"
       xlink:href="#linearGradient3361"
       id="linearGradient3374"
       gradientUnits="userSpaceOnUse"
       x1="23.892857"
       y1="3.0357144"
       x2="23.892857"
       y2="22.194689" />
    <linearGradient
       inkscape:collect="always"
       xlink:href="#linearGradient3361"
       id="linearGradient3401"
       gradientUnits="userSpaceOnUse"
       x1="23.892857"
       y1="3.0357144"
       x2="23.892857"
       y2="22.194689"
       gradientTransform="matrix(1.4104615,0,0,1.4236663,-27.160922,-6.7213001)" />
  </defs>
  <sodipodi:namedview
     id="base"
     pagecolor="#ffffff"
     bordercolor="#666666"
     borderopacity="1.0"
     inkscape:pageopacity="0.0"
     inkscape:pageshadow="2"
     inkscape:zoom="14"
     inkscape:cx="12.155565"
     inkscape:cy="10.983867"
     inkscape:current-layer="layer1"
     showgrid="true"
     inkscape:grid-bbox="true"
     inkscape:document-units="px"
     inkscape:window-width="1272"
     inkscape:window-height="945"
     inkscape:window-x="0"
     inkscape:window-y="24"
     width="22px"
     height="22px" />
  <metadata
     id="metadata2165">
    <rdf:RDF>
      <cc:Work
         rdf:about="">
        <dc:format>image/svg+xml</dc:format>
        <dc:type
           rdf:resource="http://purl.org/dc/dcmitype/StillImage" />
      </cc:Work>
    </rdf:RDF>
  </metadata>
  <g
     id="layer1"
     inkscape:label="Layer 1"
     inkscape:groupmode="layer">
    <rect
       style="opacity:1;color:#000000;fill:#eeeeec;fill-opacity:1;fill-rule:nonzero;stroke:#babdb6;stroke-width:1;stroke-linecap:square;stroke-linejoin:miter;marker:none;marker-start:none;marker-mid:none;marker-end:none;stroke-miterlimit:4;stroke-dasharray:none;stroke-dashoffset:0;stroke-opacity:1;visibility:visible;display:inline;overflow:visible;enable-background:accumulate"
       id="rect2168"
       width="15.000001"
       height="21"
       x="-17.5"
       y="0.5" />
    <rect
       style="opacity:0.7;color:#000000;fill:url(#linearGradient3151);fill-opacity:1;fill-rule:nonzero;stroke:#babdb6;stroke-width:1;stroke-linecap:square;stroke-linejoin:miter;marker:none;marker-start:none;marker-mid:none;marker-end:none;stroke-miterlimit:4;stroke-dasharray:none;stroke-dashoffset:0;stroke-opacity:1;visibility:visible;display:inline;overflow:visible;enable-background:accumulate"
       id="rect3143"
       width="15.000001"
       height="21"
       x="-17.5"
       y="0.5" />
    <rect
       style="opacity:1;color:#000000;fill:none;fill-opacity:1;fill-rule:nonzero;stroke:#ffffff;stroke-width:1;stroke-linecap:square;stroke-linejoin:miter;marker:none;marker-start:none;marker-mid:none;marker-end:none;stroke-miterlimit:4;stroke-dasharray:none;stroke-dashoffset:0;stroke-opacity:1;visibility:visible;display:inline;overflow:visible;enable-background:accumulate"
       id="rect3141"
       width="13.059658"
       height="19"
       x="-16.559658"
       y="1.5" />
    <rect
       style="opacity:0.7;color:#000000;fill:#888a85;fill-opacity:1;fill-rule:nonzero;stroke:none;stroke-width:1;stroke-linecap:square;stroke-linejoin:miter;marker:none;marker-start:none;marker-mid:none;marker-end:none;stroke-miterlimit:4;stroke-dasharray:none;stroke-dashoffset:0;stroke-opacity:1;visibility:visible;display:inline;overflow:visible;enable-background:accumulate"
       id="rect3161"
       width="9.0386286"
       height="1"
       x="-14.038628"
       y="3" />
    <rect
       style="opacity:0.7;color:#000000;fill:#888a85;fill-opacity:1;fill-rule:nonzero;stroke:none;stroke-width:1;stroke-linecap:square;stroke-linejoin:miter;marker:none;marker-start:none;marker-mid:none;marker-end:none;stroke-miterlimit:4;stroke-dasharray:none;stroke-dashoffset:0;stroke-opacity:1;visibility:visible;display:inline;overflow:visible;enable-background:accumulate"
       id="rect3185"
       width="9.0386286"
       height="1.0212765"
       x="-14.038628"
       y="4.9787235" />
    <rect
       style="opacity:0.7;color:#000000;fill:#888a85;fill-opacity:1;fill-rule:nonzero;stroke:none;stroke-width:1;stroke-linecap:square;stroke-linejoin:miter;marker:none;marker-start:none;marker-mid:none;marker-end:none;stroke-miterlimit:4;stroke-dasharray:none;stroke-dashoffset:0;stroke-opacity:1;visibility:visible;display:inline;overflow:visible;enable-background:accumulate"
       id="rect3187"
       width="5.063323"
       height="1.0638294"
       x="-14.038628"
       y="6.9361706" />
    <rect
       style="opacity:0.7;color:#000000;fill:#888a85;fill-opacity:1;fill-rule:nonzero;stroke:none;stroke-width:1;stroke-linecap:square;stroke-linejoin:miter;marker:none;marker-start:none;marker-mid:none;marker-end:none;stroke-miterlimit:4;stroke-dasharray:none;stroke-dashoffset:0;stroke-opacity:1;visibility:visible;display:inline;overflow:visible;enable-background:accumulate"
       id="rect3209"
       width="9.0386286"
       height="1.0425529"
       x="-14.038628"
       y="15.957447" />
    <rect
       style="opacity:0.7;color:#000000;fill:#888a85;fill-opacity:1;fill-rule:nonzero;stroke:none;stroke-width:1;stroke-linecap:square;stroke-linejoin:miter;marker:none;marker-start:none;marker-mid:none;marker-end:none;stroke-miterlimit:4;stroke-dasharray:none;stroke-dashoffset:0;stroke-opacity:1;visibility:visible;display:inline;overflow:visible;enable-background:accumulate"
       id="rect3213"
       width="5.063323"
       height="1.0638294"
       x="-14.038628"
       y="17.936171" />
    <g
       inkscape:label="Layer 1"
       id="g2402"
       transform="matrix(0.463763,0,0,0.4571634,-13.656133,8.321815)">
      <rect
         y="2.5"
         x="0.45852941"
         height="11"
         width="15.041471"
         id="rect1940"
         style="fill:#c17d11;fill-opacity:1;stroke:#8f5902;stroke-width:2.17178273;stroke-miterlimit:4;stroke-dasharray:none;stroke-opacity:1" />
      <rect
         y="3.8950253"
         x="1.8781923"
         height="7.8647413"
         width="12.211135"
         id="rect2839"
         style="fill:#888a85;fill-opacity:1;stroke:#555753;stroke-width:2.01515508;stroke-miterlimit:4;stroke-dasharray:none;stroke-opacity:1" />
      <path
         sodipodi:nodetypes="cszscccc"
         id="path2886"
         d="M 1.9196577,10.611524 C 1.9196577,10.611524 2.6100803,10.580259 2.6100803,10.580259 C 3.7779704,8.8709489 4.1396713,10.109722 4.3741748,10.128405 C 4.5907497,10.145659 5.8721521,8.8084509 6.1248233,9.5719529 C 6.3774936,10.335456 14.04786,10.611524 14.04786,10.611524 L 14.04786,11.819324 L 1.9196577,11.819324 L 1.9196577,10.611524 z "
         style="fill:#000000;fill-opacity:1;stroke:none;stroke-width:1;stroke-miterlimit:4;stroke-opacity:1" />
      <rect
         y="3.8950253"
         x="1.8781927"
         height="7.8647413"
         width="12.211135"
         id="rect3235"
         style="opacity:0.7;fill:url(#linearGradient3243);fill-opacity:1;stroke:#d3d7cf;stroke-width:2.01515508;stroke-miterlimit:4;stroke-dasharray:none;stroke-opacity:1" />
      <path
         sodipodi:nodetypes="ccscsccccsc"
         id="rect2843"
         d="M 12.17257,7.7467674 C 11.972076,7.7310367 11.656508,8.1975889 10.627779,9.6627259 C 10.315015,9.4462249 9.9802804,9.3174369 9.827467,9.3472949 C 9.6130305,9.3891939 8.1010211,9.9932149 7.3831019,10.708326 C 7.0820013,10.892657 5.7068412,10.725242 4.9511445,10.737533 C 2.9105789,10.770721 1.9174017,10.568134 1.9174017,10.568134 L 1.9174017,11.759767 L 14.046169,11.759767 L 14.046169,10.568134 C 14.046169,10.568134 13.852153,9.8188499 13.599483,9.0669099 C 13.346812,8.3149709 12.389144,7.7637611 12.17257,7.7467674 z "
         style="fill:#2e3436;fill-opacity:1;stroke:#000000;stroke-width:2.01515508;stroke-miterlimit:4;stroke-opacity:1" />
      <g
         transform="matrix(0.1985271,0,0,0.1897971,1.7121067,2.2604501)"
         id="g2858">
        <path
           sodipodi:type="arc"
           style="opacity:1;fill:#d3d7cf;fill-opacity:1;stroke:#babdb6;stroke-width:10.38134956;stroke-miterlimit:4;stroke-dasharray:none;stroke-opacity:1"
           id="path2846"
           sodipodi:cx="11.636364"
           sodipodi:cy="19.454546"
           sodipodi:rx="7.2727275"
           sodipodi:ry="7.2727275"
           d="M 18.909091 19.454546 A 7.2727275 7.2727275 0 1 1  4.3636365,19.454546 A 7.2727275 7.2727275 0 1 1  18.909091 19.454546 z" />
        <path
           sodipodi:type="arc"
           style="opacity:0.7;fill:url(#linearGradient2243);fill-opacity:1;stroke:none;stroke-width:1;stroke-miterlimit:4;stroke-dasharray:none;stroke-opacity:1"
           id="path2848"
           sodipodi:cx="11.636364"
           sodipodi:cy="19.454546"
           sodipodi:rx="7.2727275"
           sodipodi:ry="7.2727275"
           d="M 18.909091 19.454546 A 7.2727275 7.2727275 0 1 1  4.3636365,19.454546 A 7.2727275 7.2727275 0 1 1  18.909091 19.454546 z" />
      </g>
      <path
         sodipodi:nodetypes="ccscsccccsc"
         id="path2889"
         d="M 12.172568,7.7467735 C 11.972076,7.7308006 11.656507,8.2045279 10.62778,9.6921939 C 10.315014,9.4723629 9.9802798,9.3415939 9.8274657,9.3719119 C 9.6130299,9.4144549 8.1010199,10.027764 7.3831022,10.753872 C 7.0820004,10.941037 5.7068412,10.771048 4.9511443,10.783527 C 2.9105788,10.817226 1.9174017,10.611524 1.9174017,10.611524 L 1.9174017,11.821481 L 14.046169,11.821481 L 14.046169,10.611524 C 14.046169,10.611524 13.852153,9.8507179 13.599481,9.0872159 C 13.346811,8.3237139 12.389144,7.7640279 12.172568,7.7467735 z "
         style="opacity:0.5;fill:url(#linearGradient3222);fill-opacity:1;stroke:none;stroke-width:1;stroke-miterlimit:4;stroke-opacity:1" />
      <rect
         y="3.5"
         x="1.5"
         height="9.000001"
         width="13"
         id="rect3219"
         style="opacity:0.5;fill:none;fill-opacity:1;stroke:#eeeeec;stroke-width:2.17178273;stroke-miterlimit:4;stroke-dasharray:none;stroke-opacity:1" />
    </g>
    <path
       style="color:#000000;fill:#edd400;fill-opacity:1;fill-rule:nonzero;stroke:#c4a000;stroke-width:0.99999988;stroke-linecap:round;stroke-linejoin:round;marker:none;marker-start:none;marker-mid:none;marker-end:none;stroke-miterlimit:4;stroke-dasharray:none;stroke-dashoffset:0;stroke-opacity:1;visibility:visible;display:inline;overflow:visible"
       d="M 18.289868,11.290846 C 19.701393,11.242303 21.5,12.840288 21.5,14.677612 C 21.500001,16.514936 20.110727,18.693554 18.125623,18.010448 C 17.245164,17.707467 17.636319,17.934545 15.744925,17.038805 C 13.868115,16.149973 14.016335,19.248929 14.016335,21.499999 L 0.56022243,21.499999 L 0.49999996,16.73772 C 0.49999996,16.73772 2.1626337,17.676392 3.5327997,17.705562 C 4.9029657,17.734733 6.212843,16.922762 6.2550751,14.901764 C 6.297307,12.880766 5.6609816,11.860777 3.6278394,11.718997 C 1.6546305,11.581396 0.56022243,13.099051 0.56022243,13.099051 L 0.56022243,8.0328374 C 0.56022243,8.0328374 2.6968403,8.1837232 3.9242507,8.0328374 C 5.1422675,7.8831047 5.2812868,6.7773074 4.6695117,6.1731348 C 4.0577382,5.5689621 3.6758304,4.7410513 3.6758304,3.8223879 C 3.6758304,2.0702904 5.1327271,0.50124166 6.9208227,0.50000066 C 8.7026065,0.49876407 10.424589,1.9850639 10.424589,3.8223879 C 10.424587,4.7410513 9.7067663,5.3445937 9.4309054,6.1731348 C 9.1550446,7.0016758 9.8165863,7.944953 10.652306,8.0328374 C 11.478962,8.1197679 14.016335,8.0328374 14.016335,8.0328374 C 13.829714,9.9206861 13.950725,11.856307 14.830845,12.512468 C 15.690924,13.153691 16.861043,11.339988 18.289868,11.290846 z "
       id="rect1315"
       sodipodi:nodetypes="csszccczzzccssszsssczz"
       inkscape:export-filename="/home/lse/public_html/Bambus/System/Applications/ATPLEditor.bap/Icon.png"
       inkscape:export-xdpi="33"
       inkscape:export-ydpi="33" />
    <path
       style="opacity:0.7;color:#000000;fill:url(#linearGradient3401);fill-opacity:1;fill-rule:nonzero;stroke:#c4a000;stroke-width:0.99999988;stroke-linecap:round;stroke-linejoin:round;marker:none;marker-start:none;marker-mid:none;marker-end:none;stroke-miterlimit:4;stroke-dasharray:none;stroke-dashoffset:0;stroke-opacity:1;visibility:visible;display:inline;overflow:visible"
       d="M 18.289868,11.290846 C 19.701393,11.242303 21.5,12.840288 21.5,14.677612 C 21.500001,16.514936 20.110727,18.693554 18.125623,18.010448 C 17.245164,17.707467 17.636319,17.934545 15.744925,17.038805 C 13.868115,16.149973 14.016335,19.248929 14.016335,21.499999 L 0.56022243,21.499999 L 0.49999996,16.73772 C 0.49999996,16.73772 2.1626337,17.676392 3.5327997,17.705562 C 4.9029657,17.734733 6.212843,16.922762 6.2550751,14.901764 C 6.297307,12.880766 5.6609816,11.860777 3.6278394,11.718997 C 1.6546305,11.581396 0.56022243,13.099051 0.56022243,13.099051 L 0.56022243,8.0328374 C 0.56022243,8.0328374 2.6968403,8.1837232 3.9242507,8.0328374 C 5.1422675,7.8831047 5.2812868,6.7773074 4.6695117,6.1731348 C 4.0577382,5.5689621 3.6758304,4.7410513 3.6758304,3.8223879 C 3.6758304,2.0702904 5.1327271,0.50124166 6.9208227,0.50000066 C 8.7026065,0.49876407 10.424589,1.9850639 10.424589,3.8223879 C 10.424587,4.7410513 9.7067663,5.3445937 9.4309054,6.1731348 C 9.1550446,7.0016758 9.8165863,7.944953 10.652306,8.0328374 C 11.478962,8.1197679 14.016335,8.0328374 14.016335,8.0328374 C 13.829714,9.9206861 13.950725,11.856307 14.830845,12.512468 C 15.690924,13.153691 16.861043,11.339988 18.289868,11.290846 z "
       id="path3359"
       sodipodi:nodetypes="csszccczzzccssszsssczz"
       inkscape:export-filename="/home/lse/public_html/Bambus/System/Applications/ATPLEditor.bap/Icon.png"
       inkscape:export-xdpi="33"
       inkscape:export-ydpi="33" />
    <path
       style="opacity:0.5;color:#000000;fill:none;fill-opacity:1;fill-rule:nonzero;stroke:#eeeeec;stroke-width:0.99999988;stroke-linecap:round;stroke-linejoin:miter;marker:none;marker-start:none;marker-mid:none;marker-end:none;stroke-miterlimit:4;stroke-dasharray:none;stroke-dashoffset:0;stroke-opacity:1;visibility:visible;display:inline;overflow:visible"
       d="M 17.484561,12.645233 C 18.365298,11.931245 20.482681,12.804335 20.482681,14.641659 C 20.482682,16.478983 19.555134,17.768455 17.32003,16.656777 C 16.486327,16.242117 15.861028,15.656688 14.54875,16.04371 C 13.278666,16.418288 12.998729,18.110977 12.998729,20.362047 L 1.5778268,20.540619 L 1.5886535,18.237828 C 1.5886535,18.237828 3.5355799,18.99363 4.5851706,18.663271 C 5.6696321,18.321937 7.1233045,17.137048 7.2369652,14.86605 C 7.3506258,12.630766 6.7861083,11.405455 4.7885858,10.868192 C 2.7819251,10.328471 1.5777323,11.024889 1.5777323,11.024889 L 1.6849696,9.064601 C 1.6849696,9.064601 3.9670921,9.3687229 5.0133781,8.7036401 C 6.2670147,7.9067529 6.049365,7.280649 5.8650247,6.3528997 C 5.6967214,5.505861 4.6934348,4.7767656 4.6934348,3.8581022 C 4.6934348,2.1060047 6.5300078,1.4213769 6.9208227,1.4593813 C 7.2778247,1.4940976 9.4427052,2.0207782 9.4426981,3.8581022 C 9.4426967,4.1655646 8.6891619,5.3088794 8.413301,6.1374205 C 8.1374402,6.9659615 8.828414,8.4003777 9.5984188,8.7398309 C 10.600942,9.1817882 12.963015,9.1707894 12.963015,9.1707894 C 12.776396,11.058638 13.393623,12.683751 14.418678,13.363513 C 15.385616,14.004735 16.625647,13.341528 17.484561,12.645233 z "
       id="path3357"
       sodipodi:nodetypes="csszccczzzccssszsssczz"
       inkscape:export-filename="/home/lse/public_html/Bambus/System/Applications/ATPLEditor.bap/Icon.png"
       inkscape:export-xdpi="33"
       inkscape:export-ydpi="33" />
  </g>
</svg>
