<?xml version="1.0" encoding="UTF-8" standalone="no"?>
<!-- Created with Inkscape (http://www.inkscape.org/) -->

<svg
   xmlns:dc="http://purl.org/dc/elements/1.1/"
   xmlns:cc="http://creativecommons.org/ns#"
   xmlns:rdf="http://www.w3.org/1999/02/22-rdf-syntax-ns#"
   xmlns:svg="http://www.w3.org/2000/svg"
   xmlns="http://www.w3.org/2000/svg"
   xmlns:xlink="http://www.w3.org/1999/xlink"
   xmlns:sodipodi="http://sodipodi.sourceforge.net/DTD/sodipodi-0.dtd"
   xmlns:inkscape="http://www.inkscape.org/namespaces/inkscape"
   width="22"
   height="22"
   id="svg2"
   version="1.1"
   inkscape:version="0.48.2 r9819"
   sodipodi:docname="delete-doc.svg"
   inkscape:export-filename="/Users/lse/Desktop/delete-doc.png"
   inkscape:export-xdpi="90"
   inkscape:export-ydpi="90">
  <defs
     id="defs4">
    <linearGradient
       inkscape:collect="always"
       id="linearGradient4480">
      <stop
         style="stop-color:#3c2323;stop-opacity:1;"
         offset="0"
         id="stop4482" />
      <stop
         style="stop-color:#3c2323;stop-opacity:0;"
         offset="1"
         id="stop4484" />
    </linearGradient>
    <linearGradient
       inkscape:collect="always"
       id="linearGradient4344">
      <stop
         style="stop-color:#000000;stop-opacity:1;"
         offset="0"
         id="stop4346" />
      <stop
         style="stop-color:#000000;stop-opacity:0"
         offset="1"
         id="stop4348" />
    </linearGradient>
    <linearGradient
       inkscape:collect="always"
       xlink:href="#linearGradient4344"
       id="linearGradient4350"
       x1="11.5"
       y1="1050.8622"
       x2="11.5"
       y2="1037.3622"
       gradientUnits="userSpaceOnUse"
       gradientTransform="matrix(0.89279882,0,0,0.89279882,0.44721542,112.61757)" />
    <filter
       inkscape:collect="always"
       id="filter4383">
      <feGaussianBlur
         inkscape:collect="always"
         stdDeviation="0.20428437"
         id="feGaussianBlur4385" />
    </filter>
    <filter
       inkscape:collect="always"
       id="filter4425">
      <feGaussianBlur
         inkscape:collect="always"
         stdDeviation="0.39007397"
         id="feGaussianBlur4427" />
    </filter>
    <linearGradient
       inkscape:collect="always"
       xlink:href="#linearGradient4480"
       id="linearGradient4486"
       x1="10"
       y1="1044.3622"
       x2="11.000599"
       y2="1050.2983"
       gradientUnits="userSpaceOnUse"
       gradientTransform="matrix(1.066901,0,0,1.1424902,-0.73654964,-149.09343)" />
    <linearGradient
       inkscape:collect="always"
       xlink:href="#linearGradient4480"
       id="linearGradient4494"
       x1="10"
       y1="1044.3622"
       x2="11.000599"
       y2="1050.2983"
       gradientUnits="userSpaceOnUse"
       gradientTransform="matrix(1.066901,0,0,1.1424902,-0.73654964,-149.09343)" />
  </defs>
  <sodipodi:namedview
     id="base"
     pagecolor="#ffffff"
     bordercolor="#666666"
     borderopacity="1.0"
     inkscape:pageopacity="0.0"
     inkscape:pageshadow="2"
     inkscape:zoom="35.032379"
     inkscape:cx="10.899268"
     inkscape:cy="10.523627"
     inkscape:document-units="px"
     inkscape:current-layer="layer1"
     showgrid="true"
     inkscape:window-width="1566"
     inkscape:window-height="1001"
     inkscape:window-x="50"
     inkscape:window-y="0"
     inkscape:window-maximized="0">
    <inkscape:grid
       type="xygrid"
       id="grid2985"
       empspacing="2"
       visible="true"
       enabled="true"
       snapvisiblegridlinesonly="true"
       spacingx="0.5px"
       spacingy="0.5px" />
  </sodipodi:namedview>
  <metadata
     id="metadata7">
    <rdf:RDF>
      <cc:Work
         rdf:about="">
        <dc:format>image/svg+xml</dc:format>
        <dc:type
           rdf:resource="http://purl.org/dc/dcmitype/StillImage" />
        <dc:title></dc:title>
      </cc:Work>
    </rdf:RDF>
  </metadata>
  <g
     inkscape:label="Layer 1"
     inkscape:groupmode="layer"
     id="layer1"
     transform="translate(0,-1030.3622)">
    <path
       style="fill:#eeeeec;fill-opacity:1;fill-rule:evenodd;stroke:#d3d7cf;stroke-width:1.00551152;stroke-linecap:square;stroke-linejoin:miter;stroke-miterlimit:18.60000038;stroke-opacity:1;stroke-dashoffset:0;marker:none;visibility:visible;display:inline;overflow:visible;enable-background:accumulate"
       d="m 3.4937284,1030.8948 15.0062726,0 0,10.4776 -2.500001,0.9898 -4.5,5.5 -2,0.5 -6.0062716,-3.7072 z"
       id="rect3776"
       inkscape:connector-curvature="0"
       sodipodi:nodetypes="cccccccc" />
    <path
       style="fill:#eeeeec;fill-opacity:1;fill-rule:evenodd;stroke:#ffffff;stroke-width:0.98500001;stroke-linecap:square;stroke-linejoin:miter;stroke-miterlimit:18.60000038;stroke-opacity:1;stroke-dashoffset:0;marker:none;visibility:visible;display:inline;overflow:visible;enable-background:accumulate"
       d="m 4.5235925,1031.8365 12.9904385,0 -0.01403,9.5257 -6,6 -2,0.5 -5,-4 z"
       id="rect4345"
       inkscape:connector-curvature="0"
       sodipodi:nodetypes="ccccccc" />
    <path
       sodipodi:type="arc"
       style="fill:#555753;fill-opacity:1;fill-rule:evenodd;stroke:none;stroke-width:1;marker:none;visibility:visible;display:inline;overflow:visible;enable-background:accumulate"
       id="path4313"
       sodipodi:cx="3.8742576"
       sodipodi:cy="8.4851484"
       sodipodi:rx="1.0361387"
       sodipodi:ry="1.0361387"
       d="m 4.9103962,8.4851484 a 1.0361387,1.0361387 0 1 1 -2.0722773,0 1.0361387,1.0361387 0 1 1 2.0722773,0 z"
       transform="matrix(0.4782609,0,0,0.4782609,3.6688762,1033.7764)" />
    <path
       sodipodi:type="arc"
       style="fill:#555753;fill-opacity:1;fill-rule:evenodd;stroke:none;stroke-width:1;marker:none;visibility:visible;display:inline;overflow:visible;enable-background:accumulate"
       id="path4315"
       sodipodi:cx="3.8742576"
       sodipodi:cy="8.4851484"
       sodipodi:rx="1.0361387"
       sodipodi:ry="1.0361387"
       d="m 4.9103962,8.4851484 a 1.0361387,1.0361387 0 1 1 -2.0722773,0 1.0361387,1.0361387 0 1 1 2.0722773,0 z"
       transform="matrix(0.42699076,0,0,0.42699076,3.7073143,1041.8462)" />
    <path
       style="fill:#729fcf;stroke:#729fcf;stroke-width:1px;stroke-linecap:butt;stroke-linejoin:miter;stroke-opacity:1;filter:url(#filter4425)"
       d="m 10.51157,1035.9549 c 0,0 0.117137,2.0476 -0.403349,3.2038 -0.520487,1.1565 -2.4578377,2.1927 -2.8899895,3.301 -0.4321514,1.1084 -0.1148402,2.7802 -0.1148402,2.7802 -0.4244843,-0.3484 -1.487129,-4.0387 -1.487129,-4.0387 -1.8606206,2.2966 -1.6756743,5.3507 -0.4485997,7.6407 1.2270744,2.2898 3.1527038,2.9946 5.2817674,3.007 2.129066,0.011 5.204951,-1.836 4.846803,-3.6822 -0.593109,-4.3346 1.367046,-6.2594 1.367046,-6.2594 0,0 -2.262069,-0.1076 -4.163279,2.4549 0,0 -0.526299,-1.1229 -0.559247,-2.1479 -0.03294,-1.025 1.069422,-2.7178 0.745661,-3.866 -0.323756,-1.1483 -2.174844,-2.3934 -2.174844,-2.3934 z"
       id="path3530-2-7"
       inkscape:connector-curvature="0"
       sodipodi:nodetypes="czzcczzccszzc" />
    <path
       style="fill:url(#linearGradient4494);fill-opacity:1;stroke:url(#linearGradient4486);stroke-width:1;stroke-linecap:square;stroke-linejoin:miter;stroke-miterlimit:18.60000038;stroke-opacity:1;stroke-dasharray:none;stroke-dashoffset:0;marker:none;visibility:visible;display:inline;overflow:visible;enable-background:accumulate"
       d="m 4,1044.3663 9.133163,0.2851 2.066837,-1.7843 2.8,-1.4991 0,10.4942 -14,0 z"
       id="rect4345-3"
       inkscape:connector-curvature="0"
       sodipodi:nodetypes="ccccccc" />
    <path
       style="fill:#f57900;stroke:#ce5c00;stroke-width:1px;stroke-linecap:butt;stroke-linejoin:miter;stroke-opacity:1"
       d="m 10.699316,1035.825 c 0,0 0.117137,2.0476 -0.403349,3.2038 -0.5204872,1.1565 -2.4578377,2.1927 -2.8899895,3.301 -0.4321514,1.1084 -0.1148402,2.7802 -0.1148402,2.7802 -0.4244843,-0.3484 -1.487129,-4.0387 -1.487129,-4.0387 -1.8606206,2.2966 -1.6756743,5.3507 -0.4485997,7.6407 1.2270744,2.2898 3.1527038,2.9946 5.2817674,3.007 2.129066,0.011 5.204951,-1.836 4.846803,-3.6822 -0.593109,-4.3346 1.367046,-6.2594 1.367046,-6.2594 0,0 -2.262069,-0.1076 -4.163279,2.4549 0,0 -0.526299,-1.1229 -0.559247,-2.1479 -0.03294,-1.025 1.069422,-2.7178 0.745661,-3.866 -0.323756,-1.1483 -2.174844,-2.3934 -2.174844,-2.3934 z"
       id="path3530-2"
       inkscape:connector-curvature="0"
       sodipodi:nodetypes="czzcczzccszzc" />
    <path
       style="opacity:0.39655172000000000;fill:url(#linearGradient4350);fill-opacity:1;stroke:#ffffff;stroke-width:0.7;stroke-linecap:butt;stroke-linejoin:miter;stroke-miterlimit:4;stroke-opacity:1;stroke-dasharray:none;filter:url(#filter4383)"
       d="m 11.607201,1038.327 c 0,0 -0.487026,1.3192 -0.892799,2.2319 -0.405773,0.9129 -1.4486904,1.3571 -1.7855977,2.232 -0.3369071,0.875 0,4.9104 0,4.9104 -2.6783965,-0.8928 -3.5711953,-4.464 -3.5711953,-4.464 0.4463993,2.6784 0.3825667,2.6561 1.3391982,4.464 0.9566318,1.8077 1.9113686,2.6687 3.5711948,2.6784 1.659828,0.011 3.850409,-1.221 3.571195,-2.6784 0.4464,-3.5712 0.8928,-4.0175 0.8928,-4.0175 0,0 -0.749807,0.6557 -2.231997,2.6784 0,0 -1.785598,-0.8929 -1.785598,-4.0176 0.4464,-1.7857 0.892799,-3.1249 0.892799,-4.0176 z"
       id="path3530"
       inkscape:connector-curvature="0"
       sodipodi:nodetypes="czzcczzccscc" />
  </g>
</svg>
