<?xml version="1.0" encoding="UTF-8" standalone="no"?>
<!-- Created with Inkscape (http://www.inkscape.org/) -->
<svg
   xmlns:dc="http://purl.org/dc/elements/1.1/"
   xmlns:cc="http://creativecommons.org/ns#"
   xmlns:rdf="http://www.w3.org/1999/02/22-rdf-syntax-ns#"
   xmlns:svg="http://www.w3.org/2000/svg"
   xmlns="http://www.w3.org/2000/svg"
   xmlns:sodipodi="http://sodipodi.sourceforge.net/DTD/sodipodi-0.dtd"
   xmlns:inkscape="http://www.inkscape.org/namespaces/inkscape"
   width="22"
   height="22"
   id="svg5214"
   sodipodi:version="0.32"
   inkscape:version="0.46"
   version="1.0"
   inkscape:export-filename="/Users/lse/Sites/BambusONE/System/ClientData/Icons/tango/small/actions/access.png"
   inkscape:export-xdpi="90"
   inkscape:export-ydpi="90"
   sodipodi:docname="action-access-small.svg"
   inkscape:output_extension="org.inkscape.output.svg.inkscape">
  <defs
     id="defs5216">
    <inkscape:perspective
       sodipodi:type="inkscape:persp3d"
       inkscape:vp_x="0 : 16 : 1"
       inkscape:vp_y="0 : 1000 : 0"
       inkscape:vp_z="32 : 16 : 1"
       inkscape:persp3d-origin="16 : 10.666667 : 1"
       id="perspective2437" />
  </defs>
  <sodipodi:namedview
     id="base"
     pagecolor="#ffffff"
     bordercolor="#666666"
     borderopacity="1.0"
     gridtolerance="10000"
     guidetolerance="10"
     objecttolerance="10"
     inkscape:pageopacity="0.0"
     inkscape:pageshadow="2"
     inkscape:zoom="1"
     inkscape:cx="5.6982456"
     inkscape:cy="6.3672024"
     inkscape:document-units="px"
     inkscape:current-layer="layer1"
     showgrid="true"
     inkscape:snap-bbox="true"
     inkscape:snap-nodes="false"
     inkscape:window-width="1374"
     inkscape:window-height="1019"
     inkscape:window-x="189"
     inkscape:window-y="42">
    <inkscape:grid
       type="xygrid"
       id="grid5224"
       visible="true"
       enabled="true" />
  </sodipodi:namedview>
  <metadata
     id="metadata5219">
    <rdf:RDF>
      <cc:Work
         rdf:about="">
        <dc:format>image/svg+xml</dc:format>
        <dc:type
           rdf:resource="http://purl.org/dc/dcmitype/StillImage" />
      </cc:Work>
    </rdf:RDF>
  </metadata>
  <g
     inkscape:label="Layer 1"
     inkscape:groupmode="layer"
     id="layer1">
    <path
       style="fill:#fce94f;fill-opacity:1;stroke:#c4a000;stroke-width:1;stroke-linejoin:miter;stroke-miterlimit:18.60000038000000089;stroke-dashoffset:0;stroke-opacity:1"
       d="M 8.837155,1.807621 C 6.8799509,0.05509607 3.9441086,0.055539447 2.0542465,1.8610852 C 0.03839365,3.7870007 -0.024790492,7.0547136 1.9128808,9.1721076 C 3.3288102,10.719367 5.4195254,11.23056 7.2314451,10.635942 L 8.8277123,12.462304 L 10.754686,12.435005 L 12.578246,13.68936 L 12.494695,15.977174 L 14.401808,14.943715 L 14.398975,18.140118 L 17.047551,18.409123 L 16.633628,20.500001 L 20.949124,20.476364 L 9.9489829,8.3550732 C 11.019576,6.4434934 10.78977,3.941346 9.2029212,2.2073127 C 9.0818166,2.0749756 8.9676353,1.9244559 8.837155,1.807621 z M 5.8293014,3.8532834 C 6.3599664,4.4331682 6.3425406,5.334361 5.7904651,5.8618056 C 5.2383884,6.3892513 4.3572076,6.3465738 3.8265427,5.7666889 C 3.2958781,5.1868038 3.3133035,4.2856113 3.8653803,3.7581654 C 4.4174556,3.230721 5.2986365,3.2733985 5.8293014,3.8532834 z"
       id="rect2449"
       sodipodi:nodetypes="csscccccccccccsccsssc" />
    <path
       style="opacity:0.72139306000000003;fill:#fce94f;fill-opacity:1;stroke:#edd400;stroke-width:1;stroke-linejoin:miter;stroke-miterlimit:18.60000038000000089;stroke-dashoffset:0;stroke-opacity:1"
       d="M 8.1739165,2.4412698 C 6.706549,1.1477536 4.1798421,1.0749351 2.6743991,2.538758 C 1.1930475,3.9797874 0.89784241,6.5334684 2.5064886,8.4623696 C 3.2236877,9.3223511 4.9831262,10.44864 7.6669035,9.6628241 L 8.8744851,8.5393176 C 9.8261176,6.9553115 10.017248,4.6080961 8.5396823,2.8409611 C 8.4245043,2.7032109 8.3043966,2.5581047 8.1739165,2.4412698 z M 6.4925404,3.2196351 C 7.30173,4.1038783 7.2978029,5.6918741 6.4106173,6.5394779 C 5.5978996,7.3159362 3.982894,7.4164701 3.163304,6.4003374 C 2.311921,5.3447883 2.2463375,4.0348171 3.2452275,3.0804925 C 4.2068821,2.1617422 5.6137197,2.2593022 6.4925404,3.2196351 z"
       id="path2461"
       sodipodi:nodetypes="cssccsccsssc" />
    <path
       style="opacity:0.72139306000000003;fill:#edd400;fill-opacity:1;stroke:none;stroke-width:1;stroke-linejoin:miter;stroke-miterlimit:18.60000038000000089;stroke-dashoffset:0;stroke-opacity:1"
       d="M 7.6449996,10.26288 L 9.0693596,11.98294 L 10.926702,11.879552 L 13.031206,13.364645 L 13.00424,15.027943 L 14.819907,14.273278 L 14.928823,17.67064 L 17.649446,17.942117 L 17.237943,19.959376 L 19.685796,19.893283 L 9.4207574,8.5423186 C 9.4207574,8.5423186 7.6449996,10.26288 7.6449996,10.26288 z"
       id="path2463"
       sodipodi:nodetypes="cccccccccccc" />
  </g>
</svg>
