<?xml version="1.0" encoding="UTF-8" standalone="no"?>
<!-- Created with Inkscape (http://www.inkscape.org/) -->
<svg
   xmlns:dc="http://purl.org/dc/elements/1.1/"
   xmlns:cc="http://creativecommons.org/ns#"
   xmlns:rdf="http://www.w3.org/1999/02/22-rdf-syntax-ns#"
   xmlns:svg="http://www.w3.org/2000/svg"
   xmlns="http://www.w3.org/2000/svg"
   xmlns:xlink="http://www.w3.org/1999/xlink"
   xmlns:sodipodi="http://sodipodi.sourceforge.net/DTD/sodipodi-0.dtd"
   xmlns:inkscape="http://www.inkscape.org/namespaces/inkscape"
   width="48"
   height="48"
   id="svg5214"
   sodipodi:version="0.32"
   inkscape:version="0.46"
   version="1.0"
   inkscape:export-filename="/Users/lse/Sites/BambusONE/System/ClientData/Icons/tango/large/apps/utilities-linker.png"
   inkscape:export-xdpi="90"
   inkscape:export-ydpi="90"
   sodipodi:docname="app-utilities-linker-large.svg"
   inkscape:output_extension="org.inkscape.output.svg.inkscape">
  <defs
     id="defs5216">
    <linearGradient
       inkscape:collect="always"
       id="linearGradient3446">
      <stop
         style="stop-color:#ffffff;stop-opacity:1"
         offset="0"
         id="stop3448" />
      <stop
         style="stop-color:#ffffff;stop-opacity:0"
         offset="1"
         id="stop3450" />
    </linearGradient>
    <linearGradient
       inkscape:collect="always"
       id="linearGradient3436">
      <stop
         style="stop-color:#3465a4;stop-opacity:1"
         offset="0"
         id="stop3438" />
      <stop
         style="stop-color:#729fcf;stop-opacity:1"
         offset="1"
         id="stop3440" />
    </linearGradient>
    <linearGradient
       inkscape:collect="always"
       id="linearGradient3347">
      <stop
         style="stop-color:#fce94f;stop-opacity:1;"
         offset="0"
         id="stop3349" />
      <stop
         style="stop-color:#fce94f;stop-opacity:0;"
         offset="1"
         id="stop3351" />
    </linearGradient>
    <linearGradient
       inkscape:collect="always"
       id="linearGradient3335">
      <stop
         style="stop-color:#8ae234;stop-opacity:1;"
         offset="0"
         id="stop3337" />
      <stop
         style="stop-color:#d3e2d1;stop-opacity:1"
         offset="1"
         id="stop3339" />
    </linearGradient>
    <linearGradient
       inkscape:collect="always"
       id="linearGradient3325">
      <stop
         style="stop-color:#8ae234;stop-opacity:1;"
         offset="0"
         id="stop3327" />
      <stop
         style="stop-color:#d5eed7;stop-opacity:1"
         offset="1"
         id="stop3329" />
    </linearGradient>
    <linearGradient
       inkscape:collect="always"
       id="linearGradient2537">
      <stop
         style="stop-color:#8ae234;stop-opacity:1;"
         offset="0"
         id="stop2539" />
      <stop
         style="stop-color:#edd400;stop-opacity:1"
         offset="1"
         id="stop2541" />
    </linearGradient>
    <inkscape:perspective
       sodipodi:type="inkscape:persp3d"
       inkscape:vp_x="0 : 24 : 1"
       inkscape:vp_y="0 : 1000 : 0"
       inkscape:vp_z="48 : 24 : 1"
       inkscape:persp3d-origin="24 : 16 : 1"
       id="perspective2445" />
    <linearGradient
       inkscape:collect="always"
       id="linearGradient5772">
      <stop
         style="stop-color:#ffffff;stop-opacity:1;"
         offset="0"
         id="stop5774" />
      <stop
         style="stop-color:#ffffff;stop-opacity:0;"
         offset="1"
         id="stop5776" />
    </linearGradient>
    <linearGradient
       inkscape:collect="always"
       xlink:href="#linearGradient5772"
       id="linearGradient5778"
       x1="17.023659"
       y1="7.6149831"
       x2="17.023659"
       y2="24.223293"
       gradientUnits="userSpaceOnUse" />
    <inkscape:perspective
       id="perspective2511"
       inkscape:persp3d-origin="372.04724 : 350.78739 : 1"
       inkscape:vp_z="744.09448 : 526.18109 : 1"
       inkscape:vp_y="0 : 1000 : 0"
       inkscape:vp_x="0 : 526.18109 : 1"
       sodipodi:type="inkscape:persp3d" />
    <linearGradient
       inkscape:collect="always"
       xlink:href="#linearGradient2537"
       id="linearGradient3315"
       x1="-1.1351522"
       y1="75.311684"
       x2="-2.6757815"
       y2="121.04288"
       gradientUnits="userSpaceOnUse" />
    <linearGradient
       inkscape:collect="always"
       xlink:href="#linearGradient3325"
       id="linearGradient3333"
       x1="33.792107"
       y1="37.197617"
       x2="32.885265"
       y2="-82.211632"
       gradientUnits="userSpaceOnUse" />
    <linearGradient
       inkscape:collect="always"
       xlink:href="#linearGradient3335"
       id="linearGradient3343"
       x1="-113.55769"
       y1="-24.512772"
       x2="-70.002266"
       y2="-55.635395"
       gradientUnits="userSpaceOnUse" />
    <radialGradient
       inkscape:collect="always"
       xlink:href="#linearGradient3347"
       id="radialGradient3353"
       cx="118.00543"
       cy="61.140594"
       fx="118.00543"
       fy="61.140594"
       r="87.515625"
       gradientTransform="matrix(-0.2177287,-0.950803,1.1446271,-0.2621121,42.091141,194.64512)"
       gradientUnits="userSpaceOnUse" />
    <linearGradient
       inkscape:collect="always"
       xlink:href="#linearGradient3335"
       id="linearGradient3356"
       gradientUnits="userSpaceOnUse"
       x1="-113.55769"
       y1="-24.512772"
       x2="-70.002266"
       y2="-55.635395" />
    <radialGradient
       inkscape:collect="always"
       xlink:href="#linearGradient3347"
       id="radialGradient3359"
       gradientUnits="userSpaceOnUse"
       gradientTransform="matrix(-0.2177287,-0.950803,1.1446271,-0.2621121,42.091141,194.64512)"
       cx="118.00543"
       cy="61.140594"
       fx="118.00543"
       fy="61.140594"
       r="87.515625" />
    <linearGradient
       inkscape:collect="always"
       xlink:href="#linearGradient2537"
       id="linearGradient3362"
       gradientUnits="userSpaceOnUse"
       x1="-1.1351522"
       y1="75.311684"
       x2="-2.6757815"
       y2="121.04288" />
    <linearGradient
       inkscape:collect="always"
       xlink:href="#linearGradient2537"
       id="linearGradient3376"
       gradientUnits="userSpaceOnUse"
       x1="-1.1351522"
       y1="75.311684"
       x2="-2.6757815"
       y2="121.04288" />
    <linearGradient
       inkscape:collect="always"
       xlink:href="#linearGradient3325"
       id="linearGradient3378"
       gradientUnits="userSpaceOnUse"
       x1="33.792107"
       y1="37.197617"
       x2="32.885265"
       y2="-82.211632" />
    <linearGradient
       inkscape:collect="always"
       xlink:href="#linearGradient3335"
       id="linearGradient3380"
       gradientUnits="userSpaceOnUse"
       x1="-113.55769"
       y1="-24.512772"
       x2="-70.002266"
       y2="-55.635395" />
    <radialGradient
       inkscape:collect="always"
       xlink:href="#linearGradient3347"
       id="radialGradient3382"
       gradientUnits="userSpaceOnUse"
       gradientTransform="matrix(-0.2177287,-0.950803,1.1446271,-0.2621121,42.091141,194.64512)"
       cx="118.00543"
       cy="61.140594"
       fx="118.00543"
       fy="61.140594"
       r="87.515625" />
    <radialGradient
       inkscape:collect="always"
       xlink:href="#linearGradient3347"
       id="radialGradient3385"
       gradientUnits="userSpaceOnUse"
       gradientTransform="matrix(-4.2581014e-2,-0.1859477,0.2238537,-5.1261037e-2,32.119861,56.369099)"
       cx="118.00543"
       cy="61.140594"
       fx="118.00543"
       fy="61.140594"
       r="87.515625" />
    <linearGradient
       inkscape:collect="always"
       xlink:href="#linearGradient3335"
       id="linearGradient3390"
       gradientUnits="userSpaceOnUse"
       x1="-113.55769"
       y1="-24.512772"
       x2="-70.002266"
       y2="-55.635395"
       gradientTransform="matrix(0.1906898,0,0,0.1906898,23.42547,17.80502)" />
    <linearGradient
       inkscape:collect="always"
       xlink:href="#linearGradient3325"
       id="linearGradient3394"
       gradientUnits="userSpaceOnUse"
       x1="33.792107"
       y1="37.197617"
       x2="32.885265"
       y2="-82.211632"
       gradientTransform="matrix(0.1955691,0,0,0.1955691,23.888133,18.302521)" />
    <linearGradient
       inkscape:collect="always"
       xlink:href="#linearGradient2537"
       id="linearGradient3397"
       gradientUnits="userSpaceOnUse"
       x1="-1.1351522"
       y1="75.311684"
       x2="-2.6757815"
       y2="121.04288"
       gradientTransform="matrix(0.1959073,0,0,0.1959073,23.842834,17.940802)" />
    <linearGradient
       inkscape:collect="always"
       xlink:href="#linearGradient2537"
       id="linearGradient3410"
       gradientUnits="userSpaceOnUse"
       gradientTransform="matrix(0.1959073,0,0,0.1959073,23.842834,17.940802)"
       x1="-1.1351522"
       y1="75.311684"
       x2="-2.6757815"
       y2="121.04288" />
    <linearGradient
       inkscape:collect="always"
       xlink:href="#linearGradient3325"
       id="linearGradient3412"
       gradientUnits="userSpaceOnUse"
       gradientTransform="matrix(0.1955691,0,0,0.1955691,23.888133,18.302521)"
       x1="33.792107"
       y1="37.197617"
       x2="32.885265"
       y2="-82.211632" />
    <linearGradient
       inkscape:collect="always"
       xlink:href="#linearGradient3335"
       id="linearGradient3414"
       gradientUnits="userSpaceOnUse"
       gradientTransform="matrix(0.1906898,0,0,0.1906898,23.42547,17.80502)"
       x1="-113.55769"
       y1="-24.512772"
       x2="-70.002266"
       y2="-55.635395" />
    <radialGradient
       inkscape:collect="always"
       xlink:href="#linearGradient3347"
       id="radialGradient3416"
       gradientUnits="userSpaceOnUse"
       gradientTransform="matrix(-4.2581014e-2,-0.1859477,0.2238537,-5.1261037e-2,32.119861,56.369099)"
       cx="118.00543"
       cy="61.140594"
       fx="118.00543"
       fy="61.140594"
       r="87.515625" />
    <radialGradient
       inkscape:collect="always"
       xlink:href="#linearGradient3347"
       id="radialGradient3419"
       gradientUnits="userSpaceOnUse"
       gradientTransform="matrix(-4.0623799e-2,-0.1774007,0.2135644,-4.8904849e-2,30.921976,55.675636)"
       cx="118.00543"
       cy="61.140594"
       fx="118.00543"
       fy="61.140594"
       r="87.515625" />
    <linearGradient
       inkscape:collect="always"
       xlink:href="#linearGradient3335"
       id="linearGradient3424"
       gradientUnits="userSpaceOnUse"
       gradientTransform="matrix(0.1819248,0,0,0.1819248,22.627218,18.884135)"
       x1="-113.55769"
       y1="-24.512772"
       x2="-70.002266"
       y2="-55.635395" />
    <linearGradient
       inkscape:collect="always"
       xlink:href="#linearGradient3325"
       id="linearGradient3428"
       gradientUnits="userSpaceOnUse"
       gradientTransform="matrix(0.1865799,0,0,0.1865799,23.068615,19.358769)"
       x1="33.792107"
       y1="37.197617"
       x2="32.885265"
       y2="-82.211632" />
    <linearGradient
       inkscape:collect="always"
       xlink:href="#linearGradient2537"
       id="linearGradient3431"
       gradientUnits="userSpaceOnUse"
       gradientTransform="matrix(0.1869025,0,0,0.1869025,23.025398,19.013676)"
       x1="-1.1351522"
       y1="75.311684"
       x2="-2.6757815"
       y2="121.04288" />
    <linearGradient
       inkscape:collect="always"
       xlink:href="#linearGradient3436"
       id="linearGradient3444"
       x1="-17.615215"
       y1="91.0308"
       x2="-11.118235"
       y2="-62.649628"
       gradientUnits="userSpaceOnUse" />
    <linearGradient
       inkscape:collect="always"
       xlink:href="#linearGradient3446"
       id="linearGradient3452"
       x1="8.5061026"
       y1="-117.06905"
       x2="8.0374002"
       y2="29.645702"
       gradientUnits="userSpaceOnUse" />
  </defs>
  <sodipodi:namedview
     id="base"
     pagecolor="#ffffff"
     bordercolor="#666666"
     borderopacity="1.0"
     gridtolerance="10000"
     guidetolerance="10"
     objecttolerance="10"
     inkscape:pageopacity="0.0"
     inkscape:pageshadow="2"
     inkscape:zoom="0.78720872"
     inkscape:cx="12.9981"
     inkscape:cy="0.05701043"
     inkscape:document-units="px"
     inkscape:current-layer="layer1"
     showgrid="true"
     inkscape:snap-bbox="true"
     inkscape:snap-nodes="false"
     inkscape:window-width="1374"
     inkscape:window-height="1019"
     inkscape:window-x="136"
     inkscape:window-y="22">
    <inkscape:grid
       type="xygrid"
       id="grid5224"
       visible="true"
       enabled="true" />
  </sodipodi:namedview>
  <metadata
     id="metadata5219">
    <rdf:RDF>
      <cc:Work
         rdf:about="">
        <dc:format>image/svg+xml</dc:format>
        <dc:type
           rdf:resource="http://purl.org/dc/dcmitype/StillImage" />
      </cc:Work>
    </rdf:RDF>
  </metadata>
  <g
     inkscape:label="Layer 1"
     inkscape:groupmode="layer"
     id="layer1">
    <path
       sodipodi:type="arc"
       style="fill:url(#linearGradient3444);fill-opacity:1;stroke:#204a87;stroke-width:5.48344374000000023;stroke-linejoin:miter;stroke-miterlimit:18.60000038000000089;stroke-dasharray:none;stroke-dashoffset:0;stroke-opacity:1"
       id="path2517"
       sodipodi:cx="0"
       sodipodi:cy="11.796133"
       sodipodi:rx="128.93658"
       sodipodi:ry="128.93658"
       d="M 128.93658,11.796133 A 128.93658,128.93658 0 1 1 -128.93658,11.796133 A 128.93658,128.93658 0 1 1 128.93658,11.796133 z"
       transform="matrix(0.182367,0,0,0.182367,23.98946,21.858106)" />
    <path
       style="fill:url(#linearGradient3431);fill-opacity:1;fill-rule:evenodd;stroke:none;stroke-width:0.99999994px;stroke-linecap:butt;stroke-linejoin:miter;stroke-opacity:1"
       d="M 25.993202,47.691218 C 25.241358,47.21637 24.489515,46.741522 23.737672,46.266673 C 24.252971,44.61821 22.163334,45.262483 21.223384,44.97104 C 19.431471,44.714998 17.616095,44.517887 15.840438,44.211795 C 14.952157,43.643102 13.967908,43.194594 13.142108,42.547659 C 12.524188,41.85854 11.819672,41.216832 11.255362,40.498364 C 11.079372,39.70658 10.815972,38.916275 10.694477,38.123567 C 10.843856,37.58104 10.875063,36.974078 11.096911,36.471063 C 11.855638,35.605502 12.713674,34.867703 13.908441,34.783124 C 14.601809,34.830584 14.684473,34.126114 14.963004,33.663114 C 15.1427,33.21077 15.38751,32.813585 15.83522,32.588281 C 16.200031,32.418727 16.527828,31.801948 16.938196,32.18284 C 17.465761,32.382556 17.942966,32.892612 18.540375,32.661929 C 20.097245,32.381873 21.679006,32.358688 23.254707,32.362045 C 24.025583,32.299282 25.258918,31.55948 25.024956,32.872601 C 24.842689,33.792323 25.370657,34.092531 26.156833,34.107096 C 26.617894,34.206674 27.14394,34.183048 27.41939,34.63452 C 27.730902,35.031201 28.289386,35.028269 28.723582,35.226441 C 29.18594,35.031101 29.294472,34.620664 29.317144,34.15803 C 29.770583,33.906749 30.11991,33.297934 30.699255,33.47902 C 32.015575,33.593217 33.34772,33.628366 34.659192,33.445758 C 35.196101,33.834155 35.753086,34.203124 36.06485,34.809405 C 36.758266,35.822511 37.667943,36.664175 38.45798,37.600683 C 39.203523,38.087137 40.108124,38.110004 40.950937,38.312956 C 41.684111,37.831043 42.38911,37.315551 42.969044,36.650987 C 41.267502,38.98566 39.565961,41.320332 37.864421,43.655003 C 35.864208,44.651792 33.888345,45.701628 31.799257,46.504815 C 31.039477,46.824684 30.297497,47.209967 29.454351,47.223498 C 28.300635,47.379405 27.146919,47.535312 25.993202,47.691218 z"
       id="path2519" />
    <path
       style="fill:url(#linearGradient3428);fill-opacity:1;fill-rule:evenodd;stroke:none;stroke-width:0.99999994px;stroke-linecap:butt;stroke-linejoin:miter;stroke-opacity:1"
       d="M 25.319235,-0.0105567 L 25.319235,0.5841668 C 25.319235,0.5841668 27.451348,0.70077923 27.569855,0.70077923 C 27.688362,0.7007798 28.759302,1.4121151 28.759302,1.4121151 L 29.703862,2.1234509 L 28.403633,1.6511706 C 28.403633,1.6511709 28.87402,2.2439991 28.992527,2.3625064 C 29.111034,2.4810136 30.176143,2.5957313 30.176143,2.5957313 L 31.243147,2.5957313 C 31.243147,2.5957315 31.245188,3.6666711 31.482203,3.7851782 C 31.719216,3.9036857 31.36559,4.1408462 31.36559,4.1408462 C 31.36559,4.1408455 30.298586,4.1389512 30.298586,4.2574585 C 30.298586,4.3759653 29.703862,4.729739 29.703862,4.729739 L 28.759302,4.9687944 C 28.759302,4.9687948 29.113075,5.7967428 29.231582,5.7967428 C 29.35009,5.796743 30.654254,5.3244624 30.654254,5.3244624 L 31.837871,6.2748538 L 32.665819,7.45847 L 32.549205,8.0473628 L 31.954483,7.8141378 C 31.954483,7.8141377 32.430699,9.2368096 32.549205,9.2368096 C 32.667713,9.2368093 33.260542,9.5924776 33.260542,9.5924776 L 32.904875,10.064758 L 31.954483,10.18137 L 31.126534,9.3534221 L 30.531811,8.2864182 L 30.176143,7.3360269 L 29.942918,7.8141378 L 29.826305,8.6420862 C 29.826305,8.6420864 30.180079,9.7071953 30.298586,9.8257024 C 30.417093,9.9442096 31.009923,10.185306 31.009923,10.303813 C 31.009922,10.422321 31.721257,10.420426 31.721257,10.420426 L 32.310151,10.537038 L 32.788262,10.892706 L 32.193538,11.370817 L 31.598814,11.370817 C 31.598814,11.370817 31.243147,11.485535 31.243147,11.604042 C 31.243147,11.72255 31.126534,12.076323 31.126534,12.076323 L 31.009923,12.554433 L 31.482203,12.910102 L 30.770866,12.671045 L 29.470638,12.431991 L 28.520247,12.431991 C 28.520247,12.431991 27.810805,11.95971 27.692298,11.95971 C 27.573791,11.95971 26.741906,12.315378 26.741906,12.315378 C 26.741907,12.315378 26.384197,12.791594 26.147184,12.910102 C 25.910169,13.028609 25.558291,13.621438 25.558291,13.621438 L 24.730343,14.565998 L 24.607899,15.160721 L 24.019006,15.988669 L 23.185228,16.939061 L 22.596334,17.767009 L 22.473891,18.594958 L 22.473891,19.661962 L 23.185228,20.140073 L 23.896563,19.428737 L 24.491287,19.428737 C 24.491287,19.428737 24.730343,20.021565 24.730343,20.140073 C 24.730343,20.25858 25.198832,20.849513 25.435848,20.968022 C 25.672862,21.086528 26.269626,21.084634 26.269626,21.084634 L 26.741906,20.612353 L 26.741906,19.901017 L 27.097575,19.073069 L 26.741906,18.361732 L 26.502851,16.700006 L 26.858519,16.227726 L 27.569855,15.044109 C 27.569855,15.044109 27.807015,15.044109 27.925523,15.044109 C 28.04403,15.044109 27.33663,16.939061 27.33663,16.939061 L 27.808911,18.006065 L 28.28119,18.478346 L 28.164578,19.306293 C 28.164578,19.306293 28.164578,20.377233 28.164578,20.495741 C 28.164578,20.614248 28.04403,21.088569 27.925523,21.207076 C 27.807015,21.325584 27.214187,21.679356 27.214187,21.679356 L 26.502851,21.679356 L 25.558291,22.035025 L 24.846954,22.035025 C 24.846954,22.035025 25.319235,21.675421 25.319235,21.556914 C 25.319235,21.438406 24.846954,20.728965 24.846954,20.728965 L 24.252231,19.784404 L 23.540896,20.968022 L 23.896563,21.912582 L 22.712948,22.507305 L 21.884999,23.102028 L 21.290276,23.690921 C 21.290276,23.690921 21.525395,22.746361 21.406887,22.746361 C 21.28838,22.74636 20.701382,22.035025 20.701382,22.035025 L 20.223272,20.851408 L 20.578939,19.901017 C 20.578939,19.901017 20.464222,19.54535 20.345715,19.54535 C 20.227207,19.54535 20.462327,18.594958 20.462327,18.594958 L 19.395324,19.189681 L 18.923043,20.256685 L 18.567375,20.851408 L 17.856039,21.207076 C 17.856039,21.207076 17.144703,20.851555 17.144703,21.207076 C 17.144703,21.562599 17.140767,22.035025 17.02226,22.035025 C 16.903753,22.035025 16.54998,22.272185 16.54998,22.390692 C 16.54998,22.5092 17.377928,22.746361 17.377928,22.746361 C 17.377928,22.74636 18.089264,22.864868 18.089264,22.746361 C 18.089264,22.627854 18.444932,22.153532 18.444932,22.035025 C 18.444932,21.916517 18.923043,21.440301 18.923043,21.440301 C 18.923043,21.440301 19.395324,21.677462 19.395324,21.79597 C 19.395323,21.914477 18.8006,22.507305 18.8006,22.507305 C 18.8006,22.507305 18.8006,22.744466 18.8006,22.862973 C 18.8006,22.981479 19.039655,23.218641 19.039655,23.218641 L 18.444932,23.574309 L 17.972652,24.285645 L 19.27871,24.046589 L 20.578939,24.046589 L 21.05122,24.046589 L 20.345715,24.641312 L 19.750991,24.402258 C 19.750991,24.402258 19.869498,24.76186 19.750991,24.880368 C 19.632483,24.998875 18.683988,24.996981 18.683988,24.996981 L 18.683988,25.352649 L 19.27871,25.824929 L 19.867604,27.130988 L 19.27871,28.314604 L 16.54998,27.603269 L 16.0777,28.075549 C 16.0777,28.075549 16.0777,28.79082 16.0777,28.909327 C 16.0777,29.027835 15.840539,29.735382 15.722031,29.853888 C 15.603525,29.972396 15.482976,30.681837 15.482976,30.681837 L 15.605419,31.276561 L 17.144703,32.343564 L 18.444932,32.104509 L 19.511936,31.748841 L 20.106658,30.920893 L 20.223272,30.092945 L 21.52933,29.381608 C 21.52933,29.381608 21.410823,28.786885 21.52933,28.786885 C 21.647839,28.786885 22.357279,28.786885 22.357279,28.786885 L 23.779951,28.197992 L 24.607899,28.786885 L 25.913958,30.209557 L 26.858519,30.565224 L 27.097575,31.037505 L 26.625294,31.515616 C 26.625294,31.515616 26.032466,31.397109 25.913958,31.515616 C 25.795452,31.634123 25.439782,32.226952 25.558291,32.226952 C 25.676798,32.226952 26.502851,32.699233 26.502851,32.699233 C 26.502851,32.699233 27.097575,32.578683 27.097575,32.460176 C 27.097575,32.341669 27.692298,31.632228 27.692298,31.632228 L 28.047966,30.681837 L 27.453242,30.332 L 28.520247,30.681837 L 28.164578,29.853888 L 26.741906,29.264997 L 26.147184,28.55366 L 25.435848,27.364213 L 26.980963,28.314604 L 28.164578,28.909327 L 29.11497,29.737276 L 29.231582,30.80428 L 29.826305,31.748841 L 30.298586,32.226952 L 31.954483,32.815844 L 32.432594,32.343564 L 31.243147,31.871284 L 31.243147,31.276561 L 31.482203,31.037505 L 30.531811,30.209557 L 31.598814,29.498221 L 31.954483,30.565224 L 32.665819,31.515616 L 33.732823,31.515616 L 34.08849,30.920893 L 34.444158,31.159948 L 35.038881,31.515616 L 35.627774,31.159948 L 36.105886,30.448612 L 36.105886,32.226952 L 35.750217,33.0549 L 34.683214,33.410568 L 36.461553,35.188908 L 36.817222,34.833239 L 39.067841,37.08386 L 40.251457,38.150863 L 41.201849,37.911808 C 41.201849,37.911808 43.217351,35.072296 43.335857,35.072296 C 43.454364,35.072296 43.924749,33.766236 43.924749,33.766236 L 44.636085,32.460176 L 44.875141,31.037505 L 44.991753,29.976331 L 44.519473,30.209557 L 44.047192,29.853888 L 43.335857,31.871284 L 42.624522,31.632228 L 41.790742,31.037505 L 41.790742,30.448612 L 43.096801,30.565224 L 44.163805,29.737276 L 45.108366,29.02594 L 46.175369,27.719882 L 47.953709,27.603269 L 47.953709,25.236036 L 47.953709,22.390692 L 47.837097,19.306293 L 46.297812,15.633002 L 44.875141,12.198766 L 42.857746,9.3534221 L 39.184454,5.3244624 L 34.916438,2.7181744 L 31.598814,1.2955026 L 28.875914,0.46755437 L 25.319235,-0.0105567 z M 39.306897,22.862973 L 40.251457,23.574309 L 40.962794,24.285645 C 40.962794,24.285645 41.318461,25.350753 41.318461,25.469262 C 41.318461,25.587769 41.913185,26.29721 41.913185,26.29721 L 40.723737,26.775321 L 40.134846,25.352649 L 39.184454,24.757925 L 38.473118,24.046589 C 38.473118,24.046589 38.712175,23.339042 38.712174,23.102028 C 38.712174,22.865015 39.306897,22.862973 39.306897,22.862973 z M 32.928196,25.4576 C 33.077922,25.43807 33.499597,26.063983 33.499597,26.063984 C 33.499597,26.063984 34.209038,26.29721 34.327546,26.29721 C 34.446053,26.29721 35.035093,25.708316 35.272107,25.708316 C 35.509121,25.708316 36.105886,25.947372 36.105886,25.947373 C 36.105886,25.947373 37.170995,26.301146 37.289502,26.419653 C 37.408009,26.53816 37.172889,27.008545 37.172889,27.008545 L 36.105886,27.486655 L 34.683214,27.486655 L 33.971877,28.431217 L 32.432594,28.670273 C 32.195579,28.551765 32.549205,27.127052 32.549205,27.008545 C 32.549205,26.890038 32.786366,25.587768 32.904875,25.469262 C 32.912281,25.461854 32.918215,25.458902 32.928196,25.4576 z"
       id="path2521" />
    <path
       style="fill:#8ae234;fill-rule:evenodd;stroke:none;stroke-width:0.99999994px;stroke-linecap:butt;stroke-linejoin:miter;stroke-opacity:1"
       d="M 15.839671,13.856719 C 16.022919,14.375583 16.230359,14.885506 16.432208,15.397313 C 16.763388,15.384886 17.103561,15.422057 17.42918,15.37897 C 17.728895,15.266577 18.02861,15.154184 18.328324,15.041791 C 18.407195,14.827705 18.500442,14.611307 18.372765,14.390001 C 18.265485,13.874801 17.574333,14.077758 17.193247,13.893752 C 16.795779,13.817187 16.383787,13.874401 15.979924,13.856719 C 15.933174,13.856719 15.886423,13.856719 15.839671,13.856719 z"
       id="path2527" />
    <path
       style="fill:url(#linearGradient3424);fill-opacity:1;fill-rule:evenodd;stroke:none;stroke-width:0.99999994px;stroke-linecap:butt;stroke-linejoin:miter;stroke-opacity:1"
       d="M 24.129376,-5.9542797e-05 C 23.71973,0.20696358 23.35192,0.57152278 22.858248,0.46214232 C 22.32919,0.42664514 21.816945,0.47398009 21.343382,0.73634958 C 20.523858,1.1717987 19.53853,0.66362584 18.732831,1.159339 C 18.252692,1.4492692 16.835141,1.6969575 16.995933,2.1827627 C 17.890977,2.3440248 19.189341,2.7180605 18.402017,3.7262278 C 18.738867,3.9757646 19.526975,4.1136656 18.814049,4.5064128 C 19.458213,4.6699195 20.37857,4.496177 20.182601,5.4849817 C 20.361096,6.0313265 21.298922,5.7190401 21.603418,6.3115824 C 22.49986,6.74194 21.376219,7.0730686 21.125061,7.6262782 C 20.623153,8.5508701 19.966775,9.4393168 19.300174,10.192539 C 18.069403,9.7695153 18.930346,11.878065 17.675696,11.512569 C 16.489239,11.798144 15.243333,11.759114 14.076476,12.132751 C 13.329828,11.585496 12.742576,12.863203 11.996566,13.057156 C 11.669487,13.77859 10.349659,13.472237 10.537411,12.713128 C 10.531393,11.959264 11.070641,11.372632 11.263541,10.668508 C 11.704391,9.6556586 13.004675,9.6636903 13.744268,8.9262222 C 14.673923,8.4379571 14.643196,7.0022237 15.809734,6.8174244 C 15.937467,6.2502494 16.228842,5.7954939 16.618588,5.4308175 C 15.475417,5.1264994 14.777807,6.1234619 14.078592,6.852631 C 13.238756,7.4805537 12.736602,8.4832834 11.854159,8.9968618 C 11.0714,9.2575795 9.4504175,10.148232 10.032206,8.521795 C 10.305794,7.8278473 11.130982,7.2949844 11.626443,6.9582519 C 11.331617,5.8109236 10.520608,7.192097 10.230132,7.3306314 C 10.15758,6.8501219 10.511058,5.1605994 9.6855538,6.1241208 C 9.2992787,6.9488629 8.9232948,7.7742682 7.9486841,7.9675136 C 7.3255528,8.2631995 6.1867726,9.1533692 7.5117587,9.3523151 C 8.2741688,8.9491973 8.8826633,7.9856467 9.9166546,7.8573795 C 9.663488,8.7798454 8.8400273,9.5269813 8.9922503,10.538514 C 8.59295,11.294446 7.9906449,11.974676 7.7153263,12.817478 C 7.503956,13.813495 7.0049456,14.727823 6.190149,15.368167 C 5.8222131,15.953967 5.8822942,17.280912 5.1790815,17.448077 C 5.0008443,16.779761 4.9579932,16.075456 4.2348606,15.837627 C 3.8318662,15.611743 3.6348325,15.219358 3.4565298,14.811828 C 3.3641884,14.372722 2.8443692,14.625286 2.5214179,14.559313 C 2.1747674,14.790414 1.8281151,15.021516 1.4814628,15.252617 C 2.3517731,13.47201 3.1863933,11.668131 4.0614918,9.8936854 C 5.153528,8.6766533 6.145867,7.3635857 7.3884808,6.2916014 C 7.8846382,5.7778016 8.4376231,5.3378503 9.0654123,4.9951081 C 10.097323,4.3794325 11.081932,3.6750749 12.144659,3.117172 C 13.588717,2.5025269 14.977479,1.743694 16.497262,1.3265012 C 17.932376,0.82655269 19.400225,0.44131372 20.87793,0.0906118 C 21.634114,-0.098810231 22.431262,0.044539327 23.205274,-5.9542797e-05 C 23.513308,-5.9542797e-05 23.821341,-5.9542797e-05 24.129376,-5.9542797e-05 z"
       id="path2529" />
    <path
       style="fill:none;fill-rule:evenodd;stroke:none;stroke-width:0.99999994px;stroke-linecap:butt;stroke-linejoin:miter;stroke-opacity:1"
       d="M 25.675775,9.2349352 L 25.675775,9.2349352 z"
       id="path2531" />
    <path
       style="fill:#8ae234;fill-rule:evenodd;stroke:none;stroke-width:0.99999994px;stroke-linecap:butt;stroke-linejoin:miter;stroke-opacity:1"
       d="M 25.794282,8.2868772 C 25.407133,8.0509967 24.954927,7.5902674 24.52876,8.0267672 C 24.153855,8.2317128 23.751938,8.4350536 23.603054,8.8683033 C 23.270413,9.4530354 24.171632,9.4880297 24.520937,9.6415229 C 24.739107,9.8577459 25.117097,9.7420066 25.392278,9.6780963 C 25.644788,9.5698785 25.897296,9.4616607 26.149804,9.3534427 C 26.031296,8.9979209 25.912789,8.6423991 25.794282,8.2868772 z"
       id="path2533" />
    <path
       style="fill:url(#radialGradient3419);fill-opacity:1;fill-rule:evenodd;stroke:none;stroke-width:0.99999994px;stroke-linecap:butt;stroke-linejoin:miter;stroke-opacity:1"
       d="M 25.319235,-0.0105567 C 25.357412,1.4140109 28.004854,0.046159852 28.759302,1.4121151 C 29.254195,1.7864406 30.137096,2.3711986 29.041061,1.8827024 C 27.551343,1.3236137 29.796627,3.1012502 30.579097,2.5957313 C 31.675123,2.2361674 31.917603,4.8613953 30.465306,4.1892425 C 30.028385,4.9667999 27.929658,4.6251404 29.231582,5.7967428 C 30.179465,5.2606916 30.983278,5.3036878 31.675408,6.1444035 C 32.057254,6.5417702 32.467998,7.0649581 32.64625,7.5572898 C 32.727141,8.526572 31.421095,7.2523998 32.207405,8.5254738 C 32.475025,9.2877141 33.911193,9.9425165 32.404929,10.126101 C 31.768398,10.349987 31.396767,9.574329 31.028443,9.1774354 C 30.670808,8.5976509 30.386044,7.9841549 30.176143,7.3360269 C 29.57562,8.2691883 29.821156,9.7685256 30.915441,10.195778 C 31.220713,10.531306 33.09981,10.379734 32.552722,11.082062 C 31.986701,11.569043 30.936535,11.21428 31.054923,12.369931 C 31.550407,13.149519 31.299681,12.743135 30.473632,12.616397 C 29.830521,12.466987 29.180636,12.391873 28.520247,12.431991 C 27.217826,11.21604 26.002479,13.07283 25.226275,14.000215 C 24.663594,14.358321 24.758118,15.027589 24.374343,15.489087 C 23.843555,16.394222 22.813908,17.032683 22.552122,18.065974 C 22.524198,18.605173 22.279309,19.374635 22.641108,19.774353 C 23.226713,20.575036 23.523751,19.506108 24.09804,19.428737 C 24.816649,19.608776 25.445409,22.053294 26.625791,20.728468 C 26.815651,20.23022 26.721502,19.572332 27.097575,19.073069 C 26.617478,18.370245 26.648161,17.507589 26.502851,16.700006 C 26.922373,16.191101 27.222772,15.601864 27.569855,15.044109 C 28.348387,15.45338 26.783195,17.088131 27.808911,18.006065 C 28.643036,18.44616 27.980589,19.349666 28.164578,20.067314 C 28.438333,21.459881 27.09263,21.659698 26.125744,21.821353 C 25.669468,22.088465 24.237802,22.265549 25.319235,21.556914 C 24.975782,21.291911 24.490046,19.487276 24.096555,20.043439 C 23.707412,20.575939 23.376776,21.113747 23.824889,21.722234 C 23.901701,22.224801 22.871405,22.24343 22.54931,22.624848 C 22.133975,22.771091 21.407563,23.703674 21.325161,23.543334 C 21.721548,22.496583 20.332479,21.979929 20.248617,20.914152 C 20.724154,20.101165 20.248178,19.441468 20.462327,18.594958 C 19.961191,18.919129 19.258982,19.059884 19.150681,19.742392 C 18.908473,20.388345 18.570946,21.020926 17.856039,21.207076 C 16.708557,20.512036 17.481647,22.256143 16.54998,22.390692 C 17.69367,23.368703 18.369673,22.393941 18.923043,21.440301 C 20.059213,21.79884 18.190404,22.68817 18.953198,23.270346 C 18.570067,23.347522 17.546508,24.503494 18.369022,24.213095 C 19.246459,23.974386 20.153265,24.059247 21.05122,24.046589 C 20.764034,24.897989 19.660282,24.185313 19.800986,24.755668 C 18.963918,24.879351 18.176147,25.214621 19.27871,25.824929 C 19.425443,26.411083 20.139755,27.008043 19.643234,27.581948 C 19.501847,28.411824 18.947106,28.333357 18.303902,28.060488 C 17.703928,27.962795 17.035087,27.611534 16.478746,27.674502 C 15.875547,28.551626 15.765921,29.9072 15.543919,30.977844 C 15.636424,31.590297 16.448995,31.727009 16.847309,32.137416 C 17.315513,32.551095 17.987026,32.105927 18.540501,32.072653 C 19.153191,31.925967 19.719339,31.716087 19.982103,31.094293 C 20.259907,30.587638 20.066215,29.87116 20.842549,29.755659 C 21.751113,29.309772 21.443107,28.542733 22.729598,28.63277 C 23.297543,28.392279 23.886123,27.969788 24.354591,28.606715 C 25.192334,29.166346 25.592488,30.311104 26.668172,30.49355 C 27.574594,30.880375 26.589987,31.826539 25.913958,31.515616 C 24.789743,32.903484 27.797919,32.984778 27.762915,31.443531 C 28.53987,30.895072 27.255954,30.176307 27.740417,30.426156 C 28.612121,30.953889 28.578249,30.379305 28.071499,29.81536 C 27.389293,29.516629 26.603997,29.35827 26.22498,28.64671 C 26.071706,28.351066 25.161676,27.16998 25.693265,27.522549 C 26.542068,28.138263 27.543774,28.512985 28.392452,29.107843 C 28.966546,29.461105 29.274268,29.953553 29.213471,30.638557 C 29.520031,31.462646 30.113625,32.341188 31.057908,32.496992 C 31.464244,32.901876 32.599216,32.752821 32.245337,32.269212 C 31.681471,32.119029 30.827772,31.792317 31.385613,31.134094 C 31.62249,30.738292 29.984293,30.30703 30.867089,29.986038 C 31.506161,29.299767 31.786477,29.659102 31.917378,30.453911 C 32.241665,30.892758 32.495658,31.692333 33.169512,31.515616 C 33.925332,31.868127 33.915589,30.479111 34.530616,31.211653 C 35.04891,31.796495 35.698146,31.185736 35.964948,30.658299 C 36.273757,30.26676 36.026582,31.699092 36.105886,32.06043 C 36.052302,32.71152 35.677517,33.25707 34.985664,33.309751 C 34.30745,33.479137 35.583398,34.109839 35.751708,34.479063 C 36.201856,35.345601 36.652005,34.78209 37.102154,35.118172 C 38.134352,36.147572 39.144855,37.199821 40.251457,38.150863 C 41.622865,38.119258 41.959035,36.574793 42.788395,35.730874 C 43.696711,34.818643 43.936355,33.517359 44.636085,32.460176 C 44.780128,31.635767 44.920521,30.810851 44.991753,29.976331 C 44.417363,30.509065 43.89616,29.403249 43.812698,30.518928 C 43.515206,30.903914 43.635067,32.14457 42.953894,31.74292 C 42.494173,31.521515 41.66987,31.261029 41.790742,30.63455 C 41.946741,30.130046 42.973179,30.892084 43.335567,30.379952 C 44.294271,29.634528 45.325393,28.970512 46.00065,27.933745 C 46.413272,27.474465 47.208613,27.758215 47.783733,27.614414 C 48.171174,27.349647 47.847184,26.418574 47.953709,25.890711 C 47.949804,23.666404 47.992406,21.422307 47.798163,19.213383 C 46.764168,16.830835 45.842771,14.387153 44.758608,12.034408 C 43.708311,10.529558 42.676669,9.0096851 41.364576,7.7156761 C 40.534524,6.8871532 39.846959,5.8859462 38.926526,5.1669574 C 36.995222,4.042197 35.182991,2.6868434 33.064738,1.9241235 C 31.599039,1.2540612 30.047368,0.75355352 28.476552,0.41386975 C 27.424113,0.27239363 26.371674,0.13091942 25.319235,-0.0105567 z M 39.306897,22.862973 C 40.126217,23.494902 41.155361,24.093314 41.262889,25.234325 C 42.010627,26.157175 41.89112,26.487135 40.791543,26.748065 C 40.408278,26.459004 40.436205,25.562119 39.964051,25.245772 C 39.388338,24.944964 38.904905,24.528219 38.473118,24.046589 C 38.727812,23.596072 38.506473,22.720549 39.306897,22.862973 z M 32.928196,25.4576 C 34.002551,27.252718 35.45169,24.932732 36.86292,26.218142 C 38.019832,26.659513 36.53488,27.484849 35.904408,27.486655 C 35.32179,27.538634 34.568311,27.248043 34.319601,27.969485 C 33.995467,28.712028 33.083504,28.473249 32.432594,28.670273 C 32.283523,27.664883 32.622651,26.426564 32.928196,25.4576 z"
       id="path3345" />
    <path
       sodipodi:type="arc"
       style="fill:url(#linearGradient3452);fill-opacity:1;stroke:#204a87;stroke-width:5.48344374000000023;stroke-linejoin:miter;stroke-miterlimit:18.60000038000000089;stroke-dasharray:none;stroke-dashoffset:0;stroke-opacity:1;opacity:0.5721393"
       id="path3434"
       sodipodi:cx="0"
       sodipodi:cy="11.796133"
       sodipodi:rx="128.93658"
       sodipodi:ry="128.93658"
       d="M 128.93658,11.796133 A 128.93658,128.93658 0 1 1 -128.93658,11.796133 A 128.93658,128.93658 0 1 1 128.93658,11.796133 z"
       transform="matrix(0.182367,0,0,0.182367,23.986222,21.862552)" />
  </g>
</svg>
