<?xml version="1.0" encoding="UTF-8" standalone="no"?>
<!-- Created with Inkscape (http://www.inkscape.org/) -->
<svg
   xmlns:dc="http://purl.org/dc/elements/1.1/"
   xmlns:cc="http://creativecommons.org/ns#"
   xmlns:rdf="http://www.w3.org/1999/02/22-rdf-syntax-ns#"
   xmlns:svg="http://www.w3.org/2000/svg"
   xmlns="http://www.w3.org/2000/svg"
   xmlns:xlink="http://www.w3.org/1999/xlink"
   xmlns:sodipodi="http://sodipodi.sourceforge.net/DTD/sodipodi-0.dtd"
   xmlns:inkscape="http://www.inkscape.org/namespaces/inkscape"
   width="48"
   height="48"
   id="svg2"
   sodipodi:version="0.32"
   inkscape:version="0.46"
   version="1.0"
   sodipodi:docname="mimetype-template-large.svg"
   inkscape:output_extension="org.inkscape.output.svg.inkscape"
   inkscape:export-filename="/Users/lse/Sites/BambusONE/System/Icons/tango/large/mimetypes/CTemplate.png"
   inkscape:export-xdpi="90"
   inkscape:export-ydpi="90">
  <defs
     id="defs4">
    <linearGradient
       inkscape:collect="always"
       id="linearGradient8409">
      <stop
         style="stop-color:#fff7a3;stop-opacity:1"
         offset="0"
         id="stop8411" />
      <stop
         style="stop-color:#ffffff;stop-opacity:0"
         offset="1"
         id="stop8413" />
    </linearGradient>
    <linearGradient
       inkscape:collect="always"
       id="linearGradient14316">
      <stop
         style="stop-color:#eeeeec;stop-opacity:1"
         offset="0"
         id="stop14318" />
      <stop
         style="stop-color:#ffffff;stop-opacity:1"
         offset="1"
         id="stop14320" />
    </linearGradient>
    <linearGradient
       inkscape:collect="always"
       id="linearGradient2528">
      <stop
         style="stop-color:#ad7fa8;stop-opacity:1;"
         offset="0"
         id="stop2530" />
      <stop
         style="stop-color:#75507b;stop-opacity:1"
         offset="1"
         id="stop2532" />
    </linearGradient>
    <inkscape:perspective
       sodipodi:type="inkscape:persp3d"
       inkscape:vp_x="0 : 526.18109 : 1"
       inkscape:vp_y="0 : 1000 : 0"
       inkscape:vp_z="744.09448 : 526.18109 : 1"
       inkscape:persp3d-origin="372.04724 : 350.78739 : 1"
       id="perspective10" />
    <linearGradient
       inkscape:collect="always"
       xlink:href="#linearGradient2528"
       id="linearGradient2538"
       gradientUnits="userSpaceOnUse"
       gradientTransform="matrix(0.8335733,0,0,0.8335733,4.0222393,4.1945916)"
       x1="-0.062015504"
       y1="0.18604651"
       x2="3.7829456"
       y2="47.937984" />
    <inkscape:perspective
       id="perspective3770"
       inkscape:persp3d-origin="8 : 5.3333333 : 1"
       inkscape:vp_z="16 : 8 : 1"
       inkscape:vp_y="0 : 1000 : 0"
       inkscape:vp_x="0 : 8 : 1"
       sodipodi:type="inkscape:persp3d" />
    <filter
       inkscape:collect="always"
       id="filter6504"
       x="-0.17608499"
       width="1.35217"
       y="-0.17608499"
       height="1.35217">
      <feGaussianBlur
         inkscape:collect="always"
         stdDeviation="0.36684373"
         id="feGaussianBlur6506" />
    </filter>
    <linearGradient
       inkscape:collect="always"
       xlink:href="#linearGradient14316"
       id="linearGradient5831"
       gradientUnits="userSpaceOnUse"
       gradientTransform="matrix(1,0,0,0.998683,4.3825e-2,0.110284)"
       x1="22.437754"
       y1="47.392365"
       x2="22.437754"
       y2="0.55417728" />
    <linearGradient
       inkscape:collect="always"
       xlink:href="#linearGradient8409"
       id="linearGradient6769"
       gradientUnits="userSpaceOnUse"
       x1="21.919832"
       y1="8.0996275"
       x2="21.919832"
       y2="18.12385" />
  </defs>
  <sodipodi:namedview
     id="base"
     pagecolor="#ffffff"
     bordercolor="#666666"
     borderopacity="1.0"
     inkscape:pageopacity="0.0"
     inkscape:pageshadow="2"
     inkscape:zoom="9.4791667"
     inkscape:cx="50.69701"
     inkscape:cy="2.9010989"
     inkscape:document-units="px"
     inkscape:current-layer="layer1"
     showgrid="true"
     inkscape:window-width="1390"
     inkscape:window-height="1094"
     inkscape:window-x="210"
     inkscape:window-y="67">
    <inkscape:grid
       type="xygrid"
       id="grid2383"
       visible="true"
       enabled="true" />
  </sodipodi:namedview>
  <metadata
     id="metadata7">
    <rdf:RDF>
      <cc:Work
         rdf:about="">
        <dc:format>image/svg+xml</dc:format>
        <dc:type
           rdf:resource="http://purl.org/dc/dcmitype/StillImage" />
      </cc:Work>
    </rdf:RDF>
  </metadata>
  <g
     inkscape:label="Ebene 1"
     inkscape:groupmode="layer"
     id="layer1">
    <rect
       style="fill:url(#linearGradient5831);fill-opacity:1;fill-rule:evenodd;stroke:#babdb6;stroke-width:1.00551152;stroke-linecap:square;stroke-linejoin:miter;marker:none;marker-start:none;marker-mid:none;marker-end:none;stroke-miterlimit:18.60000038;stroke-dasharray:none;stroke-dashoffset:0;stroke-opacity:1;visibility:visible;display:inline;overflow:visible;enable-background:accumulate"
       id="rect3776"
       width="34.024349"
       height="47.027683"
       x="6.5680451"
       y="0.54195356" />
    <rect
       style="fill:none;fill-opacity:1;fill-rule:evenodd;stroke:#ffffff;stroke-width:0.98500001;stroke-linecap:square;stroke-linejoin:miter;marker:none;marker-start:none;marker-mid:none;marker-end:none;stroke-miterlimit:18.60000038;stroke-dasharray:none;stroke-dashoffset:0;stroke-opacity:1;visibility:visible;display:inline;overflow:visible;enable-background:accumulate"
       id="rect4345"
       width="31.986614"
       height="44.957882"
       x="7.5754147"
       y="1.5998521" />
    <path
       sodipodi:type="arc"
       style="fill:#555753;fill-opacity:1;fill-rule:evenodd;stroke:none;stroke-width:1;stroke-linecap:square;stroke-linejoin:miter;marker:none;marker-start:none;marker-mid:none;marker-end:none;stroke-miterlimit:18.60000038;stroke-dasharray:none;stroke-dashoffset:0;stroke-opacity:1;visibility:visible;display:inline;overflow:visible;enable-background:accumulate"
       id="path4313"
       sodipodi:cx="3.8742576"
       sodipodi:cy="8.4851484"
       sodipodi:rx="1.0361387"
       sodipodi:ry="1.0361387"
       d="M 4.9103962,8.4851484 A 1.0361387,1.0361387 0 1 1 2.8381189,8.4851484 A 1.0361387,1.0361387 0 1 1 4.9103962,8.4851484 z"
       transform="matrix(0.8336279,0,0,0.8336279,6.816486,10.974243)" />
    <path
       sodipodi:type="arc"
       style="fill:#555753;fill-opacity:1;fill-rule:evenodd;stroke:none;stroke-width:1;stroke-linecap:square;stroke-linejoin:miter;marker:none;marker-start:none;marker-mid:none;marker-end:none;stroke-miterlimit:18.60000038;stroke-dasharray:none;stroke-dashoffset:0;stroke-opacity:1;visibility:visible;display:inline;overflow:visible;enable-background:accumulate"
       id="path4315"
       sodipodi:cx="3.8742576"
       sodipodi:cy="8.4851484"
       sodipodi:rx="1.0361387"
       sodipodi:ry="1.0361387"
       d="M 4.9103962,8.4851484 A 1.0361387,1.0361387 0 1 1 2.8381189,8.4851484 A 1.0361387,1.0361387 0 1 1 4.9103962,8.4851484 z"
       transform="matrix(0.8336279,0,0,0.8336279,6.8483,23.037797)" />
    <text
       xml:space="preserve"
       style="font-size:8.60390568px;font-style:normal;font-weight:normal;fill:#888a85;fill-opacity:1;stroke:#555753;stroke-width:0.40000001;stroke-linecap:butt;stroke-linejoin:miter;stroke-miterlimit:4;stroke-dasharray:none;stroke-opacity:1;font-family:Bitstream Vera Sans"
       x="15.984584"
       y="45.940639"
       id="text6008"><tspan
         sodipodi:role="line"
         id="tspan6010"
         x="15.984584"
         y="45.940639">TPL</tspan></text>
    <g
       id="g6762"
       transform="matrix(0.9590857,0,0,0.9590857,-8.5354792,-50.825744)">
      <path
         id="path8370"
         d="M 38.643081,58.74566 C 34.693907,58.74566 31.48878,61.950787 31.48878,65.899961 C 31.48878,69.849135 34.693907,73.054261 38.643081,73.054261 C 42.592255,73.054261 45.797381,69.849135 45.797381,65.899961 C 45.797381,61.950787 42.592255,58.74566 38.643081,58.74566 z M 38.643081,60.438075 C 41.658742,60.438075 44.104966,62.8843 44.104966,65.899961 C 44.104966,68.915622 41.658742,71.361846 38.643081,71.361846 C 35.627419,71.361846 33.181195,68.915622 33.181195,65.899961 C 33.181195,62.8843 35.627419,60.438075 38.643081,60.438075 z"
         style="fill:#dedd8c;fill-opacity:1;stroke:#dedd8c;stroke-width:1.04265964;stroke-linejoin:miter;stroke-miterlimit:12.19999981;stroke-dasharray:none;stroke-dashoffset:0;stroke-opacity:1" />
      <path
         transform="matrix(0.9398976,0,0,0.9398976,32.434443,74.693317)"
         d="M 12.5,-9.4375 A 5.8125,5.8125 0 1 1 0.875,-9.4375 A 5.8125,5.8125 0 1 1 12.5,-9.4375 z"
         sodipodi:ry="5.8125"
         sodipodi:rx="5.8125"
         sodipodi:cy="-9.4375"
         sodipodi:cx="6.6875"
         id="path8372"
         style="fill:none;fill-opacity:1;stroke:#fefef9;stroke-width:1.10933328;stroke-linejoin:miter;stroke-miterlimit:12.19999981;stroke-dasharray:none;stroke-dashoffset:0;stroke-opacity:1"
         sodipodi:type="arc" />
      <path
         sodipodi:nodetypes="cc"
         id="path8377"
         d="M 45.489669,65.669177 C 45.489669,65.669177 46.258949,74.285108 43.797254,78.900786"
         style="fill:none;fill-rule:evenodd;stroke:#dedd8c;stroke-width:1.66825557;stroke-linecap:butt;stroke-linejoin:miter;stroke-miterlimit:4;stroke-dasharray:none;stroke-opacity:1" />
      <path
         transform="matrix(0.7828802,0,0,0.7828802,33.345069,73.274155)"
         d="M 12.5,-9.4375 A 5.8125,5.8125 0 1 1 0.875,-9.4375 A 5.8125,5.8125 0 1 1 12.5,-9.4375 z"
         sodipodi:ry="5.8125"
         sodipodi:rx="5.8125"
         sodipodi:cy="-9.4375"
         sodipodi:cx="6.6875"
         id="path8387"
         style="fill:none;fill-opacity:1;stroke:#d3d7cf;stroke-width:1.33182526;stroke-linejoin:miter;stroke-miterlimit:12.19999981;stroke-dasharray:none;stroke-dashoffset:0;stroke-opacity:1"
         sodipodi:type="arc" />
      <path
         transform="matrix(1.4298245,0,0,1.4298245,6.5874547,47.370279)"
         d="M 27.400387,12.952311 A 5.038136,5.038136 0 1 1 17.324115,12.952311 A 5.038136,5.038136 0 1 1 27.400387,12.952311 z"
         sodipodi:ry="5.038136"
         sodipodi:rx="5.038136"
         sodipodi:cy="12.952311"
         sodipodi:cx="22.362251"
         id="path8407"
         style="opacity:1;fill:none;fill-opacity:1;stroke:url(#linearGradient6769);stroke-width:0.72922212;stroke-linejoin:miter;stroke-miterlimit:4;stroke-dasharray:none;stroke-dashoffset:0;stroke-opacity:1"
         sodipodi:type="arc" />
    </g>
    <g
       id="g7200">
      <path
         sodipodi:nodetypes="cccsccc"
         id="rect8178"
         d="M 17.247639,12.857941 C 17.418652,12.686929 18.068452,12.331887 18.068452,12.331887 L 23.471074,21.626823 C 23.770612,22.145638 25.633762,26.349652 25.114948,26.649189 C 24.596135,26.948727 22.384226,24.061151 22.084688,23.542337 L 16.851834,14.33511 C 16.552296,13.816296 16.728826,13.157479 17.247639,12.857941 z"
         style="fill:#d3d7cf;fill-opacity:1;stroke:#babdb6;stroke-width:1;stroke-linejoin:miter;stroke-miterlimit:12.19999980999999956;stroke-dashoffset:0;stroke-opacity:1" />
      <path
         sodipodi:nodetypes="cccsccc"
         id="rect8180"
         d="M 27.262298,12.930139 C 27.262298,12.930139 26.480255,12.561306 26.480255,12.561306 L 21.108375,21.490483 C 20.808838,22.009296 18.741726,26.332216 19.26054,26.631752 C 19.779353,26.93129 21.917174,24.202861 22.216712,23.684046 L 27.658104,14.407307 C 27.957641,13.888493 27.781112,13.229676 27.262298,12.930139 z"
         style="fill:#d3d7cf;fill-opacity:1;stroke:#babdb6;stroke-width:1;stroke-linejoin:miter;stroke-miterlimit:12.19999980999999956;stroke-dashoffset:0;stroke-opacity:1" />
      <path
         id="path8200"
         d="M 18.761623,25.652822 C 17.963059,25.665025 16.649085,26.959944 15.56092,28.821835 L 15.43416,29.011976 C 14.190543,31.139852 13.766749,33.188173 14.483456,33.607045 L 15.6243,34.272538 C 16.341006,34.69141 17.929978,33.326473 19.173595,31.198595 L 19.268666,31.008454 C 20.512283,28.880578 20.936077,26.832258 20.219369,26.413385 L 19.078525,25.747892 C 18.988936,25.695533 18.875704,25.651079 18.761623,25.652822 z M 18.761623,26.445075 C 18.8381,26.429618 18.897965,26.445704 18.951764,26.476765 L 19.617257,26.857047 C 20.047651,27.105535 19.553424,28.794423 18.476412,30.659863 L 18.381342,30.818313 C 17.30433,32.683754 16.086384,33.982294 15.655991,33.733805 L 14.958808,33.353524 C 14.528414,33.105036 15.05433,31.416148 16.131343,29.550708 L 16.226413,29.392257 C 17.168798,27.759998 18.226288,26.553272 18.761623,26.445075 z"
         style="fill:#3465a4;fill-opacity:1;stroke:#204a87;stroke-width:1;stroke-linejoin:miter;stroke-miterlimit:12.19999981;stroke-dasharray:none;stroke-dashoffset:0;stroke-opacity:1" />
      <path
         transform="matrix(0.702443,0,0,0.702443,18.573381,13.941465)"
         d="M 6.3125,11.375 A 1.1875,1.1875 0 1 1 3.9375,11.375 A 1.1875,1.1875 0 1 1 6.3125,11.375 z"
         sodipodi:ry="1.1875"
         sodipodi:rx="1.1875"
         sodipodi:cy="11.375"
         sodipodi:cx="5.125"
         id="path8206"
         style="fill:#ffffff;fill-opacity:1;stroke:#555753;stroke-width:1.42360294;stroke-linejoin:miter;stroke-miterlimit:12.19999981;stroke-dasharray:none;stroke-dashoffset:0;stroke-opacity:1"
         sodipodi:type="arc" />
      <path
         id="path8405"
         d="M 25.894367,25.761829 C 26.692931,25.774032 28.006905,27.068951 29.09507,28.930842 L 29.221831,29.120983 C 30.465448,31.248859 30.889242,33.29718 30.172535,33.716052 L 29.03169,34.381545 C 28.314984,34.800417 26.726013,33.43548 25.482395,31.307602 L 25.387325,31.117461 C 24.143708,28.989585 23.719914,26.941265 24.436621,26.522392 L 25.577466,25.856899 C 25.667054,25.80454 25.780287,25.760086 25.894367,25.761829 z M 25.894367,26.554082 C 25.817891,26.538625 25.758026,26.554711 25.704226,26.585772 L 25.038734,26.966054 C 24.60834,27.214542 25.102566,28.90343 26.179578,30.76887 L 26.274649,30.92732 C 27.351661,32.792761 28.569605,34.0913 29,33.842812 L 29.697183,33.462531 C 30.127576,33.214043 29.60166,31.525155 28.524648,29.659715 L 28.429578,29.501264 C 27.487192,27.869005 26.429702,26.662279 25.894367,26.554082 z"
         style="fill:#3465a4;fill-opacity:1;stroke:#204a87;stroke-width:1;stroke-linejoin:miter;stroke-miterlimit:12.19999981;stroke-dasharray:none;stroke-dashoffset:0;stroke-opacity:1" />
    </g>
  </g>
</svg>
