<?xml version="1.0" encoding="UTF-8" standalone="no"?>
<!-- Created with Inkscape (http://www.inkscape.org/) -->
<svg
   xmlns:dc="http://purl.org/dc/elements/1.1/"
   xmlns:cc="http://web.resource.org/cc/"
   xmlns:rdf="http://www.w3.org/1999/02/22-rdf-syntax-ns#"
   xmlns:svg="http://www.w3.org/2000/svg"
   xmlns="http://www.w3.org/2000/svg"
   xmlns:sodipodi="http://sodipodi.sourceforge.net/DTD/sodipodi-0.dtd"
   xmlns:inkscape="http://www.inkscape.org/namespaces/inkscape"
   width="128"
   height="32"
   id="svg2160"
   sodipodi:version="0.32"
   inkscape:version="0.45.1"
   version="1.0"
   sodipodi:docbase="/home/lse/public_html/Bambus/System/Icons/UI-Images"
   sodipodi:docname="0 (Kopie).20Logo.svg"
   inkscape:output_extension="org.inkscape.output.svg.inkscape"
   inkscape:export-filename="/home/lse/public_html/Bambus/System/Images/BambusCMSLogo.png"
   inkscape:export-xdpi="90"
   inkscape:export-ydpi="90">
  <defs
     id="defs2162">
    <filter
       inkscape:collect="always"
       x="-0.030393548"
       width="1.0607871"
       y="-0.11409082"
       height="1.2281816"
       id="filter3225">
      <feGaussianBlur
         inkscape:collect="always"
         stdDeviation="1.4721875"
         id="feGaussianBlur3227" />
    </filter>
  </defs>
  <sodipodi:namedview
     id="base"
     pagecolor="#ffffff"
     bordercolor="#666666"
     borderopacity="1.0"
     inkscape:pageopacity="0.0"
     inkscape:pageshadow="2"
     inkscape:zoom="7.9180415"
     inkscape:cx="65.187677"
     inkscape:cy="-1.807"
     inkscape:current-layer="layer1"
     showgrid="true"
     inkscape:grid-bbox="true"
     inkscape:document-units="px"
     width="128px"
     height="32px"
     inkscape:window-width="1280"
     inkscape:window-height="953"
     inkscape:window-x="0"
     inkscape:window-y="25" />
  <metadata
     id="metadata2165">
    <rdf:RDF>
      <cc:Work
         rdf:about="">
        <dc:format>image/svg+xml</dc:format>
        <dc:type
           rdf:resource="http://purl.org/dc/dcmitype/StillImage" />
      </cc:Work>
    </rdf:RDF>
  </metadata>
  <g
     id="layer1"
     inkscape:label="Layer 1"
     inkscape:groupmode="layer">
    <path
       style="color:#000000;fill:#e9b96e;fill-opacity:1;fill-rule:evenodd;stroke:#e9b96e;stroke-width:0.99999994px;stroke-linecap:butt;stroke-linejoin:miter;marker:none;marker-start:none;marker-mid:none;marker-end:none;stroke-miterlimit:4;stroke-dasharray:none;stroke-dashoffset:0;stroke-opacity:1;visibility:visible;display:inline;overflow:visible;filter:url(#filter3225);enable-background:accumulate"
       d="M 0.3125,0.32432155 L 0.3125,23.043071 L 5.9375,23.043071 C 8.9830031,23.043071 10.710405,22.716926 12.15625,21.855571 C 13.755909,20.871166 14.6875,18.849784 14.6875,16.511821 C 14.687499,13.74318 13.520589,11.994764 10.875,10.918071 C 12.628472,9.9336662 13.40625,8.4762462 13.40625,6.2305712 C 13.40625,4.2617606 12.667032,2.5904646 11.375,1.6368216 C 10.082969,0.71394055 8.3936398,0.32432155 5.625,0.32432155 L 0.3125,0.32432155 z M 67.4375,0.32432155 L 67.4375,23.043071 L 69.71875,23.043071 L 69.71875,20.168071 C 71.133833,22.259932 73.51261,23.449321 76.28125,23.449321 C 81.357089,23.449318 85.1875,19.650648 85.1875,14.605571 C 85.187499,9.6527812 81.296052,5.8243212 76.3125,5.8243212 C 73.482335,5.8243202 71.164595,6.9829472 69.71875,9.1055712 L 69.71875,0.32432155 L 67.4375,0.32432155 z M 2.5625,2.3868216 L 5.3125,2.3868216 C 7.650463,2.3868216 8.9198948,2.5835806 9.7812501,3.1680716 C 10.581079,3.6910356 11.09375,4.9390266 11.09375,6.2618212 C 11.093749,7.8307182 10.481969,8.9888562 9.3437501,9.5118212 C 8.3901078,9.9425002 7.404849,10.105571 5.34375,10.105571 L 2.5625,10.105571 L 2.5625,2.3868216 z M 56.96875,5.7930712 C 54.353923,5.7930722 52.540083,6.7973962 51.125,9.0430712 C 49.802205,6.7973952 48.116288,5.8243212 45.59375,5.8243212 C 43.471126,5.8243202 42.167032,6.4761242 40.875,8.1680712 L 40.875,6.2305712 L 38.59375,6.2305712 L 38.59375,23.043071 L 40.875,23.043071 L 40.875,15.293071 L 40.9375,15.293071 L 40.9375,14.668071 C 42.229532,15.224877 43.564876,15.418072 45.6875,15.418071 C 47.486663,15.418071 48.824939,15.249479 49.9375,14.886821 L 49.9375,23.043071 L 52.21875,23.043071 L 52.21875,20.230571 C 53.465542,20.658062 55.020141,20.855572 57.03125,20.855571 C 58.669364,20.855571 60.149279,20.680092 61.28125,20.386821 L 61.28125,23.043071 L 63.5625,23.043071 L 63.5625,13.043071 C 63.5625,10.828158 63.172393,9.3990652 62.21875,8.1993212 C 61.04977,6.6611892 59.152899,5.7930712 56.96875,5.7930712 z M 25.78125,5.8243212 C 20.736173,5.8243202 16.90625,9.6229942 16.90625,14.668071 C 16.90625,19.682387 20.769372,23.449321 25.9375,23.449321 C 28.798428,23.449318 30.622016,22.505059 32.40625,20.105571 L 32.40625,23.043071 L 34.6875,23.043071 L 34.6875,6.2305712 L 32.40625,6.2305712 L 32.40625,9.1993212 C 30.745066,6.8613582 28.703703,5.8243212 25.78125,5.8243212 z M 111.09375,5.8243212 C 108.35587,5.8243202 106.3125,7.8051942 106.3125,10.543071 C 106.3125,11.742815 106.76316,12.805254 107.59375,13.574321 C 108.30129,14.220338 108.31877,14.214916 110.6875,15.199321 C 111.70266,15.599235 112.44432,15.984957 112.875,16.261821 C 113.55177,16.723263 113.9375,17.495191 113.9375,18.418071 C 113.9375,20.110016 112.75542,21.355571 111.125,21.355571 C 109.24848,21.355571 108.06055,20.16667 107.9375,18.105571 L 105.6875,18.105571 C 105.71826,21.366413 107.89492,23.449321 111.125,23.449321 C 114.13974,23.449318 116.25,21.306837 116.25,18.230571 C 116.25,16.169472 115.31256,14.748663 113.34375,13.918071 C 110.79044,12.87214 110.64845,12.789172 110.15625,12.543071 C 109.11032,12.020105 108.625,11.339976 108.625,10.355571 C 108.625,9.0020152 109.70894,7.9180712 111.0625,7.9180712 C 112.53911,7.9180712 113.37695,8.7559122 113.5,10.355571 L 115.8125,10.355571 C 115.72021,7.6484552 113.80086,5.8243212 111.09375,5.8243212 z M 88.40625,6.2305712 L 88.40625,15.293071 C 88.40625,17.784849 88.826633,19.531314 89.71875,20.761821 C 90.98002,22.515293 93.008712,23.449321 95.53125,23.449321 C 98.146075,23.449318 99.799281,22.509932 100.9375,20.418071 L 100.9375,23.043071 L 103.21875,23.043071 L 103.21875,6.2305712 L 100.9375,6.2305712 L 100.9375,14.574321 C 100.86505,15.106479 100.5508,15.494708 99.937501,15.793071 C 98.983851,16.228394 97.50347,16.480571 95.75,16.480571 C 93.87348,16.480572 92.269063,16.207266 91.5,15.761821 C 90.977031,15.478354 90.6875,15.0475 90.6875,14.480571 L 90.6875,11.480571 L 90.6875,6.2305712 L 88.40625,6.2305712 z M 56.84375,7.8868212 C 58.320358,7.8868202 59.605933,8.4654032 60.375,9.4805712 C 60.990253,10.341926 61.28125,11.601124 61.28125,13.293071 L 61.28125,18.824321 C 61.153397,19.158814 60.871509,19.436861 60.4375,19.636821 C 59.668433,19.970905 58.382857,20.168071 56.90625,20.168071 C 55.306593,20.168071 53.893578,19.916772 53.09375,19.511821 C 52.540021,19.248605 52.281251,18.923378 52.28125,18.386821 L 52.28125,15.168071 L 52.21875,15.168071 L 52.21875,13.293071 C 52.21875,13.214058 52.217587,13.150627 52.21875,13.074321 C 52.230056,13.060058 52.3125,12.980571 52.3125,12.980571 L 52.3125,11.949321 C 52.42153,11.048805 52.648295,10.377478 53.03125,9.8243212 C 53.83108,8.5938142 55.244091,7.8868212 56.84375,7.8868212 z M 25.84375,7.9180712 C 29.53527,7.9180712 32.40625,10.790026 32.40625,14.543071 C 32.40625,15.009253 32.362084,15.48063 32.28125,15.918071 C 31.29492,16.706774 28.98739,17.230572 26.21875,17.230571 C 22.557993,17.230571 19.375,16.497795 19.375,15.293071 C 19.375,15.111548 19.299176,14.946227 19.21875,14.793071 C 19.215297,14.700262 19.21875,14.605687 19.21875,14.511821 C 19.21875,10.851064 22.182993,7.9180712 25.84375,7.9180712 z M 45.375,7.9180712 C 46.75932,7.9180712 48.075658,8.4649162 48.90625,9.4493212 C 49.644554,10.310675 49.9375,11.477099 49.9375,13.230571 L 49.9375,13.449321 C 49.802114,13.782017 49.48956,14.030612 48.96875,14.230571 C 48.138159,14.554531 46.853071,14.730572 45.46875,14.730571 C 42.638584,14.730571 40.9375,14.084059 40.9375,12.980571 L 40.9375,12.043071 C 41.300044,9.4198932 42.898606,7.9180712 45.375,7.9180712 z M 76.25,7.9180712 C 79.466235,7.9180712 82.001695,9.9742332 82.6875,12.918071 C 81.673745,13.68489 79.409228,14.199322 76.6875,14.199321 C 73.25554,14.199321 70.237217,13.524396 69.875,12.449321 C 70.749975,9.7933062 73.246101,7.9180712 76.25,7.9180712 z M 2.5625,12.168071 L 5.28125,12.168071 C 7.957602,12.168072 9.2963571,12.331631 10.25,12.793071 C 11.603557,13.469849 12.375,14.821824 12.375,16.636821 C 12.375,18.205716 11.670443,19.614343 10.59375,20.168071 C 9.5170581,20.752561 7.9947,20.980571 5.6875,20.980571 L 2.5625,20.980571 L 2.5625,12.168071 z M 69.59375,13.761821 C 71.186072,14.449053 73.678928,14.886822 76.625,14.886821 C 79.303917,14.886821 81.256963,14.590164 82.84375,13.949321 C 82.859957,14.147941 82.875,14.338765 82.875,14.543071 C 82.874999,18.419168 80.002558,21.355571 76.21875,21.355571 C 74.342229,21.355571 72.822795,20.709128 71.5,19.355571 C 70.177205,18.002015 69.5625,16.450356 69.5625,14.543071 C 69.5625,14.277858 69.564544,14.018145 69.59375,13.761821 z M 100.90625,16.199321 C 100.79037,17.511082 100.47601,18.465757 99.937501,19.261821 C 98.983851,20.584614 97.472222,21.355571 95.71875,21.355571 C 93.842228,21.355571 92.237817,20.584128 91.46875,19.230571 C 91.092135,18.610265 90.859859,17.721703 90.75,16.636821 C 91.979895,16.97904 93.63179,17.168071 95.5625,17.168071 C 98.134349,17.168072 99.769701,16.864003 100.90625,16.199321 z M 19.6875,17.011821 C 21.280163,17.562714 23.556608,17.918072 26.15625,17.918071 C 28.59474,17.918071 30.430333,17.694407 31.9375,17.168071 C 30.985988,19.651429 28.714995,21.355571 25.96875,21.355571 C 23.036671,21.355571 20.64335,19.573882 19.6875,17.011821 z M 0,25.043071 L 0,31.293071 L 83,31.293071 C 82.961914,31.256241 82.911644,31.238221 82.875,31.199321 C 82.18721,30.465678 81.843749,29.465562 81.84375,28.199321 C 81.84375,26.929557 82.187209,25.929442 82.875,25.199321 C 82.932316,25.138182 83.001657,25.099113 83.0625,25.043071 L 0,25.043071 z M 85.125,25.043071 C 84.527151,25.1469 84.047265,25.377757 83.6875,25.793071 C 83.20781,26.343305 82.968748,27.155296 82.96875,28.199321 C 82.968751,29.239823 83.207809,30.051814 83.6875,30.605571 C 84.000533,30.964639 84.412967,31.168323 84.90625,31.293071 L 86.65625,31.293071 C 86.793968,31.256661 86.930393,31.222062 87.0625,31.168071 C 87.471641,31.002295 87.858976,30.75315 88.21875,30.418071 L 88.21875,31.293071 L 93.3125,31.293071 L 93.3125,25.043071 L 88.21875,25.043071 L 88.21875,25.980571 C 87.858973,25.645497 87.471641,25.396353 87.0625,25.230571 C 86.859688,25.147684 86.653537,25.084515 86.4375,25.043071 L 85.125,25.043071 z M 95.21875,25.043071 L 96.9375,29.605571 L 98.656252,25.043071 L 95.21875,25.043071 z M 100.53125,25.043071 L 100.53125,31.293071 L 105.78125,31.293071 L 105.78125,30.699321 C 106.21508,30.942692 106.6463,31.107122 107.0625,31.230571 C 107.14574,31.255258 107.22982,31.273319 107.3125,31.293071 L 109.21875,31.293071 C 109.40131,31.235066 109.55169,31.172565 109.6875,31.074321 C 110.01904,30.834476 110.1875,30.487491 110.1875,30.043071 C 110.1875,29.655086 110.08358,29.355506 109.84375,29.136821 C 109.60742,28.918139 109.19943,28.746165 108.65625,28.636821 L 108.03125,28.511821 C 107.23411,28.3531 106.63749,28.100429 106.28125,27.761821 C 105.92501,27.423217 105.75,26.958715 105.75,26.355571 C 105.75,25.831794 105.88047,25.400195 106.15625,25.043071 L 100.53125,25.043071 z M 107.875,25.043071 C 107.65014,25.099502 107.43997,25.180206 107.28125,25.293071 C 106.96734,25.518811 106.8125,25.845627 106.8125,26.261821 C 106.8125,26.61101 106.9169,26.894443 107.125,27.074321 C 107.33663,27.250679 107.75824,27.371235 108.34375,27.480571 L 108.96875,27.636821 C 109.76588,27.788488 110.3726,28.033619 110.75,28.418071 C 111.13093,28.799001 111.31249,29.307386 111.3125,29.949321 C 111.31249,30.493921 111.16696,30.935972 110.90625,31.293071 L 115.875,31.293071 L 115.875,25.043071 L 110.84375,25.043071 L 110.84375,25.543071 C 110.43812,25.349082 110.04726,25.200811 109.6875,25.105571 C 109.57099,25.074732 109.45766,25.063922 109.34375,25.043071 L 107.875,25.043071 z M 94.34375,25.199321 L 94.34375,31.293071 L 99.500001,31.293071 L 99.500001,25.199321 L 97.46875,30.636821 L 96.40625,30.636821 L 94.34375,25.199321 z "
       id="path2177"
       transform="matrix(0.9500731,0,0,0.9500731,2.7318102,1.12769)" />
    <g
       id="g2165"
       transform="matrix(0.9500731,0,0,0.9500731,2.7318102,1.12769)">
      <path
         sodipodi:nodetypes="cccssscccsssccsccccccsccccccccccsccsssccsscccsssccsscccccsccccccccc"
         id="rect2197"
         d="M -0.3125,24.875 L -0.3125,31.125 L 82.6875,31.125 C 82.649414,31.088173 82.599144,31.07015 82.5625,31.03125 C 81.87471,30.29761 81.531249,29.297491 81.53125,28.03125 C 81.53125,26.761489 81.874709,25.761371 82.5625,25.03125 C 82.619816,24.970114 82.689157,24.931042 82.75,24.875 L -0.3125,24.875 z M 84.8125,24.875 C 84.214651,24.978832 83.734765,25.209686 83.375,25.625 C 82.89531,26.175237 82.656248,26.987225 82.65625,28.03125 C 82.656251,29.071755 82.895309,29.883743 83.375,30.4375 C 83.688033,30.796571 84.100467,31.000252 84.59375,31.125 L 86.34375,31.125 C 86.481468,31.088593 86.617893,31.053991 86.75,31 C 87.159141,30.834227 87.546476,30.585079 87.90625,30.25 L 87.90625,31.125 L 93,31.125 L 93,24.875 L 87.90625,24.875 L 87.90625,25.8125 C 87.546473,25.477429 87.159141,25.228282 86.75,25.0625 C 86.547188,24.979616 86.341037,24.916444 86.125,24.875 L 84.8125,24.875 z M 94.90625,24.875 L 96.625,29.4375 L 98.34375,24.875 L 94.90625,24.875 z M 100.21875,24.875 L 100.21875,31.125 L 105.46875,31.125 L 105.46875,30.53125 C 105.90258,30.774624 106.3338,30.939051 106.75,31.0625 C 106.83324,31.08719 106.91732,31.105248 107,31.125 L 108.90625,31.125 C 109.08881,31.066998 109.23919,31.004494 109.375,30.90625 C 109.70654,30.666408 109.875,30.31942 109.875,29.875 C 109.875,29.487018 109.77108,29.187435 109.53125,28.96875 C 109.29492,28.750071 108.88693,28.578094 108.34375,28.46875 L 107.71875,28.34375 C 106.92161,28.185032 106.32499,27.932358 105.96875,27.59375 C 105.61251,27.255149 105.4375,26.790644 105.4375,26.1875 C 105.4375,25.663726 105.56797,25.232124 105.84375,24.875 L 100.21875,24.875 z M 107.5625,24.875 C 107.33764,24.931434 107.12747,25.012135 106.96875,25.125 C 106.65484,25.350743 106.5,25.677556 106.5,26.09375 C 106.5,26.442942 106.6044,26.726372 106.8125,26.90625 C 107.02413,27.082611 107.44574,27.203164 108.03125,27.3125 L 108.65625,27.46875 C 109.45338,27.62042 110.0601,27.865548 110.4375,28.25 C 110.81843,28.630933 110.99999,29.139315 111,29.78125 C 110.99999,30.325853 110.85446,30.767901 110.59375,31.125 L 115.5625,31.125 L 115.5625,24.875 L 110.53125,24.875 L 110.53125,25.375 C 110.12562,25.181014 109.73476,25.03274 109.375,24.9375 C 109.25849,24.906664 109.14516,24.895851 109.03125,24.875 L 107.5625,24.875 z M 94.03125,25.03125 L 94.03125,31.125 L 99.1875,31.125 L 99.1875,25.03125 L 97.15625,30.46875 L 96.09375,30.46875 L 94.03125,25.03125 z "
         style="opacity:1;color:#000000;fill:#2e3436;fill-opacity:1;fill-rule:evenodd;stroke:none;stroke-width:0.99999994px;stroke-linecap:butt;stroke-linejoin:miter;marker:none;marker-start:none;marker-mid:none;marker-end:none;stroke-miterlimit:4;stroke-dasharray:none;stroke-dashoffset:0;stroke-opacity:1;visibility:visible;display:inline;overflow:visible;enable-background:accumulate" />
      <path
         id="path2171"
         d="M 25.906114,17.075524 C 29.597633,17.075524 32.48933,16.123892 32.48933,14.888796 C 32.48933,13.653699 34.150514,15.880924 32.48933,16.650328 C 30.828147,17.419731 28.767042,17.76394 25.844587,17.76394 C 20.799511,17.76394 16.984932,16.50353 16.984932,14.8483 C 16.984932,13.193069 19.070408,13.915921 19.070408,15.120646 C 19.070408,16.325371 22.245357,17.075524 25.906114,17.075524"
         style="font-size:15.0778513px;font-style:normal;font-weight:normal;fill:#2e3436;fill-opacity:1;stroke:none;stroke-width:1px;stroke-linecap:butt;stroke-linejoin:miter;stroke-opacity:1;font-family:Bitstream Vera Sans" />
      <text
         inkscape:export-ydpi="90"
         inkscape:export-xdpi="90"
         inkscape:export-filename="/home/lse/public_html/Bambus/System/Images/text2168.png"
         id="text2168"
         y="22.882545"
         x="-2.3379648"
         style="font-size:30.76269531px;font-style:normal;font-weight:normal;fill:#2e3436;fill-opacity:1;stroke:none;stroke-width:1px;stroke-linecap:butt;stroke-linejoin:miter;stroke-opacity:1;font-family:Bitstream Vera Sans"
         xml:space="preserve"><tspan
           style="fill:#2e3436;font-family:URW Gothic L"
           y="22.882545"
           x="-2.3379648"
           id="tspan2170"
           sodipodi:role="line">Bambus</tspan></text>
      <path
         sodipodi:nodetypes="ccccscccccsscccc"
         id="path2173"
         d="M 101.77467,11.330702 L 100.66865,11.330702 L 100.66865,14.175475 C 100.66865,14.853766 100.36101,15.278963 99.653479,15.62317 C 98.699831,16.058491 97.19245,16.311585 95.43898,16.311585 C 93.56246,16.311585 91.962796,16.058491 91.193733,15.613046 C 90.670764,15.329581 90.3939,14.884136 90.3939,14.317207 L 90.3939,11.330702 L 89.287884,11.330702 L 89.287884,14.317207 C 89.287884,15.137231 88.548141,15.714285 89.440261,16.119235 C 90.701523,16.696287 92.73187,17 95.254406,17 C 97.869232,17 99.53042,16.696287 100.66865,16.007874 L 100.66865,16.868391 L 101.77467,16.868391 L 101.77467,11.330702"
         style="font-size:15.0778513px;font-style:normal;font-weight:normal;fill:#2e3436;fill-opacity:1;stroke:none;stroke-width:1px;stroke-linecap:butt;stroke-linejoin:miter;stroke-opacity:1;font-family:Bitstream Vera Sans" />
      <path
         sodipodi:nodetypes="csssssc"
         id="path2175"
         d="M 76.388796,14.033917 C 80.080315,14.033917 82.972012,13.082286 82.972012,11.847188 C 82.972012,10.612092 84.633195,12.839316 82.972012,13.60872 C 81.310829,14.378124 79.249724,14.722333 76.327269,14.722333 C 71.282193,14.722333 67.467614,13.461924 67.467614,11.806693 C 67.467614,10.151463 69.55309,10.874314 69.55309,12.079039 C 69.55309,13.283762 72.728039,14.033917 76.388796,14.033917"
         style="font-size:15.0778513px;font-style:normal;font-weight:normal;fill:#2e3436;fill-opacity:1;stroke:none;stroke-width:1px;stroke-linecap:butt;stroke-linejoin:miter;stroke-opacity:1;font-family:Bitstream Vera Sans" />
      <path
         sodipodi:nodetypes="cccccsccccccsc"
         id="path2193"
         d="M 49.706924,18.229476 L 49.706924,15 L 51.983363,15 L 51.983363,18.209229 C 51.983363,18.745785 52.229464,19.089995 52.783193,19.353211 C 53.583022,19.758161 54.998111,19.991008 56.597768,19.991008 C 58.074376,19.991008 59.366411,19.798656 60.135478,19.464572 C 60.750731,19.181108 61.058358,18.766033 61.058358,18.209229 L 61.058358,15 L 62.164374,15 L 62.164374,18.290217 C 62.164374,19.019127 62.934882,19.494943 61.98124,19.889771 C 60.812258,20.395956 58.904969,20.679421 56.720817,20.679421 C 54.105991,20.679421 52.29099,20.345338 50.875908,19.606305"
         style="font-size:15.0778513px;font-style:normal;font-weight:normal;fill:#2e3436;fill-opacity:1;stroke:none;stroke-width:1px;stroke-linecap:butt;stroke-linejoin:miter;stroke-opacity:1;font-family:Bitstream Vera Sans" />
      <path
         sodipodi:nodetypes="cccsscccccscccc"
         id="path2195"
         d="M 39.54255,9.5986107 L 40.648565,9.5986107 L 40.648565,12.828087 C 40.648565,13.931574 42.340515,14.579495 45.170681,14.579495 C 46.555002,14.579495 47.847037,14.397267 48.677628,14.073307 C 49.415932,13.789843 49.723561,13.405139 49.723561,12.828087 L 49.723561,9.5986107 L 52,9.5986107 L 52,12.80784 C 52,12.80784 50.892545,14.204916 50.892545,14.204916 C 49.569749,14.943949 47.908559,15.26791 45.386021,15.26791 C 43.263397,15.26791 41.940597,15.055311 40.648565,14.498505 L 40.648565,15.1363 L 39.54255,15.1363 L 39.54255,9.5986107"
         style="font-size:15.0778513px;font-style:normal;font-weight:normal;fill:#2e3436;fill-opacity:1;stroke:none;stroke-width:1px;stroke-linecap:butt;stroke-linejoin:miter;stroke-opacity:1;font-family:Bitstream Vera Sans" />
    </g>
  </g>
</svg>
