<?xml version="1.0" encoding="UTF-8" standalone="no"?>
<!-- Created with Inkscape (http://www.inkscape.org/) -->
<svg
   xmlns:dc="http://purl.org/dc/elements/1.1/"
   xmlns:cc="http://web.resource.org/cc/"
   xmlns:rdf="http://www.w3.org/1999/02/22-rdf-syntax-ns#"
   xmlns:svg="http://www.w3.org/2000/svg"
   xmlns="http://www.w3.org/2000/svg"
   xmlns:sodipodi="http://sodipodi.sourceforge.net/DTD/sodipodi-0.dtd"
   xmlns:inkscape="http://www.inkscape.org/namespaces/inkscape"
   width="128"
   height="32"
   id="svg2160"
   sodipodi:version="0.32"
   inkscape:version="0.45.1"
   version="1.0"
   sodipodi:docbase="/home/lse/public_html/Bambus/System/Icons/UI-Images"
   sodipodi:docname="0.20Logo.svg"
   inkscape:output_extension="org.inkscape.output.svg.inkscape"
   inkscape:export-filename="/home/lse/public_html/Bambus/System/Images/BambusCMSLogo.png"
   inkscape:export-xdpi="90"
   inkscape:export-ydpi="90">
  <defs
     id="defs2162">
    <filter
       inkscape:collect="always"
       x="-0.041594658"
       width="1.0831893"
       y="-0.15617934"
       height="1.3123587"
       id="filter3216">
      <feGaussianBlur
         inkscape:collect="always"
         stdDeviation="2.0152828"
         id="feGaussianBlur3218" />
    </filter>
  </defs>
  <sodipodi:namedview
     id="base"
     pagecolor="#ffffff"
     bordercolor="#666666"
     borderopacity="1.0"
     inkscape:pageopacity="0.0"
     inkscape:pageshadow="2"
     inkscape:zoom="7.9180415"
     inkscape:cx="65.187677"
     inkscape:cy="3.2447543"
     inkscape:current-layer="layer1"
     showgrid="true"
     inkscape:grid-bbox="true"
     inkscape:document-units="px"
     width="128px"
     height="32px"
     inkscape:window-width="1280"
     inkscape:window-height="953"
     inkscape:window-x="0"
     inkscape:window-y="25" />
  <metadata
     id="metadata2165">
    <rdf:RDF>
      <cc:Work
         rdf:about="">
        <dc:format>image/svg+xml</dc:format>
        <dc:type
           rdf:resource="http://purl.org/dc/dcmitype/StillImage" />
      </cc:Work>
    </rdf:RDF>
  </metadata>
  <g
     id="layer1"
     inkscape:label="Layer 1"
     inkscape:groupmode="layer">
    <path
       style="opacity:1;color:#000000;fill:#eeeeec;fill-opacity:1;fill-rule:evenodd;stroke:none;stroke-width:0.99999994px;stroke-linecap:butt;stroke-linejoin:miter;marker:none;marker-start:none;marker-mid:none;marker-end:none;stroke-miterlimit:4;stroke-dasharray:none;stroke-dashoffset:0;stroke-opacity:1;visibility:visible;display:inline;overflow:visible;filter:url(#filter3216);enable-background:accumulate"
       d="M 0,0.15625 L 0,22.875 L 5.625,22.875 C 8.6705038,22.875 10.397905,22.548855 11.84375,21.6875 C 13.443409,20.703095 14.40625,18.712963 14.40625,16.375 C 14.40625,13.606361 13.239339,11.826693 10.59375,10.75 C 12.347222,9.7655943 13.09375,8.3081745 13.09375,6.0625 C 13.09375,4.0936893 12.354532,2.4223926 11.0625,1.46875 C 9.7704678,0.54587011 8.0811398,0.15625 5.3125,0.15625 L 0,0.15625 z M 67.125,0.15625 L 67.125,22.875 L 69.40625,22.875 L 69.40625,20 C 70.821331,22.091861 73.23136,23.28125 76,23.28125 C 81.075841,23.281249 84.875,19.513827 84.875,14.46875 C 84.875002,9.5159614 81.014802,5.65625 76.03125,5.65625 C 73.201087,5.6562501 70.852095,6.8148761 69.40625,8.9375 L 69.40625,0.15625 L 67.125,0.15625 z M 2.28125,2.21875 L 5,2.21875 C 7.3379625,2.2187501 8.6073954,2.4155094 9.46875,3 C 10.26858,3.5229653 10.8125,4.7709554 10.8125,6.09375 C 10.8125,7.6626458 10.169469,8.8207847 9.03125,9.34375 C 8.0776075,9.7744277 7.0923485,9.9375 5.03125,9.9375 L 2.28125,9.9375 L 2.28125,2.21875 z M 56.65625,5.625 C 54.041422,5.625 52.227583,6.6293255 50.8125,8.875 C 49.489705,6.6293256 47.835038,5.65625 45.3125,5.65625 C 43.189876,5.6562501 41.854532,6.3080534 40.5625,8 L 40.5625,6.0625 L 38.28125,6.0625 L 38.28125,22.875 L 40.5625,22.875 L 40.5625,15.125 L 40.65625,15.125 L 40.65625,14.5 C 41.948282,15.056806 43.252376,15.28125 45.375,15.28125 C 47.170454,15.28125 48.54496,15.111097 49.65625,14.75 L 49.65625,22.875 L 51.90625,22.875 L 51.90625,20.0625 C 53.158361,20.49716 54.691462,20.6875 56.71875,20.6875 C 58.372124,20.6875 59.86409,20.517268 61,20.21875 L 61,22.875 L 63.28125,22.875 L 63.28125,12.875 C 63.281248,10.660088 62.859893,9.2309939 61.90625,8.03125 C 60.73727,6.4931172 58.840399,5.625 56.65625,5.625 z M 25.46875,5.65625 C 20.423673,5.6562501 16.625,9.454923 16.625,14.5 C 16.624999,19.514315 20.456872,23.28125 25.625,23.28125 C 28.485927,23.281249 30.340765,22.336988 32.125,19.9375 L 32.125,22.875 L 34.40625,22.875 L 34.40625,6.0625 L 32.125,6.0625 L 32.125,9.03125 C 30.463817,6.6932877 28.391203,5.65625 25.46875,5.65625 z M 110.78125,5.65625 C 108.04337,5.6562501 106.03125,7.6683729 106.03125,10.40625 C 106.03125,11.605994 106.45066,12.637183 107.28125,13.40625 C 107.98879,14.052266 108.00627,14.046845 110.375,15.03125 C 111.39017,15.431165 112.13182,15.816886 112.5625,16.09375 C 113.23928,16.55519 113.65625,17.35837 113.65625,18.28125 C 113.65625,19.973197 112.44292,21.1875 110.8125,21.1875 C 108.93598,21.1875 107.7793,19.998599 107.65625,17.9375 L 105.40625,17.9375 C 105.43701,21.198342 107.58242,23.28125 110.8125,23.28125 C 113.82724,23.281249 115.96875,21.138766 115.96875,18.0625 C 115.96875,16.001401 115.00006,14.580592 113.03125,13.75 C 110.47795,12.704069 110.3672,12.652351 109.875,12.40625 C 108.82907,11.883285 108.3125,11.171905 108.3125,10.1875 C 108.3125,8.8339428 109.39644,7.75 110.75,7.75 C 112.22661,7.7500002 113.0957,8.6190914 113.21875,10.21875 L 115.53125,10.21875 C 115.43896,7.5116356 113.48836,5.65625 110.78125,5.65625 z M 88.09375,6.0625 L 88.09375,15.125 C 88.093753,17.616776 88.545383,19.363243 89.4375,20.59375 C 90.698768,22.347222 92.727462,23.28125 95.25,23.28125 C 97.864827,23.281249 99.518031,22.373111 100.65625,20.28125 L 100.65625,22.875 L 102.9375,22.875 L 102.9375,6.0625 L 100.65625,6.0625 L 100.65625,11.34375 L 100.65625,14.1875 C 100.65625,14.865791 100.36378,15.280793 99.65625,15.625 C 98.7026,16.060321 97.19097,16.3125 95.4375,16.3125 C 93.56098,16.312501 91.956563,16.070445 91.1875,15.625 C 90.664531,15.341535 90.40625,14.879429 90.40625,14.3125 L 90.40625,11.34375 L 90.375,11.34375 L 90.375,6.0625 L 88.09375,6.0625 z M 56.53125,7.71875 C 58.00786,7.7187502 59.293433,8.2973321 60.0625,9.3125 C 60.677753,10.173855 61,11.433053 61,13.125 L 61,18.59375 C 60.88464,18.958679 60.586439,19.256151 60.125,19.46875 C 59.355933,19.802834 58.070359,19.999999 56.59375,20 C 54.994093,20 53.58108,19.748701 52.78125,19.34375 C 52.227521,19.080534 51.968749,18.755306 51.96875,18.21875 L 51.96875,15 L 51.90625,15 L 51.90625,13.125 C 51.90625,13.045987 51.905087,12.982556 51.90625,12.90625 C 51.917437,12.892138 52,12.8125 52,12.8125 L 52,11.8125 C 52.107601,10.898694 52.332068,10.214791 52.71875,9.65625 C 53.518578,8.4257431 54.931591,7.71875 56.53125,7.71875 z M 25.53125,7.75 C 29.22277,7.7500002 32.125,10.653205 32.125,14.40625 C 32.125,14.861793 32.077267,15.290565 32,15.71875 C 31.035641,16.524 28.710175,17.0625 25.90625,17.0625 C 22.245493,17.0625 19.0625,16.329725 19.0625,15.125 C 19.0625,14.958464 19.006185,14.79936 18.9375,14.65625 C 18.933728,14.559291 18.9375,14.473115 18.9375,14.375 C 18.9375,10.714243 21.870493,7.75 25.53125,7.75 z M 45.09375,7.75 C 46.478071,7.7500002 47.763158,8.2968447 48.59375,9.28125 C 49.332056,10.142605 49.65625,11.309028 49.65625,13.0625 L 49.65625,13.21875 C 49.535121,13.583679 49.241228,13.849902 48.6875,14.0625 C 47.856909,14.38646 46.540571,14.59375 45.15625,14.59375 C 42.326084,14.59375 40.656252,13.915987 40.65625,12.8125 L 40.65625,11.875 C 41.018793,9.2518211 42.617356,7.75 45.09375,7.75 z M 75.96875,7.75 C 79.18925,7.7500002 81.693176,9.8311844 82.375,12.78125 C 81.346318,13.535487 79.069628,14.03125 76.375,14.03125 C 72.94304,14.03125 69.955964,13.387576 69.59375,12.3125 C 70.460471,9.6417885 72.954403,7.75 75.96875,7.75 z M 2.28125,12 L 4.96875,12 C 7.6451018,12 9.0151074,12.16356 9.96875,12.625 C 11.322307,13.301779 12.09375,14.653753 12.09375,16.46875 C 12.09375,18.037645 11.389193,19.446272 10.3125,20 C 9.2358068,20.58449 7.6821998,20.8125 5.375,20.8125 L 2.28125,20.8125 L 2.28125,12 z M 69.3125,13.59375 C 70.905892,14.276158 73.378264,14.71875 76.3125,14.71875 C 78.981291,14.71875 80.947679,14.417023 82.53125,13.78125 C 82.547677,13.981184 82.5625,14.20055 82.5625,14.40625 C 82.562497,18.282346 79.721308,21.1875 75.9375,21.1875 C 74.060977,21.1875 72.510295,20.541057 71.1875,19.1875 C 69.864707,17.833942 69.25,16.313535 69.25,14.40625 C 69.25,14.130801 69.281029,13.859579 69.3125,13.59375 z M 100.59375,16.03125 C 100.47969,17.357031 100.16717,18.292281 99.625,19.09375 C 98.67136,20.416545 97.190972,21.1875 95.4375,21.1875 C 93.560976,21.1875 91.956567,20.416057 91.1875,19.0625 C 90.810443,18.441463 90.578411,17.555402 90.46875,16.46875 C 91.698428,16.81061 93.320324,17 95.25,17 C 97.819566,17 99.457304,16.694686 100.59375,16.03125 z M 19.375,16.875 C 20.968966,17.431673 23.228856,17.75 25.84375,17.75 C 28.302239,17.75 30.142188,17.504147 31.65625,16.96875 C 30.711124,19.466962 28.4126,21.1875 25.65625,21.1875 C 22.727205,21.1875 20.332856,19.432757 19.375,16.875 z M -0.3125,24.875 L -0.3125,31.125 L 82.6875,31.125 C 82.649414,31.088173 82.599144,31.07015 82.5625,31.03125 C 81.87471,30.29761 81.531249,29.297491 81.53125,28.03125 C 81.53125,26.761489 81.874709,25.761371 82.5625,25.03125 C 82.619816,24.970114 82.689157,24.931042 82.75,24.875 L -0.3125,24.875 z M 84.8125,24.875 C 84.214651,24.978832 83.734765,25.209686 83.375,25.625 C 82.89531,26.175237 82.656248,26.987225 82.65625,28.03125 C 82.656251,29.071755 82.895309,29.883743 83.375,30.4375 C 83.688033,30.796571 84.100467,31.000252 84.59375,31.125 L 86.34375,31.125 C 86.481468,31.088593 86.617893,31.053991 86.75,31 C 87.159141,30.834227 87.546476,30.585079 87.90625,30.25 L 87.90625,31.125 L 93,31.125 L 93,24.875 L 87.90625,24.875 L 87.90625,25.8125 C 87.546473,25.477429 87.159141,25.228282 86.75,25.0625 C 86.547188,24.979616 86.341037,24.916444 86.125,24.875 L 84.8125,24.875 z M 94.90625,24.875 L 96.625,29.4375 L 98.34375,24.875 L 94.90625,24.875 z M 100.21875,24.875 L 100.21875,31.125 L 105.46875,31.125 L 105.46875,30.53125 C 105.90258,30.774624 106.3338,30.939051 106.75,31.0625 C 106.83324,31.08719 106.91732,31.105248 107,31.125 L 108.90625,31.125 C 109.08881,31.066998 109.23919,31.004494 109.375,30.90625 C 109.70654,30.666408 109.875,30.31942 109.875,29.875 C 109.875,29.487018 109.77108,29.187435 109.53125,28.96875 C 109.29492,28.750071 108.88693,28.578094 108.34375,28.46875 L 107.71875,28.34375 C 106.92161,28.185032 106.32499,27.932358 105.96875,27.59375 C 105.61251,27.255149 105.4375,26.790644 105.4375,26.1875 C 105.4375,25.663726 105.56797,25.232124 105.84375,24.875 L 100.21875,24.875 z M 107.5625,24.875 C 107.33764,24.931434 107.12747,25.012135 106.96875,25.125 C 106.65484,25.350743 106.5,25.677556 106.5,26.09375 C 106.5,26.442942 106.6044,26.726372 106.8125,26.90625 C 107.02413,27.082611 107.44574,27.203164 108.03125,27.3125 L 108.65625,27.46875 C 109.45338,27.62042 110.0601,27.865548 110.4375,28.25 C 110.81843,28.630933 110.99999,29.139315 111,29.78125 C 110.99999,30.325853 110.85446,30.767901 110.59375,31.125 L 115.5625,31.125 L 115.5625,24.875 L 110.53125,24.875 L 110.53125,25.375 C 110.12562,25.181014 109.73476,25.03274 109.375,24.9375 C 109.25849,24.906664 109.14516,24.895851 109.03125,24.875 L 107.5625,24.875 z M 94.03125,25.03125 L 94.03125,31.125 L 99.1875,31.125 L 99.1875,25.03125 L 97.15625,30.46875 L 96.09375,30.46875 L 94.03125,25.03125 z "
       id="path2192"
       transform="matrix(1.035731,0,0,1.035731,1.1165939e-2,4.6340719e-2)" />
    <g
       id="g2165"
       transform="matrix(1.035731,0,0,1.035731,1.1165939e-2,4.6340719e-2)">
      <path
         sodipodi:nodetypes="cccssscccsssccsccccccsccccccccccsccsssccsscccsssccsscccccsccccccccc"
         id="rect2197"
         d="M -0.3125,24.875 L -0.3125,31.125 L 82.6875,31.125 C 82.649414,31.088173 82.599144,31.07015 82.5625,31.03125 C 81.87471,30.29761 81.531249,29.297491 81.53125,28.03125 C 81.53125,26.761489 81.874709,25.761371 82.5625,25.03125 C 82.619816,24.970114 82.689157,24.931042 82.75,24.875 L -0.3125,24.875 z M 84.8125,24.875 C 84.214651,24.978832 83.734765,25.209686 83.375,25.625 C 82.89531,26.175237 82.656248,26.987225 82.65625,28.03125 C 82.656251,29.071755 82.895309,29.883743 83.375,30.4375 C 83.688033,30.796571 84.100467,31.000252 84.59375,31.125 L 86.34375,31.125 C 86.481468,31.088593 86.617893,31.053991 86.75,31 C 87.159141,30.834227 87.546476,30.585079 87.90625,30.25 L 87.90625,31.125 L 93,31.125 L 93,24.875 L 87.90625,24.875 L 87.90625,25.8125 C 87.546473,25.477429 87.159141,25.228282 86.75,25.0625 C 86.547188,24.979616 86.341037,24.916444 86.125,24.875 L 84.8125,24.875 z M 94.90625,24.875 L 96.625,29.4375 L 98.34375,24.875 L 94.90625,24.875 z M 100.21875,24.875 L 100.21875,31.125 L 105.46875,31.125 L 105.46875,30.53125 C 105.90258,30.774624 106.3338,30.939051 106.75,31.0625 C 106.83324,31.08719 106.91732,31.105248 107,31.125 L 108.90625,31.125 C 109.08881,31.066998 109.23919,31.004494 109.375,30.90625 C 109.70654,30.666408 109.875,30.31942 109.875,29.875 C 109.875,29.487018 109.77108,29.187435 109.53125,28.96875 C 109.29492,28.750071 108.88693,28.578094 108.34375,28.46875 L 107.71875,28.34375 C 106.92161,28.185032 106.32499,27.932358 105.96875,27.59375 C 105.61251,27.255149 105.4375,26.790644 105.4375,26.1875 C 105.4375,25.663726 105.56797,25.232124 105.84375,24.875 L 100.21875,24.875 z M 107.5625,24.875 C 107.33764,24.931434 107.12747,25.012135 106.96875,25.125 C 106.65484,25.350743 106.5,25.677556 106.5,26.09375 C 106.5,26.442942 106.6044,26.726372 106.8125,26.90625 C 107.02413,27.082611 107.44574,27.203164 108.03125,27.3125 L 108.65625,27.46875 C 109.45338,27.62042 110.0601,27.865548 110.4375,28.25 C 110.81843,28.630933 110.99999,29.139315 111,29.78125 C 110.99999,30.325853 110.85446,30.767901 110.59375,31.125 L 115.5625,31.125 L 115.5625,24.875 L 110.53125,24.875 L 110.53125,25.375 C 110.12562,25.181014 109.73476,25.03274 109.375,24.9375 C 109.25849,24.906664 109.14516,24.895851 109.03125,24.875 L 107.5625,24.875 z M 94.03125,25.03125 L 94.03125,31.125 L 99.1875,31.125 L 99.1875,25.03125 L 97.15625,30.46875 L 96.09375,30.46875 L 94.03125,25.03125 z "
         style="opacity:1;color:#000000;fill:#2e3436;fill-opacity:1;fill-rule:evenodd;stroke:none;stroke-width:0.99999994px;stroke-linecap:butt;stroke-linejoin:miter;marker:none;marker-start:none;marker-mid:none;marker-end:none;stroke-miterlimit:4;stroke-dasharray:none;stroke-dashoffset:0;stroke-opacity:1;visibility:visible;display:inline;overflow:visible;enable-background:accumulate" />
      <path
         id="path2171"
         d="M 25.906114,17.075524 C 29.597633,17.075524 32.48933,16.123892 32.48933,14.888796 C 32.48933,13.653699 34.150514,15.880924 32.48933,16.650328 C 30.828147,17.419731 28.767042,17.76394 25.844587,17.76394 C 20.799511,17.76394 16.984932,16.50353 16.984932,14.8483 C 16.984932,13.193069 19.070408,13.915921 19.070408,15.120646 C 19.070408,16.325371 22.245357,17.075524 25.906114,17.075524"
         style="font-size:15.0778513px;font-style:normal;font-weight:normal;fill:#2e3436;fill-opacity:1;stroke:none;stroke-width:1px;stroke-linecap:butt;stroke-linejoin:miter;stroke-opacity:1;font-family:Bitstream Vera Sans" />
      <text
         inkscape:export-ydpi="90"
         inkscape:export-xdpi="90"
         inkscape:export-filename="/home/lse/public_html/Bambus/System/Images/text2168.png"
         id="text2168"
         y="22.882545"
         x="-2.3379648"
         style="font-size:30.76269531px;font-style:normal;font-weight:normal;fill:#2e3436;fill-opacity:1;stroke:none;stroke-width:1px;stroke-linecap:butt;stroke-linejoin:miter;stroke-opacity:1;font-family:Bitstream Vera Sans"
         xml:space="preserve"><tspan
           style="fill:#2e3436;font-family:URW Gothic L"
           y="22.882545"
           x="-2.3379648"
           id="tspan2170"
           sodipodi:role="line">Bambus</tspan></text>
      <path
         sodipodi:nodetypes="ccccscccccsscccc"
         id="path2173"
         d="M 101.77467,11.330702 L 100.66865,11.330702 L 100.66865,14.175475 C 100.66865,14.853766 100.36101,15.278963 99.653479,15.62317 C 98.699831,16.058491 97.19245,16.311585 95.43898,16.311585 C 93.56246,16.311585 91.962796,16.058491 91.193733,15.613046 C 90.670764,15.329581 90.3939,14.884136 90.3939,14.317207 L 90.3939,11.330702 L 89.287884,11.330702 L 89.287884,14.317207 C 89.287884,15.137231 88.548141,15.714285 89.440261,16.119235 C 90.701523,16.696287 92.73187,17 95.254406,17 C 97.869232,17 99.53042,16.696287 100.66865,16.007874 L 100.66865,16.868391 L 101.77467,16.868391 L 101.77467,11.330702"
         style="font-size:15.0778513px;font-style:normal;font-weight:normal;fill:#2e3436;fill-opacity:1;stroke:none;stroke-width:1px;stroke-linecap:butt;stroke-linejoin:miter;stroke-opacity:1;font-family:Bitstream Vera Sans" />
      <path
         sodipodi:nodetypes="csssssc"
         id="path2175"
         d="M 76.388796,14.033917 C 80.080315,14.033917 82.972012,13.082286 82.972012,11.847188 C 82.972012,10.612092 84.633195,12.839316 82.972012,13.60872 C 81.310829,14.378124 79.249724,14.722333 76.327269,14.722333 C 71.282193,14.722333 67.467614,13.461924 67.467614,11.806693 C 67.467614,10.151463 69.55309,10.874314 69.55309,12.079039 C 69.55309,13.283762 72.728039,14.033917 76.388796,14.033917"
         style="font-size:15.0778513px;font-style:normal;font-weight:normal;fill:#2e3436;fill-opacity:1;stroke:none;stroke-width:1px;stroke-linecap:butt;stroke-linejoin:miter;stroke-opacity:1;font-family:Bitstream Vera Sans" />
      <path
         sodipodi:nodetypes="cccccsccccccsc"
         id="path2193"
         d="M 49.706924,18.229476 L 49.706924,15 L 51.983363,15 L 51.983363,18.209229 C 51.983363,18.745785 52.229464,19.089995 52.783193,19.353211 C 53.583022,19.758161 54.998111,19.991008 56.597768,19.991008 C 58.074376,19.991008 59.366411,19.798656 60.135478,19.464572 C 60.750731,19.181108 61.058358,18.766033 61.058358,18.209229 L 61.058358,15 L 62.164374,15 L 62.164374,18.290217 C 62.164374,19.019127 62.934882,19.494943 61.98124,19.889771 C 60.812258,20.395956 58.904969,20.679421 56.720817,20.679421 C 54.105991,20.679421 52.29099,20.345338 50.875908,19.606305"
         style="font-size:15.0778513px;font-style:normal;font-weight:normal;fill:#2e3436;fill-opacity:1;stroke:none;stroke-width:1px;stroke-linecap:butt;stroke-linejoin:miter;stroke-opacity:1;font-family:Bitstream Vera Sans" />
      <path
         sodipodi:nodetypes="cccsscccccscccc"
         id="path2195"
         d="M 39.54255,9.5986107 L 40.648565,9.5986107 L 40.648565,12.828087 C 40.648565,13.931574 42.340515,14.579495 45.170681,14.579495 C 46.555002,14.579495 47.847037,14.397267 48.677628,14.073307 C 49.415932,13.789843 49.723561,13.405139 49.723561,12.828087 L 49.723561,9.5986107 L 52,9.5986107 L 52,12.80784 C 52,12.80784 50.892545,14.204916 50.892545,14.204916 C 49.569749,14.943949 47.908559,15.26791 45.386021,15.26791 C 43.263397,15.26791 41.940597,15.055311 40.648565,14.498505 L 40.648565,15.1363 L 39.54255,15.1363 L 39.54255,9.5986107"
         style="font-size:15.0778513px;font-style:normal;font-weight:normal;fill:#2e3436;fill-opacity:1;stroke:none;stroke-width:1px;stroke-linecap:butt;stroke-linejoin:miter;stroke-opacity:1;font-family:Bitstream Vera Sans" />
    </g>
  </g>
</svg>
