<?xml version="1.0" encoding="UTF-8" standalone="no"?>
<!-- Created with Inkscape (http://www.inkscape.org/) -->
<svg
   xmlns:dc="http://purl.org/dc/elements/1.1/"
   xmlns:cc="http://web.resource.org/cc/"
   xmlns:rdf="http://www.w3.org/1999/02/22-rdf-syntax-ns#"
   xmlns:svg="http://www.w3.org/2000/svg"
   xmlns="http://www.w3.org/2000/svg"
   xmlns:xlink="http://www.w3.org/1999/xlink"
   xmlns:sodipodi="http://sodipodi.sourceforge.net/DTD/sodipodi-0.dtd"
   xmlns:inkscape="http://www.inkscape.org/namespaces/inkscape"
   width="640px"
   height="480px"
   id="svg1900"
   sodipodi:version="0.32"
   inkscape:version="0.44"
   sodipodi:docbase="/home/lse/public_html/Bambus/System/Images/SVG/0.11"
   sodipodi:docname="BambusCMSLogoInvers.svg"
   inkscape:export-filename="/home/lse/public_html/Bambus/System/Images/BambusCMSLogo.png"
   inkscape:export-xdpi="22.726221"
   inkscape:export-ydpi="22.726221">
  <defs
     id="defs1902">
    <linearGradient
       inkscape:collect="always"
       id="linearGradient2896">
      <stop
         style="stop-color:#c4a000;stop-opacity:1;"
         offset="0"
         id="stop2898" />
      <stop
         style="stop-color:#c4a000;stop-opacity:0;"
         offset="1"
         id="stop2900" />
    </linearGradient>
    <linearGradient
       inkscape:collect="always"
       id="linearGradient2886">
      <stop
         style="stop-color:#4e9a06;stop-opacity:1;"
         offset="0"
         id="stop2888" />
      <stop
         style="stop-color:url(#linearGradient2882);stop-opacity:0"
         offset="1"
         id="stop2890" />
    </linearGradient>
    <linearGradient
       inkscape:collect="always"
       id="linearGradient2876">
      <stop
         style="stop-color:white;stop-opacity:1;"
         offset="0"
         id="stop2878" />
      <stop
         style="stop-color:white;stop-opacity:0;"
         offset="1"
         id="stop2880" />
    </linearGradient>
    <linearGradient
       inkscape:collect="always"
       id="linearGradient2937">
      <stop
         style="stop-color:#c4a000;stop-opacity:1;"
         offset="0"
         id="stop2939" />
      <stop
         style="stop-color:#c4a000;stop-opacity:0;"
         offset="1"
         id="stop2941" />
    </linearGradient>
    <linearGradient
       inkscape:collect="always"
       id="linearGradient2871">
      <stop
         style="stop-color:white;stop-opacity:1;"
         offset="0"
         id="stop2873" />
      <stop
         style="stop-color:white;stop-opacity:0;"
         offset="1"
         id="stop2875" />
    </linearGradient>
    <linearGradient
       inkscape:collect="always"
       id="linearGradient2879">
      <stop
         style="stop-color:#4e9a06;stop-opacity:1"
         offset="0"
         id="stop2881" />
      <stop
         style="stop-color:#4e9a06;stop-opacity:0"
         offset="1"
         id="stop2883" />
    </linearGradient>
    <linearGradient
       inkscape:collect="always"
       xlink:href="#linearGradient2876"
       id="linearGradient2944"
       gradientUnits="userSpaceOnUse"
       x1="862.24115"
       y1="151.49644"
       x2="862.24115"
       y2="280.59424" />
    <linearGradient
       inkscape:collect="always"
       xlink:href="#linearGradient2886"
       id="linearGradient2946"
       gradientUnits="userSpaceOnUse"
       x1="852.883"
       y1="279.60638"
       x2="852.883"
       y2="212.11372" />
    <linearGradient
       inkscape:collect="always"
       xlink:href="#linearGradient2896"
       id="linearGradient2948"
       gradientUnits="userSpaceOnUse"
       x1="824.48584"
       y1="288.96454"
       x2="825.45392"
       y2="213.4539" />
    <linearGradient
       inkscape:collect="always"
       xlink:href="#linearGradient2937"
       id="linearGradient2359"
       gradientUnits="userSpaceOnUse"
       gradientTransform="matrix(1.979103,0,0,1.979103,-429.9875,-288.1187)"
       x1="301.07144"
       y1="281.46933"
       x2="301.07144"
       y2="260.37067" />
    <linearGradient
       inkscape:collect="always"
       xlink:href="#linearGradient2879"
       id="linearGradient2362"
       gradientUnits="userSpaceOnUse"
       gradientTransform="matrix(1.979103,0,0,1.979103,-429.9875,-288.1187)"
       x1="299.64285"
       y1="286.29074"
       x2="298.92856"
       y2="231.29076" />
    <linearGradient
       inkscape:collect="always"
       xlink:href="#linearGradient2871"
       id="linearGradient2365"
       gradientUnits="userSpaceOnUse"
       gradientTransform="matrix(1.979103,0,0,1.979103,-429.9875,-288.1187)"
       x1="294.10715"
       y1="214.86218"
       x2="294.10715"
       y2="286.29166" />
    <linearGradient
       inkscape:collect="always"
       xlink:href="#linearGradient2879"
       id="linearGradient2369"
       gradientUnits="userSpaceOnUse"
       gradientTransform="matrix(1.979103,0,0,1.979103,-431.4869,-274.6242)"
       x1="320.45392"
       y1="208.31004"
       x2="320.45392"
       y2="297.84192" />
    <linearGradient
       inkscape:collect="always"
       xlink:href="#linearGradient2937"
       id="linearGradient3258"
       gradientUnits="userSpaceOnUse"
       gradientTransform="matrix(1.979103,0,0,1.979103,-526.7358,-250.6972)"
       x1="301.07144"
       y1="281.46933"
       x2="301.07144"
       y2="260.37067" />
    <linearGradient
       inkscape:collect="always"
       xlink:href="#linearGradient2876"
       id="linearGradient3265"
       gradientUnits="userSpaceOnUse"
       x1="862.24115"
       y1="151.49644"
       x2="862.24115"
       y2="280.59424" />
    <linearGradient
       inkscape:collect="always"
       xlink:href="#linearGradient2886"
       id="linearGradient3267"
       gradientUnits="userSpaceOnUse"
       x1="852.883"
       y1="279.60638"
       x2="852.883"
       y2="212.11372" />
    <linearGradient
       inkscape:collect="always"
       xlink:href="#linearGradient2896"
       id="linearGradient3269"
       gradientUnits="userSpaceOnUse"
       x1="824.48584"
       y1="288.96454"
       x2="825.45392"
       y2="213.4539" />
    <linearGradient
       inkscape:collect="always"
       xlink:href="#linearGradient2896"
       id="linearGradient3272"
       gradientUnits="userSpaceOnUse"
       x1="824.48584"
       y1="288.96454"
       x2="825.45392"
       y2="213.4539"
       gradientTransform="matrix(0.673005,0,0,0.673005,-36.82387,78.32506)" />
    <linearGradient
       inkscape:collect="always"
       xlink:href="#linearGradient2886"
       id="linearGradient3275"
       gradientUnits="userSpaceOnUse"
       x1="852.883"
       y1="279.60638"
       x2="852.883"
       y2="212.11372"
       gradientTransform="matrix(0.673005,0,0,0.673005,-36.82387,78.32506)" />
    <linearGradient
       inkscape:collect="always"
       xlink:href="#linearGradient2876"
       id="linearGradient3278"
       gradientUnits="userSpaceOnUse"
       x1="862.24115"
       y1="151.49644"
       x2="862.24115"
       y2="280.59424"
       gradientTransform="matrix(0.673005,0,0,0.673005,-36.82387,78.32506)" />
  </defs>
  <sodipodi:namedview
     id="base"
     pagecolor="#ffffff"
     bordercolor="#666666"
     borderopacity="1.0"
     inkscape:pageopacity="0.0"
     inkscape:pageshadow="2"
     inkscape:zoom="1.095627"
     inkscape:cx="255.68811"
     inkscape:cy="372.86188"
     inkscape:current-layer="layer1"
     inkscape:document-units="px"
     inkscape:window-width="1272"
     inkscape:window-height="941"
     inkscape:window-x="0"
     inkscape:window-y="27" />
  <metadata
     id="metadata1905">
    <rdf:RDF>
      <cc:Work
         rdf:about="">
        <dc:format>image/svg+xml</dc:format>
        <dc:type
           rdf:resource="http://purl.org/dc/dcmitype/StillImage" />
      </cc:Work>
    </rdf:RDF>
  </metadata>
  <g
     id="layer1"
     inkscape:label="Layer 1"
     inkscape:groupmode="layer">
    <path
       style="font-size:12px;font-style:normal;font-weight:normal;fill:#eeeeec;fill-opacity:1;stroke:#c4a000;stroke-width:1.97910285;stroke-linecap:round;stroke-linejoin:round;stroke-miterlimit:4;stroke-dasharray:none;stroke-opacity:1;font-family:Gentium"
       d="M 268.6875 146.96875 C 267.69149 146.96894 266.69381 147.20418 265.28125 147.59375 C 263.89046 147.9775 262.30179 148.4516 260.46875 149.0625 C 258.67752 149.67539 256.71763 150.39117 254.65625 151.1875 C 252.58157 151.98918 250.5764 152.82194 248.59375 153.71875 C 247.6512 154.14245 247.18218 155.21485 247.53125 156.1875 L 248.40625 158.84375 L 249.09375 158.59375 C 249.86113 159.16837 251.02203 160.12807 251.125 160.09375 C 251.26435 160.0473 251.47164 159.93659 251.75 159.84375 C 252.29113 159.66345 252.92292 159.44803 253.65625 159.21875 C 253.67686 159.21907 253.69813 159.21907 253.71875 159.21875 C 254.44228 158.96347 255.18911 158.76256 255.90625 158.59375 C 256.61907 158.4261 257.12532 158.34377 257.25 158.34375 C 257.52114 158.34381 257.84369 158.3438 258.125 158.40625 C 258.1867 158.41998 258.27292 158.44976 258.4375 158.59375 C 258.45668 158.63567 258.47794 158.67825 258.5 158.71875 C 258.43866 158.67274 258.60043 158.80001 258.75 159.21875 C 258.8416 159.45708 259 160.07671 259 161 C 258.99996 162.28913 258.81992 164.36615 258.5 167.0625 C 258.22521 169.76443 257.81986 172.91737 257.3125 176.46875 C 256.85111 180.02119 256.30347 183.93316 255.65625 188.09375 C 255.0538 192.21808 254.43008 196.39265 253.78125 200.65625 C 253.78091 200.67687 253.78094 200.69813 253.78125 200.71875 C 253.17964 204.92983 252.58522 209.02257 251.9375 213.09375 C 251.91642 213.11392 251.89517 213.13518 251.875 213.15625 C 251.27187 217.23878 250.72911 220.98911 250.21875 224.46875 C 250.2184 224.48937 250.21843 224.51064 250.21875 224.53125 C 249.75432 228.01418 249.35687 231.02028 249.03125 233.625 C 249.03093 233.64562 249.03093 233.66688 249.03125 233.6875 C 248.74946 236.31738 248.59377 238.20432 248.59375 239.5625 C 248.59371 241.21796 248.95959 242.92416 249.59375 244.5625 C 250.20229 246.13466 250.98374 247.63799 251.9375 249.09375 C 251.95766 249.11484 251.97893 249.13608 252 249.15625 C 252.99246 250.54573 254.10952 251.8595 255.34375 253.09375 C 256.60677 254.30822 257.90138 255.43514 259.1875 256.375 C 260.54133 257.32773 261.8547 258.06062 263.1875 258.59375 C 264.56958 259.1785 265.8991 259.53125 267.21875 259.53125 C 270.33993 259.53124 273.31358 259.07887 276.125 258.125 C 278.8663 257.19489 281.43737 255.92865 283.84375 254.40625 C 283.86434 254.40657 283.88564 254.40657 283.90625 254.40625 C 286.29145 252.84851 288.47023 251.09228 290.46875 249.09375 C 292.47794 247.08452 294.27137 244.94504 295.90625 242.78125 C 295.92685 242.78156 295.94813 242.78156 295.96875 242.78125 C 299.42726 237.92964 301.86901 232.83562 303.28125 227.625 C 304.6853 222.57023 305.44174 217.58234 305.5625 212.59375 C 305.56497 212.49036 305.62305 212.3846 305.625 212.28125 C 305.62675 212.14259 305.56171 212.04388 305.5625 211.90625 C 305.58339 208.28459 305.29294 205.00426 304.625 202.09375 C 303.93968 199.10823 302.95746 196.47787 301.65625 194.34375 C 300.41152 192.21757 298.92108 190.57359 297.03125 189.40625 C 295.16436 188.19838 293.08736 187.59383 290.90625 187.59375 C 289.12783 187.59383 287.1287 187.99112 284.90625 188.78125 C 282.6356 189.60699 280.25609 190.9546 277.78125 192.75 C 275.27325 194.52036 272.80981 196.78077 270.1875 199.59375 C 270.16685 199.59342 270.14562 199.59343 270.125 199.59375 C 269.20777 200.59588 268.35992 202.09794 267.46875 203.25 C 267.61662 202.30594 267.75228 201.4281 267.90625 200.46875 C 268.51006 196.65994 269.13005 192.87273 269.6875 189.15625 C 270.292 185.4361 270.83194 181.89602 271.34375 178.40625 C 271.90311 174.86346 272.34452 171.55643 272.71875 168.5625 C 273.13896 165.52722 273.48353 162.86802 273.71875 160.46875 C 273.95431 158.06573 274.09375 156.15787 274.09375 154.65625 C 274.09368 152.36492 273.93253 150.60003 273.03125 149.125 C 272.1865 147.60478 270.41031 146.96889 268.6875 146.96875 z M 44.3125 162.9375 C 41.064119 162.93761 38.001864 163.07547 35.15625 163.3125 C 32.323284 163.54868 29.645229 163.85336 27.125 164.28125 C 24.609382 164.66106 22.229815 165.14576 19.9375 165.71875 C 17.67976 166.23623 15.510195 166.76283 13.34375 167.375 C 12.49416 167.62403 11.898254 168.42721 11.90625 169.3125 L 11.90625 173.625 C 11.910525 174.22349 12.187737 174.81509 12.65625 175.1875 C 13.124743 175.55988 13.728487 175.69336 14.3125 175.5625 C 15.961588 175.1961 17.64754 174.88349 19.34375 174.5625 C 20.244796 174.39207 21.362234 174.22093 22.375 174.0625 L 14.8125 229.09375 C 16.988682 229.97623 19.297457 230.74693 21.6875 231.21875 C 24.070795 231.68926 26.344638 231.85056 28.59375 231.84375 L 31.34375 212.28125 C 32.447575 212.13295 33.483888 211.97051 34.65625 211.84375 C 34.676871 211.84407 34.698129 211.84407 34.71875 211.84375 C 36.23955 211.63828 37.977733 211.48086 39.8125 211.46875 C 39.915413 211.47679 40.022089 211.4768 40.125 211.46875 C 40.186807 211.47164 40.219441 211.47165 40.28125 211.46875 C 43.202638 211.49306 45.639249 212.04212 47.53125 212.96875 C 49.617304 213.97012 51.23021 215.25442 52.46875 216.8125 C 53.745748 218.41915 54.668459 220.2148 55.25 222.25 C 55.249679 222.27063 55.249681 222.29187 55.25 222.3125 C 55.890595 224.40528 56.249942 226.50365 56.25 228.625 C 56.249941 231.22743 55.804678 233.73726 54.90625 236.21875 C 54.006411 238.7039 52.733121 240.87686 51.125 242.78125 C 49.529901 244.67012 47.601042 246.15708 45.3125 247.34375 C 43.150119 248.44533 40.729001 249.03125 37.9375 249.03125 C 36.994793 249.03125 35.995469 249.01413 34.90625 248.96875 C 33.817922 248.87807 32.761857 248.73019 31.625 248.59375 C 30.615598 248.42167 29.621636 248.22059 28.65625 247.96875 C 27.83712 247.71946 27.160011 247.44956 26.5 247.15625 L 27.6875 238.5 C 25.141581 237.46957 22.36671 236.51 19.625 235.96875 C 17.643166 235.57751 15.768012 235.44834 13.9375 235.40625 L 12.34375 246.90625 C 12.082687 247.10858 11.513538 247.42569 10.71875 247.78125 C 9.126344 248.45174 6.9111613 249.11697 4.0625 249.75 C 3.2466545 249.92506 2.6118791 250.6106 2.5 251.4375 L 2.125 254.40625 C 2.0355251 254.97161 2.1948816 255.56122 2.5625 256 C 2.9300983 256.43876 3.4902028 256.67659 4.0625 256.6875 L 8.6875 256.6875 L 8.6875 256.625 C 8.7924909 256.63453 9.1194779 256.73814 9.9375 256.8125 C 9.9776566 256.81614 9.9581418 256.80871 10 256.8125 C 11.064223 256.95636 12.380441 257.04868 14 257.1875 C 15.61762 257.32616 17.415549 257.50231 19.40625 257.6875 C 21.476588 257.92278 23.491745 258.10881 25.5625 258.25 C 27.613247 258.38982 29.584664 258.50033 31.40625 258.59375 C 33.294749 258.7354 34.830529 258.78125 36.15625 258.78125 C 40.785033 258.78125 45.225101 258.00489 49.4375 256.4375 C 53.632943 254.82761 57.394287 252.6049 60.59375 249.75 C 63.807253 246.88253 66.317679 243.4231 68.1875 239.4375 C 70.004257 235.56481 70.89624 231.26928 70.96875 226.6875 C 71.001108 226.56604 71.02246 226.43787 71.03125 226.3125 C 71.034154 226.25069 71.034157 226.18681 71.03125 226.125 C 71.031247 226.06102 71.031647 226.03259 71.03125 225.96875 C 71.022457 225.84337 71.001108 225.71521 70.96875 225.59375 C 70.951198 225.53093 70.929913 225.46705 70.90625 225.40625 C 70.838022 222.72451 70.532496 220.11239 69.75 217.71875 C 68.94747 215.11083 67.818418 212.86216 66.28125 210.8125 C 64.756523 208.72886 62.919393 206.95674 60.78125 205.53125 C 59.840406 204.88875 58.661871 204.66234 57.625 204.1875 C 58.636242 203.58531 59.731852 203.11453 60.65625 202.375 C 62.692313 200.73624 64.451692 198.86898 65.90625 196.8125 C 67.412606 194.70357 68.571304 192.43005 69.375 189.96875 C 70.234514 187.49115 70.59371 184.97152 70.59375 182.34375 C 70.593672 179.36916 69.951217 176.56541 68.625 174.125 C 67.361539 171.65094 65.561567 169.58915 63.1875 167.9375 C 60.864385 166.23402 58.116314 164.99592 54.90625 164.15625 C 51.737372 163.31463 48.208082 162.9376 44.3125 162.9375 z M 42.28125 172.75 C 42.322471 172.75129 42.365029 172.75129 42.40625 172.75 C 42.468058 172.75291 42.531942 172.75291 42.59375 172.75 C 43.914797 172.76698 45.370268 172.98674 46.96875 173.4375 C 48.526063 173.87682 49.972827 174.60085 51.3125 175.65625 C 52.596601 176.66808 53.669487 178.02663 54.53125 179.75 C 55.368983 181.34943 55.812464 183.40849 55.8125 186 C 55.812444 189.4635 55.193462 192.11797 54.03125 194.09375 C 52.80502 196.17831 51.170939 197.81889 49.09375 199 C 47.007424 200.21007 44.519358 201.05411 41.65625 201.53125 C 38.75643 202.02202 35.76825 202.28129 32.625 202.28125 L 36.59375 172.875 C 37.21016 172.862 37.779409 172.81253 38.4375 172.8125 C 38.458124 172.81282 38.479378 172.81282 38.5 172.8125 C 39.686472 172.76864 40.959442 172.75148 42.28125 172.75 z M 493.5625 187.03125 C 490.07263 187.03131 486.7334 187.644 483.5625 188.875 C 480.46486 190.09198 477.55809 191.74879 474.875 193.84375 C 474.86717 193.84369 474.85159 193.84369 474.84375 193.84375 C 471.78163 196.2862 469.13788 199.05198 466.90625 202.125 C 464.6876 205.14385 462.85882 208.36071 461.4375 211.75 C 460.02196 215.08925 459.00217 218.53648 458.3125 222.09375 C 458.31243 222.10158 458.31244 222.11717 458.3125 222.125 C 458.04232 223.58092 457.81651 224.99972 457.65625 226.4375 C 459.89014 226.9343 462.37906 227.37531 465.03125 227.65625 C 466.16285 227.77612 467.26547 227.84247 468.34375 227.90625 C 468.42088 226.17635 468.62679 224.26057 468.96875 222.15625 C 468.96881 222.14842 468.96881 222.13284 468.96875 222.125 C 469.41268 219.35887 470.13374 216.62095 471.09375 213.84375 C 471.09381 213.83591 471.09381 213.82033 471.09375 213.8125 C 472.0477 211.0188 473.25191 208.39451 474.75 205.875 C 476.25108 203.40661 478.02539 201.39001 480.09375 199.78125 C 481.38162 198.78318 482.83543 197.96445 484.46875 197.34375 C 486.1069 196.72128 487.51543 196.43754 488.6875 196.4375 C 491.39485 196.43756 493.61839 196.91908 495.40625 197.84375 C 495.414 197.85168 495.42958 197.86726 495.4375 197.875 C 497.3648 198.82239 498.96936 199.99773 500.28125 201.4375 C 500.47583 201.65364 500.71909 201.83096 501 201.90625 L 502.59375 202.3125 C 503.07074 202.44061 503.59207 202.31944 503.96875 202 C 504.49434 201.55529 505.05699 200.97949 505.75 200.25 C 506.48093 199.48252 507.18591 198.71151 507.8125 197.9375 C 508.479 197.1599 508.99985 196.48885 509.4375 195.8125 C 509.67224 195.44973 509.8369 195.13312 509.96875 194.71875 C 510.1006 194.30438 510.22745 193.58168 509.6875 192.90625 L 508.53125 193.84375 L 509.5625 192.75 C 507.84823 191.11374 505.66444 189.76553 503.0625 188.6875 C 500.36309 187.56928 497.19942 187.03132 493.5625 187.03125 z M 620.6875 187.03125 C 617.1025 187.03131 613.79605 187.60404 610.8125 188.8125 C 607.92005 189.9992 605.39668 191.57351 603.28125 193.5 C 601.212 195.41882 599.55084 197.65957 598.375 200.125 C 597.23622 202.5924 596.65623 205.13291 596.65625 207.6875 C 596.6562 209.09596 596.83644 210.51609 597.21875 211.96875 C 597.61606 213.47866 598.2966 214.95343 599.21875 216.375 C 599.22632 216.3908 599.2419 216.39072 599.25 216.40625 C 600.2278 217.81437 601.52985 219.19583 603.125 220.53125 C 604.7645 221.86578 606.80859 223.08674 609.21875 224.21875 C 611.85265 225.46643 614.00732 226.64113 615.6875 227.75 C 617.36736 228.85878 618.65065 229.96246 619.59375 231.03125 C 619.60148 231.03917 619.61709 231.05476 619.625 231.0625 C 620.56664 232.09833 621.18348 233.11305 621.53125 234.15625 C 621.53121 234.16408 621.53119 234.17966 621.53125 234.1875 C 621.89585 235.25098 622.09372 236.4201 622.09375 237.71875 C 622.09371 239.48706 621.74355 241.07591 621.03125 242.5625 C 621.03114 242.57035 621.03119 242.58591 621.03125 242.59375 C 620.3365 244.10938 619.38987 245.42375 618.15625 246.5625 C 616.92211 247.67006 615.43857 248.5373 613.71875 249.21875 C 612.06946 249.85308 610.29855 250.18751 608.3125 250.1875 C 606.43649 250.18751 604.95516 249.81217 603.78125 249.125 C 602.46663 248.30338 601.38552 247.41753 600.5 246.46875 C 599.57657 245.44273 598.89681 244.56206 598.34375 243.78125 C 597.99782 243.27255 597.661 242.88556 597.25 242.53125 C 596.83898 242.17696 596.29629 241.81253 595.5625 241.8125 C 594.44859 241.81254 593.67186 242.38078 592.875 243.09375 C 592.85922 243.10132 592.85928 243.1169 592.84375 243.125 C 592.12414 243.80462 591.42846 244.61754 590.78125 245.53125 C 590.18364 246.39034 589.67349 247.25342 589.21875 248.125 C 588.74604 249.03095 588.40623 249.73181 588.40625 250.65625 C 588.40624 252.13209 589.22959 253.47956 590.4375 254.5625 C 590.44525 254.57042 590.46083 254.55475 590.46875 254.5625 C 591.64366 255.58078 593.04433 256.46279 594.65625 257.25 C 596.29043 258.02996 598.00374 258.67485 599.78125 259.15625 C 601.6018 259.63927 603.27007 259.90625 604.78125 259.90625 C 608.46378 259.90625 611.95919 259.17101 615.25 257.75 C 618.54373 256.30667 621.4458 254.39188 623.90625 251.96875 C 626.39868 249.55069 628.39326 246.72371 629.84375 243.5625 C 631.30623 240.37495 632.03121 237.02186 632.03125 233.5 C 632.03117 231.39154 631.77543 229.42023 631.1875 227.65625 C 630.59205 225.87011 629.59611 224.22707 628.28125 222.71875 C 626.9716 221.17809 625.30933 219.73942 623.28125 218.375 C 621.27905 217.02814 618.85377 215.62116 616.03125 214.15625 C 613.71273 212.97974 611.85625 211.89685 610.5 210.9375 C 609.15083 209.92568 608.16945 209.04122 607.5 208.25 C 606.82106 207.44764 606.4503 206.73589 606.28125 206.15625 C 606.06905 205.42884 605.96874 204.74108 605.96875 204.125 C 605.96874 203.18961 606.16871 202.22176 606.625 201.1875 C 607.07361 200.17063 607.70584 199.2636 608.5625 198.4375 C 609.43324 197.59682 610.51766 196.9118 611.84375 196.375 C 611.85159 196.37506 611.86716 196.37506 611.875 196.375 C 613.1411 195.83243 614.63837 195.56256 616.375 195.5625 C 617.26547 195.56255 618.06196 195.67926 618.84375 195.96875 C 619.71016 196.27825 620.53359 196.72042 621.3125 197.25 C 622.10627 197.78988 622.83184 198.39385 623.5 199.09375 C 623.50773 199.10167 623.52334 199.11725 623.53125 199.125 C 624.21253 199.80633 624.85612 200.53596 625.40625 201.3125 C 625.62772 201.61592 625.91307 201.83172 626.28125 201.90625 L 627.84375 202.21875 C 628.20451 202.29542 628.55456 202.24515 628.875 202.0625 C 629.34291 201.79517 629.72007 201.46746 630.15625 201.03125 C 630.61416 200.61153 631.01828 200.17504 631.5 199.65625 C 631.51603 199.64094 631.54718 199.64101 631.5625 199.625 C 632.04407 199.06933 632.52461 198.49844 632.96875 197.90625 C 633.44718 197.31741 633.76967 196.77651 634.09375 196.21875 L 634.125 196.21875 C 634.13989 196.19554 634.14162 196.17925 634.15625 196.15625 C 634.48549 195.63863 634.71896 195.18689 634.90625 194.71875 C 634.91435 194.70323 634.96119 194.67205 634.96875 194.65625 C 635.07427 194.36607 635.15625 194.06605 635.15625 193.65625 C 635.15628 193.25379 634.96726 192.6113 634.46875 192.21875 C 634.46031 192.21226 634.44596 192.194 634.4375 192.1875 C 632.64349 190.8084 630.58775 189.61591 628.3125 188.625 C 625.95811 187.54438 623.42068 187.03132 620.6875 187.03125 z M 116.6875 187.59375 C 115.07933 187.59383 113.36382 187.75452 111.65625 188.15625 C 109.99386 188.54744 108.35155 189.08914 106.65625 189.71875 C 106.63562 189.71844 106.61438 189.71844 106.59375 189.71875 C 104.94734 190.34831 103.37535 191.05387 101.78125 191.875 C 101.78092 191.89562 101.78094 191.91687 101.78125 191.9375 C 100.24499 192.75367 98.750856 193.59326 97.4375 194.46875 C 94.014719 196.78277 91.025639 199.41615 88.40625 202.375 C 85.84989 205.26903 83.633096 208.38195 81.84375 211.71875 C 80.051131 215.06174 78.701732 218.56826 77.78125 222.25 C 77.780917 222.27063 77.78094 222.29187 77.78125 222.3125 C 76.909503 225.94476 76.46877 229.6228 76.46875 233.4375 C 76.468751 237.94514 76.974881 241.86742 78.03125 245.1875 C 79.054564 248.355 80.30546 251.04992 81.90625 253.21875 C 81.926389 253.23983 81.947671 253.26109 81.96875 253.28125 C 83.589461 255.35783 85.412933 256.96034 87.4375 258 C 89.405081 258.98382 91.401974 259.53125 93.3125 259.53125 C 95.763261 259.53124 98.14443 258.59035 100.46875 256.9375 C 102.7498 255.40024 104.88321 253.52955 106.96875 251.25 C 106.96905 251.22939 106.96907 251.20812 106.96875 251.1875 C 109.02112 248.89643 110.95497 246.44916 112.71875 243.875 C 113.16431 243.23008 113.43253 242.71341 113.84375 242.09375 C 113.92536 243.68059 113.94607 245.6819 114.09375 246.96875 C 114.47638 249.88695 114.93747 252.2427 115.625 254.09375 C 115.62467 254.11438 115.62469 254.13562 115.625 254.15625 C 116.29695 255.91384 117.08965 257.30945 118.34375 258.25 C 119.40002 259.05778 120.62611 259.53125 121.9375 259.53125 C 123.87408 259.53124 125.91342 258.76889 128.5 257.5 C 131.13974 256.229 134.48532 254.29624 138.5625 251.625 C 139.29821 251.11732 139.61022 250.18662 139.3125 249.34375 L 138.5 246.78125 C 138.32116 246.25892 137.97372 245.84812 137.46875 245.625 C 136.96377 245.40188 136.35035 245.40554 135.84375 245.625 C 134.06411 246.38133 132.58187 246.85523 131.46875 247.09375 C 130.32735 247.30512 129.44077 247.40253 128.6875 247.40625 C 128.68138 247.39823 128.63173 247.35333 128.625 247.34375 C 128.48568 247.14556 128.28096 246.65002 128.0625 245.8125 C 127.82024 244.84369 127.55448 243.46887 127.375 241.71875 C 127.24142 239.98332 127.18748 237.89052 127.1875 235.28125 C 127.18745 234.41087 127.27074 232.74443 127.5 230.40625 C 127.77656 228.05484 128.14609 225.3497 128.5625 222.25 C 129.02371 219.15948 129.55558 215.93412 130.15625 212.46875 C 130.80292 208.95787 131.43247 205.54278 132.125 202.21875 C 132.14605 202.19859 132.16733 202.17733 132.1875 202.15625 C 132.41288 200.8937 132.60012 199.86952 132.8125 199.0625 C 132.98347 198.41258 133.17035 197.89261 133.375 197.4375 C 133.38447 197.41638 133.42796 197.3957 133.4375 197.375 C 133.48217 197.31553 133.52478 197.25162 133.5625 197.1875 C 133.63716 197.07065 133.70132 196.94235 133.75 196.8125 C 133.77366 196.75169 133.79494 196.68783 133.8125 196.625 C 133.8128 196.60438 133.81282 196.58312 133.8125 196.5625 C 133.83453 196.522 133.85582 196.47943 133.875 196.4375 C 134.09964 196.03452 134.36368 195.6676 134.625 195.40625 C 134.64606 195.3861 134.66733 195.36482 134.6875 195.34375 C 135.14681 194.84612 135.78188 194.23078 136.65625 193.53125 C 137.42613 192.92501 137.64177 191.8512 137.15625 191 L 135.78125 188.59375 C 135.26561 187.67929 134.12958 187.31796 133.1875 187.78125 C 131.92697 188.41156 130.65923 189.13526 129.40625 189.90625 C 128.5944 190.3934 127.82663 190.9094 127.0625 191.4375 C 126.62862 191.16923 126.2428 190.9071 125.78125 190.625 C 124.8869 190.07857 123.94463 189.60379 123 189.15625 C 122.05825 188.68548 121.12627 188.3574 120.09375 188.09375 C 120.07396 188.08781 120.05104 188.09956 120.03125 188.09375 C 118.93942 187.77248 117.82928 187.59383 116.6875 187.59375 z M 160.28125 187.59375 C 159.28505 187.59387 158.32893 187.82507 157 188.21875 C 155.69738 188.60478 154.19651 189.1062 152.5 189.71875 C 150.80219 190.3319 148.99906 191.01607 147.03125 191.8125 C 145.07056 192.60616 143.05411 193.44116 141.09375 194.28125 C 140.15808 194.67984 139.6963 195.71689 140 196.6875 L 140.875 199.40625 C 141.20112 200.44668 142.30215 201.04113 143.34375 200.71875 C 143.34373 200.71875 143.64694 200.59187 144.25 200.40625 C 144.82921 200.22807 145.55275 200.00972 146.375 199.78125 C 147.17719 199.55847 147.91782 199.42804 148.71875 199.25 C 149.48551 199.07966 150.06299 199.00002 150.1875 199 C 150.31762 199.00001 150.4017 199.0456 150.5 199.0625 C 150.52014 199.08358 150.54143 199.10483 150.5625 199.125 C 150.52279 199.07868 150.65336 199.26774 150.75 199.71875 C 150.83166 200.0728 150.93752 200.86305 150.9375 201.84375 C 150.93746 203.07529 150.79044 204.79767 150.5625 207.03125 C 150.56216 207.05189 150.56219 207.07313 150.5625 207.09375 C 150.38014 209.28177 150.14939 211.77195 149.78125 214.625 C 149.41224 217.48452 148.97724 220.59442 148.46875 223.96875 C 147.96036 227.29623 147.41364 230.73571 146.8125 234.25 C 146.25826 237.75989 145.64671 241.31819 145 244.875 C 144.97935 244.87467 144.95811 244.87467 144.9375 244.875 C 144.33733 248.38343 143.73926 251.80385 143.09375 255.03125 C 142.98127 255.69541 143.22082 256.35884 143.71875 256.8125 L 146 258.96875 C 146.6428 259.56113 147.59167 259.66431 148.34375 259.21875 C 148.82649 258.93715 149.46491 258.6515 150.3125 258.25 C 151.20951 257.8723 152.08979 257.48617 153.03125 257.0625 C 154.00181 256.64654 154.87295 256.24428 155.75 255.875 C 155.77058 255.87531 155.79188 255.87531 155.8125 255.875 C 156.76893 255.4446 157.58568 255.07647 158.25 254.71875 C 158.93216 254.3581 159.32243 253.6143 159.28125 252.84375 C 159.19228 250.70924 159.22379 248.15257 159.40625 245.1875 C 159.63129 242.21635 160.10965 238.67535 160.84375 234.5 C 161.21261 232.28675 161.56966 230.18121 161.9375 228.25 C 162.34841 226.33229 162.79635 224.6161 163.25 222.9375 C 163.74166 221.23888 164.2862 219.66212 164.90625 218.15625 C 165.55687 216.68149 166.30244 215.30255 167.21875 213.90625 C 167.2398 213.88609 167.26109 213.86482 167.28125 213.84375 C 168.99609 211.09096 170.68671 208.7213 172.40625 206.78125 C 174.2089 204.79834 175.89042 203.24396 177.40625 202.03125 C 178.94904 200.75298 180.27713 199.8423 181.3125 199.34375 C 182.45298 198.79464 183.27522 198.625 183.21875 198.625 C 183.83423 198.62503 184.00384 198.69498 184.46875 199.59375 C 184.48935 199.59406 184.51063 199.59407 184.53125 199.59375 C 184.92018 200.29877 185.37499 202.58243 185.375 205.96875 C 185.37494 207.50684 185.17737 210.1248 184.71875 213.65625 C 184.71841 213.67688 184.71843 213.69814 184.71875 213.71875 C 184.30556 217.25331 183.70732 221.27373 182.96875 225.84375 C 182.68766 227.56531 182.38298 229.3552 182.0625 231.15625 C 184.30959 232.0795 186.67794 232.88575 189.15625 233.375 C 191.21254 233.78095 193.25859 233.96722 195.21875 234 C 195.55732 231.98145 195.92107 230.07587 196.21875 228.375 C 196.53586 226.51727 196.84611 224.77178 197.25 223.15625 C 197.6929 221.51725 198.25865 219.96558 198.875 218.46875 C 199.52767 216.98921 200.30654 215.58192 201.28125 214.03125 C 203.04525 211.2721 204.74361 208.91508 206.46875 206.96875 C 208.26904 204.94337 209.99313 203.29926 211.5 202.09375 C 213.02847 200.82728 214.38479 199.90619 215.5 199.40625 C 215.5206 199.40656 215.54188 199.40656 215.5625 199.40625 C 216.66549 198.87377 217.44136 198.71643 217.875 198.6875 C 217.94278 198.75579 218.09017 198.91387 218.28125 199.34375 C 218.3014 199.36482 218.32267 199.38608 218.34375 199.40625 C 218.66535 200.04963 219.03121 201.94998 219.03125 204.6875 C 219.03115 206.07845 218.91247 208.07494 218.59375 210.625 C 218.27149 213.20251 217.89912 215.9842 217.4375 219.03125 C 217.00149 221.86474 216.43726 224.80819 215.875 227.8125 C 218.56903 229.00202 221.40949 230.11479 224.46875 230.71875 C 226.05362 231.03163 227.65651 231.20535 229.1875 231.28125 C 229.5529 229.23267 229.89572 227.17657 230.28125 224.96875 C 230.79219 222.0418 231.25396 219.16341 231.71875 216.375 C 232.18745 213.56206 232.59219 210.93511 232.875 208.4375 C 233.20721 205.87411 233.37494 203.72793 233.375 201.84375 C 233.37488 199.49368 233.16898 197.42197 232.6875 195.65625 C 232.21685 193.87876 231.47835 192.30983 230.46875 191.0625 C 229.48056 189.84203 228.25563 188.94753 226.8125 188.40625 C 225.43801 187.83368 224.01005 187.59383 222.4375 187.59375 C 220.43177 187.59383 218.37633 187.93788 216.375 188.65625 C 214.38747 189.33623 212.42135 190.40374 210.3125 191.875 C 210.2914 191.89517 210.27017 191.91642 210.25 191.9375 C 208.20016 193.40165 206.01237 195.20754 203.6875 197.4375 C 202.50861 198.56824 201.1523 200.16893 199.875 201.53125 C 199.85693 199.99085 199.7213 198.40398 199.4375 196.9375 C 199.12494 195.27102 198.57883 193.80609 197.8125 192.4375 C 197.00011 190.98708 195.84199 189.76779 194.40625 188.90625 C 192.87727 187.98899 191.07739 187.59383 189.09375 187.59375 C 186.96667 187.59383 184.76432 187.94961 182.59375 188.65625 C 180.43991 189.37424 178.29196 190.48834 176 192 C 173.73067 193.48004 171.35463 195.42829 168.875 197.8125 C 167.67837 198.96218 166.30879 200.58886 165.03125 201.96875 C 165.10872 201.17068 165.1754 200.38884 165.21875 199.71875 C 165.22112 199.68174 165.21645 199.63038 165.21875 199.59375 C 165.3069 198.817 165.40625 198.15706 165.40625 197.5625 C 165.40621 195.92616 165.31695 194.57443 165.21875 193.46875 C 165.21772 193.44561 165.21982 193.42924 165.21875 193.40625 C 165.16814 192.3155 165.0455 191.42246 164.71875 190.5625 C 164.71046 190.53563 164.66504 190.52688 164.65625 190.5 C 164.64203 190.46386 164.67123 190.44219 164.65625 190.40625 L 164.59375 190.40625 C 164.28436 189.54301 163.81252 188.64249 162.9375 188.15625 C 162.11212 187.69787 161.19684 187.59383 160.28125 187.59375 z M 329.8125 187.59375 C 328.81633 187.59387 327.8393 187.82722 326.46875 188.21875 C 326.44811 188.21844 326.42688 188.21843 326.40625 188.21875 C 325.10364 188.60478 323.63402 189.1062 321.9375 189.71875 C 320.22994 190.33542 318.33198 191.0922 316.3125 191.9375 C 314.33933 192.73621 312.40944 193.51426 310.4375 194.40625 C 309.52599 194.82722 309.09422 195.85819 309.40625 196.8125 L 310.1875 199.40625 C 310.51254 200.38563 311.56032 200.96466 312.5625 200.71875 C 312.56247 200.71875 312.8657 200.67048 313.46875 200.53125 C 313.51066 200.51208 313.55326 200.49079 313.59375 200.46875 C 314.14229 200.3 314.77631 200.14644 315.53125 199.96875 C 315.57244 199.97003 315.58378 199.97004 315.625 199.96875 C 316.3793 199.74692 317.18464 199.52094 317.9375 199.34375 C 318.65027 199.17607 319.15675 199.12502 319.28125 199.125 C 319.49277 199.12502 319.60597 199.16415 319.71875 199.1875 C 319.75534 199.21501 319.80536 199.22512 319.84375 199.25 C 319.81797 199.24732 319.89779 199.38757 319.96875 199.71875 C 320.0504 200.0728 320.15627 200.86305 320.15625 201.84375 C 320.15622 202.84517 319.9893 204.26259 319.71875 206.15625 C 319.71843 206.17689 319.71844 206.19813 319.71875 206.21875 C 319.49012 208.13917 319.21208 210.3247 318.84375 212.71875 C 318.47495 215.11577 318.08668 217.61853 317.625 220.25 C 317.1586 222.90837 316.68614 225.46234 316.3125 227.9375 C 315.93969 230.40733 315.62407 232.69488 315.34375 234.84375 C 315.34341 234.86437 315.34343 234.88562 315.34375 234.90625 C 315.10678 237.08596 315.03127 238.93604 315.03125 240.4375 C 315.03122 243.42924 315.34932 246.08993 316.125 248.46875 C 316.12468 248.48937 316.12468 248.51064 316.125 248.53125 C 316.9143 250.80056 317.87447 252.71373 319.03125 254.34375 C 319.03093 254.36437 319.03094 254.38562 319.03125 254.40625 C 320.21155 255.99711 321.55423 257.25752 323 258.125 C 324.39891 258.98591 325.7633 259.53125 327.21875 259.53125 C 330.02894 259.53124 332.78436 258.83806 335.4375 257.5625 C 338.05255 256.35553 340.50752 254.71647 342.90625 252.5625 C 345.29026 250.37306 347.56452 247.71804 349.71875 244.75 C 350.58006 243.56327 351.35954 242.1265 352.1875 240.84375 C 352.25804 243.33939 352.26566 245.96913 352.5 247.84375 C 352.88514 250.492 353.39519 252.68678 354.09375 254.40625 C 354.77082 256.07301 355.56936 257.40362 356.78125 258.3125 C 357.79254 259.07106 358.96453 259.53125 360.21875 259.53125 C 362.46743 259.53124 364.89849 258.75386 367.65625 257.375 C 370.33274 256.10718 373.49507 254.21504 377.125 251.8125 C 377.16693 251.79333 377.2095 251.77204 377.25 251.75 C 377.26768 251.73824 377.29477 251.76178 377.3125 251.75 C 377.37661 251.71228 377.44053 251.66969 377.5 251.625 C 377.66143 251.52286 377.78061 251.39394 377.90625 251.25 C 377.90655 251.22939 377.90656 251.20812 377.90625 251.1875 C 378.02833 251.05777 378.13563 250.90757 378.21875 250.75 C 378.21905 250.72937 378.21907 250.70812 378.21875 250.6875 C 378.24241 250.6267 378.2637 250.56284 378.28125 250.5 C 378.62531 251.15051 379.06494 251.77407 379.59375 252.375 C 379.61391 252.39609 379.63517 252.41734 379.65625 252.4375 C 380.88049 253.715 382.36144 254.82801 384.15625 255.875 C 385.98947 256.94438 388.0717 257.8579 390.34375 258.5 C 392.65706 259.20407 394.96714 259.53125 397.34375 259.53125 C 400.62263 259.53124 403.93057 258.84363 407.28125 257.5625 C 410.62613 256.33275 413.65589 254.67528 416.375 252.5 C 419.15036 250.26974 421.44104 247.61894 423.1875 244.625 C 425.0233 241.51423 425.96873 238.10729 425.96875 234.5625 C 425.9687 231.84276 425.44431 229.33479 424.3125 227.125 C 423.28697 224.97157 421.91664 223.084 420.21875 221.4375 C 418.61422 219.78291 416.81811 218.39828 414.78125 217.15625 C 412.81936 215.96004 410.88013 214.94601 408.90625 214.03125 C 408.88559 214.03093 408.86438 214.03094 408.84375 214.03125 C 405.23036 212.38075 402.80052 210.64345 401.53125 209.1875 C 400.18909 207.60141 399.75 206.34533 399.75 205.34375 C 399.74998 204.12752 399.97972 203.13439 400.4375 202.21875 C 400.98344 201.16587 401.57585 200.31449 402.34375 199.65625 C 402.36434 199.65656 402.38562 199.65656 402.40625 199.65625 C 403.25356 198.92449 404.1537 198.38293 405.1875 198 C 405.20811 198.00033 405.22937 198.00032 405.25 198 C 406.28099 197.58 407.30405 197.37504 408.34375 197.375 C 409.5146 197.37504 410.36008 197.67634 411.125 198.25 C 411.14514 198.27107 411.16641 198.29233 411.1875 198.3125 C 412.21643 199.01225 413.0692 199.7631 413.78125 200.59375 C 413.80139 200.61483 413.82267 200.63608 413.84375 200.65625 C 414.68806 201.5451 415.43014 202.35218 416.03125 203.125 C 416.05043 203.16694 416.07169 203.20951 416.09375 203.25 C 416.97718 204.25138 418.06545 205.12511 419.53125 205.125 C 420.51596 205.12515 421.11012 204.77009 421.84375 204.375 C 421.86436 204.37532 421.88562 204.37531 421.90625 204.375 C 422.68778 203.92842 423.4609 203.32637 424.3125 202.625 C 425.14299 201.9411 426.0594 201.20528 426.96875 200.34375 C 427.86609 199.49128 428.73866 198.50474 429.625 197.5 C 429.63461 197.48909 429.67786 197.51094 429.6875 197.5 C 429.75569 197.42251 429.8197 197.33718 429.875 197.25 C 429.89607 197.22985 429.91733 197.20858 429.9375 197.1875 C 429.95855 197.16733 429.97985 197.14608 430 197.125 C 430.02204 197.08452 430.04332 197.04193 430.0625 197 C 430.08355 196.97983 430.10483 196.95858 430.125 196.9375 C 430.14701 196.89701 430.16832 196.85443 430.1875 196.8125 C 430.18781 196.79187 430.18782 196.77062 430.1875 196.75 C 430.20857 196.72984 430.22984 196.70858 430.25 196.6875 C 430.25126 196.64628 430.25129 196.60373 430.25 196.5625 C 430.29983 196.46309 430.34252 196.38762 430.375 196.28125 C 430.3753 196.26062 430.37532 196.23937 430.375 196.21875 C 430.37627 196.17751 430.37629 196.13498 430.375 196.09375 C 430.3753 196.07313 430.37532 196.05187 430.375 196.03125 C 430.37627 195.99002 430.37629 195.94748 430.375 195.90625 C 430.37627 195.86503 430.37629 195.82247 430.375 195.78125 C 430.3753 195.76062 430.37532 195.73937 430.375 195.71875 C 430.3558 195.67681 430.33454 195.63424 430.3125 195.59375 C 430.31278 195.57311 430.31281 195.55187 430.3125 195.53125 C 430.31375 195.49002 430.31378 195.44748 430.3125 195.40625 C 430.2923 195.38519 430.27108 195.36392 430.25 195.34375 C 430.25126 195.30251 430.25129 195.25998 430.25 195.21875 C 430.22981 195.19768 430.20858 195.17641 430.1875 195.15625 C 430.18781 195.13562 430.18782 195.11437 430.1875 195.09375 C 430.16831 195.05181 430.14705 195.00924 430.125 194.96875 C 430.10579 194.9268 430.08454 194.88425 430.0625 194.84375 C 430.04231 194.82267 430.02109 194.80141 430 194.78125 C 429.97982 194.76017 429.95858 194.73891 429.9375 194.71875 C 429.91731 194.69766 429.89607 194.67642 429.875 194.65625 C 429.76831 194.51663 429.63962 194.38793 429.5 194.28125 C 429.45874 194.27996 429.41623 194.27996 429.375 194.28125 C 429.35482 194.26017 429.33358 194.23891 429.3125 194.21875 C 429.2923 194.19767 429.27107 194.17641 429.25 194.15625 C 429.20949 194.1342 429.16694 194.11293 429.125 194.09375 C 429.10436 194.09342 429.08312 194.09343 429.0625 194.09375 C 429.0017 194.07007 428.93784 194.0488 428.875 194.03125 C 428.83438 194.01964 428.79071 193.98139 428.75 193.96875 C 428.07407 193.75883 427.43841 193.4773 426.71875 192.9375 C 425.71929 192.18803 424.55134 191.39623 423.25 190.625 C 421.89449 189.79095 420.36148 189.12667 418.625 188.53125 C 416.72254 187.87907 414.52084 187.59383 412 187.59375 C 409.02847 187.59383 406.04642 188.11832 403.03125 189.15625 C 400.04473 190.15182 397.32412 191.56951 394.875 193.46875 C 392.40646 195.3328 390.37957 197.59018 388.8125 200.21875 C 387.19453 202.93278 386.40627 206.00319 386.40625 209.25 C 386.40624 210.91995 386.584 212.55183 387.0625 214.09375 C 387.08265 214.11482 387.10393 214.10484 387.125 214.125 C 387.67523 215.72078 388.49693 217.22367 389.65625 218.59375 C 390.81853 219.96742 392.34626 221.2648 394.125 222.5 C 395.91473 223.74294 398.09274 224.93058 400.625 226.125 C 402.33096 226.93316 403.93355 227.81017 405.5 228.75 C 406.99985 229.64997 408.26334 230.63836 409.34375 231.71875 C 409.36391 231.73984 409.38517 231.76108 409.40625 231.78125 C 410.49276 232.78732 411.36479 233.88585 412 235.15625 C 411.99968 235.17687 411.99969 235.19813 412 235.21875 C 412.58701 236.35618 412.875 237.64916 412.875 239.1875 C 412.87495 240.54716 412.59687 241.78546 412.0625 242.96875 C 411.56272 244.12198 410.90052 245.10707 409.96875 246 C 409.08159 246.84857 407.98257 247.58964 406.6875 248.15625 C 405.49445 248.65654 404.2847 248.90625 402.90625 248.90625 C 401.04518 248.90625 399.484 248.61633 398.21875 248.15625 C 396.86966 247.60819 395.77096 247.03134 394.8125 246.3125 C 393.8229 245.52908 393.0935 244.67152 392.46875 243.8125 C 391.76915 242.85058 391.11716 242.00032 390.59375 241.21875 C 390.56607 241.17097 390.55854 241.14067 390.53125 241.09375 C 390.07522 240.31009 389.73935 239.67863 389.375 239.125 C 389.34858 239.07596 389.27727 239.04828 389.25 239 C 389.0423 238.63231 388.79408 238.26863 388.4375 237.9375 C 388.03411 237.56292 387.39987 237.21879 386.625 237.21875 C 385.15524 237.2188 384.25617 237.92438 383.3125 238.8125 C 382.42578 239.59492 381.59654 240.48557 380.75 241.53125 C 379.94749 242.53436 379.26659 243.55697 378.65625 244.625 C 378.06198 245.66496 377.67452 246.53378 377.625 247.65625 L 377.25 246.71875 C 377.05732 246.22329 376.6761 245.83439 376.1875 245.625 C 375.69889 245.41559 375.14788 245.42281 374.65625 245.625 C 373.04755 246.29526 371.68928 246.73911 370.5625 247.03125 C 369.49722 247.27707 368.45997 247.40625 367.40625 247.40625 C 367.3937 247.40625 367.49916 247.51964 367.34375 247.34375 C 367.18832 247.16786 366.9069 246.64158 366.65625 245.8125 C 366.15824 244.12717 365.84373 241.15807 365.84375 237.03125 C 365.84367 235.62059 365.94692 233.75096 366.21875 231.53125 C 366.41764 229.90673 366.69167 228.09426 366.96875 226.3125 C 364.71281 225.4367 362.35897 224.62812 359.96875 224.15625 C 357.564 223.68151 355.31225 223.59109 353.125 223.59375 C 350.8993 227.79993 348.7629 231.40691 346.6875 234.3125 C 346.68718 234.33313 346.68719 234.35438 346.6875 234.375 C 344.4552 237.56397 342.35164 240.09142 340.5 242.03125 C 338.62562 243.9502 336.99882 245.33028 335.6875 246.125 C 334.30657 246.92008 333.33223 247.15625 333.03125 247.15625 C 332.08161 247.15625 331.55423 246.83274 330.78125 245.25 C 330.09104 243.76613 329.62502 240.78432 329.625 236.46875 C 329.62495 235.26015 329.72817 233.53568 330 231.40625 C 330.27504 229.25156 330.61663 226.92375 331.03125 224.34375 C 331.44804 221.75027 331.88048 219.02965 332.34375 216.25 C 332.80814 213.46342 333.26939 210.82043 333.6875 208.21875 C 334.10775 205.60364 334.46845 203.17431 334.75 200.96875 C 335.03472 198.738 335.1875 196.88801 335.1875 195.40625 C 335.18744 193.12923 335.02041 191.43262 334.25 189.96875 C 333.41885 188.3898 331.58985 187.59383 329.8125 187.59375 z M 366.34375 187.59375 C 365.33494 187.59387 364.35706 187.82048 363.0625 188.21875 C 361.80703 188.6051 360.39914 189.10627 358.75 189.71875 C 358.72935 189.71844 358.70813 189.71844 358.6875 189.71875 C 357.07363 190.33586 355.36305 191.09218 353.4375 191.9375 C 351.51556 192.73443 349.59153 193.51668 347.625 194.40625 C 347.14068 194.61081 346.75975 194.98144 346.5625 195.46875 C 346.36521 195.95607 346.35686 196.51619 346.5625 197 L 347.625 199.53125 L 348.90625 199.0625 C 349.50091 199.87232 350.08804 200.67485 350.15625 200.65625 C 350.2839 200.62144 350.52608 200.60088 350.78125 200.53125 C 350.80232 200.51109 350.82358 200.48982 350.84375 200.46875 C 351.35345 200.29887 351.96085 200.1459 352.625 199.96875 C 352.64606 199.94858 352.66734 199.92732 352.6875 199.90625 C 353.40501 199.68207 354.11445 199.52161 354.78125 199.34375 C 355.43868 199.17942 355.9067 199.12502 356.03125 199.125 C 356.21458 199.12504 356.24325 199.16973 356.28125 199.1875 C 356.31172 199.27175 356.37726 199.39085 356.40625 199.59375 C 356.42541 199.63567 356.4467 199.67826 356.46875 199.71875 C 356.55041 200.07287 356.59372 200.863 356.59375 201.84375 C 356.59369 202.76738 356.50455 203.96791 356.28125 205.53125 C 356.2809 205.55187 356.28092 205.57312 356.28125 205.59375 C 356.10048 207.1296 355.85117 208.87609 355.53125 210.75 C 355.5309 210.77062 355.53093 210.79187 355.53125 210.8125 C 355.25574 212.69463 354.89962 214.69433 354.53125 216.8125 C 354.51668 216.89625 354.48325 216.97879 354.46875 217.0625 C 356.82371 218.04868 359.35428 218.89013 361.96875 219.40625 C 364.02504 219.81221 366.07109 219.99847 368.03125 220.03125 C 368.2435 218.77674 368.41833 217.54768 368.65625 216.25 C 368.65655 216.22937 368.65657 216.20812 368.65625 216.1875 C 369.16811 213.34861 369.64309 210.65673 370.0625 208.09375 C 370.48242 205.48047 370.84357 203.12623 371.125 200.96875 C 371.4097 198.73802 371.56246 196.88795 371.5625 195.40625 C 371.56243 193.14358 371.43188 191.47099 370.75 190.03125 C 369.99253 188.43251 368.09014 187.59383 366.34375 187.59375 z M 517.28125 188.625 C 516.58975 188.69466 516.03181 189.21764 515.9375 189.90625 L 515.59375 192.1875 C 515.53272 192.61752 515.68499 193.04619 515.96875 193.375 C 516.25247 193.70381 516.65943 193.90373 517.09375 193.90625 C 517.83687 193.9063 518.74582 194.05289 519.8125 194.34375 C 519.83604 194.3443 519.8515 194.3443 519.875 194.34375 C 520.60284 194.51505 521.30541 194.87117 522 195.25 L 515.84375 237.875 C 517.1439 238.08932 518.47363 238.3203 519.875 238.46875 C 521.40664 238.63099 522.91607 238.72091 524.34375 238.78125 L 528.625 208.875 L 541.46875 257.125 C 541.63806 257.78095 542.19761 258.23968 542.875 258.25 L 545.0625 258.25 C 545.6282 258.2495 546.14989 257.94176 546.40625 257.4375 L 571.21875 208.75 L 569.53125 223.46875 C 572.18893 224.35795 575.6117 225.15407 579.4375 225.65625 L 582.84375 195.40625 C 583.76708 194.99095 584.71025 194.60222 585.59375 194.375 C 585.60941 194.37525 585.60934 194.37525 585.625 194.375 C 586.76056 194.05058 587.70243 193.9063 588.46875 193.90625 L 588.46875 192.40625 L 590 192.53125 L 590.21875 190.25 C 590.25851 189.82728 590.099 189.43836 589.8125 189.125 C 589.52601 188.81163 589.1121 188.62318 588.6875 188.625 L 574.96875 188.625 C 574.48446 188.62511 573.9612 188.70867 573.5 188.90625 C 573.46808 188.92082 573.46829 188.92074 573.4375 188.9375 C 572.92723 189.19272 572.60091 189.51148 572.25 189.90625 C 572.22571 189.92898 572.21022 189.94447 572.1875 189.96875 C 571.87196 190.37439 571.55894 190.89976 571.1875 191.53125 C 571.1796 191.539 571.164 191.55458 571.15625 191.5625 C 570.82499 192.15129 570.40448 192.9453 569.90625 193.90625 C 569.89837 193.90619 569.88283 193.90619 569.875 193.90625 L 547.375 237.8125 L 535.25 194.15625 C 534.99948 193.19014 534.81345 192.44694 534.625 191.84375 C 534.44458 191.23045 534.23856 190.76526 534 190.3125 C 533.98167 190.27767 533.98789 190.22197 533.96875 190.1875 L 533.9375 190.1875 C 533.72034 189.74084 533.3919 189.29441 532.875 189 C 532.85861 188.99019 532.8602 188.9781 532.84375 188.96875 C 532.82736 188.96009 532.79796 188.94586 532.78125 188.9375 L 532.78125 188.96875 C 532.32911 188.7237 531.87709 188.62511 531.4375 188.625 L 517.40625 188.625 C 517.35925 188.6228 517.32823 188.6228 517.28125 188.625 z M 109.5625 198.875 C 110.48334 198.87505 111.33386 198.98838 112.15625 199.25 C 112.17684 199.25032 112.19813 199.25031 112.21875 199.25 C 113.11687 199.49502 114.00274 199.81392 114.8125 200.21875 C 115.66943 200.6473 116.48539 201.14657 117.25 201.65625 C 117.69991 201.95624 118.06622 202.20361 118.46875 202.5 C 118.33321 203.29433 118.20808 204.07867 117.96875 205.34375 C 117.64172 207.07197 117.30991 208.98359 116.9375 211.125 C 116.56618 213.21335 116.16758 215.41493 115.75 217.78125 C 115.74967 217.80187 115.74969 217.82313 115.75 217.84375 C 115.39545 220.05936 115.0624 222.17111 114.75 224.21875 C 113.46194 226.77632 112.01238 229.34481 110.375 232 C 108.69237 234.68307 107.02421 237.08785 105.3125 239.25 C 105.31216 239.27062 105.31219 239.29188 105.3125 239.3125 C 103.65342 241.46474 102.04524 243.15679 100.59375 244.4375 C 99.18981 245.67622 98.163612 246.0625 97.875 246.0625 C 96.923211 246.0625 96.070709 245.76593 95.15625 245.0625 C 94.233055 244.35236 93.404959 243.23762 92.625 241.71875 C 91.844872 240.19964 91.169667 238.31058 90.6875 236.03125 C 90.211782 233.78261 89.968777 231.21595 89.96875 228.3125 C 89.968713 226.67271 90.181718 224.79715 90.625 222.625 C 91.113363 220.44941 91.774894 218.2372 92.625 216 C 93.468652 213.73543 94.520478 211.58594 95.71875 209.5 C 96.953327 207.38355 98.246989 205.53916 99.71875 203.9375 C 101.2181 202.35247 102.77899 201.13098 104.4375 200.21875 C 104.45855 200.19857 104.47983 200.17733 104.5 200.15625 C 106.12631 199.24397 107.75859 198.87504 109.5625 198.875 z M 284.03125 200.78125 C 284.6772 200.78129 285.39065 200.9851 286.25 201.59375 C 286.27014 201.61483 286.29142 201.63608 286.3125 201.65625 C 287.12777 202.1781 287.9845 203.06772 288.75 204.4375 C 288.74967 204.45813 288.74968 204.47938 288.75 204.5 C 289.54183 205.84623 290.25752 207.66815 290.78125 209.9375 C 291.33144 212.09622 291.65623 214.70501 291.65625 217.78125 C 291.65619 219.30025 291.54174 220.97107 291.40625 222.6875 C 291.27394 224.31843 291.01233 225.9515 290.65625 227.6875 C 290.30466 229.4012 289.83773 231.15063 289.21875 232.875 C 288.62029 234.54197 287.80285 236.16863 286.8125 237.71875 C 286.11424 238.8097 285.33987 239.87534 284.40625 241.03125 C 283.52521 242.08004 282.52325 243.04442 281.375 243.9375 C 280.30597 244.75981 279.12985 245.46067 277.84375 246 C 276.65767 246.49737 275.4004 246.71875 273.96875 246.71875 C 272.6468 246.71874 271.40857 246.43485 270.125 245.8125 C 268.7995 245.10835 267.66893 244.31506 266.59375 243.28125 C 265.51329 242.20085 264.64443 241.08329 264 239.875 C 263.40648 238.68804 263.1875 237.73173 263.1875 236.90625 C 263.18745 235.57479 263.33346 233.59665 263.5625 231.03125 C 263.82334 228.5531 264.21663 225.68146 264.6875 222.5625 C 266.32851 219.39508 268.08983 216.47402 270.0625 213.84375 C 272.15539 211.06836 274.14089 208.68511 276.0625 206.71875 C 278.03772 204.69864 279.80797 203.22182 281.3125 202.21875 C 281.3331 202.21907 281.35439 202.21907 281.375 202.21875 C 282.91085 201.15221 284.01781 200.78125 284.03125 200.78125 z M 573.84375 230.6875 C 571.84643 230.72742 570.0724 230.86465 568.65625 231.125 L 566.4375 250.78125 C 566.42115 250.7948 566.43245 250.79361 566.40625 250.8125 C 566.18357 250.97304 565.7217 251.25792 565.0625 251.53125 C 563.76466 252.05037 562.01203 252.51815 559.84375 253 C 559.24004 253.13852 558.77832 253.63731 558.6875 254.25 L 558.375 256.53125 C 558.31334 256.96534 558.46097 257.42032 558.75 257.75 C 559.03907 258.07968 559.43658 258.25431 559.875 258.25 L 581.5625 258.25 C 582.31715 258.25743 582.95634 257.71594 583.0625 256.96875 L 583.375 254.6875 C 583.47819 253.90998 582.95432 253.16482 582.1875 253 C 579.96726 252.5218 578.33028 252.0234 577.375 251.53125 C 576.93876 251.29332 576.73507 251.08773 576.59375 250.96875 L 578.875 230.8125 C 577.08675 230.69588 575.39733 230.65644 573.84375 230.6875 z M 457.65625 232.46875 C 457.54593 232.47096 457.45262 232.49708 457.34375 232.5 C 457.3456 236.71508 457.87739 240.55042 459.03125 243.9375 C 460.20898 247.24993 461.81539 250.09361 463.78125 252.4375 C 465.77355 254.7681 468.09068 256.58687 470.71875 257.84375 C 473.33992 259.05937 476.11079 259.6875 478.96875 259.6875 C 480.75367 259.68749 482.57089 259.44947 484.40625 259 C 486.27507 258.58047 488.19409 257.90294 490.1875 256.90625 C 490.18753 256.89841 490.18756 256.88284 490.1875 256.875 C 492.19121 255.83601 494.26748 254.47999 496.40625 252.8125 C 498.58769 251.14003 500.84747 249.08999 503.28125 246.65625 C 503.79129 246.14837 503.86957 245.37907 503.46875 244.78125 C 503.46682 244.77836 503.45306 244.69309 503.4375 244.65625 L 502.25 244.53125 L 502.59375 243.125 C 502.55696 243.07121 502.53471 243.02193 502.5 242.96875 C 502.49514 242.96021 502.47373 242.94606 502.46875 242.9375 C 502.45387 242.9148 502.4212 242.86618 502.40625 242.84375 L 502.40625 242.90625 C 502.16223 242.50639 501.8167 242.03928 501.25 241.8125 C 500.74723 241.60611 500.2076 241.69419 499.78125 242.03125 C 495.89034 245.12313 492.60345 247.2511 490 248.4375 C 487.37287 249.61635 485.19205 250.18751 483.53125 250.1875 C 481.88984 250.18751 480.19125 249.80966 478.375 249.03125 C 476.63989 248.24257 475.0105 247.048 473.46875 245.375 C 471.99 243.70341 470.7559 241.58642 469.75 238.9375 C 469.13788 237.2489 468.72032 235.32859 468.5 233.1875 C 467.53546 233.04355 466.52068 232.92062 465.5 232.8125 C 462.6616 232.51182 460.01485 232.4216 457.65625 232.46875 z M 214.71875 234.84375 C 214.58046 235.66681 214.41094 236.61499 214.28125 237.40625 C 213.81641 240.19469 213.41986 242.59074 213.09375 244.6875 C 212.76278 246.8145 212.5937 248.3147 212.59375 249.40625 C 212.59365 252.15544 213.06968 254.49717 214.28125 256.375 C 215.48454 258.20875 217.33313 259.53125 219.40625 259.53125 C 221.86099 259.53124 224.5052 258.72282 227.5 257.25 C 230.27737 255.92957 233.8217 253.98414 237.90625 251.625 C 237.94816 251.60582 237.99077 251.58454 238.03125 251.5625 C 238.17513 251.47928 238.26065 251.45955 238.40625 251.375 C 238.49149 251.33959 238.54552 251.29694 238.625 251.25 C 238.64607 251.22985 238.66733 251.20857 238.6875 251.1875 C 238.70855 251.16733 238.72983 251.14608 238.75 251.125 C 238.77204 251.0845 238.79332 251.04193 238.8125 251 C 238.83356 250.97983 238.85483 250.95858 238.875 250.9375 C 238.89605 250.91733 238.91733 250.89608 238.9375 250.875 C 238.95855 250.85484 238.97983 250.83358 239 250.8125 C 239.02204 250.77201 239.04332 250.72944 239.0625 250.6875 C 239.08356 250.66733 239.10483 250.64608 239.125 250.625 C 239.24855 250.41539 239.33506 250.17755 239.375 249.9375 C 239.37529 249.91688 239.37531 249.89562 239.375 249.875 C 239.37626 249.83377 239.37627 249.79123 239.375 249.75 C 239.37529 249.72939 239.37531 249.70812 239.375 249.6875 C 239.37626 249.64626 239.37627 249.63498 239.375 249.59375 C 239.36263 249.4892 239.34131 249.38252 239.3125 249.28125 C 239.31279 249.26062 239.31281 249.23938 239.3125 249.21875 C 239.29231 249.19767 239.27108 249.17641 239.25 249.15625 L 239.25 249.03125 C 239.21458 248.94601 239.17194 248.86073 239.125 248.78125 L 238.59375 246.625 C 238.45335 246.08446 238.08848 245.63414 237.59375 245.375 C 237.09901 245.11584 236.49306 245.0576 235.96875 245.25 C 234.10997 245.97533 232.5308 246.49903 231.28125 246.84375 C 230.13828 247.12948 228.99836 247.28125 227.8125 247.28125 C 227.51096 247.28125 227.50992 247.24986 227.46875 247.1875 C 227.4929 247.14979 227.24997 246.52269 227.25 245.3125 C 227.2499 244.15523 227.35328 242.52015 227.625 240.4375 C 227.77315 239.44243 228.00922 238.24234 228.1875 237.15625 C 226.32815 236.48223 224.43505 235.85075 222.5 235.46875 C 219.75338 234.92651 217.1872 234.80189 214.71875 234.84375 z M 180.875 237.59375 C 180.70669 238.48709 180.54908 239.33815 180.375 240.25 C 180.37467 240.27064 180.37468 240.29188 180.375 240.3125 C 179.45083 245.39515 178.48437 250.25998 177.46875 254.96875 C 177.31829 255.64198 177.53507 256.33329 178.03125 256.8125 L 180.25 258.96875 C 180.87821 259.58141 181.82841 259.71054 182.59375 259.28125 C 183.154 258.97955 183.85899 258.65724 184.71875 258.25 L 184.71875 258.1875 C 185.62258 257.82475 186.55539 257.46733 187.5 257.0625 C 188.46005 256.65103 189.43186 256.23974 190.34375 255.875 C 190.36434 255.87531 190.38563 255.87531 190.40625 255.875 C 191.35137 255.44967 192.12936 255.0603 192.8125 254.71875 C 193.54025 254.36695 193.99274 253.58769 193.9375 252.78125 C 193.80398 250.60188 193.80079 248.08682 193.9375 245.125 C 194.02648 243.67853 194.14149 242.11932 194.34375 240.375 C 192.03387 239.47078 189.64178 238.6095 187.1875 238.125 C 184.98347 237.68989 182.8942 237.6132 180.875 237.59375 z M 515.0625 243.28125 L 513.96875 250.78125 C 513.96398 250.78729 513.9465 250.78692 513.875 250.84375 C 513.68437 250.99528 513.30444 251.26215 512.71875 251.53125 C 511.60785 252.02498 509.91956 252.51925 507.6875 253 C 507.07462 253.12998 506.5941 253.6306 506.5 254.25 L 506.21875 256.53125 C 506.15772 256.96127 506.27874 257.42119 506.5625 257.75 C 506.84627 258.07881 507.25318 258.24748 507.6875 258.25 L 527.1875 258.25 C 527.94219 258.25743 528.58134 257.71594 528.6875 256.96875 L 529 254.6875 C 529.10323 253.90998 528.57933 253.16482 527.8125 253 C 525.59695 252.5228 524.02502 251.98814 523.21875 251.53125 C 522.83788 251.30273 522.68367 251.14266 522.5625 251.03125 L 523.59375 244.0625 C 522.55847 243.90436 521.47638 243.74168 520.375 243.625 C 518.52764 243.42932 516.73306 243.32637 515.0625 243.28125 z "
       id="path2849" />
  </g>
</svg>
