<?xml version="1.0" encoding="UTF-8" standalone="no"?>
<!-- Created with Inkscape (http://www.inkscape.org/) -->
<svg
   xmlns:dc="http://purl.org/dc/elements/1.1/"
   xmlns:cc="http://creativecommons.org/ns#"
   xmlns:rdf="http://www.w3.org/1999/02/22-rdf-syntax-ns#"
   xmlns:svg="http://www.w3.org/2000/svg"
   xmlns="http://www.w3.org/2000/svg"
   xmlns:xlink="http://www.w3.org/1999/xlink"
   xmlns:sodipodi="http://sodipodi.sourceforge.net/DTD/sodipodi-0.dtd"
   xmlns:inkscape="http://www.inkscape.org/namespaces/inkscape"
   width="32"
   height="32"
   id="svg2"
   sodipodi:version="0.32"
   inkscape:version="0.46"
   version="1.0"
   sodipodi:docname="app-preferences-enviornment-medium.svg"
   inkscape:output_extension="org.inkscape.output.svg.inkscape"
   inkscape:export-filename="/home/lse/public_html/Chimera/System/Icons/tango/large/apps/preferences-enviornment.png"
   inkscape:export-xdpi="90"
   inkscape:export-ydpi="90">
  <defs
     id="defs4">
    <linearGradient
       inkscape:collect="always"
       id="linearGradient3366">
      <stop
         style="stop-color:#3465a4;stop-opacity:1;"
         offset="0"
         id="stop3368" />
      <stop
         style="stop-color:#3465a4;stop-opacity:1"
         offset="1"
         id="stop3370" />
    </linearGradient>
    <linearGradient
       inkscape:collect="always"
       id="linearGradient3334">
      <stop
         style="stop-color:#ffffff;stop-opacity:1;"
         offset="0"
         id="stop3336" />
      <stop
         style="stop-color:#ffffff;stop-opacity:0;"
         offset="1"
         id="stop3338" />
    </linearGradient>
    <linearGradient
       inkscape:collect="always"
       id="linearGradient2528">
      <stop
         style="stop-color:#ad7fa8;stop-opacity:1;"
         offset="0"
         id="stop2530" />
      <stop
         style="stop-color:#75507b;stop-opacity:1"
         offset="1"
         id="stop2532" />
    </linearGradient>
    <inkscape:perspective
       sodipodi:type="inkscape:persp3d"
       inkscape:vp_x="0 : 526.18109 : 1"
       inkscape:vp_y="0 : 1000 : 0"
       inkscape:vp_z="744.09448 : 526.18109 : 1"
       inkscape:persp3d-origin="372.04724 : 350.78739 : 1"
       id="perspective10" />
    <linearGradient
       inkscape:collect="always"
       xlink:href="#linearGradient2528"
       id="linearGradient2538"
       gradientUnits="userSpaceOnUse"
       gradientTransform="matrix(0.8335733,0,0,0.8335733,4.0222393,4.1945916)"
       x1="-0.062015504"
       y1="0.18604651"
       x2="3.7829456"
       y2="47.937984" />
    <linearGradient
       inkscape:collect="always"
       xlink:href="#linearGradient3334"
       id="linearGradient3340"
       x1="10.48062"
       y1="3"
       x2="28.961241"
       y2="28.83721"
       gradientUnits="userSpaceOnUse"
       gradientTransform="matrix(0.7195648,0,0,0.7195648,-1.2616933,-1.5360648)" />
    <linearGradient
       inkscape:collect="always"
       xlink:href="#linearGradient3366"
       id="linearGradient3372"
       x1="1.1162791"
       y1="0.24806204"
       x2="5.2093024"
       y2="47.881638"
       gradientUnits="userSpaceOnUse"
       gradientTransform="matrix(0.6630923,0,0,0.6630923,9.5230092e-2,8.7269092e-2)" />
  </defs>
  <sodipodi:namedview
     id="base"
     pagecolor="#ffffff"
     bordercolor="#666666"
     borderopacity="1.0"
     inkscape:pageopacity="0.0"
     inkscape:pageshadow="2"
     inkscape:zoom="22.804194"
     inkscape:cx="11.59524"
     inkscape:cy="16.973032"
     inkscape:document-units="px"
     inkscape:current-layer="layer1"
     showgrid="false"
     inkscape:window-width="1280"
     inkscape:window-height="955"
     inkscape:window-x="144"
     inkscape:window-y="28">
    <inkscape:grid
       type="xygrid"
       id="grid2383"
       visible="true"
       enabled="true" />
  </sodipodi:namedview>
  <metadata
     id="metadata7">
    <rdf:RDF>
      <cc:Work
         rdf:about="">
        <dc:format>image/svg+xml</dc:format>
        <dc:type
           rdf:resource="http://purl.org/dc/dcmitype/StillImage" />
      </cc:Work>
    </rdf:RDF>
  </metadata>
  <g
     inkscape:label="Ebene 1"
     inkscape:groupmode="layer"
     id="layer1">
    <path
       style="fill:url(#linearGradient3372);fill-opacity:1;fill-rule:nonzero;stroke:#204a87;stroke-width:0.99999994;stroke-linecap:butt;stroke-linejoin:miter;marker:none;stroke-miterlimit:4;stroke-dasharray:none;stroke-dashoffset:0;stroke-opacity:1;visibility:visible;display:inline;overflow:visible"
       d="M 13.040405,0.50314399 L 13.040405,0.53442568 L 13.009122,5.758877 C 12.29331,5.9719287 11.589929,6.2522156 10.944372,6.6035445 L 10.91309,6.6035445 L 7.2215678,2.943298 L 7.1902824,2.9120163 L 2.9356481,7.1666612 L 2.9669314,7.1979426 L 6.6271698,10.889453 C 6.2674072,11.545388 5.9689107,12.225741 5.751215,12.954213 L 0.58934146,12.985494 L 0.52677361,12.985494 L 0.52677361,18.992034 L 0.58934146,18.992034 L 5.751215,19.023316 C 5.9657533,19.748645 6.2400838,20.466259 6.5958851,21.119356 L 2.9669314,24.810869 L 2.9356481,24.842151 L 7.1902824,29.096793 L 7.2215678,29.065513 L 10.91309,25.436548 C 11.566182,25.792358 12.283795,26.06668 13.009122,26.28123 L 13.040405,31.443088 L 13.040405,31.505666 L 19.046949,31.505666 L 19.046949,31.443088 L 19.078233,26.28123 C 19.806707,26.063521 20.487056,25.765029 21.142983,25.405267 L 24.834503,29.065513 L 24.865787,29.096793 L 29.120424,24.842151 L 29.08914,24.810869 L 25.428902,21.119356 L 25.428902,21.088059 C 25.780223,20.442515 26.06052,19.739123 26.273572,19.023316 L 31.498014,18.992034 L 31.529297,18.992034 L 31.529297,12.985494 L 31.498014,12.985494 L 26.273572,12.954213 C 26.058858,12.24005 25.780887,11.565339 25.428902,10.920737 L 29.08914,7.1979426 L 29.120424,7.1666612 L 24.865787,2.9120163 L 24.834503,2.943298 L 21.1117,6.6035445 C 20.467099,6.2515543 19.792391,5.9735887 19.078233,5.758877 L 19.046949,0.53442568 L 19.046949,0.50314399 L 13.040405,0.50314399 z M 16.043677,11.108441 C 18.743396,11.108441 20.923995,13.320322 20.923995,16.020045 C 20.923995,18.719769 18.743396,20.900353 16.043677,20.900353 C 13.343961,20.900353 11.132076,18.719769 11.132076,16.020045 C 11.132076,15.851309 11.146503,15.683999 11.16336,15.519508 C 11.416253,13.051995 13.512695,11.108441 16.043677,11.108441 z"
       id="path3296" />
    <path
       style="opacity:0.63940519;fill:url(#linearGradient3340);fill-opacity:1;fill-rule:nonzero;stroke:none;stroke-width:0.99999994;stroke-linecap:butt;stroke-linejoin:miter;marker:none;stroke-miterlimit:4;stroke-dasharray:none;stroke-dashoffset:0;stroke-opacity:1;visibility:visible;display:inline;overflow:visible"
       d="M 13.441275,0.8450532 L 13.374164,6.0618983 C 12.658352,6.27495 11.460105,6.747384 10.814549,7.0987129 L 7.1264307,3.4295946 L 3.3895053,7.2107967 L 7.0326509,10.765042 C 6.6728886,11.420974 6.3287526,12.529073 6.1110569,13.257546 L 0.8499366,13.347143 L 0.84958795,18.5924 L 6.066433,18.611749 C 6.2585425,19.261247 6.7492154,20.15159 7.0506523,20.750898 C 8.8783734,20.367927 9.8154102,19.897472 11.35898,18.875359 C 10.715371,17.990613 10.759802,16.553096 10.597035,15.508626 C 10.849925,13.041113 12.906807,10.479644 16.007862,10.523495 C 17.346334,10.542694 19.032324,11.085155 19.913146,11.962579 C 22.253474,9.0709797 24.54094,7.6802058 28.408506,7.1673688 L 24.867504,3.4071082 L 21.156898,7.0987129 C 20.512296,6.7467223 19.445663,6.3212336 18.731506,6.1065221 L 18.597285,0.8450532 L 13.441275,0.8450532 z"
       id="path2541"
       sodipodi:nodetypes="cccccccccccccsccccccc" />
    <path
       style="opacity:0.55390332;fill:none;fill-opacity:1;fill-rule:nonzero;stroke:#ffffff;stroke-width:0.99999982;stroke-linecap:butt;stroke-linejoin:miter;marker:none;stroke-miterlimit:4;stroke-dasharray:none;stroke-dashoffset:0;stroke-opacity:1;visibility:visible;display:inline;overflow:visible"
       d="M 13.97761,1.3556572 L 13.86146,6.4617783 C 13.210561,6.6555095 11.366887,7.4012445 10.779872,7.7207137 L 7.1284683,4.1238781 L 4.1198373,7.2094977 L 7.6543175,10.608834 C 7.327181,11.205285 6.6995325,13.101581 6.5015782,13.763991 L 1.3631119,13.792436 L 1.3500695,18.099454 L 6.4569536,18.082501 C 6.652037,18.742053 7.5231393,20.685604 7.8466739,21.279473 L 4.3683143,24.817037 L 7.1892686,27.692573 L 10.619871,24.184987 C 11.213739,24.50853 13.376543,25.291148 14.036094,25.48624 L 14.065314,30.493138 L 18.0646,30.503873 L 18.048424,25.573943 C 18.710834,25.375977 20.794361,24.48445 21.390804,24.157313 L 24.838354,27.710298 L 27.71543,24.887017 L 24.227892,21.324869 C 24.227892,21.324869 25.312139,18.80552 25.439115,17.99557 L 30.545226,18.055602 L 30.529049,14.012466 L 25.57067,13.984021 C 25.375426,13.334621 24.457163,11.343156 24.137098,10.75701 L 27.688529,7.1494679 L 24.866801,4.14083 L 21.274655,7.7199419 C 20.688509,7.3998712 18.828599,6.7008698 18.179204,6.5056299 L 18.063828,1.3548847 L 13.97761,1.3556572 z M 15.911965,10.067609 C 18.812169,10.116192 21.692615,12.097867 21.914264,15.73587 C 22.08162,18.482721 19.984688,21.909399 16.140689,21.941959 C 12.595367,21.971651 10.141806,19.176495 10.141806,15.920741 C 10.215846,11.883893 13.409547,10.218792 15.911965,10.067609 z"
       id="path3342"
       sodipodi:nodetypes="ccccccccccccccccccccccccccccccccccsscc" />
  </g>
</svg>
