<?xml version="1.0" encoding="UTF-8" standalone="no"?>
<!-- Created with Inkscape (http://www.inkscape.org/) -->
<svg
   xmlns:dc="http://purl.org/dc/elements/1.1/"
   xmlns:cc="http://creativecommons.org/ns#"
   xmlns:rdf="http://www.w3.org/1999/02/22-rdf-syntax-ns#"
   xmlns:svg="http://www.w3.org/2000/svg"
   xmlns="http://www.w3.org/2000/svg"
   xmlns:xlink="http://www.w3.org/1999/xlink"
   xmlns:sodipodi="http://sodipodi.sourceforge.net/DTD/sodipodi-0.dtd"
   xmlns:inkscape="http://www.inkscape.org/namespaces/inkscape"
   width="48"
   height="48"
   id="svg5214"
   sodipodi:version="0.32"
   inkscape:version="0.46"
   version="1.0"
   inkscape:export-filename="/Users/lse/Sites/BambusONE/System/Icons/tango/large/apps/preferences-enviornment.png"
   inkscape:export-xdpi="90"
   inkscape:export-ydpi="90"
   sodipodi:docname="app-preferences-enviornment-large.svg"
   inkscape:output_extension="org.inkscape.output.svg.inkscape">
  <defs
     id="defs5216">
    <linearGradient
       inkscape:collect="always"
       id="linearGradient7479">
      <stop
         style="stop-color:#eeeeec;stop-opacity:1;"
         offset="0"
         id="stop7481" />
      <stop
         style="stop-color:#eeeeec;stop-opacity:0;"
         offset="1"
         id="stop7483" />
    </linearGradient>
    <linearGradient
       inkscape:collect="always"
       id="linearGradient7433">
      <stop
         style="stop-color:#ffffff;stop-opacity:1;"
         offset="0"
         id="stop7435" />
      <stop
         style="stop-color:#ffffff;stop-opacity:0;"
         offset="1"
         id="stop7437" />
    </linearGradient>
    <linearGradient
       inkscape:collect="always"
       id="linearGradient7425">
      <stop
         style="stop-color:#ffffff;stop-opacity:1;"
         offset="0"
         id="stop7427" />
      <stop
         style="stop-color:#ffffff;stop-opacity:0;"
         offset="1"
         id="stop7429" />
    </linearGradient>
    <inkscape:perspective
       sodipodi:type="inkscape:persp3d"
       inkscape:vp_x="0 : 24 : 1"
       inkscape:vp_y="0 : 1000 : 0"
       inkscape:vp_z="48 : 24 : 1"
       inkscape:persp3d-origin="24 : 16 : 1"
       id="perspective6220" />
    <linearGradient
       inkscape:collect="always"
       id="linearGradient5772">
      <stop
         style="stop-color:#ffffff;stop-opacity:1;"
         offset="0"
         id="stop5774" />
      <stop
         style="stop-color:#ffffff;stop-opacity:0;"
         offset="1"
         id="stop5776" />
    </linearGradient>
    <linearGradient
       inkscape:collect="always"
       xlink:href="#linearGradient5772"
       id="linearGradient5778"
       x1="17.023659"
       y1="7.6149831"
       x2="17.023659"
       y2="24.223293"
       gradientUnits="userSpaceOnUse" />
    <linearGradient
       inkscape:collect="always"
       xlink:href="#linearGradient7425"
       id="linearGradient7431"
       x1="34.021053"
       y1="0.61754388"
       x2="34.021053"
       y2="28.484144"
       gradientUnits="userSpaceOnUse" />
    <linearGradient
       inkscape:collect="always"
       xlink:href="#linearGradient7433"
       id="linearGradient7439"
       x1="14.147368"
       y1="19.25614"
       x2="14.147368"
       y2="47.893448"
       gradientUnits="userSpaceOnUse" />
    <linearGradient
       inkscape:collect="always"
       xlink:href="#linearGradient7479"
       id="linearGradient7485"
       x1="34.902359"
       y1="7.1070228"
       x2="34.902359"
       y2="23.633726"
       gradientUnits="userSpaceOnUse" />
    <linearGradient
       inkscape:collect="always"
       xlink:href="#linearGradient7479"
       id="linearGradient7489"
       gradientUnits="userSpaceOnUse"
       x1="34.902359"
       y1="7.1070228"
       x2="34.902359"
       y2="23.590277" />
  </defs>
  <sodipodi:namedview
     id="base"
     pagecolor="#ffffff"
     bordercolor="#666666"
     borderopacity="1.0"
     gridtolerance="10000"
     guidetolerance="10"
     objecttolerance="10"
     inkscape:pageopacity="0.0"
     inkscape:pageshadow="2"
     inkscape:zoom="8.90625"
     inkscape:cx="14.680702"
     inkscape:cy="19.568448"
     inkscape:document-units="px"
     inkscape:current-layer="layer1"
     showgrid="true"
     inkscape:snap-bbox="true"
     inkscape:snap-nodes="false"
     inkscape:window-width="1374"
     inkscape:window-height="1019"
     inkscape:window-x="281"
     inkscape:window-y="22">
    <inkscape:grid
       type="xygrid"
       id="grid5224"
       visible="true"
       enabled="true" />
  </sodipodi:namedview>
  <metadata
     id="metadata5219">
    <rdf:RDF>
      <cc:Work
         rdf:about="">
        <dc:format>image/svg+xml</dc:format>
        <dc:type
           rdf:resource="http://purl.org/dc/dcmitype/StillImage" />
      </cc:Work>
    </rdf:RDF>
  </metadata>
  <g
     inkscape:label="Layer 1"
     inkscape:groupmode="layer"
     id="layer1">
    <path
       style="fill:#555753;fill-opacity:1;stroke:#2e3436;stroke-width:0.99999994000000003;stroke-linejoin:miter;stroke-miterlimit:12.19999980999999956;stroke-dashoffset:0;stroke-opacity:1"
       d="M 19.88763,20.665681 C 18.89433,21.507997 17.907366,22.333629 16.914064,23.175948 C 16.020936,23.080382 15.108917,22.9791 14.215788,22.883538 C 13.42283,21.850093 12.631162,20.836038 11.838204,19.80259 C 11.332534,19.927416 10.832118,20.053625 10.326447,20.178451 C 10.108065,21.461542 9.8988996,22.728022 9.6805182,24.011113 C 8.9351152,24.511144 8.214527,25.013679 7.4691224,25.513713 C 6.196699,25.230683 4.9192779,24.955135 3.6468543,24.672107 C 3.3400024,25.092341 3.0158804,25.503647 2.7090289,25.92388 C 3.3677498,27.047376 4.0423313,28.159672 4.7010522,29.283168 C 4.4521587,30.144827 4.1893339,31.023263 3.9404404,31.88492 C 2.783932,32.484742 1.6432477,33.09806 0.4867401,33.697883 C 0.5222865,34.216896 0.52643848,34.6963 0.56198504,35.215313 C 1.7895859,35.653514 3.04651,36.132221 4.2741124,36.570419 C 4.6381879,37.390527 4.9961464,38.180115 5.3602227,39.000219 C 4.8607732,40.202227 4.3368909,41.407633 3.8374412,42.609642 C 4.1987526,42.98458 4.5666488,43.371077 4.9279617,43.746016 C 6.150034,43.293883 7.3643042,42.847331 8.5863779,42.3952 C 9.3930682,42.790014 10.209292,43.155336 11.015983,43.550147 C 11.407287,44.791909 11.797186,46.059887 12.188495,47.301651 C 12.706508,47.357074 13.20831,47.426284 13.726327,47.481712 C 14.371048,46.350803 15.044303,45.189978 15.689026,44.059072 C 16.560871,43.84386 17.406742,43.636447 18.278589,43.42123 C 19.377555,44.121714 20.500998,44.850585 21.599967,45.551061 C 22.032298,45.261044 22.44341,44.943539 22.875742,44.653523 C 22.641444,43.373004 22.416886,42.082804 22.182586,40.802287 C 22.711641,40.077746 23.265701,39.389436 23.794754,38.664895 C 25.08716,38.496331 26.357304,38.290843 27.649711,38.12228 C 27.794071,37.62252 27.971997,37.123946 28.116354,36.624187 C 27.112661,35.793225 26.062149,34.959162 25.058461,34.128201 C 24.997171,33.233353 24.961086,32.334244 24.899797,31.439396 C 25.780916,30.48066 26.654296,29.533628 27.535413,28.574896 C 27.324248,28.099237 27.101165,27.604583 26.889999,27.128924 C 25.586558,27.136334 24.298269,27.153605 22.994823,27.161015 C 22.37187,26.514571 21.72928,25.87481 21.106326,25.228363 C 21.163866,23.928063 21.21237,22.645408 21.269916,21.345104 C 20.802033,21.116113 20.355511,20.894671 19.88763,20.665681 z M 15.887896,29.828408 C 17.950635,30.470716 19.094039,32.648001 18.451646,34.710322 C 17.809251,36.772646 15.617425,37.961182 13.554687,37.31887 C 11.491948,36.676562 10.317278,34.439742 10.959672,32.37742 C 11.602066,30.315097 13.825157,29.186097 15.887896,29.828408 z"
       id="path5964" />
    <path
       style="fill:#555753;fill-opacity:1;stroke:#2e3436;stroke-width:1;stroke-linejoin:miter;stroke-miterlimit:12.19999980999999956;stroke-dashoffset:0;stroke-opacity:1"
       d="M 39.687021,2.5711114 C 38.672256,3.38744 37.664256,4.1872542 36.649489,5.0035857 C 35.759132,4.8849376 34.850039,4.7600886 33.959682,4.6414446 C 33.193735,3.587825 32.428575,2.5536227 31.662627,1.5 C 31.153896,1.6116975 30.650382,1.724914 30.14165,1.8366115 C 29.890135,3.1136213 29.648265,4.3742644 29.396752,5.6512752 C 28.638658,6.1318467 27.905305,6.6155661 27.14721,7.0961425 C 25.882537,6.7802788 24.612675,6.4717644 23.348002,6.1559018 C 23.030378,6.5680547 22.69572,6.9708347 22.378097,7.3829856 C 23.007522,8.5231521 23.653092,9.6525342 24.282517,10.792701 C 24.011408,11.647629 23.725939,12.51897 23.45483,13.373898 C 22.283186,13.943589 21.127012,14.527182 19.955369,15.096875 C 19.977472,15.616634 19.969216,16.095985 19.991319,16.615744 C 21.207169,17.085567 22.451283,17.596642 23.667134,18.066463 C 24.009865,18.895718 24.347269,19.694304 24.69,20.523556 C 24.159612,21.712236 23.60471,22.903682 23.074321,24.092362 C 23.425808,24.476526 23.783579,24.872414 24.135068,25.256577 C 25.368432,24.836221 26.593852,24.421243 27.827216,24.00089 C 28.62342,24.416448 29.429916,24.802771 30.226119,25.218325 C 30.585157,26.469798 30.942112,27.747442 31.301153,28.998916 C 31.817559,29.067727 32.317402,29.149899 32.83381,29.218715 C 33.507582,28.10487 34.210653,26.961857 34.884427,25.848014 C 35.761549,25.655436 36.612505,25.469983 37.48963,25.277401 C 38.5701,26.00609 39.674304,26.76379 40.754777,27.492473 C 41.194468,27.21374 41.61366,26.906981 42.053353,26.62825 C 41.852271,25.342097 41.661178,24.046518 41.460095,22.760365 C 42.007723,22.049759 42.579409,21.376018 43.127036,20.665411 C 44.423371,20.530349 45.698408,20.3578 46.994745,20.22274 C 47.15199,19.726883 47.342758,19.23308 47.5,18.737225 C 46.518148,17.880567 45.489573,17.019597 44.507724,16.16294 C 44.469613,15.266804 44.456808,14.367063 44.418697,13.470929 C 45.324333,12.535317 46.221928,11.611203 47.127561,10.675594 C 46.928776,10.19463 46.718569,9.6943695 46.519784,9.2134041 C 45.216587,9.1870797 43.928282,9.1710056 42.625081,9.1446809 C 42.019067,8.4823321 41.393247,7.8261569 40.787232,7.163805 C 40.878404,5.8654292 40.960085,4.5844588 41.051262,3.2860793 C 40.589462,3.0450571 40.14882,2.8121337 39.687021,2.5711114 z M 35.451505,11.627262 C 37.49693,12.322736 38.583607,14.528882 37.888057,16.573888 C 37.192507,18.618896 34.970657,19.750312 32.925232,19.054835 C 30.879806,18.35936 29.763416,16.09289 30.458966,14.047884 C 31.154515,12.002875 33.406079,10.931784 35.451505,11.627262 z"
       id="path6790" />
    <path
       style="fill:url(#linearGradient7439);fill-opacity:1;stroke:#888a85;stroke-width:0.99999981999999998;stroke-linejoin:miter;stroke-miterlimit:12.19999980999999956;stroke-dashoffset:0;stroke-opacity:1;opacity:0.51243781"
       d="M 20.008986,21.780027 L 17.227942,24.095956 L 13.614983,23.726517 L 11.434525,20.812598 L 11.152173,20.895231 L 10.566896,24.492203 L 7.6238523,26.474943 L 4.1087814,25.620969 L 3.8742351,25.940899 L 5.7538696,29.079605 L 4.6983904,32.467987 L 1.4999999,34.111253 L 1.5175051,34.484903 L 5.0211688,35.699111 L 6.4902756,38.928687 L 4.9599662,42.335145 L 5.1351083,42.561088 L 8.5583015,41.218623 L 11.858798,42.752936 L 12.923852,46.185151 L 13.235743,46.256615 L 14.896573,43.11862 L 18.537838,42.23768 L 21.526174,44.311813 L 21.758285,44.157796 L 21.103127,40.406236 L 23.288014,37.643407 L 26.879438,37.077255 L 27.002977,36.697948 L 24.059107,34.558651 L 23.801908,31.038525 L 26.502055,28.123388 L 26.413313,27.956267 L 22.539778,28.115436 L 20.054031,25.448598 L 20.208231,21.884671 L 20.008986,21.780027 z M 16.080834,28.773543 C 18.653513,29.649176 20.242777,32.185346 19.338506,35.019107 C 18.573158,37.417525 15.878253,38.953673 13.241682,38.177998 C 11.049813,37.533154 9.0913189,35.196934 10.00219,31.902908 C 10.647967,29.56755 13.487676,28.000978 16.080834,28.773543 z"
       id="path7411"
       sodipodi:nodetypes="ccccccccccccccccccccccccccccccccccccccsssc" />
    <path
       style="fill:url(#linearGradient7431);fill-opacity:1;stroke:#888a85;stroke-width:0.99999987999999995;stroke-linejoin:miter;stroke-miterlimit:12.19999980999999956;stroke-dashoffset:0;stroke-opacity:1;opacity:0.50248756"
       d="M 39.777073,3.6890022 L 36.937026,5.9321852 L 33.334838,5.4693713 L 31.230519,2.4999999 L 30.946123,2.5752981 L 30.267957,6.1559187 L 27.274587,8.0618315 L 23.782794,7.1171774 L 23.540046,7.4309301 L 25.337825,10.617228 L 24.195012,13.977161 L 20.955166,15.537106 L 20.962996,15.911084 L 24.434064,17.215556 L 25.8191,20.48207 L 24.201148,23.847783 L 24.370384,24.078184 L 27.827173,22.824757 L 31.086858,24.44397 L 32.062732,27.902597 L 32.37267,27.982109 L 34.114151,24.888146 L 37.776995,24.101733 L 40.710654,26.252507 L 40.946673,26.104548 L 40.388821,22.337289 L 42.644475,19.631928 L 46.249347,19.158907 L 46.382662,18.782925 L 43.495141,16.56816 L 43.329125,13.042556 L 46.103808,10.198273 L 46.01942,10.028912 L 42.143064,10.087784 L 39.727164,7.3575109 L 39.973542,3.7987673 L 39.777073,3.6890022 z M 35.669252,10.578519 C 38.218409,11.520438 39.741507,14.096887 38.764204,16.906298 C 37.937043,19.284106 35.203287,20.749998 32.587673,19.906351 C 30.413225,19.205 28.515847,16.818879 29.511658,13.549528 C 30.217656,11.231664 33.096955,9.7391051 35.669252,10.578519 z"
       id="path7413"
       sodipodi:nodetypes="ccccccccccccccccccccccccccccccccccccccsssc" />
    <g
       id="g7405"
       transform="translate(-3.1231389e-2,-9.333596e-2)"
       style="stroke:#888a85">
      <path
         sodipodi:nodetypes="ccccccccccccccccccccccccccccccccccccccsssc"
         id="path5973"
         d="M 20.040217,21.873363 L 17.259173,24.189292 L 13.646214,23.819853 L 11.465756,20.905934 L 11.183404,20.988567 L 10.598127,24.585539 L 7.6550837,26.568279 L 4.1400128,25.714305 L 3.9054665,26.034235 L 5.785101,29.172941 L 4.7296218,32.561323 L 1.5312313,34.204589 L 1.5487365,34.578239 L 5.0524002,35.792447 L 6.521507,39.022023 L 4.9911976,42.428481 L 5.1663397,42.654424 L 8.5895329,41.311959 L 11.890029,42.846272 L 12.955083,46.278487 L 13.266974,46.349951 L 14.927804,43.211956 L 18.569069,42.331016 L 21.557405,44.405149 L 21.789516,44.251132 L 21.134358,40.499572 L 23.319245,37.736743 L 26.910669,37.170591 L 27.034208,36.791284 L 24.090338,34.651987 L 23.833139,31.131861 L 26.533286,28.216724 L 26.444544,28.049603 L 22.571009,28.208772 L 20.085262,25.541934 L 20.239462,21.978007 L 20.040217,21.873363 z M 16.112065,28.866879 C 18.684744,29.742512 20.274008,32.278682 19.369737,35.112443 C 18.604389,37.510861 15.909484,39.047009 13.272913,38.271334 C 11.081044,37.62649 9.1225503,35.29027 10.033421,31.996244 C 10.679198,29.660886 13.518907,28.094314 16.112065,28.866879 z"
         style="fill:none;fill-opacity:1;stroke:#888a85;stroke-width:0.99999981999999998;stroke-linejoin:miter;stroke-miterlimit:12.19999980999999956;stroke-dashoffset:0;stroke-opacity:1" />
      <path
         sodipodi:nodetypes="ccccccccccccccccccccccccccccccccccccccsssc"
         id="path6792"
         d="M 39.808304,3.7823382 L 36.968257,6.0255212 L 33.366069,5.5627073 L 31.26175,2.5933359 L 30.977354,2.6686341 L 30.299188,6.2492547 L 27.305818,8.1551675 L 23.814025,7.2105134 L 23.571277,7.5242661 L 25.369056,10.710564 L 24.226243,14.070497 L 20.986397,15.630442 L 20.994227,16.00442 L 24.465295,17.308892 L 25.850331,20.575406 L 24.232379,23.941119 L 24.401615,24.17152 L 27.858404,22.918093 L 31.118089,24.537306 L 32.093963,27.995933 L 32.403901,28.075445 L 34.145382,24.981482 L 37.808226,24.195069 L 40.741885,26.345843 L 40.977904,26.197884 L 40.420052,22.430625 L 42.675706,19.725264 L 46.280578,19.252243 L 46.413893,18.876261 L 43.526372,16.661496 L 43.360356,13.135892 L 46.135039,10.291609 L 46.050651,10.122248 L 42.174295,10.18112 L 39.758395,7.4508469 L 40.004773,3.8921033 L 39.808304,3.7823382 z M 35.700483,10.671855 C 38.24964,11.613774 39.772738,14.190223 38.795435,16.999634 C 37.968274,19.377442 35.234518,20.843334 32.618904,19.999687 C 30.444456,19.298336 28.547078,16.912215 29.542889,13.642864 C 30.248887,11.325 33.128186,9.8324411 35.700483,10.671855 z"
         style="fill:none;fill-opacity:1;stroke:#888a85;stroke-width:0.99999987999999995;stroke-linejoin:miter;stroke-miterlimit:12.19999980999999956;stroke-dashoffset:0;stroke-opacity:1" />
    </g>
    <path
       style="opacity:1;fill:none;fill-opacity:1;stroke:#888a85;stroke-width:0.99999987999999995;stroke-linejoin:miter;stroke-miterlimit:12.19999980999999956;stroke-dashoffset:0;stroke-opacity:1"
       d="M 39.894411,3.6890029 L 37.054364,5.9321859 L 33.452176,5.4693719 L 31.347857,2.4999999 L 31.063461,2.5752989 L 30.385295,6.1559189 L 27.391925,8.0618319 L 23.900132,7.1171779 L 23.657384,7.4309309 L 25.455163,10.617229 L 24.31235,13.977162 L 21.072504,15.537107 L 21.080334,15.911085 L 24.551402,17.215557 L 25.936438,20.482071 L 24.318486,23.847784 L 24.487722,24.078185 L 27.944511,22.824758 L 31.204196,24.443971 L 32.18007,27.902598 L 32.490008,27.98211 L 34.231489,24.888147 L 37.894333,24.101734 L 40.827992,26.252508 L 41.064011,26.104549 L 40.506159,22.33729 L 42.761813,19.631929 L 46.366685,19.158908 L 46.5,18.782926 L 43.612479,16.568161 L 43.446463,13.042557 L 46.221146,10.198274 L 46.136758,10.028913 L 42.260402,10.087785 L 39.844502,7.3575109 L 40.09088,3.7987679 L 39.894411,3.6890029 z M 35.78659,10.57852 C 38.335747,11.520439 39.858845,14.096888 38.881542,16.906299 C 38.054381,19.284107 35.320625,20.749999 32.705011,19.906352 C 30.530563,19.205001 28.633185,16.81888 29.628996,13.549529 C 30.334994,11.231665 33.214293,9.7391059 35.78659,10.57852 z"
       id="path7447"
       sodipodi:nodetypes="ccccccccccccccccccccccccccccccccccccccsssc" />
    <g
       id="g7449"
       transform="translate(8.610626e-2,-9.333546e-2)"
       style="stroke:#eeeeec;fill:none;opacity:0.12437811">
      <path
         sodipodi:nodetypes="ccccccccccccccccccccccccccccccccccccccsssc"
         id="path7451"
         d="M 20.040217,21.873363 L 17.259173,24.189292 L 13.646214,23.819853 L 11.465756,20.905934 L 11.183404,20.988567 L 10.598127,24.585539 L 7.6550837,26.568279 L 4.1400128,25.714305 L 3.9054665,26.034235 L 5.785101,29.172941 L 4.7296218,32.561323 L 1.5312313,34.204589 L 1.5487365,34.578239 L 5.0524002,35.792447 L 6.521507,39.022023 L 4.9911976,42.428481 L 5.1663397,42.654424 L 8.5895329,41.311959 L 11.890029,42.846272 L 12.955083,46.278487 L 13.266974,46.349951 L 14.927804,43.211956 L 18.569069,42.331016 L 21.557405,44.405149 L 21.789516,44.251132 L 21.134358,40.499572 L 23.319245,37.736743 L 26.910669,37.170591 L 27.034208,36.791284 L 24.090338,34.651987 L 23.833139,31.131861 L 26.533286,28.216724 L 26.444544,28.049603 L 22.571009,28.208772 L 20.085262,25.541934 L 20.239462,21.978007 L 20.040217,21.873363 z M 16.112065,28.866879 C 18.684744,29.742512 20.274008,32.278682 19.369737,35.112443 C 18.604389,37.510861 15.909484,39.047009 13.272913,38.271334 C 11.081044,37.62649 9.1225503,35.29027 10.033421,31.996244 C 10.679198,29.660886 13.518907,28.094314 16.112065,28.866879 z"
         style="fill:none;fill-opacity:1;stroke:#eeeeec;stroke-width:0.99999981999999998;stroke-linejoin:miter;stroke-miterlimit:12.19999980999999956;stroke-dashoffset:0;stroke-opacity:1" />
      <path
         sodipodi:nodetypes="ccccccccccccccccccccccccccccccccccccccsssc"
         id="path7453"
         d="M 39.808304,3.7823382 L 36.968257,6.0255212 L 33.366069,5.5627073 L 31.26175,2.5933359 L 30.977354,2.6686341 L 30.299188,6.2492547 L 27.305818,8.1551675 L 23.814025,7.2105134 L 23.571277,7.5242661 L 25.369056,10.710564 L 24.226243,14.070497 L 20.986397,15.630442 L 20.994227,16.00442 L 24.465295,17.308892 L 25.850331,20.575406 L 24.232379,23.941119 L 24.401615,24.17152 L 27.858404,22.918093 L 31.118089,24.537306 L 32.093963,27.995933 L 32.403901,28.075445 L 34.145382,24.981482 L 37.808226,24.195069 L 40.741885,26.345843 L 40.977904,26.197884 L 40.420052,22.430625 L 42.675706,19.725264 L 46.280578,19.252243 L 46.413893,18.876261 L 43.526372,16.661496 L 43.360356,13.135892 L 46.135039,10.291609 L 46.050651,10.122248 L 42.174295,10.18112 L 39.758395,7.4508469 L 40.004773,3.8921033 L 39.808304,3.7823382 z M 35.700483,10.671855 C 38.24964,11.613774 39.772738,14.190223 38.795435,16.999634 C 37.968274,19.377442 35.234518,20.843334 32.618904,19.999687 C 30.444456,19.298336 28.547078,16.912215 29.542889,13.642864 C 30.248887,11.325 33.128186,9.8324411 35.700483,10.671855 z"
         style="fill:none;fill-opacity:1;stroke:#eeeeec;stroke-width:0.99999987999999995;stroke-linejoin:miter;stroke-miterlimit:12.19999980999999956;stroke-dashoffset:0;stroke-opacity:1" />
    </g>
    <path
       sodipodi:type="arc"
       style="opacity:0.82587065000000004;fill:none;fill-opacity:1;stroke:url(#linearGradient7485);stroke-width:2.01829290000000006;stroke-linejoin:miter;stroke-miterlimit:12.19999980999999956;stroke-dasharray:none;stroke-dashoffset:0;stroke-opacity:1"
       id="path7461"
       sodipodi:cx="34.021053"
       sodipodi:cy="15.326316"
       sodipodi:rx="7.2982454"
       sodipodi:ry="7.2982454"
       d="M 41.319299,15.326316 A 7.2982454,7.2982454 0 1 1 26.722808,15.326316 A 7.2982454,7.2982454 0 1 1 41.319299,15.326316 z"
       transform="matrix(0.9909364,0,0,0.9909364,0.5193969,4.4692722e-2)" />
    <path
       sodipodi:type="arc"
       style="opacity:0.82587065000000004;fill:none;fill-opacity:1;stroke:url(#linearGradient7489);stroke-width:1.90007364999999995;stroke-linejoin:miter;stroke-miterlimit:12.19999980999999956;stroke-dasharray:none;stroke-dashoffset:0;stroke-opacity:1"
       id="path7487"
       sodipodi:cx="34.021053"
       sodipodi:cy="15.326316"
       sodipodi:rx="7.2982454"
       sodipodi:ry="7.2982454"
       d="M 41.319299,15.326316 A 7.2982454,7.2982454 0 1 1 26.722808,15.326316 A 7.2982454,7.2982454 0 1 1 41.319299,15.326316 z"
       transform="matrix(1.0525908,0,0,1.0525908,-21.128182,17.549727)" />
  </g>
</svg>
