<?xml version="1.0" encoding="UTF-8" standalone="no"?>
<!-- Created with Inkscape (http://www.inkscape.org/) -->
<svg
   xmlns:dc="http://purl.org/dc/elements/1.1/"
   xmlns:cc="http://creativecommons.org/ns#"
   xmlns:rdf="http://www.w3.org/1999/02/22-rdf-syntax-ns#"
   xmlns:svg="http://www.w3.org/2000/svg"
   xmlns="http://www.w3.org/2000/svg"
   xmlns:xlink="http://www.w3.org/1999/xlink"
   xmlns:sodipodi="http://sodipodi.sourceforge.net/DTD/sodipodi-0.dtd"
   xmlns:inkscape="http://www.inkscape.org/namespaces/inkscape"
   width="32"
   height="32"
   id="svg3861"
   sodipodi:version="0.32"
   inkscape:version="0.46"
   version="1.0"
   sodipodi:docname="app-preferences-design-medium.svg"
   inkscape:output_extension="org.inkscape.output.svg.inkscape"
   inkscape:export-filename="/Users/lse/Sites/BambusONE/System/Icons/tango/medium/apps/preferences-design.png"
   inkscape:export-xdpi="90"
   inkscape:export-ydpi="90">
  <defs
     id="defs3863">
    <linearGradient
       inkscape:collect="always"
       id="linearGradient2420">
      <stop
         style="stop-color:#f57900;stop-opacity:1"
         offset="0"
         id="stop2422" />
      <stop
         style="stop-color:#ce5c00;stop-opacity:1"
         offset="1"
         id="stop2424" />
    </linearGradient>
    <linearGradient
       inkscape:collect="always"
       id="linearGradient4593">
      <stop
         style="stop-color:#eeeeec;stop-opacity:1"
         offset="0"
         id="stop4595" />
      <stop
         style="stop-color:#d3d7cf;stop-opacity:1"
         offset="1"
         id="stop4597" />
    </linearGradient>
    <linearGradient
       inkscape:collect="always"
       id="linearGradient4585">
      <stop
         style="stop-color:#2e3436;stop-opacity:1;"
         offset="0"
         id="stop4587" />
      <stop
         style="stop-color:#2e3436;stop-opacity:0;"
         offset="1"
         id="stop4589" />
    </linearGradient>
    <linearGradient
       inkscape:collect="always"
       id="linearGradient4567">
      <stop
         style="stop-color:#ffffff;stop-opacity:1"
         offset="0"
         id="stop4569" />
      <stop
         style="stop-color:#ffffff;stop-opacity:0.42264152"
         offset="1"
         id="stop4571" />
    </linearGradient>
    <linearGradient
       inkscape:collect="always"
       id="linearGradient4545">
      <stop
         style="stop-color:#2e3436;stop-opacity:1;"
         offset="0"
         id="stop4547" />
      <stop
         style="stop-color:#eeeeec;stop-opacity:1"
         offset="1"
         id="stop4549" />
    </linearGradient>
    <inkscape:perspective
       sodipodi:type="inkscape:persp3d"
       inkscape:vp_x="0 : 8 : 1"
       inkscape:vp_y="0 : 1000 : 0"
       inkscape:vp_z="16 : 8 : 1"
       inkscape:persp3d-origin="8 : 5.3333333 : 1"
       id="perspective3869" />
    <radialGradient
       inkscape:collect="always"
       xlink:href="#linearGradient4545"
       id="radialGradient4551"
       cx="18.297806"
       cy="15.179551"
       fx="18.297806"
       fy="15.179551"
       r="8.8994055"
       gradientTransform="matrix(1.1867546,3.0216829e-2,-3.5357678e-2,0.5315869,-3.361969,8.3700958)"
       gradientUnits="userSpaceOnUse" />
    <linearGradient
       inkscape:collect="always"
       xlink:href="#linearGradient4567"
       id="linearGradient4573"
       x1="17.33474"
       y1="29.125242"
       x2="30.292931"
       y2="29.239799"
       gradientUnits="userSpaceOnUse"
       gradientTransform="matrix(0.726639,0,0,0.7307424,-1.6701385,-2.4626494)" />
    <linearGradient
       inkscape:collect="always"
       xlink:href="#linearGradient4585"
       id="linearGradient4591"
       x1="34.624031"
       y1="29.39535"
       x2="21.457365"
       y2="29.147287"
       gradientUnits="userSpaceOnUse"
       gradientTransform="matrix(1,0,0,1.0056609,-8.6201549,-15.134391)" />
    <linearGradient
       inkscape:collect="always"
       xlink:href="#linearGradient4593"
       id="linearGradient4599"
       x1="15.813953"
       y1="23.193798"
       x2="17.736435"
       y2="46.077518"
       gradientUnits="userSpaceOnUse"
       gradientTransform="matrix(0.726639,0,0,0.7307424,-1.6701385,-2.4626494)" />
    <linearGradient
       inkscape:collect="always"
       xlink:href="#linearGradient2420"
       id="linearGradient2426"
       x1="18.417665"
       y1="26.688131"
       x2="24.951551"
       y2="38.922722"
       gradientUnits="userSpaceOnUse"
       gradientTransform="matrix(0.726639,0,0,0.7307424,-1.2645728,-3.1018716)" />
    <filter
       inkscape:collect="always"
       id="filter3226"
       x="-0.10955527"
       width="1.2191105"
       y="-0.04715753"
       height="1.0943151">
      <feGaussianBlur
         inkscape:collect="always"
         stdDeviation="0.43294852"
         id="feGaussianBlur3228" />
    </filter>
  </defs>
  <sodipodi:namedview
     id="base"
     pagecolor="#ffffff"
     bordercolor="#666666"
     borderopacity="1.0"
     inkscape:pageopacity="0.0"
     inkscape:pageshadow="2"
     inkscape:zoom="32.25"
     inkscape:cx="24"
     inkscape:cy="9.5921915"
     inkscape:current-layer="layer1"
     showgrid="true"
     inkscape:grid-bbox="true"
     inkscape:document-units="px"
     showguides="true"
     inkscape:guide-bbox="true"
     inkscape:window-width="1280"
     inkscape:window-height="955"
     inkscape:window-x="139"
     inkscape:window-y="22">
    <inkscape:grid
       type="xygrid"
       id="grid3871"
       visible="true"
       enabled="true" />
  </sodipodi:namedview>
  <metadata
     id="metadata3866">
    <rdf:RDF>
      <cc:Work
         rdf:about="">
        <dc:format>image/svg+xml</dc:format>
        <dc:type
           rdf:resource="http://purl.org/dc/dcmitype/StillImage" />
      </cc:Work>
    </rdf:RDF>
  </metadata>
  <g
     id="layer1"
     inkscape:label="Layer 1"
     inkscape:groupmode="layer">
    <path
       sodipodi:nodetypes="cssscc"
       id="path4543"
       d="M 9.5309664,15.290719 L 9.5619742,29.433498 C 9.5619742,29.433498 14.206635,30.594762 16.616935,30.764691 C 19.467714,30.965674 23.539458,29.148167 23.539458,29.148167 L 23.446435,15.259711 L 9.5309664,15.290719 z"
       style="opacity:1;fill:#2e3436;fill-opacity:1;fill-rule:evenodd;stroke:#babdb6;stroke-width:0.99999994;stroke-linecap:square;stroke-linejoin:miter;marker:none;marker-start:none;marker-mid:none;marker-end:none;stroke-miterlimit:29.89999962;stroke-dasharray:none;stroke-dashoffset:0;stroke-opacity:1;visibility:visible;display:inline;overflow:visible;enable-background:accumulate" />
    <path
       style="opacity:1;fill:url(#linearGradient4599);fill-opacity:1;fill-rule:evenodd;stroke:#555753;stroke-width:0.99999994;stroke-linecap:square;stroke-linejoin:miter;marker:none;marker-start:none;marker-mid:none;marker-end:none;stroke-miterlimit:29.89999962;stroke-dasharray:none;stroke-dashoffset:0;stroke-opacity:1;visibility:visible;display:inline;overflow:visible;enable-background:accumulate"
       d="M 9.4689509,15.352735 L 9.4999586,30.022645 C 9.4999586,30.022645 11.715638,31.579728 16.554919,31.539885 C 21.752475,31.496743 23.477443,29.768322 23.477443,29.768322 L 23.477443,15.197696 L 9.4689509,15.352735 z"
       id="rect4031"
       sodipodi:nodetypes="cssscc" />
    <path
       style="opacity:1;fill:url(#linearGradient2426);fill-opacity:1;fill-rule:evenodd;stroke:none;stroke-width:1;stroke-linecap:square;stroke-linejoin:miter;marker:none;marker-start:none;marker-mid:none;marker-end:none;stroke-miterlimit:29.89999962;stroke-dashoffset:0;stroke-opacity:1;visibility:visible;display:inline;overflow:visible;enable-background:accumulate"
       d="M 16.538435,15.804317 C 15.738596,15.795258 15.209583,15.810063 14.410655,15.849653 C 13.665943,15.835567 12.695896,15.592675 11.951175,15.57773 C 11.775192,16.280862 12.049079,16.986555 12.019297,17.694591 C 12.069074,18.647874 12.107372,19.601642 12.132835,20.555913 C 12.263918,22.345744 12.407542,24.134556 12.564277,25.922302 C 12.618413,26.330473 12.674586,26.936495 13.177378,27.018415 C 13.560771,27.007166 13.624612,26.447121 13.42716,26.19633 C 13.186059,25.515592 13.072696,24.795101 13.109256,24.07261 C 13.136758,23.271867 13.157553,22.469503 13.268208,21.674862 C 13.327478,21.020134 13.627768,20.311809 14.244629,20.007856 C 14.797843,20.34325 15.290044,21.027402 16.015812,20.852777 C 16.42047,20.848597 16.533539,21.325232 16.492669,21.652026 C 16.657163,22.350421 16.512574,23.07069 16.265594,23.730075 C 16.180862,24.294114 16.041895,24.887768 16.242887,25.442752 C 16.291485,25.490573 16.47931,25.675807 16.515376,25.511259 C 16.596822,25.338865 16.837981,25.313504 16.992233,25.328574 C 17.13714,25.623561 17.110029,25.980832 17.332845,26.242002 C 17.415383,26.220166 17.425453,26.081674 17.537212,26.127823 C 18.087866,25.857209 18.330141,25.187038 18.219306,24.603078 C 18.050939,23.842416 17.844645,23.088702 17.69083,22.323924 C 17.456741,21.209785 17.171979,20.106787 16.942062,18.991916 C 16.804206,18.205627 16.733904,17.407153 16.65605,16.612828 L 16.538435,15.804317 z"
       id="rect4665"
       sodipodi:nodetypes="cssssssscssssssscssssscc" />
    <path
       style="opacity:0.68029737;fill:url(#linearGradient4591);fill-opacity:1;fill-rule:evenodd;stroke:none;stroke-width:0.99999994;stroke-linecap:square;stroke-linejoin:miter;marker:none;marker-start:none;marker-mid:none;marker-end:none;stroke-miterlimit:29.89999962;stroke-dasharray:none;stroke-dashoffset:0;stroke-opacity:1;visibility:visible;display:inline;overflow:visible;filter:url(#filter3226);enable-background:accumulate"
       d="M 16.545152,31.161579 C 23.342464,31.103521 26.003875,29.194792 26.003875,29.194792 L 26.003875,9.127422 L 16.51938,9.127422 C 16.51938,9.127422 16.545152,31.161579 16.545152,31.161579 z"
       id="path4583"
       sodipodi:nodetypes="csccc"
       transform="matrix(0.726639,0,0,0.7307424,4.5936022,8.4968936)" />
    <path
       sodipodi:type="arc"
       style="opacity:1;fill:#eeeeec;fill-opacity:1;fill-rule:evenodd;stroke:#babdb6;stroke-width:0.93505853;stroke-linecap:square;stroke-linejoin:miter;marker:none;marker-start:none;marker-mid:none;marker-end:none;stroke-miterlimit:29.89999962;stroke-dasharray:none;stroke-dashoffset:0;stroke-opacity:1;visibility:visible;display:inline;overflow:visible;enable-background:accumulate"
       id="path4553"
       sodipodi:cx="23.562016"
       sodipodi:cy="16.992249"
       sodipodi:rx="8.5620155"
       sodipodi:ry="0.93023258"
       d="M 32.124031,16.992249 A 8.5620155,0.93023258 0 1 1 15,16.992249 A 8.5620155,0.93023258 0 1 1 32.124031,16.992249 z"
       transform="matrix(0.8307358,0,0,1.3767636,-3.1161178,-8.5457283)" />
    <path
       style="opacity:0.98513016;fill:none;fill-opacity:1;fill-rule:evenodd;stroke:url(#linearGradient4573);stroke-width:0.99999982;stroke-linecap:square;stroke-linejoin:miter;marker:none;marker-start:none;marker-mid:none;marker-end:none;stroke-miterlimit:29.89999962;stroke-dasharray:none;stroke-dashoffset:0;stroke-opacity:1;visibility:visible;display:inline;overflow:visible;enable-background:accumulate"
       d="M 10.533864,15.475054 L 10.531294,29.3817 C 10.531294,29.3817 12.279285,30.56789 16.614883,30.530349 C 21.271465,30.489699 22.536557,29.189478 22.536557,29.189478 L 22.474542,15.878154 L 10.533864,15.475054 z"
       id="path4565"
       sodipodi:nodetypes="cssscc" />
    <path
       sodipodi:type="arc"
       style="opacity:1;fill:url(#radialGradient4551);fill-opacity:1;fill-rule:evenodd;stroke:#555753;stroke-width:0.93404108;stroke-linecap:square;stroke-linejoin:miter;marker:none;marker-start:none;marker-mid:none;marker-end:none;stroke-miterlimit:29.89999962;stroke-dasharray:none;stroke-dashoffset:0;stroke-opacity:1;visibility:visible;display:inline;overflow:visible;enable-background:accumulate"
       id="path4027"
       sodipodi:cx="23.562016"
       sodipodi:cy="16.992249"
       sodipodi:rx="8.5620155"
       sodipodi:ry="0.93023258"
       d="M 32.124031,16.992249 A 8.5620155,0.93023258 0 1 1 15,16.992249 A 8.5620155,0.93023258 0 1 1 32.124031,16.992249 z"
       transform="matrix(0.8325466,0,0,1.3767636,-3.1432794,-8.5457283)" />
    <path
       style="opacity:1;fill:#edd400;fill-opacity:1;fill-rule:evenodd;stroke:#c4a000;stroke-width:1;stroke-linecap:square;stroke-linejoin:miter;marker:none;marker-start:none;marker-mid:none;marker-end:none;stroke-miterlimit:29.89999962;stroke-dashoffset:0;stroke-opacity:1;visibility:visible;display:inline;overflow:visible;enable-background:accumulate"
       d="M 22.601766,1.3715412 L 26.672592,4.1593878 L 23.685152,7.0754111 L 20.721774,5.0886694 L 22.601766,1.3715412 z"
       id="rect4678"
       sodipodi:nodetypes="ccccc" />
    <path
       style="opacity:0.19330857;fill:#eeeeec;fill-opacity:1;fill-rule:evenodd;stroke:none;stroke-width:0.79693925;stroke-linecap:square;stroke-linejoin:miter;marker:none;stroke-miterlimit:29.89999962;stroke-dasharray:none;stroke-dashoffset:0;stroke-opacity:1;visibility:visible;display:inline;overflow:visible;enable-background:accumulate"
       d="M 22.400841,15.25839 C 21.106487,15.094519 18.589354,14.97348 16.597638,14.97348 C 14.498144,14.943504 11.360701,15.041959 10.728912,15.301755 C 10.728912,15.301755 9.7218184,14.856233 9.7218184,14.856233 C 11.946314,13.944018 19.122539,13.858948 23.418964,14.705083 C 23.418964,14.705083 24.032605,14.984533 22.400841,15.25839 z"
       id="path4557"
       sodipodi:nodetypes="ccsccc" />
    <path
       style="fill:#e9b96e;fill-rule:evenodd;stroke:#c17d11;stroke-width:1px;stroke-linecap:butt;stroke-linejoin:miter;stroke-opacity:1"
       d="M 8.5177584,7.1876794 L 9.9516504,6.4506629 L 12.851299,15.87166 L 11.544864,15.769254 L 8.5177584,7.1876794 z"
       id="path4672"
       sodipodi:nodetypes="ccccc" />
    <path
       style="fill:#e9b96e;fill-rule:evenodd;stroke:#c17d11;stroke-width:1px;stroke-linecap:butt;stroke-linejoin:miter;stroke-opacity:1"
       d="M 14.529035,0.14948878 L 14.921269,16.025834 L 16.303711,16.079835 L 14.529035,0.14948878 z"
       id="path4670"
       sodipodi:nodetypes="cccc" />
    <path
       style="fill:#e9b96e;fill-rule:evenodd;stroke:#c17d11;stroke-width:1px;stroke-linecap:butt;stroke-linejoin:miter;stroke-opacity:1"
       d="M 18.30009,16.015746 L 20.881095,7.4919862 L 20.68991,5.4411561 L 23.653287,7.267676 L 22.060074,8.3732016 L 19.702118,16.015746 L 18.30009,16.015746 z"
       id="path4674"
       sodipodi:nodetypes="ccccccc" />
    <path
       sodipodi:type="arc"
       style="opacity:1;fill:none;fill-opacity:1;fill-rule:evenodd;stroke:#555753;stroke-width:0.93708158;stroke-linecap:square;stroke-linejoin:miter;marker:none;marker-start:none;marker-mid:none;marker-end:none;stroke-miterlimit:29.89999962;stroke-dasharray:none;stroke-dashoffset:0;stroke-opacity:1;visibility:visible;display:inline;overflow:visible;enable-background:accumulate"
       id="path4676"
       sodipodi:cx="23.562016"
       sodipodi:cy="16.992249"
       sodipodi:rx="8.5620155"
       sodipodi:ry="0.93023258"
       d="M 30.822314,16.499178 A 8.5620155,0.93023258 0 1 1 15.847994,16.588616"
       transform="matrix(0.8271528,0,0,1.3767636,-3.0630299,-8.5457283)"
       sodipodi:start="5.7245251"
       sodipodi:end="9.8736006"
       sodipodi:open="true" />
    <path
       style="opacity:1;fill:#fcaf3e;fill-opacity:1;fill-rule:evenodd;stroke:none;stroke-width:1;stroke-linecap:square;stroke-linejoin:miter;marker:none;marker-start:none;marker-mid:none;marker-end:none;stroke-miterlimit:29.89999962;stroke-dashoffset:0;stroke-opacity:1;visibility:visible;display:inline;overflow:visible;enable-background:accumulate"
       d="M 16.569443,15.556255 C 15.769604,15.547196 15.249067,15.624016 14.45014,15.572972 C 13.706795,15.525478 12.744721,15.37801 12,15.363064 C 12,15.363064 11.90664,16.345808 11.90664,16.345808 C 11.942222,16.488941 16.626528,16.728528 16.60251,16.631915 L 16.569443,15.556255 z"
       id="path4668"
       sodipodi:nodetypes="cssccc" />
    <path
       style="fill:none;fill-rule:evenodd;stroke:#c4a000;stroke-width:1px;stroke-linecap:butt;stroke-linejoin:miter;stroke-opacity:1"
       d="M 23.876337,2.4610445 C 23.74888,2.5571771 21.518381,5.4731999 21.518381,5.4731999"
       id="path4683" />
    <path
       style="fill:none;fill-rule:evenodd;stroke:#c4a000;stroke-width:1px;stroke-linecap:butt;stroke-linejoin:miter;stroke-opacity:1"
       d="M 25.150908,3.454415 C 24.959722,3.6029863 22.538037,6.4665704 22.538037,6.4665704"
       id="path4685" />
    <path
       style="opacity:1;fill:#edd400;fill-opacity:1;fill-rule:evenodd;stroke:#d3d7cf;stroke-width:1;stroke-linecap:square;stroke-linejoin:miter;marker:none;marker-start:none;marker-mid:none;marker-end:none;stroke-miterlimit:29.89999962;stroke-dashoffset:0;stroke-opacity:1;visibility:visible;display:inline;overflow:visible;enable-background:accumulate"
       d="M 20.562453,4.9362943 L 24.410229,7.0113228 L 23.653287,7.331765 L 20.68991,5.6975093 L 20.562453,4.9362943 z"
       id="path4681"
       sodipodi:nodetypes="ccccc" />
    <path
       style="opacity:1;fill:#edd400;fill-opacity:1;fill-rule:evenodd;stroke:#eeeeec;stroke-width:1;stroke-linecap:square;stroke-linejoin:miter;marker:none;marker-start:none;marker-mid:none;marker-end:none;stroke-miterlimit:29.89999962;stroke-dashoffset:0;stroke-opacity:1;visibility:visible;display:inline;overflow:visible;enable-background:accumulate"
       d="M 21.428581,5.4129444 L 23.575966,6.540344 L 22.995774,6.919204 L 21.356224,6.0605005 L 21.428581,5.4129444 z"
       id="path4687"
       sodipodi:nodetypes="ccccc" />
    <path
       style="fill:#edd400;fill-opacity:1;fill-rule:evenodd;stroke:#c4a000;stroke-width:0.99999994;stroke-linecap:square;stroke-linejoin:miter;marker:none;marker-start:none;marker-mid:none;marker-end:none;stroke-miterlimit:29.89999962;stroke-dashoffset:0;stroke-opacity:1;visibility:visible;display:inline;overflow:visible;enable-background:accumulate"
       d="M 9.481031,5.2392871 C 10.015058,6.4151313 9.6229763,6.681112 9.265895,6.8721412 C 8.9088137,7.0631704 8.1158631,6.7868256 8.1235284,6.1236878 C 8.0993292,4.5633124 6.8981978,3.4540782 6.9366356,2.0133247 C 6.9420592,1.8100239 8.3163988,2.4735155 8.7442663,3.2775567 C 9.2223912,4.1760414 9.2777458,4.3789892 9.481031,5.2392871 z"
       id="path4689"
       sodipodi:nodetypes="cscssc" />
    <path
       style="fill:none;fill-rule:evenodd;stroke:#d3d7cf;stroke-width:1px;stroke-linecap:butt;stroke-linejoin:miter;stroke-opacity:1"
       d="M 8.262844,6.658836 L 8.7408083,7.8444722"
       id="path4692"
       sodipodi:nodetypes="cc" />
    <path
       style="fill:none;fill-rule:evenodd;stroke:#d3d7cf;stroke-width:1px;stroke-linecap:butt;stroke-linejoin:miter;stroke-opacity:1"
       d="M 9.8241936,6.0499961 L 10.142836,7.0754111"
       id="path4694"
       sodipodi:nodetypes="cc" />
    <path
       style="fill:#eeeeec;fill-opacity:1;fill-rule:evenodd;stroke:none;stroke-width:1px;stroke-linecap:butt;stroke-linejoin:miter;stroke-opacity:1"
       d="M 9.5401579,6.1005439 L 8.594863,6.5804648 C 8.6929281,6.7813217 9.0035975,7.7134121 9.0035975,7.7134121 L 9.844143,7.23791 C 9.844143,7.23791 9.6970066,6.4218009 9.5401579,6.1005439 z"
       id="path4696"
       sodipodi:nodetypes="ccccc" />
  </g>
</svg>
