<?xml version="1.0" encoding="UTF-8" standalone="no"?>
<!-- Created with Inkscape (http://www.inkscape.org/) -->
<svg
   xmlns:dc="http://purl.org/dc/elements/1.1/"
   xmlns:cc="http://creativecommons.org/ns#"
   xmlns:rdf="http://www.w3.org/1999/02/22-rdf-syntax-ns#"
   xmlns:svg="http://www.w3.org/2000/svg"
   xmlns="http://www.w3.org/2000/svg"
   xmlns:xlink="http://www.w3.org/1999/xlink"
   xmlns:sodipodi="http://sodipodi.sourceforge.net/DTD/sodipodi-0.dtd"
   xmlns:inkscape="http://www.inkscape.org/namespaces/inkscape"
   width="32"
   height="32"
   id="svg2"
   sodipodi:version="0.32"
   inkscape:version="0.46"
   version="1.0"
   sodipodi:docname="app-preferences-enviornment-medium.svg"
   inkscape:output_extension="org.inkscape.output.svg.inkscape"
   inkscape:export-filename="/home/lse/public_html/Chimera/System/Icons/tango/large/apps/preferences-enviornment.png"
   inkscape:export-xdpi="90"
   inkscape:export-ydpi="90">
  <defs
     id="defs4">
    <linearGradient
       inkscape:collect="always"
       id="linearGradient3281">
      <stop
         style="stop-color:#ffffff;stop-opacity:1;"
         offset="0"
         id="stop3283" />
      <stop
         style="stop-color:#ffffff;stop-opacity:0;"
         offset="1"
         id="stop3285" />
    </linearGradient>
    <linearGradient
       inkscape:collect="always"
       id="linearGradient2528">
      <stop
         style="stop-color:#ad7fa8;stop-opacity:1;"
         offset="0"
         id="stop2530" />
      <stop
         style="stop-color:#75507b;stop-opacity:1"
         offset="1"
         id="stop2532" />
    </linearGradient>
    <inkscape:perspective
       sodipodi:type="inkscape:persp3d"
       inkscape:vp_x="0 : 526.18109 : 1"
       inkscape:vp_y="0 : 1000 : 0"
       inkscape:vp_z="744.09448 : 526.18109 : 1"
       inkscape:persp3d-origin="372.04724 : 350.78739 : 1"
       id="perspective10" />
    <linearGradient
       inkscape:collect="always"
       xlink:href="#linearGradient2528"
       id="linearGradient2538"
       gradientUnits="userSpaceOnUse"
       gradientTransform="matrix(0.8335733,0,0,0.8335733,4.0222393,4.1945916)"
       x1="-0.062015504"
       y1="0.18604651"
       x2="3.7829456"
       y2="47.937984" />
    <linearGradient
       inkscape:collect="always"
       xlink:href="#linearGradient3281"
       id="linearGradient3287"
       x1="15.686233"
       y1="0.38216096"
       x2="15.686233"
       y2="25.736267"
       gradientUnits="userSpaceOnUse"
       gradientTransform="matrix(1.0133595,-1.5373345e-5,1.5373391e-5,1.0133585,-0.1836502,-0.200116)" />
  </defs>
  <sodipodi:namedview
     id="base"
     pagecolor="#ffffff"
     bordercolor="#666666"
     borderopacity="1.0"
     inkscape:pageopacity="0.0"
     inkscape:pageshadow="2"
     inkscape:zoom="22.804194"
     inkscape:cx="22.60088"
     inkscape:cy="16.973032"
     inkscape:document-units="px"
     inkscape:current-layer="layer1"
     showgrid="true"
     inkscape:window-width="1508"
     inkscape:window-height="1012"
     inkscape:window-x="144"
     inkscape:window-y="28">
    <inkscape:grid
       type="xygrid"
       id="grid2383"
       visible="true"
       enabled="true" />
  </sodipodi:namedview>
  <metadata
     id="metadata7">
    <rdf:RDF>
      <cc:Work
         rdf:about="">
        <dc:format>image/svg+xml</dc:format>
        <dc:type
           rdf:resource="http://purl.org/dc/dcmitype/StillImage" />
      </cc:Work>
    </rdf:RDF>
  </metadata>
  <g
     inkscape:label="Ebene 1"
     inkscape:groupmode="layer"
     id="layer1">
    <path
       style="fill:#555753;fill-opacity:1;fill-rule:nonzero;stroke:#2e3436;stroke-width:0.99999994000000003;stroke-linecap:butt;stroke-linejoin:miter;marker:none;stroke-miterlimit:4;stroke-dasharray:none;stroke-dashoffset:0;stroke-opacity:1;visibility:visible;display:inline;overflow:visible"
       d="M 13.040405,0.50314399 L 13.040405,0.53442568 L 13.009122,5.758877 C 12.29331,5.9719287 11.589929,6.2522156 10.944372,6.6035445 L 10.91309,6.6035445 L 7.2215678,2.943298 L 7.1902824,2.9120163 L 2.9356481,7.1666612 L 2.9669314,7.1979426 L 6.6271698,10.889453 C 6.2674072,11.545388 5.9689107,12.225741 5.751215,12.954213 L 0.58934146,12.985494 L 0.52677361,12.985494 L 0.52677361,18.992034 L 0.58934146,18.992034 L 5.751215,19.023316 C 5.9657533,19.748645 6.2400838,20.466259 6.5958851,21.119356 L 2.9669314,24.810869 L 2.9356481,24.842151 L 7.1902824,29.096793 L 7.2215678,29.065513 L 10.91309,25.436548 C 11.566182,25.792358 12.283795,26.06668 13.009122,26.28123 L 13.040405,31.443088 L 13.040405,31.505666 L 19.046949,31.505666 L 19.046949,31.443088 L 19.078233,26.28123 C 19.806707,26.063521 20.487056,25.765029 21.142983,25.405267 L 24.834503,29.065513 L 24.865787,29.096793 L 29.120424,24.842151 L 29.08914,24.810869 L 25.428902,21.119356 L 25.428902,21.088059 C 25.780223,20.442515 26.06052,19.739123 26.273572,19.023316 L 31.498014,18.992034 L 31.529297,18.992034 L 31.529297,12.985494 L 31.498014,12.985494 L 26.273572,12.954213 C 26.058858,12.24005 25.780887,11.565339 25.428902,10.920737 L 29.08914,7.1979426 L 29.120424,7.1666612 L 24.865787,2.9120163 L 24.834503,2.943298 L 21.1117,6.6035445 C 20.467099,6.2515543 19.792391,5.9735887 19.078233,5.758877 L 19.046949,0.53442568 L 19.046949,0.50314399 L 13.040405,0.50314399 z M 16.043677,11.108441 C 18.743396,11.108441 20.923995,13.320322 20.923995,16.020045 C 20.923995,18.719769 18.743396,20.900353 16.043677,20.900353 C 13.343961,20.900353 11.132076,18.719769 11.132076,16.020045 C 11.132076,15.851309 11.146503,15.683999 11.16336,15.519508 C 11.416253,13.051995 13.512695,11.108441 16.043677,11.108441 z"
       id="path3296" />
    <path
       style="opacity:0.45273635000000001;fill:url(#linearGradient3287);fill-opacity:1;fill-rule:nonzero;stroke:#2e3436;stroke-width:1;stroke-linecap:butt;stroke-linejoin:miter;marker:none;stroke-miterlimit:4;stroke-dasharray:none;stroke-dashoffset:0;stroke-opacity:1;visibility:visible;display:inline;overflow:visible"
       d="M 14.03967,1.4557355 L 13.965899,6.5423647 C 13.262455,6.6948421 11.394163,7.3628641 10.79931,7.6866108 L 7.142923,4.3048922 L 4.3134034,7.1248166 L 7.8074516,10.744914 C 7.4759533,11.349339 6.620691,13.328739 6.4201018,14 L 1.4322468,13.927291 L 1.3752452,18 L 6.4187996,18 C 6.6164989,18.66836 7.455418,20.605484 7.7832833,21.207283 L 4.302361,24.836007 L 7.2048977,27.706061 L 10.637424,24.23927 C 11.23923,24.567127 13.43094,25.360164 14.099306,25.557853 L 14.04129,30.543931 L 18.050154,30.686304 L 18.121388,25.558963 C 18.704942,25.402193 20.772439,24.542576 21.376845,24.21106 L 24.782804,27.723751 L 27.698273,24.81886 L 24.207939,21.296883 C 24.207939,21.296883 25.482038,18.820772 25.610699,18 L 30.565769,18 L 30.549312,13.930554 L 25.524693,13.901806 C 25.326829,13.243732 24.527823,11.313383 24.203473,10.719411 L 27.758442,7.1513254 L 24.767418,4.2340949 L 21.258892,7.8610735 C 20.66491,7.5367358 18.73629,6.4337615 18.034366,6.3674783 L 18.048923,1.4987413 L 14.03967,1.4557355 z M 15.956148,10.020927 C 18.895099,10.070116 21.682503,11.990514 21.907168,15.677112 C 22.076803,18.460654 20.039612,21.845437 16.14426,21.87849 C 12.551576,21.908634 10.152895,19.163879 10.152846,15.864634 C 10.447071,11.81771 13.420303,10.174167 15.956148,10.020927 z"
       id="path2501"
       sodipodi:nodetypes="ccccccccccccccccccccccccccccccccccsscc" />
  </g>
</svg>
