<?xml version="1.0" encoding="UTF-8" standalone="no"?>
<!-- Created with Inkscape (http://www.inkscape.org/) -->
<svg
   xmlns:dc="http://purl.org/dc/elements/1.1/"
   xmlns:cc="http://web.resource.org/cc/"
   xmlns:rdf="http://www.w3.org/1999/02/22-rdf-syntax-ns#"
   xmlns:svg="http://www.w3.org/2000/svg"
   xmlns="http://www.w3.org/2000/svg"
   xmlns:xlink="http://www.w3.org/1999/xlink"
   xmlns:sodipodi="http://sodipodi.sourceforge.net/DTD/sodipodi-0.dtd"
   xmlns:inkscape="http://www.inkscape.org/namespaces/inkscape"
   width="16"
   height="16"
   id="svg2160"
   sodipodi:version="0.32"
   inkscape:version="0.45"
   sodipodi:docbase="/home/lse/public_html/Bambus/System/Icons/0.12/scalable/emblems"
   sodipodi:docname="small-debug.svg"
   inkscape:output_extension="org.inkscape.output.svg.inkscape"
   version="1.0"
   sodipodi:modified="true">
  <defs
     id="defs2162">
    <linearGradient
       inkscape:collect="always"
       id="linearGradient3188">
      <stop
         style="stop-color:#eeeeec;stop-opacity:1;"
         offset="0"
         id="stop3190" />
      <stop
         style="stop-color:#eeeeec;stop-opacity:0;"
         offset="1"
         id="stop3192" />
    </linearGradient>
    <linearGradient
       inkscape:collect="always"
       xlink:href="#linearGradient3188"
       id="linearGradient3194"
       x1="22.142857"
       y1="-2"
       x2="22.142857"
       y2="51.286911"
       gradientUnits="userSpaceOnUse" />
    <linearGradient
       inkscape:collect="always"
       xlink:href="#linearGradient3188"
       id="linearGradient3232"
       gradientUnits="userSpaceOnUse"
       x1="22.142857"
       y1="-2"
       x2="22.142857"
       y2="51.286911" />
  </defs>
  <sodipodi:namedview
     id="base"
     pagecolor="#ffffff"
     bordercolor="#666666"
     borderopacity="1.0"
     inkscape:pageopacity="0.0"
     inkscape:pageshadow="2"
     inkscape:zoom="28"
     inkscape:cx="16.071429"
     inkscape:cy="6.4989084"
     inkscape:current-layer="layer1"
     showgrid="true"
     inkscape:grid-bbox="true"
     inkscape:document-units="px"
     showguides="true"
     inkscape:guide-bbox="true"
     inkscape:window-width="872"
     inkscape:window-height="629"
     inkscape:window-x="105"
     inkscape:window-y="164"
     width="16px"
     height="16px" />
  <metadata
     id="metadata2165">
    <rdf:RDF>
      <cc:Work
         rdf:about="">
        <dc:format>image/svg+xml</dc:format>
        <dc:type
           rdf:resource="http://purl.org/dc/dcmitype/StillImage" />
      </cc:Work>
    </rdf:RDF>
  </metadata>
  <g
     id="layer1"
     inkscape:label="Layer 1"
     inkscape:groupmode="layer">
    <g
       id="g3214"
       transform="matrix(0.3249739,0,0,0.3249739,4.1617679,0.2678758)">
      <path
         sodipodi:nodetypes="cccssscccc"
         id="path3165"
         d="M 13.198532,10.564578 L 13.198532,42.127998 L 13.240056,42.127998 C 13.202647,42.336318 13.198532,42.566613 13.198532,42.781034 C 13.198532,45.93949 17.365589,47.499996 22.5,47.499998 C 27.634411,47.499998 31.801468,45.939494 31.801468,42.781034 C 31.801468,42.566613 31.797353,42.336318 31.759944,42.127998 L 31.801468,42.127998 L 31.801468,10.564578 L 13.198532,10.564578 z "
         style="opacity:1;color:#000000;fill:#3465a4;fill-opacity:1;fill-rule:nonzero;stroke:#204a87;stroke-width:3.07716942;stroke-linecap:square;stroke-linejoin:miter;marker:none;marker-start:none;marker-mid:none;marker-end:none;stroke-miterlimit:4;stroke-dasharray:none;stroke-dashoffset:0;stroke-opacity:1;visibility:visible;display:inline;overflow:visible;enable-background:accumulate" />
      <path
         sodipodi:nodetypes="cccssscccc"
         id="path3177"
         d="M 16.07794,9.7737909 L 16.19753,40.787206 L 16.233589,40.787206 C 16.201105,40.968104 16.19753,41.168086 16.19753,41.354284 C 16.19753,44.096996 17.743149,44.358487 22.201722,44.358489 C 26.660294,44.358489 29.252693,43.774173 29.252693,41.031458 C 29.252693,40.84526 29.24912,40.645278 29.216636,40.46438 L 29.252693,40.46438 L 28.809337,10.547784 L 16.07794,9.7737909 z "
         style="opacity:0.5;color:#000000;fill:#3465a4;fill-opacity:1;fill-rule:nonzero;stroke:#eeeeec;stroke-width:3.07716918;stroke-linecap:square;stroke-linejoin:miter;marker:none;marker-start:none;marker-mid:none;marker-end:none;stroke-miterlimit:4;stroke-dasharray:none;stroke-dashoffset:0;stroke-opacity:1;visibility:visible;display:inline;overflow:visible;enable-background:accumulate" />
      <path
         sodipodi:nodetypes="csssc"
         id="path3167"
         d="M 31.801468,9.9822799 C 31.801468,11.22903 27.634411,12.240885 22.5,12.240885 C 17.365589,12.240885 13.198532,11.22903 13.198532,9.9822799 C 13.198532,8.7355304 22.5,5.8415052 22.5,5.8415052 C 22.5,5.8415052 31.801468,8.7355304 31.801468,9.9822799 z "
         style="color:#000000;fill:#3465a4;fill-opacity:1;fill-rule:nonzero;stroke:#204a87;stroke-width:3.07716942;stroke-linecap:square;stroke-linejoin:miter;marker:none;marker-start:none;marker-mid:none;marker-end:none;stroke-miterlimit:4;stroke-dashoffset:0;stroke-opacity:1;visibility:visible;display:inline;overflow:visible;enable-background:accumulate" />
      <path
         sodipodi:nodetypes="csssc"
         id="path3175"
         d="M 27.143394,10.546894 C 27.143394,10.546894 26.332778,11.429727 22.499999,11.429727 C 18.66722,11.429727 18.188181,10.689752 18.188181,10.689752 C 18.188181,10.689752 22.610838,8.3152486 22.610838,8.3152486 C 22.610838,8.3152486 27.143394,10.546894 27.143394,10.546894 z "
         style="opacity:0.5;color:#000000;fill:#3465a4;fill-opacity:1;fill-rule:nonzero;stroke:#eeeeec;stroke-width:3.07716894;stroke-linecap:square;stroke-linejoin:miter;marker:none;marker-start:none;marker-mid:none;marker-end:none;stroke-miterlimit:4;stroke-dashoffset:0;stroke-opacity:1;visibility:visible;display:inline;overflow:visible;enable-background:accumulate" />
      <path
         id="path3181"
         d="M 20.125,0.71875 L 20.125,6.125 L 21.625,6.125 C 19.61733,6.7732239 13.1875,8.9078093 13.1875,9.96875 C 13.1875,10.171485 13.324636,10.375528 13.53125,10.5625 L 13.1875,10.5625 L 13.1875,42.125 L 13.25,42.125 C 13.212591,42.33332 13.1875,42.566829 13.1875,42.78125 C 13.1875,45.939707 17.365589,47.499998 22.5,47.5 C 27.634411,47.500002 31.8125,45.93971 31.8125,42.78125 C 31.8125,42.56683 31.787409,42.33332 31.75,42.125 L 31.8125,42.125 L 31.8125,10.5625 L 31.46875,10.5625 C 31.675364,10.375528 31.8125,10.171485 31.8125,9.96875 C 31.8125,8.9078092 25.38267,6.773224 23.375,6.125 L 24.75,6.125 L 24.75,0.71875 L 20.125,0.71875 z "
         style="opacity:0.7;color:#000000;fill:url(#linearGradient3232);fill-opacity:1;fill-rule:nonzero;stroke:#204a87;stroke-width:3.07716942;stroke-linecap:square;stroke-linejoin:miter;marker:none;marker-start:none;marker-mid:none;marker-end:none;stroke-miterlimit:4;stroke-dasharray:none;stroke-dashoffset:0;stroke-opacity:1;visibility:visible;display:inline;overflow:visible;enable-background:accumulate" />
      <rect
         y="0.71428543"
         x="20.125347"
         height="5.3993802"
         width="4.6258297"
         id="rect3173"
         style="opacity:1;color:#000000;fill:#eeeeec;fill-opacity:1;fill-rule:nonzero;stroke:#555753;stroke-width:3.07716942;stroke-linecap:square;stroke-linejoin:miter;marker:none;marker-start:none;marker-mid:none;marker-end:none;stroke-miterlimit:4;stroke-dasharray:none;stroke-dashoffset:0;stroke-opacity:1;visibility:visible;display:inline;overflow:visible;enable-background:accumulate" />
      <path
         d="M 21.142857 3.2142856 A 0.5 0.64285713 0 1 1  20.142857,3.2142856 A 0.5 0.64285713 0 1 1  21.142857 3.2142856 z"
         sodipodi:ry="0.64285713"
         sodipodi:rx="0.5"
         sodipodi:cy="3.2142856"
         sodipodi:cx="20.642857"
         id="path3179"
         style="opacity:0.5;color:#000000;fill:#000000;fill-opacity:1;fill-rule:nonzero;stroke:#000000;stroke-width:3.07716942;stroke-linecap:square;stroke-linejoin:miter;marker:none;marker-start:none;marker-mid:none;marker-end:none;stroke-miterlimit:4;stroke-dasharray:none;stroke-dashoffset:0;stroke-opacity:1;visibility:visible;display:inline;overflow:visible;enable-background:accumulate"
         sodipodi:type="arc" />
      <g
         transform="matrix(0.7080292,0,0,0.7080292,9.1043404,11.339937)"
         id="g3155" />
    </g>
    <g
       id="g3242"
       transform="translate(-14.68047,-1.376069)">
      <path
         transform="matrix(0.3566314,0,0,0.3566732,12.11837,1.4431307)"
         d="M 21.571428 15.071428 A 2.4285715 2.6428571 0 1 1  16.714285,15.071428 A 2.4285715 2.6428571 0 1 1  21.571428 15.071428 z"
         sodipodi:ry="2.6428571"
         sodipodi:rx="2.4285715"
         sodipodi:cy="15.071428"
         sodipodi:cx="19.142857"
         id="path2170"
         style="opacity:1;color:#000000;fill:#555753;fill-opacity:1;fill-rule:nonzero;stroke:#000000;stroke-width:2.80385137;stroke-linecap:square;stroke-linejoin:miter;marker:none;marker-start:none;marker-mid:none;marker-end:none;stroke-miterlimit:4;stroke-dasharray:none;stroke-dashoffset:0;stroke-opacity:1;visibility:visible;display:inline;overflow:visible;enable-background:accumulate"
         sodipodi:type="arc" />
      <path
         id="path3143"
         d="M 20.499208,8.0161072 L 21.670997,6.6913211"
         style="fill:none;fill-rule:evenodd;stroke:#000000;stroke-width:0.99999994px;stroke-linecap:butt;stroke-linejoin:miter;stroke-opacity:1" />
      <path
         id="path3145"
         d="M 20.855839,9.4427994 L 22.18047,9.1370796"
         style="fill:none;fill-rule:evenodd;stroke:#000000;stroke-width:0.99999994px;stroke-linecap:butt;stroke-linejoin:miter;stroke-opacity:1" />
      <path
         id="path3147"
         d="M 20.397313,10.716632 L 21.416259,12.296184"
         style="fill:none;fill-rule:evenodd;stroke:#000000;stroke-width:0.99999994px;stroke-linecap:butt;stroke-linejoin:miter;stroke-opacity:1" />
      <path
         id="path3149"
         d="M 17.442367,7.9906304 L 16.62721,6.6658443"
         style="fill:none;fill-rule:evenodd;stroke:#000000;stroke-width:0.99999994px;stroke-linecap:butt;stroke-linejoin:miter;stroke-opacity:1" />
      <path
         id="path3151"
         d="M 17.219473,9.2899397 L 15.5,9.2899397"
         style="fill:none;fill-rule:evenodd;stroke:#000000;stroke-width:0.99999994px;stroke-linecap:butt;stroke-linejoin:miter;stroke-opacity:1" />
      <path
         id="path3153"
         d="M 17.442368,10.89497 L 16.117737,12.066895"
         style="fill:none;fill-rule:evenodd;stroke:#000000;stroke-width:1.00000012px;stroke-linecap:butt;stroke-linejoin:miter;stroke-opacity:1" />
      <path
         transform="matrix(0.3104791,0,0,0.3566732,18.346533,3.8888897)"
         d="M 8.0000002 16.357143 A 6.0714288 7.7857141 0 1 1  -4.1428573,16.357143 A 6.0714288 7.7857141 0 1 1  8.0000002 16.357143 z"
         sodipodi:ry="7.7857141"
         sodipodi:rx="6.0714288"
         sodipodi:cy="16.357143"
         sodipodi:cx="1.9285715"
         id="path2168"
         style="opacity:1;color:#000000;fill:#2e3436;fill-opacity:1;fill-rule:nonzero;stroke:#000000;stroke-width:3.00502849;stroke-linecap:square;stroke-linejoin:miter;marker:none;marker-start:none;marker-mid:none;marker-end:none;stroke-miterlimit:4;stroke-dasharray:none;stroke-dashoffset:0;stroke-opacity:1;visibility:visible;display:inline;overflow:visible;enable-background:accumulate"
         sodipodi:type="arc" />
    </g>
  </g>
</svg>
