<?xml version="1.0" encoding="UTF-8" standalone="no"?>
<!-- Created with Inkscape (http://www.inkscape.org/) -->
<svg
   xmlns:dc="http://purl.org/dc/elements/1.1/"
   xmlns:cc="http://web.resource.org/cc/"
   xmlns:rdf="http://www.w3.org/1999/02/22-rdf-syntax-ns#"
   xmlns:svg="http://www.w3.org/2000/svg"
   xmlns="http://www.w3.org/2000/svg"
   xmlns:xlink="http://www.w3.org/1999/xlink"
   xmlns:sodipodi="http://sodipodi.sourceforge.net/DTD/sodipodi-0.dtd"
   xmlns:inkscape="http://www.inkscape.org/namespaces/inkscape"
   width="16"
   height="16"
   id="svg2160"
   sodipodi:version="0.32"
   inkscape:version="0.45"
   sodipodi:docbase="/home/lse/public_html/Bambus 0.13 Developement/System/Icons/0.12/scalable/actions"
   sodipodi:docname="extra-small-format-list-ordered.svg"
   inkscape:output_extension="org.inkscape.output.svg.inkscape"
   version="1.0"
   sodipodi:modified="true">
  <defs
     id="defs2162">
    <linearGradient
       inkscape:collect="always"
       id="linearGradient3205">
      <stop
         style="stop-color:#ffffff;stop-opacity:1;"
         offset="0"
         id="stop3207" />
      <stop
         style="stop-color:#ffffff;stop-opacity:0;"
         offset="1"
         id="stop3209" />
    </linearGradient>
    <linearGradient
       inkscape:collect="always"
       xlink:href="#linearGradient3205"
       id="linearGradient3211"
       x1="9.1428576"
       y1="-0.67857146"
       x2="9.1428576"
       y2="16.680923"
       gradientUnits="userSpaceOnUse"
       gradientTransform="translate(0,1)" />
    <linearGradient
       inkscape:collect="always"
       xlink:href="#linearGradient3205"
       id="linearGradient3213"
       x1="9.1428576"
       y1="-0.67857146"
       x2="9.1428576"
       y2="16.680923"
       gradientUnits="userSpaceOnUse" />
    <linearGradient
       inkscape:collect="always"
       xlink:href="#linearGradient3205"
       id="linearGradient3215"
       x1="9.1428576"
       y1="-0.67857146"
       x2="9.1428576"
       y2="16.680923"
       gradientUnits="userSpaceOnUse"
       gradientTransform="translate(0,1)" />
    <linearGradient
       inkscape:collect="always"
       xlink:href="#linearGradient3205"
       id="linearGradient3217"
       x1="9.1428576"
       y1="-0.67857146"
       x2="9.1428576"
       y2="16.680923"
       gradientUnits="userSpaceOnUse" />
  </defs>
  <sodipodi:namedview
     id="base"
     pagecolor="#ffffff"
     bordercolor="#666666"
     borderopacity="1.0"
     inkscape:pageopacity="0.0"
     inkscape:pageshadow="2"
     inkscape:zoom="28"
     inkscape:cx="19.95863"
     inkscape:cy="4.6902445"
     inkscape:current-layer="layer1"
     showgrid="true"
     inkscape:grid-bbox="true"
     inkscape:document-units="px"
     inkscape:window-width="1272"
     inkscape:window-height="949"
     inkscape:window-x="0"
     inkscape:window-y="24"
     width="16px"
     height="16px" />
  <metadata
     id="metadata2165">
    <rdf:RDF>
      <cc:Work
         rdf:about="">
        <dc:format>image/svg+xml</dc:format>
        <dc:type
           rdf:resource="http://purl.org/dc/dcmitype/StillImage" />
      </cc:Work>
    </rdf:RDF>
  </metadata>
  <g
     id="layer1"
     inkscape:label="Layer 1"
     inkscape:groupmode="layer">
    <path
       style="font-size:10.85713482px;font-style:normal;font-weight:normal;fill:#204a87;fill-opacity:1;stroke:none;stroke-width:0.99999994px;stroke-linecap:butt;stroke-linejoin:miter;stroke-opacity:1;font-family:DejaVu Sans Mono"
       d="M 0.08595348,6.391188 L 1.2105114,6.391188 L 1.2105114,2.3049849 L 0,2.5771596 L 0,1.9182101 L 1.2033486,1.6531978 L 1.9267904,1.6531978 L 1.9267904,6.391188 L 3.0370227,6.391188 L 3.0370227,7 L 0.08595348,7 L 0.08595348,6.391188"
       id="text2168" />
    <path
       style="font-size:10.66427803px;font-style:normal;font-weight:normal;fill:#204a87;fill-opacity:1;stroke:none;stroke-width:0.99999994px;stroke-linecap:butt;stroke-linejoin:miter;stroke-opacity:1;font-family:DejaVu Sans"
       d="M 0.77742897,14.402002 L 3.1906247,14.402002 L 3.1906247,15 L 0,15 L 0,14.402002 C 0.43854867,13.940021 0.82198617,13.531976 1.1503135,13.177865 C 1.4786374,12.823759 1.7049476,12.574007 1.8292446,12.428609 C 2.0637606,12.142512 2.2220604,11.91152 2.3041447,11.735636 C 2.3862232,11.557413 2.4272639,11.375668 2.4272668,11.190403 C 2.4272639,10.897271 2.3404921,10.667451 2.1669513,10.500946 C 1.9957503,10.33445 1.7600593,10.251199 1.4598779,10.251194 C 1.2464642,10.251199 1.0224993,10.289893 0.78798227,10.367276 C 0.55346267,10.444668 0.30487326,10.561923 0.04221334,10.71904 L 0.04221334,10.001442 C 0.2837666,9.8865376 0.52063017,9.7997696 0.75280437,9.7411371 C 0.98732157,9.6825153 1.2183221,9.6532017 1.4458068,9.6531964 C 1.9593999,9.6532017 2.3721521,9.7903891 2.6840646,10.06476 C 2.998316,10.336794 3.1554432,10.69442 3.1554469,11.137638 C 3.1554432,11.36277 3.1026765,11.587898 2.9971469,11.813024 C 2.8939554,12.038155 2.7251021,12.286734 2.4905868,12.558762 C 2.3592537,12.711194 2.1681211,12.922253 1.9171891,13.191936 C 1.6685972,13.461623 1.2886775,13.864977 0.77742897,14.402002"
       id="text2172" />
    <rect
       style="opacity:1;color:#000000;fill:#729fcf;fill-opacity:1;fill-rule:nonzero;stroke:#204a87;stroke-width:0.99999994;stroke-linecap:square;stroke-linejoin:miter;marker:none;marker-start:none;marker-mid:none;marker-end:none;stroke-miterlimit:4;stroke-dasharray:none;stroke-dashoffset:0;stroke-opacity:1;visibility:visible;display:inline;overflow:visible;enable-background:accumulate"
       id="rect3151"
       width="9.000001"
       height="2"
       x="6.499999"
       y="3.5" />
    <rect
       style="opacity:1;color:#000000;fill:#729fcf;fill-opacity:1;fill-rule:nonzero;stroke:#204a87;stroke-width:0.99999988;stroke-linecap:square;stroke-linejoin:miter;marker:none;marker-start:none;marker-mid:none;marker-end:none;stroke-miterlimit:4;stroke-dasharray:none;stroke-dashoffset:0;stroke-opacity:1;visibility:visible;display:inline;overflow:visible;enable-background:accumulate"
       id="rect3185"
       width="8.999999"
       height="2"
       x="6.500001"
       y="11.5" />
    <path
       style="font-size:10.85713482px;font-style:normal;font-weight:normal;fill:#204a87;fill-opacity:1;stroke:none;stroke-width:0.99999994px;stroke-linecap:butt;stroke-linejoin:miter;stroke-opacity:1;font-family:DejaVu Sans Mono"
       d="M 0.08595348,6.391188 L 1.2105114,6.391188 L 1.2105114,2.3049849 L 0,2.5771596 L 0,1.9182101 L 1.2033486,1.6531978 L 1.9267904,1.6531978 L 1.9267904,6.391188 L 3.0370227,6.391188 L 3.0370227,7 L 0.08595348,7 L 0.08595348,6.391188"
       id="path3189" />
    <path
       style="font-size:10.66427803px;font-style:normal;font-weight:normal;fill:#204a87;fill-opacity:1;stroke:none;stroke-width:0.99999994px;stroke-linecap:butt;stroke-linejoin:miter;stroke-opacity:1;font-family:DejaVu Sans"
       d="M 0.77742897,14.402002 L 3.1906247,14.402002 L 3.1906247,15 L 0,15 L 0,14.402002 C 0.43854867,13.940021 0.82198617,13.531976 1.1503135,13.177865 C 1.4786374,12.823759 1.7049476,12.574007 1.8292446,12.428609 C 2.0637606,12.142512 2.2220604,11.91152 2.3041447,11.735636 C 2.3862232,11.557413 2.4272639,11.375668 2.4272668,11.190403 C 2.4272639,10.897271 2.3404921,10.667451 2.1669513,10.500946 C 1.9957503,10.33445 1.7600593,10.251199 1.4598779,10.251194 C 1.2464642,10.251199 1.0224993,10.289893 0.78798227,10.367276 C 0.55346267,10.444668 0.30487326,10.561923 0.04221334,10.71904 L 0.04221334,10.001442 C 0.2837666,9.8865376 0.52063017,9.7997696 0.75280437,9.7411371 C 0.98732157,9.6825153 1.2183221,9.6532017 1.4458068,9.6531964 C 1.9593999,9.6532017 2.3721521,9.7903891 2.6840646,10.06476 C 2.998316,10.336794 3.1554432,10.69442 3.1554469,11.137638 C 3.1554432,11.36277 3.1026765,11.587898 2.9971469,11.813024 C 2.8939554,12.038155 2.7251021,12.286734 2.4905868,12.558762 C 2.3592537,12.711194 2.1681211,12.922253 1.9171891,13.191936 C 1.6685972,13.461623 1.2886775,13.864977 0.77742897,14.402002"
       id="path3191" />
    <rect
       style="opacity:1;color:#000000;fill:#729fcf;fill-opacity:1;fill-rule:nonzero;stroke:#204a87;stroke-width:0.99999994;stroke-linecap:square;stroke-linejoin:miter;marker:none;marker-start:none;marker-mid:none;marker-end:none;stroke-miterlimit:4;stroke-dasharray:none;stroke-dashoffset:0;stroke-opacity:1;visibility:visible;display:inline;overflow:visible;enable-background:accumulate"
       id="rect3193"
       width="9.000001"
       height="2"
       x="6.499999"
       y="3.5" />
    <rect
       style="opacity:1;color:#000000;fill:#729fcf;fill-opacity:1;fill-rule:nonzero;stroke:#204a87;stroke-width:0.99999988;stroke-linecap:square;stroke-linejoin:miter;marker:none;marker-start:none;marker-mid:none;marker-end:none;stroke-miterlimit:4;stroke-dasharray:none;stroke-dashoffset:0;stroke-opacity:1;visibility:visible;display:inline;overflow:visible;enable-background:accumulate"
       id="rect3195"
       width="8.999999"
       height="2"
       x="6.500001"
       y="11.5" />
    <rect
       style="opacity:0.7;color:#000000;fill:url(#linearGradient3211);fill-opacity:1;fill-rule:nonzero;stroke:#204a87;stroke-width:0.99999994;stroke-linecap:square;stroke-linejoin:miter;marker:none;marker-start:none;marker-mid:none;marker-end:none;stroke-miterlimit:4;stroke-dasharray:none;stroke-dashoffset:0;stroke-opacity:1;visibility:visible;display:inline;overflow:visible;enable-background:accumulate"
       id="rect3197"
       width="9.000001"
       height="2"
       x="6.499999"
       y="3.5" />
    <rect
       style="opacity:0.7;color:#000000;fill:url(#linearGradient3213);fill-opacity:1.0;fill-rule:nonzero;stroke:#204a87;stroke-width:0.99999988;stroke-linecap:square;stroke-linejoin:miter;marker:none;marker-start:none;marker-mid:none;marker-end:none;stroke-miterlimit:4;stroke-dasharray:none;stroke-dashoffset:0;stroke-opacity:1;visibility:visible;display:inline;overflow:visible;enable-background:accumulate"
       id="rect3199"
       width="8.999999"
       height="2"
       x="6.500001"
       y="11.5" />
    <rect
       style="opacity:0.7;color:#000000;fill:url(#linearGradient3215);fill-opacity:1;fill-rule:nonzero;stroke:#204a87;stroke-width:0.99999994;stroke-linecap:square;stroke-linejoin:miter;marker:none;marker-start:none;marker-mid:none;marker-end:none;stroke-miterlimit:4;stroke-dasharray:none;stroke-dashoffset:0;stroke-opacity:1;visibility:visible;display:inline;overflow:visible;enable-background:accumulate"
       id="rect3201"
       width="9.000001"
       height="2"
       x="6.499999"
       y="3.5" />
    <rect
       style="opacity:0.7;color:#000000;fill:url(#linearGradient3217);fill-opacity:1.0;fill-rule:nonzero;stroke:#204a87;stroke-width:0.99999988;stroke-linecap:square;stroke-linejoin:miter;marker:none;marker-start:none;marker-mid:none;marker-end:none;stroke-miterlimit:4;stroke-dasharray:none;stroke-dashoffset:0;stroke-opacity:1;visibility:visible;display:inline;overflow:visible;enable-background:accumulate"
       id="rect3203"
       width="8.999999"
       height="2"
       x="6.500001"
       y="11.5" />
  </g>
</svg>
