<?xml version="1.0" encoding="UTF-8" standalone="no"?>
<!-- Created with Inkscape (http://www.inkscape.org/) -->
<svg
   xmlns:dc="http://purl.org/dc/elements/1.1/"
   xmlns:cc="http://web.resource.org/cc/"
   xmlns:rdf="http://www.w3.org/1999/02/22-rdf-syntax-ns#"
   xmlns:svg="http://www.w3.org/2000/svg"
   xmlns="http://www.w3.org/2000/svg"
   xmlns:xlink="http://www.w3.org/1999/xlink"
   xmlns:sodipodi="http://sodipodi.sourceforge.net/DTD/sodipodi-0.dtd"
   xmlns:inkscape="http://www.inkscape.org/namespaces/inkscape"
   width="300"
   height="150"
   id="svg2"
   sodipodi:version="0.32"
   inkscape:version="0.45.1"
   version="1.0"
   sodipodi:docbase="/home/lse/public_html/Bambus/System/Icons/scalable/actions"
   sodipodi:docname="Herbivore.svg"
   inkscape:output_extension="org.inkscape.output.svg.inkscape"
   inkscape:export-filename="/home/lse/public_html/Herbivore/src/com/Herbivore/public/resources/images/HerbivoreLogo.png"
   inkscape:export-xdpi="77.790001"
   inkscape:export-ydpi="77.790001">
  <defs
     id="defs4">
    <linearGradient
       inkscape:collect="always"
       id="linearGradient3174">
      <stop
         style="stop-color:#eeeeec;stop-opacity:1;"
         offset="0"
         id="stop3176" />
      <stop
         style="stop-color:#eeeeec;stop-opacity:0;"
         offset="1"
         id="stop3178" />
    </linearGradient>
    <linearGradient
       inkscape:collect="always"
       xlink:href="#linearGradient3174"
       id="linearGradient3180"
       x1="166.96658"
       y1="24.678663"
       x2="166.96658"
       y2="81.907425"
       gradientUnits="userSpaceOnUse" />
    <linearGradient
       inkscape:collect="always"
       xlink:href="#linearGradient3174"
       id="linearGradient3211"
       gradientUnits="userSpaceOnUse"
       x1="166.96658"
       y1="24.678663"
       x2="166.96658"
       y2="81.907425" />
  </defs>
  <sodipodi:namedview
     id="base"
     pagecolor="#ffffff"
     bordercolor="#666666"
     borderopacity="1.0"
     inkscape:pageopacity="0.0"
     inkscape:pageshadow="2"
     inkscape:zoom="2.5933333"
     inkscape:cx="150"
     inkscape:cy="75"
     inkscape:document-units="px"
     inkscape:current-layer="layer1"
     width="300px"
     height="150px"
     inkscape:window-width="990"
     inkscape:window-height="790"
     inkscape:window-x="0"
     inkscape:window-y="25" />
  <metadata
     id="metadata7">
    <rdf:RDF>
      <cc:Work
         rdf:about="">
        <dc:format>image/svg+xml</dc:format>
        <dc:type
           rdf:resource="http://purl.org/dc/dcmitype/StillImage" />
      </cc:Work>
    </rdf:RDF>
  </metadata>
  <g
     inkscape:label="Ebene 1"
     inkscape:groupmode="layer"
     id="layer1">
    <g
       id="g3200"
       transform="matrix(1.7033603,0,0,1.7033603,-88.26036,-29.273767)">
      <text
         transform="scale(1.733387,0.5769052)"
         id="text2187"
         y="81.587273"
         x="29.80858"
         style="font-size:11.32187366px;font-style:normal;font-weight:normal;fill:#000000;fill-opacity:1;stroke:none;stroke-width:1px;stroke-linecap:butt;stroke-linejoin:miter;stroke-opacity:1;font-family:URW Gothic L"
         xml:space="preserve"><tspan
           y="81.587273"
           x="29.80858"
           id="tspan2189"
           sodipodi:role="line">HERBIVORE</tspan></text>
      <text
         id="text2195"
         y="54.873985"
         x="52.08173"
         style="font-size:6.59499979px;font-style:normal;font-weight:normal;fill:#000000;fill-opacity:1;stroke:none;stroke-width:1px;stroke-linecap:butt;stroke-linejoin:miter;stroke-opacity:1;font-family:URW Gothic L"
         xml:space="preserve"><tspan
           y="54.873985"
           x="52.08173"
           id="tspan2197"
           sodipodi:role="line">BAMBUS Management Interface</tspan></text>
    </g>
    <g
       id="g3206"
       transform="translate(23.136247,-0.3856041)">
      <path
         sodipodi:nodetypes="ccscscscscscsccsc"
         id="path2160"
         d="M 160.98274,29.682519 C 155.89499,29.682519 150.48428,32.498959 146.64379,36.361172 C 146.83906,36.315481 147.03182,36.291056 147.23979,36.291055 C 148.11672,36.291056 148.91908,36.729782 149.48354,37.412929 C 150.01106,36.929188 150.65417,36.624113 151.3767,36.624111 C 152.73175,36.624112 153.86412,37.647122 154.28656,39.060681 C 154.35365,39.05562 154.4112,39.025624 154.47938,39.025622 C 156.10136,39.025622 157.41046,40.504917 157.547,42.356184 C 158.76577,42.844434 159.65052,44.170011 159.65052,45.756864 C 159.65052,46.324502 159.53489,46.838645 159.33499,47.316969 C 159.74728,47.931499 160.01864,48.720405 160.01863,49.560716 C 160.01863,51.034558 159.24473,52.291766 158.16053,52.85622 C 158.44133,53.400552 158.61629,54.050683 158.61629,54.731852 C 158.61629,54.755586 158.61668,54.778349 158.61629,54.80197 C 166.9714,59.854676 173.05852,64.805041 178.89766,81.902227 C 180.9717,69.964036 182.67983,56.189124 179.26578,46.56321 C 175.82823,36.87107 169.80344,29.682518 160.98274,29.682519 z "
         style="color:#000000;fill:#4e9a06;fill-opacity:1;fill-rule:evenodd;stroke:#4e9a06;stroke-width:1;stroke-linecap:butt;stroke-linejoin:miter;marker:none;marker-start:none;marker-mid:none;marker-end:none;stroke-miterlimit:4;stroke-dashoffset:0;stroke-opacity:1;visibility:visible;display:inline;overflow:visible;enable-background:accumulate" />
      <path
         id="path2163"
         d="M 150.50023,34.643303 C 149.02236,34.639053 148.64888,34.913848 147.16967,36.291055 C 147.19324,36.290435 147.21608,36.291055 147.23979,36.291055 C 148.11672,36.291056 148.91908,36.729782 149.48354,37.412929 C 150.01106,36.929188 150.65417,36.624113 151.3767,36.624111 C 152.73175,36.624112 153.86412,37.647122 154.28656,39.060681 C 154.35365,39.05562 154.4112,39.025624 154.47938,39.025622 C 155.12573,39.025622 155.72114,39.258069 156.21478,39.656676 C 158.69992,39.920174 161.23875,40.508907 163.36672,41.795248 C 171.7326,46.852336 176.51444,61.330002 178.89766,81.902227 C 179.2413,67.152142 176.2149,56.584659 172.0963,46.598269 C 168.00986,36.689829 159.38354,34.61005 155.75902,34.695891 C 153.01861,34.760794 151.49826,34.646174 150.50023,34.643303 z "
         style="color:#000000;fill:#8ae234;fill-opacity:1;fill-rule:evenodd;stroke:#4e9a06;stroke-width:1;stroke-linecap:butt;stroke-linejoin:miter;marker:none;marker-start:none;marker-mid:none;marker-end:none;stroke-miterlimit:4;stroke-dashoffset:0;stroke-opacity:1;visibility:visible;display:inline;overflow:visible;enable-background:accumulate" />
      <path
         sodipodi:nodetypes="ccscscscscscsccsc"
         id="path2201"
         d="M 160.98274,29.682519 C 155.89499,29.682519 150.48428,32.498959 146.64379,36.361172 C 146.83906,36.315481 147.03182,36.291056 147.23979,36.291055 C 148.11672,36.291056 148.91908,36.729782 149.48354,37.412929 C 150.01106,36.929188 150.65417,36.624113 151.3767,36.624111 C 152.73175,36.624112 153.86412,37.647122 154.28656,39.060681 C 154.35365,39.05562 154.4112,39.025624 154.47938,39.025622 C 156.10136,39.025622 157.41046,40.504917 157.547,42.356184 C 158.76577,42.844434 159.65052,44.170011 159.65052,45.756864 C 159.65052,46.324502 159.53489,46.838645 159.33499,47.316969 C 159.74728,47.931499 160.01864,48.720405 160.01863,49.560716 C 160.01863,51.034558 159.24473,52.291766 158.16053,52.85622 C 158.44133,53.400552 158.61629,54.050683 158.61629,54.731852 C 158.61629,54.755586 158.61668,54.778349 158.61629,54.80197 C 166.9714,59.854676 173.05852,64.805041 178.89766,81.902227 C 180.9717,69.964036 182.67983,56.189124 179.26578,46.56321 C 175.82823,36.87107 169.80344,29.682518 160.98274,29.682519 z "
         style="opacity:0.7;color:#000000;fill:url(#linearGradient3211);fill-opacity:1;fill-rule:evenodd;stroke:none;stroke-width:1;stroke-linecap:butt;stroke-linejoin:miter;marker:none;marker-start:none;marker-mid:none;marker-end:none;stroke-miterlimit:4;stroke-dashoffset:0;stroke-opacity:1;visibility:visible;display:inline;overflow:visible;enable-background:accumulate" />
    </g>
  </g>
</svg>
