<?xml version="1.0" encoding="UTF-8" standalone="no"?>
<!-- Created with Inkscape (http://www.inkscape.org/) -->
<svg
   xmlns:dc="http://purl.org/dc/elements/1.1/"
   xmlns:cc="http://web.resource.org/cc/"
   xmlns:rdf="http://www.w3.org/1999/02/22-rdf-syntax-ns#"
   xmlns:svg="http://www.w3.org/2000/svg"
   xmlns="http://www.w3.org/2000/svg"
   xmlns:xlink="http://www.w3.org/1999/xlink"
   xmlns:sodipodi="http://sodipodi.sourceforge.net/DTD/sodipodi-0.dtd"
   xmlns:inkscape="http://www.inkscape.org/namespaces/inkscape"
   width="48px"
   height="48px"
   id="svg3259"
   sodipodi:version="0.32"
   inkscape:version="0.45"
   sodipodi:docbase="/home/lse/public_html/Bambus 0.13 Developement/System/Icons/0.12/scalable/actions"
   sodipodi:docname="large-format-sub.svg"
   inkscape:output_extension="org.inkscape.output.svg.inkscape"
   sodipodi:modified="true">
  <defs
     id="defs3261">
    <linearGradient
       inkscape:collect="always"
       id="linearGradient3217">
      <stop
         style="stop-color:#ffffff;stop-opacity:1;"
         offset="0"
         id="stop3219" />
      <stop
         style="stop-color:#ffffff;stop-opacity:0;"
         offset="1"
         id="stop3221" />
    </linearGradient>
    <linearGradient
       inkscape:collect="always"
       xlink:href="#linearGradient3217"
       id="linearGradient3223"
       x1="16.857143"
       y1="-6"
       x2="16.857143"
       y2="53.577232"
       gradientUnits="userSpaceOnUse" />
    <linearGradient
       inkscape:collect="always"
       xlink:href="#linearGradient3217"
       id="linearGradient3225"
       x1="16.857143"
       y1="-6"
       x2="16.857143"
       y2="53.577232"
       gradientUnits="userSpaceOnUse" />
  </defs>
  <sodipodi:namedview
     id="base"
     pagecolor="#ffffff"
     bordercolor="#666666"
     borderopacity="1.0"
     inkscape:pageopacity="0.0"
     inkscape:pageshadow="2"
     inkscape:zoom="3.5"
     inkscape:cx="17.775818"
     inkscape:cy="20.772479"
     inkscape:current-layer="layer1"
     showgrid="true"
     inkscape:grid-bbox="true"
     inkscape:document-units="px"
     inkscape:window-width="1272"
     inkscape:window-height="949"
     inkscape:window-x="0"
     inkscape:window-y="24" />
  <metadata
     id="metadata3264">
    <rdf:RDF>
      <cc:Work
         rdf:about="">
        <dc:format>image/svg+xml</dc:format>
        <dc:type
           rdf:resource="http://purl.org/dc/dcmitype/StillImage" />
      </cc:Work>
    </rdf:RDF>
  </metadata>
  <g
     id="layer1"
     inkscape:label="Layer 1"
     inkscape:groupmode="layer">
    <path
       style="font-size:64.47024536px;font-style:normal;font-weight:bold;fill:#729fcf;fill-opacity:1;stroke:#204a87;stroke-width:0.99999946px;stroke-linecap:butt;stroke-linejoin:miter;stroke-opacity:1;font-family:Gentium"
       d="M 36,26.665067 L 31.596874,38.608787 L 40.419195,38.608787 L 36,26.665067 M 34.168042,23.466144 L 37.848027,23.466144 L 46.991746,47.46611 L 43.617088,47.46611 L 41.431593,41.309386 L 30.616617,41.309386 L 28.431122,47.46611 L 25.008254,47.46611 L 34.168042,23.466144"
       id="text2168" />
    <path
       style="font-size:64.47024536px;font-style:normal;font-weight:bold;fill:#babdb6;fill-opacity:1;stroke:#888a85;stroke-width:1px;stroke-linecap:butt;stroke-linejoin:miter;stroke-opacity:1;font-family:Gentium"
       d="M -0.968376,6.764567 L -9.593618,30.154387 L 7.688344,30.154387 L -0.968376,6.764567 M -4.556981,0.499999 L 2.651706,0.499999 L 20.563248,47.5 L 13.952661,47.5 L 9.67152,35.443068 L -11.513835,35.443068 L -15.794977,47.5 L -22.5,47.5 L -4.556981,0.499999"
       id="path3279" />
    <path
       style="font-size:64.47024536px;font-style:normal;font-weight:bold;opacity:0.5;fill:#eeeeec;fill-opacity:1;stroke:#eeeeec;stroke-width:0;stroke-linecap:butt;stroke-linejoin:miter;stroke-miterlimit:4;stroke-dasharray:none;stroke-opacity:1;font-family:Gentium"
       d="M -3.77682,1 L -3.77682,1.50001 L -4.174132,1.026792 L -21.468416,46.313446 L -21.718411,47.00096 L -20.999676,47.00096 L -16.495346,46.929531 L -16.151603,46.929531 L -16.026605,46.585774 L -11.941866,34.938219 L 10.026474,34.86679 L 14.325498,46.657203 L 14.450496,47.00096 L 14.794239,47.00096 L 19.20482,47.00096 L 19.923556,47.00096 L 19.673561,46.313446 L 2.339098,1.312506 L 2.214101,1 L 1.870357,1 L -3.77682,1 z M -3.433077,2.00002 L 1.526614,2.00002 L 18.486085,46.00094 L 15.169231,46.00094 L 10.870207,34.210527 L 10.74521,33.86677 L 10.370218,33.86677 L -12.285609,33.938199 L -12.660602,33.938199 L -12.785599,34.281956 L -16.870338,45.929511 L -20.28094,46.00094 L -3.433077,2.00002 z M -1.437597,3.451025 L -11.490995,30.969349 L -11.74099,31.656863 L -11.022254,31.656863 L 9.330079,31.656863 L 10.048815,31.656863 L 9.79882,30.969349 L -0.500115,3.451025 L -0.968856,3.607278 L -1.437597,3.451025 z M -0.968856,5.076057 L 8.611343,30.656843 L -10.303519,30.656843 L -0.968856,5.076057 z "
       id="text3155"
       sodipodi:nodetypes="cccccccccccccccccccccccccccccccccccccccccccccccc" />
    <path
       style="font-size:64.47024536px;font-style:normal;font-weight:bold;fill:url(#linearGradient3225);fill-opacity:1.0;stroke:#204a87;stroke-width:0.99999946px;stroke-linecap:butt;stroke-linejoin:miter;stroke-opacity:1;font-family:Gentium;opacity:0.7"
       d="M 36,26.665067 L 31.596874,38.608787 L 40.419195,38.608787 L 36,26.665067 M 34.168042,23.466144 L 37.848027,23.466144 L 46.991746,47.46611 L 43.617088,47.46611 L 41.431593,41.309386 L 30.616617,41.309386 L 28.431122,47.46611 L 25.008254,47.46611 L 34.168042,23.466144"
       id="path3213" />
    <path
       style="font-size:64.47024536px;font-style:normal;font-weight:bold;fill:url(#linearGradient3223);fill-opacity:1.0;stroke:#888a85;stroke-width:1px;stroke-linecap:butt;stroke-linejoin:miter;stroke-opacity:1;font-family:Gentium;opacity:0.7"
       d="M -0.968376,6.764567 L -9.593618,30.154387 L 7.688344,30.154387 L -0.968376,6.764567 M -4.556981,0.499999 L 2.651706,0.499999 L 20.563248,47.5 L 13.952661,47.5 L 9.67152,35.443068 L -11.513835,35.443068 L -15.794977,47.5 L -22.5,47.5 L -4.556981,0.499999"
       id="path3215" />
  </g>
</svg>
