<?xml version="1.0" encoding="UTF-8" standalone="no"?>
<!-- Created with Inkscape (http://www.inkscape.org/) -->
<svg
   xmlns:dc="http://purl.org/dc/elements/1.1/"
   xmlns:cc="http://web.resource.org/cc/"
   xmlns:rdf="http://www.w3.org/1999/02/22-rdf-syntax-ns#"
   xmlns:svg="http://www.w3.org/2000/svg"
   xmlns="http://www.w3.org/2000/svg"
   xmlns:xlink="http://www.w3.org/1999/xlink"
   xmlns:sodipodi="http://sodipodi.sourceforge.net/DTD/sodipodi-0.dtd"
   xmlns:inkscape="http://www.inkscape.org/namespaces/inkscape"
   width="48"
   height="48"
   id="svg1872"
   sodipodi:version="0.32"
   inkscape:version="0.45"
   sodipodi:docbase="/home/lse/public_html/Bambus/System/Icons/0.12/scalable/actions"
   sodipodi:docname="large-clean.svg"
   inkscape:export-filename="/home/lse/public_html/Bambus/System/Icons/actions/48x48/action-clean.png"
   inkscape:export-xdpi="67.5"
   inkscape:export-ydpi="67.5"
   version="1.0"
   inkscape:output_extension="org.inkscape.output.svg.inkscape"
   sodipodi:modified="true">
  <defs
     id="defs1874">
    <linearGradient
       inkscape:collect="always"
       id="linearGradient3276">
      <stop
         style="stop-color:#ffffff;stop-opacity:1;"
         offset="0"
         id="stop3278" />
      <stop
         style="stop-color:#ffffff;stop-opacity:0;"
         offset="1"
         id="stop3280" />
    </linearGradient>
    <linearGradient
       inkscape:collect="always"
       id="linearGradient2771">
      <stop
         style="stop-color:white;stop-opacity:1;"
         offset="0"
         id="stop2773" />
      <stop
         style="stop-color:white;stop-opacity:0;"
         offset="1"
         id="stop2775" />
    </linearGradient>
    <linearGradient
       inkscape:collect="always"
       id="linearGradient2792">
      <stop
         style="stop-color:white;stop-opacity:1;"
         offset="0"
         id="stop2794" />
      <stop
         style="stop-color:white;stop-opacity:0;"
         offset="1"
         id="stop2796" />
    </linearGradient>
    <linearGradient
       inkscape:collect="always"
       xlink:href="#linearGradient2792"
       id="linearGradient2798"
       x1="30.453125"
       y1="-1.9119319"
       x2="30.453125"
       y2="54.815342"
       gradientUnits="userSpaceOnUse"
       gradientTransform="matrix(1.017414,0,0,1.017414,0.563744,-0.430045)" />
    <linearGradient
       inkscape:collect="always"
       xlink:href="#linearGradient2771"
       id="linearGradient2777"
       x1="27.636364"
       y1="-3.090909"
       x2="27.09091"
       y2="67.818184"
       gradientUnits="userSpaceOnUse" />
    <linearGradient
       inkscape:collect="always"
       xlink:href="#linearGradient2771"
       id="linearGradient2791"
       gradientUnits="userSpaceOnUse"
       x1="27.636364"
       y1="-3.090909"
       x2="26.844149"
       y2="70.532555" />
    <linearGradient
       inkscape:collect="always"
       xlink:href="#linearGradient2792"
       id="linearGradient2793"
       gradientUnits="userSpaceOnUse"
       gradientTransform="matrix(1.017414,0,0,1.017414,0.563744,-0.430045)"
       x1="36.821243"
       y1="-3.6487956"
       x2="36.821243"
       y2="69.380852" />
    <linearGradient
       inkscape:collect="always"
       xlink:href="#linearGradient2792"
       id="linearGradient3255"
       gradientUnits="userSpaceOnUse"
       gradientTransform="matrix(0.7496489,0,0,0.7496489,1.3060847,8.0431032e-3)"
       x1="36.821243"
       y1="-3.6487956"
       x2="36.821243"
       y2="69.380852" />
    <linearGradient
       inkscape:collect="always"
       xlink:href="#linearGradient2771"
       id="linearGradient3265"
       gradientUnits="userSpaceOnUse"
       x1="27.636364"
       y1="-3.090909"
       x2="26.844149"
       y2="70.532555"
       gradientTransform="matrix(0.736818,0,0,0.736818,0.890708,0.324908)" />
    <linearGradient
       inkscape:collect="always"
       xlink:href="#linearGradient3276"
       id="linearGradient3282"
       x1="23.52737"
       y1="-0.27610847"
       x2="23.52737"
       y2="49.944931"
       gradientUnits="userSpaceOnUse" />
  </defs>
  <sodipodi:namedview
     id="base"
     pagecolor="#ffffff"
     bordercolor="#666666"
     borderopacity="1.0"
     inkscape:pageopacity="0.0"
     inkscape:pageshadow="2"
     inkscape:zoom="15.556349"
     inkscape:cx="32"
     inkscape:cy="32.359802"
     inkscape:current-layer="layer1"
     showgrid="true"
     inkscape:document-units="px"
     inkscape:grid-bbox="true"
     inkscape:window-width="1272"
     inkscape:window-height="945"
     inkscape:window-x="0"
     inkscape:window-y="25"
     width="48px"
     height="48px" />
  <metadata
     id="metadata1877">
    <rdf:RDF>
      <cc:Work
         rdf:about="">
        <dc:format>image/svg+xml</dc:format>
        <dc:type
           rdf:resource="http://purl.org/dc/dcmitype/StillImage" />
      </cc:Work>
    </rdf:RDF>
  </metadata>
  <g
     id="layer1"
     inkscape:label="Layer 1"
     inkscape:groupmode="layer">
    <path
       style="fill:#fce94f;fill-opacity:1;stroke:#c4a000;stroke-width:0.99999994;stroke-miterlimit:4;stroke-dasharray:none;stroke-opacity:1"
       d="M 13.373188,30.269808 L 34.626806,30.269808 L 39.271637,47.300851 L 8.7283581,47.300851 L 13.373188,30.269808 z "
       id="rect2775"
       sodipodi:nodetypes="ccccc" />
    <path
       style="fill:url(#linearGradient3265);fill-opacity:1;stroke:none;stroke-width:2;stroke-miterlimit:4;stroke-dasharray:none;stroke-opacity:1"
       d="M 13.709365,30.539196 L 34.290634,30.539196 L 38.788527,47.03147 L 9.2114721,47.03147 L 13.709365,30.539196 z "
       id="path2769"
       sodipodi:nodetypes="ccccc" />
    <path
       style="fill:none;fill-rule:evenodd;stroke:#c4a000;stroke-width:1.22089672;stroke-linecap:butt;stroke-linejoin:miter;stroke-miterlimit:4;stroke-dasharray:none;stroke-opacity:1"
       d="M 15.617562,31.765894 C 13.027867,46.895171 12.073768,46.895171 12.073768,46.895171"
       id="path2778" />
    <path
       style="fill:none;fill-rule:evenodd;stroke:#c4a000;stroke-width:1.22089672;stroke-linecap:butt;stroke-linejoin:miter;stroke-miterlimit:4;stroke-dasharray:none;stroke-opacity:1"
       d="M 18.752458,32.038494 C 16.844261,47.031471 15.617562,46.895171 15.617562,46.895171"
       id="path2780" />
    <path
       style="fill:none;fill-rule:evenodd;stroke:#c4a000;stroke-width:1.22089672;stroke-linecap:butt;stroke-linejoin:miter;stroke-miterlimit:4;stroke-dasharray:none;stroke-opacity:1"
       d="M 31.292038,31.765894 C 33.200236,46.349972 35.040283,46.895171 35.040283,46.895171"
       id="path2782" />
    <path
       style="fill:none;fill-rule:evenodd;stroke:#c4a000;stroke-width:1.22089672;stroke-linecap:butt;stroke-linejoin:miter;stroke-miterlimit:4;stroke-dasharray:none;stroke-opacity:1"
       d="M 27.543794,31.765894 C 28.702343,46.758871 29.929041,46.895171 29.929041,46.895171"
       id="path2784" />
    <path
       style="fill:none;fill-rule:evenodd;stroke:#c4a000;stroke-width:1.22089672;stroke-linecap:butt;stroke-linejoin:miter;stroke-miterlimit:4;stroke-dasharray:none;stroke-opacity:1"
       d="M 24.20445,31.902195 C 24.340749,46.895171 25.703747,47.031471 25.703747,47.031471"
       id="path2786" />
    <path
       style="fill:none;fill-rule:evenodd;stroke:#c4a000;stroke-width:1.22089672;stroke-linecap:butt;stroke-linejoin:miter;stroke-miterlimit:4;stroke-dasharray:none;stroke-opacity:1"
       d="M 21.069554,32.038494 C 20.933254,46.895171 18.888757,46.895171 18.888757,46.895171"
       id="path2788" />
    <path
       style="opacity:0.5;fill:none;fill-opacity:1;stroke:#eeeeec;stroke-width:0.99999988;stroke-miterlimit:4;stroke-dasharray:none;stroke-opacity:1"
       d="M 14.046631,30.809453 L 33.953361,30.809453 L 38.303839,46.761203 L 9.6961532,46.761203 L 14.046631,30.809453 z "
       id="path3270"
       sodipodi:nodetypes="ccccc" />
    <path
       style="fill:#c17d11;fill-opacity:1;stroke:#8f5902;stroke-width:0.99999988;stroke-miterlimit:4;stroke-dasharray:none;stroke-opacity:1"
       d="M 23.712438,0.4846838 C 21.21432,0.4846838 19.194588,2.4802556 19.194588,4.978374 L 19.194588,13.168488 C 19.194588,14.986637 20.260814,21.413559 21.803828,24.789266 L 14.676739,24.789266 C 12.321079,24.789266 10.424644,26.479754 10.424644,28.582328 C 10.424644,30.6849 12.32108,32.375388 14.676739,32.375389 L 33.593726,32.375389 C 35.949386,32.375389 37.845819,30.684899 37.845818,28.582328 C 37.845818,26.479755 35.949386,24.789266 33.593726,24.789266 L 25.62105,24.789266 C 27.164063,21.413558 28.230288,14.986637 28.230288,13.168488 L 28.230288,4.978374 C 28.230288,2.4802556 26.210556,0.4846837 23.712438,0.4846838 z "
       id="rect1882" />
    <path
       style="fill:none;fill-opacity:1;stroke:#eeeeec;stroke-width:1;stroke-miterlimit:4;stroke-dasharray:none;stroke-opacity:1;opacity:0.5"
       d="M 23.686684,1.4591686 C 21.094788,1.4591686 20.287618,3.6228302 20.287618,5.8933139 L 20.287618,14.337125 C 20.287618,15.989599 21.886589,22.686723 23.289001,25.754827 L 15.447713,25.754827 C 13.306707,25.754827 11.401261,26.65491 11.401261,28.565892 C 11.401261,30.476873 13.269051,31.43667 15.410057,31.436671 L 32.860411,31.372389 C 35.001419,31.372389 36.725044,30.514528 36.725043,28.603548 C 36.725043,26.692567 35.065701,25.834707 32.924693,25.834707 L 24.031115,25.845736 C 25.433526,22.777631 27.150031,16.118164 27.150031,14.46569 L 27.150031,6.0218788 C 27.150031,3.7513951 26.214297,1.4591686 23.686684,1.4591686 z "
       id="path3272"
       sodipodi:nodetypes="cccccsccsccccz" />
    <path
       style="fill:url(#linearGradient3282);fill-opacity:1.0;stroke:#8f5902;stroke-width:0.99999988;stroke-miterlimit:4;stroke-dasharray:none;stroke-opacity:1;opacity:0.7"
       d="M 23.712438,0.4846838 C 21.21432,0.4846838 19.194588,2.4802556 19.194588,4.978374 L 19.194588,13.168488 C 19.194588,14.986637 20.260814,21.413559 21.803828,24.789266 L 14.676739,24.789266 C 12.321079,24.789266 10.424644,26.479754 10.424644,28.582328 C 10.424644,30.6849 12.32108,32.375388 14.676739,32.375389 L 33.593726,32.375389 C 35.949386,32.375389 37.845819,30.684899 37.845818,28.582328 C 37.845818,26.479755 35.949386,24.789266 33.593726,24.789266 L 25.62105,24.789266 C 27.164063,21.413558 28.230288,14.986637 28.230288,13.168488 L 28.230288,4.978374 C 28.230288,2.4802556 26.210556,0.4846837 23.712438,0.4846838 z "
       id="path3274" />
  </g>
</svg>
