<?xml version="1.0" encoding="UTF-8" standalone="no"?>
<!-- Created with Inkscape (http://www.inkscape.org/) -->
<svg
   xmlns:dc="http://purl.org/dc/elements/1.1/"
   xmlns:cc="http://web.resource.org/cc/"
   xmlns:rdf="http://www.w3.org/1999/02/22-rdf-syntax-ns#"
   xmlns:svg="http://www.w3.org/2000/svg"
   xmlns="http://www.w3.org/2000/svg"
   xmlns:xlink="http://www.w3.org/1999/xlink"
   xmlns:sodipodi="http://sodipodi.sourceforge.net/DTD/sodipodi-0.dtd"
   xmlns:inkscape="http://www.inkscape.org/namespaces/inkscape"
   width="48px"
   height="48px"
   id="svg2160"
   sodipodi:version="0.32"
   inkscape:version="0.45"
   sodipodi:docname="large-format-list-ordered.svg"
   sodipodi:docbase="/home/lse/public_html/Bambus 0.13 Developement/System/Icons/0.12/scalable/actions"
   inkscape:output_extension="org.inkscape.output.svg.inkscape"
   sodipodi:modified="true">
  <defs
     id="defs2162">
    <linearGradient
       inkscape:collect="always"
       id="linearGradient3149">
      <stop
         style="stop-color:#ffffff;stop-opacity:1;"
         offset="0"
         id="stop3151" />
      <stop
         style="stop-color:#ffffff;stop-opacity:0;"
         offset="1"
         id="stop3153" />
    </linearGradient>
    <linearGradient
       inkscape:collect="always"
       xlink:href="#linearGradient3149"
       id="linearGradient3155"
       x1="25.75889"
       y1="-1.8005207"
       x2="25.75889"
       y2="50.116405"
       gradientUnits="userSpaceOnUse" />
    <linearGradient
       inkscape:collect="always"
       xlink:href="#linearGradient3149"
       id="linearGradient3157"
       x1="25.75889"
       y1="-1.8005207"
       x2="25.75889"
       y2="50.116405"
       gradientUnits="userSpaceOnUse" />
    <linearGradient
       inkscape:collect="always"
       xlink:href="#linearGradient3149"
       id="linearGradient3159"
       x1="25.75889"
       y1="-1.8005207"
       x2="25.75889"
       y2="50.116405"
       gradientUnits="userSpaceOnUse" />
    <linearGradient
       inkscape:collect="always"
       xlink:href="#linearGradient3149"
       id="linearGradient3161"
       x1="25.75889"
       y1="-1.8005207"
       x2="25.75889"
       y2="50.116405"
       gradientUnits="userSpaceOnUse" />
    <linearGradient
       inkscape:collect="always"
       xlink:href="#linearGradient3149"
       id="linearGradient3163"
       x1="25.75889"
       y1="-1.8005207"
       x2="25.75889"
       y2="50.116405"
       gradientUnits="userSpaceOnUse" />
    <linearGradient
       inkscape:collect="always"
       xlink:href="#linearGradient3149"
       id="linearGradient3165"
       x1="25.75889"
       y1="-1.8005207"
       x2="25.75889"
       y2="50.116405"
       gradientUnits="userSpaceOnUse" />
  </defs>
  <sodipodi:namedview
     id="base"
     pagecolor="#ffffff"
     bordercolor="#666666"
     borderopacity="1.0"
     inkscape:pageopacity="0.0"
     inkscape:pageshadow="2"
     inkscape:zoom="9.8994949"
     inkscape:cx="24"
     inkscape:cy="23.949492"
     inkscape:current-layer="layer1"
     showgrid="true"
     inkscape:grid-bbox="true"
     inkscape:document-units="px"
     inkscape:window-width="1272"
     inkscape:window-height="949"
     inkscape:window-x="0"
     inkscape:window-y="24" />
  <metadata
     id="metadata2165">
    <rdf:RDF>
      <cc:Work
         rdf:about="">
        <dc:format>image/svg+xml</dc:format>
        <dc:type
           rdf:resource="http://purl.org/dc/dcmitype/StillImage" />
      </cc:Work>
    </rdf:RDF>
  </metadata>
  <g
     id="layer1"
     inkscape:label="Layer 1"
     inkscape:groupmode="layer">
    <path
       style="font-size:16.46081734px;font-style:normal;font-weight:normal;fill:#729fcf;fill-opacity:1;stroke:#204a87;stroke-width:1px;stroke-linecap:butt;stroke-linejoin:miter;stroke-opacity:1;font-family:DejaVu Sans Mono"
       d="M 0.69290019,11.133624 L 3.2166779,11.133624 L 3.2166779,1.9628264 L 0.49999999,2.573677 L 0.49999999,1.0947755 L 3.2006028,0.49999986 L 4.8241795,0.49999986 L 4.8241795,11.133624 L 7.3158072,11.133624 L 7.3158072,12.5 L 0.69290019,12.5 L 0.69290019,11.133624"
       id="text2168" />
    <path
       style="font-size:16.16842079px;font-style:normal;font-weight:normal;fill:#729fcf;fill-opacity:1;stroke:#204a87;stroke-width:1px;stroke-linecap:butt;stroke-linejoin:miter;stroke-opacity:1;font-family:DejaVu Sans"
       d="M 2.2447368,28.657895 L 7.6605262,28.657895 L 7.6605262,30 L 0.49999999,30 L 0.49999999,28.657895 C 1.4842083,27.621055 2.3447338,26.705267 3.0815789,25.910526 C 3.8184165,25.115794 4.3263107,24.555269 4.6052631,24.228947 C 5.131573,23.586849 5.4868358,23.068428 5.6710525,22.673684 C 5.8552565,22.273692 5.9473617,21.865798 5.9473683,21.45 C 5.9473617,20.792115 5.752625,20.276326 5.3631578,19.902632 C 4.9789416,19.528958 4.4499948,19.342116 3.7763157,19.342105 C 3.2973644,19.342116 2.7947333,19.428958 2.268421,19.602632 C 1.7421028,19.776326 1.1842086,20.039484 0.59473683,20.392105 L 0.59473683,18.781579 C 1.1368403,18.523696 1.6684187,18.328959 2.1894736,18.197369 C 2.715786,18.065802 3.2342065,18.000012 3.7447368,18 C 4.8973627,18.000012 5.8236776,18.307907 6.5236841,18.923684 C 7.2289393,19.534221 7.5815705,20.336852 7.5815788,21.331579 C 7.5815705,21.83685 7.4631496,22.342113 7.2263157,22.847369 C 6.994729,23.352638 6.6157821,23.910533 6.0894736,24.521053 C 5.7947303,24.863163 5.3657833,25.336847 4.8026315,25.942105 C 4.2447318,26.547372 3.3921011,27.452634 2.2447368,28.657895"
       id="text2172" />
    <path
       style="font-size:15.8657198px;font-style:normal;font-weight:normal;fill:#729fcf;fill-opacity:1;stroke:#204a87;stroke-width:1px;stroke-linecap:butt;stroke-linejoin:miter;stroke-opacity:1;font-family:DejaVu Sans"
       d="M 5.4502905,41.085537 C 6.2094832,41.286964 6.7905026,41.645905 7.1933505,42.162361 C 7.5961829,42.673663 7.797603,43.314076 7.7976113,44.083601 C 7.797603,45.147515 7.4386621,45.984183 6.7207876,46.593607 C 6.0080631,47.197868 5.0190389,47.499998 3.7537121,47.499998 C 3.2217522,47.499998 2.6794674,47.450934 2.126856,47.352807 C 1.5742393,47.254679 1.0319545,47.112652 0.49999999,46.926725 L 0.49999999,45.369592 C 1.0267899,45.643318 1.5458339,45.847321 2.0571336,45.981599 C 2.5684281,46.115881 3.0771429,46.183021 3.5832795,46.18302 C 4.4406018,46.183021 5.0990905,45.989348 5.5587476,45.602 C 6.0183924,45.214655 6.2482178,44.656876 6.2482246,43.928662 C 6.2482178,43.257265 6.0183924,42.725309 5.5587476,42.332794 C 5.0990905,41.935123 4.4767541,41.736285 3.6917366,41.73628 L 2.4987088,41.73628 L 2.4987088,40.450289 L 3.6917366,40.450289 C 4.4096141,40.450296 4.9699751,40.292775 5.3728212,39.977726 C 5.7756554,39.662692 5.9770754,39.223699 5.977082,38.660747 C 5.9770754,38.066825 5.7885669,37.612339 5.4115558,37.297287 C 5.0396974,36.977091 4.5077418,36.816987 3.8156875,36.816977 C 3.3560322,36.816987 2.8808874,36.868634 2.3902518,36.971916 C 1.8996102,37.075218 1.3857308,37.230157 0.84861199,37.436732 L 0.84861199,35.995802 C 1.4735293,35.830546 2.0287256,35.706595 2.5142027,35.623949 C 3.0048383,35.541327 3.4386661,35.50001 3.8156875,35.499998 C 4.9415697,35.50001 5.8402131,35.784064 6.5116204,36.352161 C 7.1881782,36.915115 7.5264606,37.663985 7.5264687,38.598772 C 7.5264606,39.234028 7.3482813,39.763402 6.9919303,40.186893 C 6.6407287,40.610399 6.1268493,40.909947 5.4502905,41.085537"
       id="text2176" />
    <rect
       style="opacity:1;color:#000000;fill:#3465a4;fill-opacity:1;fill-rule:nonzero;stroke:#204a87;stroke-width:0.99999994;stroke-linecap:square;stroke-linejoin:miter;marker:none;marker-start:none;marker-mid:none;marker-end:none;stroke-miterlimit:4;stroke-dasharray:none;stroke-dashoffset:0;stroke-opacity:1;visibility:visible;display:inline;overflow:visible;enable-background:accumulate"
       id="rect3151"
       width="35"
       height="5"
       x="12.5"
       y="4.5" />
    <rect
       style="opacity:1;color:#000000;fill:#3465a4;fill-opacity:1;fill-rule:nonzero;stroke:#204a87;stroke-width:0.99999994;stroke-linecap:square;stroke-linejoin:miter;marker:none;marker-start:none;marker-mid:none;marker-end:none;stroke-miterlimit:4;stroke-dasharray:none;stroke-dashoffset:0;stroke-opacity:1;visibility:visible;display:inline;overflow:visible;enable-background:accumulate"
       id="rect3153"
       width="35"
       height="5"
       x="12.5"
       y="21.5" />
    <rect
       style="opacity:1;color:#000000;fill:#3465a4;fill-opacity:1;fill-rule:nonzero;stroke:#204a87;stroke-width:0.99999994;stroke-linecap:square;stroke-linejoin:miter;marker:none;marker-start:none;marker-mid:none;marker-end:none;stroke-miterlimit:4;stroke-dasharray:none;stroke-dashoffset:0;stroke-opacity:1;visibility:visible;display:inline;overflow:visible;enable-background:accumulate"
       id="rect3155"
       width="35"
       height="5"
       x="12.5"
       y="38.5" />
    <rect
       style="opacity:0.5;color:#000000;fill:#3465a4;fill-opacity:1;fill-rule:nonzero;stroke:#eeeeec;stroke-width:1.00000012;stroke-linecap:square;stroke-linejoin:miter;marker:none;marker-start:none;marker-mid:none;marker-end:none;stroke-miterlimit:4;stroke-dasharray:none;stroke-dashoffset:0;stroke-opacity:1;visibility:visible;display:inline;overflow:visible;enable-background:accumulate"
       id="rect3157"
       width="33"
       height="3"
       x="13.499999"
       y="5.5" />
    <rect
       style="opacity:0.5;color:#000000;fill:#3465a4;fill-opacity:1;fill-rule:nonzero;stroke:#eeeeec;stroke-width:1.00000012;stroke-linecap:square;stroke-linejoin:miter;marker:none;marker-start:none;marker-mid:none;marker-end:none;stroke-miterlimit:4;stroke-dasharray:none;stroke-dashoffset:0;stroke-opacity:1;visibility:visible;display:inline;overflow:visible;enable-background:accumulate"
       id="rect3159"
       width="33"
       height="2.9233456"
       x="13.5"
       y="22.576656" />
    <rect
       style="opacity:0.5;color:#000000;fill:#3465a4;fill-opacity:1;fill-rule:nonzero;stroke:#eeeeec;stroke-width:1.00000012;stroke-linecap:square;stroke-linejoin:miter;marker:none;marker-start:none;marker-mid:none;marker-end:none;stroke-miterlimit:4;stroke-dasharray:none;stroke-dashoffset:0;stroke-opacity:1;visibility:visible;display:inline;overflow:visible;enable-background:accumulate"
       id="rect3161"
       width="33"
       height="3"
       x="13.5"
       y="39.5" />
    <path
       style="font-size:16.46081734px;font-style:normal;font-weight:normal;fill:url(#linearGradient3155);fill-opacity:1.0;stroke:#204a87;stroke-width:1px;stroke-linecap:butt;stroke-linejoin:miter;stroke-opacity:1;font-family:DejaVu Sans Mono;opacity:0.7"
       d="M 0.69290019,11.133624 L 3.2166779,11.133624 L 3.2166779,1.9628264 L 0.49999999,2.573677 L 0.49999999,1.0947755 L 3.2006028,0.49999986 L 4.8241795,0.49999986 L 4.8241795,11.133624 L 7.3158072,11.133624 L 7.3158072,12.5 L 0.69290019,12.5 L 0.69290019,11.133624"
       id="path2166" />
    <path
       style="font-size:16.16842079px;font-style:normal;font-weight:normal;fill:url(#linearGradient3157);fill-opacity:1.0;stroke:#204a87;stroke-width:1px;stroke-linecap:butt;stroke-linejoin:miter;stroke-opacity:1;font-family:DejaVu Sans;opacity:0.7"
       d="M 2.2447368,28.657895 L 7.6605262,28.657895 L 7.6605262,30 L 0.49999999,30 L 0.49999999,28.657895 C 1.4842083,27.621055 2.3447338,26.705267 3.0815789,25.910526 C 3.8184165,25.115794 4.3263107,24.555269 4.6052631,24.228947 C 5.131573,23.586849 5.4868358,23.068428 5.6710525,22.673684 C 5.8552565,22.273692 5.9473617,21.865798 5.9473683,21.45 C 5.9473617,20.792115 5.752625,20.276326 5.3631578,19.902632 C 4.9789416,19.528958 4.4499948,19.342116 3.7763157,19.342105 C 3.2973644,19.342116 2.7947333,19.428958 2.268421,19.602632 C 1.7421028,19.776326 1.1842086,20.039484 0.59473683,20.392105 L 0.59473683,18.781579 C 1.1368403,18.523696 1.6684187,18.328959 2.1894736,18.197369 C 2.715786,18.065802 3.2342065,18.000012 3.7447368,18 C 4.8973627,18.000012 5.8236776,18.307907 6.5236841,18.923684 C 7.2289393,19.534221 7.5815705,20.336852 7.5815788,21.331579 C 7.5815705,21.83685 7.4631496,22.342113 7.2263157,22.847369 C 6.994729,23.352638 6.6157821,23.910533 6.0894736,24.521053 C 5.7947303,24.863163 5.3657833,25.336847 4.8026315,25.942105 C 4.2447318,26.547372 3.3921011,27.452634 2.2447368,28.657895"
       id="path2168" />
    <path
       style="font-size:15.8657198px;font-style:normal;font-weight:normal;fill:url(#linearGradient3159);fill-opacity:1.0;stroke:#204a87;stroke-width:1px;stroke-linecap:butt;stroke-linejoin:miter;stroke-opacity:1;font-family:DejaVu Sans;opacity:0.7"
       d="M 5.4502905,41.085537 C 6.2094832,41.286964 6.7905026,41.645905 7.1933505,42.162361 C 7.5961829,42.673663 7.797603,43.314076 7.7976113,44.083601 C 7.797603,45.147515 7.4386621,45.984183 6.7207876,46.593607 C 6.0080631,47.197868 5.0190389,47.499998 3.7537121,47.499998 C 3.2217522,47.499998 2.6794674,47.450934 2.126856,47.352807 C 1.5742393,47.254679 1.0319545,47.112652 0.49999999,46.926725 L 0.49999999,45.369592 C 1.0267899,45.643318 1.5458339,45.847321 2.0571336,45.981599 C 2.5684281,46.115881 3.0771429,46.183021 3.5832795,46.18302 C 4.4406018,46.183021 5.0990905,45.989348 5.5587476,45.602 C 6.0183924,45.214655 6.2482178,44.656876 6.2482246,43.928662 C 6.2482178,43.257265 6.0183924,42.725309 5.5587476,42.332794 C 5.0990905,41.935123 4.4767541,41.736285 3.6917366,41.73628 L 2.4987088,41.73628 L 2.4987088,40.450289 L 3.6917366,40.450289 C 4.4096141,40.450296 4.9699751,40.292775 5.3728212,39.977726 C 5.7756554,39.662692 5.9770754,39.223699 5.977082,38.660747 C 5.9770754,38.066825 5.7885669,37.612339 5.4115558,37.297287 C 5.0396974,36.977091 4.5077418,36.816987 3.8156875,36.816977 C 3.3560322,36.816987 2.8808874,36.868634 2.3902518,36.971916 C 1.8996102,37.075218 1.3857308,37.230157 0.84861199,37.436732 L 0.84861199,35.995802 C 1.4735293,35.830546 2.0287256,35.706595 2.5142027,35.623949 C 3.0048383,35.541327 3.4386661,35.50001 3.8156875,35.499998 C 4.9415697,35.50001 5.8402131,35.784064 6.5116204,36.352161 C 7.1881782,36.915115 7.5264606,37.663985 7.5264687,38.598772 C 7.5264606,39.234028 7.3482813,39.763402 6.9919303,40.186893 C 6.6407287,40.610399 6.1268493,40.909947 5.4502905,41.085537"
       id="path2170" />
    <rect
       style="opacity:0.7;color:#000000;fill:url(#linearGradient3161);fill-opacity:1.0;fill-rule:nonzero;stroke:#204a87;stroke-width:0.99999994;stroke-linecap:square;stroke-linejoin:miter;marker:none;marker-start:none;marker-mid:none;marker-end:none;stroke-miterlimit:4;stroke-dasharray:none;stroke-dashoffset:0;stroke-opacity:1;visibility:visible;display:inline;overflow:visible;enable-background:accumulate"
       id="rect2172"
       width="35"
       height="5"
       x="12.5"
       y="4.5" />
    <rect
       style="opacity:0.7;color:#000000;fill:url(#linearGradient3163);fill-opacity:1.0;fill-rule:nonzero;stroke:#204a87;stroke-width:0.99999994;stroke-linecap:square;stroke-linejoin:miter;marker:none;marker-start:none;marker-mid:none;marker-end:none;stroke-miterlimit:4;stroke-dasharray:none;stroke-dashoffset:0;stroke-opacity:1;visibility:visible;display:inline;overflow:visible;enable-background:accumulate"
       id="rect2174"
       width="35"
       height="5"
       x="12.5"
       y="21.5" />
    <rect
       style="opacity:0.7;color:#000000;fill:url(#linearGradient3165);fill-opacity:1.0;fill-rule:nonzero;stroke:#204a87;stroke-width:0.99999994;stroke-linecap:square;stroke-linejoin:miter;marker:none;marker-start:none;marker-mid:none;marker-end:none;stroke-miterlimit:4;stroke-dasharray:none;stroke-dashoffset:0;stroke-opacity:1;visibility:visible;display:inline;overflow:visible;enable-background:accumulate"
       id="rect2176"
       width="35"
       height="5"
       x="12.5"
       y="38.5" />
  </g>
</svg>
