<?xml version="1.0" encoding="UTF-8" standalone="no"?>
<!-- Created with Inkscape (http://www.inkscape.org/) -->
<svg
   xmlns:dc="http://purl.org/dc/elements/1.1/"
   xmlns:cc="http://web.resource.org/cc/"
   xmlns:rdf="http://www.w3.org/1999/02/22-rdf-syntax-ns#"
   xmlns:svg="http://www.w3.org/2000/svg"
   xmlns="http://www.w3.org/2000/svg"
   xmlns:xlink="http://www.w3.org/1999/xlink"
   xmlns:sodipodi="http://sodipodi.sourceforge.net/DTD/sodipodi-0.dtd"
   xmlns:inkscape="http://www.inkscape.org/namespaces/inkscape"
   width="48"
   height="48"
   id="svg1306"
   sodipodi:version="0.32"
   inkscape:version="0.44.1"
   inkscape:export-filename="/home/lse/public_html/Bambus/System/Icons/actions/48x48/action-inform.png"
   inkscape:export-xdpi="67.5"
   inkscape:export-ydpi="67.5"
   sodipodi:docbase="/home/lse/public_html/Chimera/System/Icons/scalable/actions"
   sodipodi:docname="large-inform.svg"
   version="1.0">
  <defs
     id="defs1308">
    <linearGradient
       inkscape:collect="always"
       id="linearGradient2772">
      <stop
         style="stop-color:white;stop-opacity:1;"
         offset="0"
         id="stop2774" />
      <stop
         style="stop-color:white;stop-opacity:0;"
         offset="1"
         id="stop2776" />
    </linearGradient>
    <linearGradient
       inkscape:collect="always"
       id="linearGradient2444">
      <stop
         style="stop-color:#000000;stop-opacity:1;"
         offset="0"
         id="stop2446" />
      <stop
         style="stop-color:#000000;stop-opacity:0;"
         offset="1"
         id="stop2448" />
    </linearGradient>
    <linearGradient
       inkscape:collect="always"
       id="linearGradient2371">
      <stop
         style="stop-color:#ffffff;stop-opacity:1;"
         offset="0"
         id="stop2373" />
      <stop
         style="stop-color:#ffffff;stop-opacity:0;"
         offset="1"
         id="stop2375" />
    </linearGradient>
    <linearGradient
       inkscape:collect="always"
       xlink:href="#linearGradient2371"
       id="linearGradient2377"
       x1="6"
       y1="33"
       x2="58.032207"
       y2="33"
       gradientUnits="userSpaceOnUse"
       gradientTransform="matrix(1.090951,0,0,1.08149,-3.169872,-3.189182)" />
    <linearGradient
       inkscape:collect="always"
       xlink:href="#linearGradient2444"
       id="linearGradient2450"
       x1="68.4198"
       y1="22.24333"
       x2="37.929852"
       y2="42.29945"
       gradientUnits="userSpaceOnUse" />
    <linearGradient
       inkscape:collect="always"
       xlink:href="#linearGradient2772"
       id="linearGradient2778"
       x1="36.402077"
       y1="0.2407169"
       x2="36.402077"
       y2="70.115738"
       gradientUnits="userSpaceOnUse" />
  </defs>
  <sodipodi:namedview
     id="base"
     pagecolor="#ffffff"
     bordercolor="#666666"
     borderopacity="1.0"
     inkscape:pageopacity="0.0"
     inkscape:pageshadow="2"
     inkscape:zoom="11"
     inkscape:cx="27.163432"
     inkscape:cy="19.921377"
     inkscape:current-layer="layer1"
     showgrid="true"
     inkscape:document-units="px"
     inkscape:grid-bbox="true"
     inkscape:window-width="1272"
     inkscape:window-height="945"
     inkscape:window-x="0"
     inkscape:window-y="25"
     showguides="true"
     inkscape:guide-bbox="true"
     width="48px"
     height="48px" />
  <metadata
     id="metadata1311">
    <rdf:RDF>
      <cc:Work
         rdf:about="">
        <dc:format>image/svg+xml</dc:format>
        <dc:type
           rdf:resource="http://purl.org/dc/dcmitype/StillImage" />
      </cc:Work>
    </rdf:RDF>
  </metadata>
  <g
     id="layer1"
     inkscape:label="Layer 1"
     inkscape:groupmode="layer">
    <path
       sodipodi:type="arc"
       style="fill:#3465a4;fill-opacity:1;fill-rule:nonzero;stroke:#204a87;stroke-width:1.22822571;stroke-linecap:square;stroke-linejoin:miter;stroke-miterlimit:4;stroke-dasharray:none;stroke-opacity:1"
       id="path2231"
       sodipodi:cx="36.833836"
       sodipodi:cy="33.85154"
       sodipodi:rx="28.862814"
       sodipodi:ry="28.862814"
       d="M 38.133268,5.0179914 A 28.862814,28.862814 0 1 1 38.082591,5.0157521"
       sodipodi:start="4.7574252"
       sodipodi:end="11.038853"
       sodipodi:open="true"
       transform="matrix(0.8141824,0,0,0.8141828,-5.9894611,-3.5613515)" />
    <path
       transform="scale(1.097231,0.911385)"
       style="font-size:25.91051865px;font-style:normal;font-weight:normal;line-height:125%;fill:white;fill-opacity:1;stroke:none;stroke-width:1px;stroke-linecap:butt;stroke-linejoin:miter;stroke-opacity:1;font-family:Bitstream Vera Sans"
       d="M 13.245036,24.830734 L 13.918709,26.178082 L 15.058772,25.348945 C 16.043371,24.623451 18.168035,23.587029 18.634424,23.587029 C 18.94535,23.587029 19.152635,23.794314 19.152635,24.157061 C 19.152635,24.416166 19.048992,24.986199 18.738066,26.229903 L 15.680625,38.718773 C 15.525162,39.444267 15.369699,40.636153 15.369699,41.413468 C 15.369699,42.760813 16.043373,43.641772 17.027972,43.641772 C 18.99717,43.641772 21.432765,42.449885 25.630265,39.444268 C 26.303938,38.926058 26.511223,38.822415 27.081254,38.407847 L 26.459401,36.956858 L 25.060233,37.837816 C 23.29832,38.926057 22.365539,39.392447 21.89915,39.392447 C 21.588224,39.392447 21.277297,39.08152 21.277297,38.770595 C 21.277297,38.148743 21.640045,36.438645 22.313718,34.003059 L 25.112054,23.846135 C 25.371159,22.913357 25.578444,21.358724 25.578444,20.374125 C 25.578444,19.234063 25.008411,18.456746 24.231097,18.456746 C 22.780109,18.456746 19.670842,20.01138 16.509762,22.395146 L 13.245036,24.830734 M 25.215696,6.7451911 C 23.246499,6.7451911 21.691866,8.4552876 21.691866,10.579948 C 21.691866,12.393683 22.780109,13.533747 24.490202,13.533747 C 26.563041,13.533747 28.065854,11.927293 28.065854,9.8026325 C 28.065854,8.0407189 26.873968,6.7451911 25.215696,6.7451911"
       id="text2249" />
    <path
       sodipodi:type="arc"
       style="fill:url(#linearGradient2778);fill-opacity:1.0;fill-rule:nonzero;stroke:none;stroke-width:2.50985146;stroke-linecap:square;stroke-linejoin:miter;stroke-miterlimit:4;stroke-dasharray:none;stroke-opacity:1;opacity:0.7"
       id="path2770"
       sodipodi:cx="36.833836"
       sodipodi:cy="33.85154"
       sodipodi:rx="28.862814"
       sodipodi:ry="28.862814"
       d="M 38.133268,5.0179914 A 28.862814,28.862814 0 1 1 38.082591,5.0157521"
       sodipodi:start="4.7574252"
       sodipodi:end="11.038853"
       sodipodi:open="true"
       transform="matrix(0.796859,0,0,0.79686,-5.351388,-2.974941)" />
    <path
       sodipodi:type="arc"
       style="fill:none;fill-opacity:1;fill-rule:nonzero;stroke:#eeeeec;stroke-width:1.28161442;stroke-linecap:square;stroke-linejoin:miter;stroke-miterlimit:4;stroke-dasharray:none;stroke-opacity:1;opacity:0.5"
       id="path3223"
       sodipodi:cx="36.833836"
       sodipodi:cy="33.85154"
       sodipodi:rx="28.862814"
       sodipodi:ry="28.862814"
       d="M 38.133268,5.0179914 A 28.862814,28.862814 0 1 1 38.082591,5.0157521"
       sodipodi:start="4.7574252"
       sodipodi:end="11.038853"
       sodipodi:open="true"
       transform="matrix(0.7802657,0,0,0.7802661,-4.7401771,-2.4132163)" />
  </g>
</svg>
