<?xml version="1.0" encoding="UTF-8" standalone="no"?>
<!-- Created with Inkscape (http://www.inkscape.org/) -->
<svg
   xmlns:dc="http://purl.org/dc/elements/1.1/"
   xmlns:cc="http://web.resource.org/cc/"
   xmlns:rdf="http://www.w3.org/1999/02/22-rdf-syntax-ns#"
   xmlns:svg="http://www.w3.org/2000/svg"
   xmlns="http://www.w3.org/2000/svg"
   xmlns:xlink="http://www.w3.org/1999/xlink"
   xmlns:sodipodi="http://sodipodi.sourceforge.net/DTD/sodipodi-0.dtd"
   xmlns:inkscape="http://www.inkscape.org/namespaces/inkscape"
   width="48"
   height="48"
   id="svg1872"
   sodipodi:version="0.32"
   inkscape:version="0.45"
   sodipodi:docbase="/home/lse/public_html/Bambus/System/Icons/0.12/scalable/actions"
   sodipodi:docname="large-repair.svg"
   inkscape:export-filename="/home/lse/public_html/Bambus/System/Icons/actions/22x22/action-repair.png"
   inkscape:export-xdpi="30.9375"
   inkscape:export-ydpi="30.9375"
   version="1.0"
   inkscape:output_extension="org.inkscape.output.svg.inkscape"
   sodipodi:modified="true">
  <defs
     id="defs1874">
    <linearGradient
       inkscape:collect="always"
       id="linearGradient2794">
      <stop
         style="stop-color:white;stop-opacity:1;"
         offset="0"
         id="stop2796" />
      <stop
         style="stop-color:white;stop-opacity:0;"
         offset="1"
         id="stop2798" />
    </linearGradient>
    <linearGradient
       inkscape:collect="always"
       id="linearGradient2785">
      <stop
         style="stop-color:white;stop-opacity:1;"
         offset="0"
         id="stop2787" />
      <stop
         style="stop-color:white;stop-opacity:0;"
         offset="1"
         id="stop2790" />
    </linearGradient>
    <linearGradient
       inkscape:collect="always"
       id="linearGradient2787">
      <stop
         style="stop-color:#a0a0a0;stop-opacity:1;"
         offset="0"
         id="stop2789" />
      <stop
         style="stop-color:#a0a0a0;stop-opacity:0;"
         offset="1"
         id="stop2791" />
    </linearGradient>
    <linearGradient
       inkscape:collect="always"
       id="linearGradient2773">
      <stop
         style="stop-color:#7e7e7e;stop-opacity:1;"
         offset="0"
         id="stop2775" />
      <stop
         style="stop-color:#7e7e7e;stop-opacity:0;"
         offset="1"
         id="stop2777" />
    </linearGradient>
    <linearGradient
       inkscape:collect="always"
       id="linearGradient2801">
      <stop
         style="stop-color:#404040;stop-opacity:1;"
         offset="0"
         id="stop2803" />
      <stop
         style="stop-color:#404040;stop-opacity:0;"
         offset="1"
         id="stop2805" />
    </linearGradient>
    <linearGradient
       inkscape:collect="always"
       xlink:href="#linearGradient2801"
       id="linearGradient2807"
       x1="27.928917"
       y1="53.630772"
       x2="64.09375"
       y2="15.386199"
       gradientUnits="userSpaceOnUse" />
    <linearGradient
       inkscape:collect="always"
       xlink:href="#linearGradient2801"
       id="linearGradient2823"
       gradientUnits="userSpaceOnUse"
       x1="27.928917"
       y1="53.630772"
       x2="64.09375"
       y2="15.386199" />
    <linearGradient
       inkscape:collect="always"
       xlink:href="#linearGradient2801"
       id="linearGradient1878"
       gradientUnits="userSpaceOnUse"
       x1="27.928917"
       y1="53.630772"
       x2="64.09375"
       y2="15.386199"
       gradientTransform="matrix(0.779995,-0.762579,0.762579,0.779995,-16.96847,31.26618)" />
    <linearGradient
       inkscape:collect="always"
       xlink:href="#linearGradient2773"
       id="linearGradient2779"
       x1="13.875289"
       y1="10.710466"
       x2="62.468491"
       y2="62.350616"
       gradientUnits="userSpaceOnUse"
       gradientTransform="translate(-0.909087,1.421442)" />
    <linearGradient
       inkscape:collect="always"
       xlink:href="#linearGradient2773"
       id="linearGradient2781"
       x1="0.60256207"
       y1="31.348722"
       x2="63.923035"
       y2="31.348722"
       gradientUnits="userSpaceOnUse"
       gradientTransform="translate(51.25662,10.18182)" />
    <linearGradient
       inkscape:collect="always"
       xlink:href="#linearGradient2787"
       id="linearGradient2793"
       x1="0.60256207"
       y1="31.348722"
       x2="63.923035"
       y2="31.348722"
       gradientUnits="userSpaceOnUse"
       gradientTransform="translate(-0.602565,1.649384)" />
    <linearGradient
       inkscape:collect="always"
       xlink:href="#linearGradient2801"
       id="linearGradient2795"
       gradientUnits="userSpaceOnUse"
       gradientTransform="matrix(0.779995,-0.762579,0.762579,0.779995,34.28815,41.448)"
       x1="27.928917"
       y1="53.630772"
       x2="64.09375"
       y2="15.386199" />
    <linearGradient
       inkscape:collect="always"
       xlink:href="#linearGradient2785"
       id="linearGradient2792"
       x1="27.272728"
       y1="0.90909094"
       x2="27.272728"
       y2="68.616043"
       gradientUnits="userSpaceOnUse" />
    <linearGradient
       inkscape:collect="always"
       xlink:href="#linearGradient2794"
       id="linearGradient2800"
       x1="23.636364"
       y1="-4"
       x2="23.636364"
       y2="52.387386"
       gradientUnits="userSpaceOnUse" />
  </defs>
  <sodipodi:namedview
     id="base"
     pagecolor="#ffffff"
     bordercolor="#666666"
     borderopacity="1.0"
     inkscape:pageopacity="0.0"
     inkscape:pageshadow="2"
     inkscape:zoom="11"
     inkscape:cx="32"
     inkscape:cy="17.090909"
     inkscape:current-layer="layer1"
     showgrid="true"
     inkscape:document-units="px"
     inkscape:grid-bbox="true"
     inkscape:window-width="1272"
     inkscape:window-height="945"
     inkscape:window-x="0"
     inkscape:window-y="25"
     showguides="true"
     inkscape:guide-bbox="true"
     width="48px"
     height="48px">
    <sodipodi:guide
       orientation="horizontal"
       position="69.454545"
       id="guide2797" />
  </sodipodi:namedview>
  <metadata
     id="metadata1877">
    <rdf:RDF>
      <cc:Work
         rdf:about="">
        <dc:format>image/svg+xml</dc:format>
        <dc:type
           rdf:resource="http://purl.org/dc/dcmitype/StillImage" />
      </cc:Work>
    </rdf:RDF>
  </metadata>
  <g
     id="layer1"
     inkscape:label="Layer 1"
     inkscape:groupmode="layer">
    <path
       style="fill:#555753;fill-opacity:1;stroke:#2e3436;stroke-width:2.00000024;stroke-miterlimit:4;stroke-dasharray:none;stroke-opacity:1"
       d="M 25.367621,4.3012197 C 21.333958,7.9502137 20.066852,13.602891 21.690605,18.512259 L 2.603981,37.392152 C 0.50192543,39.473583 0.4639096,42.880686 2.5020583,45.027384 L 2.8136754,45.352886 C 4.8518247,47.499583 8.1703699,47.556085 10.272426,45.474653 L 29.270909,26.647396 C 33.674675,28.387791 38.851691,27.621205 42.624482,24.208202 C 46.475731,20.724228 47.815198,15.442439 46.521412,10.697169 L 36.570632,20.56163 L 27.932712,11.466455 L 37.900805,1.6200773 C 33.689418,0.27441144 28.909332,1.0972595 25.367621,4.3012197 z "
       id="path1881" />
    <path
       style="fill:url(#linearGradient2800);fill-opacity:1.0;stroke:none;stroke-width:2.00000024;stroke-miterlimit:4;stroke-dasharray:none;stroke-opacity:1;opacity:0.7"
       d="M 25.367621,4.3012197 C 21.333958,7.9502137 20.066852,13.602891 21.690605,18.512259 L 2.603981,37.392152 C 0.50192543,39.473583 0.4639096,42.880686 2.5020583,45.027384 L 2.8136754,45.352886 C 4.8518247,47.499583 8.1703699,47.556085 10.272426,45.474653 L 29.270909,26.647396 C 33.674675,28.387791 38.851691,27.621205 42.624482,24.208202 C 46.475731,20.724228 47.815198,15.442439 46.521412,10.697169 L 36.570632,20.56163 L 27.932712,11.466455 L 37.900805,1.6200773 C 33.689418,0.27441144 28.909332,1.0972595 25.367621,4.3012197 z "
       id="path2790" />
    <path
       style="fill:#eeeeec;fill-opacity:1;stroke:none;stroke-width:2.00000024;stroke-miterlimit:4;stroke-dasharray:none;stroke-opacity:1;opacity:0.5"
       d="M 33.84375 1 C 30.825383 1.0209116 27.809926 2.1097774 25.375 4.3125 C 21.341338 7.9614942 20.063747 13.590632 21.6875 18.5 L 2.59375 37.40625 C 0.49169441 39.487682 0.4618513 42.884552 2.5 45.03125 L 2.8125 45.34375 C 4.8506493 47.490447 8.1791939 47.550182 10.28125 45.46875 L 29.28125 26.65625 C 33.685017 28.396645 38.852209 27.631753 42.625 24.21875 C 46.47625 20.734776 47.825036 15.43277 46.53125 10.6875 L 36.5625 20.5625 L 27.9375 11.46875 L 37.90625 1.625 C 36.590191 1.2044794 35.215735 0.99049472 33.84375 1 z M 33.5 2.03125 C 33.879829 2.0174949 34.246176 2.0095015 34.625 2.03125 C 35.039751 2.0550611 35.432833 2.1832561 35.84375 2.25 L 27.21875 10.75 L 26.53125 11.4375 L 27.21875 12.15625 L 35.84375 21.25 L 36.5625 22 L 37.28125 21.28125 L 45.8125 12.8125 C 46.267998 16.682835 45.041078 20.689415 41.96875 23.46875 C 38.478218 26.626411 33.686278 27.323791 29.625 25.71875 L 29.03125 25.46875 L 28.5625 25.9375 L 9.5625 44.75 C 7.8407916 46.454816 5.2022406 46.416234 3.53125 44.65625 L 3.21875 44.34375 C 1.5486524 42.584705 1.5938612 39.795527 3.3125 38.09375 L 22.40625 19.21875 L 22.84375 18.78125 L 22.625 18.1875 C 21.121813 13.642658 22.301339 8.4054601 26.03125 5.03125 C 28.179104 3.0882233 30.8412 2.1275355 33.5 2.03125 z "
       id="path3268" />
  </g>
</svg>
