<?xml version="1.0" encoding="UTF-8" standalone="no"?>
<!-- Created with Inkscape (http://www.inkscape.org/) -->
<svg
   xmlns:dc="http://purl.org/dc/elements/1.1/"
   xmlns:cc="http://web.resource.org/cc/"
   xmlns:rdf="http://www.w3.org/1999/02/22-rdf-syntax-ns#"
   xmlns:svg="http://www.w3.org/2000/svg"
   xmlns="http://www.w3.org/2000/svg"
   xmlns:xlink="http://www.w3.org/1999/xlink"
   xmlns:sodipodi="http://sodipodi.sourceforge.net/DTD/sodipodi-0.dtd"
   xmlns:inkscape="http://www.inkscape.org/namespaces/inkscape"
   width="48"
   height="48"
   id="svg1908"
   sodipodi:version="0.32"
   inkscape:version="0.45"
   sodipodi:docbase="/home/lse/public_html/Bambus 0.13 Developement/System/Icons/0.12/scalable/actions"
   sodipodi:docname="link.svg"
   inkscape:export-filename="/home/lse/public_html/Bambus/System/Images/Mimetypes/22x22/link.png"
   inkscape:export-xdpi="30.9375"
   inkscape:export-ydpi="30.9375"
   inkscape:output_extension="org.inkscape.output.svg.inkscape"
   sodipodi:modified="true"
   version="1.0">
  <defs
     id="defs1910">
    <linearGradient
       inkscape:collect="always"
       id="linearGradient3217">
      <stop
         style="stop-color:#ffffff;stop-opacity:1;"
         offset="0"
         id="stop3219" />
      <stop
         style="stop-color:#ffffff;stop-opacity:0;"
         offset="1"
         id="stop3221" />
    </linearGradient>
    <linearGradient
       inkscape:collect="always"
       id="linearGradient3192">
      <stop
         style="stop-color:#ffffff;stop-opacity:1;"
         offset="0"
         id="stop3194" />
      <stop
         style="stop-color:#ffffff;stop-opacity:0;"
         offset="1"
         id="stop3196" />
    </linearGradient>
    <linearGradient
       inkscape:collect="always"
       id="linearGradient2917">
      <stop
         style="stop-color:white;stop-opacity:1;"
         offset="0"
         id="stop2919" />
      <stop
         style="stop-color:white;stop-opacity:0;"
         offset="1"
         id="stop2921" />
    </linearGradient>
    <linearGradient
       gradientUnits="userSpaceOnUse"
       y2="51.943184"
       x2="36.275566"
       y1="1.2059659"
       x1="1.622159"
       id="linearGradient3920"
       xlink:href="#linearGradient3914"
       inkscape:collect="always" />
    <linearGradient
       y2="-3.0100007"
       x2="53.010002"
       y1="15.404092"
       x1="38.727276"
       gradientTransform="translate(3.626363,-0.313182)"
       gradientUnits="userSpaceOnUse"
       id="linearGradient3894"
       xlink:href="#linearGradient2780"
       inkscape:collect="always" />
    <linearGradient
       gradientTransform="translate(3.626363,-0.313182)"
       gradientUnits="userSpaceOnUse"
       y2="-3.0100007"
       x2="53.010002"
       y1="15.404092"
       x1="38.727276"
       id="linearGradient2786"
       xlink:href="#linearGradient2780"
       inkscape:collect="always" />
    <linearGradient
       id="linearGradient2780"
       inkscape:collect="always">
      <stop
         id="stop2782"
         offset="0"
         style="stop-color:white;stop-opacity:1;" />
      <stop
         id="stop2784"
         offset="1"
         style="stop-color:white;stop-opacity:0;" />
    </linearGradient>
    <linearGradient
       id="linearGradient3914"
       inkscape:collect="always">
      <stop
         id="stop3916"
         offset="0"
         style="stop-color:white;stop-opacity:1;" />
      <stop
         id="stop3918"
         offset="1"
         style="stop-color:white;stop-opacity:0;" />
    </linearGradient>
    <linearGradient
       inkscape:collect="always"
       xlink:href="#linearGradient2917"
       id="linearGradient2923"
       x1="-1.3572732"
       y1="3.3177893"
       x2="-1.3572732"
       y2="62.597965"
       gradientUnits="userSpaceOnUse" />
    <linearGradient
       inkscape:collect="always"
       xlink:href="#linearGradient2917"
       id="linearGradient2929"
       gradientUnits="userSpaceOnUse"
       x1="-1.3572732"
       y1="3.3177893"
       x2="-1.3572732"
       y2="62.597965"
       gradientTransform="translate(-1.9167518,-16.398877)" />
    <linearGradient
       inkscape:collect="always"
       xlink:href="#linearGradient3192"
       id="linearGradient3198"
       x1="-7.4782119"
       y1="13.323348"
       x2="-7.4782119"
       y2="65.770065"
       gradientUnits="userSpaceOnUse" />
    <linearGradient
       inkscape:collect="always"
       xlink:href="#linearGradient3192"
       id="linearGradient3211"
       gradientUnits="userSpaceOnUse"
       x1="-7.4782119"
       y1="13.323348"
       x2="-7.4782119"
       y2="65.770065" />
    <linearGradient
       inkscape:collect="always"
       xlink:href="#linearGradient3217"
       id="linearGradient3223"
       x1="-7.3466139"
       y1="-6.4641843"
       x2="-7.3466139"
       y2="59.771973"
       gradientUnits="userSpaceOnUse" />
  </defs>
  <sodipodi:namedview
     id="base"
     pagecolor="#ffffff"
     bordercolor="#666666"
     borderopacity="1.0"
     inkscape:pageopacity="0.0"
     inkscape:pageshadow="2"
     inkscape:zoom="5.3934742"
     inkscape:cx="24.044626"
     inkscape:cy="22.784915"
     inkscape:current-layer="layer1"
     showgrid="true"
     inkscape:document-units="px"
     inkscape:grid-bbox="true"
     inkscape:window-width="1272"
     inkscape:window-height="949"
     inkscape:window-x="0"
     inkscape:window-y="24"
     width="48px"
     height="48px" />
  <metadata
     id="metadata1913">
    <rdf:RDF>
      <cc:Work
         rdf:about="">
        <dc:format>image/svg+xml</dc:format>
        <dc:type
           rdf:resource="http://purl.org/dc/dcmitype/StillImage" />
      </cc:Work>
    </rdf:RDF>
  </metadata>
  <g
     id="layer1"
     inkscape:label="Layer 1"
     inkscape:groupmode="layer">
    <g
       id="g3200"
       transform="translate(-4.6747232,-0.5002831)">
      <path
         transform="matrix(1.0072841,0,0,1.0072841,49.532684,-17.602215)"
         d="M 2.727272 31.818182 A 13.454545 13.454545 0 1 1  -24.181818,31.818182 A 13.454545 13.454545 0 1 1  2.727272 31.818182 z"
         sodipodi:ry="13.454545"
         sodipodi:rx="13.454545"
         sodipodi:cy="31.818182"
         sodipodi:cx="-10.727273"
         id="path2829"
         style="fill:#3465a4;fill-opacity:1;stroke:#204a87;stroke-width:0.99276865;stroke-linejoin:round;stroke-miterlimit:4;stroke-dasharray:none;stroke-opacity:1"
         sodipodi:type="arc" />
      <path
         id="path2837"
         d="M 37.262133,16.645443 C 37.142762,16.167957 37.005055,17.890474 37.445275,18.110583 C 38.973266,18.874579 37.671004,20.33172 40.009271,19.942009 C 40.215781,19.907591 39.459843,22.747305 39.459843,23.421718 C 39.459843,25.062616 41.124014,23.222687 41.657554,22.689147 C 42.654959,21.691742 42.704811,20.960917 43.305837,19.758867 C 44.091039,18.188461 45.02763,18.228199 44.038407,16.645443 C 43.327551,15.508072 42.807077,15.51347 41.474411,15.180303 C 40.096296,14.835773 38.697455,14.645783 37.628417,15.180303 C 37.178154,15.405435 37.360859,16.151808 37.262133,16.645443 z "
         style="fill:#73d216;fill-opacity:1;fill-rule:evenodd;stroke:none;stroke-width:1px;stroke-linecap:butt;stroke-linejoin:miter;stroke-opacity:1" />
      <path
         id="path2833"
         d="M 31.035286,5.4737469 C 30.205164,5.4737469 28.016294,6.4838909 29.387002,7.8546002 C 30.213227,8.6808244 29.213977,9.8244471 28.47129,10.418597 C 28.303753,10.552625 29.625522,13.404254 29.936431,13.715162 C 30.428845,14.207577 32.39218,12.747842 33.049854,12.616307 C 34.732267,12.279824 35.667457,12.451 35.980135,10.418597 C 36.202576,8.9727253 35.391621,8.2247134 34.423423,7.6714577 C 33.575282,7.1868054 33.331755,6.0020785 31.950999,5.6568897 C 31.64901,5.5813926 31.340523,5.5347948 31.035286,5.4737469 z "
         style="fill:#73d216;fill-opacity:1;fill-rule:evenodd;stroke:none;stroke-width:1px;stroke-linecap:butt;stroke-linejoin:miter;stroke-opacity:1" />
      <path
         id="path2835"
         d="M 29.936431,14.447733 C 28.891502,14.1865 28.91192,16.164919 28.47129,17.927441 C 28.176579,19.106281 28.274218,19.744937 29.387002,20.857722 C 30.107858,21.578578 31.172991,21.911139 32.134141,22.87229 C 32.889544,23.627694 32.966827,19.9591 32.683568,19.392582 C 32.135673,18.296787 31.461883,16.886692 31.218428,15.912873 C 31.045405,15.220779 30.516736,14.737886 29.936431,14.447733 z "
         style="fill:#73d216;fill-opacity:1;fill-rule:evenodd;stroke:none;stroke-width:1px;stroke-linecap:butt;stroke-linejoin:miter;stroke-opacity:1" />
      <path
         id="path2839"
         d="M 37.994704,11.609023 C 36.492439,12.360154 40.467775,12.730933 40.741841,12.799449 C 42.1373,13.148314 42.573267,12.913421 42.573267,14.081447 C 42.573267,14.725347 44.154998,13.352279 44.496264,13.898305 C 45.317463,15.212224 44.496264,15.812099 44.496264,17.378014 C 44.496264,18.965864 47.005825,16.204884 47.151831,15.912873 C 47.824735,14.567063 49.751291,14.71358 50.814682,14.447733 C 51.907189,14.174606 51.598811,13.188828 51.364109,12.250022 C 51.310214,12.03444 51.242014,11.822689 51.180967,11.609023 C 50.970189,10.871302 50.490452,9.6711041 50.265254,8.7703124 C 49.850535,7.1114368 48.72128,6.5726025 48.250686,6.5726025 C 47.099579,6.5726025 46.966537,7.7177803 45.686691,8.0377421 C 44.177529,8.4150326 45.309414,9.3224892 46.052975,9.1365989 C 46.763673,8.9589237 44.491314,9.5000549 43.855265,9.1365989 C 43.047494,8.6750147 42.573267,6.6310216 42.573267,8.7703124 C 42.573267,9.3293498 40.71068,8.6494935 40.192413,9.6860262 C 39.46848,11.133894 37.056108,9.4971832 37.994704,11.609023 z "
         style="fill:#73d216;fill-opacity:1;fill-rule:evenodd;stroke:none;stroke-width:1px;stroke-linecap:butt;stroke-linejoin:miter;stroke-opacity:1" />
      <path
         sodipodi:nodetypes="cssssssc"
         id="path2831"
         d="M 33.965567,2.7266083 C 33.970515,3.1220076 35.388857,4.2623955 36.712704,4.9243192 C 38.045733,5.590834 38.854013,5.7780556 40.375556,5.4737469 C 41.987514,5.151356 40.599383,3.6423216 42.390124,3.6423216 C 43.79597,3.6423216 43.623178,1.8932112 42.571942,1.6304013 C 41.374298,1.3309905 40.219986,1.0816365 38.727273,1.0816365 C 37.689465,1.0816365 36.651657,1.536182 35.613849,1.536182 C 34.541413,1.536182 34.957281,1.4373796 33.965567,2.7266083 z "
         style="fill:#ffffff;fill-opacity:1;fill-rule:evenodd;stroke:none;stroke-width:1px;stroke-linecap:butt;stroke-linejoin:miter;stroke-opacity:1" />
      <path
         transform="matrix(0.9355972,0,0,0.9355972,48.763679,-15.321265)"
         d="M 2.727272 31.818182 A 13.454545 13.454545 0 1 1  -24.181818,31.818182 A 13.454545 13.454545 0 1 1  2.727272 31.818182 z"
         sodipodi:ry="13.454545"
         sodipodi:rx="13.454545"
         sodipodi:cy="31.818182"
         sodipodi:cx="-10.727273"
         id="path3186"
         style="opacity:0.5;fill:none;fill-opacity:1;stroke:#eeeeec;stroke-width:1.06883621;stroke-linejoin:round;stroke-miterlimit:4;stroke-dasharray:none;stroke-opacity:1"
         sodipodi:type="arc" />
      <path
         transform="matrix(1.0072841,0,0,1.0072841,49.532684,-17.602215)"
         d="M 2.727272 31.818182 A 13.454545 13.454545 0 1 1  -24.181818,31.818182 A 13.454545 13.454545 0 1 1  2.727272 31.818182 z"
         sodipodi:ry="13.454545"
         sodipodi:rx="13.454545"
         sodipodi:cy="31.818182"
         sodipodi:cx="-10.727273"
         id="path3188"
         style="fill:none;fill-opacity:1;stroke:#204a87;stroke-width:0.99276865;stroke-linejoin:round;stroke-miterlimit:4;stroke-dasharray:none;stroke-opacity:1"
         sodipodi:type="arc" />
      <path
         transform="matrix(1.0072841,0,0,1.0072841,49.532684,-17.602215)"
         d="M 2.727272 31.818182 A 13.454545 13.454545 0 1 1  -24.181818,31.818182 A 13.454545 13.454545 0 1 1  2.727272 31.818182 z"
         sodipodi:ry="13.454545"
         sodipodi:rx="13.454545"
         sodipodi:cy="31.818182"
         sodipodi:cx="-10.727273"
         id="path3190"
         style="opacity:0.7;fill:url(#linearGradient3211);fill-opacity:1;stroke:#204a87;stroke-width:0.99276865;stroke-linejoin:round;stroke-miterlimit:4;stroke-dasharray:none;stroke-opacity:1"
         sodipodi:type="arc" />
    </g>
    <g
       id="g2925"
       transform="matrix(0.8266634,0,0,0.7604391,19.642455,4.2759833)"
       style="fill:#73d216;stroke:#4e9a06">
      <path
         sodipodi:nodetypes="cccsscscc"
         id="rect1892"
         d="M -10.6457,11.340727 L 9.2564645,14.98464 L 7.3040022,34.434294 C 7.3040022,34.434294 0.71905635,26.766993 0.71905635,26.766993 C 0.71905635,26.766993 -4.0052101,28.982549 -12.263566,37.318997 C -20.52192,45.655444 -23.164581,57.63 -23.164581,57.63 C -23.164581,57.63 -23.557914,46.124108 -19.613388,36.339571 C -15.668861,26.555036 -4.617835,18.917801 -4.617835,18.917801 L -10.6457,11.340727 z "
         style="fill:#73d216;fill-opacity:1;stroke:#4e9a06;stroke-width:1.26125669;stroke-linejoin:round;stroke-miterlimit:4;stroke-dasharray:none;stroke-opacity:1" />
    </g>
    <path
       sodipodi:nodetypes="cccsscscc"
       id="path3213"
       d="M 13.388698,14.357313 L 26.184405,16.43997 L 24.966236,28.49782 C 24.966236,28.49782 20.497877,23.412316 20.497877,23.412316 C 20.497877,23.412316 16.784786,24.629841 10.523214,30.444262 C 4.2616442,36.258683 1.7990865,42.447357 1.7990865,42.447357 C 1.7990865,42.447357 1.5664094,38.748779 4.5571902,31.92436 C 7.5479715,25.099941 17.500224,18.85547 17.500224,18.85547 L 13.388698,14.357313 z "
       style="fill:#73d216;fill-opacity:1;stroke:#eeeeec;stroke-width:1;stroke-linejoin:miter;stroke-miterlimit:4;stroke-dasharray:none;stroke-opacity:1;opacity:0.5" />
    <path
       transform="matrix(0.8266634,0,0,0.7604391,19.642455,4.2759833)"
       sodipodi:nodetypes="cccsscscc"
       id="path3215"
       d="M -10.6457,11.340727 L 9.2564645,14.98464 L 7.3040022,34.434294 C 7.3040022,34.434294 0.71905635,26.766993 0.71905635,26.766993 C 0.71905635,26.766993 -4.0052101,28.982549 -12.263566,37.318997 C -20.52192,45.655444 -23.164581,57.63 -23.164581,57.63 C -23.164581,57.63 -23.557914,46.124108 -19.613388,36.339571 C -15.668861,26.555036 -4.617835,18.917801 -4.617835,18.917801 L -10.6457,11.340727 z "
       style="fill:url(#linearGradient3223);fill-opacity:1.0;stroke:#4e9a06;stroke-width:1.26125669;stroke-linejoin:round;stroke-miterlimit:4;stroke-dasharray:none;stroke-opacity:1;opacity:0.7" />
  </g>
</svg>
