<?xml version="1.0" encoding="UTF-8" standalone="no"?>
<!-- Created with Inkscape (http://www.inkscape.org/) -->
<svg
   xmlns:dc="http://purl.org/dc/elements/1.1/"
   xmlns:cc="http://web.resource.org/cc/"
   xmlns:rdf="http://www.w3.org/1999/02/22-rdf-syntax-ns#"
   xmlns:svg="http://www.w3.org/2000/svg"
   xmlns="http://www.w3.org/2000/svg"
   xmlns:xlink="http://www.w3.org/1999/xlink"
   xmlns:sodipodi="http://sodipodi.sourceforge.net/DTD/sodipodi-0.dtd"
   xmlns:inkscape="http://www.inkscape.org/namespaces/inkscape"
   width="48px"
   height="48px"
   id="svg3241"
   sodipodi:version="0.32"
   inkscape:version="0.45"
   sodipodi:docname="large-format-underline.svg"
   sodipodi:docbase="/home/lse/public_html/Bambus 0.13 Developement/System/Icons/0.12/scalable/actions"
   inkscape:output_extension="org.inkscape.output.svg.inkscape"
   sodipodi:modified="true">
  <defs
     id="defs3243">
    <linearGradient
       inkscape:collect="always"
       id="linearGradient3183">
      <stop
         style="stop-color:#ffffff;stop-opacity:1;"
         offset="0"
         id="stop3185" />
      <stop
         style="stop-color:#ffffff;stop-opacity:0;"
         offset="1"
         id="stop3187" />
    </linearGradient>
    <linearGradient
       inkscape:collect="always"
       xlink:href="#linearGradient3183"
       id="linearGradient3189"
       x1="23.642857"
       y1="-3"
       x2="23.642857"
       y2="50.364029"
       gradientUnits="userSpaceOnUse" />
    <linearGradient
       inkscape:collect="always"
       xlink:href="#linearGradient3183"
       id="linearGradient3191"
       x1="23.642857"
       y1="-3"
       x2="23.642857"
       y2="50.364029"
       gradientUnits="userSpaceOnUse" />
  </defs>
  <sodipodi:namedview
     id="base"
     pagecolor="#ffffff"
     bordercolor="#666666"
     borderopacity="1.0"
     inkscape:pageopacity="0.0"
     inkscape:pageshadow="2"
     inkscape:zoom="14"
     inkscape:cx="36.103734"
     inkscape:cy="24.205375"
     inkscape:current-layer="layer1"
     showgrid="true"
     inkscape:grid-bbox="true"
     inkscape:document-units="px"
     inkscape:window-width="1272"
     inkscape:window-height="949"
     inkscape:window-x="0"
     inkscape:window-y="24" />
  <metadata
     id="metadata3246">
    <rdf:RDF>
      <cc:Work
         rdf:about="">
        <dc:format>image/svg+xml</dc:format>
        <dc:type
           rdf:resource="http://purl.org/dc/dcmitype/StillImage" />
      </cc:Work>
    </rdf:RDF>
  </metadata>
  <g
     id="layer1"
     inkscape:label="Layer 1"
     inkscape:groupmode="layer">
    <path
       style="font-size:64.47024536px;font-style:normal;font-weight:bold;fill:#3465a4;fill-opacity:1;stroke:#204a87;stroke-width:0.99999976px;stroke-linecap:butt;stroke-linejoin:miter;stroke-opacity:1;font-family:Gentium"
       d="M 23.999999,5.4305649 L 17.209406,23.84534 L 30.815374,23.84534 L 23.999999,5.4305649 M 21.174717,0.49847837 L 26.850065,0.49847837 L 40.951696,37.501521 L 35.74723,37.501521 L 32.376714,28.009113 L 15.697634,28.009113 L 12.32712,37.501521 L 7.0483015,37.501521 L 21.174717,0.49847837"
       id="text2168" />
    <path
       style="font-size:64.47024536px;font-style:normal;font-weight:bold;fill:url(#linearGradient3189);fill-opacity:1.0;stroke:#204a87;stroke-width:0.99999976px;stroke-linecap:butt;stroke-linejoin:miter;stroke-opacity:1;font-family:Gentium;opacity:0.7"
       d="M 23.999999,5.4305649 L 17.209406,23.84534 L 30.815374,23.84534 L 23.999999,5.4305649 M 21.174717,0.49847837 L 26.850065,0.49847837 L 40.951696,37.501521 L 35.74723,37.501521 L 32.376714,28.009113 L 15.697634,28.009113 L 12.32712,37.501521 L 7.0483015,37.501521 L 21.174717,0.49847837"
       id="path2208" />
    <path
       style="font-size:64.47024536px;font-style:normal;font-weight:bold;opacity:0.5;fill:#eeeeec;fill-opacity:1;stroke:#eeeeec;stroke-width:0;stroke-linecap:butt;stroke-linejoin:miter;stroke-miterlimit:4;stroke-dasharray:none;stroke-opacity:1;font-family:Gentium"
       d="M 21.833472,1.0929293 L 21.833472,1.4865863 L 21.520671,1.1140222 L 8.0556017,36.316346 L 7.8587823,36.857627 L 8.4246381,36.857627 L 11.719865,37.002191 L 11.990494,37.002191 L 12.088902,36.731552 L 15.304792,27.511245 L 32.750912,27.505209 L 35.984901,36.637186 L 36.083313,36.907826 L 36.35394,36.907826 L 39.575359,36.907826 L 40.141216,36.907826 L 39.944397,36.366546 L 26.748894,1.2887647 L 26.650484,1.042729 L 26.379856,1.042729 L 21.833472,1.0929293 z M 22.1041,1.8802436 L 26.10923,1.8300434 L 39.009503,36.120512 L 36.649167,36.120512 L 33.415175,26.988534 L 33.316767,26.717895 L 33.021538,26.717895 L 15.034164,26.72393 L 14.738934,26.72393 L 14.640526,26.99457 L 11.424637,36.214876 L 8.9904935,36.070313 L 22.1041,1.8802436 z M 23.624926,2.4704154 L 15.559359,24.637561 L 15.362539,25.178838 L 15.928396,25.178838 L 32.152444,25.128638 L 32.7183,25.128638 L 32.521482,24.58736 L 24.363,2.4704154 L 23.993965,2.5934333 L 23.624926,2.4704154 z M 23.993965,3.7498014 L 31.586588,24.341325 L 16.494248,24.391526 L 23.993965,3.7498014 z "
       id="text3155"
       sodipodi:nodetypes="cccccccccccccccccccccccccccccccccccccccccccccccc" />
    <rect
       style="opacity:0.7;color:#000000;fill:url(#linearGradient3191);fill-opacity:1.0;fill-rule:nonzero;stroke:#204a87;stroke-width:0.99999982;stroke-linecap:square;stroke-linejoin:miter;marker:none;marker-start:none;marker-mid:none;marker-end:none;stroke-miterlimit:4;stroke-dasharray:none;stroke-dashoffset:0;stroke-opacity:1;visibility:visible;display:inline;overflow:visible;enable-background:accumulate"
       id="rect2210"
       width="47"
       height="5"
       x="0.49999997"
       y="42.5" />
    <rect
       style="opacity:1;color:#000000;fill:#3465a4;fill-opacity:1;fill-rule:nonzero;stroke:#204a87;stroke-width:0.99999982;stroke-linecap:square;stroke-linejoin:miter;marker:none;marker-start:none;marker-mid:none;marker-end:none;stroke-miterlimit:4;stroke-dasharray:none;stroke-dashoffset:0;stroke-opacity:1;visibility:visible;display:inline;overflow:visible;enable-background:accumulate"
       id="rect3232"
       width="47"
       height="5"
       x="0.49999997"
       y="42.5" />
    <rect
       style="opacity:0.5;color:#000000;fill:#3465a4;fill-opacity:1;fill-rule:nonzero;stroke:#eeeeec;stroke-width:0.99999982;stroke-linecap:square;stroke-linejoin:miter;marker:none;marker-start:none;marker-mid:none;marker-end:none;stroke-miterlimit:4;stroke-dasharray:none;stroke-dashoffset:0;stroke-opacity:1;visibility:visible;display:inline;overflow:visible;enable-background:accumulate"
       id="rect3234"
       width="45"
       height="3.0000019"
       x="1.4999999"
       y="43.5" />
  </g>
</svg>
