<?xml version="1.0" encoding="UTF-8" standalone="no"?>
<!-- Created with Inkscape (http://www.inkscape.org/) -->
<svg
   xmlns:dc="http://purl.org/dc/elements/1.1/"
   xmlns:cc="http://web.resource.org/cc/"
   xmlns:rdf="http://www.w3.org/1999/02/22-rdf-syntax-ns#"
   xmlns:svg="http://www.w3.org/2000/svg"
   xmlns="http://www.w3.org/2000/svg"
   xmlns:xlink="http://www.w3.org/1999/xlink"
   xmlns:sodipodi="http://sodipodi.sourceforge.net/DTD/sodipodi-0.dtd"
   xmlns:inkscape="http://www.inkscape.org/namespaces/inkscape"
   width="48px"
   height="48px"
   id="svg2160"
   sodipodi:version="0.32"
   inkscape:version="0.45"
   sodipodi:docname="large-debug.svg"
   sodipodi:docbase="/home/lse/public_html/Bambus/System/Icons/0.12/scalable/actions"
   inkscape:output_extension="org.inkscape.output.svg.inkscape"
   sodipodi:modified="true">
  <defs
     id="defs2162">
    <linearGradient
       inkscape:collect="always"
       id="linearGradient3188">
      <stop
         style="stop-color:#eeeeec;stop-opacity:1;"
         offset="0"
         id="stop3190" />
      <stop
         style="stop-color:#eeeeec;stop-opacity:0;"
         offset="1"
         id="stop3192" />
    </linearGradient>
    <linearGradient
       inkscape:collect="always"
       xlink:href="#linearGradient3188"
       id="linearGradient3194"
       x1="22.142857"
       y1="-2"
       x2="22.142857"
       y2="51.286911"
       gradientUnits="userSpaceOnUse" />
  </defs>
  <sodipodi:namedview
     id="base"
     pagecolor="#ffffff"
     bordercolor="#666666"
     borderopacity="1.0"
     inkscape:pageopacity="0.0"
     inkscape:pageshadow="2"
     inkscape:zoom="7"
     inkscape:cx="24"
     inkscape:cy="24"
     inkscape:current-layer="layer1"
     showgrid="true"
     inkscape:grid-bbox="true"
     inkscape:document-units="px"
     showguides="true"
     inkscape:guide-bbox="true"
     inkscape:window-width="872"
     inkscape:window-height="629"
     inkscape:window-x="105"
     inkscape:window-y="164" />
  <metadata
     id="metadata2165">
    <rdf:RDF>
      <cc:Work
         rdf:about="">
        <dc:format>image/svg+xml</dc:format>
        <dc:type
           rdf:resource="http://purl.org/dc/dcmitype/StillImage" />
      </cc:Work>
    </rdf:RDF>
  </metadata>
  <g
     id="layer1"
     inkscape:label="Layer 1"
     inkscape:groupmode="layer">
    <path
       style="opacity:1;color:#000000;fill:#3465a4;fill-opacity:1;fill-rule:nonzero;stroke:#204a87;stroke-width:0.99999994;stroke-linecap:square;stroke-linejoin:miter;marker:none;marker-start:none;marker-mid:none;marker-end:none;stroke-miterlimit:4;stroke-dasharray:none;stroke-dashoffset:0;stroke-opacity:1;visibility:visible;display:inline;overflow:visible;enable-background:accumulate"
       d="M 13.198532,10.564578 L 13.198532,42.127998 L 13.240056,42.127998 C 13.202647,42.336318 13.198532,42.566613 13.198532,42.781034 C 13.198532,45.93949 17.365589,47.499996 22.5,47.499998 C 27.634411,47.499998 31.801468,45.939494 31.801468,42.781034 C 31.801468,42.566613 31.797353,42.336318 31.759944,42.127998 L 31.801468,42.127998 L 31.801468,10.564578 L 13.198532,10.564578 z "
       id="path3165"
       sodipodi:nodetypes="cccssscccc" />
    <path
       style="opacity:0.5;color:#000000;fill:#3465a4;fill-opacity:1;fill-rule:nonzero;stroke:#eeeeec;stroke-width:0.99999982;stroke-linecap:square;stroke-linejoin:miter;marker:none;marker-start:none;marker-mid:none;marker-end:none;stroke-miterlimit:4;stroke-dasharray:none;stroke-dashoffset:0;stroke-opacity:1;visibility:visible;display:inline;overflow:visible;enable-background:accumulate"
       d="M 14.422876,9.995469 L 14.422876,42.118504 L 14.458935,42.118504 C 14.426451,42.299402 14.422876,42.499384 14.422876,42.685582 C 14.422876,45.428294 17.89857,46.354819 22.357143,46.354821 C 26.815715,46.354821 30.577121,45.428297 30.577121,42.685582 C 30.577121,42.499384 30.573548,42.299402 30.541064,42.118504 L 30.577121,42.118504 L 30.577121,9.995469 L 14.422876,9.995469 z "
       id="path3177"
       sodipodi:nodetypes="cccssscccc" />
    <path
       style="color:#000000;fill:#eeeeec;fill-opacity:1;fill-rule:nonzero;stroke:#204a87;stroke-width:0.99999988;stroke-linecap:square;stroke-linejoin:miter;marker:none;marker-start:none;marker-mid:none;marker-end:none;stroke-miterlimit:4;stroke-dashoffset:0;stroke-opacity:1;visibility:visible;display:inline;overflow:visible;enable-background:accumulate"
       d="M 31.801468,9.9822799 C 31.801468,11.22903 27.634411,12.240885 22.5,12.240885 C 17.365589,12.240885 13.198532,11.22903 13.198532,9.9822799 C 13.198532,8.7355304 22.5,5.8415052 22.5,5.8415052 C 22.5,5.8415052 31.801468,8.7355304 31.801468,9.9822799 z "
       id="path3167"
       sodipodi:nodetypes="csssc" />
    <path
       style="color:#000000;fill:#3465a4;fill-opacity:1;fill-rule:nonzero;stroke:#eeeeec;stroke-width:0.99999976;stroke-linecap:square;stroke-linejoin:miter;marker:none;marker-start:none;marker-mid:none;marker-end:none;stroke-miterlimit:4;stroke-dashoffset:0;stroke-opacity:1;visibility:visible;display:inline;overflow:visible;enable-background:accumulate;opacity:0.5"
       d="M 30.014867,9.8865608 C 30.014867,9.8865608 26.332778,11.429727 22.499999,11.429727 C 18.66722,11.429727 14.985131,10.029418 14.985131,10.029418 C 14.985131,10.029418 22.499999,6.6526632 22.499999,6.6526632 C 22.499999,6.6526632 30.014867,9.8865608 30.014867,9.8865608 z "
       id="path3175"
       sodipodi:nodetypes="csssc" />
    <path
       style="opacity:0.7;color:#000000;fill:url(#linearGradient3194);fill-opacity:1.0;fill-rule:nonzero;stroke:#204a87;stroke-width:0.99999994;stroke-linecap:square;stroke-linejoin:miter;marker:none;marker-start:none;marker-mid:none;marker-end:none;stroke-miterlimit:4;stroke-dasharray:none;stroke-dashoffset:0;stroke-opacity:1;visibility:visible;display:inline;overflow:visible;enable-background:accumulate"
       d="M 20.125 0.71875 L 20.125 6.125 L 21.625 6.125 C 19.61733 6.7732239 13.1875 8.9078093 13.1875 9.96875 C 13.1875 10.171485 13.324636 10.375528 13.53125 10.5625 L 13.1875 10.5625 L 13.1875 42.125 L 13.25 42.125 C 13.212591 42.33332 13.1875 42.566829 13.1875 42.78125 C 13.1875 45.939707 17.365589 47.499998 22.5 47.5 C 27.634411 47.500002 31.8125 45.93971 31.8125 42.78125 C 31.8125 42.56683 31.787409 42.33332 31.75 42.125 L 31.8125 42.125 L 31.8125 10.5625 L 31.46875 10.5625 C 31.675364 10.375528 31.8125 10.171485 31.8125 9.96875 C 31.8125 8.9078092 25.38267 6.773224 23.375 6.125 L 24.75 6.125 L 24.75 0.71875 L 20.125 0.71875 z "
       id="path3181" />
    <rect
       style="opacity:1;color:#000000;fill:#eeeeec;fill-opacity:1;fill-rule:nonzero;stroke:#555753;stroke-width:0.99999994;stroke-linecap:square;stroke-linejoin:miter;marker:none;marker-start:none;marker-mid:none;marker-end:none;stroke-miterlimit:4;stroke-dasharray:none;stroke-dashoffset:0;stroke-opacity:1;visibility:visible;display:inline;overflow:visible;enable-background:accumulate"
       id="rect3173"
       width="4.6258297"
       height="5.3993802"
       x="20.125347"
       y="0.71428543" />
    <path
       sodipodi:type="arc"
       style="opacity:0.5;color:#000000;fill:#3465a4;fill-opacity:1;fill-rule:nonzero;stroke:#555753;stroke-width:1;stroke-linecap:square;stroke-linejoin:miter;marker:none;marker-start:none;marker-mid:none;marker-end:none;stroke-miterlimit:4;stroke-dasharray:none;stroke-dashoffset:0;stroke-opacity:1;visibility:visible;display:inline;overflow:visible;enable-background:accumulate"
       id="path3179"
       sodipodi:cx="20.642857"
       sodipodi:cy="3.2142856"
       sodipodi:rx="0.5"
       sodipodi:ry="0.64285713"
       d="M 21.142857 3.2142856 A 0.5 0.64285713 0 1 1  20.142857,3.2142856 A 0.5 0.64285713 0 1 1  21.142857 3.2142856 z" />
    <g
       id="g3155"
       transform="matrix(0.7080292,0,0,0.7080292,9.1043404,11.339937)">
      <path
         transform="translate(7.1428865e-2,0)"
         d="M 21.571428 15.071428 A 2.4285715 2.6428571 0 1 1  16.714285,15.071428 A 2.4285715 2.6428571 0 1 1  21.571428 15.071428 z"
         sodipodi:ry="2.6428571"
         sodipodi:rx="2.4285715"
         sodipodi:cy="15.071428"
         sodipodi:cx="19.142857"
         id="path2170"
         style="opacity:1;color:#000000;fill:#555753;fill-opacity:1;fill-rule:nonzero;stroke:#000000;stroke-width:1.41237116;stroke-linecap:square;stroke-linejoin:miter;marker:none;marker-start:none;marker-mid:none;marker-end:none;stroke-miterlimit:4;stroke-dasharray:none;stroke-dashoffset:0;stroke-opacity:1;visibility:visible;display:inline;overflow:visible;enable-background:accumulate"
         sodipodi:type="arc" />
      <path
         id="path3143"
         d="M 23.571429,18.428572 L 26.857143,14.714286"
         style="fill:none;fill-rule:evenodd;stroke:#000000;stroke-width:1.41237116px;stroke-linecap:butt;stroke-linejoin:miter;stroke-opacity:1" />
      <path
         id="path3145"
         d="M 24.571429,22.428571 L 28.285714,21.571428"
         style="fill:none;fill-rule:evenodd;stroke:#000000;stroke-width:1.41237116px;stroke-linecap:butt;stroke-linejoin:miter;stroke-opacity:1" />
      <path
         id="path3147"
         d="M 23.285714,25.999999 L 26.142856,30.42857"
         style="fill:none;fill-rule:evenodd;stroke:#000000;stroke-width:1.41237116px;stroke-linecap:butt;stroke-linejoin:miter;stroke-opacity:1" />
      <path
         id="path3149"
         d="M 15,18.357143 L 12.714286,14.642857"
         style="fill:none;fill-rule:evenodd;stroke:#000000;stroke-width:1.41237116px;stroke-linecap:butt;stroke-linejoin:miter;stroke-opacity:1" />
      <path
         id="path3151"
         d="M 14.375,22 L 9.5535717,22"
         style="fill:none;fill-rule:evenodd;stroke:#000000;stroke-width:1.41237116px;stroke-linecap:butt;stroke-linejoin:miter;stroke-opacity:1" />
      <path
         id="path3153"
         d="M 15.000001,26.500002 L 11.285715,29.785716"
         style="fill:none;fill-rule:evenodd;stroke:#000000;stroke-width:1.41237128px;stroke-linecap:butt;stroke-linejoin:miter;stroke-opacity:1" />
      <path
         transform="matrix(0.8705882,0,0,1,17.535294,6.8571429)"
         d="M 8.0000002 16.357143 A 6.0714288 7.7857141 0 1 1  -4.1428573,16.357143 A 6.0714288 7.7857141 0 1 1  8.0000002 16.357143 z"
         sodipodi:ry="7.7857141"
         sodipodi:rx="6.0714288"
         sodipodi:cy="16.357143"
         sodipodi:cx="1.9285715"
         id="path2168"
         style="opacity:1;color:#000000;fill:#2e3436;fill-opacity:1;fill-rule:nonzero;stroke:#000000;stroke-width:1.51370919;stroke-linecap:square;stroke-linejoin:miter;marker:none;marker-start:none;marker-mid:none;marker-end:none;stroke-miterlimit:4;stroke-dasharray:none;stroke-dashoffset:0;stroke-opacity:1;visibility:visible;display:inline;overflow:visible;enable-background:accumulate"
         sodipodi:type="arc" />
    </g>
  </g>
</svg>
