<?xml version="1.0" encoding="UTF-8" standalone="no"?>
<!-- Created with Inkscape (http://www.inkscape.org/) -->
<svg
   xmlns:dc="http://purl.org/dc/elements/1.1/"
   xmlns:cc="http://web.resource.org/cc/"
   xmlns:rdf="http://www.w3.org/1999/02/22-rdf-syntax-ns#"
   xmlns:svg="http://www.w3.org/2000/svg"
   xmlns="http://www.w3.org/2000/svg"
   xmlns:xlink="http://www.w3.org/1999/xlink"
   xmlns:sodipodi="http://sodipodi.sourceforge.net/DTD/sodipodi-0.dtd"
   xmlns:inkscape="http://www.inkscape.org/namespaces/inkscape"
   width="32"
   height="32"
   id="svg1872"
   sodipodi:version="0.32"
   inkscape:version="0.45"
   sodipodi:docbase="/home/lse/public_html/Bambus/System/Icons/0.12/scalable/actions"
   sodipodi:docname="medium-clean.svg"
   inkscape:export-filename="/home/lse/public_html/Bambus/System/Icons/actions/48x48/action-clean.png"
   inkscape:export-xdpi="67.5"
   inkscape:export-ydpi="67.5"
   version="1.0"
   inkscape:output_extension="org.inkscape.output.svg.inkscape"
   sodipodi:modified="true">
  <defs
     id="defs1874">
    <linearGradient
       inkscape:collect="always"
       id="linearGradient3242">
      <stop
         style="stop-color:#ffffff;stop-opacity:1;"
         offset="0"
         id="stop3244" />
      <stop
         style="stop-color:#ffffff;stop-opacity:0;"
         offset="1"
         id="stop3246" />
    </linearGradient>
    <linearGradient
       inkscape:collect="always"
       id="linearGradient2771">
      <stop
         style="stop-color:white;stop-opacity:1;"
         offset="0"
         id="stop2773" />
      <stop
         style="stop-color:white;stop-opacity:0;"
         offset="1"
         id="stop2775" />
    </linearGradient>
    <linearGradient
       inkscape:collect="always"
       id="linearGradient2792">
      <stop
         style="stop-color:white;stop-opacity:1;"
         offset="0"
         id="stop2794" />
      <stop
         style="stop-color:white;stop-opacity:0;"
         offset="1"
         id="stop2796" />
    </linearGradient>
    <linearGradient
       inkscape:collect="always"
       xlink:href="#linearGradient2771"
       id="linearGradient2791"
       gradientUnits="userSpaceOnUse"
       x1="27.636364"
       y1="-3.090909"
       x2="26.844149"
       y2="70.532555" />
    <linearGradient
       inkscape:collect="always"
       xlink:href="#linearGradient2792"
       id="linearGradient2793"
       gradientUnits="userSpaceOnUse"
       gradientTransform="matrix(1.017414,0,0,1.017414,0.563744,-0.430045)"
       x1="36.821243"
       y1="-3.6487956"
       x2="36.821243"
       y2="69.380852" />
    <linearGradient
       inkscape:collect="always"
       xlink:href="#linearGradient2792"
       id="linearGradient2814"
       gradientUnits="userSpaceOnUse"
       gradientTransform="matrix(0.488277,0,0,0.488277,1.218508,0.37304)"
       x1="36.821243"
       y1="-3.6487956"
       x2="36.821243"
       y2="69.380852" />
    <linearGradient
       inkscape:collect="always"
       xlink:href="#linearGradient2771"
       id="linearGradient2824"
       gradientUnits="userSpaceOnUse"
       x1="27.636364"
       y1="-3.090909"
       x2="26.844149"
       y2="70.532555"
       gradientTransform="matrix(0.47992,0,0,0.47992,0.947956,0.579427)" />
    <linearGradient
       inkscape:collect="always"
       xlink:href="#linearGradient3242"
       id="linearGradient3248"
       x1="16.318182"
       y1="-0.63636363"
       x2="15.5"
       y2="34.363636"
       gradientUnits="userSpaceOnUse" />
  </defs>
  <sodipodi:namedview
     id="base"
     pagecolor="#ffffff"
     bordercolor="#666666"
     borderopacity="1.0"
     inkscape:pageopacity="0.0"
     inkscape:pageshadow="2"
     inkscape:zoom="22"
     inkscape:cx="31.936364"
     inkscape:cy="13.843213"
     inkscape:current-layer="layer1"
     showgrid="true"
     inkscape:document-units="px"
     inkscape:grid-bbox="true"
     inkscape:window-width="1272"
     inkscape:window-height="945"
     inkscape:window-x="0"
     inkscape:window-y="25"
     width="32px"
     height="32px" />
  <metadata
     id="metadata1877">
    <rdf:RDF>
      <cc:Work
         rdf:about="">
        <dc:format>image/svg+xml</dc:format>
        <dc:type
           rdf:resource="http://purl.org/dc/dcmitype/StillImage" />
      </cc:Work>
    </rdf:RDF>
  </metadata>
  <g
     id="layer1"
     inkscape:label="Layer 1"
     inkscape:groupmode="layer">
    <path
       style="fill:#fce94f;fill-opacity:1;stroke:#c4a000;stroke-width:1;stroke-miterlimit:4;stroke-dasharray:none;stroke-opacity:1"
       d="M 8.9665201,19.994198 L 23.033466,19.994198 L 26.107699,31.266385 L 5.892287,31.266385 L 8.9665201,19.994198 z "
       id="rect2775"
       sodipodi:nodetypes="ccccc" />
    <path
       style="fill:url(#linearGradient2824);fill-opacity:1;stroke:none;stroke-width:2;stroke-miterlimit:4;stroke-dasharray:none;stroke-opacity:1"
       d="M 9.297277,20.259241 L 22.702708,20.259241 L 25.632371,31.00134 L 6.3676134,31.00134 L 9.297277,20.259241 z "
       id="path2769"
       sodipodi:nodetypes="ccccc" />
    <path
       style="fill:none;fill-rule:evenodd;stroke:#c4a000;stroke-width:1;stroke-linecap:butt;stroke-linejoin:miter;stroke-miterlimit:4;stroke-dasharray:none;stroke-opacity:1"
       d="M 10.540165,21.05824 C 8.8533888,30.912563 8.2319447,30.912563 8.2319447,30.912563"
       id="path2778" />
    <path
       style="fill:none;fill-rule:evenodd;stroke:#c4a000;stroke-width:1;stroke-linecap:butt;stroke-linejoin:miter;stroke-miterlimit:4;stroke-dasharray:none;stroke-opacity:1"
       d="M 12.582051,21.235796 C 11.339164,31.001341 10.540165,30.912563 10.540165,30.912563"
       id="path2780" />
    <path
       style="fill:none;fill-rule:evenodd;stroke:#c4a000;stroke-width:1;stroke-linecap:butt;stroke-linejoin:miter;stroke-miterlimit:4;stroke-dasharray:none;stroke-opacity:1"
       d="M 20.749598,21.05824 C 21.992486,30.557452 23.190985,30.912563 23.190985,30.912563"
       id="path2782" />
    <path
       style="fill:none;fill-rule:evenodd;stroke:#c4a000;stroke-width:1;stroke-linecap:butt;stroke-linejoin:miter;stroke-miterlimit:4;stroke-dasharray:none;stroke-opacity:1"
       d="M 18.308212,21.05824 C 19.062822,30.823785 19.861822,30.912563 19.861822,30.912563"
       id="path2784" />
    <path
       style="fill:none;fill-rule:evenodd;stroke:#c4a000;stroke-width:1;stroke-linecap:butt;stroke-linejoin:miter;stroke-miterlimit:4;stroke-dasharray:none;stroke-opacity:1"
       d="M 16.133159,21.147018 C 16.221936,30.912563 17.109714,31.001341 17.109714,31.001341"
       id="path2786" />
    <path
       style="fill:none;fill-rule:evenodd;stroke:#c4a000;stroke-width:1;stroke-linecap:butt;stroke-linejoin:miter;stroke-miterlimit:4;stroke-dasharray:none;stroke-opacity:1"
       d="M 14.091272,21.235796 C 14.002494,30.912563 12.670829,30.912563 12.670829,30.912563"
       id="path2788" />
    <path
       style="fill:none;fill-opacity:1;stroke:#eeeeec;stroke-width:1;stroke-miterlimit:4;stroke-dasharray:none;stroke-opacity:1;opacity:0.5"
       d="M 9.7449163,20.819071 L 22.300523,20.819071 L 25.044462,30.5 L 7.0009758,30.5 L 9.7449163,20.819071 z "
       id="path3252"
       sodipodi:nodetypes="ccccc" />
    <path
       style="fill:#c17d11;fill-opacity:1;stroke:#8f5902;stroke-width:1;stroke-miterlimit:4;stroke-dasharray:none;stroke-opacity:1"
       d="M 15.80847,0.52409552 C 14.156368,0.52409552 12.820643,1.8438431 12.820643,3.4959441 L 12.820643,8.9123782 C 12.820643,10.114789 13.525778,14.365158 14.546231,16.597643 L 9.8328163,16.597643 C 8.274929,16.597643 7.0207444,17.715626 7.0207444,19.10614 C 7.0207444,20.49665 8.2749294,21.614633 9.8328163,21.614634 L 22.343341,21.614634 C 23.901228,21.614634 25.155413,20.49665 25.155411,19.10614 C 25.155411,17.715626 23.901229,16.597643 22.343341,16.597643 L 17.070706,16.597643 C 18.091159,14.365157 18.796297,10.114789 18.796297,8.9123782 L 18.796297,3.4959441 C 18.796297,1.8438431 17.460568,0.52409547 15.80847,0.52409552 z "
       id="rect1882" />
    <path
       style="fill:url(#linearGradient3248);fill-opacity:1.0;stroke:#8f5902;stroke-width:1;stroke-miterlimit:4;stroke-dasharray:none;stroke-opacity:1;opacity:0.7"
       d="M 15.80847,0.52409552 C 14.156368,0.52409552 12.820643,1.8438431 12.820643,3.4959441 L 12.820643,8.9123782 C 12.820643,10.114789 13.525778,14.365158 14.546231,16.597643 L 9.8328163,16.597643 C 8.274929,16.597643 7.0207444,17.715626 7.0207444,19.10614 C 7.0207444,20.49665 8.2749294,21.614633 9.8328163,21.614634 L 22.343341,21.614634 C 23.901228,21.614634 25.155413,20.49665 25.155411,19.10614 C 25.155411,17.715626 23.901229,16.597643 22.343341,16.597643 L 17.070706,16.597643 C 18.091159,14.365157 18.796297,10.114789 18.796297,8.9123782 L 18.796297,3.4959441 C 18.796297,1.8438431 17.460568,0.52409547 15.80847,0.52409552 z "
       id="path3240" />
    <path
       style="fill:#c17d11;fill-opacity:1;stroke:#eeeeec;stroke-width:1;stroke-miterlimit:4;stroke-dasharray:none;stroke-opacity:1;opacity:0.5"
       d="M 15.80847,1.5240955 C 14.156368,1.5240955 13.820643,3.4959441 13.820643,3.4959441 L 13.820643,8.9123782 C 13.820643,10.114789 14.889414,15.410613 15.909867,17.643098 L 10.832816,17.597643 C 9.274929,17.597643 8.0207444,17.715626 8.0207444,19.10614 C 8.0207444,20.49665 9.2749294,20.614633 10.832816,20.614634 L 21.343341,20.614634 C 22.901228,20.614634 24.155413,20.49665 24.155411,19.10614 C 24.155411,17.715626 22.901229,17.597643 21.343341,17.597643 L 15.661615,17.643098 C 16.682068,15.410612 17.796297,10.114789 17.796297,8.9123782 L 17.796297,3.4959441 C 17.796297,3.4959441 17.460568,1.5240955 15.80847,1.5240955 z "
       id="path3250"
       sodipodi:nodetypes="cccccsccsccccc" />
  </g>
</svg>
