<?xml version="1.0" encoding="UTF-8" standalone="no"?>
<!-- Created with Inkscape (http://www.inkscape.org/) -->
<svg
   xmlns:dc="http://purl.org/dc/elements/1.1/"
   xmlns:cc="http://web.resource.org/cc/"
   xmlns:rdf="http://www.w3.org/1999/02/22-rdf-syntax-ns#"
   xmlns:svg="http://www.w3.org/2000/svg"
   xmlns="http://www.w3.org/2000/svg"
   xmlns:xlink="http://www.w3.org/1999/xlink"
   xmlns:sodipodi="http://sodipodi.sourceforge.net/DTD/sodipodi-0.dtd"
   xmlns:inkscape="http://www.inkscape.org/namespaces/inkscape"
   width="32"
   height="32"
   id="svg1872"
   sodipodi:version="0.32"
   inkscape:version="0.45"
   sodipodi:docbase="/home/lse/public_html/Bambus/System/Icons/0.12/scalable/actions"
   sodipodi:docname="medium-repair.svg"
   inkscape:export-filename="/home/lse/public_html/Bambus/System/Icons/actions/22x22/action-repair.png"
   inkscape:export-xdpi="30.9375"
   inkscape:export-ydpi="30.9375"
   version="1.0"
   inkscape:output_extension="org.inkscape.output.svg.inkscape"
   sodipodi:modified="true">
  <defs
     id="defs1874">
    <linearGradient
       inkscape:collect="always"
       id="linearGradient2794">
      <stop
         style="stop-color:white;stop-opacity:1;"
         offset="0"
         id="stop2796" />
      <stop
         style="stop-color:white;stop-opacity:0;"
         offset="1"
         id="stop2798" />
    </linearGradient>
    <linearGradient
       inkscape:collect="always"
       id="linearGradient2785">
      <stop
         style="stop-color:white;stop-opacity:1;"
         offset="0"
         id="stop2787" />
      <stop
         style="stop-color:white;stop-opacity:0;"
         offset="1"
         id="stop2790" />
    </linearGradient>
    <linearGradient
       inkscape:collect="always"
       id="linearGradient2787">
      <stop
         style="stop-color:#a0a0a0;stop-opacity:1;"
         offset="0"
         id="stop2789" />
      <stop
         style="stop-color:#a0a0a0;stop-opacity:0;"
         offset="1"
         id="stop2791" />
    </linearGradient>
    <linearGradient
       inkscape:collect="always"
       id="linearGradient2773">
      <stop
         style="stop-color:#7e7e7e;stop-opacity:1;"
         offset="0"
         id="stop2775" />
      <stop
         style="stop-color:#7e7e7e;stop-opacity:0;"
         offset="1"
         id="stop2777" />
    </linearGradient>
    <linearGradient
       inkscape:collect="always"
       id="linearGradient2801">
      <stop
         style="stop-color:#404040;stop-opacity:1;"
         offset="0"
         id="stop2803" />
      <stop
         style="stop-color:#404040;stop-opacity:0;"
         offset="1"
         id="stop2805" />
    </linearGradient>
    <linearGradient
       inkscape:collect="always"
       xlink:href="#linearGradient2801"
       id="linearGradient2807"
       x1="27.928917"
       y1="53.630772"
       x2="64.09375"
       y2="15.386199"
       gradientUnits="userSpaceOnUse" />
    <linearGradient
       inkscape:collect="always"
       xlink:href="#linearGradient2801"
       id="linearGradient2823"
       gradientUnits="userSpaceOnUse"
       x1="27.928917"
       y1="53.630772"
       x2="64.09375"
       y2="15.386199" />
    <linearGradient
       inkscape:collect="always"
       xlink:href="#linearGradient2801"
       id="linearGradient1878"
       gradientUnits="userSpaceOnUse"
       x1="27.928917"
       y1="53.630772"
       x2="64.09375"
       y2="15.386199"
       gradientTransform="matrix(0.779995,-0.762579,0.762579,0.779995,-16.96847,31.26618)" />
    <linearGradient
       inkscape:collect="always"
       xlink:href="#linearGradient2773"
       id="linearGradient2779"
       x1="13.875289"
       y1="10.710466"
       x2="62.468491"
       y2="62.350616"
       gradientUnits="userSpaceOnUse"
       gradientTransform="translate(-0.909087,1.421442)" />
    <linearGradient
       inkscape:collect="always"
       xlink:href="#linearGradient2773"
       id="linearGradient2781"
       x1="0.60256207"
       y1="31.348722"
       x2="63.923035"
       y2="31.348722"
       gradientUnits="userSpaceOnUse"
       gradientTransform="translate(51.25662,10.18182)" />
    <linearGradient
       inkscape:collect="always"
       xlink:href="#linearGradient2787"
       id="linearGradient2793"
       x1="0.60256207"
       y1="31.348722"
       x2="63.923035"
       y2="31.348722"
       gradientUnits="userSpaceOnUse"
       gradientTransform="translate(-0.602565,1.649384)" />
    <linearGradient
       inkscape:collect="always"
       xlink:href="#linearGradient2801"
       id="linearGradient2795"
       gradientUnits="userSpaceOnUse"
       gradientTransform="matrix(0.779995,-0.762579,0.762579,0.779995,34.28815,41.448)"
       x1="27.928917"
       y1="53.630772"
       x2="64.09375"
       y2="15.386199" />
    <linearGradient
       inkscape:collect="always"
       xlink:href="#linearGradient2785"
       id="linearGradient2792"
       x1="27.272728"
       y1="0.90909094"
       x2="27.272728"
       y2="68.616043"
       gradientUnits="userSpaceOnUse" />
    <linearGradient
       inkscape:collect="always"
       xlink:href="#linearGradient2794"
       id="linearGradient2800"
       x1="23.636364"
       y1="-4"
       x2="23.636364"
       y2="52.387386"
       gradientUnits="userSpaceOnUse"
       gradientTransform="matrix(0.652174,0,0,0.652174,0.347826,0.347826)" />
  </defs>
  <sodipodi:namedview
     id="base"
     pagecolor="#ffffff"
     bordercolor="#666666"
     borderopacity="1.0"
     inkscape:pageopacity="0.0"
     inkscape:pageshadow="2"
     inkscape:zoom="15.556349"
     inkscape:cx="32"
     inkscape:cy="14.519612"
     inkscape:current-layer="layer1"
     showgrid="true"
     inkscape:document-units="px"
     inkscape:grid-bbox="true"
     inkscape:window-width="1272"
     inkscape:window-height="945"
     inkscape:window-x="0"
     inkscape:window-y="25"
     showguides="true"
     inkscape:guide-bbox="true"
     width="32px"
     height="32px">
    <sodipodi:guide
       orientation="horizontal"
       position="69.454545"
       id="guide2797" />
  </sodipodi:namedview>
  <metadata
     id="metadata1877">
    <rdf:RDF>
      <cc:Work
         rdf:about="">
        <dc:format>image/svg+xml</dc:format>
        <dc:type
           rdf:resource="http://purl.org/dc/dcmitype/StillImage" />
      </cc:Work>
    </rdf:RDF>
  </metadata>
  <g
     id="layer1"
     inkscape:label="Layer 1"
     inkscape:groupmode="layer">
    <path
       style="fill:#555753;fill-opacity:1;stroke:#2e3436;stroke-width:1.99999988;stroke-miterlimit:4;stroke-dasharray:none;stroke-opacity:1"
       d="M 16.891931,3.1529665 C 14.261281,5.5327431 13.434906,9.2192689 14.493876,12.421027 L 2.046075,24.733989 C 0.6751689,26.091443 0.65037596,28.313465 1.9796037,29.713485 L 2.1828322,29.925768 C 3.5120604,31.325787 5.6763296,31.362636 7.0472361,30.005181 L 19.437554,17.726546 C 22.309576,18.861586 25.685892,18.361639 28.146408,16.13577 C 30.658093,13.863615 31.531659,10.418973 30.687885,7.3242341 L 24.198244,13.757572 L 18.564816,7.8259419 L 25.065748,1.404397 C 22.319191,0.52678962 19.201743,1.0634292 16.891931,3.1529665 z "
       id="path1881" />
    <path
       style="opacity:0.7;fill:url(#linearGradient2800);fill-opacity:1;stroke:none;stroke-width:2.00000024;stroke-miterlimit:4;stroke-dasharray:none;stroke-opacity:1"
       d="M 16.891947,3.1529664 C 14.261294,5.5327421 13.43492,9.2192657 14.49389,12.421023 L 2.0460771,24.733982 C 0.67516965,26.091434 0.65037668,28.313456 1.9796057,29.713474 L 2.1828344,29.925758 C 3.5120639,31.325775 5.6763351,31.362625 7.0472429,30.005171 L 19.437573,17.726541 C 22.309597,18.861579 25.685917,18.361633 28.146436,16.135764 C 30.658123,13.86361 31.531689,10.41897 30.687914,7.3242324 L 24.198267,13.757568 L 18.564834,7.82594 L 25.065773,1.4043976 C 22.319212,0.52679064 19.201762,1.0634299 16.891947,3.1529664 z "
       id="path2790" />
    <path
       style="fill:#eeeeec;fill-opacity:1;stroke:none;stroke-width:1.99999988;stroke-miterlimit:4;stroke-dasharray:none;stroke-opacity:1;opacity:0.5"
       d="M 22.96875 1 C 20.824989 0.87863638 18.638611 1.5890976 16.90625 3.15625 C 14.275597 5.5360256 13.44103 9.2044927 14.5 12.40625 L 2.03125 24.71875 C 0.66034264 26.076202 0.63952098 28.318732 1.96875 29.71875 L 2.1875 29.9375 C 3.5167295 31.337517 5.6915922 31.357454 7.0625 30 L 19.4375 17.71875 C 22.309525 18.853787 25.695731 18.350869 28.15625 16.125 C 30.667936 13.852847 31.531275 10.407238 30.6875 7.3125 L 24.1875 13.75 L 18.5625 7.8125 L 25.0625 1.40625 C 24.37586 1.1868483 23.683337 1.0404545 22.96875 1 z M 21.46875 2.125 C 21.91203 2.1278182 22.360263 2.228635 22.8125 2.25 L 17.875 7.125 L 17.15625 7.8125 L 17.84375 8.5 L 23.46875 14.4375 L 24.1875 15.1875 L 24.90625 14.46875 L 29.96875 9.46875 C 30.024012 11.652766 29.195178 13.844465 27.46875 15.40625 C 25.290493 17.376778 22.342034 17.780937 19.8125 16.78125 L 19.1875 16.5625 L 18.71875 17.03125 L 6.34375 29.28125 C 5.3531912 30.262089 3.8683194 30.263306 2.90625 29.25 L 2.90625 29.21875 L 2.6875 29.03125 C 1.7263232 28.018883 1.7625114 26.415298 2.75 25.4375 L 15.1875 13.125 L 15.625 12.6875 L 15.4375 12.09375 C 14.499096 9.2565189 15.235601 6.0112428 17.5625 3.90625 C 18.583011 2.9830601 19.789856 2.4067094 21.03125 2.15625 C 21.179921 2.1262547 21.32099 2.1240606 21.46875 2.125 z "
       id="path3259" />
  </g>
</svg>
