<?xml version="1.0" encoding="UTF-8" standalone="no"?>
<!-- Created with Inkscape (http://www.inkscape.org/) -->
<svg
   xmlns:dc="http://purl.org/dc/elements/1.1/"
   xmlns:cc="http://web.resource.org/cc/"
   xmlns:rdf="http://www.w3.org/1999/02/22-rdf-syntax-ns#"
   xmlns:svg="http://www.w3.org/2000/svg"
   xmlns="http://www.w3.org/2000/svg"
   xmlns:xlink="http://www.w3.org/1999/xlink"
   xmlns:sodipodi="http://sodipodi.sourceforge.net/DTD/sodipodi-0.dtd"
   xmlns:inkscape="http://www.inkscape.org/namespaces/inkscape"
   width="32"
   height="32"
   id="svg3184"
   sodipodi:version="0.32"
   inkscape:version="0.45"
   sodipodi:docname="large-format-bold.svg"
   sodipodi:docbase="/home/lse/public_html/Bambus 0.13 Developement/System/Icons/0.12/scalable/actions"
   inkscape:output_extension="org.inkscape.output.svg.inkscape"
   sodipodi:modified="true"
   version="1.0">
  <defs
     id="defs3186">
    <linearGradient
       inkscape:collect="always"
       id="linearGradient3369">
      <stop
         style="stop-color:#ffffff;stop-opacity:1;"
         offset="0"
         id="stop3371" />
      <stop
         style="stop-color:#ffffff;stop-opacity:0;"
         offset="1"
         id="stop3373" />
    </linearGradient>
    <linearGradient
       inkscape:collect="always"
       id="linearGradient3268">
      <stop
         style="stop-color:#ffffff;stop-opacity:1;"
         offset="0"
         id="stop3270" />
      <stop
         style="stop-color:#ffffff;stop-opacity:0;"
         offset="1"
         id="stop3272" />
    </linearGradient>
    <linearGradient
       inkscape:collect="always"
       xlink:href="#linearGradient3268"
       id="linearGradient3274"
       x1="23.142857"
       y1="-1.1428572"
       x2="23.142857"
       y2="50.301834"
       gradientUnits="userSpaceOnUse" />
    <linearGradient
       inkscape:collect="always"
       xlink:href="#linearGradient3369"
       id="linearGradient3375"
       x1="16.538359"
       y1="-1.9380888"
       x2="16.538359"
       y2="34.426537"
       gradientUnits="userSpaceOnUse" />
  </defs>
  <sodipodi:namedview
     id="base"
     pagecolor="#ffffff"
     bordercolor="#666666"
     borderopacity="1.0"
     inkscape:pageopacity="0.0"
     inkscape:pageshadow="2"
     inkscape:zoom="11.609375"
     inkscape:cx="24.617421"
     inkscape:cy="16"
     inkscape:current-layer="layer1"
     showgrid="true"
     inkscape:grid-bbox="true"
     inkscape:document-units="px"
     inkscape:window-width="1272"
     inkscape:window-height="949"
     inkscape:window-x="0"
     inkscape:window-y="24"
     width="32px"
     height="32px" />
  <metadata
     id="metadata3189">
    <rdf:RDF>
      <cc:Work
         rdf:about="">
        <dc:format>image/svg+xml</dc:format>
        <dc:type
           rdf:resource="http://purl.org/dc/dcmitype/StillImage" />
      </cc:Work>
    </rdf:RDF>
  </metadata>
  <g
     id="layer1"
     inkscape:label="Layer 1"
     inkscape:groupmode="layer">
    <path
       style="font-size:61.50543213px;font-style:normal;font-weight:normal;fill:#3465a4;fill-opacity:1;stroke:#204a87;stroke-width:1px;stroke-linecap:butt;stroke-linejoin:miter;stroke-opacity:1;font-family:Gentium"
       d="M 21.972206,25.394168 L 10.047604,25.394168 L 8.1658145,30.779232 L 0.49999938,30.779232 L 11.453994,1.2207675 L 20.546007,1.2207675 L 31.500001,30.779232 L 23.834187,30.779232 L 21.972206,25.394168 M 11.949201,19.910111 L 20.0508,19.910111 L 16.009905,8.1500795 L 11.949201,19.910111"
       id="text3192" />
    <path
       style="font-size:61.50543213px;font-style:normal;font-weight:normal;fill:#eeeeec;fill-opacity:1;stroke:none;stroke-width:1px;stroke-linecap:butt;stroke-linejoin:miter;stroke-opacity:1;font-family:Gentium;opacity:0.5"
       d="M 11.73978,1.71875 L 11.64603,2.0625 L 1.2802406,30.249201 L 1.6197847,30.28125 L 7.4240831,30.28125 L 7.7990831,30.28125 L 7.8928331,29.9375 L 9.6740831,24.90625 L 22.357167,24.90625 L 24.107167,29.9375 L 24.200917,30.28125 L 24.575917,30.28125 L 30.100846,30.28125 L 30.819596,30.28125 L 30.569596,29.59375 L 20.267833,2.0625 L 20.174083,1.71875 L 19.799083,1.71875 L 12.11478,1.71875 L 11.73978,1.71875 z M 12.45853,2.71875 L 19.455333,2.71875 L 29.382096,29.28125 L 24.919667,29.28125 L 23.169667,24.21875 L 22.700917,24.375 L 22.700917,23.90625 L 9.3303331,23.90625 L 8.9553331,23.90625 L 8.8303331,24.21875 L 7.0803331,29.28125 L 2.3385347,29.28125 L 12.45853,2.71875 z M 16,3.4379206 L 15.53125,4.8129206 L 10.047485,20.75 L 9.8271366,21.336936 L 10.516235,21.40625 L 21.526834,21.40625 L 22.214334,21.40625 L 21.995584,20.75 L 16.46875,4.8129206 L 16,3.4379206 z M 16,6.5004206 L 20.808084,20.40625 L 11.203735,20.40625 L 16,6.5004206 z "
       id="path3361"
       sodipodi:nodetypes="ccccccccccccccccccccccccccccccccccccccccccccccc" />
    <path
       style="font-size:61.50543213px;font-style:normal;font-weight:normal;fill:url(#linearGradient3375);fill-opacity:1.0;stroke:#204a87;stroke-width:1px;stroke-linecap:butt;stroke-linejoin:miter;stroke-opacity:1;font-family:Gentium;opacity:0.7"
       d="M 21.972206,25.394168 L 10.047604,25.394168 L 8.1658145,30.779232 L 0.49999938,30.779232 L 11.453994,1.2207675 L 20.546007,1.2207675 L 31.500001,30.779232 L 23.834187,30.779232 L 21.972206,25.394168 M 11.949201,19.910111 L 20.0508,19.910111 L 16.009905,8.1500795 L 11.949201,19.910111"
       id="path3367" />
  </g>
</svg>
