<?xml version="1.0" encoding="UTF-8" standalone="no"?>
<!-- Created with Inkscape (http://www.inkscape.org/) -->
<svg
   xmlns:dc="http://purl.org/dc/elements/1.1/"
   xmlns:cc="http://web.resource.org/cc/"
   xmlns:rdf="http://www.w3.org/1999/02/22-rdf-syntax-ns#"
   xmlns:svg="http://www.w3.org/2000/svg"
   xmlns="http://www.w3.org/2000/svg"
   xmlns:xlink="http://www.w3.org/1999/xlink"
   xmlns:sodipodi="http://sodipodi.sourceforge.net/DTD/sodipodi-0.dtd"
   xmlns:inkscape="http://www.inkscape.org/namespaces/inkscape"
   width="32"
   height="32"
   id="svg1908"
   sodipodi:version="0.32"
   inkscape:version="0.45"
   sodipodi:docbase="/home/lse/public_html/Bambus 0.13 Developement/System/Icons/0.12/scalable/actions"
   sodipodi:docname="large-link.svg"
   inkscape:export-filename="/home/lse/public_html/Bambus/System/Images/Mimetypes/22x22/link.png"
   inkscape:export-xdpi="30.9375"
   inkscape:export-ydpi="30.9375"
   inkscape:output_extension="org.inkscape.output.svg.inkscape"
   version="1.0"
   sodipodi:modified="true">
  <defs
     id="defs1910">
    <linearGradient
       inkscape:collect="always"
       id="linearGradient3217">
      <stop
         style="stop-color:#ffffff;stop-opacity:1;"
         offset="0"
         id="stop3219" />
      <stop
         style="stop-color:#ffffff;stop-opacity:0;"
         offset="1"
         id="stop3221" />
    </linearGradient>
    <linearGradient
       inkscape:collect="always"
       id="linearGradient3192">
      <stop
         style="stop-color:#ffffff;stop-opacity:1;"
         offset="0"
         id="stop3194" />
      <stop
         style="stop-color:#ffffff;stop-opacity:0;"
         offset="1"
         id="stop3196" />
    </linearGradient>
    <linearGradient
       inkscape:collect="always"
       id="linearGradient2917">
      <stop
         style="stop-color:white;stop-opacity:1;"
         offset="0"
         id="stop2919" />
      <stop
         style="stop-color:white;stop-opacity:0;"
         offset="1"
         id="stop2921" />
    </linearGradient>
    <linearGradient
       gradientUnits="userSpaceOnUse"
       y2="51.943184"
       x2="36.275566"
       y1="1.2059659"
       x1="1.622159"
       id="linearGradient3920"
       xlink:href="#linearGradient3914"
       inkscape:collect="always" />
    <linearGradient
       y2="-3.0100007"
       x2="53.010002"
       y1="15.404092"
       x1="38.727276"
       gradientTransform="translate(3.626363,-0.313182)"
       gradientUnits="userSpaceOnUse"
       id="linearGradient3894"
       xlink:href="#linearGradient2780"
       inkscape:collect="always" />
    <linearGradient
       gradientTransform="translate(3.626363,-0.313182)"
       gradientUnits="userSpaceOnUse"
       y2="-3.0100007"
       x2="53.010002"
       y1="15.404092"
       x1="38.727276"
       id="linearGradient2786"
       xlink:href="#linearGradient2780"
       inkscape:collect="always" />
    <linearGradient
       id="linearGradient2780"
       inkscape:collect="always">
      <stop
         id="stop2782"
         offset="0"
         style="stop-color:white;stop-opacity:1;" />
      <stop
         id="stop2784"
         offset="1"
         style="stop-color:white;stop-opacity:0;" />
    </linearGradient>
    <linearGradient
       id="linearGradient3914"
       inkscape:collect="always">
      <stop
         id="stop3916"
         offset="0"
         style="stop-color:white;stop-opacity:1;" />
      <stop
         id="stop3918"
         offset="1"
         style="stop-color:white;stop-opacity:0;" />
    </linearGradient>
    <linearGradient
       inkscape:collect="always"
       xlink:href="#linearGradient2917"
       id="linearGradient2923"
       x1="-1.3572732"
       y1="3.3177893"
       x2="-1.3572732"
       y2="62.597965"
       gradientUnits="userSpaceOnUse" />
    <linearGradient
       inkscape:collect="always"
       xlink:href="#linearGradient3192"
       id="linearGradient3211"
       gradientUnits="userSpaceOnUse"
       x1="-7.4782119"
       y1="13.323348"
       x2="-7.4782119"
       y2="65.770065" />
    <linearGradient
       inkscape:collect="always"
       xlink:href="#linearGradient3217"
       id="linearGradient3223"
       x1="-7.3466139"
       y1="-6.4641843"
       x2="-7.3466139"
       y2="59.771973"
       gradientUnits="userSpaceOnUse"
       gradientTransform="matrix(0.5440912,0,0,0.5005653,13.081914,2.9378577)" />
  </defs>
  <sodipodi:namedview
     id="base"
     pagecolor="#ffffff"
     bordercolor="#666666"
     borderopacity="1.0"
     inkscape:pageopacity="0.0"
     inkscape:pageshadow="2"
     inkscape:zoom="15.255049"
     inkscape:cx="24.044626"
     inkscape:cy="22.784915"
     inkscape:current-layer="layer1"
     showgrid="true"
     inkscape:document-units="px"
     inkscape:grid-bbox="true"
     inkscape:window-width="1272"
     inkscape:window-height="949"
     inkscape:window-x="0"
     inkscape:window-y="24"
     width="32px"
     height="32px" />
  <metadata
     id="metadata1913">
    <rdf:RDF>
      <cc:Work
         rdf:about="">
        <dc:format>image/svg+xml</dc:format>
        <dc:type
           rdf:resource="http://purl.org/dc/dcmitype/StillImage" />
      </cc:Work>
    </rdf:RDF>
  </metadata>
  <g
     id="layer1"
     inkscape:label="Layer 1"
     inkscape:groupmode="layer">
    <path
       sodipodi:type="arc"
       style="fill:#3465a4;fill-opacity:1;stroke:#204a87;stroke-width:1.50826764;stroke-linejoin:round;stroke-miterlimit:4;stroke-dasharray:none;stroke-opacity:1"
       id="path2829"
       sodipodi:cx="-10.727273"
       sodipodi:cy="31.818182"
       sodipodi:rx="13.454545"
       sodipodi:ry="13.454545"
       d="M 2.727272 31.818182 A 13.454545 13.454545 0 1 1  -24.181818,31.818182 A 13.454545 13.454545 0 1 1  2.727272 31.818182 z"
       transform="matrix(0.6629716,0,0,0.6630531,29.67819,-11.792963)" />
    <path
       style="fill:#73d216;fill-opacity:1;fill-rule:evenodd;stroke:none;stroke-width:1px;stroke-linecap:butt;stroke-linejoin:miter;stroke-opacity:1"
       d="M 21.601991,10.750842 C 21.523423,10.436533 21.432788,11.570394 21.722531,11.715282 C 22.72822,12.218189 21.8711,13.177364 23.410095,12.920834 C 23.546015,12.898178 23.048474,14.767443 23.048474,15.211381 C 23.048474,16.291516 24.143793,15.080367 24.494957,14.72916 C 25.151427,14.07261 25.184238,13.591538 25.57982,12.800279 C 26.096622,11.766546 26.713065,11.792704 26.061981,10.750842 C 25.594112,10.002158 25.251547,10.005711 24.374417,9.7864011 C 23.467373,9.5596114 22.546687,9.4345489 21.84307,9.7864011 C 21.546718,9.9345962 21.66697,10.425902 21.601991,10.750842 z "
       id="path2837" />
    <path
       style="fill:#73d216;fill-opacity:1;fill-rule:evenodd;stroke:none;stroke-width:1px;stroke-linecap:butt;stroke-linejoin:miter;stroke-opacity:1"
       d="M 17.503621,3.39698 C 16.957253,3.39698 15.516588,4.0619157 16.418757,4.9641965 C 16.96256,5.5080654 16.304876,6.2608645 15.816056,6.6519686 C 15.705787,6.7401937 16.575746,8.6173022 16.780379,8.8219599 C 17.104475,9.1460962 18.396698,8.1852135 18.829564,8.0986295 C 19.93689,7.8771368 20.552411,7.9898148 20.758209,6.6519686 C 20.904614,5.7002116 20.370862,5.2078266 19.733616,4.8436414 C 19.175389,4.524615 19.015105,3.7447587 18.106322,3.5175353 C 17.90756,3.4678387 17.704521,3.4371653 17.503621,3.39698 z "
       id="path2833" />
    <path
       style="fill:#73d216;fill-opacity:1;fill-rule:evenodd;stroke:none;stroke-width:1px;stroke-linecap:butt;stroke-linejoin:miter;stroke-opacity:1"
       d="M 16.780379,9.3041809 C 16.09263,9.1322221 16.106069,10.434533 15.816056,11.594728 C 15.622084,12.370709 15.686348,12.791109 16.418757,13.523609 C 16.893208,13.998119 17.594255,14.21703 18.226862,14.849715 C 18.724051,15.346966 18.774917,12.932084 18.588483,12.559169 C 18.227871,11.837853 17.784397,10.909646 17.624161,10.268621 C 17.510281,9.8130448 17.162323,9.4951765 16.780379,9.3041809 z "
       id="path2835" />
    <path
       style="fill:#73d216;fill-opacity:1;fill-rule:evenodd;stroke:none;stroke-width:1px;stroke-linecap:butt;stroke-linejoin:miter;stroke-opacity:1"
       d="M 22.084152,7.4355764 C 21.095395,7.9300147 23.711872,8.174083 23.892256,8.2191842 C 24.810715,8.4488275 25.097659,8.2942073 25.097659,9.0630701 C 25.097659,9.4869226 26.138719,8.5830892 26.363332,8.9425153 C 26.903827,9.8074134 26.363332,10.202286 26.363332,11.233063 C 26.363332,12.278278 28.015068,10.46084 28.111166,10.268621 C 28.554057,9.3827308 29.822072,9.4791769 30.521972,9.3041809 C 31.241035,9.1243927 31.038068,8.4754962 30.883593,7.8575194 C 30.84812,7.7156107 30.803232,7.5762239 30.763053,7.4355764 C 30.624323,6.9499655 30.308571,6.1599252 30.160351,5.5669716 C 29.887392,4.475003 29.144142,4.1203108 28.834408,4.1203108 C 28.076775,4.1203108 27.98921,4.8741336 27.146844,5.0847512 C 26.153548,5.3331058 26.898529,5.9304466 27.387924,5.8080828 C 27.85569,5.6911266 26.360074,6.0473307 25.941441,5.8080828 C 25.409784,5.5042411 25.097659,4.1587657 25.097659,5.5669716 C 25.097659,5.9349626 23.871746,5.4874416 23.530635,6.1697478 C 23.054158,7.1228188 21.46639,6.0454404 22.084152,7.4355764 z "
       id="path2839" />
    <path
       style="fill:#ffffff;fill-opacity:1;fill-rule:evenodd;stroke:none;stroke-width:1px;stroke-linecap:butt;stroke-linejoin:miter;stroke-opacity:1"
       d="M 19.432265,1.5886532 C 19.435522,1.8489281 20.369043,2.5995979 21.240369,3.0353147 C 22.117738,3.4740536 22.64973,3.5972938 23.651175,3.39698 C 24.71213,3.1847635 23.798493,2.1914291 24.977118,2.1914291 C 25.902414,2.1914291 25.788687,1.0400627 25.096787,0.86706589 C 24.308525,0.66997624 23.548783,0.5058369 22.566313,0.5058369 C 21.883251,0.5058369 21.200189,0.80504525 20.517127,0.80504525 C 19.811274,0.80504525 20.084989,0.74000775 19.432265,1.5886532 z "
       id="path2831"
       sodipodi:nodetypes="cssssssc" />
    <path
       sodipodi:type="arc"
       style="opacity:0.5;fill:none;fill-opacity:1;stroke:#eeeeec;stroke-width:1.72181797;stroke-linejoin:round;stroke-miterlimit:4;stroke-dasharray:none;stroke-opacity:1"
       id="path3186"
       sodipodi:cx="-10.727273"
       sodipodi:cy="31.818182"
       sodipodi:rx="13.454545"
       sodipodi:ry="13.454545"
       d="M 2.727272 31.818182 A 13.454545 13.454545 0 1 1  -24.181818,31.818182 A 13.454545 13.454545 0 1 1  2.727272 31.818182 z"
       transform="matrix(0.5807459,0,0,0.5808172,28.796132,-9.1763659)" />
    <path
       sodipodi:type="arc"
       style="fill:none;fill-opacity:1;stroke:#204a87;stroke-width:1.50826764;stroke-linejoin:round;stroke-miterlimit:4;stroke-dasharray:none;stroke-opacity:1"
       id="path3188"
       sodipodi:cx="-10.727273"
       sodipodi:cy="31.818182"
       sodipodi:rx="13.454545"
       sodipodi:ry="13.454545"
       d="M 2.727272 31.818182 A 13.454545 13.454545 0 1 1  -24.181818,31.818182 A 13.454545 13.454545 0 1 1  2.727272 31.818182 z"
       transform="matrix(0.6629716,0,0,0.6630531,29.67819,-11.792963)" />
    <path
       sodipodi:type="arc"
       style="opacity:0.7;fill:url(#linearGradient3211);fill-opacity:1;stroke:#204a87;stroke-width:1.50826764;stroke-linejoin:round;stroke-miterlimit:4;stroke-dasharray:none;stroke-opacity:1"
       id="path3190"
       sodipodi:cx="-10.727273"
       sodipodi:cy="31.818182"
       sodipodi:rx="13.454545"
       sodipodi:ry="13.454545"
       d="M 2.727272 31.818182 A 13.454545 13.454545 0 1 1  -24.181818,31.818182 A 13.454545 13.454545 0 1 1  2.727272 31.818182 z"
       transform="matrix(0.6629716,0,0,0.6630531,29.67819,-11.792963)" />
    <g
       id="g2925"
       transform="matrix(0.5440912,0,0,0.5005653,13.081914,2.9378577)"
       style="fill:#73d216;stroke:#4e9a06;stroke-width:1.51925385">
      <path
         sodipodi:nodetypes="cccsscscc"
         id="rect1892"
         d="M -10.6457,11.340727 L 9.2564645,14.98464 L 7.3040022,34.434294 C 7.3040022,34.434294 0.71905635,26.766993 0.71905635,26.766993 C 0.71905635,26.766993 -4.0052101,28.982549 -12.263566,37.318997 C -20.52192,45.655444 -23.164581,57.63 -23.164581,57.63 C -23.164581,57.63 -23.557914,46.124108 -19.613388,36.339571 C -15.668861,26.555036 -4.617835,18.917801 -4.617835,18.917801 L -10.6457,11.340727 z "
         style="fill:#73d216;fill-opacity:1;stroke:#4e9a06;stroke-width:1.91616905;stroke-linejoin:round;stroke-miterlimit:4;stroke-dasharray:none;stroke-opacity:1" />
    </g>
    <path
       sodipodi:nodetypes="cccsscscc"
       id="path3213"
       d="M 9.6869052,9.9017369 L 17.059918,11.272663 L 16.323698,18.029906 C 16.323698,18.029906 13.579381,15.075644 13.579381,15.075644 C 13.579381,15.075644 10.807749,16.139297 6.6865232,19.966688 C 2.5652995,23.794079 1.7311245,26.556783 1.7311245,26.556783 C 1.7311245,26.556783 1.5779817,25.498758 3.546446,21.006527 C 5.5149107,16.514297 12.065258,12.66603 12.065258,12.66603 L 9.6869052,9.9017369 z "
       style="opacity:0.5;fill:#73d216;fill-opacity:1;stroke:#eeeeec;stroke-width:1;stroke-linejoin:miter;stroke-miterlimit:4;stroke-dasharray:none;stroke-opacity:1" />
    <path
       sodipodi:nodetypes="cccsscscc"
       id="path3215"
       d="M 7.2896823,8.6146321 L 18.118275,10.438649 L 17.055957,20.17447 C 17.055957,20.17447 13.473146,16.336486 13.473146,16.336486 C 13.473146,16.336486 10.902714,17.445516 6.4094157,21.618453 C 1.9161179,25.791389 0.47826933,31.785436 0.47826933,31.785436 C 0.47826933,31.785436 0.2642603,26.025986 2.4104422,21.128186 C 4.5566246,16.230387 10.569391,12.407452 10.569391,12.407452 L 7.2896823,8.6146321 z "
       style="opacity:0.7;fill:url(#linearGradient3223);fill-opacity:1;stroke:#4e9a06;stroke-width:1.00000012;stroke-linejoin:round;stroke-miterlimit:4;stroke-dasharray:none;stroke-opacity:1" />
  </g>
</svg>
