<?xml version="1.0" encoding="UTF-8" standalone="no"?>
<!-- Created with Inkscape (http://www.inkscape.org/) -->
<svg
   xmlns:dc="http://purl.org/dc/elements/1.1/"
   xmlns:cc="http://web.resource.org/cc/"
   xmlns:rdf="http://www.w3.org/1999/02/22-rdf-syntax-ns#"
   xmlns:svg="http://www.w3.org/2000/svg"
   xmlns="http://www.w3.org/2000/svg"
   xmlns:xlink="http://www.w3.org/1999/xlink"
   xmlns:sodipodi="http://sodipodi.sourceforge.net/DTD/sodipodi-0.dtd"
   xmlns:inkscape="http://www.inkscape.org/namespaces/inkscape"
   width="32"
   height="32"
   id="svg2160"
   sodipodi:version="0.32"
   inkscape:version="0.45"
   sodipodi:docbase="/home/lse/public_html/Bambus/System/Icons/0.12/scalable/actions"
   sodipodi:docname="medium-debug.svg"
   inkscape:output_extension="org.inkscape.output.svg.inkscape"
   version="1.0"
   sodipodi:modified="true">
  <defs
     id="defs2162">
    <linearGradient
       inkscape:collect="always"
       id="linearGradient3188">
      <stop
         style="stop-color:#eeeeec;stop-opacity:1;"
         offset="0"
         id="stop3190" />
      <stop
         style="stop-color:#eeeeec;stop-opacity:0;"
         offset="1"
         id="stop3192" />
    </linearGradient>
    <linearGradient
       inkscape:collect="always"
       xlink:href="#linearGradient3188"
       id="linearGradient3194"
       x1="22.142857"
       y1="-2"
       x2="22.142857"
       y2="51.286911"
       gradientUnits="userSpaceOnUse" />
    <linearGradient
       inkscape:collect="always"
       xlink:href="#linearGradient3188"
       id="linearGradient3232"
       gradientUnits="userSpaceOnUse"
       x1="22.142857"
       y1="-2"
       x2="22.142857"
       y2="51.286911" />
    <linearGradient
       inkscape:collect="always"
       xlink:href="#linearGradient3188"
       id="linearGradient2191"
       gradientUnits="userSpaceOnUse"
       x1="22.142857"
       y1="-2"
       x2="22.142857"
       y2="51.286911"
       gradientTransform="matrix(0.6696562,0,0,0.6696562,0.9327355,-0.1434976)" />
  </defs>
  <sodipodi:namedview
     id="base"
     pagecolor="#ffffff"
     bordercolor="#666666"
     borderopacity="1.0"
     inkscape:pageopacity="0.0"
     inkscape:pageshadow="2"
     inkscape:zoom="7"
     inkscape:cx="24"
     inkscape:cy="10.539519"
     inkscape:current-layer="layer1"
     showgrid="true"
     inkscape:grid-bbox="true"
     inkscape:document-units="px"
     showguides="true"
     inkscape:guide-bbox="true"
     inkscape:window-width="872"
     inkscape:window-height="629"
     inkscape:window-x="105"
     inkscape:window-y="164"
     width="32px"
     height="32px" />
  <metadata
     id="metadata2165">
    <rdf:RDF>
      <cc:Work
         rdf:about="">
        <dc:format>image/svg+xml</dc:format>
        <dc:type
           rdf:resource="http://purl.org/dc/dcmitype/StillImage" />
      </cc:Work>
    </rdf:RDF>
  </metadata>
  <g
     id="layer1"
     inkscape:label="Layer 1"
     inkscape:groupmode="layer">
    <path
       style="color:#000000;fill:#3465a4;fill-opacity:1;fill-rule:nonzero;stroke:#204a87;stroke-width:1;stroke-linecap:square;stroke-linejoin:miter;marker:none;marker-start:none;marker-mid:none;marker-end:none;stroke-miterlimit:4;stroke-dasharray:none;stroke-dashoffset:0;stroke-opacity:1;visibility:visible;display:inline;overflow:visible;enable-background:accumulate"
       d="M 9.7712143,6.9311376 L 9.7712143,28.067777 L 9.7990211,28.067777 C 9.7739699,28.20728 9.7712143,28.361499 9.7712143,28.505087 C 9.7712143,30.620167 12.56171,31.665169 16,31.665171 C 19.43829,31.665171 22.228786,30.620169 22.228786,28.505087 C 22.228786,28.361499 22.22603,28.20728 22.200979,28.067777 L 22.228786,28.067777 L 22.228786,6.9311376 L 9.7712143,6.9311376 z "
       id="path3165"
       sodipodi:nodetypes="cccssscccc" />
    <path
       style="opacity:0.5;color:#000000;fill:#3465a4;fill-opacity:1;fill-rule:nonzero;stroke:#eeeeec;stroke-width:0.99999982;stroke-linecap:square;stroke-linejoin:miter;marker:none;marker-start:none;marker-mid:none;marker-end:none;stroke-miterlimit:4;stroke-dasharray:none;stroke-dashoffset:0;stroke-opacity:1;visibility:visible;display:inline;overflow:visible;enable-background:accumulate"
       d="M 10.591104,6.5500302 L 10.591104,28.06142 L 10.615251,28.06142 C 10.593498,28.182559 10.591104,28.316478 10.591104,28.441167 C 10.591104,30.277841 12.918624,30.898294 15.904335,30.898296 C 18.890045,30.898296 21.408894,30.277843 21.408894,28.441167 C 21.408894,28.316478 21.406501,28.182559 21.384748,28.06142 L 21.408894,28.06142 L 21.408894,6.5500302 L 10.591104,6.5500302 z "
       id="path3177"
       sodipodi:nodetypes="cccssscccc" />
    <path
       style="color:#000000;fill:#eeeeec;fill-opacity:1;fill-rule:nonzero;stroke:#204a87;stroke-width:0.99999988;stroke-linecap:square;stroke-linejoin:miter;marker:none;marker-start:none;marker-mid:none;marker-end:none;stroke-miterlimit:4;stroke-dashoffset:0;stroke-opacity:1;visibility:visible;display:inline;overflow:visible;enable-background:accumulate"
       d="M 22.228786,6.541198 C 22.228786,7.376092 19.43829,8.0536869 16,8.0536869 C 12.56171,8.0536869 9.7712143,7.376092 9.7712143,6.541198 C 9.7712143,5.7063045 16,3.7683026 16,3.7683026 C 16,3.7683026 22.228786,5.7063045 22.228786,6.541198 z "
       id="path3167"
       sodipodi:nodetypes="csssc" />
    <path
       style="opacity:0.5;color:#000000;fill:#3465a4;fill-opacity:1;fill-rule:nonzero;stroke:#eeeeec;stroke-width:0.99999976;stroke-linecap:square;stroke-linejoin:miter;marker:none;marker-start:none;marker-mid:none;marker-end:none;stroke-miterlimit:4;stroke-dashoffset:0;stroke-opacity:1;visibility:visible;display:inline;overflow:visible;enable-background:accumulate"
       d="M 21.032377,6.4770991 C 21.032377,6.4770991 18.566644,7.5104899 15.999999,7.5104899 C 13.433355,7.5104899 10.967621,6.5727643 10.967621,6.5727643 C 10.967621,6.5727643 15.999999,4.3114996 15.999999,4.3114996 C 15.999999,4.3114996 21.032377,6.4770991 21.032377,6.4770991 z "
       id="path3175"
       sodipodi:nodetypes="csssc" />
    <path
       style="opacity:0.7;color:#000000;fill:url(#linearGradient2191);fill-opacity:1;fill-rule:nonzero;stroke:#204a87;stroke-width:1;stroke-linecap:square;stroke-linejoin:miter;marker:none;marker-start:none;marker-mid:none;marker-end:none;stroke-miterlimit:4;stroke-dasharray:none;stroke-dashoffset:0;stroke-opacity:1;visibility:visible;display:inline;overflow:visible;enable-background:accumulate"
       d="M 14.409567,0.33781779 L 14.409567,3.9581466 L 15.414051,3.9581466 C 14.069602,4.3922338 9.7638266,5.8216721 9.7638266,6.5321376 C 9.7638266,6.6679004 9.8556606,6.8045391 9.994021,6.929746 L 9.7638266,6.929746 L 9.7638266,28.06577 L 9.8056802,28.06577 C 9.780629,28.205273 9.7638266,28.361643 9.7638266,28.505232 C 9.7638266,30.620312 12.56171,31.665171 16,31.665172 C 19.43829,31.665173 22.236173,30.620314 22.236173,28.505232 C 22.236173,28.361644 22.219371,28.205273 22.19432,28.06577 L 22.236173,28.06577 L 22.236173,6.929746 L 22.005979,6.929746 C 22.144339,6.8045391 22.236173,6.6679004 22.236173,6.5321376 C 22.236173,5.8216721 17.930398,4.3922338 16.585949,3.9581466 L 17.506726,3.9581466 L 17.506726,0.33781779 L 14.409567,0.33781779 z "
       id="path3181" />
    <rect
       style="color:#000000;fill:#eeeeec;fill-opacity:1;fill-rule:nonzero;stroke:#555753;stroke-width:1;stroke-linecap:square;stroke-linejoin:miter;marker:none;marker-start:none;marker-mid:none;marker-end:none;stroke-miterlimit:4;stroke-dasharray:none;stroke-dashoffset:0;stroke-opacity:1;visibility:visible;display:inline;overflow:visible;enable-background:accumulate"
       id="rect3173"
       width="3.0977156"
       height="3.6157284"
       x="14.409799"
       y="0.33482808" />
    <path
       sodipodi:type="arc"
       style="opacity:0.5;color:#000000;fill:#3465a4;fill-opacity:1;fill-rule:nonzero;stroke:#555753;stroke-width:1.49330354;stroke-linecap:square;stroke-linejoin:miter;marker:none;marker-start:none;marker-mid:none;marker-end:none;stroke-miterlimit:4;stroke-dasharray:none;stroke-dashoffset:0;stroke-opacity:1;visibility:visible;display:inline;overflow:visible;enable-background:accumulate"
       id="path3179"
       sodipodi:cx="20.642857"
       sodipodi:cy="3.2142856"
       sodipodi:rx="0.5"
       sodipodi:ry="0.64285713"
       d="M 21.142857 3.2142856 A 0.5 0.64285713 0 1 1  20.142857,3.2142856 A 0.5 0.64285713 0 1 1  21.142857 3.2142856 z"
       transform="matrix(0.6696562,0,0,0.6696562,0.9327355,-0.1434976)" />
    <g
       id="g3155"
       transform="matrix(0.4741361,0,0,0.4741361,7.0295135,7.4503615)">
      <path
         transform="translate(7.1428865e-2,0)"
         d="M 21.571428 15.071428 A 2.4285715 2.6428571 0 1 1  16.714285,15.071428 A 2.4285715 2.6428571 0 1 1  21.571428 15.071428 z"
         sodipodi:ry="2.6428571"
         sodipodi:rx="2.4285715"
         sodipodi:cy="15.071428"
         sodipodi:cx="19.142857"
         id="path2170"
         style="opacity:1;color:#000000;fill:#555753;fill-opacity:1;fill-rule:nonzero;stroke:#000000;stroke-width:2.10909891;stroke-linecap:square;stroke-linejoin:miter;marker:none;marker-start:none;marker-mid:none;marker-end:none;stroke-miterlimit:4;stroke-dasharray:none;stroke-dashoffset:0;stroke-opacity:1;visibility:visible;display:inline;overflow:visible;enable-background:accumulate"
         sodipodi:type="arc" />
      <path
         id="path3143"
         d="M 23.571429,18.428572 L 26.857143,14.714286"
         style="fill:none;fill-rule:evenodd;stroke:#000000;stroke-width:2.10909891px;stroke-linecap:butt;stroke-linejoin:miter;stroke-opacity:1" />
      <path
         id="path3145"
         d="M 24.571429,22.428571 L 28.285714,21.571428"
         style="fill:none;fill-rule:evenodd;stroke:#000000;stroke-width:2.10909891px;stroke-linecap:butt;stroke-linejoin:miter;stroke-opacity:1" />
      <path
         id="path3147"
         d="M 23.285714,25.999999 L 26.142856,30.42857"
         style="fill:none;fill-rule:evenodd;stroke:#000000;stroke-width:2.10909891px;stroke-linecap:butt;stroke-linejoin:miter;stroke-opacity:1" />
      <path
         id="path3149"
         d="M 15,18.357143 L 12.714286,14.642857"
         style="fill:none;fill-rule:evenodd;stroke:#000000;stroke-width:2.10909891px;stroke-linecap:butt;stroke-linejoin:miter;stroke-opacity:1" />
      <path
         id="path3151"
         d="M 14.375,22 L 9.5535717,22"
         style="fill:none;fill-rule:evenodd;stroke:#000000;stroke-width:2.10909891px;stroke-linecap:butt;stroke-linejoin:miter;stroke-opacity:1" />
      <path
         id="path3153"
         d="M 15.000001,26.500002 L 11.285715,29.785716"
         style="fill:none;fill-rule:evenodd;stroke:#000000;stroke-width:2.10909915px;stroke-linecap:butt;stroke-linejoin:miter;stroke-opacity:1" />
      <path
         transform="matrix(0.8705882,0,0,1,17.535294,6.8571429)"
         d="M 8.0000002 16.357143 A 6.0714288 7.7857141 0 1 1  -4.1428573,16.357143 A 6.0714288 7.7857141 0 1 1  8.0000002 16.357143 z"
         sodipodi:ry="7.7857141"
         sodipodi:rx="6.0714288"
         sodipodi:cy="16.357143"
         sodipodi:cx="1.9285715"
         id="path2168"
         style="opacity:1;color:#000000;fill:#2e3436;fill-opacity:1;fill-rule:nonzero;stroke:#000000;stroke-width:2.26042724;stroke-linecap:square;stroke-linejoin:miter;marker:none;marker-start:none;marker-mid:none;marker-end:none;stroke-miterlimit:4;stroke-dasharray:none;stroke-dashoffset:0;stroke-opacity:1;visibility:visible;display:inline;overflow:visible;enable-background:accumulate"
         sodipodi:type="arc" />
    </g>
  </g>
</svg>
