<?xml version="1.0" encoding="UTF-8" standalone="no"?>
<!-- Created with Inkscape (http://www.inkscape.org/) -->
<svg
   xmlns:dc="http://purl.org/dc/elements/1.1/"
   xmlns:cc="http://web.resource.org/cc/"
   xmlns:rdf="http://www.w3.org/1999/02/22-rdf-syntax-ns#"
   xmlns:svg="http://www.w3.org/2000/svg"
   xmlns="http://www.w3.org/2000/svg"
   xmlns:xlink="http://www.w3.org/1999/xlink"
   xmlns:sodipodi="http://sodipodi.sourceforge.net/DTD/sodipodi-0.dtd"
   xmlns:inkscape="http://www.inkscape.org/namespaces/inkscape"
   width="32"
   height="32"
   id="svg2818"
   sodipodi:version="0.32"
   inkscape:version="0.45"
   sodipodi:docbase="/home/lse/public_html/Bambus/System/Icons/0.12/scalable/actions"
   sodipodi:docname="medium-sort.svg"
   inkscape:export-filename="/home/lse/public_html/Bambus/System/Icons/actions/48x48/action-sort.png"
   inkscape:export-xdpi="67.5"
   inkscape:export-ydpi="67.5"
   version="1.0"
   inkscape:output_extension="org.inkscape.output.svg.inkscape"
   sodipodi:modified="true">
  <defs
     id="defs2820">
    <linearGradient
       inkscape:collect="always"
       id="linearGradient2858">
      <stop
         style="stop-color:white;stop-opacity:1;"
         offset="0"
         id="stop2860" />
      <stop
         style="stop-color:white;stop-opacity:0;"
         offset="1"
         id="stop2862" />
    </linearGradient>
    <linearGradient
       inkscape:collect="always"
       id="linearGradient2848">
      <stop
         style="stop-color:white;stop-opacity:1;"
         offset="0"
         id="stop2850" />
      <stop
         style="stop-color:white;stop-opacity:0;"
         offset="1"
         id="stop2852" />
    </linearGradient>
    <linearGradient
       inkscape:collect="always"
       id="linearGradient2838">
      <stop
         style="stop-color:white;stop-opacity:1"
         offset="0"
         id="stop2840" />
      <stop
         style="stop-color:#fcaf3e;stop-opacity:0;"
         offset="1"
         id="stop2842" />
    </linearGradient>
    <linearGradient
       inkscape:collect="always"
       xlink:href="#linearGradient2838"
       id="linearGradient2844"
       x1="11"
       y1="25.818182"
       x2="11"
       y2="38"
       gradientUnits="userSpaceOnUse" />
    <linearGradient
       inkscape:collect="always"
       xlink:href="#linearGradient2848"
       id="linearGradient2854"
       x1="11"
       y1="26.053476"
       x2="11"
       y2="37.478073"
       gradientUnits="userSpaceOnUse" />
    <linearGradient
       inkscape:collect="always"
       xlink:href="#linearGradient2858"
       id="linearGradient2864"
       x1="11"
       y1="26.155039"
       x2="11"
       y2="37.688515"
       gradientUnits="userSpaceOnUse" />
  </defs>
  <sodipodi:namedview
     id="base"
     pagecolor="#ffffff"
     bordercolor="#666666"
     borderopacity="1.0"
     inkscape:pageopacity="0.0"
     inkscape:pageshadow="2"
     inkscape:zoom="15.556349"
     inkscape:cx="32"
     inkscape:cy="22.971563"
     inkscape:current-layer="layer1"
     showgrid="true"
     inkscape:document-units="px"
     inkscape:grid-bbox="true"
     inkscape:window-width="1272"
     inkscape:window-height="945"
     inkscape:window-x="0"
     inkscape:window-y="25"
     width="32px"
     height="32px" />
  <metadata
     id="metadata2823">
    <rdf:RDF>
      <cc:Work
         rdf:about="">
        <dc:format>image/svg+xml</dc:format>
        <dc:type
           rdf:resource="http://purl.org/dc/dcmitype/StillImage" />
      </cc:Work>
    </rdf:RDF>
  </metadata>
  <g
     id="layer1"
     inkscape:label="Layer 1"
     inkscape:groupmode="layer">
    <path
       sodipodi:type="arc"
       style="opacity:1;fill:#fcaf3e;fill-opacity:1;stroke:#ce5c00;stroke-width:1.63567948;stroke-miterlimit:4;stroke-dasharray:none;stroke-opacity:1"
       id="path2826"
       sodipodi:cx="11"
       sodipodi:cy="31.818182"
       sodipodi:rx="4.4545455"
       sodipodi:ry="4.7272725"
       d="M 15.454545 31.818182 A 4.4545455 4.7272725 0 1 1  6.5454545,31.818182 A 4.4545455 4.7272725 0 1 1  15.454545 31.818182 z"
       transform="matrix(0.6216059,0,0,0.6012962,-3.4589888,-3.005635)" />
    <path
       sodipodi:type="arc"
       style="opacity:1;fill:#fcaf3e;fill-opacity:1;stroke:#ce5c00;stroke-width:0.9939974;stroke-miterlimit:4;stroke-dasharray:none;stroke-opacity:1"
       id="path2830"
       sodipodi:cx="11"
       sodipodi:cy="31.818182"
       sodipodi:rx="4.4545455"
       sodipodi:ry="4.7272725"
       d="M 15.454545 31.818182 A 4.4545455 4.7272725 0 1 1  6.5454545,31.818182 A 4.4545455 4.7272725 0 1 1  15.454545 31.818182 z"
       transform="matrix(1.0228884,0,0,0.9894669,0.6707356,-15.35653)" />
    <path
       sodipodi:type="arc"
       style="opacity:1;fill:#fcaf3e;fill-opacity:1;stroke:#ce5c00;stroke-width:0.67456752;stroke-miterlimit:4;stroke-dasharray:none;stroke-opacity:1"
       id="path2832"
       sodipodi:cx="11"
       sodipodi:cy="31.818182"
       sodipodi:rx="4.4545455"
       sodipodi:ry="4.7272725"
       d="M 15.454545 31.818182 A 4.4545455 4.7272725 0 1 1  6.5454545,31.818182 A 4.4545455 4.7272725 0 1 1  15.454545 31.818182 z"
       transform="matrix(1.5072602,0,0,1.4580113,8.158405,-30.264769)" />
    <path
       sodipodi:type="arc"
       style="opacity:1;fill:url(#linearGradient2844);fill-opacity:1;stroke:none;stroke-width:1;stroke-miterlimit:4;stroke-dasharray:none;stroke-opacity:1"
       id="path2836"
       sodipodi:cx="11"
       sodipodi:cy="31.818182"
       sodipodi:rx="4.4545455"
       sodipodi:ry="4.7272725"
       d="M 15.454545 31.818182 A 4.4545455 4.7272725 0 1 1  6.5454545,31.818182 A 4.4545455 4.7272725 0 1 1  15.454545 31.818182 z"
       transform="matrix(0.533989,0,0,0.516542,-2.495203,-0.308911)" />
    <path
       sodipodi:type="arc"
       style="opacity:1;fill:url(#linearGradient2854);fill-opacity:1;stroke:none;stroke-width:0.57647055;stroke-miterlimit:4;stroke-dasharray:none;stroke-opacity:1"
       id="path2846"
       sodipodi:cx="11"
       sodipodi:cy="31.818182"
       sodipodi:rx="4.4545455"
       sodipodi:ry="4.7272725"
       d="M 15.454545 31.818182 A 4.4545455 4.7272725 0 1 1  6.5454545,31.818182 A 4.4545455 4.7272725 0 1 1  15.454545 31.818182 z"
       transform="matrix(0.926308,0,0,0.896042,1.733121,-12.38392)" />
    <path
       sodipodi:type="arc"
       style="opacity:1;fill:url(#linearGradient2864);fill-opacity:1;stroke:none;stroke-width:0.37984496;stroke-miterlimit:4;stroke-dasharray:none;stroke-opacity:1"
       id="path2856"
       sodipodi:cx="11"
       sodipodi:cy="31.818182"
       sodipodi:rx="4.4545455"
       sodipodi:ry="4.7272725"
       d="M 15.454545 31.818182 A 4.4545455 4.7272725 0 1 1  6.5454545,31.818182 A 4.4545455 4.7272725 0 1 1  15.454545 31.818182 z"
       transform="matrix(1.405809,0,0,1.359875,9.274368,-27.14225)" />
    <path
       sodipodi:type="arc"
       style="opacity:0.5;fill:none;fill-opacity:1;stroke:#eeeeec;stroke-width:0.77979589;stroke-miterlimit:4;stroke-dasharray:none;stroke-opacity:1"
       id="path3219"
       sodipodi:cx="11"
       sodipodi:cy="31.818182"
       sodipodi:rx="4.4545455"
       sodipodi:ry="4.7272725"
       d="M 15.454545 31.818182 A 4.4545455 4.7272725 0 1 1  6.5454545,31.818182 A 4.4545455 4.7272725 0 1 1  15.454545 31.818182 z"
       transform="matrix(1.3038652,0,0,1.2612622,10.39575,-24.004568)" />
    <path
       sodipodi:type="arc"
       style="opacity:0.5;fill:#fcaf3e;fill-opacity:1;stroke:#eeeeec;stroke-width:1.23043454;stroke-miterlimit:4;stroke-dasharray:none;stroke-opacity:1"
       id="path3221"
       sodipodi:cx="11"
       sodipodi:cy="31.818182"
       sodipodi:rx="4.4545455"
       sodipodi:ry="4.7272725"
       d="M 15.454545 31.818182 A 4.4545455 4.7272725 0 1 1  6.5454545,31.818182 A 4.4545455 4.7272725 0 1 1  15.454545 31.818182 z"
       transform="matrix(0.8263328,0,0,0.7993335,2.8328473,-9.3068299)" />
    <path
       sodipodi:type="arc"
       style="opacity:0.5;fill:none;fill-opacity:1;stroke:#eeeeec;stroke-width:2.32124162;stroke-miterlimit:4;stroke-dasharray:none;stroke-opacity:1"
       id="path3223"
       sodipodi:cx="11"
       sodipodi:cy="31.818182"
       sodipodi:rx="4.4545455"
       sodipodi:ry="4.7272725"
       d="M 15.454545 31.818182 A 4.4545455 4.7272725 0 1 1  6.5454545,31.818182 A 4.4545455 4.7272725 0 1 1  15.454545 31.818182 z"
       transform="matrix(0.4380191,0,0,0.4237077,-1.4395334,2.6449092)" />
  </g>
</svg>
