<?xml version="1.0" encoding="UTF-8" standalone="no"?>
<!-- Created with Inkscape (http://www.inkscape.org/) -->
<svg
   xmlns:dc="http://purl.org/dc/elements/1.1/"
   xmlns:cc="http://web.resource.org/cc/"
   xmlns:rdf="http://www.w3.org/1999/02/22-rdf-syntax-ns#"
   xmlns:svg="http://www.w3.org/2000/svg"
   xmlns="http://www.w3.org/2000/svg"
   xmlns:xlink="http://www.w3.org/1999/xlink"
   xmlns:sodipodi="http://sodipodi.sourceforge.net/DTD/sodipodi-0.dtd"
   xmlns:inkscape="http://www.inkscape.org/namespaces/inkscape"
   width="32"
   height="32"
   id="svg3222"
   sodipodi:version="0.32"
   inkscape:version="0.45"
   sodipodi:docname="medium-format-strike.svg"
   sodipodi:docbase="/home/lse/public_html/Bambus 0.13 Developement/System/Icons/0.12/scalable/actions"
   inkscape:output_extension="org.inkscape.output.svg.inkscape"
   version="1.0"
   sodipodi:modified="true">
  <defs
     id="defs3224">
    <linearGradient
       inkscape:collect="always"
       id="linearGradient3321">
      <stop
         style="stop-color:#ffffff;stop-opacity:1;"
         offset="0"
         id="stop3323" />
      <stop
         style="stop-color:#ffffff;stop-opacity:0;"
         offset="1"
         id="stop3325" />
    </linearGradient>
    <linearGradient
       inkscape:collect="always"
       id="linearGradient3238">
      <stop
         style="stop-color:#ffffff;stop-opacity:1;"
         offset="0"
         id="stop3240" />
      <stop
         style="stop-color:#ffffff;stop-opacity:0;"
         offset="1"
         id="stop3242" />
    </linearGradient>
    <linearGradient
       inkscape:collect="always"
       xlink:href="#linearGradient3238"
       id="linearGradient3244"
       x1="23.571428"
       y1="-2.5"
       x2="23.571428"
       y2="50.430305"
       gradientUnits="userSpaceOnUse" />
    <linearGradient
       inkscape:collect="always"
       xlink:href="#linearGradient3238"
       id="linearGradient3300"
       gradientUnits="userSpaceOnUse"
       x1="23.571428"
       y1="-2.5"
       x2="23.571428"
       y2="50.430305" />
    <linearGradient
       inkscape:collect="always"
       xlink:href="#linearGradient3238"
       id="linearGradient3304"
       gradientUnits="userSpaceOnUse"
       x1="23.571428"
       y1="-2.5"
       x2="23.571428"
       y2="50.430305"
       gradientTransform="matrix(0.6595813,0,0,0.6595813,0.1698878,0.1702094)" />
    <linearGradient
       inkscape:collect="always"
       xlink:href="#linearGradient3321"
       id="linearGradient3327"
       x1="15.348881"
       y1="-1.9258984"
       x2="15.348881"
       y2="34.254887"
       gradientUnits="userSpaceOnUse" />
  </defs>
  <sodipodi:namedview
     id="base"
     pagecolor="#ffffff"
     bordercolor="#666666"
     borderopacity="1.0"
     inkscape:pageopacity="0.0"
     inkscape:pageshadow="2"
     inkscape:zoom="16.418136"
     inkscape:cx="25.216689"
     inkscape:cy="16"
     inkscape:current-layer="layer1"
     showgrid="true"
     inkscape:grid-bbox="true"
     inkscape:document-units="px"
     inkscape:window-width="1272"
     inkscape:window-height="949"
     inkscape:window-x="0"
     inkscape:window-y="24"
     width="22px"
     height="22px" />
  <metadata
     id="metadata3227">
    <rdf:RDF>
      <cc:Work
         rdf:about="">
        <dc:format>image/svg+xml</dc:format>
        <dc:type
           rdf:resource="http://purl.org/dc/dcmitype/StillImage" />
      </cc:Work>
    </rdf:RDF>
  </metadata>
  <g
     id="layer1"
     inkscape:label="Layer 1"
     inkscape:groupmode="layer">
    <path
       style="font-size:64.47024536px;font-style:normal;font-weight:bold;fill:#3465a4;fill-opacity:1;stroke:#204a87;stroke-width:1px;stroke-linecap:butt;stroke-linejoin:miter;stroke-opacity:1;font-family:Gentium"
       d="M 16,4.6318313 L 10.310952,20.059319 L 21.70981,20.059319 L 16,4.6318313 M 13.633024,0.49983928 L 18.387739,0.49983928 L 30.201856,31.500161 L 25.841637,31.500161 L 23.017876,23.547634 L 9.0444123,23.547634 L 6.2206513,31.500161 L 1.7981435,31.500161 L 13.633024,0.49983928"
       id="text2168" />
    <path
       style="font-size:64.47024536px;font-style:normal;font-weight:bold;fill:#eeeeec;fill-opacity:1;stroke:none;stroke-width:1px;stroke-linecap:butt;stroke-linejoin:miter;stroke-opacity:1;font-family:Gentium;opacity:0.5"
       d="M 14.27103,1 L 14.27103,1.5 L 13.80228,1.3125 L 2.7744364,30.3125 L 2.4931864,31 L 3.2431864,31 L 5.5296517,31 L 5.8734017,31 L 5.9984017,30.65625 L 8.7289704,23.0625 L 23.431486,23.0625 L 26.150236,30.65625 L 26.275236,31 L 26.618986,31 L 28.809303,31 L 29.559303,31 L 29.278053,30.3125 L 18.154652,1.3125 L 18.029652,1 L 17.685902,1 L 14.27103,1 z M 14.61478,2 L 17.342152,2 L 28.121803,30 L 26.962736,30 L 24.275236,22.375 L 24.150236,22.0625 L 23.806486,22.0625 L 8.3852204,22.0625 L 8.0414704,22.0625 L 7.9164704,22.375 L 5.1859017,30 L 3.9306864,30 L 14.61478,2 z M 15.53125,1.6504458 L 8.4224849,20.875 L 8.1724849,21.5625 L 8.8912349,21.5625 L 23.096947,21.5625 L 23.815697,21.5625 L 23.565697,20.875 L 16.46875,1.6504458 L 16,1.8066958 L 15.53125,1.6504458 z M 16,3.2754458 L 22.378197,20.5625 L 9.6099849,20.5625 L 16,3.2754458 z "
       id="path3310"
       sodipodi:nodetypes="cccccccccccccccccccccccccccccccccccccccccccccccc" />
    <rect
       style="color:#000000;fill:#3465a4;fill-opacity:1;fill-rule:nonzero;stroke:#204a87;stroke-width:1;stroke-linecap:square;stroke-linejoin:miter;marker:none;marker-start:none;marker-mid:none;marker-end:none;stroke-miterlimit:4;stroke-dasharray:none;stroke-dashoffset:0;stroke-opacity:1;visibility:visible;display:inline;overflow:visible;enable-background:accumulate"
       id="rect3232"
       width="31.00032"
       height="4"
       x="0.4996796"
       y="13.500001" />
    <rect
       style="opacity:0.5;color:#000000;fill:#3465a4;fill-opacity:1;fill-rule:nonzero;stroke:#eeeeec;stroke-width:0.99999982;stroke-linecap:square;stroke-linejoin:miter;marker:none;marker-start:none;marker-mid:none;marker-end:none;stroke-miterlimit:4;stroke-dasharray:none;stroke-dashoffset:0;stroke-opacity:1;visibility:visible;display:inline;overflow:visible;enable-background:accumulate"
       id="rect3234"
       width="29"
       height="2.000001"
       x="1.4999999"
       y="14.499999" />
    <path
       style="font-size:64.47024536px;font-style:normal;font-weight:bold;fill:url(#linearGradient3327);fill-opacity:1.0;stroke:#204a87;stroke-width:1px;stroke-linecap:butt;stroke-linejoin:miter;stroke-opacity:1;font-family:Gentium;opacity:0.7"
       d="M 13.625 0.5 L 8.65625 13.5 L 0.5 13.5 L 0.5 17.5 L 7.15625 17.5 L 1.8125 31.5 L 6.21875 31.5 L 9.03125 23.5625 L 23.03125 23.5625 L 25.84375 31.5 L 30.1875 31.5 L 24.84375 17.5 L 31.5 17.5 L 31.5 13.5 L 23.34375 13.5 L 18.375 0.5 L 13.625 0.5 z M 16 4.625 L 19.28125 13.5 L 12.71875 13.5 L 16 4.625 z M 11.25 17.5 L 20.78125 17.5 L 21.71875 20.0625 L 10.3125 20.0625 L 11.25 17.5 z "
       id="path3316" />
    <rect
       style="color:#000000;fill:none;fill-opacity:1;fill-rule:nonzero;stroke:#204a87;stroke-width:1;stroke-linecap:square;stroke-linejoin:miter;marker:none;marker-start:none;marker-mid:none;marker-end:none;stroke-miterlimit:4;stroke-dasharray:none;stroke-dashoffset:0;stroke-opacity:1;visibility:visible;display:inline;overflow:visible;enable-background:accumulate"
       id="rect3290"
       width="31.00032"
       height="4"
       x="0.4996796"
       y="13.500001" />
  </g>
</svg>
