<?xml version="1.0" encoding="UTF-8" standalone="no"?>
<!-- Created with Inkscape (http://www.inkscape.org/) -->
<svg
   xmlns:dc="http://purl.org/dc/elements/1.1/"
   xmlns:cc="http://web.resource.org/cc/"
   xmlns:rdf="http://www.w3.org/1999/02/22-rdf-syntax-ns#"
   xmlns:svg="http://www.w3.org/2000/svg"
   xmlns="http://www.w3.org/2000/svg"
   xmlns:xlink="http://www.w3.org/1999/xlink"
   xmlns:sodipodi="http://sodipodi.sourceforge.net/DTD/sodipodi-0.dtd"
   xmlns:inkscape="http://www.inkscape.org/namespaces/inkscape"
   width="32"
   height="32"
   id="svg2160"
   sodipodi:version="0.32"
   inkscape:version="0.45"
   sodipodi:docbase="/home/lse/public_html/Bambus/System/Icons/0.12/scalable/actions"
   sodipodi:docname="large-help.svg"
   inkscape:output_extension="org.inkscape.output.svg.inkscape"
   sodipodi:modified="true"
   version="1.0">
  <defs
     id="defs2162">
    <linearGradient
       inkscape:collect="always"
       id="linearGradient3736">
      <stop
         style="stop-color:#fdfdfd;stop-opacity:1;"
         offset="0"
         id="stop3738" />
      <stop
         style="stop-color:#fdfdfd;stop-opacity:0;"
         offset="1"
         id="stop3740" />
    </linearGradient>
    <filter
       inkscape:collect="always"
       id="filter3692">
      <feGaussianBlur
         inkscape:collect="always"
         stdDeviation="0.959375"
         id="feGaussianBlur3694" />
    </filter>
    <linearGradient
       inkscape:collect="always"
       xlink:href="#linearGradient3736"
       id="linearGradient3754"
       x1="24.840971"
       y1="-0.98786938"
       x2="23.982481"
       y2="50.376011"
       gradientUnits="userSpaceOnUse"
       gradientTransform="translate(0,3.5038e-2)" />
    <linearGradient
       inkscape:collect="always"
       xlink:href="#linearGradient3736"
       id="linearGradient3783"
       gradientUnits="userSpaceOnUse"
       gradientTransform="translate(0,3.5038e-2)"
       x1="24.840971"
       y1="-0.98786938"
       x2="23.982481"
       y2="50.376011" />
  </defs>
  <sodipodi:namedview
     id="base"
     pagecolor="#ffffff"
     bordercolor="#666666"
     borderopacity="1.0"
     inkscape:pageopacity="0.0"
     inkscape:pageshadow="2"
     inkscape:zoom="23.1875"
     inkscape:cx="24.366577"
     inkscape:cy="16"
     inkscape:current-layer="layer1"
     showgrid="true"
     inkscape:grid-bbox="true"
     inkscape:document-units="px"
     inkscape:window-width="1272"
     inkscape:window-height="949"
     inkscape:window-x="0"
     inkscape:window-y="24"
     width="32px"
     height="32px" />
  <metadata
     id="metadata2165">
    <rdf:RDF>
      <cc:Work
         rdf:about="">
        <dc:format>image/svg+xml</dc:format>
        <dc:type
           rdf:resource="http://purl.org/dc/dcmitype/StillImage" />
      </cc:Work>
    </rdf:RDF>
  </metadata>
  <g
     id="layer1"
     inkscape:label="Layer 1"
     inkscape:groupmode="layer">
    <g
       id="g3774"
       transform="scale(0.6572416,0.6572416)">
      <path
         id="path3732"
         d="M 23.982481,0.50000002 C 11.062957,0.50000002 0.50000025,11.062958 0.50000002,23.982481 C 0.50000002,36.902004 11.062956,47.464964 23.982481,47.464962 C 36.902004,47.464962 47.464962,36.902005 47.464962,23.982481 C 47.464962,11.062957 36.902004,0.4999999 23.982481,0.50000002 z M 23.982481,8.3274936 C 32.666836,8.3274935 39.637468,15.298124 39.637468,23.982481 C 39.637468,32.666839 32.666838,39.637468 23.982481,39.637468 C 15.298123,39.637469 8.3274936,32.666838 8.3274936,23.982481 C 8.3274938,15.298124 15.298124,8.3274936 23.982481,8.3274936 z "
         style="opacity:1;color:#000000;fill:#eeeeec;fill-opacity:1;fill-rule:nonzero;stroke:#818181;stroke-width:1.5215106;stroke-linecap:square;stroke-linejoin:miter;marker:none;stroke-miterlimit:4;stroke-dasharray:none;stroke-dashoffset:0;stroke-opacity:1;visibility:visible;display:inline;overflow:visible;enable-background:accumulate" />
      <path
         id="path3734"
         d="M 23.982481,0.535038 C 11.062957,0.535038 0.5,11.097996 0.5,24.017519 C 0.5,36.937042 11.062956,47.500002 23.982481,47.5 C 36.902004,47.5 47.464962,36.937043 47.464962,24.017519 C 47.464962,11.097995 36.902004,0.535038 23.982481,0.535038 z M 23.982481,8.3625313 C 32.666836,8.3625312 39.637468,15.333162 39.637468,24.017519 C 39.637468,32.701877 32.666838,39.672506 23.982481,39.672506 C 15.298123,39.672507 8.327493,32.701876 8.327493,24.017519 C 8.327494,15.333162 15.298124,8.3625313 23.982481,8.3625313 z "
         style="opacity:0.5;color:#000000;fill:url(#linearGradient3783);fill-opacity:1;fill-rule:nonzero;stroke:#818181;stroke-width:1.5215106;stroke-linecap:square;stroke-linejoin:miter;marker:none;stroke-miterlimit:4;stroke-dasharray:none;stroke-dashoffset:0;stroke-opacity:1;visibility:visible;display:inline;overflow:visible;enable-background:accumulate" />
      <path
         id="rect3146"
         d="M 23.96875,0.5 C 22.253535,0.5 20.58169,0.67809603 18.96875,1.03125 L 18.96875,9.15625 C 20.54258,8.628639 22.21089,8.3125 23.96875,8.3125 C 25.716228,8.3125 27.40288,8.634598 28.96875,9.15625 L 28.96875,1.03125 C 27.358021,0.67911382 25.681422,0.49999998 23.96875,0.5 z M 1.03125,18.96875 C 0.67809604,20.58169 0.50000003,22.253536 0.5,23.96875 C 0.5,25.681422 0.67911384,27.358021 1.03125,28.96875 L 9.15625,28.96875 C 8.6345981,27.40288 8.3125,25.716229 8.3125,23.96875 C 8.3125,22.21089 8.6286389,20.54258 9.15625,18.96875 L 1.03125,18.96875 z M 38.8125,18.96875 C 39.340111,20.54258 39.625,22.21089 39.625,23.96875 C 39.625,25.716229 39.334152,27.40288 38.8125,28.96875 L 46.9375,28.96875 C 47.289636,27.358021 47.46875,25.681422 47.46875,23.96875 C 47.46875,22.253535 47.290654,20.58169 46.9375,18.96875 L 38.8125,18.96875 z M 18.96875,38.8125 L 18.96875,46.9375 C 20.58169,47.290654 22.253535,47.46875 23.96875,47.46875 C 25.681422,47.46875 27.358021,47.289636 28.96875,46.9375 L 28.96875,38.8125 C 27.40288,39.334152 25.716229,39.625 23.96875,39.625 C 22.21089,39.625001 20.54258,39.340111 18.96875,38.8125 z "
         style="opacity:1;color:#000000;fill:#ef2929;fill-opacity:1;fill-rule:nonzero;stroke:none;stroke-width:1;stroke-linecap:square;stroke-linejoin:miter;marker:none;marker-start:none;marker-mid:none;marker-end:none;stroke-miterlimit:4;stroke-dasharray:none;stroke-dashoffset:0;stroke-opacity:1;visibility:visible;display:inline;overflow:visible;enable-background:accumulate" />
      <path
         id="path3204"
         d="M 1.2975459,17.916117 C 0.8536155,19.572886 0.59293794,21.23386 0.51659878,22.883244 L 8.3647462,24.986148 C 8.2624501,23.32939 8.388874,21.636102 8.8438411,19.93814 C 9.2961218,18.250206 10.043783,16.70439 10.952936,15.326889 L 3.1047891,13.223985 C 2.3477643,14.68869 1.7408179,16.261802 1.2975459,17.916117 z M 13.200327,44.852104 C 14.666904,45.610684 16.235689,46.215417 17.892458,46.659347 C 19.546772,47.102619 21.2126,47.363544 22.859585,47.440295 L 24.96249,39.592147 C 23.314962,39.690747 21.602417,39.565332 19.914482,39.113052 C 18.21652,38.658085 16.686878,37.920927 15.303231,37.003957 L 13.200327,44.852104 z M 22.978833,8.3582193 C 24.635592,8.2559232 26.320791,8.4125322 28.018753,8.8674994 C 29.706689,9.3197805 31.260591,10.037256 32.638092,10.94641 L 34.740997,3.098262 C 33.276291,2.3412377 31.703179,1.7342911 30.048865,1.2910191 C 28.392094,0.84708887 26.731121,0.58641095 25.081738,0.51007189 L 22.978833,8.3582193 z M 37.010484,32.661751 L 44.858632,34.764655 C 45.617212,33.298078 46.221945,31.729294 46.665874,30.072523 C 47.109146,28.418209 47.370071,26.752381 47.446822,25.105397 L 39.598674,23.002491 C 39.697274,24.65002 39.541674,26.354476 39.089393,28.042412 C 38.634427,29.740375 37.927454,31.278104 37.010484,32.661751 z "
         style="opacity:1;color:#000000;fill:#ef2929;fill-opacity:1;fill-rule:nonzero;stroke:none;stroke-width:1;stroke-linecap:square;stroke-linejoin:miter;marker:none;marker-start:none;marker-mid:none;marker-end:none;stroke-miterlimit:4;stroke-dasharray:none;stroke-dashoffset:0;stroke-opacity:1;visibility:visible;display:inline;overflow:visible;enable-background:accumulate" />
      <path
         id="path2168"
         d="M 23.982481,0.50000002 C 11.062957,0.50000002 0.50000025,11.062958 0.50000002,23.982481 C 0.50000002,36.902004 11.062956,47.464964 23.982481,47.464962 C 36.902004,47.464962 47.464962,36.902005 47.464962,23.982481 C 47.464962,11.062957 36.902004,0.4999999 23.982481,0.50000002 z M 23.982481,8.3274936 C 32.666836,8.3274935 39.637468,15.298124 39.637468,23.982481 C 39.637468,32.666839 32.666838,39.637468 23.982481,39.637468 C 15.298123,39.637469 8.3274936,32.666838 8.3274936,23.982481 C 8.3274938,15.298124 15.298124,8.3274936 23.982481,8.3274936 z "
         style="opacity:1;color:#000000;fill:none;fill-opacity:1;fill-rule:nonzero;stroke:#818181;stroke-width:1.5215106;stroke-linecap:square;stroke-linejoin:miter;marker:none;stroke-miterlimit:4;stroke-dasharray:none;stroke-dashoffset:0;stroke-opacity:1;visibility:visible;display:inline;overflow:visible;enable-background:accumulate" />
      <path
         sodipodi:nodetypes="csssccsssc"
         id="path3158"
         d="M 23.916863,1.9593238 C 11.535926,1.9593238 2.0694938,11.617872 2.0694936,23.993013 C 2.0694936,36.368152 11.667161,45.895468 24.048099,45.895466 C 36.429034,45.895466 45.961085,36.433771 45.961085,24.058631 C 45.961085,11.683489 36.297798,1.9593237 23.916863,1.9593238 z M 23.917791,6.7969639 C 33.859258,6.7969639 40.99041,15.479629 40.99041,24.057672 C 40.99041,32.440762 33.99199,41.190017 24.113716,41.190017 C 14.303519,41.190017 6.8433148,32.6994 6.8433148,23.863693 C 6.8433148,14.121891 15.465838,6.7969639 23.917791,6.7969639 z "
         style="opacity:0.7;color:#000000;fill:none;fill-opacity:1;fill-rule:nonzero;stroke:#ffffff;stroke-width:1.5215106;stroke-linecap:square;stroke-linejoin:miter;marker:none;stroke-miterlimit:4;stroke-dasharray:none;stroke-dashoffset:0;stroke-opacity:1;visibility:visible;display:inline;overflow:visible;enable-background:accumulate" />
      <path
         transform="matrix(0.7660446,0.6427877,-0.6427877,0.7660446,21.579483,-9.7392821)"
         id="path3206"
         d="M 25.375,-0.097371978 C 36.933215,1.082924 46.03125,10.889823 46.03125,22.746378 C 46.03125,35.39337 35.678241,45.746378 23.03125,45.746378 C 21.450375,45.746378 19.898842,45.585419 18.40625,45.277628 C 18.033101,45.20068 17.67891,45.122583 17.3125,45.027628 C 7.419421,42.463842 0.0625,33.417277 0.0625,22.746378 C 0.062501,22.35116 0.073834,21.949311 0.09375,21.558878 C 0.111093,21.218876 0.124153,20.894897 0.15625,20.558878 C 0.051253,21.455511 7.8159701e-14,22.385152 7.8159701e-14,23.308878 C -9.9999992e-07,35.420931 9.287908,45.444835 21.09375,46.652628 C 21.327959,46.671578 21.545236,46.703044 21.78125,46.715128 C 21.833123,46.718894 21.885537,46.711703 21.9375,46.715128 C 22.294469,46.73112 22.670498,46.746378 23.03125,46.746378 C 34.986549,46.746378 44.98059,37.88572 46.75,26.402628 C 46.785993,26.169042 46.814619,25.919568 46.84375,25.683878 C 46.844803,25.673586 46.842711,25.662924 46.84375,25.652628 C 46.922203,24.875575 46.96875,24.10579 46.96875,23.308878 C 46.96875,11.02705 37.416667,0.87490802 25.375,-0.097371978 z M 23.03125,6.590128 C 21.91226,6.590128 20.83497,6.68815 19.78125,6.902628 C 19.254389,7.009866 18.725296,7.152016 18.21875,7.308878 C 12.1402,9.191218 7.62817,14.556016 6.96875,21.090128 C 6.913799,21.634637 6.875,22.186884 6.875,22.746378 C 6.875001,29.460312 10.915942,35.206787 16.71875,37.652628 C 17.202316,37.856448 17.712204,38.027016 18.21875,38.183878 C 19.358477,38.536817 20.547862,38.779523 21.78125,38.871378 C 13.904651,38.031577 7.84375,31.418709 7.84375,23.308878 C 7.84375,23.120872 7.868519,22.932724 7.875,22.746378 C 7.888323,22.36327 7.866224,21.965532 7.90625,21.590128 C 7.914685,21.455327 7.924112,21.317119 7.9375,21.183878 C 8.708742,13.508229 15.140498,7.590128 23.03125,7.590128 C 23.5573,7.590128 24.08204,7.632462 24.59375,7.683878 C 24.625463,7.686065 24.655841,7.712755 24.6875,7.715128 C 32.804089,8.323548 39.15625,15.029152 39.15625,23.308878 C 39.162689,23.120499 39.1875,22.936384 39.1875,22.746378 C 39.1875,13.794466 31.98316,6.590127 23.03125,6.590128 z "
         style="opacity:1;color:#000000;fill:#6e6e6e;fill-opacity:1;fill-rule:nonzero;stroke:none;stroke-width:1;stroke-linecap:square;stroke-linejoin:miter;marker:none;stroke-miterlimit:4;stroke-dasharray:none;stroke-dashoffset:0;stroke-opacity:1;visibility:visible;display:inline;overflow:visible;filter:url(#filter3692);enable-background:accumulate" />
    </g>
  </g>
</svg>
