<?xml version="1.0" encoding="UTF-8" standalone="no"?>
<!-- Created with Inkscape (http://www.inkscape.org/) -->
<svg
   xmlns:dc="http://purl.org/dc/elements/1.1/"
   xmlns:cc="http://web.resource.org/cc/"
   xmlns:rdf="http://www.w3.org/1999/02/22-rdf-syntax-ns#"
   xmlns:svg="http://www.w3.org/2000/svg"
   xmlns="http://www.w3.org/2000/svg"
   xmlns:xlink="http://www.w3.org/1999/xlink"
   xmlns:sodipodi="http://sodipodi.sourceforge.net/DTD/sodipodi-0.dtd"
   xmlns:inkscape="http://www.inkscape.org/namespaces/inkscape"
   width="32"
   height="32"
   id="svg3203"
   sodipodi:version="0.32"
   inkscape:version="0.45"
   sodipodi:docname="medium-format-italic.svg"
   sodipodi:docbase="/home/lse/public_html/Bambus 0.13 Developement/System/Icons/0.12/scalable/actions"
   inkscape:output_extension="org.inkscape.output.svg.inkscape"
   version="1.0"
   sodipodi:modified="true">
  <defs
     id="defs3205">
    <linearGradient
       inkscape:collect="always"
       id="linearGradient3343">
      <stop
         style="stop-color:#ffffff;stop-opacity:1;"
         offset="0"
         id="stop3345" />
      <stop
         style="stop-color:#ffffff;stop-opacity:0;"
         offset="1"
         id="stop3347" />
    </linearGradient>
    <linearGradient
       inkscape:collect="always"
       id="linearGradient3258">
      <stop
         style="stop-color:#ffffff;stop-opacity:1;"
         offset="0"
         id="stop3260" />
      <stop
         style="stop-color:#ffffff;stop-opacity:0;"
         offset="1"
         id="stop3262" />
    </linearGradient>
    <linearGradient
       inkscape:collect="always"
       xlink:href="#linearGradient3258"
       id="linearGradient3264"
       x1="34"
       y1="-2.2142856"
       x2="34"
       y2="50.366653"
       gradientUnits="userSpaceOnUse" />
    <linearGradient
       inkscape:collect="always"
       xlink:href="#linearGradient3343"
       id="linearGradient3349"
       x1="23.327862"
       y1="-2.0477149"
       x2="23.327862"
       y2="34.024837"
       gradientUnits="userSpaceOnUse" />
  </defs>
  <sodipodi:namedview
     id="base"
     pagecolor="#ffffff"
     bordercolor="#666666"
     borderopacity="1.0"
     inkscape:pageopacity="0.0"
     inkscape:pageshadow="2"
     inkscape:zoom="16.418136"
     inkscape:cx="26.243702"
     inkscape:cy="14.363985"
     inkscape:current-layer="layer1"
     showgrid="true"
     inkscape:grid-bbox="true"
     inkscape:document-units="px"
     inkscape:window-width="1272"
     inkscape:window-height="949"
     inkscape:window-x="0"
     inkscape:window-y="24"
     width="32px"
     height="32px" />
  <metadata
     id="metadata3208">
    <rdf:RDF>
      <cc:Work
         rdf:about="">
        <dc:format>image/svg+xml</dc:format>
        <dc:type
           rdf:resource="http://purl.org/dc/dcmitype/StillImage" />
      </cc:Work>
    </rdf:RDF>
  </metadata>
  <g
     id="layer1"
     inkscape:label="Layer 1"
     inkscape:groupmode="layer">
    <path
       style="font-size:64.47153473px;font-style:normal;font-weight:normal;fill:#3465a4;fill-opacity:1;stroke:#204a87;stroke-width:1.00000012px;stroke-linecap:butt;stroke-linejoin:miter;stroke-opacity:1;font-family:Gentium"
       d="M 19.702687,0.499999 L 24.452913,0.499999 L 30.198818,31.500001 L 25.821973,31.500001 L 24.535886,23.547556 L 10.596359,23.547556 L 6.2195141,31.500001 L 1.8011819,31.500001 L 19.702687,0.499999 M 21.216952,4.631949 L 12.52549,20.059277 L 23.892843,20.059277 L 21.216952,4.631949"
       id="text3211" />
    <path
       style="font-size:64.47153473px;font-style:normal;font-weight:normal;fill:#eeeeec;fill-opacity:1;stroke:none;stroke-width:1.00000012px;stroke-linecap:butt;stroke-linejoin:miter;stroke-opacity:1;font-family:Gentium;opacity:0.5"
       d="M 20.290461,1 L 20.290461,1.5 L 19.884211,1.25 L 3.0977456,30.25 L 2.6602456,31 L 3.5352456,31 L 5.6588577,31 L 5.9401077,31 L 6.0963577,30.75 L 10.185902,23.0625 L 24.998191,23.0625 L 26.205123,30.59375 L 26.267623,31 L 26.673873,31 L 29.024647,31 L 29.649647,31 L 29.524647,30.40625 L 24.076127,1.40625 L 24.013627,1 L 23.576127,1 L 20.290461,1 z M 20.571711,2 L 23.169877,2 L 28.430897,30 L 27.111373,30 L 25.935691,22.46875 L 25.873191,22.0625 L 25.435691,22.0625 L 9.9046517,22.0625 L 9.6234017,22.0625 L 9.4671517,22.3125 L 5.3463577,30 L 4.3789956,30 L 20.571711,2 z M 21.298074,1.2309892 L 10.327936,20.8125 L 9.8904357,21.5625 L 10.765436,21.5625 L 25.112172,21.5625 L 25.705922,21.5625 L 25.580922,20.96875 L 22.235574,1.3872392 L 21.735574,1.4809892 L 21.298074,1.2309892 z M 21.485574,2.9809892 L 24.518422,20.5625 L 11.640436,20.5625 L 21.485574,2.9809892 z "
       id="path3335"
       sodipodi:nodetypes="cccccccccccccccccccccccccccccccccccccccccccccccc" />
    <path
       style="font-size:64.47153473px;font-style:normal;font-weight:normal;fill:url(#linearGradient3349);fill-opacity:1.0;stroke:#204a87;stroke-width:1.00000012px;stroke-linecap:butt;stroke-linejoin:miter;stroke-opacity:1;font-family:Gentium;opacity:0.7"
       d="M 19.702687,0.499999 L 24.452913,0.499999 L 30.198818,31.500001 L 25.821973,31.500001 L 24.535886,23.547556 L 10.596359,23.547556 L 6.2195141,31.500001 L 1.8011819,31.500001 L 19.702687,0.499999 M 21.216952,4.631949 L 12.52549,20.059277 L 23.892843,20.059277 L 21.216952,4.631949"
       id="path3341" />
  </g>
</svg>
