<?xml version="1.0" encoding="UTF-8" standalone="no"?>
<!-- Created with Inkscape (http://www.inkscape.org/) -->
<svg
   xmlns:dc="http://purl.org/dc/elements/1.1/"
   xmlns:cc="http://web.resource.org/cc/"
   xmlns:rdf="http://www.w3.org/1999/02/22-rdf-syntax-ns#"
   xmlns:svg="http://www.w3.org/2000/svg"
   xmlns="http://www.w3.org/2000/svg"
   xmlns:xlink="http://www.w3.org/1999/xlink"
   xmlns:sodipodi="http://sodipodi.sourceforge.net/DTD/sodipodi-0.dtd"
   xmlns:inkscape="http://www.inkscape.org/namespaces/inkscape"
   width="32"
   height="32"
   id="svg1920"
   sodipodi:version="0.32"
   inkscape:version="0.45"
   inkscape:export-filename="/home/lse/public_html/Bambus/System/Icons/actions/22x22/action-backup.png"
   inkscape:export-xdpi="30.9375"
   inkscape:export-ydpi="30.9375"
   sodipodi:docbase="/home/lse/public_html/Bambus/System/Icons/0.12/scalable/actions"
   sodipodi:docname="medium-refresh.svg"
   version="1.0"
   inkscape:output_extension="org.inkscape.output.svg.inkscape"
   sodipodi:modified="true">
  <defs
     id="defs1922">
    <linearGradient
       inkscape:collect="always"
       id="linearGradient2791">
      <stop
         style="stop-color:white;stop-opacity:1;"
         offset="0"
         id="stop2793" />
      <stop
         style="stop-color:white;stop-opacity:0;"
         offset="1"
         id="stop2795" />
    </linearGradient>
    <linearGradient
       inkscape:collect="always"
       id="linearGradient2781">
      <stop
         style="stop-color:white;stop-opacity:1;"
         offset="0"
         id="stop2783" />
      <stop
         style="stop-color:white;stop-opacity:0;"
         offset="1"
         id="stop2785" />
    </linearGradient>
    <linearGradient
       inkscape:collect="always"
       id="linearGradient2901">
      <stop
         style="stop-color:#edd400;stop-opacity:1;"
         offset="0"
         id="stop2903" />
      <stop
         style="stop-color:#edd400;stop-opacity:0;"
         offset="1"
         id="stop2905" />
    </linearGradient>
    <linearGradient
       inkscape:collect="always"
       xlink:href="#linearGradient2901"
       id="linearGradient3173"
       gradientUnits="userSpaceOnUse"
       gradientTransform="matrix(0.279574,0,0,0.279574,14.28141,9.938171)"
       x1="32.398346"
       y1="2.2888627"
       x2="32.398346"
       y2="124.19548" />
    <linearGradient
       inkscape:collect="always"
       id="linearGradient2891">
      <stop
         style="stop-color:#fce94f;stop-opacity:1;"
         offset="0"
         id="stop2893" />
      <stop
         style="stop-color:#fce94f;stop-opacity:0;"
         offset="1"
         id="stop2895" />
    </linearGradient>
    <linearGradient
       inkscape:collect="always"
       xlink:href="#linearGradient2891"
       id="linearGradient3171"
       gradientUnits="userSpaceOnUse"
       gradientTransform="matrix(0.279574,0,0,0.279574,14.28141,9.938171)"
       x1="35.483906"
       y1="3.8316412"
       x2="36.512424"
       y2="127.76817" />
    <linearGradient
       inkscape:collect="always"
       xlink:href="#linearGradient2901"
       id="linearGradient1942"
       gradientUnits="userSpaceOnUse"
       gradientTransform="matrix(0.287883,0,0,0.287883,15.14282,14.16162)"
       x1="32.398346"
       y1="2.2888627"
       x2="32.398346"
       y2="124.19548" />
    <linearGradient
       inkscape:collect="always"
       xlink:href="#linearGradient2891"
       id="linearGradient1945"
       gradientUnits="userSpaceOnUse"
       gradientTransform="matrix(0.287883,0,0,0.287883,15.14282,14.16162)"
       x1="35.483906"
       y1="3.8316412"
       x2="36.512424"
       y2="127.76817" />
    <linearGradient
       inkscape:collect="always"
       xlink:href="#linearGradient2891"
       id="linearGradient1955"
       gradientUnits="userSpaceOnUse"
       gradientTransform="matrix(0.287883,0,0,0.287883,15.14282,14.16162)"
       x1="35.483906"
       y1="3.8316412"
       x2="36.512424"
       y2="127.76817" />
    <linearGradient
       inkscape:collect="always"
       xlink:href="#linearGradient2901"
       id="linearGradient1957"
       gradientUnits="userSpaceOnUse"
       gradientTransform="matrix(0.287883,0,0,0.287883,15.14282,14.16162)"
       x1="32.398346"
       y1="2.2888627"
       x2="32.398346"
       y2="124.19548" />
    <linearGradient
       inkscape:collect="always"
       xlink:href="#linearGradient2781"
       id="linearGradient2805"
       gradientUnits="userSpaceOnUse"
       x1="19.454546"
       y1="-3.4545455"
       x2="19.454546"
       y2="68.927185" />
    <linearGradient
       inkscape:collect="always"
       xlink:href="#linearGradient2791"
       id="linearGradient2807"
       gradientUnits="userSpaceOnUse"
       x1="41.272728"
       y1="-3.8181818"
       x2="41.272728"
       y2="70.547455" />
    <linearGradient
       inkscape:collect="always"
       xlink:href="#linearGradient2791"
       id="linearGradient1895"
       gradientUnits="userSpaceOnUse"
       x1="41.272728"
       y1="-3.8181818"
       x2="41.272728"
       y2="70.547455"
       gradientTransform="matrix(0.515399,0,0,0.515399,0.240232,0.389952)" />
    <linearGradient
       inkscape:collect="always"
       xlink:href="#linearGradient2781"
       id="linearGradient1898"
       gradientUnits="userSpaceOnUse"
       x1="19.454546"
       y1="-3.4545455"
       x2="19.454546"
       y2="68.927185"
       gradientTransform="matrix(0.515399,0,0,0.515399,-0.759768,0.389952)" />
    <linearGradient
       inkscape:collect="always"
       xlink:href="#linearGradient2781"
       id="linearGradient2359"
       gradientUnits="userSpaceOnUse"
       gradientTransform="matrix(0.515399,0,0,0.515399,-0.759768,0.389952)"
       x1="19.454546"
       y1="-3.4545455"
       x2="19.454546"
       y2="68.927185" />
    <linearGradient
       inkscape:collect="always"
       xlink:href="#linearGradient2791"
       id="linearGradient2361"
       gradientUnits="userSpaceOnUse"
       gradientTransform="matrix(0.515399,0,0,0.515399,0.240232,0.389952)"
       x1="41.272728"
       y1="-3.8181818"
       x2="41.272728"
       y2="70.547455" />
    <linearGradient
       inkscape:collect="always"
       xlink:href="#linearGradient2781"
       id="linearGradient2377"
       gradientUnits="userSpaceOnUse"
       gradientTransform="matrix(0.515399,0,0,0.515399,-0.759768,0.389952)"
       x1="19.454546"
       y1="-3.4545455"
       x2="19.454546"
       y2="68.927185" />
    <linearGradient
       inkscape:collect="always"
       xlink:href="#linearGradient2791"
       id="linearGradient2379"
       gradientUnits="userSpaceOnUse"
       gradientTransform="matrix(0.515399,0,0,0.515399,0.240232,0.389952)"
       x1="41.272728"
       y1="-3.8181818"
       x2="41.272728"
       y2="70.547455" />
  </defs>
  <sodipodi:namedview
     id="base"
     pagecolor="#ffffff"
     bordercolor="#666666"
     borderopacity="1.0"
     inkscape:pageopacity="0.0"
     inkscape:pageshadow="2"
     inkscape:zoom="22"
     inkscape:cx="21.727273"
     inkscape:cy="16.776395"
     inkscape:current-layer="layer1"
     showgrid="true"
     inkscape:document-units="px"
     inkscape:grid-bbox="true"
     inkscape:window-width="1272"
     inkscape:window-height="945"
     inkscape:window-x="0"
     inkscape:window-y="24"
     width="32px"
     height="32px" />
  <metadata
     id="metadata1925">
    <rdf:RDF>
      <cc:Work
         rdf:about="">
        <dc:format>image/svg+xml</dc:format>
        <dc:type
           rdf:resource="http://purl.org/dc/dcmitype/StillImage" />
      </cc:Work>
    </rdf:RDF>
  </metadata>
  <g
     id="layer1"
     inkscape:label="Layer 1"
     inkscape:groupmode="layer">
    <g
       id="g2351"
       transform="matrix(-0.8305946,0,0,0.8305946,27.080102,-5.2895146)">
      <path
         sodipodi:nodetypes="cccccc"
         id="path2867"
         d="M 10.874761,8.4450302 C 12.958085,8.3683929 15.867351,13.919602 15.867351,13.919602 C 15.867351,13.919602 8.5285157,25.059877 8.5285157,25.059877 L 6.4141671,19.967571 L 0.99870731,20.691141 C 0.99870551,20.691141 8.6942433,8.5252443 10.874761,8.4450302 z "
         style="fill:#8ae234;fill-opacity:1;stroke:#73d216;stroke-width:1.20395672;stroke-linejoin:round;stroke-miterlimit:4;stroke-dasharray:none;stroke-opacity:1" />
      <path
         sodipodi:nodetypes="csccccccc"
         id="path2865"
         d="M 14.379767,6.8747032 C 15.782966,6.9176128 18.905609,7.2188223 21.475683,9.003449 C 24.902448,11.38295 27.90636,17.562781 27.90636,17.562781 L 32.001294,15.212292 L 28.970745,25.131654 L 18.903414,22.766382 L 22.998348,20.415893 C 22.998348,20.415893 16.210557,7.3627665 13.64061,6.8747032 C 13.64061,6.8747032 13.912035,6.8604009 14.379767,6.8747032 z "
         style="fill:#73d216;fill-opacity:1;stroke:#4e9a06;stroke-width:1.20395672;stroke-linejoin:round;stroke-miterlimit:4;stroke-dasharray:none;stroke-opacity:1" />
      <path
         sodipodi:nodetypes="cccccc"
         id="path2779"
         d="M 10.874761,8.4450302 C 12.958085,8.3683929 15.867351,13.919602 15.867351,13.919602 C 15.867351,13.919602 8.5285157,25.059877 8.5285157,25.059877 L 6.4141671,19.967571 L 0.99870731,20.691141 C 0.99870551,20.691141 8.6942433,8.5252443 10.874761,8.4450302 z "
         style="opacity:0.7;fill:url(#linearGradient2359);fill-opacity:1;stroke:#73d216;stroke-width:1.20395672;stroke-linejoin:round;stroke-miterlimit:4;stroke-dasharray:none;stroke-opacity:1" />
      <path
         sodipodi:nodetypes="csccccccc"
         id="path2789"
         d="M 14.379767,6.8747032 C 15.782966,6.9176128 18.905609,7.2188223 21.475683,9.003449 C 24.902448,11.38295 27.90636,17.562781 27.90636,17.562781 L 32.001294,15.212292 L 28.970745,25.131654 L 18.903414,22.766382 L 22.998348,20.415893 C 22.998348,20.415893 16.210557,7.3627665 13.64061,6.8747032 C 13.64061,6.8747032 13.912035,6.8604009 14.379767,6.8747032 z "
         style="opacity:0.7;fill:url(#linearGradient2361);fill-opacity:1;stroke:#4e9a06;stroke-width:1.20395672;stroke-linejoin:round;stroke-miterlimit:4;stroke-dasharray:none;stroke-opacity:1" />
      <path
         sodipodi:nodetypes="cccccc"
         id="path3271"
         d="M 10.874761,9.7177575 C 12.958085,9.6411202 14.685533,13.965057 14.685533,13.965057 C 14.685533,13.965057 8.6194248,23.150786 8.6194248,23.150786 L 7.0050762,18.831207 L 2.9532528,19.509323 C 2.953251,19.509323 8.6942433,9.7979716 10.874761,9.7177575 z "
         style="opacity:0.5;fill:none;fill-opacity:1;stroke:#eeeeec;stroke-width:1.20395672;stroke-linejoin:miter;stroke-miterlimit:4;stroke-dasharray:none;stroke-opacity:1" />
      <path
         sodipodi:nodetypes="cscccccsc"
         id="path3273"
         d="M 16.425222,8.0565213 C 16.425222,8.0565213 18.381408,8.2610195 20.975683,9.9125399 C 24.494974,12.152927 27.497269,19.017327 27.497269,19.017327 L 30.36493,17.257746 L 28.379836,24.040745 L 21.448869,22.402746 L 24.31653,20.824984 C 24.31653,20.824984 19.674874,11.751854 17.367883,9.4201577 C 17.367883,9.4201577 16.425222,8.0565213 16.425222,8.0565213 z "
         style="opacity:0.7;fill:none;fill-opacity:1;stroke:#eeeeec;stroke-width:1.20395672;stroke-linejoin:miter;stroke-miterlimit:4;stroke-dasharray:none;stroke-opacity:1" />
    </g>
    <g
       id="g2363"
       transform="matrix(0.8305947,0,0,-0.8305947,4.9198948,37.289515)">
      <path
         sodipodi:nodetypes="cccccc"
         id="path2365"
         d="M 10.874761,8.4450302 C 12.958085,8.3683929 15.867351,13.919602 15.867351,13.919602 C 15.867351,13.919602 8.5285157,25.059877 8.5285157,25.059877 L 6.4141671,19.967571 L 0.99870731,20.691141 C 0.99870551,20.691141 8.6942433,8.5252443 10.874761,8.4450302 z "
         style="fill:#8ae234;fill-opacity:1;stroke:#73d216;stroke-width:1.20395672;stroke-linejoin:round;stroke-miterlimit:4;stroke-dasharray:none;stroke-opacity:1" />
      <path
         sodipodi:nodetypes="csccccccc"
         id="path2367"
         d="M 14.379767,6.8747032 C 15.782966,6.9176128 18.905609,7.2188223 21.475683,9.003449 C 24.902448,11.38295 27.90636,17.562781 27.90636,17.562781 L 32.001294,15.212292 L 28.970745,25.131654 L 18.903414,22.766382 L 22.998348,20.415893 C 22.998348,20.415893 16.210557,7.3627665 13.64061,6.8747032 C 13.64061,6.8747032 13.912035,6.8604009 14.379767,6.8747032 z "
         style="fill:#73d216;fill-opacity:1;stroke:#4e9a06;stroke-width:1.20395672;stroke-linejoin:round;stroke-miterlimit:4;stroke-dasharray:none;stroke-opacity:1" />
      <path
         sodipodi:nodetypes="cccccc"
         id="path2369"
         d="M 10.874761,8.4450302 C 12.958085,8.3683929 15.867351,13.919602 15.867351,13.919602 C 15.867351,13.919602 8.5285157,25.059877 8.5285157,25.059877 L 6.4141671,19.967571 L 0.99870731,20.691141 C 0.99870551,20.691141 8.6942433,8.5252443 10.874761,8.4450302 z "
         style="opacity:0.7;fill:url(#linearGradient2377);fill-opacity:1;stroke:#73d216;stroke-width:1.20395672;stroke-linejoin:round;stroke-miterlimit:4;stroke-dasharray:none;stroke-opacity:1" />
      <path
         sodipodi:nodetypes="csccccccc"
         id="path2371"
         d="M 14.379767,6.8747032 C 15.782966,6.9176128 18.905609,7.2188223 21.475683,9.003449 C 24.902448,11.38295 27.90636,17.562781 27.90636,17.562781 L 32.001294,15.212292 L 28.970745,25.131654 L 18.903414,22.766382 L 22.998348,20.415893 C 22.998348,20.415893 16.210557,7.3627665 13.64061,6.8747032 C 13.64061,6.8747032 13.912035,6.8604009 14.379767,6.8747032 z "
         style="opacity:0.7;fill:url(#linearGradient2379);fill-opacity:1;stroke:#4e9a06;stroke-width:1.20395672;stroke-linejoin:round;stroke-miterlimit:4;stroke-dasharray:none;stroke-opacity:1" />
      <path
         sodipodi:nodetypes="cccccc"
         id="path2373"
         d="M 10.874761,9.7177575 C 12.958085,9.6411202 14.685533,13.965057 14.685533,13.965057 C 14.685533,13.965057 8.6194248,23.150786 8.6194248,23.150786 L 7.0050762,18.831207 L 2.9532528,19.509323 C 2.953251,19.509323 8.6942433,9.7979716 10.874761,9.7177575 z "
         style="opacity:0.5;fill:none;fill-opacity:1;stroke:#eeeeec;stroke-width:1.20395672;stroke-linejoin:miter;stroke-miterlimit:4;stroke-dasharray:none;stroke-opacity:1" />
      <path
         sodipodi:nodetypes="cscccccsc"
         id="path2375"
         d="M 16.425222,8.0565213 C 16.425222,8.0565213 18.381408,8.2610195 20.975683,9.9125399 C 24.494974,12.152927 27.497269,19.017327 27.497269,19.017327 L 30.36493,17.257746 L 28.379836,24.040745 L 21.448869,22.402746 L 24.31653,20.824984 C 24.31653,20.824984 19.674874,11.751854 17.367883,9.4201577 C 17.367883,9.4201577 16.425222,8.0565213 16.425222,8.0565213 z "
         style="opacity:0.7;fill:none;fill-opacity:1;stroke:#eeeeec;stroke-width:1.20395672;stroke-linejoin:miter;stroke-miterlimit:4;stroke-dasharray:none;stroke-opacity:1" />
    </g>
  </g>
</svg>
