<?xml version="1.0" encoding="UTF-8" standalone="no"?>
<!-- Created with Inkscape (http://www.inkscape.org/) -->
<svg
   xmlns:dc="http://purl.org/dc/elements/1.1/"
   xmlns:cc="http://web.resource.org/cc/"
   xmlns:rdf="http://www.w3.org/1999/02/22-rdf-syntax-ns#"
   xmlns:svg="http://www.w3.org/2000/svg"
   xmlns="http://www.w3.org/2000/svg"
   xmlns:xlink="http://www.w3.org/1999/xlink"
   xmlns:sodipodi="http://sodipodi.sourceforge.net/DTD/sodipodi-0.dtd"
   xmlns:inkscape="http://www.inkscape.org/namespaces/inkscape"
   width="22"
   height="22"
   id="svg2160"
   sodipodi:version="0.32"
   inkscape:version="0.45"
   sodipodi:docbase="/home/lse/public_html/Bambus 0.13 Developement/System/Icons/0.12/scalable/actions"
   sodipodi:docname="small-format-list-ordered.svg"
   inkscape:output_extension="org.inkscape.output.svg.inkscape"
   version="1.0"
   sodipodi:modified="true">
  <defs
     id="defs2162">
    <linearGradient
       inkscape:collect="always"
       id="linearGradient3139">
      <stop
         style="stop-color:#ffffff;stop-opacity:1;"
         offset="0"
         id="stop3141" />
      <stop
         style="stop-color:#ffffff;stop-opacity:0;"
         offset="1"
         id="stop3143" />
    </linearGradient>
    <linearGradient
       inkscape:collect="always"
       xlink:href="#linearGradient3139"
       id="linearGradient3145"
       x1="11.285714"
       y1="0.10714286"
       x2="11.285714"
       y2="23.182552"
       gradientUnits="userSpaceOnUse"
       gradientTransform="matrix(0.9333333,0,0,1,1.4333339,0)" />
    <linearGradient
       inkscape:collect="always"
       xlink:href="#linearGradient3139"
       id="linearGradient3147"
       x1="11.285714"
       y1="0.10714286"
       x2="11.285714"
       y2="23.182552"
       gradientUnits="userSpaceOnUse"
       gradientTransform="matrix(0.9333333,0,0,1,1.4333348,-2.6238289e-7)" />
    <linearGradient
       inkscape:collect="always"
       xlink:href="#linearGradient3139"
       id="linearGradient3149"
       x1="11.285714"
       y1="0.10714286"
       x2="11.285714"
       y2="23.182552"
       gradientUnits="userSpaceOnUse"
       gradientTransform="matrix(0.9333333,0,0,1,1.4333339,-0.9999991)" />
  </defs>
  <sodipodi:namedview
     id="base"
     pagecolor="#ffffff"
     bordercolor="#666666"
     borderopacity="1.0"
     inkscape:pageopacity="0.0"
     inkscape:pageshadow="2"
     inkscape:zoom="28"
     inkscape:cx="14.787072"
     inkscape:cy="8.9581017"
     inkscape:current-layer="layer1"
     showgrid="true"
     inkscape:grid-bbox="true"
     inkscape:document-units="px"
     inkscape:window-width="1272"
     inkscape:window-height="949"
     inkscape:window-x="0"
     inkscape:window-y="24"
     width="22px"
     height="22px" />
  <metadata
     id="metadata2165">
    <rdf:RDF>
      <cc:Work
         rdf:about="">
        <dc:format>image/svg+xml</dc:format>
        <dc:type
           rdf:resource="http://purl.org/dc/dcmitype/StillImage" />
      </cc:Work>
    </rdf:RDF>
  </metadata>
  <g
     id="layer1"
     inkscape:label="Layer 1"
     inkscape:groupmode="layer">
    <path
       style="font-size:10.85713482px;font-style:normal;font-weight:normal;fill:#204a87;fill-opacity:1;stroke:none;stroke-width:0.99999994px;stroke-linecap:butt;stroke-linejoin:miter;stroke-opacity:1;font-family:DejaVu Sans Mono"
       d="M 0.08595348,4.7379902 L 1.2105114,4.7379902 L 1.2105114,0.6517871 L 0,0.9239618 L 0,0.2650123 L 1.2033486,0 L 1.9267904,0 L 1.9267904,4.7379902 L 3.0370227,4.7379902 L 3.0370227,5.3468022 L 0.08595348,5.3468022 L 0.08595348,4.7379902"
       id="text2168" />
    <path
       style="font-size:10.66427803px;font-style:normal;font-weight:normal;fill:#204a87;fill-opacity:1;stroke:none;stroke-width:0.99999994px;stroke-linecap:butt;stroke-linejoin:miter;stroke-opacity:1;font-family:DejaVu Sans"
       d="M 0.77742995,12.748806 L 3.1906257,12.748806 L 3.1906257,13.346804 L 9.8347664e-07,13.346804 L 9.8347664e-07,12.748806 C 0.43854965,12.286825 0.82198715,11.87878 1.1503145,11.524669 C 1.4786384,11.170563 1.7049486,10.920811 1.8292456,10.775413 C 2.0637616,10.489316 2.2220614,10.258324 2.3041457,10.08244 C 2.3862242,9.9042166 2.4272649,9.7224716 2.4272678,9.5372062 C 2.4272649,9.2440741 2.3404931,9.014255 2.1669523,8.8477494 C 1.9957513,8.6812532 1.7600603,8.5980027 1.4598789,8.5979974 C 1.2464652,8.5980027 1.0225003,8.6366962 0.78798325,8.7140796 C 0.55346365,8.7914718 0.30487424,8.9087261 0.042214323,9.0658431 L 0.042214323,8.3482459 C 0.28376758,8.2333412 0.52063115,8.1465732 0.75280535,8.0879407 C 0.98732255,8.0293189 1.2183231,8.0000053 1.4458078,8 C 1.9594009,8.0000053 2.3721531,8.1371927 2.6840656,8.4115634 C 2.998317,8.683598 3.1554442,9.0412238 3.1554479,9.4844415 C 3.1554442,9.7095736 3.1026775,9.9347016 2.9971479,10.159828 C 2.8939564,10.384959 2.7251031,10.633538 2.4905878,10.905566 C 2.3592547,11.057998 2.1681221,11.269057 1.9171901,11.53874 C 1.6685982,11.808427 1.2886785,12.211781 0.77742995,12.748806"
       id="text2172" />
    <path
       style="font-size:10.4646244px;font-style:normal;font-weight:normal;fill:#204a87;fill-opacity:1;stroke:none;stroke-width:0.99999994px;stroke-linecap:butt;stroke-linejoin:miter;stroke-opacity:1;font-family:DejaVu Sans"
       d="M 2.2057774,18.488732 C 2.5440624,18.57848 2.8029561,18.738412 2.9824591,18.968528 C 3.1619553,19.196347 3.2517051,19.481694 3.2517089,19.824569 C 3.2517051,20.298614 3.0917664,20.671405 2.7718921,20.942945 C 2.4543126,21.212184 2.013618,21.346803 1.449807,21.346803 C 1.2127736,21.346803 0.97113949,21.324941 0.72490409,21.281219 C 0.47866618,21.237496 0.23703206,21.174214 9.8347664e-07,21.091371 L 9.8347664e-07,20.397564 C 0.23473078,20.519528 0.46600914,20.610424 0.69383679,20.670254 C 0.92166209,20.730085 1.1483378,20.760001 1.3738649,20.760001 C 1.755875,20.760001 2.0492878,20.673707 2.2541043,20.501117 C 2.4589152,20.328529 2.5613219,20.080002 2.561325,19.755533 C 2.5613219,19.456382 2.4589152,19.21936 2.2541043,19.044467 C 2.0492878,18.867278 1.7719839,18.778682 1.4221917,18.77868 L 0.89059619,18.77868 L 0.89059619,18.205686 L 1.4221917,18.205686 C 1.7420673,18.205689 1.9917559,18.135503 2.1712582,17.995127 C 2.3507551,17.854759 2.4405049,17.659158 2.4405079,17.408325 C 2.4405049,17.143694 2.3565083,16.941189 2.1885178,16.800813 C 2.0228231,16.658144 1.7857916,16.586806 1.4774224,16.586802 C 1.2726068,16.586806 1.0608893,16.609818 0.84226929,16.655838 C 0.62364669,16.701865 0.39466957,16.770901 0.15533734,16.862944 L 0.15533734,16.220914 C 0.43379125,16.147281 0.68117849,16.092053 0.89749999,16.055228 C 1.1161199,16.018415 1.3094272,16.000006 1.4774224,16 C 1.9790989,16.000006 2.379521,16.126571 2.6786903,16.379695 C 2.9801544,16.630529 3.130888,16.964201 3.1308917,17.38071 C 3.130888,17.66376 3.051494,17.899631 2.8927092,18.088325 C 2.7362191,18.277025 2.5072419,18.410493 2.2057774,18.488732"
       id="text2176" />
    <rect
       style="opacity:1;color:#000000;fill:#729fcf;fill-opacity:1;fill-rule:nonzero;stroke:#204a87;stroke-width:0.99999994;stroke-linecap:square;stroke-linejoin:miter;marker:none;marker-start:none;marker-mid:none;marker-end:none;stroke-miterlimit:4;stroke-dasharray:none;stroke-dashoffset:0;stroke-opacity:1;visibility:visible;display:inline;overflow:visible;enable-background:accumulate"
       id="rect3151"
       width="13.999999"
       height="2"
       x="7.5"
       y="1.6734011" />
    <rect
       style="opacity:1;color:#000000;fill:#729fcf;fill-opacity:1;fill-rule:nonzero;stroke:#204a87;stroke-width:0.99999994;stroke-linecap:square;stroke-linejoin:miter;marker:none;marker-start:none;marker-mid:none;marker-end:none;stroke-miterlimit:4;stroke-dasharray:none;stroke-dashoffset:0;stroke-opacity:1;visibility:visible;display:inline;overflow:visible;enable-background:accumulate"
       id="rect3185"
       width="13.999999"
       height="2"
       x="7.5000014"
       y="9.5" />
    <rect
       style="opacity:1;color:#000000;fill:#729fcf;fill-opacity:1;fill-rule:nonzero;stroke:#204a87;stroke-width:0.99999994;stroke-linecap:square;stroke-linejoin:miter;marker:none;marker-start:none;marker-mid:none;marker-end:none;stroke-miterlimit:4;stroke-dasharray:none;stroke-dashoffset:0;stroke-opacity:1;visibility:visible;display:inline;overflow:visible;enable-background:accumulate"
       id="rect3187"
       width="13.999999"
       height="2"
       x="7.5000005"
       y="17.5" />
    <rect
       style="opacity:0.7;color:#000000;fill:url(#linearGradient3145);fill-opacity:1;fill-rule:nonzero;stroke:#204a87;stroke-width:0.99999994;stroke-linecap:square;stroke-linejoin:miter;marker:none;marker-start:none;marker-mid:none;marker-end:none;stroke-miterlimit:4;stroke-dasharray:none;stroke-dashoffset:0;stroke-opacity:1;visibility:visible;display:inline;overflow:visible;enable-background:accumulate"
       id="rect2163"
       width="13.999999"
       height="2"
       x="7.5"
       y="1.6734011" />
    <rect
       style="opacity:0.7;color:#000000;fill:url(#linearGradient3147);fill-opacity:1;fill-rule:nonzero;stroke:#204a87;stroke-width:0.99999994;stroke-linecap:square;stroke-linejoin:miter;marker:none;marker-start:none;marker-mid:none;marker-end:none;stroke-miterlimit:4;stroke-dasharray:none;stroke-dashoffset:0;stroke-opacity:1;visibility:visible;display:inline;overflow:visible;enable-background:accumulate"
       id="rect2165"
       width="13.999999"
       height="2"
       x="7.5000014"
       y="9.5" />
    <rect
       style="opacity:0.7;color:#000000;fill:url(#linearGradient3149);fill-opacity:1;fill-rule:nonzero;stroke:#204a87;stroke-width:0.99999994;stroke-linecap:square;stroke-linejoin:miter;marker:none;marker-start:none;marker-mid:none;marker-end:none;stroke-miterlimit:4;stroke-dasharray:none;stroke-dashoffset:0;stroke-opacity:1;visibility:visible;display:inline;overflow:visible;enable-background:accumulate"
       id="rect2167"
       width="13.999999"
       height="2"
       x="7.5000005"
       y="17.5" />
  </g>
</svg>
