<?xml version="1.0" encoding="UTF-8" standalone="no"?>
<!-- Created with Inkscape (http://www.inkscape.org/) -->
<svg
   xmlns:dc="http://purl.org/dc/elements/1.1/"
   xmlns:cc="http://web.resource.org/cc/"
   xmlns:rdf="http://www.w3.org/1999/02/22-rdf-syntax-ns#"
   xmlns:svg="http://www.w3.org/2000/svg"
   xmlns="http://www.w3.org/2000/svg"
   xmlns:xlink="http://www.w3.org/1999/xlink"
   xmlns:sodipodi="http://sodipodi.sourceforge.net/DTD/sodipodi-0.dtd"
   xmlns:inkscape="http://www.inkscape.org/namespaces/inkscape"
   width="22"
   height="22"
   id="svg2818"
   sodipodi:version="0.32"
   inkscape:version="0.45"
   sodipodi:docbase="/home/lse/public_html/Bambus/System/Icons/0.12/scalable/actions"
   sodipodi:docname="small-sort.svg"
   inkscape:export-filename="/home/lse/public_html/Bambus/System/Icons/actions/48x48/action-sort.png"
   inkscape:export-xdpi="67.5"
   inkscape:export-ydpi="67.5"
   version="1.0"
   inkscape:output_extension="org.inkscape.output.svg.inkscape"
   sodipodi:modified="true">
  <defs
     id="defs2820">
    <linearGradient
       inkscape:collect="always"
       id="linearGradient2858">
      <stop
         style="stop-color:white;stop-opacity:1;"
         offset="0"
         id="stop2860" />
      <stop
         style="stop-color:white;stop-opacity:0;"
         offset="1"
         id="stop2862" />
    </linearGradient>
    <linearGradient
       inkscape:collect="always"
       id="linearGradient2848">
      <stop
         style="stop-color:white;stop-opacity:1;"
         offset="0"
         id="stop2850" />
      <stop
         style="stop-color:white;stop-opacity:0;"
         offset="1"
         id="stop2852" />
    </linearGradient>
    <linearGradient
       inkscape:collect="always"
       id="linearGradient2838">
      <stop
         style="stop-color:white;stop-opacity:1"
         offset="0"
         id="stop2840" />
      <stop
         style="stop-color:#fcaf3e;stop-opacity:0;"
         offset="1"
         id="stop2842" />
    </linearGradient>
    <linearGradient
       inkscape:collect="always"
       xlink:href="#linearGradient2838"
       id="linearGradient2844"
       x1="11"
       y1="25.818182"
       x2="11"
       y2="38"
       gradientUnits="userSpaceOnUse" />
    <linearGradient
       inkscape:collect="always"
       xlink:href="#linearGradient2848"
       id="linearGradient2854"
       x1="11"
       y1="26.053476"
       x2="11"
       y2="37.478073"
       gradientUnits="userSpaceOnUse" />
    <linearGradient
       inkscape:collect="always"
       xlink:href="#linearGradient2858"
       id="linearGradient2864"
       x1="11"
       y1="26.155039"
       x2="11"
       y2="37.688515"
       gradientUnits="userSpaceOnUse" />
  </defs>
  <sodipodi:namedview
     id="base"
     pagecolor="#ffffff"
     bordercolor="#666666"
     borderopacity="1.0"
     inkscape:pageopacity="0.0"
     inkscape:pageshadow="2"
     inkscape:zoom="22"
     inkscape:cx="25.090909"
     inkscape:cy="16.094545"
     inkscape:current-layer="layer1"
     showgrid="true"
     inkscape:document-units="px"
     inkscape:grid-bbox="true"
     inkscape:window-width="1272"
     inkscape:window-height="945"
     inkscape:window-x="0"
     inkscape:window-y="25"
     width="22px"
     height="22px" />
  <metadata
     id="metadata2823">
    <rdf:RDF>
      <cc:Work
         rdf:about="">
        <dc:format>image/svg+xml</dc:format>
        <dc:type
           rdf:resource="http://purl.org/dc/dcmitype/StillImage" />
      </cc:Work>
    </rdf:RDF>
  </metadata>
  <g
     id="layer1"
     inkscape:label="Layer 1"
     inkscape:groupmode="layer">
    <path
       sodipodi:type="arc"
       style="opacity:1;fill:#fcaf3e;fill-opacity:1;stroke:#ce5c00;stroke-width:2.50349164;stroke-miterlimit:4;stroke-dasharray:none;stroke-opacity:1"
       id="path2826"
       sodipodi:cx="11"
       sodipodi:cy="31.818182"
       sodipodi:rx="4.4545455"
       sodipodi:ry="4.7272725"
       d="M 15.454545 31.818182 A 4.4545455 4.7272725 0 1 1  6.5454545,31.818182 A 4.4545455 4.7272725 0 1 1  15.454545 31.818182 z"
       transform="matrix(0.415929,0,0,0.383609,-2.222444,-1.205737)" />
    <path
       sodipodi:type="arc"
       style="opacity:1;fill:#fcaf3e;fill-opacity:1;stroke:#ce5c00;stroke-width:1.59396482;stroke-miterlimit:4;stroke-dasharray:none;stroke-opacity:1"
       id="path2830"
       sodipodi:cx="11"
       sodipodi:cy="31.818182"
       sodipodi:rx="4.4545455"
       sodipodi:ry="4.7272725"
       d="M 15.454545 31.818182 A 4.4545455 4.7272725 0 1 1  6.5454545,31.818182 A 4.4545455 4.7272725 0 1 1  15.454545 31.818182 z"
       transform="matrix(0.653431,0,0,0.602342,1.343978,-8.165424)" />
    <path
       sodipodi:type="arc"
       style="opacity:1;fill:#fcaf3e;fill-opacity:1;stroke:#ce5c00;stroke-width:1.10217988;stroke-miterlimit:4;stroke-dasharray:none;stroke-opacity:1"
       id="path2832"
       sodipodi:cx="11"
       sodipodi:cy="31.818182"
       sodipodi:rx="4.4545455"
       sodipodi:ry="4.7272725"
       d="M 15.454545 31.818182 A 4.4545455 4.7272725 0 1 1  6.5454545,31.818182 A 4.4545455 4.7272725 0 1 1  15.454545 31.818182 z"
       transform="matrix(0.945074,0,0,0.871022,6.894311,-16.71434)" />
    <path
       sodipodi:type="arc"
       style="opacity:1;fill:url(#linearGradient2844);fill-opacity:1;stroke:none;stroke-width:1;stroke-miterlimit:4;stroke-dasharray:none;stroke-opacity:1"
       id="path2836"
       sodipodi:cx="11"
       sodipodi:cy="31.818182"
       sodipodi:rx="4.4545455"
       sodipodi:ry="4.7272725"
       d="M 15.454545 31.818182 A 4.4545455 4.7272725 0 1 1  6.5454545,31.818182 A 4.4545455 4.7272725 0 1 1  15.454545 31.818182 z"
       transform="matrix(0.323267,0,0,0.297885,-1.203164,1.521843)" />
    <path
       sodipodi:type="arc"
       style="opacity:1;fill:url(#linearGradient2854);fill-opacity:1;stroke:none;stroke-width:0.57647055;stroke-miterlimit:4;stroke-dasharray:none;stroke-opacity:1"
       id="path2846"
       sodipodi:cx="11"
       sodipodi:cy="31.818182"
       sodipodi:rx="4.4545455"
       sodipodi:ry="4.7272725"
       d="M 15.454545 31.818182 A 4.4545455 4.7272725 0 1 1  6.5454545,31.818182 A 4.4545455 4.7272725 0 1 1  15.454545 31.818182 z"
       transform="matrix(0.560769,0,0,0.516739,2.363259,-5.441691)" />
    <path
       sodipodi:type="arc"
       style="opacity:1;fill:url(#linearGradient2864);fill-opacity:1;stroke:none;stroke-width:0.37984496;stroke-miterlimit:4;stroke-dasharray:none;stroke-opacity:1"
       id="path2856"
       sodipodi:cx="11"
       sodipodi:cy="31.818182"
       sodipodi:rx="4.4545455"
       sodipodi:ry="4.7272725"
       d="M 15.454545 31.818182 A 4.4545455 4.7272725 0 1 1  6.5454545,31.818182 A 4.4545455 4.7272725 0 1 1  15.454545 31.818182 z"
       transform="matrix(0.85105,0,0,0.784227,7.928579,-13.95269)" />
    <path
       sodipodi:type="arc"
       style="opacity:0.5;fill:none;fill-opacity:1;stroke:#eeeeec;stroke-width:4.9919796;stroke-miterlimit:4;stroke-dasharray:none;stroke-opacity:1"
       id="path3213"
       sodipodi:cx="11"
       sodipodi:cy="31.818182"
       sodipodi:rx="4.4545455"
       sodipodi:ry="4.7272725"
       d="M 15.454545 31.818182 A 4.4545455 4.7272725 0 1 1  6.5454545,31.818182 A 4.4545455 4.7272725 0 1 1  15.454545 31.818182 z"
       transform="matrix(0.2084094,0,0,0.1925472,6.0271881e-2,4.8734991)" />
    <path
       sodipodi:type="arc"
       style="opacity:0.5;fill:none;fill-opacity:1;stroke:#eeeeec;stroke-width:2.24372768;stroke-miterlimit:4;stroke-dasharray:none;stroke-opacity:1"
       id="path3215"
       sodipodi:cx="11"
       sodipodi:cy="31.818182"
       sodipodi:rx="4.4545455"
       sodipodi:ry="4.7272725"
       d="M 15.454545 31.818182 A 4.4545455 4.7272725 0 1 1  6.5454545,31.818182 A 4.4545455 4.7272725 0 1 1  15.454545 31.818182 z"
       transform="matrix(0.4642034,0,0,0.4279093,3.4254814,-2.6152928)" />
    <path
       sodipodi:type="arc"
       style="opacity:0.5;fill:#fcaf3e;fill-opacity:1;stroke:#eeeeec;stroke-width:1.39692914;stroke-miterlimit:4;stroke-dasharray:none;stroke-opacity:1"
       id="path3217"
       sodipodi:cx="11"
       sodipodi:cy="31.818182"
       sodipodi:rx="4.4545455"
       sodipodi:ry="4.7272725"
       d="M 15.454545 31.818182 A 4.4545455 4.7272725 0 1 1  6.5454545,31.818182 A 4.4545455 4.7272725 0 1 1  15.454545 31.818182 z"
       transform="matrix(0.7456653,0,0,0.6872381,9.0878071,-10.86667)" />
  </g>
</svg>
