<?xml version="1.0" encoding="UTF-8" standalone="no"?>
<!-- Created with Inkscape (http://www.inkscape.org/) -->
<svg
   xmlns:dc="http://purl.org/dc/elements/1.1/"
   xmlns:cc="http://web.resource.org/cc/"
   xmlns:rdf="http://www.w3.org/1999/02/22-rdf-syntax-ns#"
   xmlns:svg="http://www.w3.org/2000/svg"
   xmlns="http://www.w3.org/2000/svg"
   xmlns:xlink="http://www.w3.org/1999/xlink"
   xmlns:sodipodi="http://sodipodi.sourceforge.net/DTD/sodipodi-0.dtd"
   xmlns:inkscape="http://www.inkscape.org/namespaces/inkscape"
   width="22"
   height="22"
   id="svg1895"
   sodipodi:version="0.32"
   inkscape:version="0.45"
   sodipodi:docbase="/home/lse/public_html/Bambus/System/Icons/0.12/scalable/actions"
   sodipodi:docname="small-save.svg"
   inkscape:export-filename="/home/lse/public_html/Bambus/System/Icons/0.12/22x22/actions/save.png"
   inkscape:export-xdpi="90"
   inkscape:export-ydpi="90"
   version="1.0"
   inkscape:output_extension="org.inkscape.output.svg.inkscape"
   sodipodi:modified="true">
  <defs
     id="defs1897">
    <linearGradient
       inkscape:collect="always"
       id="linearGradient2932">
      <stop
         style="stop-color:white;stop-opacity:1;"
         offset="0"
         id="stop2934" />
      <stop
         style="stop-color:white;stop-opacity:0;"
         offset="1"
         id="stop2936" />
    </linearGradient>
    <linearGradient
       inkscape:collect="always"
       xlink:href="#linearGradient2932"
       id="linearGradient2361"
       gradientUnits="userSpaceOnUse"
       gradientTransform="matrix(2.3357476,0,0,2.3357476,28.869691,-7.2361565)"
       x1="-10.545455"
       y1="27.727272"
       x2="-10.545455"
       y2="37.844357" />
    <linearGradient
       inkscape:collect="always"
       id="linearGradient3328">
      <stop
         style="stop-color:#ffffff;stop-opacity:1;"
         offset="0"
         id="stop3330" />
      <stop
         style="stop-color:#ffffff;stop-opacity:0;"
         offset="1"
         id="stop3332" />
    </linearGradient>
    <linearGradient
       inkscape:collect="always"
       id="linearGradient6019">
      <stop
         style="stop-color:#ffffff;stop-opacity:1;"
         offset="0"
         id="stop6021" />
      <stop
         style="stop-color:#ffffff;stop-opacity:0;"
         offset="1"
         id="stop6023" />
    </linearGradient>
    <linearGradient
       inkscape:collect="always"
       id="linearGradient2774">
      <stop
         style="stop-color:white;stop-opacity:1;"
         offset="0"
         id="stop2776" />
      <stop
         style="stop-color:white;stop-opacity:0;"
         offset="1"
         id="stop2778" />
    </linearGradient>
    <linearGradient
       inkscape:collect="always"
       id="linearGradient2792">
      <stop
         style="stop-color:white;stop-opacity:1;"
         offset="0"
         id="stop2794" />
      <stop
         style="stop-color:white;stop-opacity:0;"
         offset="1"
         id="stop2796" />
    </linearGradient>
    <linearGradient
       inkscape:collect="always"
       id="linearGradient2764">
      <stop
         style="stop-color:white;stop-opacity:1;"
         offset="0"
         id="stop2766" />
      <stop
         style="stop-color:white;stop-opacity:0;"
         offset="1"
         id="stop2768" />
    </linearGradient>
    <linearGradient
       inkscape:collect="always"
       xlink:href="#linearGradient2764"
       id="linearGradient2770"
       x1="27.650488"
       y1="-5.1125283"
       x2="27.650488"
       y2="53.629902"
       gradientUnits="userSpaceOnUse"
       gradientTransform="matrix(1.008675,0,0,1.008675,-4.25884e-3,-0.367357)" />
    <linearGradient
       inkscape:collect="always"
       xlink:href="#linearGradient2792"
       id="linearGradient2798"
       x1="32.302731"
       y1="22.693897"
       x2="32.302731"
       y2="61.966625"
       gradientUnits="userSpaceOnUse"
       gradientTransform="matrix(1.008675,0,0,1.008675,-4.25884e-3,-0.367357)" />
    <linearGradient
       inkscape:collect="always"
       xlink:href="#linearGradient2774"
       id="linearGradient2780"
       x1="37.81818"
       y1="-2.909091"
       x2="37.81818"
       y2="24.074223"
       gradientUnits="userSpaceOnUse"
       gradientTransform="translate(-8.465425e-8,3.17593e-6)" />
    <linearGradient
       inkscape:collect="always"
       xlink:href="#linearGradient2764"
       id="linearGradient1900"
       gradientUnits="userSpaceOnUse"
       gradientTransform="matrix(1.010128,0,0,0.972168,-5.704421e-3,0.405991)"
       x1="27.650488"
       y1="-5.1125283"
       x2="27.650488"
       y2="53.629902" />
    <linearGradient
       inkscape:collect="always"
       xlink:href="#linearGradient6019"
       id="linearGradient6025"
       x1="12.454545"
       y1="-0.81818181"
       x2="12.454545"
       y2="23.95734"
       gradientUnits="userSpaceOnUse" />
    <linearGradient
       inkscape:collect="always"
       xlink:href="#linearGradient3328"
       id="linearGradient3334"
       x1="9.031682"
       y1="-0.30600482"
       x2="9.031682"
       y2="23.067822"
       gradientUnits="userSpaceOnUse" />
  </defs>
  <sodipodi:namedview
     id="base"
     pagecolor="#ffffff"
     bordercolor="#666666"
     borderopacity="1.0"
     inkscape:pageopacity="0.0"
     inkscape:pageshadow="2"
     inkscape:zoom="31.112698"
     inkscape:cx="17.806372"
     inkscape:cy="10.394545"
     inkscape:current-layer="layer1"
     showgrid="true"
     inkscape:document-units="px"
     inkscape:grid-bbox="true"
     inkscape:window-width="1272"
     inkscape:window-height="945"
     inkscape:window-x="0"
     inkscape:window-y="25"
     width="22px"
     height="22px" />
  <metadata
     id="metadata1900">
    <rdf:RDF>
      <cc:Work
         rdf:about="">
        <dc:format>image/svg+xml</dc:format>
        <dc:type
           rdf:resource="http://purl.org/dc/dcmitype/StillImage" />
      </cc:Work>
    </rdf:RDF>
  </metadata>
  <g
     id="layer1"
     inkscape:label="Layer 1"
     inkscape:groupmode="layer">
    <path
       style="color:#000000;fill:#f57900;fill-opacity:1;fill-rule:nonzero;stroke:#ce5c00;stroke-width:1;stroke-linecap:round;stroke-linejoin:bevel;marker:none;marker-start:none;marker-mid:none;marker-end:none;stroke-miterlimit:4;stroke-dasharray:none;stroke-dashoffset:0;stroke-opacity:1;visibility:visible;display:inline;overflow:visible"
       d="M 0.5,1.5 L 18.960786,1.5 L 21.5,3.9183005 L 21.5,21.5 L 0.5,21.5 L 0.5,1.5 z "
       id="rect1309"
       sodipodi:nodetypes="cccccc" />
    <path
       style="color:#000000;fill:#eeeeec;fill-opacity:1;fill-rule:nonzero;stroke:none;stroke-width:1;stroke-linecap:round;stroke-linejoin:miter;marker:none;stroke-miterlimit:4;stroke-dasharray:none;stroke-dashoffset:0;stroke-opacity:1;visibility:visible;display:inline;overflow:visible;opacity:0.7"
       d="M 1,2 L 1,2.5 L 1,20.5 L 1,21 L 1.5,21 L 20.5,21 L 21,21 L 21,20.5 L 21,4.6875 L 21,4.46875 L 20.84375,4.3125 L 18.53125,2.125 L 18.40625,2 L 18.1875,2 L 1.5,2 L 1,2 z M 2,3 L 17.96875,3 L 20,4.875 L 20,20 L 2,20 L 2,3 z "
       id="path3320" />
    <path
       style="opacity:0.7;color:#000000;fill:url(#linearGradient1900);fill-opacity:1;fill-rule:nonzero;stroke:none;stroke-width:1.59200001;stroke-linecap:round;stroke-linejoin:round;marker:none;marker-start:none;marker-mid:none;marker-end:none;stroke-miterlimit:4;stroke-dasharray:none;stroke-dashoffset:0;stroke-opacity:1;visibility:visible;display:inline;overflow:visible"
       d="M 1.0000006,1.999993 L 18.581701,1.999993 L 21.000001,4.2973785 L 21.000001,20.999993 L 1.0000006,20.999993 L 1.0000006,1.999993 z "
       id="path2762"
       sodipodi:nodetypes="cccccc" />
    <rect
       style="color:#000000;fill:#eeeeec;fill-opacity:1;fill-rule:nonzero;stroke:#ce5c00;stroke-width:1;stroke-linecap:round;stroke-linejoin:miter;marker:none;marker-start:none;marker-mid:none;marker-end:none;stroke-miterlimit:4;stroke-dasharray:none;stroke-dashoffset:0;stroke-opacity:1;visibility:visible;display:inline;overflow:visible"
       id="rect2229"
       width="13"
       height="7.9999986"
       x="4.5"
       y="10.5" />
    <rect
       style="color:#000000;fill:url(#linearGradient3334);fill-opacity:1.0;fill-rule:nonzero;stroke:#ffffff;stroke-width:1;stroke-linecap:round;stroke-linejoin:miter;marker:none;marker-start:none;marker-mid:none;marker-end:none;stroke-miterlimit:4;stroke-dasharray:none;stroke-dashoffset:0;stroke-opacity:1;visibility:visible;display:inline;overflow:visible"
       id="rect3326"
       width="11"
       height="6"
       x="5.5"
       y="11.5" />
    <path
       style="color:#000000;fill:#d3d7cf;fill-opacity:1;fill-rule:nonzero;stroke:#888a85;stroke-width:1;stroke-linecap:round;stroke-linejoin:miter;marker:none;marker-start:none;marker-mid:none;marker-end:none;stroke-miterlimit:4;stroke-dasharray:none;stroke-dashoffset:0;stroke-opacity:1;visibility:visible;display:inline;overflow:visible"
       d="M 7.5,0.5 L 12.54,0.5 L 12.544859,4.509261 L 15.475886,4.509261 L 15.480745,0.5 L 17.5,0.5 L 17.5,7.5 L 7.5,7.5 L 7.5,0.5 z "
       id="path3336"
       sodipodi:nodetypes="ccccccccc" />
    <path
       style="color:#000000;fill:#eeeeec;fill-opacity:1;fill-rule:nonzero;stroke:none;stroke-width:1;stroke-linecap:round;stroke-linejoin:miter;marker:none;stroke-miterlimit:4;stroke-dasharray:none;stroke-dashoffset:0;stroke-opacity:1;visibility:visible;display:inline;overflow:visible"
       d="M 8,1 L 8,1.5 L 8,6.5 L 8,7 L 8.5,7 L 16.5,7 L 17,7 L 17,6.5 L 17,1.5 L 17,1 L 16.5,1 L 16.46875,1 L 15.96875,1 L 15.96875,1.5 L 15.96875,5 L 12.03125,5 L 12.03125,1.5 L 12.03125,1 L 11.53125,1 L 8.5,1 L 8,1 z M 9,2 L 11.03125,2 L 11.03125,5.5 L 11.03125,6 L 9,6 L 9,2 z "
       id="path3339" />
    <g
       id="g2364"
       transform="matrix(0.4281284,0,0,0.4281284,-1.7107949,2.6087045)">
      <path
         id="text1944"
         d="M 18.048376,29.632281 L 18.048376,29.420771 C 18.291097,29.391258 18.469859,29.345349 18.584661,29.283043 C 18.702742,29.220739 18.761782,29.166631 18.761783,29.120722 L 18.761783,23.980525 C 18.65026,23.878875 18.535459,23.803453 18.417379,23.754259 C 18.299297,23.705076 18.176296,23.669004 18.048376,23.646044 L 18.048376,23.434534 L 19.091426,23.434534 C 19.140625,23.43454 19.179986,23.439458 19.209507,23.44929 C 19.242305,23.455854 19.273466,23.472251 19.302988,23.498479 C 19.335787,23.524719 19.371867,23.564069 19.411229,23.61653 C 19.450588,23.665725 19.501428,23.732949 19.563751,23.818204 L 22.796222,28.274679 L 22.796222,23.951013 C 22.796217,23.911667 22.742096,23.86084 22.63386,23.798528 C 22.528894,23.732949 22.345213,23.682121 22.082815,23.646044 L 22.082815,23.434534 L 24.100035,23.434534 L 24.100035,23.646044 C 23.863866,23.678842 23.685104,23.726391 23.56375,23.78869 C 23.445663,23.851002 23.386622,23.905109 23.386628,23.951013 L 23.386628,29.779847 C 23.222621,29.760172 23.09306,29.727379 22.997944,29.68147 C 22.906098,29.635561 22.840497,29.584732 22.801143,29.528986 L 19.352189,24.747865 L 19.352189,29.120722 C 19.352187,29.160073 19.406307,29.210901 19.51455,29.273205 C 19.626069,29.335512 19.809751,29.3847 20.065596,29.420771 L 20.065596,29.632281 L 18.048376,29.632281 M 26.068054,29.140396 C 26.264854,29.140397 26.473135,29.091208 26.6929,28.992831 C 26.915939,28.891176 27.152101,28.732133 27.401387,28.515703 L 27.401387,27.231884 L 26.815901,27.345018 C 26.592857,27.384371 26.399335,27.441757 26.235335,27.517177 C 26.074612,27.592601 25.941771,27.681141 25.836812,27.782795 C 25.731849,27.884453 25.654769,27.997586 25.60557,28.122196 C 25.556368,28.243528 25.531768,28.371418 25.531769,28.505866 C 25.531768,28.637036 25.551448,28.743611 25.590809,28.825591 C 25.630169,28.907572 25.677728,28.973157 25.73349,29.022345 C 25.792529,29.068254 25.851571,29.099406 25.910613,29.115802 C 25.972931,29.132199 26.025412,29.140397 26.068054,29.140396 M 28.892162,29.228936 C 28.613355,29.422411 28.382112,29.561778 28.198435,29.647038 C 28.018029,29.735577 27.881908,29.779846 27.790071,29.779847 C 27.681826,29.779846 27.591626,29.704425 27.519468,29.55358 C 27.447304,29.402735 27.407943,29.194505 27.401387,28.928886 C 27.253783,29.076452 27.106182,29.204343 26.958583,29.312556 C 26.810979,29.420771 26.666657,29.50931 26.525618,29.578174 C 26.384575,29.647038 26.250093,29.697866 26.122175,29.730658 C 25.997531,29.76345 25.88273,29.779846 25.777771,29.779847 C 25.659688,29.779846 25.538327,29.760172 25.413687,29.720821 C 25.289045,29.68147 25.175884,29.619165 25.074204,29.533904 C 24.975803,29.448645 24.893802,29.33879 24.828202,29.204342 C 24.762601,29.069894 24.729801,28.907572 24.729801,28.717376 C 24.729801,28.523903 24.764241,28.340265 24.833121,28.166465 C 24.905282,27.989388 25.010243,27.828706 25.148005,27.684418 C 25.289045,27.540134 25.462887,27.415523 25.66953,27.310586 C 25.876171,27.202373 26.117253,27.120393 26.392777,27.064643 L 27.401387,26.86297 L 27.401387,26.179251 C 27.401384,26.06776 27.388264,25.964464 27.362027,25.869363 C 27.335784,25.77099 27.291503,25.68737 27.229186,25.618502 C 27.166862,25.546363 27.081581,25.492256 26.973342,25.45618 C 26.868379,25.416833 26.735538,25.398797 26.574819,25.402073 C 26.469856,25.405356 26.366534,25.423392 26.264856,25.45618 C 26.163173,25.488976 26.074612,25.534885 25.999174,25.593907 C 25.92373,25.652938 25.86469,25.723441 25.822051,25.805418 C 25.77941,25.884124 25.76301,25.972663 25.772851,26.071036 C 25.776129,26.100552 25.741689,26.134984 25.66953,26.174331 C 25.600648,26.210407 25.517007,26.243199 25.418608,26.272708 C 25.323485,26.302225 25.228365,26.32518 25.133245,26.341572 C 25.041403,26.357972 24.975803,26.361252 24.936443,26.35141 L 24.867563,26.159575 C 24.943002,25.995617 25.057803,25.838214 25.211966,25.687366 C 25.366126,25.536525 25.541608,25.403716 25.738411,25.288939 C 25.938491,25.17417 26.148413,25.082352 26.368177,25.013483 C 26.591217,24.944624 26.806059,24.910193 27.012703,24.910188 C 27.373503,24.910193 27.650666,25.00529 27.844192,25.195481 C 28.04099,25.382401 28.139391,25.64474 28.139394,25.982497 L 28.139394,28.756726 C 28.139391,28.894455 28.157431,28.992832 28.193514,29.051857 C 28.229591,29.110884 28.277152,29.140397 28.336196,29.140396 C 28.382112,29.140397 28.441153,29.132199 28.513317,29.115802 C 28.585474,29.099406 28.687156,29.063336 28.818361,29.007588 L 28.892162,29.228936 L 28.892162,29.228936 M 34.796219,29.632281 L 34.796219,29.420771 C 35.032376,29.358466 35.204577,29.304358 35.312824,29.258449 C 35.424338,29.212541 35.480099,29.166631 35.480106,29.120722 L 35.480106,26.518651 C 35.480099,26.318621 35.468619,26.15302 35.445665,26.021847 C 35.425979,25.887402 35.393179,25.782467 35.347265,25.707041 C 35.304618,25.631623 35.247217,25.579155 35.175063,25.549638 C 35.106176,25.51685 35.022535,25.500454 34.92414,25.50045 C 34.815893,25.500454 34.701092,25.531606 34.579737,25.593907 C 34.458371,25.652938 34.333729,25.739837 34.205814,25.854606 C 34.077887,25.966104 33.948325,26.103832 33.817129,26.26779 C 33.689204,26.428475 33.562922,26.610472 33.438286,26.813781 L 33.438286,29.120722 C 33.438281,29.166631 33.489121,29.212541 33.590808,29.258449 C 33.692483,29.30108 33.872885,29.355186 34.132013,29.420771 L 34.132013,29.632281 L 32.016392,29.632281 L 32.016392,29.420771 C 32.25255,29.358466 32.424752,29.304358 32.532997,29.258449 C 32.644514,29.212541 32.700275,29.166631 32.700279,29.120722 L 32.700279,26.518651 C 32.700275,26.318621 32.690435,26.15302 32.670758,26.021847 C 32.651074,25.887402 32.618274,25.782467 32.572357,25.707041 C 32.529713,25.631623 32.472313,25.579155 32.400155,25.549638 C 32.331272,25.51685 32.245991,25.500454 32.144313,25.50045 C 31.921268,25.500454 31.686746,25.615227 31.440746,25.844769 C 31.198022,26.074319 30.937259,26.397322 30.658459,26.813781 L 30.658459,29.120722 C 30.658457,29.16991 30.719137,29.220739 30.8405,29.273205 C 30.965139,29.325674 31.134061,29.374862 31.347265,29.420771 L 31.347265,29.632281 L 29.231645,29.632281 L 29.231645,29.420771 C 29.448126,29.365024 29.617048,29.315836 29.73841,29.273205 C 29.85977,29.227297 29.92045,29.176469 29.920451,29.120722 L 29.920451,26.134981 C 29.92045,26.003815 29.91389,25.90052 29.900772,25.825093 C 29.89093,25.749675 29.86141,25.692288 29.812211,25.652934 C 29.766289,25.610308 29.697409,25.579155 29.605569,25.559475 C 29.513727,25.539805 29.389086,25.520129 29.231645,25.50045 L 29.231645,25.303696 C 29.356285,25.284024 29.471086,25.26107 29.576048,25.234832 C 29.681009,25.205323 29.781049,25.17417 29.876171,25.141373 C 29.971291,25.108585 30.061492,25.072514 30.146774,25.033159 C 30.235333,24.993812 30.323894,24.952822 30.412456,24.910188 L 30.584658,25.082348 L 30.638779,26.208763 C 30.786378,25.992338 30.93562,25.803783 31.086503,25.643096 C 31.237382,25.479138 31.386623,25.343051 31.534227,25.234832 C 31.681826,25.126621 31.824507,25.04628 31.962271,24.993808 C 32.10003,24.938066 32.22795,24.910193 32.346035,24.910188 C 32.503473,24.910193 32.647795,24.929868 32.779,24.969213 C 32.913477,25.00857 33.028278,25.074154 33.123403,25.165967 C 33.2218,25.25779 33.29888,25.377483 33.354645,25.525044 C 33.410401,25.672613 33.438281,25.85625 33.438286,26.075954 L 33.438286,26.169413 C 33.576043,25.962825 33.718723,25.782467 33.86633,25.628339 C 34.013926,25.47094 34.159888,25.339771 34.304215,25.234832 C 34.45181,25.126621 34.594491,25.04628 34.732259,24.993808 C 34.873294,24.938066 35.004495,24.910193 35.125862,24.910188 C 35.283297,24.910193 35.427619,24.931507 35.558827,24.974133 C 35.693301,25.016768 35.808102,25.082352 35.90323,25.170887 C 36.001624,25.25943 36.078704,25.372563 36.134472,25.510287 C 36.190226,25.64474 36.218106,25.803783 36.218113,25.987415 L 36.218113,29.120722 C 36.218106,29.166631 36.268946,29.212541 36.370635,29.258449 C 36.472308,29.30108 36.652709,29.355186 36.91184,29.420771 L 36.91184,29.632281 L 34.796219,29.632281 M 39.509625,25.421748 C 39.34234,25.421752 39.188178,25.454544 39.047139,25.520125 C 38.906096,25.585713 38.779816,25.677532 38.668296,25.795581 C 38.560054,25.913636 38.468213,26.056283 38.392773,26.22352 C 38.320612,26.390764 38.268131,26.57604 38.235332,26.77935 L 40.336193,26.77935 C 40.41163,26.779353 40.46083,26.767875 40.483794,26.744918 C 40.510031,26.718687 40.52315,26.671138 40.523154,26.602271 C 40.52315,26.543248 40.518231,26.472745 40.508394,26.390761 C 40.49855,26.308783 40.47887,26.225163 40.449353,26.1399 C 40.42311,26.051364 40.38539,25.964464 40.336193,25.8792 C 40.290269,25.793945 40.229589,25.718522 40.15415,25.652934 C 40.078707,25.584074 39.986866,25.528327 39.878628,25.485693 C 39.773664,25.443067 39.650663,25.421752 39.509625,25.421748 M 41.330042,26.892484 C 41.270998,26.958071 41.192277,27.018736 41.09388,27.074481 C 40.995475,27.13023 40.893794,27.179419 40.788837,27.222047 L 38.200891,27.222047 L 38.200891,27.236803 C 38.20089,27.482748 38.233691,27.720492 38.299292,27.950036 C 38.368171,28.176304 38.464932,28.377976 38.589575,28.555054 C 38.714215,28.728854 38.866736,28.868222 39.047139,28.973156 C 39.227539,29.078092 39.430901,29.13056 39.657226,29.130559 C 39.758904,29.13056 39.857305,29.12564 39.952429,29.115802 C 40.050827,29.102686 40.155788,29.074812 40.267312,29.032182 C 40.37883,28.986273 40.501831,28.919049 40.636315,28.830509 C 40.774073,28.741971 40.934795,28.622279 41.11848,28.471433 C 41.161116,28.494389 41.197197,28.527181 41.226721,28.56981 C 41.259517,28.612442 41.284117,28.646874 41.300522,28.673106 C 41.080755,28.912491 40.887234,29.105966 40.719956,29.253531 C 40.555951,29.397817 40.400149,29.50931 40.252551,29.588012 C 40.108227,29.666713 39.963906,29.717541 39.819588,29.740496 C 39.678543,29.76673 39.524382,29.779846 39.357103,29.779847 C 39.104538,29.779846 38.863456,29.72574 38.633856,29.617525 C 38.407532,29.50931 38.207451,29.356826 38.03361,29.160072 C 37.859767,28.960039 37.720366,28.720656 37.615406,28.441921 C 37.513724,28.159908 37.462884,27.845102 37.462884,27.497502 C 37.462884,27.277796 37.487484,27.061366 37.536685,26.848214 C 37.585885,26.635066 37.656406,26.433394 37.748247,26.243195 C 37.843367,26.053003 37.958168,25.877565 38.092651,25.716879 C 38.22713,25.556201 38.379652,25.416833 38.550215,25.298776 C 38.622374,25.249592 38.702734,25.202044 38.791297,25.15613 C 38.883136,25.106947 38.978257,25.064316 39.07666,25.02824 C 39.175059,24.992174 39.27182,24.9643 39.366943,24.944619 C 39.465341,24.92167 39.558823,24.910193 39.647386,24.910188 C 39.863865,24.910193 40.054106,24.939705 40.218111,24.998727 C 40.38539,25.057758 40.53135,25.138099 40.655996,25.23975 C 40.780633,25.338131 40.885594,25.454544 40.970879,25.588989 C 41.056155,25.720162 41.125036,25.859529 41.17752,26.007091 C 41.233277,26.15466 41.272638,26.305504 41.295602,26.459625 C 41.318557,26.610472 41.330038,26.754759 41.330042,26.892484"
         style="font-size:10.07502937px;font-style:normal;font-weight:normal;fill:#000000;fill-opacity:1;stroke:none;stroke-width:1px;stroke-linecap:butt;stroke-linejoin:miter;stroke-opacity:1;font-family:Gentium" />
      <g
         transform="matrix(1.085705,0,0,1.047019,38.731096,-7.1591721)"
         id="g2940">
        <path
           style="opacity:1;color:#000000;fill:#000000;fill-opacity:1;fill-rule:nonzero;stroke:#2e3436;stroke-width:1.59336019;stroke-linecap:butt;stroke-linejoin:bevel;marker:none;marker-start:none;marker-mid:none;marker-end:none;stroke-miterlimit:4;stroke-dasharray:none;stroke-dashoffset:0;stroke-opacity:1;visibility:visible;display:inline;overflow:visible"
           d="M -18.625,28.75 L -18.75,29.21875 L -9.21875,32.28125 L -18.75,35.28125 L -18.625,35.75 L -8.4375,32.53125 L 1.59375,35.75 L 1.6875,35.28125 L -7.625,32.28125 L 2.09375,29.21875 L 1.96875,28.75 L -8.4375,32.03125 L -18.625,28.75 z "
           id="rect2008" />
        <path
           style="opacity:0.6;color:#000000;fill:url(#linearGradient2361);fill-opacity:1;fill-rule:nonzero;stroke:none;stroke-width:0.5;stroke-linecap:butt;stroke-linejoin:bevel;marker:none;marker-start:none;marker-mid:none;marker-end:none;stroke-miterlimit:4;stroke-dasharray:none;stroke-dashoffset:0;stroke-opacity:1;visibility:visible;display:inline;overflow:visible"
           d="M -18.625,28.75 L -18.75,29.21875 L -9.21875,32.28125 L -18.75,35.28125 L -18.625,35.75 L -8.4375,32.53125 L 1.59375,35.75 L 1.6875,35.28125 L -7.625,32.28125 L 2.09375,29.21875 L 1.96875,28.75 L -8.4375,32.03125 L -18.625,28.75 z "
           id="path2930" />
      </g>
    </g>
  </g>
</svg>
